<svg xmlns="http://www.w3.org/2000/svg" width="290.82" height="53" viewBox="0 0 290.82 53"><defs><style>.a{fill:#2f2f2f;}</style></defs><path class="a" d="M24.02,15.66a16.627,16.627,0,0,0-5.06-2.26c-.06-1.18-.06-1.38-.1-2.38a42.991,42.991,0,0,0,4.28-.5V8.34c-1.84.34-2.58.46-4.32.68V6.66c1-.02,2.86-.06,5.08-.06l.08-2.12c-1.88.14-2.56.18-5.12.3.02-1.04.04-1.42.04-1.44a.65.65,0,0,1,.26-.36c.22-.18.26-.2.26-.28,0-.14-.12-.2-.5-.24l-2.44-.24.06,2.66c-1.78.04-2.86.08-5.14.08l.04,2.16c1.72-.2,2.86-.28,5.16-.38l.04,2.5a13.725,13.725,0,0,1-1.38.04c-.34,0-.76,0-.76-.28,0-.26.3-.48.66-.74l-1.14-.98c-.78.56-2.14,1.5-2.14,2.48,0,.78.92,1.44,2.76,1.44.58,0,1.68-.04,2.04-.06l.04,1.92-.56-.02c-4.5-.16-4.7,2.16-4.7,2.74,0,1.62,1.72,2.6,4.48,2.6,2.56,0,3.04-.8,3.12-2.84a15.076,15.076,0,0,1,3.66,1.98Zm-7.28-.7c.02,1.12-.06,1.48-1.36,1.48-.24,0-1.52,0-1.52-.68,0-.52.64-.86,1.94-.86A5.177,5.177,0,0,1,16.74,14.96Zm27.42-2.9A20.084,20.084,0,0,1,40.3,6.74a18.335,18.335,0,0,0,3.12-1.46l-1-1.9a11.785,11.785,0,0,1-2.94,1.6,14.061,14.061,0,0,1-.84-2.38c0-.12.26-.52.26-.62,0-.26-.56-.14-.7-.12l-2.02.3a27.644,27.644,0,0,0,1.3,3.5,24.984,24.984,0,0,1-4.18.84,10.114,10.114,0,0,1-1.58,0l1.02,2.1a22.979,22.979,0,0,0,5.6-1.18,21.87,21.87,0,0,0,1.88,3.1,13.29,13.29,0,0,0-2.44-.34c-2.2,0-4.72,1.22-4.72,4.12a3.662,3.662,0,0,0,.78,2.34c1.4,1.8,4.12,1.9,5.28,1.9a16.686,16.686,0,0,0,3.16-.22l-.16-2.26a15.133,15.133,0,0,1-3.08.34c-2.34,0-3.68-.62-3.68-2.16,0-1.36,1.34-2.16,2.94-2.16a7.7,7.7,0,0,1,4.58,1.68Zm20.9-6.02V3.72a13.971,13.971,0,0,1-4.74.82,17.617,17.617,0,0,1-2.56-.22v2.2c1.06.1,1.98.1,2.14.1A26.861,26.861,0,0,0,65.06,6.04Zm.96,10.5V14.06a16.315,16.315,0,0,1-4.56.62c-2.02,0-2.22-.54-2.24-2.44l-2.18.3c.06,3.38.82,4.36,4.46,4.36A27.337,27.337,0,0,0,66.02,16.54ZM55.56,12.98l-1.18-.64c-.44.78-.56.98-.8,1.4A11,11,0,0,1,53.3,11c0-3.02.86-6.64,1.16-6.82.04-.02.3-.12.34-.14a.237.237,0,0,0,.1-.18c0-.16-.38-.3-.52-.36l-2.04-.74a39.419,39.419,0,0,0-.84,4.56,35.377,35.377,0,0,0-.3,3.94,17.425,17.425,0,0,0,.82,5.26,6.122,6.122,0,0,0,.74,1.58l1.58-.62A17.744,17.744,0,0,1,55.56,12.98ZM78.06,2.96V.9H70.98V19.8h2.04V2.96Zm18.52,10.2c0-2.36-1.36-3.84-3.6-4.6l.32-.92L91,7.14c-.08.38-.14.64-.24,1.04a8.834,8.834,0,0,0-2.18.16c.1-.8.12-.9.24-1.64A27.745,27.745,0,0,0,94.1,5.64V3.5a19.524,19.524,0,0,1-4.9,1.34,14.5,14.5,0,0,1,.62-1.96c.22-.06.46-.12.46-.3,0-.06,0-.16-.5-.3L87.7,1.72a32.977,32.977,0,0,0-.74,3.38,28.263,28.263,0,0,1-3.8-.14l.66,1.98c1.08,0,1.6,0,2.86-.06-.1.94-.16,1.44-.2,2.22-3.62,2-4.36,4.8-4.36,6.16,0,1.62.94,2.6,2.2,2.6a5.62,5.62,0,0,0,2.86-1,4.429,4.429,0,0,0,.28.74l1.92-1.04c-.2-.64-.24-.72-.38-1.2a18.056,18.056,0,0,0,3.26-5.04,2.848,2.848,0,0,1,2,2.76,3.768,3.768,0,0,1-1.16,2.76,5.8,5.8,0,0,1-3.42,1.42l1.46,1.84C92.52,18.7,96.58,17.56,96.58,13.16ZM90.16,9.9A16.108,16.108,0,0,1,88.52,13a20.3,20.3,0,0,1-.1-2.88A4.634,4.634,0,0,1,90.16,9.9Zm-3.42,5.02a3.175,3.175,0,0,1-1.86.86c-.34,0-.74-.12-.74-.94s.5-2.08,2.3-3.58A28.509,28.509,0,0,0,86.74,14.92Zm29.82.72a18.37,18.37,0,0,0-3.44-1.82,19.817,19.817,0,0,1-.26-2.78,1.832,1.832,0,0,1,.76-1.6l-2.08-1.12a3.022,3.022,0,0,0-.86,2.04c0,.42.24,2.46.28,2.92a10.093,10.093,0,0,0-1.56-.12c-2.76,0-3.54,1.76-3.54,2.84a2.264,2.264,0,0,0,.74,1.7,4.753,4.753,0,0,0,3.26.94c2.62,0,3.22-.84,3.4-2.44a11.009,11.009,0,0,1,1.98,1.32Zm-5.5-.36c0,.72.02,1.56-1.6,1.56-1.1,0-1.66-.46-1.66-.9,0-.4.48-.96,1.52-.96A6.716,6.716,0,0,1,111.06,15.28Zm6.06-8a9.884,9.884,0,0,0-4.46-1.84l-.9,1.72a14.155,14.155,0,0,1,4.38,1.82Zm-5.96-1.04V4c-.52.18-1.12.38-2.3.68.08-.26.46-1.54.48-1.56.12-.12.46-.24.46-.44,0-.22-.38-.32-.48-.34l-2.18-.48a19.083,19.083,0,0,1-.72,3.3,26.625,26.625,0,0,1-3.4.26l.3,2.08c.94-.06,1.5-.12,2.42-.24a34.306,34.306,0,0,1-3.42,7.28l2.14.92a48.777,48.777,0,0,0,3.7-8.58C109.86,6.58,110.48,6.42,111.16,6.24Zm26.14,4.48V8.6a22.968,22.968,0,0,0-2.64-.12c-1.06,0-2.06.06-3.1.14v2.1a24.511,24.511,0,0,1,3-.22A21.735,21.735,0,0,1,137.3,10.72ZM132.78,6.7V4.48a15.643,15.643,0,0,1-3.18,1.18c.14-.56.3-1.28.48-2.18.04-.2.08-.22.34-.34.18-.08.24-.14.24-.28,0-.22-.46-.32-.5-.32l-2.46-.58a24.287,24.287,0,0,1-.68,4.24,14.511,14.511,0,0,1-1.98.12,8.07,8.07,0,0,1-1.62-.12l.16,2.08a26.369,26.369,0,0,0,2.98-.24,33.3,33.3,0,0,1-4.06,9.52l2.44.74a56.72,56.72,0,0,0,4.12-10.64A24.138,24.138,0,0,0,132.78,6.7Zm4.84,11.44-.2-2.32a13.167,13.167,0,0,1-3.52.44,4.683,4.683,0,0,1-2.54-.54.687.687,0,0,1-.24-.6,3.782,3.782,0,0,1,.08-.74l-1.98-.42a4.635,4.635,0,0,0-.24,1.44c0,2.04,1.54,3.04,5.14,3.04A19.344,19.344,0,0,0,137.62,18.14Zm19.44-12.1V3.72a13.971,13.971,0,0,1-4.74.82,17.617,17.617,0,0,1-2.56-.22v2.2c1.06.1,1.98.1,2.14.1A26.861,26.861,0,0,0,157.06,6.04Zm.96,10.5V14.06a16.315,16.315,0,0,1-4.56.62c-2.02,0-2.22-.54-2.24-2.44l-2.18.3c.06,3.38.82,4.36,4.46,4.36A27.337,27.337,0,0,0,158.02,16.54Zm-10.46-3.56-1.18-.64c-.44.78-.56.98-.8,1.4A11,11,0,0,1,145.3,11c0-3.02.86-6.64,1.16-6.82.04-.02.3-.12.34-.14a.237.237,0,0,0,.1-.18c0-.16-.38-.3-.52-.36l-2.04-.74a39.419,39.419,0,0,0-.84,4.56,35.377,35.377,0,0,0-.3,3.94,17.424,17.424,0,0,0,.82,5.26,6.122,6.122,0,0,0,.74,1.58l1.58-.62A17.744,17.744,0,0,1,147.56,12.98Zm31.96-4.02V7.02h-3.9V4.34c1.24-.2,2.02-.38,2.22-.44a3.862,3.862,0,0,1,.82-.16,5.231,5.231,0,0,0,.56,0,.113.113,0,0,0,.1-.12.244.244,0,0,0-.06-.18l-1.48-1.76a21.62,21.62,0,0,1-8.06,1.36l.78,1.82a27.465,27.465,0,0,0,2.8-.18V7.02h-3.72V8.96h3.72v2.5h-2.96v7.26h2.1v-.64h4.18v.48h2.2v-7.1h-3.2V8.96Zm-11.06-5V2.14h-5.02V3.96Zm8.16,12.16h-4.18v-2.7h4.18Zm-7.9-6.98V7.38H163.3V9.14Zm-.08,2.6V10H163.3v1.74Zm.4,6.8V12.6H162.7v6.26h1.98V18H167v.54ZM167,16.14h-2.32V14.52H167Zm2.62-9.56V4.74H162.3V6.58Zm28.66,3.64-.68-2.28c-.94.42-1.2.54-3.54,1.64a2.68,2.68,0,0,0-2.72-2.02,3.868,3.868,0,0,0-1.72.42c.34-.52.5-.8,1.14-1.98a42.1,42.1,0,0,0,4.78-.76L195.68,3a16.887,16.887,0,0,1-3.92,1.02c.1-.22.6-1.34.62-1.36.02,0,.42-.18.46-.2.12-.04.2-.1.2-.22,0-.14-.34-.18-.4-.2l-2.5-.44a15.509,15.509,0,0,1-1,2.66,28.13,28.13,0,0,1-3.82-.08l.24,2.08c.84,0,1.46-.02,2.6-.08a26.592,26.592,0,0,1-3.94,5.5l1.96,1.22c1.1-1.8,2.3-3.62,4.26-3.62a1.386,1.386,0,0,1,1.52,1.32c-3,1.54-4.84,2.48-4.84,4.96a2.734,2.734,0,0,0,.76,1.96c1.26,1.34,3.58,1.34,4.7,1.34a33.1,33.1,0,0,0,4.76-.3V16.3a23.124,23.124,0,0,1-5.1.64c-1.46,0-3-.26-3-1.56,0-1.4,2.08-2.44,2.84-2.82-.02.88-.04,1.86-.1,3h2.32c0-.68-.04-3.16-.04-3.94C195.74,11.06,196.7,10.72,198.28,10.22Zm19.58-2.5-.36-2a22.8,22.8,0,0,1-3.64,1.8c-.32-.7-.4-.9-.66-1.52a13.174,13.174,0,0,0,3.16-1.36l-.44-1.94a19.3,19.3,0,0,1-3.42,1.54,17.431,17.431,0,0,1-.6-1.84c0-.06.02-.12.18-.28.1-.1.16-.16.16-.26,0-.24-.5-.18-.66-.16l-2.28.26c.32.94.54,1.58,1,2.82a24.664,24.664,0,0,1-4.66.4l.62,1.92a22.961,22.961,0,0,0,4.76-.54c.2.46.42.96.72,1.64a26.512,26.512,0,0,1-6.3.6l.7,2.02a25.794,25.794,0,0,0,6.42-.88c.38.74.56,1.1,1.04,1.96a15.277,15.277,0,0,0-2.86-.32c-2.26,0-4.42.74-4.42,3.48,0,2.64,2.48,3.78,6.08,3.78a20.133,20.133,0,0,0,3.16-.24l.2-2.36a14.59,14.59,0,0,1-4,.54c-.68,0-3.28,0-3.28-1.7,0-1.08,1.1-1.64,2.42-1.64a11.261,11.261,0,0,1,5.24,1.52l1.22-1.52a21.71,21.71,0,0,1-2.64-4.16A14.833,14.833,0,0,0,217.86,7.72Zm22.6,5.18a17,17,0,0,0-3.28-8.5l-2.06,1a18.6,18.6,0,0,1,2.94,8.12Zm-8.82-.3-1.66-1.48c-.38.96-1.2,3.08-1.92,3.08-.4,0-1.36-.72-1.36-4.62a20.732,20.732,0,0,1,.38-4.46c.34-.12.58-.2.58-.42,0-.24-.32-.34-.46-.38l-2.2-.6a19.479,19.479,0,0,0-.6,5.2c0,3.8.64,6.14,2.04,7.5a2.181,2.181,0,0,0,1.48.66C229.54,17.08,230.54,14.96,231.64,12.6Zm28-7.7V2.5a60.55,60.55,0,0,1-14.58,1.86l.4,2.36a76.474,76.474,0,0,1,7.62-.86c-.94.88-3.88,3.64-3.88,7.06,0,4.46,5,5.5,6.62,5.84l.7-2.52a5.936,5.936,0,0,1-3.48-.96,3.427,3.427,0,0,1-1.48-2.8c0-2,1.66-4.22,3.42-5.64A7.741,7.741,0,0,1,259.64,4.9Zm21.44,7.94c-.86-.56-1.48-.94-2.58-1.56a24.139,24.139,0,0,0,.68-2.98c.06-.28.06-.32.22-.42.28-.14.3-.16.3-.26,0-.18-.28-.28-.48-.34l-2.24-.62a17,17,0,0,1-.52,3.66,12.87,12.87,0,0,0-3.86-.92c.28-.62,1.7-3.84,1.72-3.92a8.153,8.153,0,0,1,1.04-1.7l-1.32-1.32c-1.08.7-3.44,1.1-6.52,1.08l.9,2.02a13.959,13.959,0,0,0,3.64-.62,46.32,46.32,0,0,1-1.62,4.34,5.4,5.4,0,0,0-3.18.96,4.97,4.97,0,0,0-2.36,3.96,2.334,2.334,0,0,0,2.26,2.58c1.76,0,2.62-1.28,4.6-5.52a12.383,12.383,0,0,1,4,1.12,9.675,9.675,0,0,1-3.98,4.7l1.98,1.38a11.153,11.153,0,0,0,3.96-4.98c.46.3,1.02.68,2.08,1.5Zm-11.54-1.52a22.714,22.714,0,0,1-1.32,2.48.912.912,0,0,1-.84.48c-.14,0-.4-.02-.4-.54C266.98,13,267.82,11.86,269.54,11.32Zm30.96-.6V8.6a22.968,22.968,0,0,0-2.64-.12c-1.06,0-2.06.06-3.1.14v2.1a24.512,24.512,0,0,1,3-.22A21.735,21.735,0,0,1,300.5,10.72ZM295.98,6.7V4.48a15.642,15.642,0,0,1-3.18,1.18c.14-.56.3-1.28.48-2.18.04-.2.08-.22.34-.34.18-.08.24-.14.24-.28,0-.22-.46-.32-.5-.32l-2.46-.58a24.289,24.289,0,0,1-.68,4.24,14.511,14.511,0,0,1-1.98.12,8.069,8.069,0,0,1-1.62-.12l.16,2.08a26.369,26.369,0,0,0,2.98-.24,33.3,33.3,0,0,1-4.06,9.52l2.44.74a56.718,56.718,0,0,0,4.12-10.64A24.138,24.138,0,0,0,295.98,6.7Zm4.84,11.44-.2-2.32a13.167,13.167,0,0,1-3.52.44,4.683,4.683,0,0,1-2.54-.54.687.687,0,0,1-.24-.6,3.781,3.781,0,0,1,.08-.74l-1.98-.42a4.635,4.635,0,0,0-.24,1.44c0,2.04,1.54,3.04,5.14,3.04A19.344,19.344,0,0,0,300.82,18.14ZM26.06,46.9a17,17,0,0,0-3.28-8.5l-2.06,1a18.6,18.6,0,0,1,2.94,8.12Zm-8.82-.3-1.66-1.48c-.38.96-1.2,3.08-1.92,3.08-.4,0-1.36-.72-1.36-4.62a20.732,20.732,0,0,1,.38-4.46c.34-.12.58-.2.58-.42,0-.24-.32-.34-.46-.38l-2.2-.6a19.478,19.478,0,0,0-.6,5.2c0,3.8.64,6.14,2.04,7.5a2.181,2.181,0,0,0,1.48.66C15.14,51.08,16.14,48.96,17.24,46.6Zm18.78,7.3V35H33.98V51.84H28.94V53.9Zm21.16-3.12c-3.46-1.84-7.34-4.06-7.34-12.12,0-.26,0-1.6.04-1.68s.36-.34.4-.4a.478.478,0,0,0,.16-.32c0-.3-.68-.3-.9-.3l-2.24-.08c.02.84.08,3.42.08,3.96a11.151,11.151,0,0,1-3,8.22,12.957,12.957,0,0,1-4.28,2.88l1.94,1.94c3.9-2.54,5.18-3.92,6.64-7.36,1.64,3.56,2.98,4.98,6.72,7.26ZM77.04,44.6c0-.72-.5-3.08-3.12-5.88l-1.66,1.2a10.228,10.228,0,0,1,2.22,3.88c0,.48-.46.52-1.32.6l1.36,2.06C75.8,46.22,77.04,45.74,77.04,44.6Zm-4.74-.88c0-1.22-.22-3.44-2.94-3.44a9.375,9.375,0,0,0-1.58.16c.14-.76.28-1.46.38-2.18.02-.2.06-.22.42-.44.22-.14.26-.2.26-.28,0-.18-.4-.3-.56-.32l-2.44-.34a20.7,20.7,0,0,1-.44,4c-.88.14-2.72.48-4.18.6l.8,2.42a25.177,25.177,0,0,1,2.84-.86,20.993,20.993,0,0,1-3.96,7.82l2.28,1.02a33.152,33.152,0,0,0,4.14-9.32,7.533,7.533,0,0,1,1.14-.1c1.44,0,1.66.64,1.66,1.7a11.824,11.824,0,0,1-1.22,4.98,1.23,1.23,0,0,1-1.2.5,5.592,5.592,0,0,1-1.8-.32l.28,2.42a12.651,12.651,0,0,0,1.72.12,3.108,3.108,0,0,0,3-1.54A15.338,15.338,0,0,0,72.3,43.72Zm19.52-5.7a23.763,23.763,0,0,0-4.78-2.06l-.86,1.98a18.944,18.944,0,0,1,4.62,2.18Zm3.68,8.92a4.316,4.316,0,0,0-4.44-4.38,7.691,7.691,0,0,0-4.92,2.02,25.551,25.551,0,0,1,1.2-4.4l-2.3-.9a39.042,39.042,0,0,0-1.56,7.64l1.74.92c2.06-2.4,4.08-3.2,5.46-3.2,1.5,0,2.52.82,2.52,2.1,0,1.84-1.7,3.78-5.42,3.78a20.028,20.028,0,0,1-2.5-.22l1.06,2.46C88.82,52.7,95.5,52.58,95.5,46.94Zm22.34-2.58a7.066,7.066,0,0,0-7.44-7.28,8.626,8.626,0,0,0-8.82,8.48,5.691,5.691,0,0,0,4,5.38c1.04,0,1.96-1.68,2.56-2.92a28.4,28.4,0,0,0,2.48-8.9,5.117,5.117,0,0,1,3.4,1.34,4.715,4.715,0,0,1,1.44,3.5,6.257,6.257,0,0,1-1.44,3.98,6.736,6.736,0,0,1-3.6,2.14l1.48,2.06a9.655,9.655,0,0,0,4.66-3.52A7.473,7.473,0,0,0,117.84,44.36Zm-9.6-4.88c-.4,3.12-2.12,8.34-3.16,8.34-.36,0-1.28-.84-1.28-2.46a6.55,6.55,0,0,1,2-4.44A5.9,5.9,0,0,1,108.24,39.48ZM138.36,52.7V36.26h-8.54V52.84h2.2v-1.2h4.1V52.7Zm-2.24-7.8h-4.1V42.52h4.1Zm0-4.32h-4.1V38.2h4.1Zm0,9.02h-4.1V46.84h4.1Zm-6.72-4.62a13.831,13.831,0,0,1-2.72-4.12v-.22h2.62v-1.9h-2.62V36.58c0-.06.1-.14.2-.22s.12-.14.12-.18c0-.22-.42-.24-.54-.26l-1.82-.18v3H121.7v1.9h2.76a16.913,16.913,0,0,1-3.6,7.02l1.86,1.1a16.159,16.159,0,0,0,1.92-2.88v6.96h2.04V44.82a18.5,18.5,0,0,0,1.24,1.64Zm18.1-7.04V36.22h-4.7v1.72Zm.58,2.5V38.76h-6.06v1.68Zm11,10.72c-4-1.38-4.56-3.6-4.56-5.8a.458.458,0,0,1,.22-.48c.24-.22.34-.32.34-.48,0-.18-.16-.26-.78-.26l-2.14-.02c.02.32.06.8.06,1.3,0,4.8-3.06,5.54-4.3,5.8V46.6h-5.64v6.28h1.98v-.8h1.66v.62h2V51.44l1.62,1.74a6.923,6.923,0,0,0,4-3.54,8.9,8.9,0,0,0,3.84,3.38Zm-13.16-.78h-1.66V48.34h1.66ZM158.9,38.14c0-.14-.16-.26-.24-.3l-1.88-1.02a11.956,11.956,0,0,1-1.98,2.42l1.6,1.26a9.186,9.186,0,0,0,1.78-2c.1-.12.14-.12.44-.14C158.7,38.34,158.9,38.32,158.9,38.14Zm.42,5.04a10.383,10.383,0,0,1-3.82-2.04,3.23,3.23,0,0,1-1.08-2.68,8.453,8.453,0,0,1,.12-1.94,2.2,2.2,0,0,0,.22-.24.321.321,0,0,0,.1-.22c0-.18-.22-.22-.76-.24l-2-.04c.04.48.08,1.1.08,1.78,0,2.8-.52,4.5-4.24,5.62l1.54,1.78a8.222,8.222,0,0,0,3.94-3.24,9.17,9.17,0,0,0,4.18,3.32Zm-8.02-5.14c0-.12-.16-.16-.44-.22l-1.84-.34a13.121,13.121,0,0,1-.44,3.18l1.96.36a17.261,17.261,0,0,0,.36-2.6C151.06,38.34,151.3,38.2,151.3,38.04Zm7.42,8.22c0-.14-.22-.3-.32-.34l-1.86-.78a11.025,11.025,0,0,1-1.44,2.22l1.72,1.12a9.209,9.209,0,0,0,1.24-1.92c.1-.02.22-.08.36-.1C158.62,46.42,158.72,46.38,158.72,46.26Zm-11.2-3.3v-1.7h-4.8v1.7Zm4.12,3.3c0-.12-.14-.18-.44-.24l-2-.42a8.939,8.939,0,0,1-.82,3.02l2,.66a10.919,10.919,0,0,0,.84-2.66C151.38,46.54,151.64,46.42,151.64,46.26Zm-4.12-.62V43.96h-4.8v1.68Zm30.36-1.42-.68-2.28c-.94.42-1.2.54-3.54,1.64a2.68,2.68,0,0,0-2.72-2.02,3.867,3.867,0,0,0-1.72.42c.34-.52.5-.8,1.14-1.98a42.1,42.1,0,0,0,4.78-.76l.14-2.24a16.887,16.887,0,0,1-3.92,1.02c.1-.22.6-1.34.62-1.36.02,0,.42-.18.46-.2.12-.04.2-.1.2-.22,0-.14-.34-.18-.4-.2l-2.5-.44a15.509,15.509,0,0,1-1,2.66,28.131,28.131,0,0,1-3.82-.08l.24,2.08c.84,0,1.46-.02,2.6-.08a26.592,26.592,0,0,1-3.94,5.5l1.96,1.22c1.1-1.8,2.3-3.62,4.26-3.62a1.386,1.386,0,0,1,1.52,1.32c-3,1.54-4.84,2.48-4.84,4.96a2.734,2.734,0,0,0,.76,1.96c1.26,1.34,3.58,1.34,4.7,1.34a33.1,33.1,0,0,0,4.76-.3V50.3a23.124,23.124,0,0,1-5.1.64c-1.46,0-3-.26-3-1.56,0-1.4,2.08-2.44,2.84-2.82-.02.88-.04,1.86-.1,3h2.32c0-.68-.04-3.16-.04-3.94C175.34,45.06,176.3,44.72,177.88,44.22Zm21.68,1.3V41.44h-4.1c.62-.72,1.2-1.48,1.48-1.88.08-.08.1-.08.3-.12.04,0,.24-.02.24-.16,0-.16-.34-.3-.4-.32l-2.02-.7a11.816,11.816,0,0,1-1.58,3.18h-1.9l.72-.62a10.113,10.113,0,0,0-1.5-2.18,59.054,59.054,0,0,0,5.96-.68,5.857,5.857,0,0,1,.82-.14c.08,0,.42.08.5.08s.14-.04.14-.12c0-.18-.24-.44-.32-.52l-1.5-1.52a39.406,39.406,0,0,1-9.5,1.22c-1.24,0-2-.06-2.62-.1l.9,1.94c.4.02.8.02,1.16.02l-1.56,1.04a6.166,6.166,0,0,1,1.28,1.58H183.1v4.12h2.04V43.28h12.38v2.24Zm-.32,5.56a17.351,17.351,0,0,1-5.86-1.44,13.639,13.639,0,0,0,3.54-4.08l-1-1.06h-9.86v1.88h2.24l-1.08.98a11.931,11.931,0,0,0,2.3,2.3,16.036,16.036,0,0,1-6.44,1.48l1.08,1.94a16.026,16.026,0,0,0,3.76-.72,17.933,17.933,0,0,0,3.52-1.46,17.1,17.1,0,0,0,6.9,2.08Zm-8.96-9.64h-2.74l.58-.5a11.657,11.657,0,0,0-1.58-2.12c1.12,0,2.02-.02,3.72-.14l-1.26.88A5.375,5.375,0,0,1,190.28,41.44Zm3.36,4.94a9.32,9.32,0,0,1-2.24,2.18,9.718,9.718,0,0,1-2.34-2.18Zm25.82-4.86-.08-2.3a18.276,18.276,0,0,1-2.72.96c-.08-1-.18-2.18-.18-2.26-.02-.1-.06-.52-.06-.62s.04-.18.18-.36c.06-.08.18-.22.18-.3,0-.24-.34-.24-.52-.24l-2.34-.08a35.269,35.269,0,0,1,.58,4.32,25,25,0,0,1-3.22.22c-.36,0-.64,0-1.28-.04l.46,2.3a27.816,27.816,0,0,0,4.14-.3v1.06a9.968,9.968,0,0,1-.74,4.38,11.076,11.076,0,0,1-1.96,3.34l2.26,1.16a14.8,14.8,0,0,0,2.68-9.18c0-.34,0-.6-.02-1.2A22.87,22.87,0,0,0,219.46,41.52Zm-10.12,5.24-1.5-1.04c-.4.9-.52,1.18-.8,1.92a14.753,14.753,0,0,1-.4-3.78c0-2.74.54-6.1.96-6.44.26-.2.32-.24.32-.32,0-.2-.52-.34-.58-.36l-2.02-.58a36.261,36.261,0,0,0-.8,7.1,19.137,19.137,0,0,0,1.6,8.52l1.92-.3A18.453,18.453,0,0,1,209.34,46.76Zm28.68,5.26V49.46a25.919,25.919,0,0,1-6.18.9c-2.1,0-3.68-.7-3.68-2.14,0-1.34,1.48-2.36,2.38-2.92a30.089,30.089,0,0,1,7.4-3.16l-.74-2.44c-2.46,1.16-2.72,1.28-5.02,2.36a2.435,2.435,0,0,1-1.16-1.36,16.185,16.185,0,0,1-.58-4.74l-2.56.38c.64,3.82.74,4.4,1.02,5.06a6.3,6.3,0,0,0,1.18,1.8c-2.2,1.3-4.14,2.58-4.14,5.08a3.811,3.811,0,0,0,2.04,3.42,8.6,8.6,0,0,0,4.4.8A35.876,35.876,0,0,0,238.02,52.02Zm22.5-2.24-.62-2.24c-.82,1.16-1.58,1.52-2.14,1.52-.54,0-.74-.22-.74-1.32a27.774,27.774,0,0,1,.2-2.82c.26-2.68.28-2.9.28-3.26a2.279,2.279,0,0,0-2.2-2.4c-1.34,0-3.24,1.78-4.02,2.5l.44-.88-1.28-1.22a14.011,14.011,0,0,1,.2-2.64c.06-.06.36-.32.36-.38,0-.18-.18-.2-.5-.24l-1.98-.22-.08,4.3a16.314,16.314,0,0,1-3.6.96l.98,2.16c1-.32,1.54-.52,2.6-.9l-.04,1.76a22.885,22.885,0,0,1-3.8,4.6l2.08,1.4c.7-1.1,1.04-1.58,1.66-2.44l-.06,4.62,2.24-.12c-.12-2.34-.12-4.42-.14-7.2,1.4-1.72,2.94-3.64,4.08-3.64.68,0,.78.82.78,1.34,0,.84-.36,4.56-.36,5.32,0,.5,0,3.28,2.32,3.28A4.8,4.8,0,0,0,260.52,49.78Zm18.7-.12a16.627,16.627,0,0,0-5.06-2.26c-.06-1.18-.06-1.38-.1-2.38a42.992,42.992,0,0,0,4.28-.5V42.34c-1.84.34-2.58.46-4.32.68V40.66c1-.02,2.86-.06,5.08-.06l.08-2.12c-1.88.14-2.56.18-5.12.3.02-1.04.04-1.42.04-1.44a.65.65,0,0,1,.26-.36c.22-.18.26-.2.26-.28,0-.14-.12-.2-.5-.24l-2.44-.24.06,2.66c-1.78.04-2.86.08-5.14.08l.04,2.16c1.72-.2,2.86-.28,5.16-.38l.04,2.5a13.725,13.725,0,0,1-1.38.04c-.34,0-.76,0-.76-.28,0-.26.3-.48.66-.74l-1.14-.98c-.78.56-2.14,1.5-2.14,2.48,0,.78.92,1.44,2.76,1.44.58,0,1.68-.04,2.04-.06l.04,1.92-.56-.02c-4.5-.16-4.7,2.16-4.7,2.74,0,1.62,1.72,2.6,4.48,2.6,2.56,0,3.04-.8,3.12-2.84a15.076,15.076,0,0,1,3.66,1.98Zm-7.28-.7c.02,1.12-.06,1.48-1.36,1.48-.24,0-1.52,0-1.52-.68,0-.52.64-.86,1.94-.86A5.177,5.177,0,0,1,271.94,48.96Zm28.88-8.54V38.26c-2.04.16-2.66.22-5.44.38V36.58c0-.08.02-.12.16-.24s.18-.18.18-.3c0-.2-.12-.26-.58-.28l-2.22-.14c.12,1.46.12,2.52.14,3.14-4.2.2-5.92.2-7.28.2v2.32c2.54-.32,5.56-.5,7.34-.6l.04,1.5a2.638,2.638,0,0,0-.94-.16c-2.04,0-3.14,1.52-3.14,3.72a3.579,3.579,0,0,0,1.04,2.78,2.518,2.518,0,0,0,1.64.62,4.022,4.022,0,0,0,1.08-.2,6.382,6.382,0,0,1-2.86,3.28l2.24,1.16a13.876,13.876,0,0,0,2.72-3.72,8.968,8.968,0,0,0,1.02-3.86,5.158,5.158,0,0,0-.58-2.44v-2.8C297.98,40.46,299.3,40.42,300.82,40.42Zm-7.28,5.06c0,1.42-.96,1.86-1.38,1.86-.46,0-1.1-.46-1.1-1.66,0-1.06.56-1.76,1.36-1.76a1.041,1.041,0,0,1,.74.28A1.865,1.865,0,0,1,293.54,45.48Z" transform="translate(-10 -0.9)"/></svg>