<svg xmlns="http://www.w3.org/2000/svg" width="302.148" height="68" viewBox="0 0 302.148 68"><defs><style>.a,.e{fill:none;}.a{stroke:#ba7394;stroke-width:0.8px;}.b{fill:#ba7394;}.c{fill:#2f2f2f;}.d{stroke:none;}</style></defs><g transform="translate(-33 -5974)"><g class="a" transform="translate(33 5974)"><rect class="d" width="88" height="36"/><rect class="e" x="0.4" y="0.4" width="87.2" height="35.2"/></g><rect class="b" width="50" height="6" transform="translate(102 6036)"/><path class="c" d="M110.6,21.024V17.952a31.1,31.1,0,0,1-7.416,1.08c-2.52,0-4.416-.84-4.416-2.568,0-1.608,1.776-2.832,2.856-3.5a36.107,36.107,0,0,1,8.88-3.792l-.888-2.928c-2.952,1.392-3.264,1.536-6.024,2.832A2.922,2.922,0,0,1,102.2,7.44a19.421,19.421,0,0,1-.7-5.688l-3.072.456c.768,4.584.888,5.28,1.224,6.072a7.558,7.558,0,0,0,1.416,2.16c-2.64,1.56-4.968,3.1-4.968,6.1a4.573,4.573,0,0,0,2.448,4.1c1.2.624,2.448.96,5.28.96A43.051,43.051,0,0,0,110.6,21.024Zm25.536-5.88L133.78,13.2c-2.352,4.608-5.568,5.448-6.912,5.448a2.314,2.314,0,0,1-2.112-1.008c-.456-.816-.456-3.144-.456-4.248a90.711,90.711,0,0,1,.672-9.6c.384-.312.672-.5.672-.7,0-.144-.216-.312-.792-.384l-3.192-.456c.072,1.608-.12,8.736-.12,10.2,0,5.76.384,6.984,1.512,7.968a5.338,5.338,0,0,0,3.5,1.224,8.675,8.675,0,0,0,4.776-1.536A17.907,17.907,0,0,0,136.132,15.144ZM160.06,5.28V2.4a72.66,72.66,0,0,1-17.5,2.232l.48,2.832a91.769,91.769,0,0,1,9.144-1.032c-1.128,1.056-4.656,4.368-4.656,8.472,0,5.352,6,6.6,7.944,7.008l.84-3.024a7.124,7.124,0,0,1-4.176-1.152,4.112,4.112,0,0,1-1.776-3.36c0-2.4,1.992-5.064,4.1-6.768A9.289,9.289,0,0,1,160.06,5.28Zm25.2,6.552c0-5.352-3.936-8.736-8.928-8.736a10.351,10.351,0,0,0-10.584,10.176c0,4.3,3.936,6.456,4.8,6.456,1.248,0,2.352-2.016,3.072-3.5A34.075,34.075,0,0,0,176.6,5.544a6.14,6.14,0,0,1,4.08,1.608,5.658,5.658,0,0,1,1.728,4.2,7.509,7.509,0,0,1-1.728,4.776,8.083,8.083,0,0,1-4.32,2.568l1.776,2.472a11.586,11.586,0,0,0,5.592-4.224A8.967,8.967,0,0,0,185.26,11.832ZM173.74,5.976c-.48,3.744-2.544,10.008-3.792,10.008-.432,0-1.536-1.008-1.536-2.952a7.86,7.86,0,0,1,2.4-5.328A7.085,7.085,0,0,1,173.74,5.976Zm36.84-2.832a11.118,11.118,0,0,0-2.04-1.968l-1.032,1.08a10.141,10.141,0,0,1,1.968,2.04ZM209.236,5.88a10.268,10.268,0,0,0-1.992-2.136l-1.032,1.08A9.9,9.9,0,0,1,208.2,6.96Zm-3.7-.264-1.08-1.944a38.136,38.136,0,0,1-5.472.384,42.462,42.462,0,0,1-6.048-.432l.72,2.64c1.128.072,1.824.1,3.264.1,1.824,0,2.664-.048,3.7-.12-.912.84-1.872,1.7-2.424,2.184l1.656,1.728C201.82,8.472,203.668,6.912,205.54,5.616Zm1.128,14.256-.168-2.88a33.511,33.511,0,0,1-7.416.768c-4.08,0-4.248-.672-4.248-1.344,0-.864.96-1.7,1.344-2.016l-2.088-1.7a5.893,5.893,0,0,0-2.328,4.248c0,2.424,2.3,3.432,7.728,3.432A58.579,58.579,0,0,0,206.668,19.872Zm27.072-17.5c0-.216-.192-.264-.48-.288l-2.616-.216V18.84c0,.624-.384.816-1.128.816a14.156,14.156,0,0,1-1.7-.144l1.176,2.688c3.288-.024,4.32-.648,4.32-2.592V3c0-.072.168-.24.312-.408C233.692,2.52,233.74,2.472,233.74,2.376Zm-5.28,1.608c0-.216-.216-.264-.456-.288l-2.616-.216V16.992h2.592V4.632c0-.1.12-.216.24-.312S228.46,4.128,228.46,3.984Zm-4.728,5.664v-2.4H220.3V4.2a12.013,12.013,0,0,0,2.3-.552,6.506,6.506,0,0,0,.768.168c.1,0,.192,0,.192-.144,0-.192-.24-.456-.312-.528l-1.656-1.8c-2.832,1.392-6.672,1.392-8.184,1.392l1.032,2.184c1.056-.048,2.04-.144,3.072-.288V7.248h-4.248v2.4h3.576a14.725,14.725,0,0,1-1.584,3.84,17.224,17.224,0,0,1-2.712,3.48l2.424,1.272a18.714,18.714,0,0,0,2.544-3.84v7.7H220.3V13.968a16.263,16.263,0,0,0,2.04,1.848l1.3-1.848a17.549,17.549,0,0,1-3.336-3.6v-.72Zm32.4,10.224V2.016H239.068c.216,2.52.312,5.04.312,7.56,0,6-.336,8.76-1.92,11.472l2.5.888a18.292,18.292,0,0,0,1.968-7.944h4.44v6.84h2.712v-6.84h4.32v4.752c0,.672-.312.864-1.3.864a5.888,5.888,0,0,1-1.1-.1l1.32,2.616C256.108,21.864,256.132,21.144,256.132,19.872ZM253.4,6.672h-4.32V4.344h4.32Zm0,5.064h-4.32V8.928h4.32Zm-7.032-5.064h-4.32c0-.888,0-1.464-.024-2.328h4.344Zm0,5.064H242.02c0-.48.024-.72.048-2.808h4.3Zm35.3-1.656V7.752h-5.136c.768-.936,1.632-2.16,1.8-2.424.768-1.3.84-1.32,1.176-1.368.48-.048.672-.1.672-.288a.372.372,0,0,0-.192-.288L277.3,1.8a24.775,24.775,0,0,1-2.208,3.6V3.672h-2.736V2.544c0-.144.192-.24.336-.312.1-.072.24-.144.24-.312,0-.1-.12-.192-.336-.192l-3.072-.12V3.672H263.26V5.928h6.264V7.752h-8.28V10.08h9.12a28.881,28.881,0,0,1-9.192,4.272l1.488,2.328c1.392-.528,2.016-.768,3.1-1.224v6.792h2.592v-.624h8.136v.5h2.64V12.1h-7.1a25.233,25.233,0,0,0,2.4-2.016Zm-5.184,5.64h-8.136V14.16h8.136Zm0,3.768h-8.136v-1.7h8.136ZM274.66,5.928a17.482,17.482,0,0,1-1.56,1.824h-.744V5.928ZM303.148,16.08a9.947,9.947,0,0,0-1.584-5.208l-2.232,1.176a7.369,7.369,0,0,1,1.08,3.576c0,2.9-2.424,3.744-4.392,3.744a3.23,3.23,0,0,1-2.256-.72A2.864,2.864,0,0,1,293,16.536a14.517,14.517,0,0,1,.288-2.208c.648.048,1.224.12,2.136.12,1.176,0,1.92-.072,2.28-.1l.624-2.64a15.6,15.6,0,0,1-2.832.192,9.242,9.242,0,0,1-1.584-.072c.432-1.536.72-2.4,1.008-3.216a22.108,22.108,0,0,0,3.528.192L299,6.216c-1.392.024-1.944.024-3.144-.024a24.955,24.955,0,0,1,1.272-2.808c.384-.12.72-.048.72-.336,0-.264-.36-.384-.552-.456l-2.76-1.032c-.336,1.224-.7,2.232-1.416,4.32a18.309,18.309,0,0,1-4.08-1.2l-.216,2.784c1.368.36,1.992.48,3.48.768-.528,1.56-.744,2.352-.984,3.192a17.074,17.074,0,0,1-3.24-.912l-.408,2.64a18.947,18.947,0,0,0,3.024.792,16.489,16.489,0,0,0-.288,2.712c0,4.416,3.48,5.232,5.808,5.232C299.236,21.888,303.148,20.232,303.148,16.08Zm-209.112,36a7.048,7.048,0,0,1-3.144-1.368h2.9V48.744H81.388a6.019,6.019,0,0,0,.648-.888h9.528v-6.12H87.94V40.728h5.9v-1.9h-5.9V38.5c0-.072.024-.144.216-.264.216-.168.24-.288.24-.384,0-.264-.288-.288-.48-.288l-2.64-.072v1.344H81.652c0-.384,0-.456.288-.7.072-.072.192-.192.192-.288,0-.144-.144-.312-.576-.336l-2.592-.144v1.464H73.132v1.9h5.832v1.008H75.508v6.12h3.648a9.789,9.789,0,0,1-.72.888h-5.3v1.968h3.216a12.326,12.326,0,0,1-3.1,1.872l1.488,1.728a14.647,14.647,0,0,0,1.9-1.08v.744h3.288c-1.176,1.176-2.5,2.016-6.024,2.088l1.536,2.28a11.206,11.206,0,0,0,5.136-1.728,7.1,7.1,0,0,0,2.376-2.64h3.816c-.216,1.536-.648,1.9-1.344,1.9a14.924,14.924,0,0,1-2.16-.288l1.152,2.688c3.072-.048,4.08-.144,4.68-2.4a19.633,19.633,0,0,0,.624-3.048A14.892,14.892,0,0,0,92.38,54.1Zm-5.088-7.992H78.124v-.864H88.948Zm-3.672-2.352H81.652V40.728h3.624Zm3.672,4.608H78.124v-.912H88.948ZM88.2,51.912H83.5a8.375,8.375,0,0,0,.192-1.2h2.952A10.045,10.045,0,0,0,88.2,51.912Zm-6.984-1.2a6.609,6.609,0,0,1-.192,1.2H78.412a17.954,17.954,0,0,0,1.344-1.2Zm36.5,5.4a14.98,14.98,0,0,1-6.648-2.9h6.576v-1.92h-8.76V50.04h8.016v-1.9h-8.016v-1.1h6.24V45.432h-6.24v-1.08h6.24v-1.68h-6.24V41.64h7.632V39.864h-7.368a9.649,9.649,0,0,0,.816-1.368c.048-.1.1-.144.336-.216.168-.072.288-.12.288-.24,0-.192-.48-.24-.552-.24l-2.592-.24a9.723,9.723,0,0,1-1.272,2.3H102.8a11.76,11.76,0,0,0,.768-1.152c.048-.1.072-.144.288-.24.1-.048.216-.1.216-.216,0-.1-.1-.216-.5-.312l-2.28-.6a13.142,13.142,0,0,1-1.92,3.1A10.074,10.074,0,0,1,96.58,43.2l1.872,1.56a11.307,11.307,0,0,0,1.608-1.536V50.04h6.024v1.248H97.372v1.92H103.4a8.829,8.829,0,0,1-3.048,2.232,12.194,12.194,0,0,1-3.48,1.176l1.752,1.848a18.026,18.026,0,0,0,7.464-4.44v4.3h2.808V54.168a14.469,14.469,0,0,0,3.72,2.592,12.23,12.23,0,0,0,3.6,1.44Zm-11.64-10.68h-3.552v-1.08h3.552Zm0-2.76h-3.552V41.64h3.552Zm0,5.472h-3.552v-1.1h3.552Zm34.056,3L137.788,49.2c-2.352,4.608-5.568,5.448-6.912,5.448a2.314,2.314,0,0,1-2.112-1.008c-.456-.816-.456-3.144-.456-4.248a90.711,90.711,0,0,1,.672-9.6c.384-.312.672-.5.672-.7,0-.144-.216-.312-.792-.384l-3.192-.456c.072,1.608-.12,8.736-.12,10.2,0,5.76.384,6.984,1.512,7.968a5.338,5.338,0,0,0,3.5,1.224,8.675,8.675,0,0,0,4.776-1.536A17.907,17.907,0,0,0,140.14,51.144Zm23.928-9.864V38.4a72.659,72.659,0,0,1-17.5,2.232l.48,2.832a91.769,91.769,0,0,1,9.144-1.032c-1.128,1.056-4.656,4.368-4.656,8.472,0,5.352,6,6.6,7.944,7.008l.84-3.024a7.124,7.124,0,0,1-4.176-1.152,4.112,4.112,0,0,1-1.776-3.36c0-2.4,1.992-5.064,4.1-6.768A9.289,9.289,0,0,1,164.068,41.28Zm25.464,9.6a20.4,20.4,0,0,0-3.936-10.2l-2.472,1.2a22.318,22.318,0,0,1,3.528,9.744Zm-10.584-.36-1.992-1.776c-.456,1.152-1.44,3.7-2.3,3.7-.48,0-1.632-.864-1.632-5.544a24.879,24.879,0,0,1,.456-5.352c.408-.144.7-.24.7-.5,0-.288-.384-.408-.552-.456l-2.64-.72a23.374,23.374,0,0,0-.72,6.24c0,4.56.768,7.368,2.448,9a2.617,2.617,0,0,0,1.776.792C176.428,55.9,177.628,53.352,178.948,50.52Zm32.136,3.672a19.952,19.952,0,0,0-6.072-2.712c-.072-1.416-.072-1.656-.12-2.856a51.589,51.589,0,0,0,5.136-.6V45.408c-2.208.408-3.1.552-5.184.816V43.392c1.2-.024,3.432-.072,6.1-.072l.1-2.544c-2.256.168-3.072.216-6.144.36.024-1.248.048-1.7.048-1.728a.78.78,0,0,1,.312-.432c.264-.216.312-.24.312-.336,0-.168-.144-.24-.6-.288l-2.928-.288.072,3.192c-2.136.048-3.432.1-6.168.1l.048,2.592c2.064-.24,3.432-.336,6.192-.456l.048,3a16.47,16.47,0,0,1-1.656.048c-.408,0-.912,0-.912-.336,0-.312.36-.576.792-.888l-1.368-1.176c-.936.672-2.568,1.8-2.568,2.976,0,.936,1.1,1.728,3.312,1.728.7,0,2.016-.048,2.448-.072l.048,2.3-.672-.024c-5.4-.192-5.64,2.592-5.64,3.288,0,1.944,2.064,3.12,5.376,3.12,3.072,0,3.648-.96,3.744-3.408a18.091,18.091,0,0,1,4.392,2.376Zm-8.736-.84c.024,1.344-.072,1.776-1.632,1.776-.288,0-1.824,0-1.824-.816,0-.624.768-1.032,2.328-1.032A6.212,6.212,0,0,1,202.348,53.352ZM236.524,43.1V40.512c-2.448.192-3.192.264-6.528.456V38.5c0-.1.024-.144.192-.288s.216-.216.216-.36c0-.24-.144-.312-.7-.336l-2.664-.168c.144,1.752.144,3.024.168,3.768-5.04.24-7.1.24-8.736.24v2.784c3.048-.384,6.672-.6,8.808-.72l.048,1.8a3.166,3.166,0,0,0-1.128-.192c-2.448,0-3.768,1.824-3.768,4.464a4.3,4.3,0,0,0,1.248,3.336,3.022,3.022,0,0,0,1.968.744,4.826,4.826,0,0,0,1.3-.24,7.658,7.658,0,0,1-3.432,3.936l2.688,1.392a16.651,16.651,0,0,0,3.264-4.464,10.761,10.761,0,0,0,1.224-4.632,6.19,6.19,0,0,0-.7-2.928v-3.36C233.116,43.152,234.7,43.1,236.524,43.1Zm-8.736,6.072c0,1.7-1.152,2.232-1.656,2.232-.552,0-1.32-.552-1.32-1.992,0-1.272.672-2.112,1.632-2.112a1.249,1.249,0,0,1,.888.336A2.238,2.238,0,0,1,227.788,49.176Z" transform="translate(32 5980)"/><path class="c" d="M22.932,18.576c.072-1.344.1-3.48.1-5.736,0-2.712-.048-5.592-.1-7.32A2.929,2.929,0,0,0,20,2.712c-1.464-.048-3.744-.072-6.048-.072-2.568,0-5.184.024-6.72.072-1.8.072-2.952,1.08-3,2.616-.048,1.608-.1,4.272-.1,6.864,0,2.568.048,5.088.1,6.456.072,1.776,1.1,2.808,3.192,2.9,1.488.072,3.528.12,5.64.12,2.472,0,5.04-.048,6.888-.12A3.007,3.007,0,0,0,22.932,18.576ZM20.6,17.712c-.048,1.032-.456,1.656-1.8,1.7-1.368.048-3.264.072-5.16.072s-3.792-.024-5.16-.072C7,19.368,6.54,19.152,6.468,17.784c-.072-1.152-.1-3.12-.1-5.136,0-2.472.048-4.992.1-6.24.048-1.224.408-1.584,1.776-1.632.912-.024,2.52-.048,4.3-.048,2.16,0,4.56.024,6.36.048,1.176.024,1.632.264,1.7,1.632.072,1.248.1,3.48.1,5.688C20.7,14.28,20.676,16.488,20.6,17.712Zm-2.568-3.336c.048-.6.072-1.344.072-2.112,0-.984-.024-2.016-.072-2.832a2.192,2.192,0,0,0-2.16-1.9c-.744-.024-1.752-.048-2.76-.048-.792,0-1.584.024-2.16.048A2.09,2.09,0,0,0,8.988,9.6c-.024.72-.024,1.584-.024,2.424,0,.864,0,1.7.024,2.4A2.163,2.163,0,0,0,11,16.608c.648.024,1.512.048,2.376.048.888,0,1.752-.024,2.424-.048A2.344,2.344,0,0,0,18.036,14.376Zm-4.416.312c-1.944,0-2.5-.024-2.544-.744-.024-.5-.024-1.176-.024-1.824,0-.672,0-1.368.024-1.9a.784.784,0,0,1,.744-.768c.384-.024.984-.024,1.584-.024.624,0,1.248,0,1.656.024a.812.812,0,0,1,.816.744c.024.576.048,1.392.048,2.184C15.924,14.664,15.924,14.688,13.62,14.688Zm30.768-7.1c0-1.008-1.968-2.3-2.64-2.3a1.039,1.039,0,0,0-1.08.936.831.831,0,0,0,.384.672A5.5,5.5,0,0,1,42.54,8.3a.784.784,0,0,0,.7.408A1.179,1.179,0,0,0,44.388,7.584ZM46.74,4.872a.915.915,0,1,0,0-1.824H40.98a1.86,1.86,0,0,0,.456-.936,1.194,1.194,0,0,0-1.152-1.1.848.848,0,0,0-.72.408,9.636,9.636,0,0,1-2.808,3.1.934.934,0,0,0,.168-.552.894.894,0,0,0-.96-.912H32.58a2.195,2.195,0,0,0,.168-.336.975.975,0,0,0,.12-.5,1.232,1.232,0,0,0-1.224-1.152.877.877,0,0,0-.84.552,12.9,12.9,0,0,1-3.432,4.7,1.07,1.07,0,0,0-.408.792,1.184,1.184,0,0,0,1.2,1.056A1.217,1.217,0,0,0,29,7.824a14.4,14.4,0,0,0,2.472-2.952h4.488a1.268,1.268,0,0,0,.312-.024.887.887,0,0,0-.432.744,1.083,1.083,0,0,0,1.1.984c.792,0,2.328-1.536,2.5-1.7ZM48.2,13.728a1.076,1.076,0,0,0-.7-.984,28.029,28.029,0,0,1-7.824-5.16,3.382,3.382,0,0,0-2.3-.96,2.941,2.941,0,0,0-2.184.984,25,25,0,0,1-7.632,5.76,1.181,1.181,0,0,0-.744,1.056,1.13,1.13,0,0,0,1.128,1.152c1.152,0,5.9-3.336,8.856-6.576.264-.288.48-.432.7-.432a1.206,1.206,0,0,1,.768.456c3.336,3.216,7.464,5.928,8.64,5.928A1.277,1.277,0,0,0,48.2,13.728ZM33.348,8.616a1.149,1.149,0,0,0,1.1-1.1c0-.96-1.632-2.112-2.4-2.112a1.021,1.021,0,0,0-1.08.912.766.766,0,0,0,.384.648,4.188,4.188,0,0,1,1.272,1.248A.794.794,0,0,0,33.348,8.616Zm7.152,4.8a.973.973,0,0,0,1.056-.96A1,1,0,0,0,40.5,11.448H34.788a1,1,0,0,0-1.056,1.008.973.973,0,0,0,1.056.96Zm3.48,6.48c.024-.384.048-.792.048-1.224,0-.5-.024-1.032-.048-1.464a2.322,2.322,0,0,0-2.424-1.968c-1.464-.024-3.12-.048-4.656-.048-1.272,0-2.448.024-3.408.048-2.448.072-2.592,1.68-2.592,3.384,0,1.728.12,3.432,2.64,3.5q1.908.072,3.888.072c1.32,0,2.664-.024,4.008-.072A2.452,2.452,0,0,0,43.98,19.9Zm-3.36.288c-1.008.024-2.112.024-3.216.024s-2.184,0-3.12-.024c-.96-.048-1.056-.528-1.056-1.44s0-1.608,1.032-1.656c1.032-.024,2.3-.048,3.528-.048,3.408,0,3.768,0,3.816.864a5.854,5.854,0,0,1,.024.672C41.628,19.824,41.484,20.136,40.62,20.184ZM70.428,10.7a.972.972,0,0,0,1.08-.984,1.07,1.07,0,0,0-1.1-1.1l-4.08.024c.5-.5,3.912-4.008,3.912-4.944a1.349,1.349,0,0,0-1.3-1.248,1.019,1.019,0,0,0-.864.5,27.538,27.538,0,0,1-4.8,5.688H61.5V6.24h3.36a.989.989,0,0,0,1.08-1.008,1.025,1.025,0,0,0-1.08-1.056L61.5,4.2l.024-1.992A1.069,1.069,0,0,0,60.348,1.2,1.034,1.034,0,0,0,59.2,2.208V4.2L54.8,4.176a1.093,1.093,0,0,0-1.152,1.08A1.01,1.01,0,0,0,54.8,6.24H59.2l.024,2.4-6.552-.024a1.116,1.116,0,0,0-1.152,1.128c0,.48.336.96,1.128.96h.024l8.184-.1a30.69,30.69,0,0,1-9.264,4.464,1.187,1.187,0,0,0-.96,1.128,1.111,1.111,0,0,0,1.128,1.128c.792,0,4.56-1.728,5.544-2.256-.048.912-.072,2.04-.072,3.072,0,.552,0,1.08.024,1.56A2.388,2.388,0,0,0,59.82,22.08c.984.072,2.088.12,3.216.12.96,0,1.92-.048,2.832-.12a2.59,2.59,0,0,0,2.544-2.424c.048-.72.072-1.536.072-2.376,0-.96-.024-1.92-.072-2.688a2.394,2.394,0,0,0-2.424-2.064c-.816-.048-1.776-.072-2.76-.072-.552,0-1.1.024-1.632.024.84-.576,1.68-1.2,2.472-1.848L70.4,10.7ZM59.412,16.176c0-1.224.288-1.752,1.152-1.776.744-.024,1.728-.024,2.64-.024,2.88,0,3.024,0,3.024,1.8ZM66.252,18c0,2.208-.24,2.208-3.408,2.208-3.072,0-3.408-.144-3.432-1.128,0-.36-.024-.72-.024-1.08Z" transform="translate(40 5980)"/></g></svg>