<svg xmlns="http://www.w3.org/2000/svg" width="348.984" height="93.6" viewBox="0 0 348.984 93.6"><defs><style>.a{fill:#2f2f2f;}</style></defs><path class="a" d="M22.224,19.464V4.968H6.864V7.632h12.5v8.352H6.816v2.64H19.368v.84ZM44.352,4.92A37.353,37.353,0,0,0,34.2,1.392l-.456,2.736a27.006,27.006,0,0,1,9.912,3.648Zm-.984,6.456A34.242,34.242,0,0,0,35.04,8.112l-.6,2.592a34.3,34.3,0,0,1,8.3,3.432Zm1.968,8.136a42.814,42.814,0,0,0-11.952-5.04l-.72,2.664a43.149,43.149,0,0,1,11.808,5.376Zm26.16.336V17.712h-4.56L68.424,8.52H58.776v2.208h6.84l-1.128,6.984H55.7v2.136Zm23.112-12.1V4.9H81.624V7.752ZM97.08,18.84V15.984H79.056V18.84ZM118.392,5.376V2.784H106.776V5.376Zm3.24,5.952V8.856h-18.12v2.472h8.064c-.12,4.68-1.608,6.984-6.408,8.712l2.352,1.968a11.191,11.191,0,0,0,5.328-4.464,12.324,12.324,0,0,0,1.512-6.216ZM142.68,7.92c0-.1-.072-.168-.168-.24l-1.92-1.608a23.268,23.268,0,0,1-5.328,4.992,23.364,23.364,0,0,1-5.664,3.168l1.56,1.92a28.663,28.663,0,0,0,4.872-2.808v8.568H138.5V11.5a23.182,23.182,0,0,0,3.264-3.144C141.96,8.328,142.68,8.256,142.68,7.92ZM171.7,17.568v-1.92h-6.1v-.96h4.968V8.016H165.6V7.08h2.856V5.28H165.6V4.32h3.624V6.648H171.6V2.5H156.744V6.84h2.328V4.32H163.2v.96h-3.36v1.8h3.36v.936h-5.016v6.672H163.2v.96h-5.856v1.92H163.2V19.08h2.4V17.568Zm-3.408-6.936H165.6V9.5h2.688Zm0,2.664H165.6V12.12h2.688ZM163.2,10.632h-2.712V9.5H163.2Zm0,2.664h-2.712V12.12H163.2Zm-7.152-7.872a10.757,10.757,0,0,0-2.856-2.976l-1.944,1.728a17.468,17.468,0,0,1,2.688,3Zm16.608,13.608a99.462,99.462,0,0,1-10.392.48c-1.968,0-3.744,0-4.968-.768a1.712,1.712,0,0,1-.792-1.416V10.536H151.32v2.376h2.472V17.88a17.918,17.918,0,0,1-3,1.656l1.272,2.52c.072.144.168.288.312.288.1,0,.192-.288.312-.6a25.392,25.392,0,0,0,2.544-2.376c.672,1.152,1.416,2.4,5.9,2.4h10.44Zm21.624,3.216V15.624h-7.752a10.689,10.689,0,0,0,.84-1.512h4.488V8.4H180.048v5.712h4.224a6.806,6.806,0,0,1-.768,1.512h-5.352V22.2h2.808v-.672h10.488v.72Zm1.488-11.928V5.136h-4.416a13.544,13.544,0,0,0,1.128-1.728c.072-.048.48-.168.552-.216a.214.214,0,0,0,.12-.192c0-.168-.1-.216-.432-.336l-2.184-.84a21.336,21.336,0,0,1-2.208,3.312H186l1.128-.768a17.222,17.222,0,0,0-1.848-3l-2.112,1.2a17.437,17.437,0,0,1,1.56,2.568h-3.576l.912-.528a14.98,14.98,0,0,0-1.728-2.616L178.152,3.12a13.029,13.029,0,0,1,1.416,2.016h-3.336V10.3h2.424V7.368h14.568V10.32Zm-6.48,1.848h-6.5v-1.8h6.5Zm2.16,7.32H180.96v-1.92h10.488Zm29.208-9.408V7.752H215.52c.768-.936,1.632-2.16,1.8-2.424.768-1.3.84-1.32,1.176-1.368.48-.048.672-.1.672-.288a.372.372,0,0,0-.192-.288L216.288,1.8a24.775,24.775,0,0,1-2.208,3.6V3.672h-2.736V2.544c0-.144.192-.24.336-.312.1-.072.24-.144.24-.312,0-.1-.12-.192-.336-.192l-3.072-.12V3.672h-6.264V5.928h6.264V7.752h-8.28V10.08h9.12a28.881,28.881,0,0,1-9.192,4.272l1.488,2.328c1.392-.528,2.016-.768,3.1-1.224v6.792h2.592v-.624h8.136v.5h2.64V12.1h-7.1a25.227,25.227,0,0,0,2.4-2.016Zm-5.184,5.64h-8.136V14.16h8.136Zm0,3.768h-8.136v-1.7h8.136Zm-1.824-13.56a17.48,17.48,0,0,1-1.56,1.824h-.744V5.928Zm29.184.72V3.864a16.765,16.765,0,0,1-5.688.984,21.14,21.14,0,0,1-3.072-.264v2.64c1.272.12,2.376.12,2.568.12A32.233,32.233,0,0,0,242.832,6.648Zm1.152,12.6V16.272a19.578,19.578,0,0,1-5.472.744c-2.424,0-2.664-.648-2.688-2.928l-2.616.36c.072,4.056.984,5.232,5.352,5.232A32.8,32.8,0,0,0,243.984,19.248Zm-12.552-4.272-1.416-.768c-.528.936-.672,1.176-.96,1.68a13.2,13.2,0,0,1-.336-3.288c0-3.624,1.032-7.968,1.392-8.184.048-.024.36-.144.408-.168a.284.284,0,0,0,.12-.216c0-.192-.456-.36-.624-.432l-2.448-.888a47.3,47.3,0,0,0-1.008,5.472,42.453,42.453,0,0,0-.36,4.728,20.909,20.909,0,0,0,.984,6.312,7.346,7.346,0,0,0,.888,1.9l1.9-.744A21.293,21.293,0,0,1,231.432,14.976Zm36.24,3.192a22.044,22.044,0,0,0-4.128-2.184,23.781,23.781,0,0,1-.312-3.336,2.2,2.2,0,0,1,.912-1.92l-2.5-1.344a3.626,3.626,0,0,0-1.032,2.448c0,.5.288,2.952.336,3.5a12.111,12.111,0,0,0-1.872-.144c-3.312,0-4.248,2.112-4.248,3.408a2.717,2.717,0,0,0,.888,2.04,5.7,5.7,0,0,0,3.912,1.128c3.144,0,3.864-1.008,4.08-2.928a13.212,13.212,0,0,1,2.376,1.584Zm-6.6-.432c0,.864.024,1.872-1.92,1.872-1.32,0-1.992-.552-1.992-1.08,0-.48.576-1.152,1.824-1.152A8.059,8.059,0,0,1,261.072,17.736Zm7.272-9.6a11.861,11.861,0,0,0-5.352-2.208l-1.08,2.064a16.986,16.986,0,0,1,5.256,2.184Zm-7.152-1.248V4.2c-.624.216-1.344.456-2.76.816.1-.312.552-1.848.576-1.872.144-.144.552-.288.552-.528,0-.264-.456-.384-.576-.408l-2.616-.576a22.9,22.9,0,0,1-.864,3.96,31.949,31.949,0,0,1-4.08.312l.36,2.5c1.128-.072,1.8-.144,2.9-.288a41.167,41.167,0,0,1-4.1,8.736l2.568,1.1a58.532,58.532,0,0,0,4.44-10.3C259.632,7.3,260.376,7.1,261.192,6.888Zm32.352,11.448-.744-2.688c-.984,1.392-1.9,1.824-2.568,1.824-.648,0-.888-.264-.888-1.584a33.321,33.321,0,0,1,.24-3.384c.312-3.216.336-3.48.336-3.912a2.734,2.734,0,0,0-2.64-2.88c-1.608,0-3.888,2.136-4.824,3l.528-1.056-1.536-1.464a16.814,16.814,0,0,1,.24-3.168c.072-.072.432-.384.432-.456,0-.216-.216-.24-.6-.288l-2.376-.264-.1,5.16a19.576,19.576,0,0,1-4.32,1.152L275.9,10.92c1.2-.384,1.848-.624,3.12-1.08l-.048,2.112a27.462,27.462,0,0,1-4.56,5.52l2.5,1.68c.84-1.32,1.248-1.9,1.992-2.928l-.072,5.544,2.688-.144c-.144-2.808-.144-5.3-.168-8.64,1.68-2.064,3.528-4.368,4.9-4.368.816,0,.936.984.936,1.608,0,1.008-.432,5.472-.432,6.384,0,.6,0,3.936,2.784,3.936A5.766,5.766,0,0,0,293.544,18.336ZM316.7,5.88a11.852,11.852,0,0,1-2.88.816c.168-2.5.192-2.76.336-2.88a2.189,2.189,0,0,1,.312-.192.176.176,0,0,0,.048-.144c0-.144-.024-.24-.552-.336L311.4,2.688c-.024,1.1-.072,3.216-.1,4.392-.5.048-1.32.12-2.088.12a16.529,16.529,0,0,1-2.232-.168l.024,2.376c.6.024,1.392.048,2.112.048a21.679,21.679,0,0,0,2.184-.1c.048,1.728.072,2.16.288,5.424a7.358,7.358,0,0,0-1.608-.192c-2.136,0-4.008.792-4.008,3.048,0,3.336,4.128,3.336,4.824,3.336,3,0,3.384-.984,3.432-3a8.331,8.331,0,0,1,2.592,1.7l1.248-2.16a14.612,14.612,0,0,0-3.96-2.184A57.592,57.592,0,0,1,313.752,9a15.479,15.479,0,0,0,2.952-.672Zm-4.968,11.136c.048,1.1.072,1.632-1.56,1.632-1.416,0-2.016-.432-2.016-.984,0-.576.7-1.008,1.8-1.008A5.084,5.084,0,0,1,311.736,17.016Zm-9.624-1.08a10.886,10.886,0,0,1-.1-1.584A41.058,41.058,0,0,1,303.1,5.4c.144-.528.24-.888.528-1.008.336-.12.456-.168.456-.336,0-.24-.528-.456-.576-.456l-2.3-.936a41.4,41.4,0,0,0-1.416,10.944,25.449,25.449,0,0,0,.936,7.368l2.016-.408a15.66,15.66,0,0,1,1.872-4.968L303.1,14.544ZM318.72,4.68A10.987,10.987,0,0,0,316.848,2.9l-.984,1.056a10.937,10.937,0,0,1,1.848,1.728Zm1.68-1.728a11.149,11.149,0,0,0-1.944-1.9l-.984,1.032a14.9,14.9,0,0,1,1.92,1.872Zm1.968,14.112A19.732,19.732,0,0,1,327,22.392l2.5-1.992a14.117,14.117,0,0,0-5.328-5.208ZM355.8,9.48a20.318,20.318,0,0,1-7.44-1.488,21.177,21.177,0,0,0,4.44-3.984l-1.176-1.152h-7.536l.264-.288c.48-.12.792-.192.792-.48,0-.168-.624-.312-1.056-.432L342.312,1.2a18.471,18.471,0,0,1-6.624,5.52l1.992,1.632a19.794,19.794,0,0,0,3.576-2.544,12.338,12.338,0,0,0,2.328,2.16,24.4,24.4,0,0,1-8.52,2.064l1.416,2.28a30.513,30.513,0,0,0,9.456-2.832,25.517,25.517,0,0,0,8.616,2.424Zm-.12,9.744a15.537,15.537,0,0,1-4.056-1.512,8.34,8.34,0,0,1-2.832-2.256h6.792V13.2h-8.928v-.888a.762.762,0,0,1,.264-.432.616.616,0,0,0,.24-.384c0-.12,0-.312-1.2-.36l-1.968-.1V13.2h-8.808v2.256h6.552a20.312,20.312,0,0,1-6.84,4.44l1.992,2.064a28.983,28.983,0,0,0,7.1-5.04v5.352h2.664V16.824a16.007,16.007,0,0,0,7.272,4.608ZM347.856,4.872a12.152,12.152,0,0,1-1.968,1.848A11.716,11.716,0,0,1,343.7,4.872Zm-316.92,45.7v-2.5H25.8V44.136h4.7v-2.5H25.8V38.88c0-.12.072-.192.24-.36a.621.621,0,0,0,.216-.408c0-.264-.408-.312-.6-.336l-2.736-.24v4.1H21.312c.072-.192.312-1.1.36-1.2.048-.12.072-.12.384-.264a.317.317,0,0,0,.216-.288c0-.192-.168-.288-.456-.336l-2.424-.5A19.5,19.5,0,0,1,16.7,45.936l2.28,1.1a20.265,20.265,0,0,0,1.464-2.9H22.92v3.936H16.992v2.5H22.92V58.1H25.8V50.568ZM17.616,38.832c0-.144-.1-.288-.6-.456l-2.568-.912a26.31,26.31,0,0,1-5.184,9.264l2.448,1.536a6.257,6.257,0,0,0,.72-.96V58.1h2.616V44.184c0-.12.048-.24.264-.432.144-.12.264-.216.264-.432s-.168-.384-.408-.6a26.321,26.321,0,0,0,1.608-3.192c.1-.24.24-.264.552-.36A.339.339,0,0,0,17.616,38.832Zm35.376,3.816V39.864a16.765,16.765,0,0,1-5.688.984,21.14,21.14,0,0,1-3.072-.264v2.64c1.272.12,2.376.12,2.568.12A32.233,32.233,0,0,0,52.992,42.648Zm1.152,12.6V52.272a19.578,19.578,0,0,1-5.472.744c-2.424,0-2.664-.648-2.688-2.928l-2.616.36c.072,4.056.984,5.232,5.352,5.232A32.8,32.8,0,0,0,54.144,55.248ZM41.592,50.976l-1.416-.768c-.528.936-.672,1.176-.96,1.68A13.2,13.2,0,0,1,38.88,48.6c0-3.624,1.032-7.968,1.392-8.184.048-.024.36-.144.408-.168a.284.284,0,0,0,.12-.216c0-.192-.456-.36-.624-.432l-2.448-.888a47.3,47.3,0,0,0-1.008,5.472,42.453,42.453,0,0,0-.36,4.728,20.91,20.91,0,0,0,.984,6.312,7.346,7.346,0,0,0,.888,1.9l1.9-.744A21.292,21.292,0,0,1,41.592,50.976Zm34.152-4.224a26.023,26.023,0,0,0-4.224-4.128L69.48,44.64a16.8,16.8,0,0,1,3.96,3.936Zm4.728,8.9a35.542,35.542,0,0,0-3.12-7.272l-2.64,1.392a31.348,31.348,0,0,1,2.9,6.96ZM79.9,42.6V40.152H71.064v-1.56c0-.12.12-.168.312-.288.264-.144.288-.264.288-.336,0-.192-.072-.288-.744-.336l-3.048-.192v2.712H59.9c.36,3.48.384,7.2.384,7.584,0,5.376-.936,7.728-2.016,9.888l2.784.864c1.032-2.256,1.92-4.872,1.92-12.528a31.8,31.8,0,0,0-.144-3.36ZM75.7,53.832l-2.64-1.008c0,.216,0,1.752-.024,1.824a.879.879,0,0,1-.888.864H71.136c-.6,0-.744-.312-.744-1.152V47.472a.363.363,0,0,1,.144-.288c.288-.24.36-.288.36-.432,0-.24-.384-.312-.864-.336L67.32,46.3v9.84c0,1.008.456,2.136,1.776,2.136h4.2C75.312,58.272,75.528,56.208,75.7,53.832Zm-8.64-4.488c0-.24-.36-.312-.576-.36l-2.424-.5a21.678,21.678,0,0,1-1.488,7.008l2.64,1.008c.816-1.968.96-3.072,1.488-6.552.024-.12.072-.168.264-.408A.249.249,0,0,0,67.056,49.344Zm35.784-8.256a15.177,15.177,0,0,0-2.232-2.064L99.6,40.152a15.977,15.977,0,0,1,2.208,2.064ZM100.656,43.2a14.537,14.537,0,0,0-2.232-2.064l-1.008,1.128a15.082,15.082,0,0,1,2.208,2.064Zm1.848,7.824-2.28-1.9c-1.944,4.1-4.848,5.52-6.768,5.52a2.378,2.378,0,0,1-1.944-.864c-.336-.408-.576-1.056-.576-4.512,0-3,.312-9.12.576-9.408.144-.144.552-.432.552-.648,0-.264-.672-.336-.744-.336l-3.072-.36c.024,1.488,0,8.136,0,9.5,0,5.832.5,7.344,1.512,8.28a5.237,5.237,0,0,0,3.528,1.224C97.9,57.528,100.752,53.616,102.5,51.024Zm24.624-9.744V38.4a72.66,72.66,0,0,1-17.5,2.232l.48,2.832a91.769,91.769,0,0,1,9.144-1.032C118.128,43.488,114.6,46.8,114.6,50.9c0,5.352,6,6.6,7.944,7.008l.84-3.024a7.123,7.123,0,0,1-4.176-1.152,4.112,4.112,0,0,1-1.776-3.36c0-2.4,1.992-5.064,4.1-6.768A9.289,9.289,0,0,1,127.128,41.28Zm14.9-2.328V36.48h-8.5V59.16h2.448V38.952Zm22.752,6.984V43.2h-4.032V39.576c.048-.12.1-.168.264-.312.144-.12.216-.192.216-.288,0-.288-.552-.36-.744-.384l-2.472-.336c.048,1.512.048,3.12.048,4.944h-4.536V39.84c0-.12.048-.168.312-.36.144-.1.192-.144.192-.24,0-.24-.168-.264-.72-.336l-2.64-.288V43.2h-4.44v2.736h4.44v5.5h2.856v-5.5h4.536c-.1,5.376-1.464,7.824-5.808,10.2l1.968,1.872c4.656-2.832,6.24-5.232,6.5-12.072Zm13.272-3.96A22.385,22.385,0,0,0,173.016,39l-1.464,2.256a21.687,21.687,0,0,1,4.92,3.024Zm11.424,2.5-1.656-2.4a33.477,33.477,0,0,1-7.032,7.344,22.472,22.472,0,0,1-8.9,4.152l1.68,2.88c.168.312.384.456.528.456.192,0,.24-.408.36-.744a32.274,32.274,0,0,0,9.048-5.352A33.742,33.742,0,0,0,189.48,44.472Zm23.28-1.68-1.944-2.28a2.42,2.42,0,0,1-1.056.456h-5.376c.24-.456.528-.936.672-1.3.336-.1.6-.144.6-.336,0-.24-.48-.456-.624-.5L202.56,37.9a20.9,20.9,0,0,1-6.624,9.216l2.376,1.632a33.205,33.205,0,0,0,4.56-5.352h6.144a19.131,19.131,0,0,1-3.168,6.312,20.921,20.921,0,0,1-7.512,6.264l2.616,1.8a23.318,23.318,0,0,0,6.5-5.688,28.189,28.189,0,0,0,4.272-8.136A2.5,2.5,0,0,1,212.76,42.792ZM238.08,54.12a47.969,47.969,0,0,0-6.36-5.928,28.99,28.99,0,0,0,2.784-5.376,3.325,3.325,0,0,1,1.3-1.44l-1.848-2.04a2.275,2.275,0,0,1-1.248.528H222.36v2.784H231.5a19.184,19.184,0,0,1-4.08,6.552,21.284,21.284,0,0,1-7.656,5.184l2.112,2.184a23.168,23.168,0,0,0,8.208-6.168,37.853,37.853,0,0,1,5.856,6Zm26.16-14.736a2.22,2.22,0,1,0-2.208,2.256A2.228,2.228,0,0,0,264.24,39.384Zm-.864,0a1.362,1.362,0,0,1-1.344,1.368,1.368,1.368,0,0,1,0-2.736A1.362,1.362,0,0,1,263.376,39.384Zm-.72,12.624a22.168,22.168,0,0,0-4.056-4.872l-1.848,1.584a18.2,18.2,0,0,1,3.792,4.992Zm-.984-6.72V42.816h-6.888V39.744c0-.12.12-.216.216-.264.216-.144.312-.216.312-.336,0-.216-.264-.288-.648-.336l-2.592-.336v4.344h-6.984v2.472h6.984v8.448c0,.576-.12.768-.888.768a10.055,10.055,0,0,1-1.9-.192L250.2,57.1c4.008-.024,4.584-.408,4.584-2.64V45.288ZM250.584,49.08c0-.168-.36-.408-.456-.456l-1.968-1.3a17.611,17.611,0,0,1-4.848,5.4l2.472,1.536a20.966,20.966,0,0,0,4.1-4.776c.072-.1.1-.1.408-.192C250.44,49.272,250.584,49.224,250.584,49.08Zm34.848-8.856c0-.192-.312-.5-.408-.576l-2.088-1.728a37.26,37.26,0,0,1-13.92,10.2l2.088,2.136a43.031,43.031,0,0,0,6.048-3.408v10.56h3V44.616a30.73,30.73,0,0,0,3.96-3.744c.336-.36.384-.408.744-.432C285.336,40.416,285.432,40.392,285.432,40.224Zm15.024,1.752A22.385,22.385,0,0,0,295.416,39l-1.464,2.256a21.686,21.686,0,0,1,4.92,3.024Zm11.424,2.5-1.656-2.4a33.477,33.477,0,0,1-7.032,7.344,22.471,22.471,0,0,1-8.9,4.152l1.68,2.88c.168.312.384.456.528.456.192,0,.24-.408.36-.744a32.274,32.274,0,0,0,9.048-5.352A33.743,33.743,0,0,0,311.88,44.472Zm23.9,4.968a29.378,29.378,0,0,0-3.744-2.88,21.43,21.43,0,0,0-4.08-2.184l-1.128,1.776V39.84c0-.12.624-.5.624-.648,0-.288-.5-.36-.576-.384L324,38.3V57.312h2.832V46.944a24.432,24.432,0,0,1,7.056,4.8Zm13.08,9.84V36.6h-2.448V56.808h-6.048V59.28ZM114.936,83.664l-.816-2.736c-1.128.5-1.44.648-4.248,1.968a3.217,3.217,0,0,0-3.264-2.424,4.641,4.641,0,0,0-2.064.5c.408-.624.6-.96,1.368-2.376a50.518,50.518,0,0,0,5.736-.912L111.816,75a20.265,20.265,0,0,1-4.7,1.224c.12-.264.72-1.608.744-1.632.024,0,.5-.216.552-.24.144-.048.24-.12.24-.264,0-.168-.408-.216-.48-.24l-3-.528a18.611,18.611,0,0,1-1.2,3.192,33.757,33.757,0,0,1-4.584-.1l.288,2.5c1.008,0,1.752-.024,3.12-.1a31.91,31.91,0,0,1-4.728,6.6l2.352,1.464c1.32-2.16,2.76-4.344,5.112-4.344a1.663,1.663,0,0,1,1.824,1.584c-3.6,1.848-5.808,2.976-5.808,5.952a3.281,3.281,0,0,0,.912,2.352c1.512,1.608,4.3,1.608,5.64,1.608a39.719,39.719,0,0,0,5.712-.36V90.96a27.749,27.749,0,0,1-6.12.768c-1.752,0-3.6-.312-3.6-1.872,0-1.68,2.5-2.928,3.408-3.384-.024,1.056-.048,2.232-.12,3.6h2.784c0-.816-.048-3.792-.048-4.728C111.888,84.672,113.04,84.264,114.936,83.664Zm21.48-5.976h1.872V76.32h3.168V74.568h-3.168c0-.384,0-.408.264-.552.072-.048.192-.144.192-.264,0-.168-.12-.216-.552-.24l-2.4-.168v1.224h-1.944c0-.36,0-.36.24-.5.1-.048.216-.12.216-.264,0-.192-.264-.24-.624-.264l-2.472-.168v1.2H128.04v.1l-2.52-1.272a13.573,13.573,0,0,1-1.128,1.944,13.451,13.451,0,0,0-1.32-1.632l-2.28,1.2a13.865,13.865,0,0,1,1.92,2.616,13.442,13.442,0,0,1-2.5,2.28l2.712,1.416a12.5,12.5,0,0,0,1.008-1.032c.168.5.192.576.312.984a12.836,12.836,0,0,1-1.632,3.336,11.525,11.525,0,0,1-2.712,3.24l2.568,1.44a22.385,22.385,0,0,0,2.544-3.72c.024.624.072,1.344.072,2.232,0,2.592-.624,3.576-1.752,3.576a7.765,7.765,0,0,1-1.944-.288l1.392,3.144c1.248-.024,2.976-.1,4.032-1.752a10.949,10.949,0,0,0,.96-5.088,23.861,23.861,0,0,0-.624-5.424l.888.888c.288-.24.408-.336.84-.744v4.728h12.432v-1.56H136.08v-.768h4.08V83.064h-4.08V82.3h4.08V80.952h-4.08v-.768H141V78.648h-4.1a.809.809,0,0,1,.288-.144.239.239,0,0,0,.168-.216.375.375,0,0,0-.192-.264Zm-2.568-1.368h1.944v1.056l-.912-.5a8.855,8.855,0,0,1-1.2,1.776h-1.848a3.367,3.367,0,0,1,.288-.432,4,4,0,0,1,.432-.12.292.292,0,0,0,.144-.24c0-.1-.1-.144-.144-.168h1.3Zm-2.472,3.864h2.208v.768h-2.208Zm0,2.112h2.208v.768h-2.208Zm-.168-5.976v.72l-1.224-.528a12.465,12.465,0,0,1-3.24,3.84,16.524,16.524,0,0,0-.936-2.472c.864-1.1,1.32-1.776,1.872-2.544a.441.441,0,0,0,.36-.12v1.1Zm.168,8.088h2.208v.768h-2.208Zm-.432,4.824-1.44.648a12.761,12.761,0,0,0,1.728,1.632,19.775,19.775,0,0,1-4.128.672l1.392,2.3A17.235,17.235,0,0,0,133.7,92.9a17.014,17.014,0,0,0,6.648,1.632l1.464-2.424a26.981,26.981,0,0,1-5.832-.528,14.833,14.833,0,0,0,3.408-3.552l-.432-.7H128.4v1.9Zm4.3,0a9.742,9.742,0,0,1-1.68,1.344,8.54,8.54,0,0,1-1.608-1.344ZM164.4,81.7V74.184H153.048V81.7Zm-2.544-4.608h-6.192V75.936h6.192Zm0,2.88h-6.192V78.816h6.192Zm-10.008-4.8c0-.144-.216-.288-.264-.312l-2.256-1.56a17.7,17.7,0,0,1-4.488,4.056l1.92,1.728a24.52,24.52,0,0,0,4.32-3.624c.1-.072.192-.072.384-.072C151.7,75.384,151.848,75.336,151.848,75.168Zm13.944,13.1V86.088H162.72v-1.3h2.688V82.7H151.752v2.088h8.208v1.3H151.2v2.184h3.312l-1.416,1.3a21.606,21.606,0,0,1,2.3,2.9l1.8-1.632a22.537,22.537,0,0,0-1.944-2.568h4.7v2.9c0,.384-.216.648-.5.648s-1.488-.072-1.728-.1l.96,2.472c3.024-.048,4.032-.072,4.032-1.968v-3.96Zm-13.584-8.16c0-.12-.192-.264-.288-.312l-2.28-1.272a20.307,20.307,0,0,1-5.232,5.5l1.824,1.776a7.812,7.812,0,0,0,1.1-.912v9.36h2.712V83.328c0-.072.048-.12.192-.216.24-.144.312-.24.312-.384a.41.41,0,0,0-.168-.312l-.336-.288c.384-.384.48-.5,1.368-1.488.24-.264.24-.288.432-.288C151.944,80.352,152.208,80.352,152.208,80.112Zm37.392,1.32a11.072,11.072,0,0,0-1.992-1.824L186.6,80.76a11.111,11.111,0,0,1,1.992,1.824Zm-1.944,2.184a10.465,10.465,0,0,0-1.992-1.848l-.984,1.152a10.655,10.655,0,0,1,1.968,1.848Zm.792-6.264V74.568c-4.536,1.392-11.976,1.968-17.16,1.92l.408,2.688c2.4-.336,5.928-.624,9.144-.888a17.9,17.9,0,0,0-3.168,3.648,8.73,8.73,0,0,0-1.632,4.776,6.02,6.02,0,0,0,1.776,4.32,10.77,10.77,0,0,0,5.9,2.664l.936-2.928a7.558,7.558,0,0,1-4.224-1.224,3.809,3.809,0,0,1-1.728-3.12c0-1.824,1.152-3.984,2.928-5.76C184.68,77.592,187.32,77.424,188.448,77.352Zm23.424,3.312-.432-2.4a27.363,27.363,0,0,1-4.368,2.16c-.384-.84-.48-1.08-.792-1.824a15.809,15.809,0,0,0,3.792-1.632l-.528-2.328a23.165,23.165,0,0,1-4.1,1.848,20.917,20.917,0,0,1-.72-2.208c0-.072.024-.144.216-.336.12-.12.192-.192.192-.312,0-.288-.6-.216-.792-.192l-2.736.312c.384,1.128.648,1.9,1.2,3.384a29.6,29.6,0,0,1-5.592.48l.744,2.3a27.554,27.554,0,0,0,5.712-.648c.24.552.5,1.152.864,1.968a31.815,31.815,0,0,1-7.56.72l.84,2.424a30.953,30.953,0,0,0,7.7-1.056c.456.888.672,1.32,1.248,2.352a18.332,18.332,0,0,0-3.432-.384c-2.712,0-5.3.888-5.3,4.176,0,3.168,2.976,4.536,7.3,4.536a24.16,24.16,0,0,0,3.792-.288l.24-2.832a17.508,17.508,0,0,1-4.8.648c-.816,0-3.936,0-3.936-2.04,0-1.3,1.32-1.968,2.9-1.968a13.514,13.514,0,0,1,6.288,1.824l1.464-1.824a26.053,26.053,0,0,1-3.168-4.992A17.8,17.8,0,0,0,211.872,80.664Zm24.672,9.528a19.952,19.952,0,0,0-6.072-2.712c-.072-1.416-.072-1.656-.12-2.856a51.591,51.591,0,0,0,5.136-.6V81.408c-2.208.408-3.1.552-5.184.816V79.392c1.2-.024,3.432-.072,6.1-.072l.1-2.544c-2.256.168-3.072.216-6.144.36.024-1.248.048-1.7.048-1.728a.78.78,0,0,1,.312-.432c.264-.216.312-.24.312-.336,0-.168-.144-.24-.6-.288l-2.928-.288.072,3.192c-2.136.048-3.432.1-6.168.1l.048,2.592c2.064-.24,3.432-.336,6.192-.456l.048,3a16.469,16.469,0,0,1-1.656.048c-.408,0-.912,0-.912-.336,0-.312.36-.576.792-.888l-1.368-1.176c-.936.672-2.568,1.8-2.568,2.976,0,.936,1.1,1.728,3.312,1.728.7,0,2.016-.048,2.448-.072l.048,2.3-.672-.024c-5.4-.192-5.64,2.592-5.64,3.288,0,1.944,2.064,3.12,5.376,3.12,3.072,0,3.648-.96,3.744-3.408a18.092,18.092,0,0,1,4.392,2.376Zm-8.736-.84c.024,1.344-.072,1.776-1.632,1.776-.288,0-1.824,0-1.824-.816,0-.624.768-1.032,2.328-1.032A6.213,6.213,0,0,1,227.808,89.352ZM262.464,79.1V76.512c-2.448.192-3.192.264-6.528.456V74.5c0-.1.024-.144.192-.288s.216-.216.216-.36c0-.24-.144-.312-.7-.336l-2.664-.168c.144,1.752.144,3.024.168,3.768-5.04.24-7.1.24-8.736.24v2.784c3.048-.384,6.672-.6,8.808-.72l.048,1.8a3.166,3.166,0,0,0-1.128-.192c-2.448,0-3.768,1.824-3.768,4.464a4.3,4.3,0,0,0,1.248,3.336,3.022,3.022,0,0,0,1.968.744,4.826,4.826,0,0,0,1.3-.24,7.658,7.658,0,0,1-3.432,3.936l2.688,1.392a16.651,16.651,0,0,0,3.264-4.464,10.761,10.761,0,0,0,1.224-4.632,6.19,6.19,0,0,0-.7-2.928v-3.36C259.056,79.152,260.64,79.1,262.464,79.1Zm-8.736,6.072c0,1.7-1.152,2.232-1.656,2.232-.552,0-1.32-.552-1.32-1.992,0-1.272.672-2.112,1.632-2.112a1.249,1.249,0,0,1,.888.336A2.238,2.238,0,0,1,253.728,85.176Z" transform="translate(-6.816 -1.056)"/></svg>