<svg xmlns="http://www.w3.org/2000/svg" width="299.92" height="52.58" viewBox="0 0 299.92 52.58"><defs><style>.a{fill:#2f2f2f;}</style></defs><path class="a" d="M22.16,2.82A14.3,14.3,0,0,0,20.32.84l-1.02,1A14.093,14.093,0,0,1,21.12,3.8Zm-2.1,1.22a17.132,17.132,0,0,0-1.84-1.98l-1.02.98a15.482,15.482,0,0,1,1.82,1.98Zm.1,7.46-.32-2.22L14,10.04,13.56,7.5l4.36-.56L17.6,4.8l-4.42.58-.44-2.62c-.02-.08.06-.16.12-.2.18-.16.22-.2.22-.3,0-.28-.32-.28-.72-.26l-2.04.08.6,3.58-4.78.62.32,2.14,4.82-.62.44,2.54-6.44.84.3,2.2,6.5-.84,1.1,6.4,2.3-.4-1.1-6.3ZM40.2,5.28l-1.98-1.8a1.14,1.14,0,0,1-.66.32H26.26V6.14H36.9a16.192,16.192,0,0,1-9.08,10.24L30,18.14a17.407,17.407,0,0,0,5.48-4.38A24.644,24.644,0,0,0,39.5,6.28,2.4,2.4,0,0,1,40.2,5.28ZM60.92,11.7A24.483,24.483,0,0,0,57.8,9.3a17.859,17.859,0,0,0-3.4-1.82l-.94,1.48V3.7c0-.1.52-.42.52-.54,0-.24-.42-.3-.48-.32l-2.4-.42V18.26h2.36V9.62a20.36,20.36,0,0,1,5.88,4Zm22.12.44a10.3,10.3,0,0,1-3.64-1.68h3V8.54H77.5a7.849,7.849,0,0,1-.84-1.36h4.46V5.28H77.98c.54-.84.78-1.24,1.16-1.92.16-.26.16-.28.5-.36.06-.02.14-.04.14-.16,0-.16-.2-.28-.34-.34l-1.92-.72a21.526,21.526,0,0,1-1.56,3.5H74.12A17.438,17.438,0,0,0,74.6,3a.583.583,0,0,1,.32-.52c.18-.12.22-.16.22-.28,0-.2-.18-.24-.46-.26l-2.36-.2a11.772,11.772,0,0,1-.52,3.54H69.78l1.2-.92a12.648,12.648,0,0,0-2-2.54l-1.76,1.1a10.74,10.74,0,0,1,1.82,2.36H66.7v1.9h4.32c-.26.48-.52.9-.82,1.36H65.4v1.92h3.12a12.576,12.576,0,0,1-3.68,2.34l1.84,1.54a19.963,19.963,0,0,0,2.48-1.54v1.08h2.7c-.68,1.78-2.82,3.08-5.76,3.14l1.24,2.1a8.164,8.164,0,0,0,7.04-5.24H77c-.18,2-.32,3-1.52,3a7.36,7.36,0,0,1-1.28-.14l.74,2.3a4.057,4.057,0,0,0,3.22-1.08c.96-1.12,1.06-4.38,1.08-5.12A13.488,13.488,0,0,0,81.38,14Zm-7.88-3.6h-2.3a12.466,12.466,0,0,0,.62-1.36h.98A9.9,9.9,0,0,0,75.16,8.54Zm2.82,3.38H70.22a11.759,11.759,0,0,0,1.36-1.46h4.94A14.355,14.355,0,0,0,77.98,11.92Zm23.18,3.72a18.37,18.37,0,0,0-3.44-1.82,19.819,19.819,0,0,1-.26-2.78,1.832,1.832,0,0,1,.76-1.6L96.14,8.32a3.022,3.022,0,0,0-.86,2.04c0,.42.24,2.46.28,2.92A10.093,10.093,0,0,0,94,13.16c-2.76,0-3.54,1.76-3.54,2.84a2.264,2.264,0,0,0,.74,1.7,4.753,4.753,0,0,0,3.26.94c2.62,0,3.22-.84,3.4-2.44a11.009,11.009,0,0,1,1.98,1.32Zm-5.5-.36c0,.72.02,1.56-1.6,1.56-1.1,0-1.66-.46-1.66-.9,0-.4.48-.96,1.52-.96A6.716,6.716,0,0,1,95.66,15.28Zm6.06-8a9.884,9.884,0,0,0-4.46-1.84l-.9,1.72a14.155,14.155,0,0,1,4.38,1.82ZM95.76,6.24V4c-.52.18-1.12.38-2.3.68.08-.26.46-1.54.48-1.56.12-.12.46-.24.46-.44,0-.22-.38-.32-.48-.34l-2.18-.48a19.083,19.083,0,0,1-.72,3.3,26.624,26.624,0,0,1-3.4.26l.3,2.08c.94-.06,1.5-.12,2.42-.24a34.306,34.306,0,0,1-3.42,7.28l2.14.92a48.777,48.777,0,0,0,3.7-8.58C94.46,6.58,95.08,6.42,95.76,6.24Zm26.56-3.7A11.007,11.007,0,0,0,120.94.8l-1.04.7a11.644,11.644,0,0,1,1.36,1.76Zm-2.4,1a10.158,10.158,0,0,0-1.38-1.74l-1.02.78a11.9,11.9,0,0,1,1.36,1.74Zm.5,14.3V15.38a24.286,24.286,0,0,1-5.98.88c-2.08,0-3.66-.48-3.66-2.1,0-1.2,1-2.08,2.3-2.92a27.543,27.543,0,0,1,7.28-3.12l-.74-2.3c-2.26,1-3.76,1.74-4.94,2.32a2.6,2.6,0,0,1-1.12-1.28A14.866,14.866,0,0,1,113,2.08l-2.52.38c.18.98.74,4.36,1.02,5.04a4.487,4.487,0,0,0,1.22,1.66c-2.04,1.2-4.1,2.46-4.1,5.04a3.744,3.744,0,0,0,2.04,3.4,10.14,10.14,0,0,0,4.24.72A38.2,38.2,0,0,0,120.42,17.84Zm21.24-11.8V3.72a13.971,13.971,0,0,1-4.74.82,17.617,17.617,0,0,1-2.56-.22v2.2c1.06.1,1.98.1,2.14.1A26.861,26.861,0,0,0,141.66,6.04Zm.96,10.5V14.06a16.315,16.315,0,0,1-4.56.62c-2.02,0-2.22-.54-2.24-2.44l-2.18.3c.06,3.38.82,4.36,4.46,4.36A27.337,27.337,0,0,0,142.62,16.54Zm-10.46-3.56-1.18-.64c-.44.78-.56.98-.8,1.4A11,11,0,0,1,129.9,11c0-3.02.86-6.64,1.16-6.82.04-.02.3-.12.34-.14a.237.237,0,0,0,.1-.18c0-.16-.38-.3-.52-.36l-2.04-.74a39.419,39.419,0,0,0-.84,4.56,35.375,35.375,0,0,0-.3,3.94,17.425,17.425,0,0,0,.82,5.26,6.122,6.122,0,0,0,.74,1.58l1.58-.62A17.744,17.744,0,0,1,132.16,12.98Zm31.88-7.82V3.3h-7.26V2.56c0-.12,0-.12.32-.38a.23.23,0,0,0,.1-.18c0-.22-.3-.24-.6-.26l-2.4-.08V3.3H147V5.16h5.8a3.746,3.746,0,0,1-.74,2.38,5.254,5.254,0,0,1-2.78,1.6l1.2,1.88a8.688,8.688,0,0,0,1.52-.7,12.753,12.753,0,0,1-5.2,3.64l1.72,1.66a12.269,12.269,0,0,0,3.38-2.08,12.25,12.25,0,0,0,1.78,1.96,15.883,15.883,0,0,1-6.38,1.74l1.14,2.04a21.537,21.537,0,0,0,7.04-2.44,15.523,15.523,0,0,0,7.04,2.26l1.06-2.18a18.155,18.155,0,0,1-3.08-.34,12.236,12.236,0,0,1-3.14-1.04,18.11,18.11,0,0,0,3.64-3.9l-.58-.68h-5.86a3.419,3.419,0,0,0,.46-.26.25.25,0,0,0,.1-.18c0-.14-.16-.22-.26-.28l-1.64-.86a5.6,5.6,0,0,0,1.66-4.22h1.62V7.88c0,.56-.12.66-.54.66h-1.14l.86,2.02h.52c1.22,0,2.36-.38,2.36-1.5V5.16ZM157.1,12.8a8.65,8.65,0,0,1-1.68,1.6,6.974,6.974,0,0,1-1.56-1.6Zm6.68-4.48a15.281,15.281,0,0,0-2.62-2.84l-1.78,1.38a11.268,11.268,0,0,1,2.48,2.9ZM151.44,6.88c0-.06,0-.1-.22-.28l-1.74-1.38a7.5,7.5,0,0,1-2.82,2.6l1.74,1.56a8.939,8.939,0,0,0,1.28-1.04c.38-.38.84-.82,1.22-1.26C151.4,7.04,151.44,7.04,151.44,6.88Zm21.94,12.36c2.68-1.18,3.62-1.94,4.68-3.76a10.678,10.678,0,0,0,4.98,3.78l1.64-2c-2.88-.84-3.84-1.72-4.84-2.96h4.68V12.4h-.74V5.96H180.6a24.074,24.074,0,0,0,2.34-2.38l-1.16-.8h-3.36l.18-.22c.46-.08.64-.12.64-.32,0-.12-.06-.2-.72-.3l-1.9-.28a9.014,9.014,0,0,1-3.54,3l1.88,1.28a13.263,13.263,0,0,0,1.98-1.58h2.34a9.243,9.243,0,0,1-1.44,1.6H173.5V12.4h-1.26v1.9h4.12c-.94,1.44-2.04,2.24-4.6,3.14Zm2.08-8.48.8.6a5.027,5.027,0,0,0,1.76-2.54c.26-.1.38-.16.38-.3,0-.04,0-.22-.28-.32l-1.2-.46h1.6V9.6a1.016,1.016,0,0,0,1.02,1.12h1.24c.52,0,.72-.2,1.04-.66V12.4h-2.68c.04-.18.04-.2.1-.44.14-.12.38-.32.38-.54,0-.2-.5-.24-.68-.24l-1.86-.1a8.986,8.986,0,0,1-.12,1.32h-1.5Zm1.06-3.02a2.844,2.844,0,0,1-1.06,1.92V7.74Zm4.66.66c-.2.5-.4.96-.66.96s-.28-.26-.28-.48V7.74h1.58V8.9Zm-13.82,3.92c.06.44.08.78.3.78.12,0,.2-.12.4-.4.08-.1.12-.18.2-.22.04-.02.98-.42,1.1-.48v4.08c0,.54-.2.68-.8.68a4.941,4.941,0,0,1-1.2-.16l1,2.5c.9,0,3.26-.04,3.26-1.7V11.16c.6-.22.68-.26,1.3-.5V8.6c-.76.28-.94.36-1.3.48V6.74H173V4.82h-1.38V2.7c0-.08.28-.32.4-.42a.408.408,0,0,0,.16-.3c0-.18-.1-.22-.84-.24l-1.98-.06V4.82H167.4V6.74h1.96V9.76c-.78.24-1.46.44-2.22.64Zm37.3-7.88V2.34H187.94v2.1H200.2V16c0,.62-.18.92-.86.92a13.9,13.9,0,0,1-1.54-.16l.9,2.3h1.88c1.38,0,2-.92,2-2.2V4.44ZM197.4,14.6V6.96h-7.44v9.2h2.24V14.6Zm-2.32-2.08H192.2V9.04h2.88Zm20.66,4.84V7.98h-6.92V18.84h2.12V15.06h2.7V16.4c0,.36-.18.56-.42.58-.2.04-1.1,0-1.3,0l.74,1.86h1.42A1.46,1.46,0,0,0,215.74,17.36Zm-2.1-6.54h-2.7V9.68h2.7Zm0,2.72h-2.7V12.36h2.7Zm11.76-6.8-1.98-.94c-.38,1.82-.62,1.84-.96,1.84h-2.58c-.34,0-.58-.12-.58-.5V6.52a31.933,31.933,0,0,0,3.8-1.9c.44-.26.5-.28.66-.28.06,0,.34.02.4.02.08,0,.16,0,.16-.12,0-.14-.2-.36-.26-.42l-1.4-1.42a9.876,9.876,0,0,1-3.36,2.04V2.88c0-.08.04-.14.18-.22.08-.04.18-.12.18-.22,0-.16-.12-.22-.44-.26l-2.14-.22V8.08c0,1.12.78,1.46,2.34,1.46h3.8a1.649,1.649,0,0,0,1.54-1.02A7.012,7.012,0,0,0,225.4,6.74Zm0,8.88-1.82-.9a3.472,3.472,0,0,1-.4,1.24c-.2.38-.28.48-.72.48h-2.58c-.34,0-.58-.12-.58-.5v-.82a30.041,30.041,0,0,0,4.56-2.86.656.656,0,0,1,.38-.08c.26,0,.34,0,.34-.16,0-.14-.16-.3-.28-.4l-1.54-1.24a16.869,16.869,0,0,1-3.46,2.58V11.1c0-.06.04-.12.18-.22.08-.04.18-.12.18-.2,0-.2-.22-.26-.44-.28l-2.02-.22v6.78c0,1.14.7,1.46,2.22,1.46h3.8C224.18,18.42,224.92,17.76,225.4,15.62Zm-8.66-8.9a16.418,16.418,0,0,0-1.96-3.54l-1.66.76c.24.46.32.58.42.76a17.5,17.5,0,0,1-1.88.24,23.952,23.952,0,0,0,1.06-2.16c.02-.04.06-.08.26-.12.08-.02.26-.06.26-.18,0-.14-.2-.2-.48-.26l-2.12-.48a26.2,26.2,0,0,1-1.08,3.38c-.5.04-.88.08-1.84.1l.54,1.88c.02.08.1.34.3.34.06,0,.28-.22.34-.24a10.964,10.964,0,0,1,1.28-.18c.4-.04,3.08-.42,4.2-.6a12.383,12.383,0,0,1,.52,1.22Zm27.22,8.92a18.369,18.369,0,0,0-3.44-1.82,19.817,19.817,0,0,1-.26-2.78,1.832,1.832,0,0,1,.76-1.6l-2.08-1.12a3.022,3.022,0,0,0-.86,2.04c0,.42.24,2.46.28,2.92a10.093,10.093,0,0,0-1.56-.12c-2.76,0-3.54,1.76-3.54,2.84a2.264,2.264,0,0,0,.74,1.7,4.753,4.753,0,0,0,3.26.94c2.62,0,3.22-.84,3.4-2.44a11.009,11.009,0,0,1,1.98,1.32Zm-5.5-.36c0,.72.02,1.56-1.6,1.56-1.1,0-1.66-.46-1.66-.9,0-.4.48-.96,1.52-.96A6.716,6.716,0,0,1,238.46,15.28Zm6.06-8a9.884,9.884,0,0,0-4.46-1.84l-.9,1.72a14.156,14.156,0,0,1,4.38,1.82Zm-5.96-1.04V4c-.52.18-1.12.38-2.3.68.08-.26.46-1.54.48-1.56.12-.12.46-.24.46-.44,0-.22-.38-.32-.48-.34l-2.18-.48a19.083,19.083,0,0,1-.72,3.3,26.624,26.624,0,0,1-3.4.26l.3,2.08c.94-.06,1.5-.12,2.42-.24a34.305,34.305,0,0,1-3.42,7.28l2.14.92a48.777,48.777,0,0,0,3.7-8.58C237.26,6.58,237.88,6.42,238.56,6.24Zm26.66,2.54V6.5h-3.36V3.48c.04-.1.08-.14.22-.26.12-.1.18-.16.18-.24,0-.24-.46-.3-.62-.32l-2.06-.28c.04,1.26.04,2.6.04,4.12h-3.78V3.7c0-.1.04-.14.26-.3.12-.08.16-.12.16-.2,0-.2-.14-.22-.6-.28l-2.2-.24V6.5h-3.7V8.78h3.7v4.58h2.38V8.78h3.78c-.08,4.48-1.22,6.52-4.84,8.5l1.64,1.56c3.88-2.36,5.2-4.36,5.42-10.06Zm11.06-3.3A18.654,18.654,0,0,0,272.08,3l-1.22,1.88a18.072,18.072,0,0,1,4.1,2.52Zm9.52,2.08-1.38-2a27.9,27.9,0,0,1-5.86,6.12,18.726,18.726,0,0,1-7.42,3.46l1.4,2.4c.14.26.32.38.44.38.16,0,.2-.34.3-.62a26.9,26.9,0,0,0,7.54-4.46A28.119,28.119,0,0,0,285.8,7.56Zm19.4-1.4-1.62-1.9a2.017,2.017,0,0,1-.88.38h-4.48c.2-.38.44-.78.56-1.08.28-.08.5-.12.5-.28,0-.2-.4-.38-.52-.42l-2.06-.78a17.418,17.418,0,0,1-5.52,7.68l1.98,1.36a27.67,27.67,0,0,0,3.8-4.46h5.12a15.943,15.943,0,0,1-2.64,5.26,17.434,17.434,0,0,1-6.26,5.22l2.18,1.5a19.432,19.432,0,0,0,5.42-4.74,23.492,23.492,0,0,0,3.56-6.78A2.083,2.083,0,0,1,305.2,6.16ZM61.1,49.6a39.974,39.974,0,0,0-5.3-4.94,24.158,24.158,0,0,0,2.32-4.48,2.771,2.771,0,0,1,1.08-1.2l-1.54-1.7a1.9,1.9,0,0,1-1.04.44H48v2.32h7.62a15.987,15.987,0,0,1-3.4,5.46,17.736,17.736,0,0,1-6.38,4.32l1.76,1.82a19.306,19.306,0,0,0,6.84-5.14,31.544,31.544,0,0,1,4.88,5ZM82.9,37.32a1.85,1.85,0,1,0-1.84,1.88A1.857,1.857,0,0,0,82.9,37.32Zm-.72,0a1.135,1.135,0,0,1-1.12,1.14,1.14,1.14,0,0,1,0-2.28A1.135,1.135,0,0,1,82.18,37.32Zm-.6,10.52a18.472,18.472,0,0,0-3.38-4.06L76.66,45.1a15.162,15.162,0,0,1,3.16,4.16Zm-.82-5.6V40.18H75.02V37.62c0-.1.1-.18.18-.22.18-.12.26-.18.26-.28,0-.18-.22-.24-.54-.28l-2.16-.28v3.62H66.94v2.06h5.82v7.04c0,.48-.1.64-.74.64a8.379,8.379,0,0,1-1.58-.16l.76,2.32c3.34-.02,3.82-.34,3.82-2.2V42.24ZM71.52,45.4c0-.14-.3-.34-.38-.38L69.5,43.94a14.676,14.676,0,0,1-4.04,4.5l2.06,1.28a17.472,17.472,0,0,0,3.42-3.98c.06-.08.08-.08.34-.16C71.4,45.56,71.52,45.52,71.52,45.4Zm29.04-7.38c0-.16-.26-.42-.34-.48L98.48,36.1a31.05,31.05,0,0,1-11.6,8.5l1.74,1.78a35.861,35.861,0,0,0,5.04-2.84v8.8h2.5V41.68a25.608,25.608,0,0,0,3.3-3.12c.28-.3.32-.34.62-.36C100.48,38.18,100.56,38.16,100.56,38.02Zm12.52,1.46a18.654,18.654,0,0,0-4.2-2.48l-1.22,1.88a18.072,18.072,0,0,1,4.1,2.52Zm9.52,2.08-1.38-2a27.9,27.9,0,0,1-5.86,6.12,18.726,18.726,0,0,1-7.42,3.46l1.4,2.4c.14.26.32.38.44.38.16,0,.2-.34.3-.62a26.9,26.9,0,0,0,7.54-4.46A28.119,28.119,0,0,0,122.6,41.56Zm19.92,4.14a24.483,24.483,0,0,0-3.12-2.4,17.859,17.859,0,0,0-3.4-1.82l-.94,1.48V37.7c0-.1.52-.42.52-.54,0-.24-.42-.3-.48-.32l-2.4-.42V52.26h2.36V43.62a20.36,20.36,0,0,1,5.88,4Zm19.96-1.48-.68-2.28c-.94.42-1.2.54-3.54,1.64a2.68,2.68,0,0,0-2.72-2.02,3.867,3.867,0,0,0-1.72.42c.34-.52.5-.8,1.14-1.98a42.1,42.1,0,0,0,4.78-.76l.14-2.24a16.887,16.887,0,0,1-3.92,1.02c.1-.22.6-1.34.62-1.36.02,0,.42-.18.46-.2.12-.04.2-.1.2-.22,0-.14-.34-.18-.4-.2l-2.5-.44a15.509,15.509,0,0,1-1,2.66,28.131,28.131,0,0,1-3.82-.08l.24,2.08c.84,0,1.46-.02,2.6-.08a26.592,26.592,0,0,1-3.94,5.5l1.96,1.22c1.1-1.8,2.3-3.62,4.26-3.62a1.386,1.386,0,0,1,1.52,1.32c-3,1.54-4.84,2.48-4.84,4.96a2.734,2.734,0,0,0,.76,1.96c1.26,1.34,3.58,1.34,4.7,1.34a33.1,33.1,0,0,0,4.76-.3V50.3a23.124,23.124,0,0,1-5.1.64c-1.46,0-3-.26-3-1.56,0-1.4,2.08-2.44,2.84-2.82-.02.88-.04,1.86-.1,3h2.32c0-.68-.04-3.16-.04-3.94C159.94,45.06,160.9,44.72,162.48,44.22Zm21.8.9V38.76h-2.4c.32-.36.86-1.04,1.32-1.6.26-.04.64-.1.64-.3,0-.14-.14-.24-.26-.28l-2.12-.9a20.05,20.05,0,0,1-2.04,3.08h-2.08l1.08-.78a10.818,10.818,0,0,0-2.28-2.38l-1.82,1.18a10.206,10.206,0,0,1,1.96,1.98h-2.46v6.36Zm-11,3.08v-12h-5.42v12h.74a11.666,11.666,0,0,1-1.72,3.78l2,.98a15.744,15.744,0,0,0,1.56-3.36.913.913,0,0,1,.28-.2.23.23,0,0,0,.12-.18c0-.08-.04-.14-.26-.24l-1.7-.78Zm9.02-7.02h-2.26V40.12h2.26Zm0,2.52h-2.26V42.5h2.26Zm-4.34-2.52H175.8V40.12h2.16Zm0,2.52H175.8V42.5h2.16Zm-6.48-.74h-1.9V41.34h1.9Zm0-3.34h-1.9v-1.6h1.9Zm0,6.78h-1.9V44.62h1.9Zm11.86,6.52v-7h-8.88v7.04h2.08V52.4h4.66v.52Zm-2.14-4.56h-4.66v-.88h4.66Zm0,2.5h-4.66V49.8h4.66Zm-6.82.02a6.946,6.946,0,0,1-1.58-2.56l-1.74.86a8.87,8.87,0,0,0,1.52,2.92Zm29.04-8.46V36.26H189.18v6.16Zm1.44,10.16V50.6h-7.28V48.98h5.14v-1.8h-5.14V45.72h6.68V43.88H188.34v1.84h6.62v1.46H189.9v1.8h5.06V50.6H187.7v1.98Zm-3.88-12h-9.36V38.2h9.36Zm22.92,6.54-1.96-1.62c-1.96,3.84-4.64,4.54-5.76,4.54a1.928,1.928,0,0,1-1.76-.84,10.531,10.531,0,0,1-.38-3.54,75.6,75.6,0,0,1,.56-8c.32-.26.56-.42.56-.58,0-.12-.18-.26-.66-.32l-2.66-.38c.06,1.34-.1,7.28-.1,8.5,0,4.8.32,5.82,1.26,6.64a4.449,4.449,0,0,0,2.92,1.02,7.229,7.229,0,0,0,3.98-1.28A14.922,14.922,0,0,0,223.9,47.12Zm19.52,2.54a16.627,16.627,0,0,0-5.06-2.26c-.06-1.18-.06-1.38-.1-2.38a42.991,42.991,0,0,0,4.28-.5V42.34c-1.84.34-2.58.46-4.32.68V40.66c1-.02,2.86-.06,5.08-.06l.08-2.12c-1.88.14-2.56.18-5.12.3.02-1.04.04-1.42.04-1.44a.65.65,0,0,1,.26-.36c.22-.18.26-.2.26-.28,0-.14-.12-.2-.5-.24l-2.44-.24.06,2.66c-1.78.04-2.86.08-5.14.08l.04,2.16c1.72-.2,2.86-.28,5.16-.38l.04,2.5a13.725,13.725,0,0,1-1.38.04c-.34,0-.76,0-.76-.28,0-.26.3-.48.66-.74l-1.14-.98c-.78.56-2.14,1.5-2.14,2.48,0,.78.92,1.44,2.76,1.44.58,0,1.68-.04,2.04-.06l.04,1.92-.56-.02c-4.5-.16-4.7,2.16-4.7,2.74,0,1.62,1.72,2.6,4.48,2.6,2.56,0,3.04-.8,3.12-2.84a15.076,15.076,0,0,1,3.66,1.98Zm-7.28-.7c.02,1.12-.06,1.48-1.36,1.48-.24,0-1.52,0-1.52-.68,0-.52.64-.86,1.94-.86A5.177,5.177,0,0,1,236.14,48.96Zm28.88-8.54V38.26c-2.04.16-2.66.22-5.44.38V36.58c0-.08.02-.12.16-.24s.18-.18.18-.3c0-.2-.12-.26-.58-.28l-2.22-.14c.12,1.46.12,2.52.14,3.14-4.2.2-5.92.2-7.28.2v2.32c2.54-.32,5.56-.5,7.34-.6l.04,1.5a2.638,2.638,0,0,0-.94-.16c-2.04,0-3.14,1.52-3.14,3.72a3.579,3.579,0,0,0,1.04,2.78,2.518,2.518,0,0,0,1.64.62,4.022,4.022,0,0,0,1.08-.2,6.382,6.382,0,0,1-2.86,3.28l2.24,1.16a13.876,13.876,0,0,0,2.72-3.72,8.968,8.968,0,0,0,1.02-3.86,5.158,5.158,0,0,0-.58-2.44v-2.8C262.18,40.46,263.5,40.42,265.02,40.42Zm-7.28,5.06c0,1.42-.96,1.86-1.38,1.86-.46,0-1.1-.46-1.1-1.66,0-1.06.56-1.76,1.36-1.76a1.041,1.041,0,0,1,.74.28A1.865,1.865,0,0,1,257.74,45.48Z" transform="translate(-5.28 -0.8)"/></svg>