<svg xmlns="http://www.w3.org/2000/svg" width="348.984" height="58.8" viewBox="0 0 348.984 58.8"><defs><style>.a{fill:#2f2f2f;}</style></defs><path class="a" d="M22.224,18.192a19.952,19.952,0,0,0-6.072-2.712c-.072-1.416-.072-1.656-.12-2.856a51.589,51.589,0,0,0,5.136-.6V9.408c-2.208.408-3.1.552-5.184.816V7.392c1.2-.024,3.432-.072,6.1-.072l.1-2.544c-2.256.168-3.072.216-6.144.36.024-1.248.048-1.7.048-1.728a.78.78,0,0,1,.312-.432c.264-.216.312-.24.312-.336,0-.168-.144-.24-.6-.288l-2.928-.288.072,3.192c-2.136.048-3.432.1-6.168.1l.048,2.592c2.064-.24,3.432-.336,6.192-.456l.048,3a16.471,16.471,0,0,1-1.656.048c-.408,0-.912,0-.912-.336,0-.312.36-.576.792-.888L10.224,8.136c-.936.672-2.568,1.8-2.568,2.976,0,.936,1.1,1.728,3.312,1.728.7,0,2.016-.048,2.448-.072l.048,2.3-.672-.024c-5.4-.192-5.64,2.592-5.64,3.288,0,1.944,2.064,3.12,5.376,3.12,3.072,0,3.648-.96,3.744-3.408a18.092,18.092,0,0,1,4.392,2.376Zm-8.736-.84c.024,1.344-.072,1.776-1.632,1.776-.288,0-1.824,0-1.824-.816,0-.624.768-1.032,2.328-1.032A6.213,6.213,0,0,1,13.488,17.352Zm32.9-3.48A24.1,24.1,0,0,1,41.76,7.488,22,22,0,0,0,45.5,5.736l-1.2-2.28a14.143,14.143,0,0,1-3.528,1.92A16.873,16.873,0,0,1,39.768,2.52c0-.144.312-.624.312-.744,0-.312-.672-.168-.84-.144l-2.424.36a33.173,33.173,0,0,0,1.56,4.2A29.981,29.981,0,0,1,33.36,7.2a12.137,12.137,0,0,1-1.9,0l1.224,2.52A27.575,27.575,0,0,0,39.408,8.3a26.245,26.245,0,0,0,2.256,3.72,15.948,15.948,0,0,0-2.928-.408c-2.64,0-5.664,1.464-5.664,4.944a4.394,4.394,0,0,0,.936,2.808c1.68,2.16,4.944,2.28,6.336,2.28a20.023,20.023,0,0,0,3.792-.264l-.192-2.712a18.16,18.16,0,0,1-3.7.408c-2.808,0-4.416-.744-4.416-2.592,0-1.632,1.608-2.592,3.528-2.592a9.241,9.241,0,0,1,5.5,2.016Zm25.08-7.224V3.864a16.765,16.765,0,0,1-5.688.984,21.14,21.14,0,0,1-3.072-.264v2.64c1.272.12,2.376.12,2.568.12A32.233,32.233,0,0,0,71.472,6.648Zm1.152,12.6V16.272a19.578,19.578,0,0,1-5.472.744c-2.424,0-2.664-.648-2.688-2.928l-2.616.36c.072,4.056.984,5.232,5.352,5.232A32.8,32.8,0,0,0,72.624,19.248ZM60.072,14.976l-1.416-.768c-.528.936-.672,1.176-.96,1.68A13.2,13.2,0,0,1,57.36,12.6c0-3.624,1.032-7.968,1.392-8.184.048-.024.36-.144.408-.168a.284.284,0,0,0,.12-.216c0-.192-.456-.36-.624-.432l-2.448-.888A47.3,47.3,0,0,0,55.2,8.184a42.453,42.453,0,0,0-.36,4.728,20.91,20.91,0,0,0,.984,6.312,7.346,7.346,0,0,0,.888,1.9l1.9-.744A21.293,21.293,0,0,1,60.072,14.976Zm27-12.024V.48h-8.5V23.16h2.448V2.952ZM109.3,15.192c0-2.832-1.632-4.608-4.32-5.52l.384-1.1-2.76-.6c-.1.456-.168.768-.288,1.248a10.6,10.6,0,0,0-2.616.192c.12-.96.144-1.08.288-1.968a33.294,33.294,0,0,0,6.336-1.272V3.6a23.428,23.428,0,0,1-5.88,1.608,17.4,17.4,0,0,1,.744-2.352c.264-.072.552-.144.552-.36,0-.072,0-.192-.6-.36l-2.5-.672a39.57,39.57,0,0,0-.888,4.056,33.916,33.916,0,0,1-4.56-.168l.792,2.376c1.3,0,1.92,0,3.432-.072-.12,1.128-.192,1.728-.24,2.664-4.344,2.4-5.232,5.76-5.232,7.392,0,1.944,1.128,3.12,2.64,3.12a6.744,6.744,0,0,0,3.432-1.2,5.314,5.314,0,0,0,.336.888l2.3-1.248c-.24-.768-.288-.864-.456-1.44a21.667,21.667,0,0,0,3.912-6.048,3.418,3.418,0,0,1,2.4,3.312,4.521,4.521,0,0,1-1.392,3.312,6.963,6.963,0,0,1-4.1,1.7l1.752,2.208C104.424,21.84,109.3,20.472,109.3,15.192Zm-7.7-3.912A19.33,19.33,0,0,1,99.624,15a24.356,24.356,0,0,1-.12-3.456A5.561,5.561,0,0,1,101.592,11.28Zm-4.1,6.024a3.81,3.81,0,0,1-2.232,1.032c-.408,0-.888-.144-.888-1.128s.6-2.5,2.76-4.3A34.211,34.211,0,0,0,97.488,17.3Zm35.784.864a22.044,22.044,0,0,0-4.128-2.184,23.782,23.782,0,0,1-.312-3.336,2.2,2.2,0,0,1,.912-1.92l-2.5-1.344a3.626,3.626,0,0,0-1.032,2.448c0,.5.288,2.952.336,3.5a12.112,12.112,0,0,0-1.872-.144c-3.312,0-4.248,2.112-4.248,3.408a2.717,2.717,0,0,0,.888,2.04,5.7,5.7,0,0,0,3.912,1.128c3.144,0,3.864-1.008,4.08-2.928a13.212,13.212,0,0,1,2.376,1.584Zm-6.6-.432c0,.864.024,1.872-1.92,1.872-1.32,0-1.992-.552-1.992-1.08,0-.48.576-1.152,1.824-1.152A8.059,8.059,0,0,1,126.672,17.736Zm7.272-9.6a11.861,11.861,0,0,0-5.352-2.208l-1.08,2.064a16.987,16.987,0,0,1,5.256,2.184Zm-7.152-1.248V4.2c-.624.216-1.344.456-2.76.816.1-.312.552-1.848.576-1.872.144-.144.552-.288.552-.528,0-.264-.456-.384-.576-.408l-2.616-.576a22.9,22.9,0,0,1-.864,3.96,31.949,31.949,0,0,1-4.08.312l.36,2.5c1.128-.072,1.8-.144,2.9-.288a41.167,41.167,0,0,1-4.1,8.736l2.568,1.1a58.532,58.532,0,0,0,4.44-10.3C125.232,7.3,125.976,7.1,126.792,6.888Zm31.368,5.376V9.72a27.562,27.562,0,0,0-3.168-.144c-1.272,0-2.472.072-3.72.168v2.52a29.414,29.414,0,0,1,3.6-.264A26.083,26.083,0,0,1,158.16,12.264ZM152.736,7.44V4.776a18.771,18.771,0,0,1-3.816,1.416c.168-.672.36-1.536.576-2.616.048-.24.1-.264.408-.408.216-.1.288-.168.288-.336,0-.264-.552-.384-.6-.384l-2.952-.7a29.143,29.143,0,0,1-.816,5.088,17.413,17.413,0,0,1-2.376.144A9.683,9.683,0,0,1,141.5,6.84l.192,2.5a31.642,31.642,0,0,0,3.576-.288c-1.9,6.5-3.432,9.1-4.872,11.424l2.928.888a68.063,68.063,0,0,0,4.944-12.768A28.966,28.966,0,0,0,152.736,7.44Zm5.808,13.728-.24-2.784a15.8,15.8,0,0,1-4.224.528c-.552,0-2.376-.024-3.048-.648a.824.824,0,0,1-.288-.72,4.538,4.538,0,0,1,.1-.888l-2.376-.5a5.562,5.562,0,0,0-.288,1.728c0,2.448,1.848,3.648,6.168,3.648A23.214,23.214,0,0,0,158.544,21.168Zm23.328-14.52V3.864a16.765,16.765,0,0,1-5.688.984,21.14,21.14,0,0,1-3.072-.264v2.64c1.272.12,2.376.12,2.568.12A32.233,32.233,0,0,0,181.872,6.648Zm1.152,12.6V16.272a19.578,19.578,0,0,1-5.472.744c-2.424,0-2.664-.648-2.688-2.928l-2.616.36c.072,4.056.984,5.232,5.352,5.232A32.8,32.8,0,0,0,183.024,19.248Zm-12.552-4.272-1.416-.768c-.528.936-.672,1.176-.96,1.68a13.2,13.2,0,0,1-.336-3.288c0-3.624,1.032-7.968,1.392-8.184.048-.024.36-.144.408-.168a.284.284,0,0,0,.12-.216c0-.192-.456-.36-.624-.432l-2.448-.888A47.3,47.3,0,0,0,165.6,8.184a42.453,42.453,0,0,0-.36,4.728,20.909,20.909,0,0,0,.984,6.312,7.346,7.346,0,0,0,.888,1.9l1.9-.744A21.293,21.293,0,0,1,170.472,14.976Zm38.352-4.824V7.824h-4.68V4.608c1.488-.24,2.424-.456,2.664-.528a4.634,4.634,0,0,1,.984-.192,6.277,6.277,0,0,0,.672,0,.135.135,0,0,0,.12-.144.293.293,0,0,0-.072-.216l-1.776-2.112a25.944,25.944,0,0,1-9.672,1.632L198,5.232a32.958,32.958,0,0,0,3.36-.216V7.824H196.9v2.328h4.464v3h-3.552v8.712h2.52V21.1h5.016v.576h2.64v-8.52h-3.84v-3Zm-13.272-6V1.968h-6.024V4.152Zm9.792,14.592h-5.016V15.5h5.016Zm-9.48-8.376V8.256h-6.5v2.112Zm-.1,3.12V11.4H189.36v2.088Zm.48,8.16V14.52H188.64v7.512h2.376V21H193.8v.648Zm-2.448-2.88h-2.784V16.824H193.8ZM196.944,7.3V5.088H188.16V7.3Zm34.392,4.368-.816-2.736c-1.128.5-1.44.648-4.248,1.968a3.217,3.217,0,0,0-3.264-2.424,4.641,4.641,0,0,0-2.064.5c.408-.624.6-.96,1.368-2.376a50.519,50.519,0,0,0,5.736-.912L228.216,3a20.265,20.265,0,0,1-4.7,1.224c.12-.264.72-1.608.744-1.632.024,0,.5-.216.552-.24.144-.048.24-.12.24-.264,0-.168-.408-.216-.48-.24l-3-.528a18.613,18.613,0,0,1-1.2,3.192,33.757,33.757,0,0,1-4.584-.1l.288,2.5c1.008,0,1.752-.024,3.12-.1a31.91,31.91,0,0,1-4.728,6.6l2.352,1.464c1.32-2.16,2.76-4.344,5.112-4.344a1.663,1.663,0,0,1,1.824,1.584c-3.6,1.848-5.808,2.976-5.808,5.952a3.281,3.281,0,0,0,.912,2.352c1.512,1.608,4.3,1.608,5.64,1.608a39.72,39.72,0,0,0,5.712-.36V18.96a27.749,27.749,0,0,1-6.12.768c-1.752,0-3.6-.312-3.6-1.872,0-1.68,2.5-2.928,3.408-3.384-.024,1.056-.048,2.232-.12,3.6h2.784c0-.816-.048-3.792-.048-4.728C228.288,12.672,229.44,12.264,231.336,11.664Zm23.5-3-.432-2.4a27.363,27.363,0,0,1-4.368,2.16c-.384-.84-.48-1.08-.792-1.824a15.809,15.809,0,0,0,3.792-1.632L252.5,2.64a23.165,23.165,0,0,1-4.1,1.848,20.917,20.917,0,0,1-.72-2.208c0-.072.024-.144.216-.336.12-.12.192-.192.192-.312,0-.288-.6-.216-.792-.192l-2.736.312c.384,1.128.648,1.9,1.2,3.384a29.6,29.6,0,0,1-5.592.48l.744,2.3a27.553,27.553,0,0,0,5.712-.648c.24.552.5,1.152.864,1.968a31.815,31.815,0,0,1-7.56.72l.84,2.424a30.953,30.953,0,0,0,7.7-1.056c.456.888.672,1.32,1.248,2.352a18.332,18.332,0,0,0-3.432-.384c-2.712,0-5.3.888-5.3,4.176,0,3.168,2.976,4.536,7.3,4.536a24.16,24.16,0,0,0,3.792-.288l.24-2.832a17.508,17.508,0,0,1-4.8.648c-.816,0-3.936,0-3.936-2.04,0-1.3,1.32-1.968,2.9-1.968a13.514,13.514,0,0,1,6.288,1.824l1.464-1.824a26.054,26.054,0,0,1-3.168-4.992A17.8,17.8,0,0,0,254.832,8.664Zm27.12,6.216a20.4,20.4,0,0,0-3.936-10.2l-2.472,1.2a22.318,22.318,0,0,1,3.528,9.744Zm-10.584-.36-1.992-1.776c-.456,1.152-1.44,3.7-2.3,3.7-.48,0-1.632-.864-1.632-5.544a24.877,24.877,0,0,1,.456-5.352c.408-.144.7-.24.7-.5,0-.288-.384-.408-.552-.456l-2.64-.72a23.374,23.374,0,0,0-.72,6.24c0,4.56.768,7.368,2.448,9a2.617,2.617,0,0,0,1.776.792C268.848,19.9,270.048,17.352,271.368,14.52Zm33.6-9.24V2.4a72.659,72.659,0,0,1-17.5,2.232l.48,2.832A91.769,91.769,0,0,1,297.1,6.432c-1.128,1.056-4.656,4.368-4.656,8.472,0,5.352,6,6.6,7.944,7.008l.84-3.024a7.123,7.123,0,0,1-4.176-1.152,4.112,4.112,0,0,1-1.776-3.36c0-2.4,1.992-5.064,4.1-6.768A9.289,9.289,0,0,1,304.968,5.28ZM330.7,14.808c-1.032-.672-1.776-1.128-3.1-1.872a28.972,28.972,0,0,0,.816-3.576c.072-.336.072-.384.264-.5.336-.168.36-.192.36-.312,0-.216-.336-.336-.576-.408l-2.688-.744a20.406,20.406,0,0,1-.624,4.392,15.444,15.444,0,0,0-4.632-1.1c.336-.744,2.04-4.608,2.064-4.7a9.784,9.784,0,0,1,1.248-2.04l-1.584-1.584c-1.3.84-4.128,1.32-7.824,1.3l1.08,2.424a16.751,16.751,0,0,0,4.368-.744,55.582,55.582,0,0,1-1.944,5.208,6.476,6.476,0,0,0-3.816,1.152,5.965,5.965,0,0,0-2.832,4.752,2.8,2.8,0,0,0,2.712,3.1c2.112,0,3.144-1.536,5.52-6.624a14.859,14.859,0,0,1,4.8,1.344,11.61,11.61,0,0,1-4.776,5.64l2.376,1.656a13.384,13.384,0,0,0,4.752-5.976c.552.36,1.224.816,2.5,1.8Zm-13.848-1.824a27.256,27.256,0,0,1-1.584,2.976,1.094,1.094,0,0,1-1.008.576c-.168,0-.48-.024-.48-.648C313.776,15,314.784,13.632,316.848,12.984ZM354,12.264V9.72a27.562,27.562,0,0,0-3.168-.144c-1.272,0-2.472.072-3.72.168v2.52a29.414,29.414,0,0,1,3.6-.264A26.083,26.083,0,0,1,354,12.264ZM348.576,7.44V4.776a18.77,18.77,0,0,1-3.816,1.416c.168-.672.36-1.536.576-2.616.048-.24.1-.264.408-.408.216-.1.288-.168.288-.336,0-.264-.552-.384-.6-.384l-2.952-.7a29.143,29.143,0,0,1-.816,5.088,17.413,17.413,0,0,1-2.376.144,9.683,9.683,0,0,1-1.944-.144l.192,2.5a31.643,31.643,0,0,0,3.576-.288c-1.9,6.5-3.432,9.1-4.872,11.424l2.928.888a68.066,68.066,0,0,0,4.944-12.768A28.967,28.967,0,0,0,348.576,7.44Zm5.808,13.728-.24-2.784a15.8,15.8,0,0,1-4.224.528c-.552,0-2.376-.024-3.048-.648a.824.824,0,0,1-.288-.72,4.538,4.538,0,0,1,.1-.888l-2.376-.5a5.562,5.562,0,0,0-.288,1.728c0,2.448,1.848,3.648,6.168,3.648A23.213,23.213,0,0,0,354.384,21.168ZM24.672,50.88a20.4,20.4,0,0,0-3.936-10.2l-2.472,1.2a22.318,22.318,0,0,1,3.528,9.744Zm-10.584-.36L12.1,48.744c-.456,1.152-1.44,3.7-2.3,3.7-.48,0-1.632-.864-1.632-5.544a24.878,24.878,0,0,1,.456-5.352c.408-.144.7-.24.7-.5,0-.288-.384-.408-.552-.456l-2.64-.72A23.374,23.374,0,0,0,5.4,46.1c0,4.56.768,7.368,2.448,9a2.617,2.617,0,0,0,1.776.792C11.568,55.9,12.768,53.352,14.088,50.52Zm22.536,8.76V36.6H34.176V56.808H28.128V59.28Zm25.392-3.744c-4.152-2.208-8.808-4.872-8.808-14.544,0-.312,0-1.92.048-2.016s.432-.408.48-.48a.574.574,0,0,0,.192-.384c0-.36-.816-.36-1.08-.36l-2.688-.1c.024,1.008.1,4.1.1,4.752a13.382,13.382,0,0,1-3.6,9.864,15.549,15.549,0,0,1-5.136,3.456l2.328,2.328c4.68-3.048,6.216-4.7,7.968-8.832,1.968,4.272,3.576,5.976,8.064,8.712ZM85.848,48.12c0-.864-.6-3.7-3.744-7.056L80.112,42.5c1.32,1.512,2.664,3.912,2.664,4.656,0,.576-.552.624-1.584.72l1.632,2.472C84.36,50.064,85.848,49.488,85.848,48.12ZM80.16,47.064c0-1.464-.264-4.128-3.528-4.128a11.25,11.25,0,0,0-1.9.192c.168-.912.336-1.752.456-2.616.024-.24.072-.264.5-.528.264-.168.312-.24.312-.336,0-.216-.48-.36-.672-.384l-2.928-.408a24.843,24.843,0,0,1-.528,4.8c-1.056.168-3.264.576-5.016.72l.96,2.9a30.213,30.213,0,0,1,3.408-1.032,25.191,25.191,0,0,1-4.752,9.384l2.736,1.224a39.782,39.782,0,0,0,4.968-11.184,9.038,9.038,0,0,1,1.368-.12c1.728,0,1.992.768,1.992,2.04a14.189,14.189,0,0,1-1.464,5.976,1.476,1.476,0,0,1-1.44.6,6.711,6.711,0,0,1-2.16-.384l.336,2.9a15.18,15.18,0,0,0,2.064.144,3.729,3.729,0,0,0,3.6-1.848C79.752,52.776,80.16,49.056,80.16,47.064Zm23.424-6.84a28.516,28.516,0,0,0-5.736-2.472l-1.032,2.376a22.733,22.733,0,0,1,5.544,2.616ZM108,50.928a5.18,5.18,0,0,0-5.328-5.256,9.229,9.229,0,0,0-5.9,2.424,30.661,30.661,0,0,1,1.44-5.28l-2.76-1.08A46.85,46.85,0,0,0,93.576,50.9l2.088,1.1c2.472-2.88,4.9-3.84,6.552-3.84,1.8,0,3.024.984,3.024,2.52,0,2.208-2.04,4.536-6.5,4.536a24.033,24.033,0,0,1-3-.264l1.272,2.952C99.984,57.84,108,57.7,108,50.928Zm26.808-3.1c0-5.352-3.936-8.736-8.928-8.736A10.351,10.351,0,0,0,115.3,49.272c0,4.3,3.936,6.456,4.8,6.456,1.248,0,2.352-2.016,3.072-3.5a34.075,34.075,0,0,0,2.976-10.68,6.14,6.14,0,0,1,4.08,1.608,5.658,5.658,0,0,1,1.728,4.2,7.509,7.509,0,0,1-1.728,4.776A8.083,8.083,0,0,1,125.9,54.7l1.776,2.472a11.586,11.586,0,0,0,5.592-4.224A8.967,8.967,0,0,0,134.808,47.832Zm-11.52-5.856c-.48,3.744-2.544,10.008-3.792,10.008-.432,0-1.536-1.008-1.536-2.952a7.86,7.86,0,0,1,2.4-5.328A7.086,7.086,0,0,1,123.288,41.976ZM159.432,57.84V38.112H149.184v19.9h2.64v-1.44h4.92V57.84Zm-2.688-9.36h-4.92V45.624h4.92Zm0-5.184h-4.92V40.44h4.92Zm0,10.824h-4.92V50.808h4.92Zm-8.064-5.544a16.6,16.6,0,0,1-3.264-4.944v-.264h3.144v-2.28h-3.144V38.5c0-.072.12-.168.24-.264s.144-.168.144-.216c0-.264-.5-.288-.648-.312l-2.184-.216v3.6H139.44v2.28h3.312a20.3,20.3,0,0,1-4.32,8.424l2.232,1.32a19.391,19.391,0,0,0,2.3-3.456v8.352h2.448V48.384a22.2,22.2,0,0,0,1.488,1.968Zm21.72-8.448V38.064h-5.64v2.064Zm.7,3V41.112h-7.272v2.016Zm13.2,12.864c-4.8-1.656-5.472-4.32-5.472-6.96a.549.549,0,0,1,.264-.576c.288-.264.408-.384.408-.576,0-.216-.192-.312-.936-.312l-2.568-.024c.024.384.072.96.072,1.56,0,5.76-3.672,6.648-5.16,6.96V50.52h-6.768v7.536h2.376V57.1H168.5v.744h2.4V56.328l1.944,2.088a8.308,8.308,0,0,0,4.8-4.248,10.676,10.676,0,0,0,4.608,4.056ZM168.5,55.056h-1.992V52.608H168.5ZM184.08,40.368c0-.168-.192-.312-.288-.36l-2.256-1.224a14.348,14.348,0,0,1-2.376,2.9l1.92,1.512a11.024,11.024,0,0,0,2.136-2.4c.12-.144.168-.144.528-.168C183.84,40.608,184.08,40.584,184.08,40.368Zm.5,6.048A12.46,12.46,0,0,1,180,43.968a3.876,3.876,0,0,1-1.3-3.216,10.145,10.145,0,0,1,.144-2.328,2.633,2.633,0,0,0,.264-.288.385.385,0,0,0,.12-.264c0-.216-.264-.264-.912-.288l-2.4-.048c.048.576.1,1.32.1,2.136,0,3.36-.624,5.4-5.088,6.744l1.848,2.136a9.866,9.866,0,0,0,4.728-3.888,11,11,0,0,0,5.016,3.984Zm-9.624-6.168c0-.144-.192-.192-.528-.264l-2.208-.408a15.745,15.745,0,0,1-.528,3.816l2.352.432a20.715,20.715,0,0,0,.432-3.12C174.672,40.608,174.96,40.44,174.96,40.248Zm8.9,9.864c0-.168-.264-.36-.384-.408l-2.232-.936a13.231,13.231,0,0,1-1.728,2.664l2.064,1.344a11.051,11.051,0,0,0,1.488-2.3c.12-.024.264-.1.432-.12C183.744,50.3,183.864,50.256,183.864,50.112Zm-13.44-3.96v-2.04h-5.76v2.04Zm4.944,3.96c0-.144-.168-.216-.528-.288l-2.4-.5a10.726,10.726,0,0,1-.984,3.624l2.4.792a13.1,13.1,0,0,0,1.008-3.192C175.056,50.448,175.368,50.3,175.368,50.112Zm-4.944-.744V47.352h-5.76v2.016Zm36.432-1.7-.816-2.736c-1.128.5-1.44.648-4.248,1.968a3.217,3.217,0,0,0-3.264-2.424,4.641,4.641,0,0,0-2.064.5c.408-.624.6-.96,1.368-2.376a50.518,50.518,0,0,0,5.736-.912L203.736,39a20.265,20.265,0,0,1-4.7,1.224c.12-.264.72-1.608.744-1.632.024,0,.5-.216.552-.24.144-.048.24-.12.24-.264,0-.168-.408-.216-.48-.24l-3-.528a18.613,18.613,0,0,1-1.2,3.192,33.757,33.757,0,0,1-4.584-.1l.288,2.5c1.008,0,1.752-.024,3.12-.1a31.91,31.91,0,0,1-4.728,6.6l2.352,1.464c1.32-2.16,2.76-4.344,5.112-4.344a1.663,1.663,0,0,1,1.824,1.584c-3.6,1.848-5.808,2.976-5.808,5.952a3.281,3.281,0,0,0,.912,2.352c1.512,1.608,4.3,1.608,5.64,1.608a39.719,39.719,0,0,0,5.712-.36V54.96a27.749,27.749,0,0,1-6.12.768c-1.752,0-3.6-.312-3.6-1.872,0-1.68,2.5-2.928,3.408-3.384-.024,1.056-.048,2.232-.12,3.6h2.784c0-.816-.048-3.792-.048-4.728C203.808,48.672,204.96,48.264,206.856,47.664Zm26.016,1.56v-4.9h-4.92c.744-.864,1.44-1.776,1.776-2.256.1-.1.12-.1.36-.144.048,0,.288-.024.288-.192,0-.192-.408-.36-.48-.384l-2.424-.84a14.179,14.179,0,0,1-1.9,3.816H223.3l.864-.744a12.136,12.136,0,0,0-1.8-2.616,70.865,70.865,0,0,0,7.152-.816,7.029,7.029,0,0,1,.984-.168c.1,0,.5.1.6.1s.168-.048.168-.144c0-.216-.288-.528-.384-.624l-1.8-1.824a47.287,47.287,0,0,1-11.4,1.464c-1.488,0-2.4-.072-3.144-.12l1.08,2.328c.48.024.96.024,1.392.024l-1.872,1.248a7.4,7.4,0,0,1,1.536,1.9H213.12v4.944h2.448V46.536h14.856v2.688Zm-.384,6.672a20.821,20.821,0,0,1-7.032-1.728,16.367,16.367,0,0,0,4.248-4.9L228.5,48H216.672v2.256h2.688l-1.3,1.176a14.317,14.317,0,0,0,2.76,2.76,19.243,19.243,0,0,1-7.728,1.776l1.3,2.328a19.232,19.232,0,0,0,4.512-.864,21.52,21.52,0,0,0,4.224-1.752,20.525,20.525,0,0,0,8.28,2.5ZM221.736,44.328h-3.288l.7-.6a13.989,13.989,0,0,0-1.9-2.544c1.344,0,2.424-.024,4.464-.168L220.2,42.072A6.45,6.45,0,0,1,221.736,44.328Zm4.032,5.928a11.184,11.184,0,0,1-2.688,2.616,11.662,11.662,0,0,1-2.808-2.616Zm30.984-5.832-.1-2.76a21.93,21.93,0,0,1-3.264,1.152c-.1-1.2-.216-2.616-.216-2.712-.024-.12-.072-.624-.072-.744s.048-.216.216-.432c.072-.1.216-.264.216-.36,0-.288-.408-.288-.624-.288l-2.808-.1a42.321,42.321,0,0,1,.7,5.184,30,30,0,0,1-3.864.264c-.432,0-.768,0-1.536-.048l.552,2.76a33.38,33.38,0,0,0,4.968-.36v1.272a11.962,11.962,0,0,1-.888,5.256,13.291,13.291,0,0,1-2.352,4.008l2.712,1.392A17.754,17.754,0,0,0,253.608,46.9c0-.408,0-.72-.024-1.44A27.446,27.446,0,0,0,256.752,44.424Zm-12.144,6.288-1.8-1.248c-.48,1.08-.624,1.416-.96,2.3a17.7,17.7,0,0,1-.48-4.536c0-3.288.648-7.32,1.152-7.728.312-.24.384-.288.384-.384,0-.24-.624-.408-.7-.432l-2.424-.7a43.513,43.513,0,0,0-.96,8.52c0,5.88,1.272,8.736,1.92,10.224l2.3-.36A22.143,22.143,0,0,1,244.608,50.712Zm34.416,6.312V53.952a31.1,31.1,0,0,1-7.416,1.08c-2.52,0-4.416-.84-4.416-2.568,0-1.608,1.776-2.832,2.856-3.5a36.108,36.108,0,0,1,8.88-3.792l-.888-2.928c-2.952,1.392-3.264,1.536-6.024,2.832a2.922,2.922,0,0,1-1.392-1.632,19.422,19.422,0,0,1-.7-5.688l-3.072.456c.768,4.584.888,5.28,1.224,6.072a7.558,7.558,0,0,0,1.416,2.16c-2.64,1.56-4.968,3.1-4.968,6.1a4.573,4.573,0,0,0,2.448,4.1c1.2.624,2.448.96,5.28.96A43.051,43.051,0,0,0,279.024,57.024Zm27-2.688-.744-2.688c-.984,1.392-1.9,1.824-2.568,1.824-.648,0-.888-.264-.888-1.584a33.321,33.321,0,0,1,.24-3.384c.312-3.216.336-3.48.336-3.912a2.734,2.734,0,0,0-2.64-2.88c-1.608,0-3.888,2.136-4.824,3l.528-1.056-1.536-1.464a16.814,16.814,0,0,1,.24-3.168c.072-.072.432-.384.432-.456,0-.216-.216-.24-.6-.288l-2.376-.264-.1,5.16a19.576,19.576,0,0,1-4.32,1.152l1.176,2.592c1.2-.384,1.848-.624,3.12-1.08l-.048,2.112a27.462,27.462,0,0,1-4.56,5.52l2.5,1.68c.84-1.32,1.248-1.9,1.992-2.928l-.072,5.544L294,57.624c-.144-2.808-.144-5.3-.168-8.64,1.68-2.064,3.528-4.368,4.9-4.368.816,0,.936.984.936,1.608,0,1.008-.432,5.472-.432,6.384,0,.6,0,3.936,2.784,3.936A5.766,5.766,0,0,0,306.024,54.336Zm22.44-.144a19.952,19.952,0,0,0-6.072-2.712c-.072-1.416-.072-1.656-.12-2.856a51.59,51.59,0,0,0,5.136-.6V45.408c-2.208.408-3.1.552-5.184.816V43.392c1.2-.024,3.432-.072,6.1-.072l.1-2.544c-2.256.168-3.072.216-6.144.36.024-1.248.048-1.7.048-1.728a.78.78,0,0,1,.312-.432c.264-.216.312-.24.312-.336,0-.168-.144-.24-.6-.288l-2.928-.288.072,3.192c-2.136.048-3.432.1-6.168.1l.048,2.592c2.064-.24,3.432-.336,6.192-.456l.048,3a16.471,16.471,0,0,1-1.656.048c-.408,0-.912,0-.912-.336,0-.312.36-.576.792-.888l-1.368-1.176c-.936.672-2.568,1.8-2.568,2.976,0,.936,1.1,1.728,3.312,1.728.7,0,2.016-.048,2.448-.072l.048,2.3-.672-.024c-5.4-.192-5.64,2.592-5.64,3.288,0,1.944,2.064,3.12,5.376,3.12,3.072,0,3.648-.96,3.744-3.408a18.091,18.091,0,0,1,4.392,2.376Zm-8.736-.84c.024,1.344-.072,1.776-1.632,1.776-.288,0-1.824,0-1.824-.816,0-.624.768-1.032,2.328-1.032A6.212,6.212,0,0,1,319.728,53.352ZM354.384,43.1V40.512c-2.448.192-3.192.264-6.528.456V38.5c0-.1.024-.144.192-.288s.216-.216.216-.36c0-.24-.144-.312-.7-.336l-2.664-.168c.144,1.752.144,3.024.168,3.768-5.04.24-7.1.24-8.736.24v2.784c3.048-.384,6.672-.6,8.808-.72l.048,1.8a3.166,3.166,0,0,0-1.128-.192c-2.448,0-3.768,1.824-3.768,4.464a4.3,4.3,0,0,0,1.248,3.336,3.022,3.022,0,0,0,1.968.744,4.826,4.826,0,0,0,1.3-.24,7.658,7.658,0,0,1-3.432,3.936l2.688,1.392a16.651,16.651,0,0,0,3.264-4.464,10.761,10.761,0,0,0,1.224-4.632,6.19,6.19,0,0,0-.7-2.928v-3.36C350.976,43.152,352.56,43.1,354.384,43.1Zm-8.736,6.072c0,1.7-1.152,2.232-1.656,2.232-.552,0-1.32-.552-1.32-1.992,0-1.272.672-2.112,1.632-2.112a1.249,1.249,0,0,1,.888.336A2.238,2.238,0,0,1,345.648,49.176Z" transform="translate(-5.4 -0.48)"/></svg>