<svg xmlns="http://www.w3.org/2000/svg" width="549.362" height="123" viewBox="0 0 549.362 123"><defs><style>.a{fill:#ba7394;}.b{fill:#2f2f2f;}.c,.e{fill:none;}.c{stroke:#ba7394;stroke-width:0.8px;}.d{stroke:none;}</style></defs><g transform="translate(-381 -6925)"><rect class="a" width="97" height="10" transform="translate(509 7038)"/><path class="b" d="M-89.65.044V-5.588a57.022,57.022,0,0,1-13.6,1.98c-4.62,0-8.1-1.54-8.1-4.708,0-2.948,3.256-5.192,5.236-6.424a66.2,66.2,0,0,1,16.28-6.952l-1.628-5.368c-5.412,2.552-5.984,2.816-11.044,5.192a5.357,5.357,0,0,1-2.552-2.992c-1.188-3.3-1.232-7.964-1.276-10.428l-5.632.836c1.408,8.4,1.628,9.68,2.244,11.132a13.856,13.856,0,0,0,2.6,3.96c-4.84,2.86-9.108,5.676-9.108,11.176A8.383,8.383,0,0,0-111.738-.66c2.2,1.144,4.488,1.76,9.68,1.76A78.928,78.928,0,0,0-89.65.044Zm46.816-10.78L-47.146-14.3c-4.312,8.448-10.208,9.988-12.672,9.988A4.243,4.243,0,0,1-63.69-6.16c-.836-1.5-.836-5.764-.836-7.788a166.3,166.3,0,0,1,1.232-17.6c.7-.572,1.232-.924,1.232-1.276,0-.264-.4-.572-1.452-.7l-5.852-.836c.132,2.948-.22,16.016-.22,18.7,0,10.56.7,12.8,2.772,14.608A9.787,9.787,0,0,0-60.39,1.188a15.9,15.9,0,0,0,8.756-2.816C-47.278-4.444-44.638-8.228-42.834-10.736ZM1.034-28.82V-34.1c-8.58,2.508-21.736,4-32.076,4.092l.88,5.192A168.244,168.244,0,0,1-13.4-26.708c-2.068,1.936-8.536,8.008-8.536,15.532,0,9.812,11,12.1,14.564,12.848l1.54-5.544a13.06,13.06,0,0,1-7.656-2.112,7.539,7.539,0,0,1-3.256-6.16c0-4.4,3.652-9.284,7.524-12.408C-4.422-28.424-.858-28.644,1.034-28.82Zm46.2,12.012c0-9.812-7.216-16.016-16.368-16.016a18.977,18.977,0,0,0-19.4,18.656c0,7.876,7.216,11.836,8.8,11.836,2.288,0,4.312-3.7,5.632-6.424,1.452-2.948,4.048-9.108,5.456-19.58a11.256,11.256,0,0,1,7.48,2.948A10.374,10.374,0,0,1,42-17.688,13.766,13.766,0,0,1,38.83-8.932a14.82,14.82,0,0,1-7.92,4.708L34.166.308A21.241,21.241,0,0,0,44.418-7.436,16.44,16.44,0,0,0,47.234-16.808ZM26.114-27.544C25.234-20.68,21.45-9.2,19.162-9.2c-.792,0-2.816-1.848-2.816-5.412a14.41,14.41,0,0,1,4.4-9.768A12.99,12.99,0,0,1,26.114-27.544Zm67.54-5.192a20.383,20.383,0,0,0-3.74-3.608l-1.892,1.98a18.592,18.592,0,0,1,3.608,3.74ZM91.19-27.72a18.825,18.825,0,0,0-3.652-3.916l-1.892,1.98A18.143,18.143,0,0,1,89.3-25.74ZM84.414-28.2l-1.98-3.564a69.915,69.915,0,0,1-10.032.7,77.848,77.848,0,0,1-11.088-.792l1.32,4.84c2.068.132,3.344.176,5.984.176,3.344,0,4.884-.088,6.776-.22-1.672,1.54-3.432,3.124-4.444,4l3.036,3.168C77.594-22.968,80.982-25.828,84.414-28.2ZM86.482-2.068l-.308-5.28a61.437,61.437,0,0,1-13.6,1.408C65.1-5.94,64.79-7.172,64.79-8.4c0-1.584,1.76-3.124,2.464-3.7l-3.828-3.124c-1.32,1.188-4.268,3.828-4.268,7.788,0,4.444,4.224,6.292,14.168,6.292A107.4,107.4,0,0,0,86.482-2.068Zm49.632-32.076c0-.4-.352-.484-.88-.528l-4.8-.4V-3.96c0,1.144-.7,1.5-2.068,1.5a25.953,25.953,0,0,1-3.124-.264L127.4,2.2c6.028-.044,7.92-1.188,7.92-4.752V-33c0-.132.308-.44.572-.748C136.026-33.88,136.114-33.968,136.114-34.144Zm-9.68,2.948c0-.4-.4-.484-.836-.528l-4.8-.4V-7.348h4.752v-22.66c0-.176.22-.4.44-.572S126.434-30.932,126.434-31.2Zm-8.668,10.384v-4.4h-6.292V-30.8a22.025,22.025,0,0,0,4.224-1.012,11.928,11.928,0,0,0,1.408.308c.176,0,.352,0,.352-.264,0-.352-.44-.836-.572-.968l-3.036-3.3c-5.192,2.552-12.232,2.552-15,2.552l1.892,4c1.936-.088,3.74-.264,5.632-.528v4.8H98.582v4.4h6.556a27,27,0,0,1-2.9,7.04,31.577,31.577,0,0,1-4.972,6.38l4.444,2.332a34.31,34.31,0,0,0,4.664-7.04V2.024h5.1V-12.892a29.817,29.817,0,0,0,3.74,3.388l2.376-3.388a32.172,32.172,0,0,1-6.116-6.6v-1.32Zm59.4,18.744V-34.8H145.882c.4,4.62.572,9.24.572,13.86,0,11-.616,16.06-3.52,21.032l4.576,1.628c2.376-4.928,3.168-8.052,3.608-14.564h8.14V-.308h4.972v-12.54h7.92v8.712c0,1.232-.572,1.584-2.376,1.584a10.794,10.794,0,0,1-2.024-.176l2.42,4.8C177.122,1.584,177.166.264,177.166-2.068Zm-5.016-24.2h-7.92v-4.268h7.92Zm0,9.284h-7.92v-5.148h7.92Zm-12.892-9.284h-7.92c0-1.628,0-2.684-.044-4.268h7.964Zm0,9.284h-7.964c0-.88.044-1.32.088-5.148h7.876Zm64.724-3.036v-4.268h-9.416c1.408-1.716,2.992-3.96,3.3-4.444,1.408-2.376,1.54-2.42,2.156-2.508.88-.088,1.232-.176,1.232-.528a.682.682,0,0,0-.352-.528l-4.928-2.9a45.422,45.422,0,0,1-4.048,6.6v-3.168H206.91v-2.068c0-.264.352-.44.616-.572.176-.132.44-.264.44-.572,0-.176-.22-.352-.616-.352l-5.632-.22v3.784H190.234v4.136h11.484v3.344h-15.18v4.268h16.72a52.949,52.949,0,0,1-16.852,7.832l2.728,4.268c2.552-.968,3.7-1.408,5.676-2.244V2.288h4.752V1.144h14.916v.924h4.84V-16.324H206.294a46.25,46.25,0,0,0,4.4-3.7Zm-9.5,10.34H199.562v-2.86h14.916Zm0,6.908H199.562V-5.9h14.916Zm-3.344-24.86a32.047,32.047,0,0,1-2.86,3.344H206.91v-3.344ZM263.362-9.02a18.236,18.236,0,0,0-2.9-9.548l-4.092,2.156a13.511,13.511,0,0,1,1.98,6.556c0,5.324-4.444,6.864-8.052,6.864a5.922,5.922,0,0,1-4.136-1.32,5.25,5.25,0,0,1-1.408-3.872,26.61,26.61,0,0,1,.528-4.048c1.188.088,2.244.22,3.916.22,2.156,0,3.52-.132,4.18-.176l1.144-4.84a28.6,28.6,0,0,1-5.192.352,16.944,16.944,0,0,1-2.9-.132c.792-2.816,1.32-4.4,1.848-5.9a40.532,40.532,0,0,0,6.468.352L255.75-27.1c-2.552.044-3.564.044-5.764-.044a45.741,45.741,0,0,1,2.332-5.148c.7-.22,1.32-.088,1.32-.616,0-.484-.66-.7-1.012-.836l-5.06-1.892c-.616,2.244-1.276,4.092-2.6,7.92a33.567,33.567,0,0,1-7.48-2.2l-.4,5.1c2.508.66,3.652.88,6.38,1.408-.968,2.86-1.364,4.312-1.8,5.852a31.3,31.3,0,0,1-5.94-1.672l-.748,4.84a34.735,34.735,0,0,0,5.544,1.452A30.235,30.235,0,0,0,240-7.964c0,8.1,6.38,9.592,10.648,9.592C256.19,1.628,263.362-1.408,263.362-9.02Zm-376.046,68c-2.9-.7-4.928-1.628-5.764-2.508h5.324V52.864h-22.748a11.033,11.033,0,0,0,1.188-1.628h17.468V40.016h-6.644V38.168h10.824V34.692H-123.86v-.616c0-.132.044-.264.4-.484.4-.308.44-.528.44-.7,0-.484-.528-.528-.88-.528l-4.84-.132v2.464h-6.644c0-.7,0-.836.528-1.276.132-.132.352-.352.352-.528,0-.264-.264-.572-1.056-.616l-4.752-.264v2.684h-10.692v3.476h10.692v1.848h-6.336v11.22h6.688a17.949,17.949,0,0,1-1.32,1.628h-9.724v3.608h5.9a22.6,22.6,0,0,1-5.676,3.432l2.728,3.168a26.852,26.852,0,0,0,3.476-1.98v1.364h6.028c-2.156,2.156-4.576,3.7-11.044,3.828l2.816,4.18a20.544,20.544,0,0,0,9.416-3.168,13.026,13.026,0,0,0,4.356-4.84h7c-.4,2.816-1.188,3.476-2.464,3.476a27.36,27.36,0,0,1-3.96-.528l2.112,4.928c5.632-.088,7.48-.264,8.58-4.4a36,36,0,0,0,1.144-5.588,27.3,27.3,0,0,0,4.884,2.332Zm-9.328-14.652h-19.844V42.744h19.844Zm-6.732-4.312h-6.644V38.168h6.644Zm6.732,8.448h-19.844V46.792h19.844Zm-1.364,10.208H-132a15.353,15.353,0,0,0,.352-2.2h5.412A18.415,18.415,0,0,0-123.376,58.672Zm-12.8-2.2a12.117,12.117,0,0,1-.352,2.2h-4.8a32.917,32.917,0,0,0,2.464-2.2Zm66.924,9.9c-4.224-.792-8.976-2.6-12.188-5.324h12.056v-3.52h-16.06V55.24h14.7V51.764h-14.7V49.74h11.44V46.792h-11.44v-1.98h11.44v-3.08h-11.44V39.84h13.992V36.584H-84.964a17.688,17.688,0,0,0,1.5-2.508c.088-.176.176-.264.616-.4.308-.132.528-.22.528-.44,0-.352-.88-.44-1.012-.44l-4.752-.44a17.827,17.827,0,0,1-2.332,4.224h-6.2a21.559,21.559,0,0,0,1.408-2.112c.088-.176.132-.264.528-.44.176-.088.4-.176.4-.4,0-.176-.176-.4-.924-.572l-4.18-1.1a24.094,24.094,0,0,1-3.52,5.676,18.468,18.468,0,0,1-5.1,5.06l3.432,2.86a20.729,20.729,0,0,0,2.948-2.816v12.5H-90.6v2.288h-15.972v3.52h11.044a16.186,16.186,0,0,1-5.588,4.092,22.356,22.356,0,0,1-6.38,2.156l3.212,3.388A33.048,33.048,0,0,0-90.6,62.544V70.42h5.148V62.808a26.526,26.526,0,0,0,6.82,4.752,22.422,22.422,0,0,0,6.6,2.64ZM-90.6,46.792h-6.512v-1.98H-90.6Zm0-5.06h-6.512V39.84H-90.6Zm0,10.032h-6.512V49.74H-90.6Zm62.436,5.5L-32.472,53.7c-4.312,8.448-10.208,9.988-12.672,9.988a4.243,4.243,0,0,1-3.872-1.848c-.836-1.5-.836-5.764-.836-7.788a166.3,166.3,0,0,1,1.232-17.6c.7-.572,1.232-.924,1.232-1.276,0-.264-.4-.572-1.452-.7l-5.852-.836c.132,2.948-.22,16.016-.22,18.7,0,10.56.7,12.8,2.772,14.608a9.787,9.787,0,0,0,6.424,2.244,15.9,15.9,0,0,0,8.756-2.816C-32.6,63.556-29.964,59.772-28.16,57.264ZM15.708,39.18V33.9c-8.58,2.508-21.736,4-32.076,4.092l.88,5.192A168.246,168.246,0,0,1,1.276,41.292C-.792,43.228-7.26,49.3-7.26,56.824c0,9.812,11,12.1,14.564,12.848l1.54-5.544a13.06,13.06,0,0,1-7.656-2.112,7.539,7.539,0,0,1-3.256-6.16c0-4.4,3.652-9.284,7.524-12.408C10.252,39.576,13.816,39.356,15.708,39.18Zm46.684,17.6a37.405,37.405,0,0,0-7.216-18.7l-4.532,2.2a40.917,40.917,0,0,1,6.468,17.864Zm-19.4-.66-3.652-3.256c-.836,2.112-2.64,6.776-4.224,6.776-.88,0-2.992-1.584-2.992-10.164a45.61,45.61,0,0,1,.836-9.812c.748-.264,1.276-.44,1.276-.924,0-.528-.7-.748-1.012-.836l-4.84-1.32a42.853,42.853,0,0,0-1.32,11.44c0,8.36,1.408,13.508,4.488,16.5A4.8,4.8,0,0,0,34.8,65.976C38.368,65.976,40.568,61.312,42.988,56.12ZM101.9,62.852A36.579,36.579,0,0,0,90.772,57.88c-.132-2.6-.132-3.036-.22-5.236a94.58,94.58,0,0,0,9.416-1.1v-4.8c-4.048.748-5.676,1.012-9.5,1.5V43.052c2.2-.044,6.292-.132,11.176-.132l.176-4.664c-4.136.308-5.632.4-11.264.66.044-2.288.088-3.124.088-3.168a1.43,1.43,0,0,1,.572-.792c.484-.4.572-.44.572-.616,0-.308-.264-.44-1.1-.528l-5.368-.528.132,5.852c-3.916.088-6.292.176-11.308.176l.088,4.752c3.784-.44,6.292-.616,11.352-.836l.088,5.5a30.2,30.2,0,0,1-3.036.088c-.748,0-1.672,0-1.672-.616,0-.572.66-1.056,1.452-1.628L79.9,44.416c-1.716,1.232-4.708,3.3-4.708,5.456,0,1.716,2.024,3.168,6.072,3.168,1.276,0,3.7-.088,4.488-.132l.088,4.224-1.232-.044c-9.9-.352-10.34,4.752-10.34,6.028,0,3.564,3.784,5.72,9.856,5.72,5.632,0,6.688-1.76,6.864-6.248a33.168,33.168,0,0,1,8.052,4.356Zm-16.016-1.54c.044,2.464-.132,3.256-2.992,3.256-.528,0-3.344,0-3.344-1.5,0-1.144,1.408-1.892,4.268-1.892A11.39,11.39,0,0,1,85.888,61.312Zm62.656-18.788V37.772c-4.488.352-5.852.484-11.968.836V34.076c0-.176.044-.264.352-.528s.4-.4.4-.66c0-.44-.264-.572-1.276-.616l-4.884-.308c.264,3.212.264,5.544.308,6.908-9.24.44-13.024.44-16.016.44v5.1c5.588-.7,12.232-1.1,16.148-1.32l.088,3.3a5.8,5.8,0,0,0-2.068-.352c-4.488,0-6.908,3.344-6.908,8.184A7.874,7.874,0,0,0,125,60.344a5.54,5.54,0,0,0,3.608,1.364,8.848,8.848,0,0,0,2.376-.44c-.968,3.212-3.652,5.5-6.292,7.216l4.928,2.552a30.526,30.526,0,0,0,5.984-8.184,19.729,19.729,0,0,0,2.244-8.492,11.348,11.348,0,0,0-1.276-5.368v-6.16C142.3,42.612,145.2,42.524,148.544,42.524ZM132.528,53.656c0,3.124-2.112,4.092-3.036,4.092-1.012,0-2.42-1.012-2.42-3.652,0-2.332,1.232-3.872,2.992-3.872a2.29,2.29,0,0,1,1.628.616A4.1,4.1,0,0,1,132.528,53.656Z" transform="translate(667 6973)"/><g class="c" transform="translate(381 6925)"><rect class="d" width="156" height="61"/><rect class="e" x="0.4" y="0.4" width="155.2" height="60.2"/></g><path class="b" d="M-26.708-4.444c.132-2.464.176-6.38.176-10.516,0-4.972-.088-10.252-.176-13.42a5.37,5.37,0,0,0-5.368-5.148c-2.684-.088-6.864-.132-11.088-.132-4.708,0-9.5.044-12.32.132-3.3.132-5.412,1.98-5.5,4.8-.088,2.948-.176,7.832-.176,12.584,0,4.708.088,9.328.176,11.836.132,3.256,2.024,5.148,5.852,5.324,2.728.132,6.468.22,10.34.22,4.532,0,9.24-.088,12.628-.22A5.512,5.512,0,0,0-26.708-4.444Zm-4.268-1.584c-.088,1.892-.836,3.036-3.3,3.124-2.508.088-5.984.132-9.46.132s-6.952-.044-9.46-.132c-2.728-.088-3.564-.484-3.7-2.992-.132-2.112-.176-5.72-.176-9.416,0-4.532.088-9.152.176-11.44.088-2.244.748-2.9,3.256-2.992,1.672-.044,4.62-.088,7.876-.088,3.96,0,8.36.044,11.66.088,2.156.044,2.992.484,3.124,2.992.132,2.288.176,6.38.176,10.428C-30.8-12.32-30.844-8.272-30.976-6.028Zm-4.708-6.116c.088-1.1.132-2.464.132-3.872,0-1.8-.044-3.7-.132-5.192-.088-2.112-2.2-3.388-3.96-3.476-1.364-.044-3.212-.088-5.06-.088-1.452,0-2.9.044-3.96.088A3.832,3.832,0,0,0-52.272-20.9c-.044,1.32-.044,2.9-.044,4.444,0,1.584,0,3.124.044,4.4a3.966,3.966,0,0,0,3.7,4c1.188.044,2.772.088,4.356.088,1.628,0,3.212-.044,4.444-.088A4.3,4.3,0,0,0-35.684-12.144Zm-8.1.572c-3.564,0-4.576-.044-4.664-1.364-.044-.924-.044-2.156-.044-3.344,0-1.232,0-2.508.044-3.476a1.438,1.438,0,0,1,1.364-1.408c.7-.044,1.8-.044,2.9-.044,1.144,0,2.288,0,3.036.044a1.488,1.488,0,0,1,1.5,1.364c.044,1.056.088,2.552.088,4C-39.556-11.616-39.556-11.572-43.78-11.572ZM12.628-24.6c0-1.848-3.608-4.224-4.84-4.224A1.905,1.905,0,0,0,5.808-27.1a1.524,1.524,0,0,0,.7,1.232,10.088,10.088,0,0,1,2.728,2.6,1.437,1.437,0,0,0,1.276.748A2.162,2.162,0,0,0,12.628-24.6Zm4.312-4.972a1.678,1.678,0,0,0,1.8-1.672,1.678,1.678,0,0,0-1.8-1.672H6.38a3.409,3.409,0,0,0,.836-1.716A2.189,2.189,0,0,0,5.1-36.652a1.555,1.555,0,0,0-1.32.748,17.667,17.667,0,0,1-5.148,5.676,1.712,1.712,0,0,0,.308-1.012,1.639,1.639,0,0,0-1.76-1.672h-6.2a4.023,4.023,0,0,0,.308-.616,1.787,1.787,0,0,0,.22-.924,2.259,2.259,0,0,0-2.244-2.112,1.607,1.607,0,0,0-1.54,1.012,23.649,23.649,0,0,1-6.292,8.624,1.961,1.961,0,0,0-.748,1.452,2.17,2.17,0,0,0,2.2,1.936,2.232,2.232,0,0,0,1.54-.616,26.393,26.393,0,0,0,4.532-5.412h8.228a2.324,2.324,0,0,0,.572-.044,1.626,1.626,0,0,0-.792,1.364,1.986,1.986,0,0,0,2.024,1.8c1.452,0,4.268-2.816,4.576-3.124Zm2.684,16.236a1.972,1.972,0,0,0-1.276-1.8A51.386,51.386,0,0,1,4-24.6,6.2,6.2,0,0,0-.22-26.356a5.392,5.392,0,0,0-4,1.8c-3.344,3.74-8.888,8.316-13.992,10.56a2.166,2.166,0,0,0-1.364,1.936,2.072,2.072,0,0,0,2.068,2.112C-15.4-9.944-6.688-16.06-1.276-22c.484-.528.88-.792,1.276-.792a2.211,2.211,0,0,1,1.408.836c6.116,5.9,13.684,10.868,15.84,10.868A2.341,2.341,0,0,0,19.624-13.332ZM-7.612-22.7a2.107,2.107,0,0,0,2.024-2.024c0-1.76-2.992-3.872-4.4-3.872a1.872,1.872,0,0,0-1.98,1.672,1.4,1.4,0,0,0,.7,1.188,7.678,7.678,0,0,1,2.332,2.288A1.456,1.456,0,0,0-7.612-22.7ZM5.5-13.9a1.784,1.784,0,0,0,1.936-1.76A1.825,1.825,0,0,0,5.5-17.512H-4.972a1.825,1.825,0,0,0-1.936,1.848A1.784,1.784,0,0,0-4.972-13.9Zm6.38,11.88c.044-.7.088-1.452.088-2.244,0-.924-.044-1.892-.088-2.684-.088-1.8-1.892-3.564-4.444-3.608-2.684-.044-5.72-.088-8.536-.088-2.332,0-4.488.044-6.248.088-4.488.132-4.752,3.08-4.752,6.2,0,3.168.22,6.292,4.84,6.424q3.5.132,7.128.132c2.42,0,4.884-.044,7.348-.132A4.5,4.5,0,0,0,11.88-2.024ZM5.72-1.5c-1.848.044-3.872.044-5.9.044s-4,0-5.72-.044c-1.76-.088-1.936-.968-1.936-2.64s0-2.948,1.892-3.036C-4.048-7.216-1.716-7.26.528-7.26c6.248,0,6.908,0,7,1.584a10.732,10.732,0,0,1,.044,1.232C7.568-2.156,7.3-1.584,5.72-1.5Zm54.648-17.38a1.782,1.782,0,0,0,1.98-1.8A1.962,1.962,0,0,0,60.324-22.7l-7.48.044c.924-.924,7.172-7.348,7.172-9.064a2.474,2.474,0,0,0-2.376-2.288,1.868,1.868,0,0,0-1.584.924,50.487,50.487,0,0,1-8.8,10.428H44v-4.4h6.16a1.813,1.813,0,0,0,1.98-1.848,1.88,1.88,0,0,0-1.98-1.936L44-30.8l.044-3.652A1.961,1.961,0,0,0,41.888-36.3a1.9,1.9,0,0,0-2.112,1.848V-30.8l-8.052-.044a2,2,0,0,0-2.112,1.98,1.852,1.852,0,0,0,2.112,1.8h8.052l.044,4.4L27.808-22.7A2.045,2.045,0,0,0,25.7-20.636c0,.88.616,1.76,2.068,1.76h.044l15-.176a56.264,56.264,0,0,1-16.984,8.184A2.176,2.176,0,0,0,24.068-8.8a2.036,2.036,0,0,0,2.068,2.068c1.452,0,8.36-3.168,10.164-4.136-.088,1.672-.132,3.74-.132,5.632,0,1.012,0,1.98.044,2.86C36.344.132,37.84,1.8,40.92,1.98c1.8.132,3.828.22,5.9.22,1.76,0,3.52-.088,5.192-.22a4.749,4.749,0,0,0,4.664-4.444c.088-1.32.132-2.816.132-4.356,0-1.76-.044-3.52-.132-4.928a4.389,4.389,0,0,0-4.444-3.784c-1.5-.088-3.256-.132-5.06-.132-1.012,0-2.024.044-2.992.044,1.54-1.056,3.08-2.2,4.532-3.388l11.616.132ZM40.172-8.844c0-2.244.528-3.212,2.112-3.256,1.364-.044,3.168-.044,4.84-.044,5.28,0,5.544,0,5.544,3.3ZM52.712-5.5c0,4.048-.44,4.048-6.248,4.048-5.632,0-6.248-.264-6.292-2.068,0-.66-.044-1.32-.044-1.98Z" transform="translate(459.5 6973)"/></g></svg>