<svg xmlns="http://www.w3.org/2000/svg" width="336.624" height="58.296" viewBox="0 0 336.624 58.296"><defs><style>.a{fill:#2f2f2f;}</style></defs><path class="a" d="M32.232,2.784A17.165,17.165,0,0,0,30.024.408L28.8,1.608A16.912,16.912,0,0,1,30.984,3.96Zm-2.52,1.464A20.559,20.559,0,0,0,27.5,1.872L26.28,3.048a18.578,18.578,0,0,1,2.184,2.376Zm.12,8.952-.384-2.664-7.008.912L21.912,8.4l5.232-.672L26.76,5.16l-5.3.7-.528-3.144c-.024-.1.072-.192.144-.24.216-.192.264-.24.264-.36,0-.336-.384-.336-.864-.312l-2.448.1.72,4.3-5.736.744L13.392,9.5l5.784-.744.528,3.048-7.728,1.008.36,2.64,7.8-1.008,1.32,7.68,2.76-.48-1.32-7.56ZM53.88,5.736,51.5,3.576a1.368,1.368,0,0,1-.792.384H37.152V6.768H49.92c-2.472,7.248-6.744,10.344-10.9,12.288l2.616,2.112a20.888,20.888,0,0,0,6.576-5.256A29.572,29.572,0,0,0,53.04,6.936,2.887,2.887,0,0,1,53.88,5.736Zm24.864,7.7A29.379,29.379,0,0,0,75,10.56a21.431,21.431,0,0,0-4.08-2.184l-1.128,1.776V3.84c0-.12.624-.5.624-.648,0-.288-.5-.36-.576-.384l-2.88-.5V21.312h2.832V10.944a24.432,24.432,0,0,1,7.056,4.8Zm26.544.528a12.354,12.354,0,0,1-4.368-2.016h3.6v-2.3H98.64a9.419,9.419,0,0,1-1.008-1.632h5.352V5.736H99.216c.648-1.008.936-1.488,1.392-2.3.192-.312.192-.336.6-.432.072-.024.168-.048.168-.192,0-.192-.24-.336-.408-.408l-2.3-.864a25.832,25.832,0,0,1-1.872,4.2H94.584A20.925,20.925,0,0,0,95.16,3a.7.7,0,0,1,.384-.624c.216-.144.264-.192.264-.336,0-.24-.216-.288-.552-.312l-2.832-.24A14.126,14.126,0,0,1,91.8,5.736H89.376l1.44-1.1a15.178,15.178,0,0,0-2.4-3.048L86.3,2.9a12.888,12.888,0,0,1,2.184,2.832H85.68v2.28h5.184c-.312.576-.624,1.08-.984,1.632H84.12v2.3h3.744a15.091,15.091,0,0,1-4.416,2.808l2.208,1.848a23.956,23.956,0,0,0,2.976-1.848v1.3h3.24c-.816,2.136-3.384,3.7-6.912,3.768l1.488,2.52A9.8,9.8,0,0,0,94.9,16.056H98.04c-.216,2.4-.384,3.6-1.824,3.6a8.832,8.832,0,0,1-1.536-.168l.888,2.76c1.248-.024,2.856-.1,3.864-1.3,1.152-1.344,1.272-5.256,1.3-6.144A16.186,16.186,0,0,0,103.3,16.2Zm-9.456-4.32h-2.76a14.959,14.959,0,0,0,.744-1.632h1.176A11.875,11.875,0,0,0,95.832,9.648ZM99.216,13.7H89.9a14.11,14.11,0,0,0,1.632-1.752h5.928A17.227,17.227,0,0,0,99.216,13.7Zm27.816,4.464a22.043,22.043,0,0,0-4.128-2.184,23.78,23.78,0,0,1-.312-3.336,2.2,2.2,0,0,1,.912-1.92l-2.5-1.344a3.626,3.626,0,0,0-1.032,2.448c0,.5.288,2.952.336,3.5a12.112,12.112,0,0,0-1.872-.144c-3.312,0-4.248,2.112-4.248,3.408a2.717,2.717,0,0,0,.888,2.04,5.7,5.7,0,0,0,3.912,1.128c3.144,0,3.864-1.008,4.08-2.928a13.211,13.211,0,0,1,2.376,1.584Zm-6.6-.432c0,.864.024,1.872-1.92,1.872-1.32,0-1.992-.552-1.992-1.08,0-.48.576-1.152,1.824-1.152A8.06,8.06,0,0,1,120.432,17.736Zm7.272-9.6a11.861,11.861,0,0,0-5.352-2.208l-1.08,2.064a16.987,16.987,0,0,1,5.256,2.184Zm-7.152-1.248V4.2c-.624.216-1.344.456-2.76.816.1-.312.552-1.848.576-1.872.144-.144.552-.288.552-.528,0-.264-.456-.384-.576-.408l-2.616-.576a22.9,22.9,0,0,1-.864,3.96,31.949,31.949,0,0,1-4.08.312l.36,2.5c1.128-.072,1.8-.144,2.9-.288a41.167,41.167,0,0,1-4.1,8.736l2.568,1.1a58.532,58.532,0,0,0,4.44-10.3C118.992,7.3,119.736,7.1,120.552,6.888Zm31.872-4.44A13.209,13.209,0,0,0,150.768.36l-1.248.84a13.974,13.974,0,0,1,1.632,2.112Zm-2.88,1.2a12.19,12.19,0,0,0-1.656-2.088l-1.224.936A14.274,14.274,0,0,1,148.3,4.584Zm.6,17.16V17.856a29.143,29.143,0,0,1-7.176,1.056c-2.5,0-4.392-.576-4.392-2.52,0-1.44,1.2-2.5,2.76-3.5a33.052,33.052,0,0,1,8.736-3.744l-.888-2.76c-2.712,1.2-4.512,2.088-5.928,2.784a3.119,3.119,0,0,1-1.344-1.536c-.648-1.464-.672-4.416-.672-5.736l-3.024.456c.216,1.176.888,5.232,1.224,6.048a5.384,5.384,0,0,0,1.464,1.992c-2.448,1.44-4.92,2.952-4.92,6.048a4.493,4.493,0,0,0,2.448,4.08,12.168,12.168,0,0,0,5.088.864A45.84,45.84,0,0,0,150.144,20.808Zm25.488-14.16V3.864a16.765,16.765,0,0,1-5.688.984,21.14,21.14,0,0,1-3.072-.264v2.64c1.272.12,2.376.12,2.568.12A32.233,32.233,0,0,0,175.632,6.648Zm1.152,12.6V16.272a19.578,19.578,0,0,1-5.472.744c-2.424,0-2.664-.648-2.688-2.928l-2.616.36c.072,4.056.984,5.232,5.352,5.232A32.8,32.8,0,0,0,176.784,19.248Zm-12.552-4.272-1.416-.768c-.528.936-.672,1.176-.96,1.68a13.2,13.2,0,0,1-.336-3.288c0-3.624,1.032-7.968,1.392-8.184.048-.024.36-.144.408-.168a.284.284,0,0,0,.12-.216c0-.192-.456-.36-.624-.432l-2.448-.888a47.3,47.3,0,0,0-1.008,5.472,42.453,42.453,0,0,0-.36,4.728,20.909,20.909,0,0,0,.984,6.312,7.346,7.346,0,0,0,.888,1.9l1.9-.744A21.293,21.293,0,0,1,164.232,14.976Zm38.256-9.384V3.36h-8.712V2.472c0-.144,0-.144.384-.456a.276.276,0,0,0,.12-.216c0-.264-.36-.288-.72-.312l-2.88-.1V3.36h-8.64V5.592H189a4.5,4.5,0,0,1-.888,2.856,6.3,6.3,0,0,1-3.336,1.92l1.44,2.256a10.426,10.426,0,0,0,1.824-.84,15.3,15.3,0,0,1-6.24,4.368l2.064,1.992a14.723,14.723,0,0,0,4.056-2.5A14.7,14.7,0,0,0,190.056,18a19.059,19.059,0,0,1-7.656,2.088l1.368,2.448a25.844,25.844,0,0,0,8.448-2.928,18.628,18.628,0,0,0,8.448,2.712l1.272-2.616a21.786,21.786,0,0,1-3.7-.408,14.683,14.683,0,0,1-3.768-1.248,21.731,21.731,0,0,0,4.368-4.68l-.7-.816h-7.032a4.1,4.1,0,0,0,.552-.312.3.3,0,0,0,.12-.216c0-.168-.192-.264-.312-.336L189.5,10.656A6.725,6.725,0,0,0,191.5,5.592h1.944V8.856c0,.672-.144.792-.648.792h-1.368l1.032,2.424h.624c1.464,0,2.832-.456,2.832-1.8V5.592ZM194.16,14.76a10.38,10.38,0,0,1-2.016,1.92,8.369,8.369,0,0,1-1.872-1.92Zm8.016-5.376a18.337,18.337,0,0,0-3.144-3.408L196.9,7.632a13.521,13.521,0,0,1,2.976,3.48ZM187.368,7.656c0-.072,0-.12-.264-.336l-2.088-1.656a9,9,0,0,1-3.384,3.12l2.088,1.872a10.728,10.728,0,0,0,1.536-1.248c.456-.456,1.008-.984,1.464-1.512C187.32,7.848,187.368,7.848,187.368,7.656ZM213.7,22.488c3.216-1.416,4.344-2.328,5.616-4.512a12.814,12.814,0,0,0,5.976,4.536l1.968-2.4c-3.456-1.008-4.608-2.064-5.808-3.552h5.616V14.28h-.888V6.552H222.36A28.889,28.889,0,0,0,225.168,3.7l-1.392-.96h-4.032l.216-.264c.552-.1.768-.144.768-.384,0-.144-.072-.24-.864-.36l-2.28-.336a10.817,10.817,0,0,1-4.248,3.6l2.256,1.536a15.915,15.915,0,0,0,2.376-1.9h2.808a11.091,11.091,0,0,1-1.728,1.92H213.84V14.28h-1.512v2.28h4.944c-1.128,1.728-2.448,2.688-5.52,3.768Zm2.5-10.176.96.72a6.033,6.033,0,0,0,2.112-3.048c.312-.12.456-.192.456-.36,0-.048,0-.264-.336-.384l-1.44-.552h1.92V10.92a1.219,1.219,0,0,0,1.224,1.344h1.488c.624,0,.864-.24,1.248-.792V14.28h-3.216c.048-.216.048-.24.12-.528.168-.144.456-.384.456-.648,0-.24-.6-.288-.816-.288l-2.232-.12a10.786,10.786,0,0,1-.144,1.584h-1.8Zm1.272-3.624a3.413,3.413,0,0,1-1.272,2.3v-2.3Zm5.592.792c-.24.6-.48,1.152-.792,1.152s-.336-.312-.336-.576V8.688h1.9V10.08Zm-16.584,4.7c.072.528.1.936.36.936.144,0,.24-.144.48-.48.1-.12.144-.216.24-.264.048-.024,1.176-.5,1.32-.576v4.9c0,.648-.24.816-.96.816a5.93,5.93,0,0,1-1.44-.192l1.2,3c1.08,0,3.912-.048,3.912-2.04V12.792c.72-.264.816-.312,1.56-.6V9.72c-.912.336-1.128.432-1.56.576V7.488h1.656v-2.3h-1.656V2.64c0-.1.336-.384.48-.5a.49.49,0,0,0,.192-.36c0-.216-.12-.264-1.008-.288l-2.376-.072V5.184H206.52v2.3h2.352v3.624c-.936.288-1.752.528-2.664.768Zm44.76-9.456V2.208H231.168v2.52H245.88V18.6c0,.744-.216,1.1-1.032,1.1A16.68,16.68,0,0,1,243,19.512l1.08,2.76h2.256c1.656,0,2.4-1.1,2.4-2.64V4.728ZM242.52,16.92V7.752h-8.928v11.04h2.688V16.92Zm-2.784-2.5H236.28V10.248h3.456Zm24.792,5.808V8.976h-8.3V22.008h2.544V17.472h3.24V19.08c0,.432-.216.672-.5.7-.24.048-1.32,0-1.56,0l.888,2.232h1.7A1.752,1.752,0,0,0,264.528,20.232Zm-2.52-7.848h-3.24V11.016h3.24Zm0,3.264h-3.24V14.232h3.24Zm14.112-8.16L273.744,6.36c-.456,2.184-.744,2.208-1.152,2.208h-3.1c-.408,0-.7-.144-.7-.6V7.224a38.321,38.321,0,0,0,4.56-2.28c.528-.312.6-.336.792-.336.072,0,.408.024.48.024.1,0,.192,0,.192-.144,0-.168-.24-.432-.312-.5l-1.68-1.7A11.851,11.851,0,0,1,268.8,4.728V2.856c0-.1.048-.168.216-.264.1-.048.216-.144.216-.264,0-.192-.144-.264-.528-.312l-2.568-.264V9.1c0,1.344.936,1.752,2.808,1.752h4.56a1.979,1.979,0,0,0,1.848-1.224A8.415,8.415,0,0,0,276.12,7.488Zm0,10.656-2.184-1.08a4.167,4.167,0,0,1-.48,1.488c-.24.456-.336.576-.864.576h-3.1c-.408,0-.7-.144-.7-.6v-.984a36.05,36.05,0,0,0,5.472-3.432.787.787,0,0,1,.456-.1c.312,0,.408,0,.408-.192,0-.168-.192-.36-.336-.48l-1.848-1.488a20.243,20.243,0,0,1-4.152,3.1V12.72c0-.072.048-.144.216-.264.1-.048.216-.144.216-.24,0-.24-.264-.312-.528-.336l-2.424-.264v8.136c0,1.368.84,1.752,2.664,1.752h4.56C274.656,21.5,275.544,20.712,276.12,18.144ZM265.728,7.464a19.7,19.7,0,0,0-2.352-4.248l-1.992.912c.288.552.384.7.5.912a21,21,0,0,1-2.256.288A28.743,28.743,0,0,0,260.9,2.736c.024-.048.072-.1.312-.144.1-.024.312-.072.312-.216,0-.168-.24-.24-.576-.312l-2.544-.576a31.437,31.437,0,0,1-1.3,4.056c-.6.048-1.056.1-2.208.12l.648,2.256c.024.1.12.408.36.408.072,0,.336-.264.408-.288a13.156,13.156,0,0,1,1.536-.216c.48-.048,3.7-.5,5.04-.72a14.862,14.862,0,0,1,.624,1.464Zm32.664,10.7a22.044,22.044,0,0,0-4.128-2.184,23.781,23.781,0,0,1-.312-3.336,2.2,2.2,0,0,1,.912-1.92l-2.5-1.344a3.626,3.626,0,0,0-1.032,2.448c0,.5.288,2.952.336,3.5a12.111,12.111,0,0,0-1.872-.144c-3.312,0-4.248,2.112-4.248,3.408a2.717,2.717,0,0,0,.888,2.04,5.7,5.7,0,0,0,3.912,1.128c3.144,0,3.864-1.008,4.08-2.928a13.212,13.212,0,0,1,2.376,1.584Zm-6.6-.432c0,.864.024,1.872-1.92,1.872-1.32,0-1.992-.552-1.992-1.08,0-.48.576-1.152,1.824-1.152A8.059,8.059,0,0,1,291.792,17.736Zm7.272-9.6a11.861,11.861,0,0,0-5.352-2.208l-1.08,2.064a16.986,16.986,0,0,1,5.256,2.184Zm-7.152-1.248V4.2c-.624.216-1.344.456-2.76.816.1-.312.552-1.848.576-1.872.144-.144.552-.288.552-.528,0-.264-.456-.384-.576-.408l-2.616-.576a22.9,22.9,0,0,1-.864,3.96,31.949,31.949,0,0,1-4.08.312l.36,2.5c1.128-.072,1.8-.144,2.9-.288a41.167,41.167,0,0,1-4.1,8.736l2.568,1.1a58.533,58.533,0,0,0,4.44-10.3C290.352,7.3,291.1,7.1,291.912,6.888ZM323.9,9.936V7.2h-4.032V3.576c.048-.12.1-.168.264-.312.144-.12.216-.192.216-.288,0-.288-.552-.36-.744-.384l-2.472-.336c.048,1.512.048,3.12.048,4.944h-4.536V3.84c0-.12.048-.168.312-.36.144-.1.192-.144.192-.24,0-.24-.168-.264-.72-.336l-2.64-.288V7.2h-4.44V9.936h4.44v5.5h2.856v-5.5h4.536c-.1,5.376-1.464,7.824-5.808,10.2l1.968,1.872c4.656-2.832,6.24-5.232,6.5-12.072Zm13.272-3.96A22.385,22.385,0,0,0,332.136,3l-1.464,2.256a21.686,21.686,0,0,1,4.92,3.024Zm11.424,2.5-1.656-2.4a33.477,33.477,0,0,1-7.032,7.344,22.471,22.471,0,0,1-8.9,4.152l1.68,2.88c.168.312.384.456.528.456.192,0,.24-.408.36-.744a32.274,32.274,0,0,0,9.048-5.352A33.743,33.743,0,0,0,348.6,8.472ZM53.64,42.792,51.7,40.512a2.42,2.42,0,0,1-1.056.456H45.264c.24-.456.528-.936.672-1.3.336-.1.6-.144.6-.336,0-.24-.48-.456-.624-.5L43.44,37.9a20.9,20.9,0,0,1-6.624,9.216l2.376,1.632a33.205,33.205,0,0,0,4.56-5.352H49.9A19.131,19.131,0,0,1,46.728,49.7a20.921,20.921,0,0,1-7.512,6.264l2.616,1.8a23.318,23.318,0,0,0,6.5-5.688,28.19,28.19,0,0,0,4.272-8.136A2.5,2.5,0,0,1,53.64,42.792ZM78.96,54.12a47.968,47.968,0,0,0-6.36-5.928,28.99,28.99,0,0,0,2.784-5.376,3.325,3.325,0,0,1,1.3-1.44l-1.848-2.04a2.275,2.275,0,0,1-1.248.528H63.24v2.784h9.144A19.184,19.184,0,0,1,68.3,49.2a21.284,21.284,0,0,1-7.656,5.184l2.112,2.184A23.167,23.167,0,0,0,70.968,50.4a37.853,37.853,0,0,1,5.856,6Zm26.16-14.736a2.22,2.22,0,1,0-2.208,2.256A2.228,2.228,0,0,0,105.12,39.384Zm-.864,0a1.362,1.362,0,0,1-1.344,1.368,1.368,1.368,0,0,1,0-2.736A1.362,1.362,0,0,1,104.256,39.384Zm-.72,12.624a22.167,22.167,0,0,0-4.056-4.872L97.632,48.72a18.2,18.2,0,0,1,3.792,4.992Zm-.984-6.72V42.816H95.664V39.744c0-.12.12-.216.216-.264.216-.144.312-.216.312-.336,0-.216-.264-.288-.648-.336l-2.592-.336v4.344H85.968v2.472h6.984v8.448c0,.576-.12.768-.888.768a10.055,10.055,0,0,1-1.9-.192L91.08,57.1c4.008-.024,4.584-.408,4.584-2.64V45.288ZM91.464,49.08c0-.168-.36-.408-.456-.456l-1.968-1.3a17.611,17.611,0,0,1-4.848,5.4l2.472,1.536a20.966,20.966,0,0,0,4.1-4.776c.072-.1.1-.1.408-.192C91.32,49.272,91.464,49.224,91.464,49.08Zm34.848-8.856c0-.192-.312-.5-.408-.576l-2.088-1.728a37.26,37.26,0,0,1-13.92,10.2l2.088,2.136a43.032,43.032,0,0,0,6.048-3.408v10.56h3V44.616a30.73,30.73,0,0,0,3.96-3.744c.336-.36.384-.408.744-.432C126.216,40.416,126.312,40.392,126.312,40.224Zm15.024,1.752A22.385,22.385,0,0,0,136.3,39l-1.464,2.256a21.687,21.687,0,0,1,4.92,3.024Zm11.424,2.5-1.656-2.4a33.477,33.477,0,0,1-7.032,7.344,22.472,22.472,0,0,1-8.9,4.152l1.68,2.88c.168.312.384.456.528.456.192,0,.24-.408.36-.744a32.274,32.274,0,0,0,9.048-5.352A33.742,33.742,0,0,0,152.76,44.472Zm23.9,4.968a29.378,29.378,0,0,0-3.744-2.88,21.431,21.431,0,0,0-4.08-2.184l-1.128,1.776V39.84c0-.12.624-.5.624-.648,0-.288-.5-.36-.576-.384l-2.88-.5V57.312h2.832V46.944a24.432,24.432,0,0,1,7.056,4.8Zm23.952-1.776-.816-2.736c-1.128.5-1.44.648-4.248,1.968a3.217,3.217,0,0,0-3.264-2.424,4.641,4.641,0,0,0-2.064.5c.408-.624.6-.96,1.368-2.376a50.518,50.518,0,0,0,5.736-.912L197.5,39a20.265,20.265,0,0,1-4.7,1.224c.12-.264.72-1.608.744-1.632.024,0,.5-.216.552-.24.144-.048.24-.12.24-.264,0-.168-.408-.216-.48-.24l-3-.528a18.613,18.613,0,0,1-1.2,3.192,33.757,33.757,0,0,1-4.584-.1l.288,2.5c1.008,0,1.752-.024,3.12-.1a31.91,31.91,0,0,1-4.728,6.6L186.1,50.88c1.32-2.16,2.76-4.344,5.112-4.344a1.663,1.663,0,0,1,1.824,1.584c-3.6,1.848-5.808,2.976-5.808,5.952a3.281,3.281,0,0,0,.912,2.352c1.512,1.608,4.3,1.608,5.64,1.608a39.719,39.719,0,0,0,5.712-.36V54.96a27.749,27.749,0,0,1-6.12.768c-1.752,0-3.6-.312-3.6-1.872,0-1.68,2.5-2.928,3.408-3.384-.024,1.056-.048,2.232-.12,3.6h2.784c0-.816-.048-3.792-.048-4.728C197.568,48.672,198.72,48.264,200.616,47.664Zm26.16,1.08V41.112H223.9c.384-.432,1.032-1.248,1.584-1.92.312-.048.768-.12.768-.36,0-.168-.168-.288-.312-.336l-2.544-1.08a24.06,24.06,0,0,1-2.448,3.7h-2.5l1.3-.936a12.981,12.981,0,0,0-2.736-2.856l-2.184,1.416a12.247,12.247,0,0,1,2.352,2.376h-2.952v7.632Zm-13.2,3.7V38.04h-6.5v14.4h.888a14,14,0,0,1-2.064,4.536l2.4,1.176a18.894,18.894,0,0,0,1.872-4.032,1.1,1.1,0,0,1,.336-.24.276.276,0,0,0,.144-.216c0-.1-.048-.168-.312-.288l-2.04-.936ZM224.4,44.016h-2.712V42.744H224.4Zm0,3.024h-2.712V45.6H224.4Zm-5.208-3.024H216.6V42.744h2.592Zm0,3.024H216.6V45.6h2.592Zm-7.776-.888h-2.28V44.208h2.28Zm0-4.008h-2.28v-1.92h2.28Zm0,8.136h-2.28V48.144h2.28ZM225.648,58.1V49.7H214.992v8.448h2.5V57.48h5.592V58.1Zm-2.568-5.472h-5.592V51.576h5.592Zm0,3h-5.592V54.36h5.592Zm-8.184.024a8.335,8.335,0,0,1-1.9-3.072l-2.088,1.032a10.644,10.644,0,0,0,1.824,3.5ZM249.744,45.5V38.112H232.656V45.5ZM251.472,57.7V55.32h-8.736V53.376H248.9v-2.16h-6.168V49.464h8.016V47.256h-19.1v2.208h7.944v1.752H233.52v2.16h6.072V55.32H230.88V57.7Zm-4.656-14.4H235.584V40.44h11.232Zm27.5,7.848L271.968,49.2c-2.352,4.608-5.568,5.448-6.912,5.448a2.314,2.314,0,0,1-2.112-1.008c-.456-.816-.456-3.144-.456-4.248a90.715,90.715,0,0,1,.672-9.6c.384-.312.672-.5.672-.7,0-.144-.216-.312-.792-.384l-3.192-.456c.072,1.608-.12,8.736-.12,10.2,0,5.76.384,6.984,1.512,7.968a5.338,5.338,0,0,0,3.5,1.224,8.675,8.675,0,0,0,4.776-1.536A17.907,17.907,0,0,0,274.32,51.144Zm23.424,3.048a19.952,19.952,0,0,0-6.072-2.712c-.072-1.416-.072-1.656-.12-2.856a51.588,51.588,0,0,0,5.136-.6V45.408c-2.208.408-3.1.552-5.184.816V43.392c1.2-.024,3.432-.072,6.1-.072l.1-2.544c-2.256.168-3.072.216-6.144.36.024-1.248.048-1.7.048-1.728a.78.78,0,0,1,.312-.432c.264-.216.312-.24.312-.336,0-.168-.144-.24-.6-.288l-2.928-.288.072,3.192c-2.136.048-3.432.1-6.168.1l.048,2.592c2.064-.24,3.432-.336,6.192-.456l.048,3a16.471,16.471,0,0,1-1.656.048c-.408,0-.912,0-.912-.336,0-.312.36-.576.792-.888l-1.368-1.176c-.936.672-2.568,1.8-2.568,2.976,0,.936,1.1,1.728,3.312,1.728.7,0,2.016-.048,2.448-.072l.048,2.3-.672-.024c-5.4-.192-5.64,2.592-5.64,3.288,0,1.944,2.064,3.12,5.376,3.12,3.072,0,3.648-.96,3.744-3.408a18.091,18.091,0,0,1,4.392,2.376Zm-8.736-.84c.024,1.344-.072,1.776-1.632,1.776-.288,0-1.824,0-1.824-.816,0-.624.768-1.032,2.328-1.032A6.212,6.212,0,0,1,289.008,53.352ZM323.664,43.1V40.512c-2.448.192-3.192.264-6.528.456V38.5c0-.1.024-.144.192-.288s.216-.216.216-.36c0-.24-.144-.312-.7-.336l-2.664-.168c.144,1.752.144,3.024.168,3.768-5.04.24-7.1.24-8.736.24v2.784c3.048-.384,6.672-.6,8.808-.72l.048,1.8a3.166,3.166,0,0,0-1.128-.192c-2.448,0-3.768,1.824-3.768,4.464a4.3,4.3,0,0,0,1.248,3.336,3.022,3.022,0,0,0,1.968.744,4.826,4.826,0,0,0,1.3-.24,7.658,7.658,0,0,1-3.432,3.936l2.688,1.392a16.651,16.651,0,0,0,3.264-4.464,10.761,10.761,0,0,0,1.224-4.632,6.19,6.19,0,0,0-.7-2.928v-3.36C320.256,43.152,321.84,43.1,323.664,43.1Zm-8.736,6.072c0,1.7-1.152,2.232-1.656,2.232-.552,0-1.32-.552-1.32-1.992,0-1.272.672-2.112,1.632-2.112a1.249,1.249,0,0,1,.888.336A2.238,2.238,0,0,1,314.928,49.176Z" transform="translate(-11.976 -0.36)"/></svg>