<svg xmlns="http://www.w3.org/2000/svg" width="187.632" height="42.48" viewBox="0 0 187.632 42.48"><defs><style>.a{fill:#e0d5c8;}.b{fill:#2f2f2f;}</style></defs><g transform="translate(-581.396 -4708.912)"><path class="a" d="M-34.26-25.08v9.68h8.8v1.6h-8.8V0h-1.72V-26.68h10.76v1.6Zm21.48,7.2a9.433,9.433,0,0,1,3.68.72A9.83,9.83,0,0,1-6.08-15.2a9.071,9.071,0,0,1,2.04,2.9A8.6,8.6,0,0,1-3.3-8.76,8.538,8.538,0,0,1-4.06-5.2,9.437,9.437,0,0,1-6.1-2.28,9.523,9.523,0,0,1-9.12-.32a9.58,9.58,0,0,1-3.7.72,9.113,9.113,0,0,1-3.64-.74,9.688,9.688,0,0,1-3-2,9.4,9.4,0,0,1-2.02-2.94,8.831,8.831,0,0,1-.74-3.6,8.088,8.088,0,0,1,.76-3.44A9.414,9.414,0,0,1-19.4-15.2a9.9,9.9,0,0,1,3-1.96A9.186,9.186,0,0,1-12.78-17.88Zm0,1.48a7.579,7.579,0,0,0-2.98.6,8.131,8.131,0,0,0-2.5,1.64,7.789,7.789,0,0,0-1.7,2.4,6.862,6.862,0,0,0-.62,2.88,7.465,7.465,0,0,0,.62,3.02A8.175,8.175,0,0,0-18.3-3.38,7.752,7.752,0,0,0-15.84-1.7a7.465,7.465,0,0,0,3.02.62,7.78,7.78,0,0,0,3.06-.6,8.131,8.131,0,0,0,2.5-1.64,7.654,7.654,0,0,0,1.7-2.44,7.325,7.325,0,0,0,.62-3,7.092,7.092,0,0,0-.62-2.94,7.961,7.961,0,0,0-1.7-2.44,7.953,7.953,0,0,0-2.5-1.66A7.679,7.679,0,0,0-12.78-16.4ZM11.9,0H9.98L4.14-8.16h-.4V0H2.14V-17.72H5.1a10.9,10.9,0,0,1,2.3.2,4.73,4.73,0,0,1,1.66.72,4.323,4.323,0,0,1,1.42,1.64,4.939,4.939,0,0,1,.5,2.24A4.562,4.562,0,0,1,9.5-9.4a4.745,4.745,0,0,1-1.4.82,8.83,8.83,0,0,1-2.12.38ZM5.42-9.68a4.518,4.518,0,0,0,2.94-.84,2.979,2.979,0,0,0,1.02-2.44q0-3.24-4.2-3.24H3.74v6.52Zm13.04-9.28,7.72,16.4,7.8-16.4L36.22,0H34.58l-1.6-13.36L26.18.92,19.42-13.36,17.86,0h-1.6Z" transform="translate(676 4735.592)"/><path class="b" d="M81.6,15.72V13.848H80.26V11.064H72.82v-.912H78.7V5.736H72.82V4.9h8.688V2.832H72.82V2.376a.254.254,0,0,1,.144-.216c.216-.168.264-.192.264-.336s-.168-.192-.288-.216l-2.832-.36V2.832H61.4V4.9h8.712v.84H64.2v4.416h5.9v.912h-7.32v1.872h7.32v.912H61.4V15.72h8.712v1.032h-7.32v1.872h7.32v.72c0,.432-.36.552-.744.552-.408,0-1.08-.072-1.7-.12l1.2,2.616c3.36-.024,3.96-.648,3.96-2.04V18.624h4.92v.648h2.52V15.72Zm-5.376-7.2H72.82V7.368h3.408Zm-6.12,0H66.652V7.368h3.456Zm7.632,5.328H72.82v-.912h4.92Zm0,2.9H72.82V15.72h4.92ZM95.164,19.56V8.256H86.476V22.08H89.02V17.232h3.552v1.752c0,.408-.192.6-.672.6a11.261,11.261,0,0,1-1.584-.144l1.008,2.736C93.412,22.176,95.164,21.84,95.164,19.56Zm-2.592-7.872H89.02v-1.32h3.552Zm0,3.432H89.02V13.8h3.552Zm13.344-8.352V4.56h-5.472c.168-.216.888-1.44.96-1.488a4.545,4.545,0,0,1,.432-.144c.144-.048.192-.12.192-.216a.261.261,0,0,0-.168-.24l-3.048-.888A15.059,15.059,0,0,1,97.18,4.56h-4.7l.888-.432A29,29,0,0,0,91.4,1.464L88.78,2.616A19.368,19.368,0,0,1,90.268,4.56H85.156V6.768ZM105.1,8.28c0-.1-.12-.192-.288-.216l-2.976-.216V18.576c0,.648-.24.84-1.08.84-.5,0-.936-.048-1.44-.1l1.272,2.688c2.976-.024,4.032-.312,4.032-2.664V8.976c0-.072.168-.264.336-.408A.547.547,0,0,0,105.1,8.28Zm-4.992.36a.3.3,0,0,0-.312-.264L96.94,8.232V17.9h2.592V9.288c0-.1.048-.12.384-.36A.372.372,0,0,0,100.108,8.64Zm30.84,1.608a18.483,18.483,0,0,1-4.344-2.3c.672-.672,1.344-1.368,1.968-2.088.216-.24.264-.24.672-.264.12,0,.312,0,.312-.192,0-.12-.1-.216-.5-.432l-1.824-.96a21.241,21.241,0,0,1-2.3,2.472,6.177,6.177,0,0,1-.5-.576c.336-.384,1.8-2.088,2.112-2.448.072-.024.48-.072.552-.1.1,0,.192-.024.192-.168,0-.192-.288-.36-.48-.456L124.924,1.8a17.2,17.2,0,0,1-1.848,2.088,10.918,10.918,0,0,1-1.032-2.28l-2.424.768a15.315,15.315,0,0,0,3.1,5.136H116.6a15.707,15.707,0,0,0,2.736-4.368l-.792-.96h-7.2V4.392h4.32A9.177,9.177,0,0,1,114.2,6.456a12.257,12.257,0,0,0-2.3-1.728l-1.824,1.824a10.827,10.827,0,0,1,2.28,1.7,19.757,19.757,0,0,1-4.44,2.76l2.448,1.776a17.282,17.282,0,0,0,2.568-1.68V16.92h3.048l-1.44.432a21.048,21.048,0,0,1,.936,1.92h-5.832v2.352h19.752V19.272h-5.952c.216-.408.384-.792.576-1.224.288-.072.552-.12.552-.36,0-.264-.24-.312-.36-.336l-1.848-.432H126.1V10.752H113.38a19.62,19.62,0,0,0,2.184-2.088V9.792h8.3V8.76a18.224,18.224,0,0,0,4.848,3.552Zm-7.584,4.608h-7.7v-2.04h7.7Zm-1.68,2.064a9.747,9.747,0,0,1-1.08,2.352h-3.528l1.152-.288a7.614,7.614,0,0,0-.96-2.064ZM142.4,5.328a10.842,10.842,0,0,1-3.168-2.688.248.248,0,0,0,.1-.192c0-.24-.312-.408-.432-.432l-2.04-.456a11.126,11.126,0,0,1-4.416,5.04l1.8,1.776a3.475,3.475,0,0,0,.408-.432V9.5h1.968V10.92H133.66v2.472h2.952v5.3c-1.152.1-2.376.216-3.552.264l.192,2.5c.024.216.048.648.312.648.168,0,.624-.6.768-.648.1-.048,1.56-.288,1.8-.336,3.336-.576,4.56-.84,5.352-1.032l.192-2.232a19.882,19.882,0,0,1-2.592.528V13.392h2.328V10.92h-2.328V9.5h1.872V7.032Zm12.216,13.56a14.666,14.666,0,0,1-5.52-4.92V11.712h4.68V9.384h-1.32V2.208H142.66v2.3h7.176v1.3h-6.1V8.016h6.1V9.384H142.2v2.328h4.32v3.816a13.957,13.957,0,0,1-4.464,2.112l.408,2.064c.024.12.12.6.384.6.12,0,.192-.168.288-.36.12-.216.144-.264.84-.576a23.065,23.065,0,0,0,2.544-1.344v.72c0,.576-.312.672-.768.672-.7,0-1.248-.072-1.56-.1l1.032,2.712c3.024-.048,3.864-.24,3.864-2.04v-2.52a12.376,12.376,0,0,0,3.768,3.456ZM142.54,14.88c0-.024,0-.264-.528-.384l-1.9-.456a10.432,10.432,0,0,1-.936,3.408l2.088.48a12.1,12.1,0,0,0,.72-2.76C142.2,15.12,142.54,15.048,142.54,14.88Zm-2.016-7.848h-4.7a17.758,17.758,0,0,0,2.112-2.448A15.413,15.413,0,0,0,140.524,7.032Zm13.344,6.552c0-.072,0-.216-.336-.384l-1.992-1.056a9.628,9.628,0,0,1-1.68,2.472l1.992,1.3a12.183,12.183,0,0,0,1.464-2.112C153.58,13.776,153.868,13.752,153.868,13.584Zm-7.584,1.56a12.966,12.966,0,0,0-1.968-2.832l-1.968,1.176a12.187,12.187,0,0,1,1.8,2.76Zm-9.864,2.592a14.143,14.143,0,0,0-.984-3.768l-2.064.744a24.714,24.714,0,0,1,1.032,3.6Zm39.6-12-2.376-2.16a1.368,1.368,0,0,1-.792.384h-13.56V6.768H172.06c-2.472,7.248-6.744,10.344-10.9,12.288l2.616,2.112a20.888,20.888,0,0,0,6.576-5.256,29.572,29.572,0,0,0,4.824-8.976A2.886,2.886,0,0,1,176.02,5.736Zm22.224,6.288V9.912H194.38l-.048-2.736c.12-.1.384-.312.384-.5,0-.288-.456-.36-.6-.36l-2.16-.168.072,3.768h-7.272v2.112h6.264a17.92,17.92,0,0,1-3,3.336,13.1,13.1,0,0,1-3.984,2.664l1.728,1.656a21.778,21.778,0,0,0,6.36-5.544l.12,5.232c0,.456-.816.5-1.344.5-.384,0-.624-.024-1.248-.072l.936,2.328c.144.024.7.048,1.1.048.744,0,2.9-.192,2.88-2.064l-.144-8.088Zm25.728,1.368V10.344H206.908v3.048Zm25.056,5.568a31.751,31.751,0,0,0-5.16-8.448l-2.544,1.272a21.639,21.639,0,0,1,2.76,3.72c-2.64.456-5.16.792-8.568,1.176,1.056-2.592,3.072-7.8,4.344-11.52.216-.648.264-.72.5-.84.408-.24.456-.264.456-.384,0-.24-.456-.408-.672-.456l-2.832-.7a125.776,125.776,0,0,1-4.728,14.184c-1.392.12-2.088.168-2.664.192l.576,2.784c.1.432.168.648.36.648a.249.249,0,0,0,.192-.1c.024-.024.312-.312.36-.336.168-.12,11.592-2.016,13.9-2.4a17.788,17.788,0,0,1,1.008,2.688Z" transform="translate(520 4729)"/></g></svg>