<svg xmlns="http://www.w3.org/2000/svg" width="355.1" height="84.84" viewBox="0 0 355.1 84.84"><defs><style>.a{fill:#7c6850;}.b{fill:#ba9973;}.c{fill:#fff;}</style></defs><g transform="translate(-48 -20)"><rect class="a" width="355.1" height="81.84" rx="8" transform="translate(48 23)"/><rect class="b" width="355.1" height="77.84" rx="8" transform="translate(48 20)"/></g><path class="c" d="M-81.4.4V-1.82h-7.78V-7.96h6.48v-2.32h-6.48v-4.9c0-.1.18-.18.3-.24.1-.06.22-.12.22-.28s-.18-.22-.3-.22l-2.7-.22V-1.82h-6.96V.4Zm10.1.38V-5.4h-6.86V.98h2.18V.16h2.48V.78Zm-2.2-2.5h-2.48v-1.8h2.48Zm12.66-.84-1.8-.96c-.04.82-.1,2.1-1.08,2.1H-66.6c-.66,0-.9-.26-.9-.88V-7.32h3.48v.66h2.38V-15.8h-7.94v2.14h5.56v4.18h-5.66v7.94c0,1.6.76,2.12,2.24,2.12h4.08C-61.68.58-61.04-.48-60.84-2.56ZM-71.78-14.2v-1.62h-5.56v1.62Zm1.14,2.64v-1.76H-78.6v1.76Zm-1.08,2.74v-1.66H-77.6v1.66Zm.02,2.56V-7.88h-5.88v1.62Zm29.84-1.38a7.066,7.066,0,0,0-7.44-7.28,8.626,8.626,0,0,0-8.82,8.48,5.691,5.691,0,0,0,4,5.38c1.04,0,1.96-1.68,2.56-2.92a28.4,28.4,0,0,0,2.48-8.9,5.117,5.117,0,0,1,3.4,1.34,4.715,4.715,0,0,1,1.44,3.5,6.257,6.257,0,0,1-1.44,3.98,6.736,6.736,0,0,1-3.6,2.14L-47.8.14a9.655,9.655,0,0,0,4.66-3.52A7.473,7.473,0,0,0-41.86-7.64Zm-9.6-4.88c-.4,3.12-2.12,8.34-3.16,8.34-.36,0-1.28-.84-1.28-2.46a6.55,6.55,0,0,1,2-4.44A5.9,5.9,0,0,1-51.46-12.52ZM-21.98-1.06V-12.92h-6.94c0-.36,0-2.12.02-2.24,0-.1.06-.24.3-.38.08-.06.24-.14.24-.3a.224.224,0,0,0-.24-.2l-2.68-.1c.04.72.06,1.1.06,3.22h-6.82V.78h2.26V-10.74h4.4A8.26,8.26,0,0,1-35.7-4.62L-33.92-3a12.853,12.853,0,0,0,3.9-4.52,9.394,9.394,0,0,0,4,4.36l1.76-1.62a7.927,7.927,0,0,1-4.68-5.96h4.78v8.88c0,.58-.34.64-.96.64a8.671,8.671,0,0,1-1.36-.08l.82,2.3C-22.8,1-21.98.72-21.98-1.06Zm15.54-.32h-7.1V-3.94h7.1ZM-.96-5.26a14.961,14.961,0,0,1-7.86-5.28.4.4,0,0,0,.16-.3c0-.18-.26-.24-.72-.34l-1.86-.38a8.363,8.363,0,0,1-2.16,3.3,12.923,12.923,0,0,1-5.58,3.3l1.62,1.88c.56-.26.98-.48,1.52-.76V1.18h2.3V.54h7.1V1.1h2.28V-3.98c.26.14.84.44,1.48.72Zm-6.08-.6h-5.78a10.706,10.706,0,0,0,2.7-2.96A16.344,16.344,0,0,0-7.04-5.86Zm4.12-3.72a12.68,12.68,0,0,1-3.88-3l-1.88,1.22A19.4,19.4,0,0,0-4.72-7.88Zm1.2-.86v-4.24h-7v-.72c0-.1.06-.14.22-.26a.4.4,0,0,0,.16-.3c0-.12,0-.28-.88-.3l-2.08-.04v1.62h-6.92v4.18h2.34a7.827,7.827,0,0,1-1.56,1.08l1.8,1.68a18.035,18.035,0,0,0,3.16-3.02c.38-.06.66-.12.66-.36,0-.18-.36-.42-.58-.54l-1.66-.98a7.7,7.7,0,0,1-1.8,2.12v-2.3H-4.08v2.38ZM18-9.64a9.227,9.227,0,0,0-1.66-1.52l-.84.96a9.259,9.259,0,0,1,1.66,1.52ZM16.38-7.82a8.72,8.72,0,0,0-1.66-1.54l-.82.96a8.879,8.879,0,0,1,1.64,1.54Zm.66-5.22v-2.32c-3.78,1.16-9.98,1.64-14.3,1.6l.34,2.24c2-.28,4.94-.52,7.62-.74A14.912,14.912,0,0,0,8.06-9.22,7.275,7.275,0,0,0,6.7-5.24a5.017,5.017,0,0,0,1.48,3.6A8.975,8.975,0,0,0,13.1.58l.78-2.44a6.3,6.3,0,0,1-3.52-1.02,3.174,3.174,0,0,1-1.44-2.6,7.424,7.424,0,0,1,2.44-4.8A8.15,8.15,0,0,1,17.04-13.04ZM38.5-7.26V-9.2H33.48a13.393,13.393,0,0,0,.04-1.68h4.06v-1.94h-2.4c.46-.68.7-1.1,1.48-2.46.06-.04.32-.16.36-.18a.133.133,0,0,0,.08-.1c0-.16-.32-.26-.38-.28l-2.04-.62a31.952,31.952,0,0,1-1.94,3.64H30.3l1.32-1a10.811,10.811,0,0,0-1.98-2.64l-1.78,1.38a8.788,8.788,0,0,1,1.82,2.26H27.76v1.94h3.58a16,16,0,0,1-.08,1.68H27.1v1.94h3.7a7.182,7.182,0,0,1-4.02,3.74l1.8,1.5a8.692,8.692,0,0,0,3.88-3.7A8.544,8.544,0,0,0,36.8-1.98l1.48-1.64c-3.16-1.3-4.04-2.82-4.48-3.64Zm-12.34-6.1a8.127,8.127,0,0,0-2.8-2.68L21.7-14.48a11.237,11.237,0,0,1,2.82,2.58ZM39.5-1.66a87.1,87.1,0,0,1-9.68.44c-2.58,0-4.04-.3-4.04-2.04V-9.14H21.42v2.08H23.4v4.32a11.419,11.419,0,0,1-2.46,1.46l1,2.02c.1.18.22.24.26.24.12,0,.14-.12.2-.38.02-.08.06-.1.48-.42.3-.22,1.12-.84,1.78-1.4C25.64.26,26.54.84,30.42.84c.58,0,5.7-.02,8.08-.12Zm15.92.06H49.8V-3.38h5.62ZM57.7.86V-5.22H47.52V.86H49.8V.24h5.62V.86ZM47.16-14.98c0-.22-.24-.3-.42-.38l-1.98-.68A20.74,20.74,0,0,1,40.5-8.86l1.68,1.28a9.711,9.711,0,0,0,1-1.24V.86h2.18V-10.82a1.077,1.077,0,0,1,.24-.36.365.365,0,0,0,.1-.22c0-.22-.24-.36-.44-.48.64-1.24.72-1.38,1.2-2.42.14-.32.14-.32.5-.46C47.08-14.8,47.16-14.86,47.16-14.98Zm10.02,1.22V-15.6H48.32v1.84ZM58.6-11.2v-1.84H46.8v1.84ZM57.18-8.64v-1.84H48.32v1.84Zm0,2.56V-7.92H48.32v1.84Zm20.34-5.5v-2.16c-2.04.16-2.66.22-5.44.38v-2.06c0-.08.02-.12.16-.24s.18-.18.18-.3c0-.2-.12-.26-.58-.28l-2.22-.14c.12,1.46.12,2.52.14,3.14-4.2.2-5.92.2-7.28.2v2.32c2.54-.32,5.56-.5,7.34-.6l.04,1.5a2.638,2.638,0,0,0-.94-.16c-2.04,0-3.14,1.52-3.14,3.72a3.579,3.579,0,0,0,1.04,2.78,2.518,2.518,0,0,0,1.64.62,4.022,4.022,0,0,0,1.08-.2A6.382,6.382,0,0,1,66.68.22l2.24,1.16a13.876,13.876,0,0,0,2.72-3.72A8.968,8.968,0,0,0,72.66-6.2a5.158,5.158,0,0,0-.58-2.44v-2.8C74.68-11.54,76-11.58,77.52-11.58ZM70.24-6.52c0,1.42-.96,1.86-1.38,1.86-.46,0-1.1-.46-1.1-1.66,0-1.06.56-1.76,1.36-1.76a1.041,1.041,0,0,1,.74.28A1.865,1.865,0,0,1,70.24-6.52ZM96.48-5.28A4.408,4.408,0,0,0,92.04-9.7a15.924,15.924,0,0,0-1.94.12,49.449,49.449,0,0,1,4.44-4.28L93.5-15.48a22.666,22.666,0,0,1-6.06,1c-.62,0-1.76-.08-2.24-.12l.46,2.24a18.671,18.671,0,0,0,4.68-.5,39.485,39.485,0,0,1-7.4,7.22l1.68,1.76a22.577,22.577,0,0,1,4.12-3.58,5.424,5.424,0,0,1,2.28-.5c1.3,0,3.24.64,3.24,2.62a3.523,3.523,0,0,1-1.32,2.66A5.227,5.227,0,0,0,89-5.02a2.8,2.8,0,0,0-2.94,2.66c0,1.48,1.28,2.74,3.78,2.74C93.36.38,96.48-1.96,96.48-5.28ZM91.08-1.7a5.686,5.686,0,0,1-1.36.18c-.72,0-1.64-.2-1.64-.9a.881.881,0,0,1,1-.84C90.22-3.26,90.82-2.16,91.08-1.7Z" transform="translate(178.62 48.46)"/></svg>