<svg xmlns="http://www.w3.org/2000/svg" width="247.59" height="60.056" viewBox="0 0 247.59 60.056"><defs><style>.a{fill:#7c6850;}.b{fill:#ba9973;}.c{fill:#fff;}</style></defs><g transform="translate(-48 -20)"><rect class="a" width="247.59" height="60.056" rx="4" transform="translate(48 20)"/><rect class="b" width="247.59" height="56.056" rx="4" transform="translate(48 20)"/></g><path class="c" d="M-73.26.36v-2h-7V-7.164h5.832V-9.252h-5.832v-4.41c0-.09.162-.162.27-.216.09-.054.2-.108.2-.252s-.162-.2-.27-.2l-2.43-.2V-1.638h-6.264v2ZM-64.17.7V-4.86h-6.174V.882h1.962V.144h2.232V.7Zm-1.98-2.25h-2.232v-1.62h2.232ZM-54.756-2.3l-1.62-.864c-.036.738-.09,1.89-.972,1.89H-59.94c-.594,0-.81-.234-.81-.792V-6.588h3.132v.594h2.142V-14.22h-7.146v1.926h5v3.762h-5.094v7.146c0,1.44.684,1.908,2.016,1.908h3.672C-55.512.522-54.936-.432-54.756-2.3ZM-64.6-12.78v-1.458h-5v1.458Zm1.026,2.376v-1.584H-70.74V-10.4Zm-.972,2.466V-9.432H-69.84v1.494Zm.018,2.3V-7.092h-5.292v1.458Zm26.856-1.242a6.36,6.36,0,0,0-6.7-6.552A7.763,7.763,0,0,0-52.308-5.8a5.122,5.122,0,0,0,3.6,4.842c.936,0,1.764-1.512,2.3-2.628a25.556,25.556,0,0,0,2.232-8.01,4.6,4.6,0,0,1,3.06,1.206,4.244,4.244,0,0,1,1.3,3.15,5.631,5.631,0,0,1-1.3,3.582,6.063,6.063,0,0,1-3.24,1.926L-43.02.126a8.69,8.69,0,0,0,4.194-3.168A6.726,6.726,0,0,0-37.674-6.876Zm-8.64-4.392c-.36,2.808-1.908,7.506-2.844,7.506-.324,0-1.152-.756-1.152-2.214a5.9,5.9,0,0,1,1.8-4A5.314,5.314,0,0,1-46.314-11.268ZM-19.782-.954V-11.628h-6.246c0-.324,0-1.908.018-2.016,0-.09.054-.216.27-.342.072-.054.216-.126.216-.27a.2.2,0,0,0-.216-.18l-2.412-.09c.036.648.054.99.054,2.9h-6.138V.7H-32.2V-9.666h3.96A7.434,7.434,0,0,1-32.13-4.158l1.6,1.458a11.568,11.568,0,0,0,3.51-4.068,8.455,8.455,0,0,0,3.6,3.924L-21.834-4.3a7.134,7.134,0,0,1-4.212-5.364h4.3v7.992c0,.522-.306.576-.864.576a7.8,7.8,0,0,1-1.224-.072L-23.094.9C-20.52.9-19.782.648-19.782-.954ZM-5.8-1.242h-6.39v-2.3H-5.8ZM-.864-4.734A13.465,13.465,0,0,1-7.938-9.486a.358.358,0,0,0,.144-.27c0-.162-.234-.216-.648-.306l-1.674-.342a7.527,7.527,0,0,1-1.944,2.97,11.63,11.63,0,0,1-5.022,2.97l1.458,1.692c.5-.234.882-.432,1.368-.684V1.062h2.07V.486H-5.8v.5h2.052V-3.582c.234.126.756.4,1.332.648Zm-5.472-.54h-5.2a9.635,9.635,0,0,0,2.43-2.664A14.709,14.709,0,0,0-6.336-5.274Zm3.708-3.348a11.412,11.412,0,0,1-3.492-2.7l-1.692,1.1A17.457,17.457,0,0,0-4.248-7.092Zm1.08-.774v-3.816h-6.3v-.648c0-.09.054-.126.2-.234a.358.358,0,0,0,.144-.27c0-.108,0-.252-.792-.27l-1.872-.036v1.458H-16.4V-9.45h2.106a7.044,7.044,0,0,1-1.4.972l1.62,1.512a16.231,16.231,0,0,0,2.844-2.718c.342-.054.594-.108.594-.324,0-.162-.324-.378-.522-.486l-1.494-.882a6.934,6.934,0,0,1-1.62,1.908v-2.07h10.6V-9.4Zm17.748.72a8.3,8.3,0,0,0-1.494-1.368l-.756.864a8.333,8.333,0,0,1,1.494,1.368ZM14.742-7.038a7.848,7.848,0,0,0-1.494-1.386l-.738.864a7.992,7.992,0,0,1,1.476,1.386Zm.594-4.7v-2.088a49.778,49.778,0,0,1-12.87,1.44l.306,2.016c1.8-.252,4.446-.468,6.858-.666A13.421,13.421,0,0,0,7.254-8.3,6.547,6.547,0,0,0,6.03-4.716a4.515,4.515,0,0,0,1.332,3.24,8.078,8.078,0,0,0,4.428,2l.7-2.2a5.669,5.669,0,0,1-3.168-.918,2.857,2.857,0,0,1-1.3-2.34,6.682,6.682,0,0,1,2.2-4.32A7.335,7.335,0,0,1,15.336-11.736Zm19.314,5.2V-8.28H30.132a12.054,12.054,0,0,0,.036-1.512h3.654v-1.746h-2.16c.414-.612.63-.99,1.332-2.214.054-.036.288-.144.324-.162A.12.12,0,0,0,33.39-14c0-.144-.288-.234-.342-.252l-1.836-.558a28.757,28.757,0,0,1-1.746,3.276h-2.2l1.188-.9a9.73,9.73,0,0,0-1.782-2.376l-1.6,1.242a7.909,7.909,0,0,1,1.638,2.034H24.984v1.746h3.222a14.4,14.4,0,0,1-.072,1.512H24.39v1.746h3.33A6.464,6.464,0,0,1,24.1-3.168l1.62,1.35a7.823,7.823,0,0,0,3.492-3.33A7.69,7.69,0,0,0,33.12-1.782l1.332-1.476C31.608-4.428,30.816-5.8,30.42-6.534Zm-11.106-5.49a7.314,7.314,0,0,0-2.52-2.412l-1.494,1.4a10.113,10.113,0,0,1,2.538,2.322ZM35.55-1.494a78.388,78.388,0,0,1-8.712.4c-2.322,0-3.636-.27-3.636-1.836V-8.226H19.278v1.872H21.06v3.888a10.277,10.277,0,0,1-2.214,1.314l.9,1.818c.09.162.2.216.234.216.108,0,.126-.108.18-.342.018-.072.054-.09.432-.378.27-.2,1.008-.756,1.6-1.26C23.076.234,23.886.756,27.378.756c.522,0,5.13-.018,7.272-.108Zm14.328.054H44.82v-1.6h5.058ZM51.93.774V-4.7H42.768V.774H44.82V.216h5.058V.774ZM42.444-13.482c0-.2-.216-.27-.378-.342l-1.782-.612A18.666,18.666,0,0,1,36.45-7.974l1.512,1.152a8.74,8.74,0,0,0,.9-1.116V.774h1.962V-9.738a.969.969,0,0,1,.216-.324.328.328,0,0,0,.09-.2c0-.2-.216-.324-.4-.432.576-1.116.648-1.242,1.08-2.178.126-.288.126-.288.45-.414C42.372-13.32,42.444-13.374,42.444-13.482Zm9.018,1.1V-14.04H43.488v1.656Zm1.278,2.3v-1.656H42.12v1.656Zm-1.278,2.3V-9.432H43.488v1.656Zm0,2.3V-7.128H43.488v1.656Zm18.306-4.95v-1.944c-1.836.144-2.394.2-4.9.342v-1.854c0-.072.018-.108.144-.216s.162-.162.162-.27c0-.18-.108-.234-.522-.252l-2-.126c.108,1.314.108,2.268.126,2.826-3.78.18-5.328.18-6.552.18v2.088c2.286-.288,5-.45,6.606-.54l.036,1.35a2.374,2.374,0,0,0-.846-.144c-1.836,0-2.826,1.368-2.826,3.348a3.221,3.221,0,0,0,.936,2.5,2.266,2.266,0,0,0,1.476.558,3.62,3.62,0,0,0,.972-.18A5.744,5.744,0,0,1,60.012.2l2.016,1.044a12.488,12.488,0,0,0,2.448-3.348,8.071,8.071,0,0,0,.918-3.474,4.643,4.643,0,0,0-.522-2.2V-10.3C67.212-10.386,68.4-10.422,69.768-10.422ZM63.216-5.868c0,1.278-.864,1.674-1.242,1.674-.414,0-.99-.414-.99-1.494,0-.954.5-1.584,1.224-1.584a.937.937,0,0,1,.666.252A1.679,1.679,0,0,1,63.216-5.868ZM86.832-4.752a3.968,3.968,0,0,0-4-3.978,14.332,14.332,0,0,0-1.746.108,44.5,44.5,0,0,1,4-3.852l-.936-1.458a20.4,20.4,0,0,1-5.454.9c-.558,0-1.584-.072-2.016-.108l.414,2.016a16.8,16.8,0,0,0,4.212-.45,35.536,35.536,0,0,1-6.66,6.5l1.512,1.584a20.32,20.32,0,0,1,3.708-3.222,4.882,4.882,0,0,1,2.052-.45c1.17,0,2.916.576,2.916,2.358a3.171,3.171,0,0,1-1.188,2.394A4.7,4.7,0,0,0,80.1-4.518a2.521,2.521,0,0,0-2.646,2.394c0,1.332,1.152,2.466,3.4,2.466C84.024.342,86.832-1.764,86.832-4.752ZM81.972-1.53a5.117,5.117,0,0,1-1.224.162c-.648,0-1.476-.18-1.476-.81a.793.793,0,0,1,.9-.756C81.2-2.934,81.738-1.944,81.972-1.53Z" transform="translate(124.758 34.814)"/></svg>