<svg xmlns="http://www.w3.org/2000/svg" width="343.992" height="71.98" viewBox="0 0 343.992 71.98"><defs><style>.a{fill:#e0d5c8;}.b{fill:#2f2f2f;}</style></defs><g transform="translate(-3124.476 -3398.572)"><path class="a" d="M-51.39-37.62V-23.1h13.2v2.4h-13.2V0h-2.58V-40.02h16.14v2.4Zm32.22,10.8a14.149,14.149,0,0,1,5.52,1.08A14.746,14.746,0,0,1-9.12-22.8a13.607,13.607,0,0,1,3.06,4.35,12.893,12.893,0,0,1,1.11,5.31A12.807,12.807,0,0,1-6.09-7.8,14.156,14.156,0,0,1-9.15-3.42,14.285,14.285,0,0,1-13.68-.48,14.371,14.371,0,0,1-19.23.6,13.669,13.669,0,0,1-24.69-.51a14.533,14.533,0,0,1-4.5-3,14.1,14.1,0,0,1-3.03-4.41,13.246,13.246,0,0,1-1.11-5.4,12.131,12.131,0,0,1,1.14-5.16A14.121,14.121,0,0,1-29.1-22.8a14.846,14.846,0,0,1,4.5-2.94A13.779,13.779,0,0,1-19.17-26.82Zm0,2.22a11.369,11.369,0,0,0-4.47.9,12.2,12.2,0,0,0-3.75,2.46,11.683,11.683,0,0,0-2.55,3.6,10.294,10.294,0,0,0-.93,4.32,11.2,11.2,0,0,0,.93,4.53,12.262,12.262,0,0,0,2.49,3.72,11.628,11.628,0,0,0,3.69,2.52,11.2,11.2,0,0,0,4.53.93,11.671,11.671,0,0,0,4.59-.9,12.2,12.2,0,0,0,3.75-2.46A11.481,11.481,0,0,0-8.34-8.64a10.988,10.988,0,0,0,.93-4.5,10.637,10.637,0,0,0-.93-4.41,11.942,11.942,0,0,0-2.55-3.66,11.93,11.93,0,0,0-3.75-2.49A11.518,11.518,0,0,0-19.17-24.6ZM17.85,0H14.97L6.21-12.24h-.6V0H3.21V-26.58H7.65a16.348,16.348,0,0,1,3.45.3,7.1,7.1,0,0,1,2.49,1.08,6.484,6.484,0,0,1,2.13,2.46,7.408,7.408,0,0,1,.75,3.36,6.842,6.842,0,0,1-2.22,5.28,7.118,7.118,0,0,1-2.1,1.23,13.245,13.245,0,0,1-3.18.57ZM8.13-14.52a6.777,6.777,0,0,0,4.41-1.26,4.469,4.469,0,0,0,1.53-3.66q0-4.86-6.3-4.86H5.61v9.78ZM27.69-28.44,39.27-3.84l11.7-24.6L54.33,0H51.87l-2.4-20.04L39.27,1.38,29.13-20.04,26.79,0h-2.4Z" transform="translate(3297 3438.592)"/><path class="b" d="M40.524-9.68v-3.432H38.06v-5.1H24.42v-1.672H35.2v-8.1H24.42v-1.54H40.348v-3.784H24.42v-.836a.465.465,0,0,1,.264-.4c.4-.308.484-.352.484-.616s-.308-.352-.528-.4l-5.192-.66v2.9H3.476v3.784H19.448v1.54H8.624v8.1H19.448v1.672H6.028v3.432h13.42v1.672H3.476V-9.68H19.448v1.892H6.028v3.432h13.42v1.32c0,.792-.66,1.012-1.364,1.012-.748,0-1.98-.132-3.124-.22l2.2,4.8c6.16-.044,7.26-1.188,7.26-3.74V-4.356h9.02v1.188h4.62V-9.68Zm-9.856-13.2H24.42v-2.112h6.248Zm-11.22,0H13.112v-2.112h6.336ZM33.44-13.112H24.42v-1.672h9.02Zm0,5.324H24.42V-9.68h9.02ZM65.384-2.64V-23.364H49.456V1.98H54.12V-6.908h6.512V-3.7c0,.748-.352,1.1-1.232,1.1a20.646,20.646,0,0,1-2.9-.264l1.848,5.016C62.172,2.156,65.384,1.54,65.384-2.64ZM60.632-17.072H54.12v-2.42h6.512Zm0,6.292H54.12V-13.2h6.512ZM85.1-26.092V-30.14H75.064c.308-.4,1.628-2.64,1.76-2.728a8.333,8.333,0,0,1,.792-.264c.264-.088.352-.22.352-.4a.479.479,0,0,0-.308-.44L72.072-35.6A27.608,27.608,0,0,1,69.08-30.14H60.456l1.628-.792a53.169,53.169,0,0,0-3.608-4.884L53.68-33.7a35.509,35.509,0,0,1,2.728,3.564H47.036v4.048ZM83.6-23.32c0-.176-.22-.352-.528-.4l-5.456-.4V-4.444c0,1.188-.44,1.54-1.98,1.54-.924,0-1.716-.088-2.64-.176l2.332,4.928c5.456-.044,7.392-.572,7.392-4.884V-22.044c0-.132.308-.484.616-.748A1,1,0,0,0,83.6-23.32Zm-9.152.66a.542.542,0,0,0-.572-.484l-5.236-.264V-5.676h4.752v-15.8c0-.176.088-.22.7-.66A.682.682,0,0,0,74.448-22.66Zm56.54,2.948a33.885,33.885,0,0,1-7.964-4.224c1.232-1.232,2.464-2.508,3.608-3.828.4-.44.484-.44,1.232-.484.22,0,.572,0,.572-.352,0-.22-.176-.4-.924-.792l-3.344-1.76a38.943,38.943,0,0,1-4.224,4.532,11.322,11.322,0,0,1-.924-1.056c.616-.7,3.3-3.828,3.872-4.488.132-.044.88-.132,1.012-.176.176,0,.352-.044.352-.308,0-.352-.528-.66-.88-.836L119.944-35.2a31.523,31.523,0,0,1-3.388,3.828,20.017,20.017,0,0,1-1.892-4.18l-4.444,1.408a28.077,28.077,0,0,0,5.676,9.416h-11.22a28.8,28.8,0,0,0,5.016-8.008L108.24-34.5H95.04v4.048h7.92a16.824,16.824,0,0,1-2.684,3.784,22.472,22.472,0,0,0-4.224-3.168l-3.344,3.344a19.85,19.85,0,0,1,4.18,3.124,36.222,36.222,0,0,1-8.14,5.06l4.488,3.256a31.684,31.684,0,0,0,4.708-3.08V-7.48h5.588l-2.64.792a38.586,38.586,0,0,1,1.716,3.52H91.916V1.144h36.212V-3.168H117.216c.4-.748.7-1.452,1.056-2.244.528-.132,1.012-.22,1.012-.66,0-.484-.44-.572-.66-.616l-3.388-.792H122.1V-18.788H98.78a35.968,35.968,0,0,0,4-3.828v2.068h15.224V-22.44a33.412,33.412,0,0,0,8.888,6.512Zm-13.9,8.448H102.96V-15h14.124ZM114-7.48a17.869,17.869,0,0,1-1.98,4.312h-6.468l2.112-.528a13.959,13.959,0,0,0-1.76-3.784Zm37.972-21.252a19.878,19.878,0,0,1-5.808-4.928.454.454,0,0,0,.176-.352c0-.44-.572-.748-.792-.792l-3.74-.836a20.4,20.4,0,0,1-8.1,9.24l3.3,3.256a6.373,6.373,0,0,0,.748-.792v2.86h3.608v2.6H135.96v4.532h5.412v9.724c-2.112.176-4.356.4-6.512.484l.352,4.576c.044.4.088,1.188.572,1.188.308,0,1.144-1.1,1.408-1.188.176-.088,2.86-.528,3.3-.616,6.116-1.056,8.36-1.54,9.812-1.892l.352-4.092A36.452,36.452,0,0,1,145.9-4.8v-9.152h4.268V-18.48H145.9v-2.6h3.432v-4.532Zm22.4,24.86c-5.148-2.86-9.02-6.776-10.12-9.02v-4.136h8.58V-21.3h-2.42V-34.452H152.46v4.224h13.156v2.376H154.44V-23.8h11.176V-21.3H151.624v4.268h7.92v7A25.588,25.588,0,0,1,151.36-6.16l.748,3.784c.044.22.22,1.1.7,1.1.22,0,.352-.308.528-.66.22-.4.264-.484,1.54-1.056a42.285,42.285,0,0,0,4.664-2.464v1.32c0,1.056-.572,1.232-1.408,1.232-1.276,0-2.288-.132-2.86-.176l1.892,4.972c5.544-.088,7.084-.44,7.084-3.74v-4.62A22.69,22.69,0,0,0,171.16-.132ZM152.24-11.22c0-.044,0-.484-.968-.7L147.8-12.76a19.126,19.126,0,0,1-1.716,6.248l3.828.88a22.186,22.186,0,0,0,1.32-5.06C151.624-10.78,152.24-10.912,152.24-11.22Zm-3.7-14.388H139.92a32.554,32.554,0,0,0,3.872-4.488A28.257,28.257,0,0,0,148.544-25.608ZM173.008-13.6c0-.132,0-.4-.616-.7l-3.652-1.936a17.651,17.651,0,0,1-3.08,4.532l3.652,2.376A22.336,22.336,0,0,0,172-13.2C172.48-13.244,173.008-13.288,173.008-13.6Zm-13.9,2.86a23.772,23.772,0,0,0-3.608-5.192l-3.608,2.156a22.344,22.344,0,0,1,3.3,5.06ZM141.02-5.984a25.929,25.929,0,0,0-1.8-6.908l-3.784,1.364a45.309,45.309,0,0,1,1.892,6.6Zm72.6-22-4.356-3.96a2.508,2.508,0,0,1-1.452.7h-24.86v5.148H206.36C201.828-12.8,194-7.128,186.384-3.564l4.8,3.872a38.3,38.3,0,0,0,12.056-9.636c4.752-5.764,6.864-11.308,8.844-16.456A5.292,5.292,0,0,1,213.62-27.984Zm40.744,11.528v-3.872H247.28l-.088-5.016c.22-.176.7-.572.7-.924,0-.528-.836-.66-1.1-.66l-3.96-.308.132,6.908H229.636v3.872H241.12a32.851,32.851,0,0,1-5.5,6.116,24.026,24.026,0,0,1-7.3,4.884l3.168,3.036a39.926,39.926,0,0,0,11.66-10.164l.22,9.592c0,.836-1.5.924-2.464.924-.7,0-1.144-.044-2.288-.132l1.716,4.268c.264.044,1.276.088,2.024.088,1.364,0,5.324-.352,5.28-3.784l-.264-14.828Zm47.168,2.508v-5.588H270.248v5.588ZM347.468-3.74a58.211,58.211,0,0,0-9.46-15.488L333.344-16.9a39.668,39.668,0,0,1,5.06,6.82c-4.84.836-9.46,1.452-15.708,2.156,1.936-4.752,5.632-14.3,7.964-21.12.4-1.188.484-1.32.924-1.54.748-.44.836-.484.836-.7,0-.44-.836-.748-1.232-.836L326-33.4a230.593,230.593,0,0,1-8.668,26c-2.552.22-3.828.308-4.884.352l1.056,5.1c.176.792.308,1.188.66,1.188a.457.457,0,0,0,.352-.176c.044-.044.572-.572.66-.616.308-.22,21.252-3.7,25.476-4.4A32.61,32.61,0,0,1,342.5-1.012Z" transform="translate(3121 3468)"/></g></svg>