<svg xmlns="http://www.w3.org/2000/svg" width="238.032" height="57.336" viewBox="0 0 238.032 57.336"><defs><style>.a{fill:#2f2f2f;}</style></defs><path class="a" d="M51.3,21,42.832,10.848,51.064,3.48H46.552l-7.7,7.44V3.48h-3.24V21h3.24V14.376l1.776-1.584L47.248,21ZM56.656,6.6V3.48H53.488V6.6Zm0,14.4V8.088H53.488V21ZM62.872,6.6V3.48H59.7V6.6Zm0,14.4V8.088H59.7V21ZM80.464,6.216V3.48H64.744V6.216h6.24V21h3.24V6.216ZM96.208,21V18.264H85.792V13.08h9.264V10.56H85.792V6.216H95.824V3.48H82.576V21Zm23.136-3.48a19.21,19.21,0,0,0-4.128-2.256,58.957,58.957,0,0,1-.336-6.432,22.422,22.422,0,0,0,3-.672V5.568a10.479,10.479,0,0,1-2.976.984,27.688,27.688,0,0,1,.336-2.976c.24-.144.456-.264.456-.384,0-.144-.072-.264-.576-.336l-2.688-.432c-.048,2.376-.048,2.64-.1,4.44a19,19,0,0,1-2.232.144,12.493,12.493,0,0,1-2.16-.144l.024,2.472a26.678,26.678,0,0,0,4.344-.192c.048,1.632.12,2.64.312,5.5-.48-.048-.984-.1-1.464-.1-2.328,0-4.224.936-4.224,3.1,0,3.456,4.032,3.456,4.728,3.456,3.264,0,3.744-1.248,3.792-3.1a12.839,12.839,0,0,1,2.52,1.9Zm-13.7-2.112-1.512-1.032-.984,1.44a23.648,23.648,0,0,1-.12-2.52,60.982,60.982,0,0,1,.888-7.44,6.861,6.861,0,0,1,.528-1.632,3.692,3.692,0,0,0,.456-.192.208.208,0,0,0,.1-.168c0-.24-.5-.456-.576-.48l-2.328-.912A45.5,45.5,0,0,0,100.624,13.7a25.818,25.818,0,0,0,.912,7.44l2.208-.36A21.079,21.079,0,0,1,105.64,15.408Zm7.128,1.512c.048,1.248.1,1.8-1.488,1.8-1.416,0-2.112-.5-2.112-1.056s.768-.96,1.9-.96A8.255,8.255,0,0,1,112.768,16.92Zm9.984.144a19.732,19.732,0,0,1,4.632,5.328l2.5-1.992a14.117,14.117,0,0,0-5.328-5.208ZM153.5,10.008V7.416c-.768.168-4.44,1.008-5.28,1.176-1.344.288-2.352.432-2.832.528a64.061,64.061,0,0,1,5.856-5.688l-1.224-2.016a22.415,22.415,0,0,1-7.1,1.1c-1.1,0-1.9-.072-2.664-.12l1.032,2.4a25.605,25.605,0,0,0,5.472-.6,33.683,33.683,0,0,1-5.568,5.688,30.49,30.49,0,0,1-4.728.624l.5,2.616c.408-.12.648-.168.96-.24,2.472-.576,5.64-1.176,8.472-1.728-3.624,2.688-3.7,5.856-3.7,6.216A4.27,4.27,0,0,0,144.64,20.9a10.277,10.277,0,0,0,5.208,1.608l.48-2.616c-1.464-.024-4.824-.1-4.824-3.024a5.463,5.463,0,0,1,1.92-3.84A9.552,9.552,0,0,1,153.5,10.008Zm25.656,6.936-1.56-2.3c-.888,1.3-2.592,3.648-4.248,3.648-.6,0-.984-.288-.984-1.128,0-.6.552-3.24.552-3.792a2.754,2.754,0,0,0-3-2.9,7.041,7.041,0,0,0-2.4.5C169,7.536,170.68,4.656,171.04,4.536a4.316,4.316,0,0,1,.528-.144.255.255,0,0,0,.192-.216c0-.24-.432-.456-.576-.528l-2.712-1.44c-.312.768-.648,1.536-1.464,3.288-1.08,2.3-1.68,3.48-7.464,14.664L162.5,21a19.8,19.8,0,0,1,3.024-6,4.713,4.713,0,0,1,3.192-1.8,1.154,1.154,0,0,1,1.248,1.272c0,.384-.48,3.168-.48,3.768a2.943,2.943,0,0,0,3.288,2.952C176.368,21.192,178.264,18.312,179.152,16.944ZM201.5,18.168a22.043,22.043,0,0,0-4.128-2.184,23.781,23.781,0,0,1-.312-3.336,2.2,2.2,0,0,1,.912-1.92l-2.5-1.344a3.626,3.626,0,0,0-1.032,2.448c0,.5.288,2.952.336,3.5a12.111,12.111,0,0,0-1.872-.144c-3.312,0-4.248,2.112-4.248,3.408a2.717,2.717,0,0,0,.888,2.04,5.7,5.7,0,0,0,3.912,1.128c3.144,0,3.864-1.008,4.08-2.928a13.211,13.211,0,0,1,2.376,1.584Zm-6.6-.432c0,.864.024,1.872-1.92,1.872-1.32,0-1.992-.552-1.992-1.08,0-.48.576-1.152,1.824-1.152A8.06,8.06,0,0,1,194.9,17.736Zm7.272-9.6a11.861,11.861,0,0,0-5.352-2.208l-1.08,2.064a16.987,16.987,0,0,1,5.256,2.184Zm-7.152-1.248V4.2c-.624.216-1.344.456-2.76.816.1-.312.552-1.848.576-1.872.144-.144.552-.288.552-.528,0-.264-.456-.384-.576-.408l-2.616-.576a22.9,22.9,0,0,1-.864,3.96,31.949,31.949,0,0,1-4.08.312l.36,2.5c1.128-.072,1.8-.144,2.9-.288a41.167,41.167,0,0,1-4.1,8.736l2.568,1.1a58.532,58.532,0,0,0,4.44-10.3C193.456,7.3,194.2,7.1,195.016,6.888Zm32.712,4.728c0-.216-.264-.264-.576-.288l-2.52-.12V18.84h-8.088V17.5l1.968,1.32a17.573,17.573,0,0,0,2.328-2.448,24.975,24.975,0,0,1,1.464,2.208l2.28-1.656a20.589,20.589,0,0,0-1.992-2.88,14.739,14.739,0,0,0,1.584-2.9c.048-.1.336-.168.528-.24a.258.258,0,0,0,.192-.24c0-.24-.408-.408-.7-.48l-2.3-.624A9.8,9.8,0,0,1,220.84,12a15.367,15.367,0,0,0-1.944-1.728l-1.8,1.392a2.118,2.118,0,0,0-.888-.24l-2.232-.12v10.68h2.568v-.72h8.088v.7H227.2V12.432a.755.755,0,0,1,.336-.5C227.608,11.856,227.728,11.736,227.728,11.616Zm-8.472,2.736a8.831,8.831,0,0,1-2.712,2.3V12.432c0-.24.216-.336.384-.432A17.633,17.633,0,0,1,219.256,14.352Zm8.832-11.208c0-.24-.312-.36-.6-.432l-2.712-.744a44.268,44.268,0,0,1-2.688,6.6l2.712.912a32.005,32.005,0,0,0,2.5-5.664.747.747,0,0,1,.5-.408C227.944,3.36,228.088,3.312,228.088,3.144Zm-5.808,4.08a25.881,25.881,0,0,0-1.632-5.472l-2.472.768a21.43,21.43,0,0,1,1.776,5.3Zm-3.648.912a20.479,20.479,0,0,0-2.256-5.544L214.1,3.6A17.377,17.377,0,0,1,216.3,8.976Zm-3.216,1.32A12.505,12.505,0,0,0,213.76,5.5l-1.272.48V2.88c.264-.168.528-.36.528-.576,0-.24-.192-.36-.816-.408L209.848,1.7V6.072A2.318,2.318,0,0,0,209.416,6L207.4,5.856a20.3,20.3,0,0,1-.912,5.952l2.4.192a19.9,19.9,0,0,0,.72-5.3c.1-.048.12-.072.24-.144v15.48h2.64V7.824a7.608,7.608,0,0,1,.888,2.736Zm35.664,5.352c-1.032-.672-1.776-1.128-3.1-1.872A28.969,28.969,0,0,0,248.8,9.36c.072-.336.072-.384.264-.5.336-.168.36-.192.36-.312,0-.216-.336-.336-.576-.408l-2.688-.744a20.405,20.405,0,0,1-.624,4.392,15.444,15.444,0,0,0-4.632-1.1c.336-.744,2.04-4.608,2.064-4.7a9.784,9.784,0,0,1,1.248-2.04l-1.584-1.584c-1.3.84-4.128,1.32-7.824,1.3l1.08,2.424a16.751,16.751,0,0,0,4.368-.744,55.574,55.574,0,0,1-1.944,5.208,6.476,6.476,0,0,0-3.816,1.152,5.965,5.965,0,0,0-2.832,4.752,2.8,2.8,0,0,0,2.712,3.1c2.112,0,3.144-1.536,5.52-6.624a14.859,14.859,0,0,1,4.8,1.344,11.61,11.61,0,0,1-4.776,5.64l2.376,1.656a13.383,13.383,0,0,0,4.752-5.976c.552.36,1.224.816,2.5,1.8Zm-13.848-1.824a27.254,27.254,0,0,1-1.584,2.976,1.094,1.094,0,0,1-1.008.576c-.168,0-.48-.024-.48-.648C234.16,15,235.168,13.632,237.232,12.984Zm36.408-1.32-.816-2.736c-1.128.5-1.44.648-4.248,1.968a3.217,3.217,0,0,0-3.264-2.424,4.641,4.641,0,0,0-2.064.5c.408-.624.6-.96,1.368-2.376a50.519,50.519,0,0,0,5.736-.912L270.52,3a20.265,20.265,0,0,1-4.7,1.224c.12-.264.72-1.608.744-1.632.024,0,.5-.216.552-.24.144-.048.24-.12.24-.264,0-.168-.408-.216-.48-.24l-3-.528a18.61,18.61,0,0,1-1.2,3.192,33.757,33.757,0,0,1-4.584-.1l.288,2.5c1.008,0,1.752-.024,3.12-.1a31.91,31.91,0,0,1-4.728,6.6l2.352,1.464c1.32-2.16,2.76-4.344,5.112-4.344a1.663,1.663,0,0,1,1.824,1.584c-3.6,1.848-5.808,2.976-5.808,5.952a3.281,3.281,0,0,0,.912,2.352c1.512,1.608,4.3,1.608,5.64,1.608a39.72,39.72,0,0,0,5.712-.36V18.96a27.749,27.749,0,0,1-6.12.768c-1.752,0-3.6-.312-3.6-1.872,0-1.68,2.5-2.928,3.408-3.384-.024,1.056-.048,2.232-.12,3.6h2.784c0-.816-.048-3.792-.048-4.728C270.592,12.672,271.744,12.264,273.64,11.664ZM103.96,56.232V42.984h-2.448l1.776-2.9-.6-.84h-3.84c.168-.408.192-.456.408-.5.144-.048.312-.1.312-.288s-.192-.264-.624-.336l-2.088-.36a22.671,22.671,0,0,1-3.48,5.88l2.088.912a33.456,33.456,0,0,1,.168,3.48c0,5.256-1.032,7.248-1.968,9.12l2.208.816a17.721,17.721,0,0,0,1.608-5.352h4.512v2.616c0,.72-.672.864-1.248.864-.144,0-.408-.024-.72-.048l.672,2.04C101.752,58.056,103.96,58.008,103.96,56.232ZM98.9,46.848H97.624V45.072H98.9Zm3.1,0h-1.32V45.072h1.32Zm0,3.7h-1.32v-1.8h1.32Zm-3.1,0H97.672v-1.8H98.9Zm.912-9.336-1.1,1.776H96.76a15.347,15.347,0,0,0,1.08-1.776Zm15.024-2.856h-9.864V40.2h2.064a5.408,5.408,0,0,1-3.024,4.176l1.872,1.488a9.573,9.573,0,0,1-1.872,3.816l1.824,1.3a14.9,14.9,0,0,0,.936-1.56h2.4V51.5h-4.08v2.088h4.08V57.96h2.376V53.592h3.048V51.5h-3.048V49.416h2.784V47.3h-2.784v-.432a.665.665,0,0,1,.24-.408.755.755,0,0,0,.192-.36c0-.168-.576-.264-.912-.336,2.208-.144,3.7-.72,3.744-4.992ZM112.264,40.2c-.024,1.584-.048,3.216-1.68,3.216a5.1,5.1,0,0,1-.72-.048l.984,2.376-1.68-.192V47.3H107.68l.048-.216c.288-.144.36-.168.36-.336s-.576-.36-.864-.48l-.936-.36A9.433,9.433,0,0,0,109.7,40.2Zm26.952,15.768a12.767,12.767,0,0,1-6.744-6.312h6.648V47.232h-1.7l.312-5.88h-5.76c0-.432-.024-2.3-.024-2.664,0-.216.048-.24.36-.48.072-.048.168-.12.168-.216,0-.288-.432-.336-.7-.336l-2.784-.1c.12,1.464.144,2.4.168,3.792h-4.176v2.4h4.2c0,2.208,0,2.472-.048,3.48H124v2.424h4.848a9.432,9.432,0,0,1-6.624,6.48l1.848,2.256a11.883,11.883,0,0,0,6.7-6.576,14.731,14.731,0,0,0,2.808,3.744,15.152,15.152,0,0,0,3.912,2.76Zm-4.344-12.216-.144,3.48h-2.88c.072-2.256.072-2.5.072-3.48ZM123.448,39.7a16.087,16.087,0,0,0-3.168-2.232l-1.416,1.9a13.96,13.96,0,0,1,3.168,2.256Zm-1.9,6.12a18,18,0,0,0-3.168-2.04l-1.464,2.04a19.229,19.229,0,0,1,3.192,2.04Zm1.392,5.544L120.76,49.9a26.975,26.975,0,0,1-2.952,7.128l2.04,1.224a2.066,2.066,0,0,0,.6.24c.072,0,.12-.024.12-.192a5,5,0,0,1,0-.6c.024-.072.936-2.184,1.1-2.616C122.2,53.64,122.56,52.584,122.944,51.36Zm38.088-.216L158.68,49.2c-2.352,4.608-5.568,5.448-6.912,5.448a2.314,2.314,0,0,1-2.112-1.008c-.456-.816-.456-3.144-.456-4.248a90.711,90.711,0,0,1,.672-9.6c.384-.312.672-.5.672-.7,0-.144-.216-.312-.792-.384l-3.192-.456c.072,1.608-.12,8.736-.12,10.2,0,5.76.384,6.984,1.512,7.968a5.338,5.338,0,0,0,3.5,1.224,8.675,8.675,0,0,0,4.776-1.536A17.907,17.907,0,0,0,161.032,51.144Zm22.944,3.048A19.952,19.952,0,0,0,177.9,51.48c-.072-1.416-.072-1.656-.12-2.856a51.589,51.589,0,0,0,5.136-.6V45.408c-2.208.408-3.1.552-5.184.816V43.392c1.2-.024,3.432-.072,6.1-.072l.1-2.544c-2.256.168-3.072.216-6.144.36.024-1.248.048-1.7.048-1.728a.78.78,0,0,1,.312-.432c.264-.216.312-.24.312-.336,0-.168-.144-.24-.6-.288l-2.928-.288L175,41.256c-2.136.048-3.432.1-6.168.1l.048,2.592c2.064-.24,3.432-.336,6.192-.456l.048,3a16.47,16.47,0,0,1-1.656.048c-.408,0-.912,0-.912-.336,0-.312.36-.576.792-.888l-1.368-1.176c-.936.672-2.568,1.8-2.568,2.976,0,.936,1.1,1.728,3.312,1.728.7,0,2.016-.048,2.448-.072l.048,2.3-.672-.024c-5.4-.192-5.64,2.592-5.64,3.288,0,1.944,2.064,3.12,5.376,3.12,3.072,0,3.648-.96,3.744-3.408a18.091,18.091,0,0,1,4.392,2.376Zm-8.736-.84c.024,1.344-.072,1.776-1.632,1.776-.288,0-1.824,0-1.824-.816,0-.624.768-1.032,2.328-1.032A6.212,6.212,0,0,1,175.24,53.352ZM209.416,43.1V40.512c-2.448.192-3.192.264-6.528.456V38.5c0-.1.024-.144.192-.288s.216-.216.216-.36c0-.24-.144-.312-.7-.336l-2.664-.168c.144,1.752.144,3.024.168,3.768-5.04.24-7.1.24-8.736.24v2.784c3.048-.384,6.672-.6,8.808-.72l.048,1.8a3.166,3.166,0,0,0-1.128-.192c-2.448,0-3.768,1.824-3.768,4.464a4.3,4.3,0,0,0,1.248,3.336,3.022,3.022,0,0,0,1.968.744,4.826,4.826,0,0,0,1.3-.24,7.658,7.658,0,0,1-3.432,3.936l2.688,1.392a16.651,16.651,0,0,0,3.264-4.464,10.761,10.761,0,0,0,1.224-4.632,6.19,6.19,0,0,0-.7-2.928v-3.36C206.008,43.152,207.592,43.1,209.416,43.1Zm-8.736,6.072c0,1.7-1.152,2.232-1.656,2.232-.552,0-1.32-.552-1.32-1.992,0-1.272.672-2.112,1.632-2.112a1.249,1.249,0,0,1,.888.336A2.238,2.238,0,0,1,200.68,49.176Zm16.44-4.824V39.48h-3.24v4.872l.84,7.92H216.3Zm0,12.648V53.76h-3.24V57Z" transform="translate(-35.608 -1.32)"/></svg>