<svg xmlns="http://www.w3.org/2000/svg" width="300.348" height="77.202" viewBox="0 0 300.348 77.202"><defs><style>.a{fill:#2f2f2f;}</style></defs><path class="a" d="M20.113,16,13.759,8.386,19.933,2.86H16.549L10.771,8.44V2.86H8.341V16h2.43V11.032L12.1,9.844,17.071,16ZM24.487,5.2V2.86H22.111V5.2Zm0,10.8V6.316H22.111V16ZM29.509,5.2V2.86H27.133V5.2Zm0,10.8V6.316H27.133V16ZM43.063,4.912V2.86H31.273V4.912h4.68V16h2.43V4.912ZM55.231,16V13.948H47.419V10.06h6.948V8.17H47.419V4.912h7.524V2.86H45.007V16Zm17.712-2.61a14.407,14.407,0,0,0-3.1-1.692,44.22,44.22,0,0,1-.252-4.824,16.816,16.816,0,0,0,2.25-.5V4.426a7.859,7.859,0,0,1-2.232.738,20.764,20.764,0,0,1,.252-2.232c.18-.108.342-.2.342-.288,0-.108-.054-.2-.432-.252l-2.016-.324c-.036,1.782-.036,1.98-.072,3.33a14.249,14.249,0,0,1-1.674.108,9.37,9.37,0,0,1-1.62-.108l.018,1.854a20.008,20.008,0,0,0,3.258-.144c.036,1.224.09,1.98.234,4.122-.36-.036-.738-.072-1.1-.072-1.746,0-3.168.7-3.168,2.322,0,2.592,3.024,2.592,3.546,2.592,2.448,0,2.808-.936,2.844-2.322a9.629,9.629,0,0,1,1.89,1.422ZM62.665,11.806l-1.134-.774-.738,1.08a17.735,17.735,0,0,1-.09-1.89,45.737,45.737,0,0,1,.666-5.58,5.145,5.145,0,0,1,.4-1.224,2.769,2.769,0,0,0,.342-.144.156.156,0,0,0,.072-.126c0-.18-.378-.342-.432-.36L60,2.1a34.123,34.123,0,0,0-1.1,8.424,19.364,19.364,0,0,0,.684,5.58l1.656-.27A15.809,15.809,0,0,1,62.665,11.806Zm5.346,1.134c.036.936.072,1.35-1.116,1.35-1.062,0-1.584-.378-1.584-.792s.576-.72,1.422-.72A6.191,6.191,0,0,1,68.011,12.94Zm7.848.108a14.8,14.8,0,0,1,3.474,4L81.2,15.55a10.588,10.588,0,0,0-4-3.906Zm23.8-1.4c0-2.124-1.224-3.456-3.24-4.14l.288-.828-2.07-.45c-.072.342-.126.576-.216.936a7.951,7.951,0,0,0-1.962.144c.09-.72.108-.81.216-1.476a24.971,24.971,0,0,0,4.752-.954V2.95a17.571,17.571,0,0,1-4.41,1.206,13.046,13.046,0,0,1,.558-1.764c.2-.054.414-.108.414-.27,0-.054,0-.144-.45-.27l-1.872-.5A29.68,29.68,0,0,0,91,4.39a25.437,25.437,0,0,1-3.42-.126l.594,1.782c.972,0,1.44,0,2.574-.054-.09.846-.144,1.3-.18,2-3.258,1.8-3.924,4.32-3.924,5.544a2.062,2.062,0,0,0,1.98,2.34,5.058,5.058,0,0,0,2.574-.9,3.985,3.985,0,0,0,.252.666l1.728-.936c-.18-.576-.216-.648-.342-1.08a16.25,16.25,0,0,0,2.934-4.536,2.563,2.563,0,0,1,1.8,2.484,3.391,3.391,0,0,1-1.044,2.484,5.222,5.222,0,0,1-3.078,1.278l1.314,1.656C96,16.63,99.655,15.6,99.655,11.644ZM93.877,8.71A14.5,14.5,0,0,1,92.4,11.5a18.267,18.267,0,0,1-.09-2.592A4.171,4.171,0,0,1,93.877,8.71ZM90.8,13.228A2.858,2.858,0,0,1,89.125,14c-.306,0-.666-.108-.666-.846s.45-1.872,2.07-3.222A25.658,25.658,0,0,0,90.8,13.228Zm26.838.648a16.532,16.532,0,0,0-3.1-1.638,17.835,17.835,0,0,1-.234-2.5,1.649,1.649,0,0,1,.684-1.44l-1.872-1.008a2.719,2.719,0,0,0-.774,1.836c0,.378.216,2.214.252,2.628a9.084,9.084,0,0,0-1.4-.108c-2.484,0-3.186,1.584-3.186,2.556a2.038,2.038,0,0,0,.666,1.53,4.278,4.278,0,0,0,2.934.846c2.358,0,2.9-.756,3.06-2.2a9.909,9.909,0,0,1,1.782,1.188Zm-4.95-.324c0,.648.018,1.4-1.44,1.4-.99,0-1.494-.414-1.494-.81,0-.36.432-.864,1.368-.864A6.045,6.045,0,0,1,112.687,13.552Zm5.454-7.2A8.9,8.9,0,0,0,114.127,4.7l-.81,1.548a12.74,12.74,0,0,1,3.942,1.638Zm-5.364-.936V3.4c-.468.162-1.008.342-2.07.612.072-.234.414-1.386.432-1.4.108-.108.414-.216.414-.4,0-.2-.342-.288-.432-.306l-1.962-.432a17.174,17.174,0,0,1-.648,2.97,23.961,23.961,0,0,1-3.06.234l.27,1.872c.846-.054,1.35-.108,2.178-.216a30.876,30.876,0,0,1-3.078,6.552l1.926.828a43.9,43.9,0,0,0,3.33-7.722C111.607,5.722,112.165,5.578,112.777,5.416ZM136.3,9.448V7.54a20.671,20.671,0,0,0-2.376-.108c-.954,0-1.854.054-2.79.126v1.89a22.061,22.061,0,0,1,2.7-.2A19.562,19.562,0,0,1,136.3,9.448ZM132.235,5.83v-2a14.078,14.078,0,0,1-2.862,1.062c.126-.5.27-1.152.432-1.962.036-.18.072-.2.306-.306.162-.072.216-.126.216-.252,0-.2-.414-.288-.45-.288l-2.214-.522a21.857,21.857,0,0,1-.612,3.816,13.06,13.06,0,0,1-1.782.108,7.263,7.263,0,0,1-1.458-.108l.144,1.872a23.732,23.732,0,0,0,2.682-.216,29.968,29.968,0,0,1-3.654,8.568l2.2.666a51.047,51.047,0,0,0,3.708-9.576A21.724,21.724,0,0,0,132.235,5.83Zm4.356,10.3-.18-2.088a11.85,11.85,0,0,1-3.168.4,4.215,4.215,0,0,1-2.286-.486.618.618,0,0,1-.216-.54,3.4,3.4,0,0,1,.072-.666l-1.782-.378a4.172,4.172,0,0,0-.216,1.3c0,1.836,1.386,2.736,4.626,2.736A17.41,17.41,0,0,0,136.591,16.126Zm18.918-7a6.36,6.36,0,0,0-6.7-6.552,7.763,7.763,0,0,0-7.938,7.632,5.122,5.122,0,0,0,3.6,4.842c.936,0,1.764-1.512,2.3-2.628a25.556,25.556,0,0,0,2.232-8.01,4.6,4.6,0,0,1,3.06,1.206,4.244,4.244,0,0,1,1.3,3.15,5.631,5.631,0,0,1-1.3,3.582,6.063,6.063,0,0,1-3.24,1.926l1.332,1.854a8.69,8.69,0,0,0,4.194-3.168A6.726,6.726,0,0,0,155.509,9.124Zm-8.64-4.392c-.36,2.808-1.908,7.506-2.844,7.506-.324,0-1.152-.756-1.152-2.214a5.9,5.9,0,0,1,1.8-4A5.314,5.314,0,0,1,146.869,4.732Zm27.954,9.18-1.962-.828c0,1.026-.018,1.638-.684,1.638h-.756a.3.3,0,0,1-.342-.324V12.562h1.944V7.648h-8.3v4.914h1.782a2.813,2.813,0,0,1-1.1,1.638,5.744,5.744,0,0,1-3.4.846l1.332,1.818c1.44-.27,3.762-.684,4.842-3.06.27-.018.5-.036.5-.234,0-.072,0-.27-.324-.4l-1.566-.612h2.358v3.114a1.026,1.026,0,0,0,1.152,1.008h2.484C173.779,16.684,174.607,16.522,174.823,13.912Zm-3.654-4.374H166.6V8.872h4.572Zm0,1.8H166.6v-.7h4.572Zm3.114-4.086V5.722h-2.808a6.252,6.252,0,0,0,.666-1.44h1.62V2.788H170V2.05c0-.054,0-.072.09-.18.108-.09.144-.144.144-.216,0-.18-.2-.2-.27-.2l-2.376-.108v1.44h-3.438V4.282h1.26a10.612,10.612,0,0,1,.72,1.44h-2.016V4.84h-1.89V2.86c0-.072.162-.234.306-.4a.244.244,0,0,0,.108-.2c0-.252-.4-.288-.486-.288l-1.98-.18V4.84H158.8v2h1.368v5c-.486.18-1.008.4-1.818.666l.414,2.214c.018.108.072.324.234.324.126,0,.18-.054.45-.414.162-.216.2-.234.612-.432,1.332-.648,2.25-1.1,3.924-2V10.258c-1.008.45-1.314.576-1.764.756V6.838h1.854v.414Zm-4.14-2.97a8.954,8.954,0,0,1-.7,1.44h-1.188c-.108-.234-.558-1.242-.666-1.44Zm22.14,8.73V8.134h-4.716V7.576h3.69V1.762h-8.766V7.576h3.258v.558h-3.942v6.084h1.908V9.61h2.034v1.584c-.738.072-1.44.126-1.764.162l.144,1.476c0,.072.018.342.234.342.09,0,.324-.27.4-.306a9.324,9.324,0,0,1,1.314-.324c.774-.144,1.494-.36,2.322-.594.018.108.144.612.144.72l1.584-.486a10.283,10.283,0,0,0-.792-2.448l-1.494.468c.18.45.2.5.234.612a5.12,5.12,0,0,1-.5.108V9.61h2.808v2.3c0,.792-.144.936-.774.936-.09,0-1.026-.072-1.188-.09l.738,1.836a5.294,5.294,0,0,0,2.538-.558A1.3,1.3,0,0,0,192.283,13.012Zm-2.628-8.946h-2.088V3.148h2.088Zm0,2.124h-2.088V5.236h2.088Zm-3.906-2.124h-1.638V3.148h1.638Zm0,2.124h-1.638V5.236h1.638Zm-4.194-2.052a16.6,16.6,0,0,0-2.538-2.52l-1.53,1.4a24.545,24.545,0,0,1,2.466,2.484ZM193.183,14.4a56.391,56.391,0,0,1-7.974.558c-2.934,0-3.978-.288-3.978-2.2V7.594H177.2V9.52h2.07V13.5c-.648.4-1.62.918-2.538,1.35l.936,1.836c.036.072.252.378.432.378.072,0,.09-.054.2-.324.036-.072.072-.126.4-.378.4-.306,1.008-.81,1.386-1.116a4.177,4.177,0,0,0,1.476,1.026,4.852,4.852,0,0,0,1.854.378h8.82ZM209.545,9l-.612-2.052c-.846.378-1.08.486-3.186,1.476A2.412,2.412,0,0,0,203.3,6.6a3.481,3.481,0,0,0-1.548.378c.306-.468.45-.72,1.026-1.782a37.889,37.889,0,0,0,4.3-.684l.126-2.016a15.2,15.2,0,0,1-3.528.918c.09-.2.54-1.206.558-1.224.018,0,.378-.162.414-.18.108-.036.18-.09.18-.2,0-.126-.306-.162-.36-.18l-2.25-.4a13.958,13.958,0,0,1-.9,2.394,25.317,25.317,0,0,1-3.438-.072l.216,1.872c.756,0,1.314-.018,2.34-.072a23.933,23.933,0,0,1-3.546,4.95l1.764,1.1c.99-1.62,2.07-3.258,3.834-3.258a1.247,1.247,0,0,1,1.368,1.188c-2.7,1.386-4.356,2.232-4.356,4.464a2.461,2.461,0,0,0,.684,1.764c1.134,1.206,3.222,1.206,4.23,1.206a29.79,29.79,0,0,0,4.284-.27V14.47a20.812,20.812,0,0,1-4.59.576c-1.314,0-2.7-.234-2.7-1.4,0-1.26,1.872-2.2,2.556-2.538-.018.792-.036,1.674-.09,2.7h2.088c0-.612-.036-2.844-.036-3.546C207.259,9.754,208.123,9.448,209.545,9Zm19.818,7.362V14.686H225.6V12.958h3.186v-1.62H225.6V9.664h3.366V1.96h-8.586v7.7h3.348v1.674h-3.042v1.62h3.042v1.728h-5.058V16.36ZM227.149,5.02H225.6V3.58h1.548Zm0,3.114H225.6v-1.6h1.548Zm-3.42-3.114H222.2V3.58h1.53Zm0,3.114H222.2v-1.6h1.53Zm-4.158,4.41V10.978a19.377,19.377,0,0,1-1.926.576V8.584h1.53V6.82h-1.53v-2.9h1.818V2.284H213.9V3.922h1.8v2.9h-1.53V8.584h1.53V12.13c-.612.2-1.35.414-2.178.594l.342,1.728c.054.252.108.342.18.342s.27-.288.306-.324c.144-.108,1.782-.63,2.124-.756C217.519,13.336,218.545,12.958,219.571,12.544Zm20.088,2.88V5.488h-1.836l1.332-2.178-.45-.63h-2.88c.126-.306.144-.342.306-.378.108-.036.234-.072.234-.216s-.144-.2-.468-.252l-1.566-.27a17,17,0,0,1-2.61,4.41l1.566.684a25.094,25.094,0,0,1,.126,2.61,12.785,12.785,0,0,1-1.476,6.84l1.656.612a13.291,13.291,0,0,0,1.206-4.014h3.384v1.962c0,.54-.5.648-.936.648-.108,0-.306-.018-.54-.036l.5,1.53C238,16.792,239.659,16.756,239.659,15.424Zm-3.8-7.038h-.954V7.054h.954Zm2.322,0h-.99V7.054h.99Zm0,2.772h-.99V9.808h.99Zm-2.322,0h-.918V9.808h.918Zm.684-7-.828,1.332h-1.458a11.512,11.512,0,0,0,.81-1.332Zm11.268-2.142h-7.4V3.4h1.548A4.056,4.056,0,0,1,239.7,6.532l1.4,1.116a7.18,7.18,0,0,1-1.4,2.862l1.368.972a11.178,11.178,0,0,0,.7-1.17h1.8v1.566h-3.06v1.566h3.06V16.72h1.782V13.444h2.286V11.878h-2.286V10.312h2.088V8.728h-2.088V8.4a.5.5,0,0,1,.18-.306.567.567,0,0,0,.144-.27c0-.126-.432-.2-.684-.252,1.656-.108,2.772-.54,2.808-3.744ZM245.887,3.4c-.018,1.188-.036,2.412-1.26,2.412a3.823,3.823,0,0,1-.54-.036l.738,1.782-1.26-.144V8.728h-1.116l.036-.162c.216-.108.27-.126.27-.252s-.432-.27-.648-.36l-.7-.27A7.075,7.075,0,0,0,243.961,3.4Zm18.936,8.208-1.764-1.458c-1.764,3.456-4.176,4.086-5.184,4.086a1.736,1.736,0,0,1-1.584-.756,9.477,9.477,0,0,1-.342-3.186,68.03,68.03,0,0,1,.5-7.2c.288-.234.5-.378.5-.522,0-.108-.162-.234-.594-.288l-2.394-.342c.054,1.206-.09,6.552-.09,7.65,0,4.32.288,5.238,1.134,5.976a4,4,0,0,0,2.628.918,6.506,6.506,0,0,0,3.582-1.152A13.43,13.43,0,0,0,264.823,11.608Zm18.36-2.16V7.54a20.671,20.671,0,0,0-2.376-.108c-.954,0-1.854.054-2.79.126v1.89a22.061,22.061,0,0,1,2.7-.2A19.562,19.562,0,0,1,283.183,9.448ZM279.115,5.83v-2a14.078,14.078,0,0,1-2.862,1.062c.126-.5.27-1.152.432-1.962.036-.18.072-.2.306-.306.162-.072.216-.126.216-.252,0-.2-.414-.288-.45-.288l-2.214-.522a21.86,21.86,0,0,1-.612,3.816,13.06,13.06,0,0,1-1.782.108,7.262,7.262,0,0,1-1.458-.108l.144,1.872a23.732,23.732,0,0,0,2.682-.216,29.968,29.968,0,0,1-3.654,8.568l2.2.666a51.046,51.046,0,0,0,3.708-9.576A21.724,21.724,0,0,0,279.115,5.83Zm4.356,10.3-.18-2.088a11.85,11.85,0,0,1-3.168.4,4.215,4.215,0,0,1-2.286-.486.618.618,0,0,1-.216-.54,3.4,3.4,0,0,1,.072-.666l-1.782-.378a4.172,4.172,0,0,0-.216,1.3c0,1.836,1.386,2.736,4.626,2.736A17.41,17.41,0,0,0,283.471,16.126Zm19.026.5V1.834h-7.686V16.756h1.98v-1.08h3.69v.954Zm-2.016-7.02h-3.69V7.468h3.69Zm0-3.888h-3.69V3.58h3.69Zm0,8.118h-3.69V11.356h3.69Zm-6.048-4.158a12.448,12.448,0,0,1-2.448-3.708v-.2h2.358V4.066h-2.358V2.122c0-.054.09-.126.18-.2s.108-.126.108-.162c0-.2-.378-.216-.486-.234l-1.638-.162v2.7H287.5v1.71h2.484a15.221,15.221,0,0,1-3.24,6.318l1.674.99a14.544,14.544,0,0,0,1.728-2.592v6.264h1.836V9.538a16.654,16.654,0,0,0,1.116,1.476ZM20.734,42.1V40.192H14.056V38.464h5.526v-1.89H14.056V34.54c1.854-.252,2.754-.468,3.132-.54.2-.036.594-.126.882-.18a1.623,1.623,0,0,0,.72.252.24.24,0,0,0,.252-.216.759.759,0,0,0-.2-.378l-1.422-1.8A23.826,23.826,0,0,1,8.6,33.154c-1.152,0-1.89-.054-2.556-.09l.936,1.962c1.854-.018,3.042-.09,4.788-.234v1.782H6.262v1.89H11.77v1.728H5.146V42.1H11.77v2.592a.74.74,0,0,1-.828.846,8.016,8.016,0,0,1-1.494-.216l.882,2.232c2.916-.018,3.726-.342,3.726-2.448V42.1ZM37.2,35.836V33.748a12.574,12.574,0,0,1-4.266.738,15.855,15.855,0,0,1-2.3-.2v1.98c.954.09,1.782.09,1.926.09A24.175,24.175,0,0,0,37.2,35.836Zm.864,9.45V43.054a14.683,14.683,0,0,1-4.1.558c-1.818,0-2-.486-2.016-2.2l-1.962.27c.054,3.042.738,3.924,4.014,3.924A24.6,24.6,0,0,0,38.068,45.286Zm-9.414-3.2-1.062-.576c-.4.7-.5.882-.72,1.26A9.9,9.9,0,0,1,26.62,40.3c0-2.718.774-5.976,1.044-6.138.036-.018.27-.108.306-.126a.213.213,0,0,0,.09-.162c0-.144-.342-.27-.468-.324l-1.836-.666a35.477,35.477,0,0,0-.756,4.1,31.839,31.839,0,0,0-.27,3.546,15.682,15.682,0,0,0,.738,4.734,5.51,5.51,0,0,0,.666,1.422l1.422-.558A15.969,15.969,0,0,1,28.654,42.082Zm13.122,1.566a14.8,14.8,0,0,1,3.474,4l1.872-1.494a10.588,10.588,0,0,0-4-3.906ZM66.85,41.236a30.014,30.014,0,0,0-5.076-4.59l-1.26,1.44a27.939,27.939,0,0,1,4.752,4.68Zm-.162-6.84V32.488H51.406V34.4h7.416a13.376,13.376,0,0,1-2.43,3.168,16.85,16.85,0,0,1-5.382,3.474l1.386,1.8a21.93,21.93,0,0,0,5.544-3.8V47.5H60.1V37.33c0-.108.036-.144.306-.378a.284.284,0,0,0,.108-.2c0-.162-.162-.216-.252-.234a14.974,14.974,0,0,0,1.4-2.124Zm18.288,5.76V38.32H77.11c.162-.27.828-1.674.882-1.71.036-.018.288-.054.324-.072.09-.036.108-.09.108-.126,0-.144-.288-.27-.36-.324l-1.44-.684h6.1v1.818h2v-3.6H78.5v-.576c0-.126.054-.18.288-.342a.279.279,0,0,0,.126-.216c0-.108-.126-.2-.5-.216l-2.16-.108v1.458H70.162V37.15h1.962V35.4h4.032a18.078,18.078,0,0,1-1.35,2.916h-5.04v1.836h3.96a22.428,22.428,0,0,1-2.088,2.826l2.052.864c.18-.234.216-.27.522-.72a12.017,12.017,0,0,1,2.376.81,12.784,12.784,0,0,1-6.372,1.692l.99,1.818c4.356-.45,6.084-1.728,7.254-2.592a18.914,18.914,0,0,1,4.05,2.754l1.584-1.674a23.43,23.43,0,0,0-4.158-2.52,17.08,17.08,0,0,0,2.052-3.258Zm-5.31,0a10.555,10.555,0,0,1-1.53,2.484,18.11,18.11,0,0,0-3.024-.918c.594-.954.648-1.044.954-1.566ZM91.24,38.068a1.692,1.692,0,1,0,1.692,1.692A1.7,1.7,0,0,0,91.24,38.068Zm22.212,7.344a17.653,17.653,0,0,1-2.034.144,4.4,4.4,0,0,1-1.872-.27V42.928h3.2V41.11h-3.2V38.878h1.368a12.536,12.536,0,0,1-.81,1.242l1.764.558c.27-.45.99-1.71,1.422-2.556L112.3,37.1h-2.034l.612-.756a4.138,4.138,0,0,0-.738-.522,31.8,31.8,0,0,0,2.556-2.5l-.9-.936H105.28v1.764h4.05a6.4,6.4,0,0,1-.684.954,9.278,9.278,0,0,0-1.89-.54l-.81,1.548a8.847,8.847,0,0,1,2.448.99h-3.708v1.782h2.934v5.256a3.125,3.125,0,0,1-.918-1.242c.09-.432.216-.99.342-1.908.018-.09.036-.108.234-.2.072-.036.144-.072.144-.162,0-.18-.306-.252-.45-.27l-1.6-.288c-.342,4.176-1.548,5.418-2.682,6.57l1.674,1.008a8.494,8.494,0,0,0,1.674-2.718,5.353,5.353,0,0,0,4.536,2.466h2Zm-8.748-10.1-1.476-.954c-.036.27-.234,1.548-.918,1.548h-1.656c-.612,0-.612-.18-.612-.378v-.36c1.368-.414,2.5-.846,2.808-.972a9.357,9.357,0,0,1,.9-.324c.054,0,.324.072.378.072.036,0,.2,0,.2-.144a.685.685,0,0,0-.144-.306l-.972-1.512a20.248,20.248,0,0,1-3.168,1.386v-.72c0-.09.072-.144.162-.2.234-.108.324-.162.324-.288,0-.216-.234-.252-.486-.252l-1.962-.036V36.16a1.4,1.4,0,0,0,.666,1.314,8.657,8.657,0,0,1-1.8,3.1l1.422.954H97.324v1.728h2.5a6.062,6.062,0,0,1-2.736,3.024l1.6,1.314a8.662,8.662,0,0,0,2.466-3.15,7.948,7.948,0,0,0,1.386,1.926l1.314-1.458a6.084,6.084,0,0,1-1.6-1.656h2.16V41.524h-2.2v-1.08h1.926v-1.71h-3.87a3.916,3.916,0,0,0,.252-.45,2.646,2.646,0,0,0,.234-.18c.018-.036.054-.072.054-.108,0-.09-.09-.18-.252-.234l-.234-.072h2.412C104.038,37.69,104.452,36.538,104.7,35.314Zm-4.482,5.13a8.548,8.548,0,0,1-.054,1.08H98.746c.2-.288.306-.468.666-1.08ZM130.768,45.7V32.4h-6.516v6.12h4.572v6.318c0,.522-.18.7-.594.7a10.2,10.2,0,0,1-1.08-.072l.936,2.088h.9C130.426,47.554,130.768,47,130.768,45.7Zm-1.944-10.944h-2.61V33.8h2.61Zm0,2.358h-2.61v-.99h2.61Zm-6.048,1.4V32.4H116.17V47.5h2V38.518Zm-1.944-3.762h-2.664V33.8h2.664Zm0,2.358h-2.664v-.99h2.664Zm5.994,7.668V39.634h-6.8v5.994h2v-.846Zm-2-1.6H122.02V41.236h2.808Zm12.492-5.112a1.692,1.692,0,1,0,1.692,1.692A1.7,1.7,0,0,0,137.32,38.068Zm21.708,1.494c0-.162-.2-.2-.432-.216l-1.89-.09V44.98H150.64V43.972l1.476.99a13.18,13.18,0,0,0,1.746-1.836,18.73,18.73,0,0,1,1.1,1.656l1.71-1.242a15.442,15.442,0,0,0-1.494-2.16,11.055,11.055,0,0,0,1.188-2.178c.036-.072.252-.126.4-.18a.194.194,0,0,0,.144-.18c0-.18-.306-.306-.522-.36l-1.728-.468a7.348,7.348,0,0,1-.792,1.836,11.526,11.526,0,0,0-1.458-1.3l-1.35,1.044a1.589,1.589,0,0,0-.666-.18l-1.674-.09v8.01h1.926V46.8h6.066v.522h1.926V40.174a.566.566,0,0,1,.252-.378C158.938,39.742,159.028,39.652,159.028,39.562Zm-6.354,2.052a6.623,6.623,0,0,1-2.034,1.728V40.174c0-.18.162-.252.288-.324A13.224,13.224,0,0,1,152.674,41.614Zm6.624-8.406c0-.18-.234-.27-.45-.324l-2.034-.558a33.2,33.2,0,0,1-2.016,4.95l2.034.684a24,24,0,0,0,1.872-4.248.56.56,0,0,1,.378-.306C159.19,33.37,159.3,33.334,159.3,33.208Zm-4.356,3.06a19.41,19.41,0,0,0-1.224-4.1l-1.854.576a16.074,16.074,0,0,1,1.332,3.978Zm-2.736.684a15.359,15.359,0,0,0-1.692-4.158l-1.71.756a13.033,13.033,0,0,1,1.656,4.032Zm-2.412.99a9.379,9.379,0,0,0-1.242-2.97l-.954.36V33.01c.2-.126.4-.27.4-.432,0-.18-.144-.27-.612-.306l-1.764-.144V35.4a1.738,1.738,0,0,0-.324-.054l-1.512-.108a15.225,15.225,0,0,1-.684,4.464l1.8.144a14.925,14.925,0,0,0,.54-3.978c.072-.036.09-.054.18-.108v11.61h1.98V36.718a5.706,5.706,0,0,1,.666,2.052ZM176.9,41.956c-.774-.5-1.332-.846-2.322-1.4a21.726,21.726,0,0,0,.612-2.682c.054-.252.054-.288.2-.378.252-.126.27-.144.27-.234,0-.162-.252-.252-.432-.306l-2.016-.558a15.3,15.3,0,0,1-.468,3.294,11.583,11.583,0,0,0-3.474-.828c.252-.558,1.53-3.456,1.548-3.528a7.337,7.337,0,0,1,.936-1.53l-1.188-1.188c-.972.63-3.1.99-5.868.972l.81,1.818a12.563,12.563,0,0,0,3.276-.558,41.68,41.68,0,0,1-1.458,3.906,4.857,4.857,0,0,0-2.862.864,4.473,4.473,0,0,0-2.124,3.564,2.1,2.1,0,0,0,2.034,2.322c1.584,0,2.358-1.152,4.14-4.968a11.144,11.144,0,0,1,3.6,1.008,8.707,8.707,0,0,1-3.582,4.23l1.782,1.242a10.038,10.038,0,0,0,3.564-4.482c.414.27.918.612,1.872,1.35Zm-10.386-1.368a20.437,20.437,0,0,1-1.188,2.232.821.821,0,0,1-.756.432c-.126,0-.36-.018-.36-.486C164.212,42.1,164.968,41.074,166.516,40.588Zm27.666-.99-.612-2.052c-.846.378-1.08.486-3.186,1.476a2.412,2.412,0,0,0-2.448-1.818,3.481,3.481,0,0,0-1.548.378c.306-.468.45-.72,1.026-1.782a37.889,37.889,0,0,0,4.3-.684l.126-2.016a15.2,15.2,0,0,1-3.528.918c.09-.2.54-1.206.558-1.224.018,0,.378-.162.414-.18.108-.036.18-.09.18-.2,0-.126-.306-.162-.36-.18l-2.25-.4a13.958,13.958,0,0,1-.9,2.394,25.318,25.318,0,0,1-3.438-.072l.216,1.872c.756,0,1.314-.018,2.34-.072a23.933,23.933,0,0,1-3.546,4.95l1.764,1.1c.99-1.62,2.07-3.258,3.834-3.258a1.247,1.247,0,0,1,1.368,1.188c-2.7,1.386-4.356,2.232-4.356,4.464a2.461,2.461,0,0,0,.684,1.764c1.134,1.206,3.222,1.206,4.23,1.206a29.79,29.79,0,0,0,4.284-.27V45.07a20.812,20.812,0,0,1-4.59.576c-1.314,0-2.7-.234-2.7-1.4,0-1.26,1.872-2.2,2.556-2.538-.018.792-.036,1.674-.09,2.7H190.6c0-.612-.036-2.844-.036-3.546C191.9,40.354,192.76,40.048,194.182,39.6Zm18.558,2.61-1.764-1.458c-1.764,3.456-4.176,4.086-5.184,4.086a1.736,1.736,0,0,1-1.584-.756,9.478,9.478,0,0,1-.342-3.186,68.034,68.034,0,0,1,.5-7.2c.288-.234.5-.378.5-.522,0-.108-.162-.234-.594-.288l-2.394-.342c.054,1.206-.09,6.552-.09,7.65,0,4.32.288,5.238,1.134,5.976a4,4,0,0,0,2.628.918,6.506,6.506,0,0,0,3.582-1.152A13.43,13.43,0,0,0,212.74,42.208Zm17.784-1.062c0-2.862-2.016-4.068-4.248-4.068a11.115,11.115,0,0,0-2.9.486,30.916,30.916,0,0,1-4.824,1.134l.882,1.89c1.71-.612,2.88-.99,3.24-1.1a16.994,16.994,0,0,1,3.51-.828,2.37,2.37,0,0,1,2.592,2.376c0,2.718-3.708,3.384-5.2,3.384-.288,0-.648-.018-1.314-.072l.936,1.89C226.258,45.9,230.524,45.2,230.524,41.146Zm19.782-1.206c0-.648-.45-2.772-2.808-5.292L246,35.728a9.206,9.206,0,0,1,2,3.492c0,.432-.414.468-1.188.54l1.224,1.854C249.19,41.4,250.306,40.966,250.306,39.94Zm-4.266-.792c0-1.1-.2-3.1-2.646-3.1a8.437,8.437,0,0,0-1.422.144c.126-.684.252-1.314.342-1.962.018-.18.054-.2.378-.4.2-.126.234-.18.234-.252,0-.162-.36-.27-.5-.288l-2.2-.306a18.633,18.633,0,0,1-.4,3.6c-.792.126-2.448.432-3.762.54l.72,2.178a22.66,22.66,0,0,1,2.556-.774,18.893,18.893,0,0,1-3.564,7.038l2.052.918a29.837,29.837,0,0,0,3.726-8.388,6.779,6.779,0,0,1,1.026-.09c1.3,0,1.494.576,1.494,1.53a10.642,10.642,0,0,1-1.1,4.482,1.107,1.107,0,0,1-1.08.45,5.033,5.033,0,0,1-1.62-.288l.252,2.178a11.385,11.385,0,0,0,1.548.108,2.8,2.8,0,0,0,2.7-1.386A13.8,13.8,0,0,0,246.04,39.148Zm20.34-.936c0-1.188-.108-2.52-.216-3.78-.018-.18-.108-.936-.108-1.1s.324-.27.324-.432c0-.234-.324-.234-.378-.234h-2.178a46.963,46.963,0,0,1,.45,5.6,10.94,10.94,0,0,1-1.1,4.824,7.944,7.944,0,0,1-2.556,3.042l2.142,1.134a12.051,12.051,0,0,0,2.52-3.69A13.277,13.277,0,0,0,266.38,38.212Zm-5.778-.558-1.26-.828c-.45,1.008-.81,1.944-1.044,2.556a4.055,4.055,0,0,1-.126-1.116c0-1.08.288-4.518.666-4.824.072-.072.252-.144.252-.27,0-.18-.27-.216-.378-.216l-1.962-.108a34.067,34.067,0,0,0-.5,5.328,14.191,14.191,0,0,0,.81,4.9h1.53A41.686,41.686,0,0,1,260.6,37.654Zm24.426,8.964v-2.3a23.327,23.327,0,0,1-5.562.81c-1.89,0-3.312-.63-3.312-1.926,0-1.206,1.332-2.124,2.142-2.628a27.08,27.08,0,0,1,6.66-2.844l-.666-2.2c-2.214,1.044-2.448,1.152-4.518,2.124a2.191,2.191,0,0,1-1.044-1.224,14.565,14.565,0,0,1-.522-4.266l-2.3.342c.576,3.438.666,3.96.918,4.554a5.668,5.668,0,0,0,1.062,1.62c-1.98,1.17-3.726,2.322-3.726,4.572a3.43,3.43,0,0,0,1.836,3.078,7.74,7.74,0,0,0,3.96.72A32.289,32.289,0,0,0,285.028,46.618Zm20.466.612v-14.8h-7.686V47.356h1.98v-1.08h3.69v.954Zm-2.016-7.02h-3.69V38.068h3.69Zm0-3.888h-3.69V34.18h3.69Zm0,8.118h-3.69V41.956h3.69Zm-6.048-4.158a12.448,12.448,0,0,1-2.448-3.708v-.2h2.358v-1.71h-2.358V32.722c0-.054.09-.126.18-.2s.108-.126.108-.162c0-.2-.378-.216-.486-.234l-1.638-.162v2.7H290.5v1.71h2.484a15.221,15.221,0,0,1-3.24,6.318l1.674.99a14.544,14.544,0,0,0,1.728-2.592v6.264h1.836V40.138a16.654,16.654,0,0,0,1.116,1.476ZM47.14,64.546V63H42.91v1.548Zm.522,2.25V65.284H42.208V66.8Zm9.9,9.648c-3.6-1.242-4.1-3.24-4.1-5.22a.412.412,0,0,1,.2-.432c.216-.2.306-.288.306-.432,0-.162-.144-.234-.7-.234l-1.926-.018c.018.288.054.72.054,1.17,0,4.32-2.754,4.986-3.87,5.22V72.34H42.442v5.652h1.782v-.72h1.494v.558h1.8V76.7l1.458,1.566a6.231,6.231,0,0,0,3.6-3.186,8.007,8.007,0,0,0,3.456,3.042Zm-11.844-.7H44.224V73.906h1.494ZM57.4,64.726c0-.126-.144-.234-.216-.27l-1.692-.918a10.761,10.761,0,0,1-1.782,2.178l1.44,1.134a8.268,8.268,0,0,0,1.6-1.8c.09-.108.126-.108.4-.126C57.22,64.906,57.4,64.888,57.4,64.726Zm.378,4.536a9.345,9.345,0,0,1-3.438-1.836,2.907,2.907,0,0,1-.972-2.412,7.608,7.608,0,0,1,.108-1.746,1.976,1.976,0,0,0,.2-.216.289.289,0,0,0,.09-.2c0-.162-.2-.2-.684-.216l-1.8-.036c.036.432.072.99.072,1.6,0,2.52-.468,4.05-3.816,5.058l1.386,1.6a7.4,7.4,0,0,0,3.546-2.916,8.253,8.253,0,0,0,3.762,2.988ZM50.56,64.636c0-.108-.144-.144-.4-.2l-1.656-.306a11.809,11.809,0,0,1-.4,2.862l1.764.324a15.536,15.536,0,0,0,.324-2.34C50.344,64.906,50.56,64.78,50.56,64.636Zm6.678,7.4c0-.126-.2-.27-.288-.306l-1.674-.7a9.923,9.923,0,0,1-1.3,2l1.548,1.008A8.288,8.288,0,0,0,56.644,72.3c.09-.018.2-.072.324-.09C57.148,72.178,57.238,72.142,57.238,72.034Zm-10.08-2.97v-1.53h-4.32v1.53Zm3.708,2.97c0-.108-.126-.162-.4-.216l-1.8-.378a8.045,8.045,0,0,1-.738,2.718l1.8.594a9.827,9.827,0,0,0,.756-2.394C50.632,72.286,50.866,72.178,50.866,72.034Zm-3.708-.558V69.964h-4.32v1.512ZM75.4,68.524a8.3,8.3,0,0,0-1.494-1.368l-.756.864a8.333,8.333,0,0,1,1.494,1.368Zm-1.458,1.638a7.848,7.848,0,0,0-1.494-1.386l-.738.864a7.992,7.992,0,0,1,1.476,1.386Zm.594-4.7V63.376a49.778,49.778,0,0,1-12.87,1.44l.306,2.016c1.8-.252,4.446-.468,6.858-.666A13.421,13.421,0,0,0,66.454,68.9a6.548,6.548,0,0,0-1.224,3.582,4.515,4.515,0,0,0,1.332,3.24,8.078,8.078,0,0,0,4.428,2l.7-2.2a5.669,5.669,0,0,1-3.168-.918,2.857,2.857,0,0,1-1.3-2.34,6.682,6.682,0,0,1,2.2-4.32A7.335,7.335,0,0,1,74.536,65.464ZM92.1,67.948l-.324-1.8a20.522,20.522,0,0,1-3.276,1.62c-.288-.63-.36-.81-.594-1.368a11.856,11.856,0,0,0,2.844-1.224l-.4-1.746a17.374,17.374,0,0,1-3.078,1.386,15.689,15.689,0,0,1-.54-1.656c0-.054.018-.108.162-.252.09-.09.144-.144.144-.234,0-.216-.45-.162-.594-.144l-2.052.234c.288.846.486,1.422.9,2.538a22.2,22.2,0,0,1-4.194.36l.558,1.728a20.665,20.665,0,0,0,4.284-.486c.18.414.378.864.648,1.476a23.861,23.861,0,0,1-5.67.54l.63,1.818a23.215,23.215,0,0,0,5.778-.792c.342.666.5.99.936,1.764a13.749,13.749,0,0,0-2.574-.288c-2.034,0-3.978.666-3.978,3.132,0,2.376,2.232,3.4,5.472,3.4a18.12,18.12,0,0,0,2.844-.216l.18-2.124a13.131,13.131,0,0,1-3.6.486c-.612,0-2.952,0-2.952-1.53,0-.972.99-1.476,2.178-1.476a10.135,10.135,0,0,1,4.716,1.368l1.1-1.368a19.54,19.54,0,0,1-2.376-3.744A13.35,13.35,0,0,0,92.1,67.948Zm18.648,4.5a3.968,3.968,0,0,0-4-3.978,14.333,14.333,0,0,0-1.746.108,44.505,44.505,0,0,1,4-3.852l-.936-1.458a20.4,20.4,0,0,1-5.454.9c-.558,0-1.584-.072-2.016-.108l.414,2.016a16.8,16.8,0,0,0,4.212-.45,35.536,35.536,0,0,1-6.66,6.5l1.512,1.584a20.32,20.32,0,0,1,3.708-3.222,4.882,4.882,0,0,1,2.052-.45c1.17,0,2.916.576,2.916,2.358a3.171,3.171,0,0,1-1.188,2.394,4.7,4.7,0,0,0-3.546-2.106,2.521,2.521,0,0,0-2.646,2.394c0,1.332,1.152,2.466,3.4,2.466C107.944,77.542,110.752,75.436,110.752,72.448Zm-4.86,3.222a5.117,5.117,0,0,1-1.224.162c-.648,0-1.476-.18-1.476-.81a.793.793,0,0,1,.9-.756C105.118,74.266,105.658,75.256,105.892,75.67Zm25.524-6.282a7.239,7.239,0,0,0-.63-2.448l-1.206.27a2.909,2.909,0,0,1,.18.558c-.108.018-.774.108-.918.126.306-.324,1.638-1.836,1.908-2.142.072-.072.216-.054.36-.072.09-.018.144-.036.144-.108,0-.108-.144-.2-.216-.252l-1.224-.864a12.563,12.563,0,0,1-.864,1.494,2.583,2.583,0,0,0-.342-.4,21.126,21.126,0,0,0,1.332-1.71.51.51,0,0,1,.306-.2c.072-.036.108-.072.108-.126,0-.09-.09-.144-.2-.2l-1.3-.72a10.948,10.948,0,0,1-1.134,1.98c-.126-.144-.2-.216-.45-.486l-.846.936c0-.2.018-1.386.036-1.476,0-.054.126-.126.216-.2.09-.054.162-.108.162-.216,0-.162-.126-.216-.522-.252l-1.674-.144c0,3.618,0,4.77.09,6.1a8.617,8.617,0,0,0-.486-1.584l-1.17.36a3.171,3.171,0,0,1,.234.63c-.144.018-.81.09-.936.108.828-1.08,1.62-2.286,1.818-2.592a2.362,2.362,0,0,1,.27-.054c.09-.018.126-.054.126-.108,0-.09-.144-.2-.27-.27l-1.17-.648c-.09.18-.576,1.062-.648,1.188a2.324,2.324,0,0,0-.378-.378c.216-.252,1.17-1.656,1.278-1.692.054-.018.18-.036.216-.054.072-.018.108-.054.108-.09,0-.144-.18-.234-.306-.288L122.2,62.8a13.584,13.584,0,0,1-1.008,1.8,3.245,3.245,0,0,0-.36-.324l-.972,1.062a1.391,1.391,0,0,1,.252.18H119v-2.07c0-.054.2-.2.252-.234a.228.228,0,0,0,.126-.18c0-.144-.18-.2-.558-.216l-1.512-.09v2.79h-1.71v1.638h1.584a12.249,12.249,0,0,1-2.5,5.724l1.548.99a9.971,9.971,0,0,0,1.08-1.71v5.886H119V71.188a3.949,3.949,0,0,0,.756,1.008l.936-1.17v1.188h.522a6.6,6.6,0,0,1-2.052,4.716l1.4.954a7.931,7.931,0,0,0,1.926-3.474,7.027,7.027,0,0,1,1.368,1.4l1.152-1.116a8.891,8.891,0,0,0-1.566-1.62l-.846.864a8.052,8.052,0,0,0,.234-1.728H125.1a9.854,9.854,0,0,0,.954,2.808,8.483,8.483,0,0,1-3.024,1.746l1.152,1.278a10.55,10.55,0,0,0,2.79-1.674c.432.522,1.332,1.6,2.43,1.6.306,0,.792-.036,1.548-2.232l-1.26-1.026c-.072.252-.342,1.08-.648,1.08-.252,0-.63-.45-.828-.684a11.71,11.71,0,0,0,1.134-1.512c.09-.162.18-.162.36-.216a.159.159,0,0,0,.144-.162c0-.126-.18-.27-.324-.36l-.936-.648h2.34V70.648h-2.322l.828-.324a5.747,5.747,0,0,0-.63-1.134l-1.386.594a5.664,5.664,0,0,1,.468.864h-1.314a39.674,39.674,0,0,1-.144-5.238,7.318,7.318,0,0,1,1.548,1.692,7.417,7.417,0,0,1-.738.792,2.676,2.676,0,0,1-.5.054l.324,1.26c.054.216.072.324.162.324.054,0,.144-.144.234-.216.072-.018,2.124-.36,2.52-.45.054.216.144.684.162.864Zm-3.186,2.826a6.257,6.257,0,0,1-.936,1.53,6.277,6.277,0,0,1-.486-1.53Zm-3.366-1.566h-4.176v.108A6.424,6.424,0,0,1,119,68.4V67.156h1.44v-1.35a13.272,13.272,0,0,1,1.224,1.35l-.882,1.278c-.234,0-.432,0-.666-.018l.378,1.206c.072.216.126.378.234.378.072,0,.162-.234.252-.306.18-.036,2.2-.234,2.61-.324.072.414.09.468.108.63l1.08-.342C124.81,70.072,124.81,70.162,124.864,70.648Zm24.75-3.168a16.361,16.361,0,0,1-3.492-1.584,13.428,13.428,0,0,1-3.042-2.574.256.256,0,0,0,.162-.234c0-.126-.126-.216-.27-.234L140.4,62.4a12.654,12.654,0,0,1-6.57,5.49l1.368,1.584a16.02,16.02,0,0,0,2.25-1.17v1.476h8.676v-1.53a10.837,10.837,0,0,0,2.07.954ZM145.672,68h-7.74a17.531,17.531,0,0,0,3.726-3.528A16.338,16.338,0,0,0,145.672,68Zm2.97,8.856a26.632,26.632,0,0,0-4.194-4.248h3.8V70.864h-13.23V72.61H139.1c-.81,1.548-1.188,2.178-1.638,2.9-.9.036-1.4.054-2.538.054l.576,2.358a.211.211,0,0,0,.162.162c.054,0,.108-.054.216-.27a.228.228,0,0,1,.18-.126c.432-.072,2.34-.234,2.718-.27.522-.054,4.572-.5,7.038-.81a12.4,12.4,0,0,1,1.188,1.6Zm-4.284-1.818c-1.494.18-2.988.27-4.5.342.324-.486.846-1.278,1.692-2.772h2.7l-1.3,1.314A10.888,10.888,0,0,1,144.358,75.04ZM166.282,70.2l-.612-2.052c-.846.378-1.08.486-3.186,1.476a2.412,2.412,0,0,0-2.448-1.818,3.481,3.481,0,0,0-1.548.378c.306-.468.45-.72,1.026-1.782a37.889,37.889,0,0,0,4.3-.684l.126-2.016a15.2,15.2,0,0,1-3.528.918c.09-.2.54-1.206.558-1.224.018,0,.378-.162.414-.18.108-.036.18-.09.18-.2,0-.126-.306-.162-.36-.18l-2.25-.4a13.958,13.958,0,0,1-.9,2.394,25.316,25.316,0,0,1-3.438-.072l.216,1.872c.756,0,1.314-.018,2.34-.072a23.933,23.933,0,0,1-3.546,4.95l1.764,1.1c.99-1.62,2.07-3.258,3.834-3.258a1.247,1.247,0,0,1,1.368,1.188c-2.7,1.386-4.356,2.232-4.356,4.464a2.461,2.461,0,0,0,.684,1.764c1.134,1.206,3.222,1.206,4.23,1.206a29.789,29.789,0,0,0,4.284-.27V75.67a20.812,20.812,0,0,1-4.59.576c-1.314,0-2.7-.234-2.7-1.4,0-1.26,1.872-2.2,2.556-2.538-.018.792-.036,1.674-.09,2.7H162.7c0-.612-.036-2.844-.036-3.546C164,70.954,164.86,70.648,166.282,70.2Zm19.026-1.62V62.692h-8.19v5.886ZM183.4,65h-4.374v-.774H183.4Zm0,2.07h-4.374v-.792H183.4Zm2.97,8.892a28.764,28.764,0,0,1-4.5.216v-2.16h3.348V72.2H181.87v-1.17h4.266V69.262h-9.522v1.764h3.258v4.59a2.83,2.83,0,0,1-1.17-1.476c.036-.18.162-1.08.18-1.17.018-.072.054-.126.252-.288.144-.09.216-.162.216-.306,0-.108-.054-.234-.54-.27l-1.782-.162a5.963,5.963,0,0,1-2.322,5.184l1.674,1.206a7.8,7.8,0,0,0,1.8-2.592,4.146,4.146,0,0,0,1.062,1.3,5.481,5.481,0,0,0,3.726,1.1h2.664Zm-9.882-8.91v-1.89h-1.764V63.3c0-.09.054-.144.18-.252.09-.09.162-.162.162-.27s0-.216-.684-.234l-1.62-.054v2.664H170.62v1.89h2.142V69.8c-1.314.432-1.836.558-2.2.648l.09,2.07c.018.414.018.558.27.558.144,0,.162,0,.36-.306.09-.144.162-.162.7-.36.126-.036.432-.162.774-.306v3.546c0,.342-.072.432-.216.468-.126.036-1.332,0-1.584,0l.72,2.088c.648-.018,3.042-.036,3.042-1.332V71.26c.99-.414,1.26-.522,1.638-.684V68.47c-.4.144-1.17.45-1.638.648v-2.07Zm27.918,5.634V70.828h-2.754v-3.1h2.358V65.86h-2.358V63.592c0-.09.162-.252.18-.27a.572.572,0,0,0,.2-.324c0-.234-.684-.27-.918-.288l-1.6-.072V65.86h-1.656V63.574c.162-.2.4-.306.4-.54s-.522-.252-.648-.252l-1.872-.108V65.86h-2.088v1.872h2.088v3.1h-2.448v1.854Zm-4.9-1.854h-1.656v-3.1h1.656Zm4.644,5.58a24.613,24.613,0,0,1-3.4-3.348l-1.458,1.134a27.8,27.8,0,0,0,3.312,3.672Zm-9.972-12.834c0-.2-.36-.324-.378-.324l-1.872-.486a19.532,19.532,0,0,1-3.6,6.912l1.638,1.17a6.238,6.238,0,0,0,.666-.918v8.028h1.98V67.264c0-.072.09-.162.162-.216.018-.036.2-.162.2-.27s-.054-.126-.45-.36c.306-.63.5-1.062.99-2.268.072-.126.09-.18.342-.27C194.074,63.79,194.182,63.7,194.182,63.574ZM198.106,74.5a.467.467,0,0,0-.2-.288l-1.746-.918a13.19,13.19,0,0,1-3.006,3.546l1.548,1.3a18.934,18.934,0,0,0,2.772-3.222c.072-.126.108-.18.324-.18C197.872,74.716,198.106,74.716,198.106,74.5Zm23.454-1.692L219.8,71.35c-1.764,3.456-4.176,4.086-5.184,4.086a1.736,1.736,0,0,1-1.584-.756,9.478,9.478,0,0,1-.342-3.186,68.034,68.034,0,0,1,.5-7.2c.288-.234.5-.378.5-.522,0-.108-.162-.234-.594-.288l-2.394-.342c.054,1.206-.09,6.552-.09,7.65,0,4.32.288,5.238,1.134,5.976a4,4,0,0,0,2.628.918,6.506,6.506,0,0,0,3.582-1.152A13.43,13.43,0,0,0,221.56,72.808Zm17.568,2.286a14.964,14.964,0,0,0-4.554-2.034c-.054-1.062-.054-1.242-.09-2.142a38.692,38.692,0,0,0,3.852-.45V68.506c-1.656.306-2.322.414-3.888.612V66.994c.9-.018,2.574-.054,4.572-.054l.072-1.908c-1.692.126-2.3.162-4.608.27.018-.936.036-1.278.036-1.3a.585.585,0,0,1,.234-.324c.2-.162.234-.18.234-.252,0-.126-.108-.18-.45-.216l-2.2-.216.054,2.394c-1.6.036-2.574.072-4.626.072l.036,1.944c1.548-.18,2.574-.252,4.644-.342l.036,2.25a12.352,12.352,0,0,1-1.242.036c-.306,0-.684,0-.684-.252,0-.234.27-.432.594-.666l-1.026-.882c-.7.5-1.926,1.35-1.926,2.232,0,.7.828,1.3,2.484,1.3.522,0,1.512-.036,1.836-.054l.036,1.728-.5-.018c-4.05-.144-4.23,1.944-4.23,2.466,0,1.458,1.548,2.34,4.032,2.34,2.3,0,2.736-.72,2.808-2.556a13.569,13.569,0,0,1,3.294,1.782Zm-6.552-.63c.018,1.008-.054,1.332-1.224,1.332-.216,0-1.368,0-1.368-.612,0-.468.576-.774,1.746-.774A4.659,4.659,0,0,1,232.576,74.464Zm25.992-7.686V64.834c-1.836.144-2.394.2-4.9.342V63.322c0-.072.018-.108.144-.216s.162-.162.162-.27c0-.18-.108-.234-.522-.252l-2-.126c.108,1.314.108,2.268.126,2.826-3.78.18-5.328.18-6.552.18v2.088c2.286-.288,5-.45,6.606-.54l.036,1.35a2.374,2.374,0,0,0-.846-.144c-1.836,0-2.826,1.368-2.826,3.348a3.221,3.221,0,0,0,.936,2.5,2.266,2.266,0,0,0,1.476.558,3.62,3.62,0,0,0,.972-.18,5.744,5.744,0,0,1-2.574,2.952l2.016,1.044a12.488,12.488,0,0,0,2.448-3.348,8.071,8.071,0,0,0,.918-3.474,4.643,4.643,0,0,0-.522-2.2V66.9C256.012,66.814,257.2,66.778,258.568,66.778Zm-6.552,4.554c0,1.278-.864,1.674-1.242,1.674-.414,0-.99-.414-.99-1.494,0-.954.5-1.584,1.224-1.584a.937.937,0,0,1,.666.252A1.678,1.678,0,0,1,252.016,71.332Zm13.05,1.35a2.781,2.781,0,1,0,2.772,2.772A2.777,2.777,0,0,0,265.066,72.682Zm0,.864a1.908,1.908,0,1,1-1.926,1.908A1.909,1.909,0,0,1,265.066,73.546Z" transform="translate(-5.146 -1.24)"/></svg>