<svg xmlns="http://www.w3.org/2000/svg" width="471.744" height="135.968" viewBox="0 0 471.744 135.968"><defs><style>.a{fill:#2f2f2f;}</style></defs><path class="a" d="M33.876,26.672c-5.112-3.636-9.54-8.244-11.88-14.04H33.3V8.744H20.124V4.316c0-.144.108-.252.324-.432.216-.144.324-.252.324-.4,0-.4-.864-.54-1.332-.576l-3.528-.18V8.744H2.592v3.888H13.464A38.385,38.385,0,0,1,2.268,27.68l3.42,2.412A48.266,48.266,0,0,0,15.912,16.376v8.172H10.944v3.6h4.968v5.8h4.212v-5.8H25.38V24.656a30.09,30.09,0,0,0,5.544,4.9Zm-8.568-2.124H20.124V16.772A31.191,31.191,0,0,0,25.308,24.548ZM70.344,29.8C64.116,26.492,57.132,22.5,57.132,7.988c0-.468,0-2.88.072-3.024s.648-.612.72-.72a.861.861,0,0,0,.288-.576c0-.54-1.224-.54-1.62-.54L52.56,2.984C52.6,4.5,52.7,9.14,52.7,10.112c0,3.852-.432,9.612-5.4,14.8-2.268,2.34-4.176,3.492-7.7,5.184l3.492,3.492c7.02-4.572,9.324-7.056,11.952-13.248C58,26.744,60.408,29.3,67.14,33.4Zm36.54-17.856V5.612H99.036c.288-1.008.324-1.116.612-1.368.432-.4.54-.468.54-.756,0-.36-.4-.468-.72-.5L95.22,2.552a26.1,26.1,0,0,1-.432,3.06H88.56v6.7h3.456V8.78h2.016a18,18,0,0,1-6.192,9.18V15.152h-5.8A21.479,21.479,0,0,0,84.06,8.384h3.456V4.856H76.14V8.384h4.14a21.651,21.651,0,0,1-6.552,12.852L76.9,23.684a12.139,12.139,0,0,0,1.764-2.268V33.764h3.456V29.228H84.6v1.656h3.24V19.508l1.8,1.764a9.442,9.442,0,0,0,1.4-1.152V33.764h3.492V32.54h12.276v-3.1h-5.328v-2.2h3.528V24.44h-3.528V22.352h3.528V19.508h-3.528v-1.98h5.292V14.612H100.8c.4-.612,1.4-2.2,1.656-2.628.324-.036.576-.108.576-.4,0-.252-.18-.36-.684-.5L99.4,10.292a22.247,22.247,0,0,1-1.836,4.32H95.58A27.238,27.238,0,0,0,98.244,8.78h5.112v3.168ZM97.848,24.44H94.536V22.352h3.312Zm0-4.932H94.536v-1.98h3.312Zm0,9.936H94.536v-2.2h3.312ZM84.6,25.844H82.116v-7.2H84.6ZM142.92,3.7h-16.7V7.268h4.716a17.6,17.6,0,0,1-.432,2.52c-1.656-.684-2.3-.864-2.736-1.008l-1.8,3.132c1.26.5,1.98.828,2.988,1.3A12.521,12.521,0,0,1,125.1,16.88l2.88,2.556a16.37,16.37,0,0,0,4.284-4.572,25.211,25.211,0,0,1,2.2,1.26l.576-.936.9,3.276a18.314,18.314,0,0,0-2.088-1.512l-2.34,2.628a31.886,31.886,0,0,1,2.736,2.124l-.144-.036-3.744-.144V30.74a2.806,2.806,0,0,0,3.1,2.808h4.392c1.512,0,2.268-.792,3.492-4.68L137.628,26.6a14.011,14.011,0,0,1-.72,2.628c-.144.4-.4.756-.864.756h-.9c-.648,0-.864-.252-.864-.936v-5.94c0-.18.576-.684.612-.828.54.468.612.5,1.3,1.116l2.124-2.808a20.9,20.9,0,0,0-1.944-1.8c1.8.072,3.708,0,4.716-1.584C143.172,13.964,142.956,3.956,142.92,3.7Zm-4.068,3.564a51.174,51.174,0,0,1-.684,6.264c-.288,1.4-.72,1.476-1.44,1.476a7.644,7.644,0,0,1-1.548-.108l1.332-2.16c-.5-.288-.972-.612-2.592-1.44a15.443,15.443,0,0,0,.72-4.032Zm-8.568,17.1c0-.252-.18-.36-.4-.432l-3.168-.972a40.274,40.274,0,0,1-2.16,6.66V22.172H113.724v11.34h3.42V32.036h3.96V33.08h3.456v-2.3l2.988.756a29.384,29.384,0,0,0,2.2-6.7C129.924,24.764,130.284,24.656,130.284,24.368Zm-9.216,4.356h-3.924V25.448h3.924Zm23.94-1.044a26.794,26.794,0,0,0-3.672-6.12l-2.88,1.692a36.584,36.584,0,0,1,3.528,6.516ZM123.48,6.44V3.38h-9.252V6.44Zm1.62,4.824V8.132H112.9v3.132Zm-1.4,4.464V12.776h-9.468v2.952Zm.072,4.68V17.42h-9.54v2.988Zm59.04-13.32A16.4,16.4,0,0,0,180,4.064l-1.872,1.368a14.3,14.3,0,0,1,2.556,3.1ZM178.884,9.1a22.178,22.178,0,0,0-2.772-3.06l-1.944,1.44a16.084,16.084,0,0,1,2.844,3.168Zm-.576,9.72c0-3.816-4.9-9.612-6.552-11.592L168.84,9.248c3.816,4.428,5.184,7.38,5.184,8.28,0,.864-.756,1.044-2.052,1.224l1.908,3.42C175.212,21.992,178.308,21.56,178.308,18.824Zm-8.172.036c0-3.2-.432-7.488-5.292-7.488a15.041,15.041,0,0,0-2.628.252c.288-1.62.36-2.268.54-3.708.072-.468.072-.468.5-.756.36-.216.4-.252.4-.4,0-.288-.4-.468-.864-.54l-4.32-.612a43.083,43.083,0,0,1-.36,6.84c-2.952.648-4.176.9-6.912,1.332l1.332,4.32a32.242,32.242,0,0,1,4.9-1.944,38.21,38.21,0,0,1-6.516,14.04l3.744,1.692c3.276-4.968,5-9.288,6.84-16.668a11.913,11.913,0,0,1,1.944-.18c2.232,0,2.916.864,2.916,3.636,0,1.728-.288,6.264-1.908,8.28a2.8,2.8,0,0,1-2.484,1.008,10.6,10.6,0,0,1-2.448-.288l.864,3.888a25.335,25.335,0,0,0,2.7.144,5.408,5.408,0,0,0,4.1-1.4C168.876,28.688,170.136,24.044,170.136,18.86ZM217.62,30.128a32.747,32.747,0,0,1-5.976-5.4c1.584-2.736,4.032-7.056,4.644-16.488L214.2,6.332H203v-2.7h-16.6V7.088h2.232V26.06c-1.08.144-1.188.18-2.2.324l.576,3.276c.072.468.18.612.36.612.108,0,.252-.144.468-.36a3.881,3.881,0,0,1,1.188-.36c1.116-.252,5.508-1.44,7.56-2.016v5.976h3.636V30.236l3.024,2.88a25.118,25.118,0,0,0,6.192-5.292,30.842,30.842,0,0,0,5.4,5.184ZM212.148,9.9a28.686,28.686,0,0,1-2.88,11.376c-1.44-2.7-2.34-4.932-3.312-10.476l-3.6,1.224a37.44,37.44,0,0,0,4.86,12.636,15.219,15.219,0,0,1-6.984,5.148V7.088h2.484V9.9ZM196.6,17.744h-4.1V14h4.1Zm0-6.984h-4.1V7.088h4.1Zm0,13.968c-.9.144-1.4.252-4.1.72V20.912h4.1ZM252.756,28l-1.116-4.032c-1.476,2.088-2.844,2.736-3.852,2.736-.972,0-1.332-.4-1.332-2.376a49.984,49.984,0,0,1,.36-5.076c.468-4.824.5-5.22.5-5.868a4.1,4.1,0,0,0-3.96-4.32c-2.412,0-5.832,3.2-7.236,4.5l.792-1.584-2.3-2.2a25.219,25.219,0,0,1,.36-4.752c.108-.108.648-.576.648-.684,0-.324-.324-.36-.9-.432l-3.564-.4-.144,7.74a29.364,29.364,0,0,1-6.48,1.728L226.3,16.88c1.8-.576,2.772-.936,4.68-1.62l-.072,3.168a41.193,41.193,0,0,1-6.84,8.28l3.744,2.52c1.26-1.98,1.872-2.844,2.988-4.392l-.108,8.316,4.032-.216c-.216-4.212-.216-7.956-.252-12.96,2.52-3.1,5.292-6.552,7.344-6.552,1.224,0,1.4,1.476,1.4,2.412,0,1.512-.648,8.208-.648,9.576,0,.9,0,5.9,4.176,5.9C249.12,31.316,251.1,29.768,252.756,28ZM288,18.9V15.08a41.342,41.342,0,0,0-4.752-.216c-1.908,0-3.708.108-5.58.252V18.9a44.121,44.121,0,0,1,5.4-.4A39.124,39.124,0,0,1,288,18.9Zm-8.136-7.236v-4a28.156,28.156,0,0,1-5.724,2.124c.252-1.008.54-2.3.864-3.924.072-.36.144-.4.612-.612.324-.144.432-.252.432-.5,0-.4-.828-.576-.9-.576L270.72,3.128A43.715,43.715,0,0,1,269.5,10.76a26.12,26.12,0,0,1-3.564.216,14.525,14.525,0,0,1-2.916-.216L263.3,14.5a47.464,47.464,0,0,0,5.364-.432c-2.844,9.756-5.148,13.644-7.308,17.136l4.392,1.332a102.094,102.094,0,0,0,7.416-19.152A43.448,43.448,0,0,0,279.864,11.66Zm8.712,20.592-.36-4.176a23.7,23.7,0,0,1-6.336.792c-.828,0-3.564-.036-4.572-.972a1.236,1.236,0,0,1-.432-1.08,6.806,6.806,0,0,1,.144-1.332l-3.564-.756a8.344,8.344,0,0,0-.432,2.592c0,3.672,2.772,5.472,9.252,5.472A34.82,34.82,0,0,0,288.576,32.252ZM327.024,11.84V8.024h-13.1V4.532c.36-.324.792-.612.792-.828,0-.324-.5-.432-.648-.432l-4.608-.36V8.024H296.388V11.84h11.124c-.036,3.312-.072,7.164-2.844,11.52-2.592,4.1-5.8,5.688-8.46,6.984l3.2,3.06a22.273,22.273,0,0,0,7.02-5.652,23.11,23.11,0,0,0,4.32-8.532h7.7c.18,4.14-.36,7.416-1.044,8.892a2.672,2.672,0,0,1-2.916,1.764,27.03,27.03,0,0,1-2.772-.108l1.872,4c4.968-.144,6.876-1.476,8.172-6.192,1.044-3.816.972-7.56.864-11.988H311.508a28.516,28.516,0,0,0,.36-3.744Zm36.108,6.408c0-8.028-5.9-13.1-13.392-13.1a15.527,15.527,0,0,0-15.876,15.264c0,6.444,5.9,9.684,7.2,9.684,1.872,0,3.528-3.024,4.608-5.256,1.188-2.412,3.312-7.452,4.464-16.02a9.21,9.21,0,0,1,6.12,2.412,8.487,8.487,0,0,1,2.592,6.3,11.263,11.263,0,0,1-2.592,7.164,12.125,12.125,0,0,1-6.48,3.852l2.664,3.708a17.379,17.379,0,0,0,8.388-6.336A13.451,13.451,0,0,0,363.132,18.248Zm-17.28-8.784c-.72,5.616-3.816,15.012-5.688,15.012-.648,0-2.3-1.512-2.3-4.428a11.79,11.79,0,0,1,3.6-7.992A10.628,10.628,0,0,1,345.852,9.464Zm54.072,13.248c-1.548-1.008-2.664-1.692-4.644-2.808A43.453,43.453,0,0,0,396.5,14.54c.108-.5.108-.576.4-.756.5-.252.54-.288.54-.468,0-.324-.5-.5-.864-.612l-4.032-1.116a30.607,30.607,0,0,1-.936,6.588,23.165,23.165,0,0,0-6.948-1.656c.5-1.116,3.06-6.912,3.1-7.056a14.674,14.674,0,0,1,1.872-3.06l-2.376-2.376c-1.944,1.26-6.192,1.98-11.736,1.944l1.62,3.636a25.126,25.126,0,0,0,6.552-1.116,83.361,83.361,0,0,1-2.916,7.812,9.714,9.714,0,0,0-5.724,1.728A8.947,8.947,0,0,0,370.8,25.16c0,2.664,1.62,4.644,4.068,4.644,3.168,0,4.716-2.3,8.28-9.936a22.289,22.289,0,0,1,7.2,2.016c-2.16,4.572-4,6.408-7.164,8.46l3.564,2.484c3.348-2.484,5.04-4.5,7.128-8.964.828.54,1.836,1.224,3.744,2.7Zm-20.772-2.736a40.874,40.874,0,0,1-2.376,4.464,1.642,1.642,0,0,1-1.512.864c-.252,0-.72-.036-.72-.972C374.544,23,376.056,20.948,379.152,19.976Zm60.7-12.888a16.4,16.4,0,0,0-2.808-3.024l-1.872,1.368a14.293,14.293,0,0,1,2.556,3.1ZM435.924,9.1a22.179,22.179,0,0,0-2.772-3.06l-1.944,1.44a16.084,16.084,0,0,1,2.844,3.168Zm-.576,9.72c0-3.816-4.9-9.612-6.552-11.592L425.88,9.248c3.816,4.428,5.184,7.38,5.184,8.28,0,.864-.756,1.044-2.052,1.224l1.908,3.42C432.252,21.992,435.348,21.56,435.348,18.824Zm-8.172.036c0-3.2-.432-7.488-5.292-7.488a15.041,15.041,0,0,0-2.628.252c.288-1.62.36-2.268.54-3.708.072-.468.072-.468.5-.756.36-.216.4-.252.4-.4,0-.288-.4-.468-.864-.54l-4.32-.612a43.088,43.088,0,0,1-.36,6.84c-2.952.648-4.176.9-6.912,1.332l1.332,4.32a32.242,32.242,0,0,1,4.9-1.944,38.21,38.21,0,0,1-6.516,14.04l3.744,1.692c3.276-4.968,5-9.288,6.84-16.668a11.913,11.913,0,0,1,1.944-.18c2.232,0,2.916.864,2.916,3.636,0,1.728-.288,6.264-1.908,8.28A2.8,2.8,0,0,1,419,27.968a10.6,10.6,0,0,1-2.448-.288l.864,3.888a25.335,25.335,0,0,0,2.7.144,5.408,5.408,0,0,0,4.1-1.4C425.916,28.688,427.176,24.044,427.176,18.86Zm46.836-14.8c0-.324-.288-.4-.72-.432l-3.924-.324V28.76c0,.936-.576,1.224-1.692,1.224a21.234,21.234,0,0,1-2.556-.216l1.764,4.032c4.932-.036,6.48-.972,6.48-3.888V5c0-.108.252-.36.468-.612C473.94,4.28,474.012,4.208,474.012,4.064Zm-7.92,2.412c0-.324-.324-.4-.684-.432l-3.924-.324V25.988h3.888V7.448c0-.144.18-.324.36-.468S466.092,6.692,466.092,6.476ZM459,14.972v-3.6h-5.148V6.8a18.02,18.02,0,0,0,3.456-.828,9.76,9.76,0,0,0,1.152.252c.144,0,.288,0,.288-.216,0-.288-.36-.684-.468-.792l-2.484-2.7C451.548,4.6,445.788,4.6,443.52,4.6l1.548,3.276c1.584-.072,3.06-.216,4.608-.432v3.924H443.3v3.6h5.364a22.088,22.088,0,0,1-2.376,5.76,25.837,25.837,0,0,1-4.068,5.22l3.636,1.908a28.071,28.071,0,0,0,3.816-5.76V33.656h4.176v-12.2a24.394,24.394,0,0,0,3.06,2.772l1.944-2.772a26.323,26.323,0,0,1-5-5.4v-1.08ZM30.96,82.308V55.524H5.364c.324,3.78.468,7.56.468,11.34,0,9-.5,13.14-2.88,17.208L6.7,85.4c1.944-4.032,2.592-6.588,2.952-11.916h6.66v10.26h4.068V73.488h6.48v7.128c0,1.008-.468,1.3-1.944,1.3a8.832,8.832,0,0,1-1.656-.144l1.98,3.924C30.924,85.3,30.96,84.216,30.96,82.308Zm-4.1-19.8h-6.48V59.016h6.48Zm0,7.6h-6.48V65.892h6.48Zm-10.548-7.6H9.828c0-1.332,0-2.2-.036-3.492h6.516Zm0,7.6H9.792c0-.72.036-1.08.072-4.212h6.444ZM69.12,66.648a16.608,16.608,0,0,0-2.988-2.736L64.62,65.64a16.667,16.667,0,0,1,2.988,2.736ZM66.2,69.924a15.7,15.7,0,0,0-2.988-2.772L61.74,68.88a15.983,15.983,0,0,1,2.952,2.772Zm1.188-9.4V56.352c-6.8,2.088-17.964,2.952-25.74,2.88l.612,4.032c3.6-.5,8.892-.936,13.716-1.332A26.842,26.842,0,0,0,51.228,67.4a13.1,13.1,0,0,0-2.448,7.164,9.031,9.031,0,0,0,2.664,6.48c2.916,2.916,6.948,3.672,8.856,4l1.4-4.392a11.338,11.338,0,0,1-6.336-1.836,5.713,5.713,0,0,1-2.592-4.68c0-2.736,1.728-5.976,4.392-8.64C61.74,60.888,65.7,60.636,67.392,60.528ZM102.528,65.5l-.648-3.6a41.044,41.044,0,0,1-6.552,3.24c-.576-1.26-.72-1.62-1.188-2.736a23.713,23.713,0,0,0,5.688-2.448l-.792-3.492a34.748,34.748,0,0,1-6.156,2.772A31.379,31.379,0,0,1,91.8,55.92c0-.108.036-.216.324-.5.18-.18.288-.288.288-.468,0-.432-.9-.324-1.188-.288l-4.1.468c.576,1.692.972,2.844,1.8,5.076a44.4,44.4,0,0,1-8.388.72l1.116,3.456a41.33,41.33,0,0,0,8.568-.972c.36.828.756,1.728,1.3,2.952a47.722,47.722,0,0,1-11.34,1.08l1.26,3.636a46.43,46.43,0,0,0,11.556-1.584c.684,1.332,1.008,1.98,1.872,3.528a27.5,27.5,0,0,0-5.148-.576c-4.068,0-7.956,1.332-7.956,6.264,0,4.752,4.464,6.8,10.944,6.8a36.24,36.24,0,0,0,5.688-.432l.36-4.248a26.263,26.263,0,0,1-7.2.972c-1.224,0-5.9,0-5.9-3.06,0-1.944,1.98-2.952,4.356-2.952a20.27,20.27,0,0,1,9.432,2.736l2.2-2.736A39.08,39.08,0,0,1,96.876,68.3,26.7,26.7,0,0,0,102.528,65.5Zm37.3,9a7.935,7.935,0,0,0-7.992-7.956,28.665,28.665,0,0,0-3.492.216c5.22-5.328,5.832-5.9,7.992-7.7l-1.872-2.916c-3.42,1.332-9.54,1.8-10.908,1.8-1.116,0-3.168-.144-4.032-.216l.828,4.032a33.608,33.608,0,0,0,8.424-.9,71.072,71.072,0,0,1-13.32,13l3.024,3.168c2.016-2.052,5.184-5.256,7.416-6.444a9.763,9.763,0,0,1,4.1-.9c2.34,0,5.832,1.152,5.832,4.716a6.342,6.342,0,0,1-2.376,4.788c-1.008-1.26-3.348-4.212-7.092-4.212a5.042,5.042,0,0,0-5.292,4.788c0,2.664,2.3,4.932,6.8,4.932C134.208,84.684,139.824,80.472,139.824,74.5ZM130.1,80.94a10.235,10.235,0,0,1-2.448.324c-1.3,0-2.952-.36-2.952-1.62a1.586,1.586,0,0,1,1.8-1.512C128.556,78.132,129.636,80.112,130.1,80.94Zm49.932-4.86V73.272H178.02V69.1H166.86V67.728h8.82V61.1h-8.82v-1.26h13.032v-3.1H166.86v-.684a.38.38,0,0,1,.216-.324c.324-.252.4-.288.4-.5s-.252-.288-.432-.324l-4.248-.54v2.376H149.724v3.1h13.068V61.1h-8.856v6.624h8.856V69.1h-10.98V71.9h10.98v1.368H149.724V76.08h13.068v1.548h-10.98v2.808h10.98v1.08c0,.648-.54.828-1.116.828-.612,0-1.62-.108-2.556-.18l1.8,3.924c5.04-.036,5.94-.972,5.94-3.06V80.436h7.38v.972h3.78V76.08Zm-8.064-10.8H166.86V63.552h5.112Zm-9.18,0h-5.184V63.552h5.184Zm11.448,7.992h-7.38V71.9h7.38Zm0,4.356h-7.38V76.08h7.38ZM201.1,81.84V64.884H188.064V85.62h3.816V78.348h5.328v2.628c0,.612-.288.9-1.008.9a16.892,16.892,0,0,1-2.376-.216l1.512,4.1C198.468,85.764,201.1,85.26,201.1,81.84Zm-3.888-11.808H191.88v-1.98h5.328Zm0,5.148H191.88V73.2h5.328Zm20.016-12.528V59.34h-8.208c.252-.324,1.332-2.16,1.44-2.232a6.819,6.819,0,0,1,.648-.216c.216-.072.288-.18.288-.324a.391.391,0,0,0-.252-.36l-4.572-1.332a22.588,22.588,0,0,1-2.448,4.464h-7.056l1.332-.648a43.5,43.5,0,0,0-2.952-4l-3.924,1.728a29.054,29.054,0,0,1,2.232,2.916h-7.668v3.312ZM216,64.92c0-.144-.18-.288-.432-.324l-4.464-.324V80.364c0,.972-.36,1.26-1.62,1.26-.756,0-1.4-.072-2.16-.144l1.908,4.032c4.464-.036,6.048-.468,6.048-4V65.964c0-.108.252-.4.5-.612A.821.821,0,0,0,216,64.92Zm-7.488.54a.443.443,0,0,0-.468-.4l-4.284-.216V79.356h3.888V66.432c0-.144.072-.18.576-.54A.558.558,0,0,0,208.512,65.46Zm47.088,14.9a23.748,23.748,0,0,1-7.74-9.72,53.8,53.8,0,0,0,4.536-4.176c.5-.54.54-.612,1.008-.612.4,0,.72,0,.72-.252,0-.18-.252-.432-.648-.72l-3.42-2.52a35.56,35.56,0,0,1-3.384,4.068,24.546,24.546,0,0,1-.288-4.644l-2.628.324c1.116-.828,3.6-2.736,5.58-4.356l-1.764-2.2H227.016v3.816h13.752a18.639,18.639,0,0,1-2.412,2.052l-1.764-.72v4.68h-2.016V68.88h2.016v1.944h-3.06v3.312h3.06v1.8h-4.464v3.312h4.464v1.944c0,.792-.72.972-1.188.972-.828,0-2.088-.216-2.772-.288l2.016,4.392h2.592a3.222,3.222,0,0,0,3.492-3.384V79.248h4.14V75.936h-4.14v-1.8h2.448V70.824h-2.448V68.88h1.476V65.388h-1.476V64.344c.4-.288,1.08-.756,1.548-1.152.756,7.164,3.528,14.8,9.72,19.836ZM234,63.48H223.6v4.1h5.76a25.893,25.893,0,0,1-8.28,13.932l4.392,1.8C230.76,77.952,233.388,70.752,234,63.48ZM289.8,55.7H273.1v3.564h4.716a17.6,17.6,0,0,1-.432,2.52c-1.656-.684-2.3-.864-2.736-1.008l-1.8,3.132c1.26.5,1.98.828,2.988,1.3a12.521,12.521,0,0,1-3.852,3.672l2.88,2.556a16.369,16.369,0,0,0,4.284-4.572,25.209,25.209,0,0,1,2.2,1.26l.576-.936.9,3.276a18.312,18.312,0,0,0-2.088-1.512l-2.34,2.628a31.888,31.888,0,0,1,2.736,2.124l-.144-.036-3.744-.144V82.74a2.805,2.805,0,0,0,3.1,2.808h4.392c1.512,0,2.268-.792,3.492-4.68L284.508,78.6a14.007,14.007,0,0,1-.72,2.628c-.144.4-.4.756-.864.756h-.9c-.648,0-.864-.252-.864-.936v-5.94c0-.18.576-.684.612-.828.54.468.612.5,1.3,1.116l2.124-2.808a20.9,20.9,0,0,0-1.944-1.8c1.8.072,3.708,0,4.716-1.584C290.052,65.964,289.836,55.956,289.8,55.7Zm-4.068,3.564a51.171,51.171,0,0,1-.684,6.264c-.288,1.4-.72,1.476-1.44,1.476a7.644,7.644,0,0,1-1.548-.108l1.332-2.16c-.5-.288-.972-.612-2.592-1.44a15.444,15.444,0,0,0,.72-4.032Zm-8.568,17.1c0-.252-.18-.36-.4-.432l-3.168-.972a40.273,40.273,0,0,1-2.16,6.66V74.172H260.6v11.34h3.42V84.036h3.96V85.08h3.456v-2.3l2.988.756a29.385,29.385,0,0,0,2.2-6.7C276.8,76.764,277.164,76.656,277.164,76.368Zm-9.216,4.356h-3.924V77.448h3.924Zm23.94-1.044a26.794,26.794,0,0,0-3.672-6.12l-2.88,1.692a36.582,36.582,0,0,1,3.528,6.516ZM270.36,58.44V55.38h-9.252v3.06Zm1.62,4.824V60.132h-12.2v3.132Zm-1.4,4.464V64.776h-9.468v2.952Zm.072,4.68V69.42h-9.54v2.988Zm56.268-16.884c0-.324-.576-.432-.792-.432l-3.636-.288v26.28c0,1.116-.9,1.116-1.3,1.116-.216,0-1.368-.036-2.844-.108l2.016,3.852c4.1-.108,5.868-.252,5.868-3.852V56.568c0-.18.072-.252.324-.5C326.772,55.848,326.916,55.668,326.916,55.524Zm-6.444,3.816c0-.4-.792-.432-1.044-.432l-3.2-.108V78.672h3.6V60.132C320.22,59.772,320.472,59.592,320.472,59.34Zm-5.4,8.748V64.6h-7.38V62.112h6.12V58.62h-6.12V56.064c.324-.288.648-.5.648-.792s-.612-.4-.828-.4l-3.6-.144V58.62h-2.124l.324-.864c.4-.144.792-.144.792-.5,0-.324-.54-.432-.648-.468l-3.384-.684a25.3,25.3,0,0,1-3.132,6.732l3.78,1.08c.5-.972.648-1.3.864-1.8h3.528V64.6h-7.6v3.492h7.6V70.32h-6.3V84.036h3.78V73.776h2.52v12.06h3.78V73.776h2.556V79.32c0,1.044-.756,1.008-2.3,1.008l1.62,3.384c2.592-.432,4.5-.72,4.5-2.988V70.32h-6.372V68.088Zm48.06,2.16c0-8.028-5.9-13.1-13.392-13.1a15.527,15.527,0,0,0-15.876,15.264c0,6.444,5.9,9.684,7.2,9.684,1.872,0,3.528-3.024,4.608-5.256,1.188-2.412,3.312-7.452,4.464-16.02a9.21,9.21,0,0,1,6.12,2.412,8.487,8.487,0,0,1,2.592,6.3,11.263,11.263,0,0,1-2.592,7.164,12.125,12.125,0,0,1-6.48,3.852l2.664,3.708a17.379,17.379,0,0,0,8.388-6.336A13.451,13.451,0,0,0,363.132,70.248Zm-17.28-8.784c-.72,5.616-3.816,15.012-5.688,15.012-.648,0-2.3-1.512-2.3-4.428a11.79,11.79,0,0,1,3.6-7.992A10.628,10.628,0,0,1,345.852,61.464ZM398.16,70.9V67.08a41.341,41.341,0,0,0-4.752-.216c-1.908,0-3.708.108-5.58.252V70.9a44.123,44.123,0,0,1,5.4-.4A39.123,39.123,0,0,1,398.16,70.9Zm-8.136-7.236v-4a28.157,28.157,0,0,1-5.724,2.124c.252-1.008.54-2.3.864-3.924.072-.36.144-.4.612-.612.324-.144.432-.252.432-.5,0-.4-.828-.576-.9-.576l-4.428-1.044a43.715,43.715,0,0,1-1.224,7.632,26.12,26.12,0,0,1-3.564.216,14.525,14.525,0,0,1-2.916-.216l.288,3.744a47.463,47.463,0,0,0,5.364-.432c-2.844,9.756-5.148,13.644-7.308,17.136l4.392,1.332a102.094,102.094,0,0,0,7.416-19.152A43.448,43.448,0,0,0,390.024,63.66Zm8.712,20.592-.36-4.176a23.7,23.7,0,0,1-6.336.792c-.828,0-3.564-.036-4.572-.972a1.236,1.236,0,0,1-.432-1.08,6.806,6.806,0,0,1,.144-1.332l-3.564-.756a8.343,8.343,0,0,0-.432,2.592c0,3.672,2.772,5.472,9.252,5.472A34.821,34.821,0,0,0,398.736,84.252Zm37.44-11.772a10.642,10.642,0,0,0-3.636-8.136,12.376,12.376,0,0,0-6.516-2.664c.36-1.62.4-1.872.828-4.392,0-.144.18-.288.288-.36.36-.252.5-.324.5-.5,0-.432-.828-.5-1.152-.54l-4.176-.4a35.711,35.711,0,0,1-.5,6.228,17.547,17.547,0,0,0-5.9,1.944,29.781,29.781,0,0,1-1.188-5.868l-4.212,1.692c.468,1.908,1.008,3.708,2.016,6.624a14.454,14.454,0,0,0-4.824,10.44c0,3.888,2.016,6.156,4.536,6.156,2.376,0,4.9-2.52,5.94-3.564a19.373,19.373,0,0,0,1.44,2.2L422.6,78.06a23.765,23.765,0,0,1-1.656-2.448,44.443,44.443,0,0,0,4.176-10.332c4.356.5,6.7,3.672,6.7,6.8a9.315,9.315,0,0,1-2.916,6.7,13.145,13.145,0,0,1-6.84,3.2l2.484,3.456a16.269,16.269,0,0,0,7.488-4.1A12.476,12.476,0,0,0,436.176,72.48ZM421.02,65.6a39.753,39.753,0,0,1-2.124,6.012c-.72-1.548-1.26-2.844-1.764-4.212A11.218,11.218,0,0,1,421.02,65.6Zm-4.608,10.152c-.5.648-1.98,2.484-3.492,2.484-.972,0-1.4-.972-1.4-2.016a10.459,10.459,0,0,1,2.412-6.264C415.08,72.876,415.656,74.136,416.412,75.756Zm26.46,2.34a29.6,29.6,0,0,1,6.948,7.992l3.744-2.988a21.176,21.176,0,0,0-7.992-7.812ZM33.192,123.112V119.44H17.46c.324-.54,1.656-3.348,1.764-3.42.072-.036.576-.108.648-.144.18-.072.216-.18.216-.252,0-.288-.576-.54-.72-.648l-2.88-1.368h12.2v3.636h4v-7.2H20.232v-1.152c0-.252.108-.36.576-.684a.558.558,0,0,0,.252-.432c0-.216-.252-.4-1.008-.432l-4.32-.216v2.916H3.564V117.1H7.488v-3.492h8.064a36.155,36.155,0,0,1-2.7,5.832H2.772v3.672h7.92a44.855,44.855,0,0,1-4.176,5.652l4.1,1.728c.36-.468.432-.54,1.044-1.44a24.033,24.033,0,0,1,4.752,1.62c-2.628,1.8-7.02,3.1-12.744,3.384l1.98,3.636c8.712-.9,12.168-3.456,14.508-5.184a37.829,37.829,0,0,1,8.1,5.508l3.168-3.348a46.86,46.86,0,0,0-8.316-5.04,34.159,34.159,0,0,0,4.1-6.516Zm-10.62,0a21.11,21.11,0,0,1-3.06,4.968,36.221,36.221,0,0,0-6.048-1.836c1.188-1.908,1.3-2.088,1.908-3.132ZM60.84,111.376a32.791,32.791,0,0,0-8.5-4.752l-2.088,3.492a39.733,39.733,0,0,1,8.028,4.932Zm9.972,15.336a38.614,38.614,0,0,0-6.444-9.936l-3.6,2.052a43.345,43.345,0,0,1,6.12,9.972Zm-5,4.608-3.816-1.944c-.828,3.348-1.908,3.96-3.168,3.96H55.152a1.8,1.8,0,0,1-1.944-1.872V118a1.165,1.165,0,0,1,.5-.9c.288-.252.432-.432.432-.648,0-.324-.252-.4-.54-.432l-4.68-.54v17.784c0,2.7,1.3,3.96,4.176,3.96h7.668C63.576,137.224,64.692,135.136,65.808,131.32Zm-18-11.448a.534.534,0,0,0-.432-.5l-4.248-1.116a50.986,50.986,0,0,1-4.464,11.412l4.068,1.4a67.419,67.419,0,0,0,3.96-9.828c.144-.432.216-.468.792-.864A.626.626,0,0,0,47.808,119.872Zm56.592,7.344-3.528-2.916c-3.528,6.912-8.352,8.172-10.368,8.172a3.471,3.471,0,0,1-3.168-1.512c-.684-1.224-.684-4.716-.684-6.372a136.066,136.066,0,0,1,1.008-14.4c.576-.468,1.008-.756,1.008-1.044,0-.216-.324-.468-1.188-.576l-4.788-.684c.108,2.412-.18,13.1-.18,15.3,0,8.64.576,10.476,2.268,11.952a8.008,8.008,0,0,0,5.256,1.836,13.013,13.013,0,0,0,7.164-2.3A26.86,26.86,0,0,0,104.4,127.216Zm36.612-14.8V108.1c-7.02,2.052-17.784,3.276-26.244,3.348l.72,4.248a137.652,137.652,0,0,1,13.716-1.548c-1.692,1.584-6.984,6.552-6.984,12.708,0,8.028,9,9.9,11.916,10.512l1.26-4.536a10.685,10.685,0,0,1-6.264-1.728,6.168,6.168,0,0,1-2.664-5.04c0-3.6,2.988-7.6,6.156-10.152A13.933,13.933,0,0,1,141.012,112.42Zm39.24-4.356c0-.324-.288-.4-.72-.432l-3.924-.324V132.76c0,.936-.576,1.224-1.692,1.224a21.234,21.234,0,0,1-2.556-.216l1.764,4.032c4.932-.036,6.48-.972,6.48-3.888V109c0-.108.252-.36.468-.612C180.18,108.28,180.252,108.208,180.252,108.064Zm-7.92,2.412c0-.324-.324-.4-.684-.432l-3.924-.324v20.268h3.888v-18.54c0-.144.18-.324.36-.468S172.332,110.692,172.332,110.476Zm-7.092,8.5v-3.6h-5.148V110.8a18.02,18.02,0,0,0,3.456-.828,9.759,9.759,0,0,0,1.152.252c.144,0,.288,0,.288-.216,0-.288-.36-.684-.468-.792l-2.484-2.7c-4.248,2.088-10.008,2.088-12.276,2.088l1.548,3.276c1.584-.072,3.06-.216,4.608-.432v3.924h-6.372v3.6h5.364a22.088,22.088,0,0,1-2.376,5.76,25.837,25.837,0,0,1-4.068,5.22l3.636,1.908a28.072,28.072,0,0,0,3.816-5.76v11.556h4.176v-12.2a24.4,24.4,0,0,0,3.06,2.772l1.944-2.772a26.323,26.323,0,0,1-5-5.4v-1.08Zm49.32,15.336V107.524h-25.6c.324,3.78.468,7.56.468,11.34,0,9-.5,13.14-2.88,17.208L190.3,137.4c1.944-4.032,2.592-6.588,2.952-11.916h6.66v10.26h4.068v-10.26h6.48v7.128c0,1.008-.468,1.3-1.944,1.3a8.832,8.832,0,0,1-1.656-.144l1.98,3.924C214.524,137.3,214.56,136.216,214.56,134.308Zm-4.1-19.8h-6.48v-3.492h6.48Zm0,7.6h-6.48v-4.212h6.48Zm-10.548-7.6h-6.48c0-1.332,0-2.2-.036-3.492h6.516Zm0,7.6h-6.516c0-.72.036-1.08.072-4.212h6.444Zm52.812-3.456a16.608,16.608,0,0,0-2.988-2.736l-1.512,1.728a16.667,16.667,0,0,1,2.988,2.736Zm-2.916,3.276a15.7,15.7,0,0,0-2.988-2.772l-1.476,1.728a15.984,15.984,0,0,1,2.952,2.772Zm1.188-9.4v-4.176c-6.8,2.088-17.964,2.952-25.74,2.88l.612,4.032c3.6-.5,8.892-.936,13.716-1.332a26.842,26.842,0,0,0-4.752,5.472,13.1,13.1,0,0,0-2.448,7.164,9.031,9.031,0,0,0,2.664,6.48c2.916,2.916,6.948,3.672,8.856,4l1.4-4.392a11.338,11.338,0,0,1-6.336-1.836,5.713,5.713,0,0,1-2.592-4.68c0-2.736,1.728-5.976,4.392-8.64C245.34,112.888,249.3,112.636,250.992,112.528Zm35.136,4.968-.648-3.6a41.044,41.044,0,0,1-6.552,3.24c-.576-1.26-.72-1.62-1.188-2.736a23.713,23.713,0,0,0,5.688-2.448l-.792-3.492a34.748,34.748,0,0,1-6.156,2.772,31.381,31.381,0,0,1-1.08-3.312c0-.108.036-.216.324-.5.18-.18.288-.288.288-.468,0-.432-.9-.324-1.188-.288l-4.1.468c.576,1.692.972,2.844,1.8,5.076a44.4,44.4,0,0,1-8.388.72l1.116,3.456a41.33,41.33,0,0,0,8.568-.972c.36.828.756,1.728,1.3,2.952a47.722,47.722,0,0,1-11.34,1.08l1.26,3.636a46.43,46.43,0,0,0,11.556-1.584c.684,1.332,1.008,1.98,1.872,3.528a27.5,27.5,0,0,0-5.148-.576c-4.068,0-7.956,1.332-7.956,6.264,0,4.752,4.464,6.8,10.944,6.8a36.241,36.241,0,0,0,5.688-.432l.36-4.248a26.263,26.263,0,0,1-7.2.972c-1.224,0-5.9,0-5.9-3.06,0-1.944,1.98-2.952,4.356-2.952a20.27,20.27,0,0,1,9.432,2.736l2.2-2.736a39.081,39.081,0,0,1-4.752-7.488A26.7,26.7,0,0,0,286.128,117.5Zm37.008,14.292a29.928,29.928,0,0,0-9.108-4.068c-.108-2.124-.108-2.484-.18-4.284a77.381,77.381,0,0,0,7.7-.9v-3.924c-3.312.612-4.644.828-7.776,1.224v-4.248c1.8-.036,5.148-.108,9.144-.108l.144-3.816c-3.384.252-4.608.324-9.216.54.036-1.872.072-2.556.072-2.592a1.17,1.17,0,0,1,.468-.648c.4-.324.468-.36.468-.5,0-.252-.216-.36-.9-.432l-4.392-.432.108,4.788c-3.2.072-5.148.144-9.252.144l.072,3.888c3.1-.36,5.148-.5,9.288-.684l.072,4.5a24.707,24.707,0,0,1-2.484.072c-.612,0-1.368,0-1.368-.5,0-.468.54-.864,1.188-1.332l-2.052-1.764c-1.4,1.008-3.852,2.7-3.852,4.464,0,1.4,1.656,2.592,4.968,2.592,1.044,0,3.024-.072,3.672-.108l.072,3.456-1.008-.036c-8.1-.288-8.46,3.888-8.46,4.932,0,2.916,3.1,4.68,8.064,4.68,4.608,0,5.472-1.44,5.616-5.112a27.137,27.137,0,0,1,6.588,3.564Zm-13.1-1.26c.036,2.016-.108,2.664-2.448,2.664-.432,0-2.736,0-2.736-1.224,0-.936,1.152-1.548,3.492-1.548A9.319,9.319,0,0,1,310.032,130.528Zm51.984-15.372v-3.888c-3.672.288-4.788.4-9.792.684v-3.708c0-.144.036-.216.288-.432s.324-.324.324-.54c0-.36-.216-.468-1.044-.5l-4-.252c.216,2.628.216,4.536.252,5.652-7.56.36-10.656.36-13.1.36V116.7c4.572-.576,10.008-.9,13.212-1.08l.072,2.7a4.748,4.748,0,0,0-1.692-.288c-3.672,0-5.652,2.736-5.652,6.7a6.442,6.442,0,0,0,1.872,5,4.533,4.533,0,0,0,2.952,1.116,7.239,7.239,0,0,0,1.944-.36c-.792,2.628-2.988,4.5-5.148,5.9l4.032,2.088a24.976,24.976,0,0,0,4.9-6.7,16.142,16.142,0,0,0,1.836-6.948,9.285,9.285,0,0,0-1.044-4.392v-5.04C356.9,115.228,359.28,115.156,362.016,115.156Zm-13.1,9.108c0,2.556-1.728,3.348-2.484,3.348-.828,0-1.98-.828-1.98-2.988,0-1.908,1.008-3.168,2.448-3.168a1.873,1.873,0,0,1,1.332.5A3.357,3.357,0,0,1,348.912,124.264Z" transform="translate(-2.268 -2.516)"/></svg>