<svg xmlns="http://www.w3.org/2000/svg" width="302.34" height="85.76" viewBox="0 0 302.34 85.76"><defs><style>.a{fill:#2f2f2f;}</style></defs><path class="a" d="M21.52,15.04a18.2,18.2,0,0,1-6.6-7.8H21.2V5.08H13.88V2.62c0-.08.06-.14.18-.24.12-.08.18-.14.18-.22,0-.22-.48-.3-.74-.32l-1.96-.1V5.08H4.14V7.24h6.04A21.325,21.325,0,0,1,3.96,15.6l1.9,1.34a26.815,26.815,0,0,0,5.68-7.62v4.54H8.78v2h2.76v3.22h2.34V15.86H16.8V13.92a16.716,16.716,0,0,0,3.08,2.72Zm-4.76-1.18H13.88V9.54A17.328,17.328,0,0,0,16.76,13.86Zm25.02,2.92c-3.46-1.84-7.34-4.06-7.34-12.12,0-.26,0-1.6.04-1.68s.36-.34.4-.4a.478.478,0,0,0,.16-.32c0-.3-.68-.3-.9-.3L31.9,1.88c.02.84.08,3.42.08,3.96a11.151,11.151,0,0,1-3,8.22,12.957,12.957,0,0,1-4.28,2.88l1.94,1.94c3.9-2.54,5.18-3.92,6.64-7.36,1.64,3.56,2.98,4.98,6.72,7.26Zm20.3-9.92V3.34H57.72c.16-.56.18-.62.34-.76.24-.22.3-.26.3-.42,0-.2-.22-.26-.4-.28L55.6,1.64a14.5,14.5,0,0,1-.24,1.7H51.9V7.06h1.92V5.1h1.12a10,10,0,0,1-3.44,5.1V8.64H48.28A11.933,11.933,0,0,0,49.4,4.88h1.92V2.92H45V4.88h2.3a12.028,12.028,0,0,1-3.64,7.14l1.76,1.36a6.744,6.744,0,0,0,.98-1.26v6.86h1.92V16.46H49.7v.92h1.8V11.06l1,.98a5.245,5.245,0,0,0,.78-.64v7.58h1.94V18.3h6.82V16.58H59.08V15.36h1.96V13.8H59.08V12.64h1.96V11.06H59.08V9.96h2.94V8.34H58.7c.22-.34.78-1.22.92-1.46.18-.02.32-.06.32-.22,0-.14-.1-.2-.38-.28l-1.64-.44a12.36,12.36,0,0,1-1.02,2.4H55.8A15.132,15.132,0,0,0,57.28,5.1h2.84V6.86ZM57.06,13.8H55.22V12.64h1.84Zm0-2.74H55.22V9.96h1.84Zm0,5.52H55.22V15.36h1.84Zm-7.36-2H48.32v-4H49.7ZM82.1,2.28H72.82V4.26h2.62a9.779,9.779,0,0,1-.24,1.4c-.92-.38-1.28-.48-1.52-.56l-1,1.74c.7.28,1.1.46,1.66.72A6.956,6.956,0,0,1,72.2,9.6l1.6,1.42a9.094,9.094,0,0,0,2.38-2.54,14.006,14.006,0,0,1,1.22.7l.32-.52.5,1.82a10.174,10.174,0,0,0-1.16-.84l-1.3,1.46a17.715,17.715,0,0,1,1.52,1.18l-.08-.02-2.08-.08V17.3a1.559,1.559,0,0,0,1.72,1.56h2.44c.84,0,1.26-.44,1.94-2.6L79.16,15a7.783,7.783,0,0,1-.4,1.46c-.08.22-.22.42-.48.42h-.5c-.36,0-.48-.14-.48-.52v-3.3c0-.1.32-.38.34-.46.3.26.34.28.72.62l1.18-1.56a11.607,11.607,0,0,0-1.08-1c1,.04,2.06,0,2.62-.88C82.24,7.98,82.12,2.42,82.1,2.28ZM79.84,4.26a28.431,28.431,0,0,1-.38,3.48c-.16.78-.4.82-.8.82a4.247,4.247,0,0,1-.86-.06l.74-1.2c-.28-.16-.54-.34-1.44-.8a8.58,8.58,0,0,0,.4-2.24Zm-4.76,9.5c0-.14-.1-.2-.22-.24l-1.76-.54a22.374,22.374,0,0,1-1.2,3.7V12.54H65.88v6.3h1.9v-.82h2.2v.58H71.9V17.32l1.66.42a16.325,16.325,0,0,0,1.22-3.72C74.88,13.98,75.08,13.92,75.08,13.76Zm-5.12,2.42H67.78V14.36h2.18Zm13.3-.58a14.886,14.886,0,0,0-2.04-3.4l-1.6.94a20.324,20.324,0,0,1,1.96,3.62ZM71.3,3.8V2.1H66.16V3.8Zm.9,2.68V4.74H65.42V6.48Zm-.78,2.48V7.32H66.16V8.96Zm.04,2.6V9.9h-5.3v1.66Zm32.8-7.4a9.11,9.11,0,0,0-1.56-1.68l-1.04.76a7.941,7.941,0,0,1,1.42,1.72Zm-2.18,1.12a12.321,12.321,0,0,0-1.54-1.7l-1.08.8a8.935,8.935,0,0,1,1.58,1.76Zm-.32,5.4c0-2.12-2.72-5.34-3.64-6.44L96.5,5.36c2.12,2.46,2.88,4.1,2.88,4.6,0,.48-.42.58-1.14.68l1.06,1.9C100.04,12.44,101.76,12.2,101.76,10.68Zm-4.54.02c0-1.78-.24-4.16-2.94-4.16a8.356,8.356,0,0,0-1.46.14c.16-.9.2-1.26.3-2.06.04-.26.04-.26.28-.42.2-.12.22-.14.22-.22,0-.16-.22-.26-.48-.3l-2.4-.34a23.936,23.936,0,0,1-.2,3.8c-1.64.36-2.32.5-3.84.74l.74,2.4A17.913,17.913,0,0,1,90.16,9.2,21.228,21.228,0,0,1,86.54,17l2.08.94a26.847,26.847,0,0,0,3.8-9.26,6.618,6.618,0,0,1,1.08-.1c1.24,0,1.62.48,1.62,2.02,0,.96-.16,3.48-1.06,4.6a1.556,1.556,0,0,1-1.38.56,5.886,5.886,0,0,1-1.36-.16l.48,2.16a14.075,14.075,0,0,0,1.5.08,3,3,0,0,0,2.28-.78C96.52,16.16,97.22,13.58,97.22,10.7Zm26.38,6.26a18.193,18.193,0,0,1-3.32-3c.88-1.52,2.24-3.92,2.58-9.16L121.7,3.74h-6.22V2.24h-9.22V4.16h1.24V14.7c-.6.08-.66.1-1.22.18l.32,1.82c.04.26.1.34.2.34.06,0,.14-.08.26-.2a2.156,2.156,0,0,1,.66-.2c.62-.14,3.06-.8,4.2-1.12v3.32h2.02V17.02l1.68,1.6a13.955,13.955,0,0,0,3.44-2.94,17.134,17.134,0,0,0,3,2.88ZM120.56,5.72a15.936,15.936,0,0,1-1.6,6.32,16.766,16.766,0,0,1-1.84-5.82l-2,.68a20.8,20.8,0,0,0,2.7,7.02,8.455,8.455,0,0,1-3.88,2.86V4.16h1.38V5.72Zm-8.64,4.36h-2.28V8h2.28Zm0-3.88h-2.28V4.16h2.28Zm0,7.76c-.5.08-.78.14-2.28.4V11.84h2.28Zm31.2,1.82-.62-2.24c-.82,1.16-1.58,1.52-2.14,1.52-.54,0-.74-.22-.74-1.32a27.772,27.772,0,0,1,.2-2.82c.26-2.68.28-2.9.28-3.26a2.279,2.279,0,0,0-2.2-2.4c-1.34,0-3.24,1.78-4.02,2.5l.44-.88-1.28-1.22a14.012,14.012,0,0,1,.2-2.64c.06-.06.36-.32.36-.38,0-.18-.18-.2-.5-.24l-1.98-.22-.08,4.3a16.313,16.313,0,0,1-3.6.96l.98,2.16c1-.32,1.54-.52,2.6-.9l-.04,1.76a22.885,22.885,0,0,1-3.8,4.6l2.08,1.4c.7-1.1,1.04-1.58,1.66-2.44l-.06,4.62,2.24-.12c-.12-2.34-.12-4.42-.14-7.2,1.4-1.72,2.94-3.64,4.08-3.64.68,0,.78.82.78,1.34,0,.84-.36,4.56-.36,5.32,0,.5,0,3.28,2.32,3.28A4.8,4.8,0,0,0,143.12,15.78Zm19.58-5.06V8.6a22.968,22.968,0,0,0-2.64-.12c-1.06,0-2.06.06-3.1.14v2.1a24.511,24.511,0,0,1,3-.22A21.736,21.736,0,0,1,162.7,10.72ZM158.18,6.7V4.48A15.642,15.642,0,0,1,155,5.66c.14-.56.3-1.28.48-2.18.04-.2.08-.22.34-.34.18-.08.24-.14.24-.28,0-.22-.46-.32-.5-.32l-2.46-.58a24.288,24.288,0,0,1-.68,4.24,14.511,14.511,0,0,1-1.98.12,8.069,8.069,0,0,1-1.62-.12l.16,2.08a26.369,26.369,0,0,0,2.98-.24,33.3,33.3,0,0,1-4.06,9.52l2.44.74a56.72,56.72,0,0,0,4.12-10.64A24.138,24.138,0,0,0,158.18,6.7Zm4.84,11.44-.2-2.32a13.167,13.167,0,0,1-3.52.44,4.683,4.683,0,0,1-2.54-.54.687.687,0,0,1-.24-.6,3.782,3.782,0,0,1,.08-.74l-1.98-.42a4.635,4.635,0,0,0-.24,1.44c0,2.04,1.54,3.04,5.14,3.04A19.345,19.345,0,0,0,163.02,18.14ZM184.38,6.8V4.68H177.1V2.74c.2-.18.44-.34.44-.46,0-.18-.28-.24-.36-.24l-2.56-.2V4.68h-7.26V6.8h6.18a10.972,10.972,0,0,1-1.58,6.4,10.174,10.174,0,0,1-4.7,3.88l1.78,1.7a12.374,12.374,0,0,0,3.9-3.14,12.839,12.839,0,0,0,2.4-4.74h4.28a12.256,12.256,0,0,1-.58,4.94,1.484,1.484,0,0,1-1.62.98,15.017,15.017,0,0,1-1.54-.06l1.04,2.22c2.76-.08,3.82-.82,4.54-3.44a22.523,22.523,0,0,0,.48-6.66h-6.18a15.843,15.843,0,0,0,.2-2.08Zm20.06,3.56A7.066,7.066,0,0,0,197,3.08a8.626,8.626,0,0,0-8.82,8.48,5.691,5.691,0,0,0,4,5.38c1.04,0,1.96-1.68,2.56-2.92a28.4,28.4,0,0,0,2.48-8.9,5.117,5.117,0,0,1,3.4,1.34,4.715,4.715,0,0,1,1.44,3.5,6.257,6.257,0,0,1-1.44,3.98,6.736,6.736,0,0,1-3.6,2.14l1.48,2.06a9.655,9.655,0,0,0,4.66-3.52A7.473,7.473,0,0,0,204.44,10.36Zm-9.6-4.88c-.4,3.12-2.12,8.34-3.16,8.34-.36,0-1.28-.84-1.28-2.46a6.55,6.55,0,0,1,2-4.44A5.9,5.9,0,0,1,194.84,5.48Zm30.04,7.36c-.86-.56-1.48-.94-2.58-1.56a24.142,24.142,0,0,0,.68-2.98c.06-.28.06-.32.22-.42.28-.14.3-.16.3-.26,0-.18-.28-.28-.48-.34l-2.24-.62a17,17,0,0,1-.52,3.66,12.87,12.87,0,0,0-3.86-.92c.28-.62,1.7-3.84,1.72-3.92a8.152,8.152,0,0,1,1.04-1.7l-1.32-1.32c-1.08.7-3.44,1.1-6.52,1.08l.9,2.02a13.959,13.959,0,0,0,3.64-.62,46.312,46.312,0,0,1-1.62,4.34,5.4,5.4,0,0,0-3.18.96,4.971,4.971,0,0,0-2.36,3.96,2.334,2.334,0,0,0,2.26,2.58c1.76,0,2.62-1.28,4.6-5.52a12.383,12.383,0,0,1,4,1.12,9.675,9.675,0,0,1-3.98,4.7l1.98,1.38a11.153,11.153,0,0,0,3.96-4.98c.46.3,1.02.68,2.08,1.5Zm-11.54-1.52a22.713,22.713,0,0,1-1.32,2.48.912.912,0,0,1-.84.48c-.14,0-.4-.02-.4-.54C210.78,13,211.62,11.86,213.34,11.32Zm33.72-7.16a9.11,9.11,0,0,0-1.56-1.68l-1.04.76a7.941,7.941,0,0,1,1.42,1.72Zm-2.18,1.12a12.322,12.322,0,0,0-1.54-1.7l-1.08.8a8.936,8.936,0,0,1,1.58,1.76Zm-.32,5.4c0-2.12-2.72-5.34-3.64-6.44L239.3,5.36c2.12,2.46,2.88,4.1,2.88,4.6,0,.48-.42.58-1.14.68l1.06,1.9C242.84,12.44,244.56,12.2,244.56,10.68Zm-4.54.02c0-1.78-.24-4.16-2.94-4.16a8.356,8.356,0,0,0-1.46.14c.16-.9.2-1.26.3-2.06.04-.26.04-.26.28-.42.2-.12.22-.14.22-.22,0-.16-.22-.26-.48-.3l-2.4-.34a23.937,23.937,0,0,1-.2,3.8c-1.64.36-2.32.5-3.84.74l.74,2.4a17.913,17.913,0,0,1,2.72-1.08,21.228,21.228,0,0,1-3.62,7.8l2.08.94a26.847,26.847,0,0,0,3.8-9.26,6.618,6.618,0,0,1,1.08-.1c1.24,0,1.62.48,1.62,2.02,0,.96-.16,3.48-1.06,4.6a1.556,1.556,0,0,1-1.38.56,5.886,5.886,0,0,1-1.36-.16l.48,2.16a14.075,14.075,0,0,0,1.5.08,3,3,0,0,0,2.28-.78C239.32,16.16,240.02,13.58,240.02,10.7Zm26.02-8.22c0-.18-.16-.22-.4-.24l-2.18-.18V16.2c0,.52-.32.68-.94.68a11.8,11.8,0,0,1-1.42-.12l.98,2.24c2.74-.02,3.6-.54,3.6-2.16V3c0-.06.14-.2.26-.34C266,2.6,266.04,2.56,266.04,2.48Zm-4.4,1.34c0-.18-.18-.22-.38-.24l-2.18-.18V14.66h2.16V4.36c0-.08.1-.18.2-.26S261.64,3.94,261.64,3.82ZM257.7,8.54v-2h-2.86V4a10.012,10.012,0,0,0,1.92-.46,5.422,5.422,0,0,0,.64.14c.08,0,.16,0,.16-.12,0-.16-.2-.38-.26-.44l-1.38-1.5a16.5,16.5,0,0,1-6.82,1.16l.86,1.82c.88-.04,1.7-.12,2.56-.24V6.54h-3.54v2h2.98a12.271,12.271,0,0,1-1.32,3.2,14.353,14.353,0,0,1-2.26,2.9l2.02,1.06a15.6,15.6,0,0,0,2.12-3.2v6.42h2.32V12.14a13.552,13.552,0,0,0,1.7,1.54l1.08-1.54a14.624,14.624,0,0,1-2.78-3v-.6Zm27.4,8.52V2.18H270.88c.18,2.1.26,4.2.26,6.3,0,5-.28,7.3-1.6,9.56l2.08.74a15.243,15.243,0,0,0,1.64-6.62h3.7v5.7h2.26v-5.7h3.6v3.96c0,.56-.26.72-1.08.72a4.906,4.906,0,0,1-.92-.08l1.1,2.18C285.08,18.72,285.1,18.12,285.1,17.06Zm-2.28-11h-3.6V4.12h3.6Zm0,4.22h-3.6V7.94h3.6Zm-5.86-4.22h-3.6c0-.74,0-1.22-.02-1.94h3.62Zm0,4.22h-3.62c0-.4.02-.6.04-2.34h3.58ZM306.3,8.36a9.227,9.227,0,0,0-1.66-1.52l-.84.96a9.259,9.259,0,0,1,1.66,1.52Zm-1.62,1.82a8.72,8.72,0,0,0-1.66-1.54l-.82.96a8.88,8.88,0,0,1,1.64,1.54Zm.66-5.22V2.64c-3.78,1.16-9.98,1.64-14.3,1.6l.34,2.24c2-.28,4.94-.52,7.62-.74a14.912,14.912,0,0,0-2.64,3.04A7.275,7.275,0,0,0,295,12.76a5.017,5.017,0,0,0,1.48,3.6,8.975,8.975,0,0,0,4.92,2.22l.78-2.44a6.3,6.3,0,0,1-3.52-1.02,3.174,3.174,0,0,1-1.44-2.6,7.424,7.424,0,0,1,2.44-4.8A8.15,8.15,0,0,1,305.34,4.96ZM23.86,41.72l-.36-2a22.8,22.8,0,0,1-3.64,1.8c-.32-.7-.4-.9-.66-1.52a13.174,13.174,0,0,0,3.16-1.36l-.44-1.94a19.3,19.3,0,0,1-3.42,1.54,17.433,17.433,0,0,1-.6-1.84c0-.06.02-.12.18-.28.1-.1.16-.16.16-.26,0-.24-.5-.18-.66-.16l-2.28.26c.32.94.54,1.58,1,2.82a24.664,24.664,0,0,1-4.66.4l.62,1.92a22.961,22.961,0,0,0,4.76-.54c.2.46.42.96.72,1.64a26.513,26.513,0,0,1-6.3.6l.7,2.02a25.794,25.794,0,0,0,6.42-.88c.38.74.56,1.1,1.04,1.96a15.277,15.277,0,0,0-2.86-.32c-2.26,0-4.42.74-4.42,3.48,0,2.64,2.48,3.78,6.08,3.78a20.133,20.133,0,0,0,3.16-.24l.2-2.36a14.59,14.59,0,0,1-4,.54c-.68,0-3.28,0-3.28-1.7,0-1.08,1.1-1.64,2.42-1.64a11.261,11.261,0,0,1,5.24,1.52l1.22-1.52a21.711,21.711,0,0,1-2.64-4.16A14.833,14.833,0,0,0,23.86,41.72Zm20.72,5a4.408,4.408,0,0,0-4.44-4.42,15.924,15.924,0,0,0-1.94.12,49.45,49.45,0,0,1,4.44-4.28L41.6,36.52a22.666,22.666,0,0,1-6.06,1c-.62,0-1.76-.08-2.24-.12l.46,2.24a18.671,18.671,0,0,0,4.68-.5,39.485,39.485,0,0,1-7.4,7.22l1.68,1.76a22.577,22.577,0,0,1,4.12-3.58,5.424,5.424,0,0,1,2.28-.5c1.3,0,3.24.64,3.24,2.62a3.523,3.523,0,0,1-1.32,2.66,5.227,5.227,0,0,0-3.94-2.34,2.8,2.8,0,0,0-2.94,2.66c0,1.48,1.28,2.74,3.78,2.74C41.46,52.38,44.58,50.04,44.58,46.72Zm-5.4,3.58a5.686,5.686,0,0,1-1.36.18c-.72,0-1.64-.2-1.64-.9a.881.881,0,0,1,1-.84C38.32,48.74,38.92,49.84,39.18,50.3Zm27.74-2.7V46.04H65.8V43.72H59.6v-.76h4.9V39.28H59.6v-.7h7.24V36.86H59.6v-.38a.211.211,0,0,1,.12-.18c.18-.14.22-.16.22-.28s-.14-.16-.24-.18l-2.36-.3v1.32H50.08v1.72h7.26v.7H52.42v3.68h4.92v.76h-6.1v1.56h6.1v.76H50.08V47.6h7.26v.86h-6.1v1.56h6.1v.6c0,.36-.3.46-.62.46-.34,0-.9-.06-1.42-.1l1,2.18c2.8-.02,3.3-.54,3.3-1.7V50.02h4.1v.54h2.1V47.6Zm-4.48-6H59.6v-.96h2.84Zm-5.1,0H54.46v-.96h2.88Zm6.36,4.44H59.6v-.76h4.1Zm0,2.42H59.6V47.6h4.1ZM78.62,50.8V41.38H71.38V52.9H73.5V48.86h2.96v1.46c0,.34-.16.5-.56.5a9.384,9.384,0,0,1-1.32-.12l.84,2.28C77.16,52.98,78.62,52.7,78.62,50.8Zm-2.16-6.56H73.5v-1.1h2.96Zm0,2.86H73.5V46h2.96Zm11.12-6.96V38.3H83.02c.14-.18.74-1.2.8-1.24a3.788,3.788,0,0,1,.36-.12c.12-.04.16-.1.16-.18a.218.218,0,0,0-.14-.2l-2.54-.74A12.549,12.549,0,0,1,80.3,38.3H76.38l.74-.36a24.169,24.169,0,0,0-1.64-2.22l-2.18.96a16.141,16.141,0,0,1,1.24,1.62H70.28v1.84ZM86.9,41.4c0-.08-.1-.16-.24-.18l-2.48-.18v8.94c0,.54-.2.7-.9.7-.42,0-.78-.04-1.2-.08l1.06,2.24c2.48-.02,3.36-.26,3.36-2.22V41.98c0-.06.14-.22.28-.34A.456.456,0,0,0,86.9,41.4Zm-4.16.3a.246.246,0,0,0-.26-.22l-2.38-.12v8.06h2.16V42.24c0-.08.04-.1.32-.3A.31.31,0,0,0,82.74,41.7Zm26.16,8.28a13.193,13.193,0,0,1-4.3-5.4,29.887,29.887,0,0,0,2.52-2.32c.28-.3.3-.34.56-.34.22,0,.4,0,.4-.14,0-.1-.14-.24-.36-.4l-1.9-1.4a19.755,19.755,0,0,1-1.88,2.26,13.636,13.636,0,0,1-.16-2.58l-1.46.18c.62-.46,2-1.52,3.1-2.42l-.98-1.22H93.02v2.12h7.64a10.355,10.355,0,0,1-1.34,1.14l-.98-.4v2.6H97.22V43.6h1.12v1.08h-1.7v1.84h1.7v1H95.86v1.84h2.48v1.08c0,.44-.4.54-.66.54-.46,0-1.16-.12-1.54-.16l1.12,2.44H98.7a1.79,1.79,0,0,0,1.94-1.88V49.36h2.3V47.52h-2.3v-1H102V44.68h-1.36V43.6h.82V41.66h-.82v-.58c.22-.16.6-.42.86-.64.42,3.98,1.96,8.22,5.4,11.02Zm-12-9.38H91.12v2.28h3.2a14.385,14.385,0,0,1-4.6,7.74l2.44,1A17.614,17.614,0,0,0,96.9,40.6Zm31-4.32h-9.28v1.98h2.62a9.778,9.778,0,0,1-.24,1.4c-.92-.38-1.28-.48-1.52-.56l-1,1.74c.7.28,1.1.46,1.66.72A6.956,6.956,0,0,1,118,43.6l1.6,1.42a9.094,9.094,0,0,0,2.38-2.54,14.006,14.006,0,0,1,1.22.7l.32-.52.5,1.82a10.174,10.174,0,0,0-1.16-.84l-1.3,1.46a17.717,17.717,0,0,1,1.52,1.18l-.08-.02-2.08-.08V51.3a1.559,1.559,0,0,0,1.72,1.56h2.44c.84,0,1.26-.44,1.94-2.6L124.96,49a7.784,7.784,0,0,1-.4,1.46c-.08.22-.22.42-.48.42h-.5c-.36,0-.48-.14-.48-.52v-3.3c0-.1.32-.38.34-.46.3.26.34.28.72.62l1.18-1.56a11.607,11.607,0,0,0-1.08-1c1,.04,2.06,0,2.62-.88C128.04,41.98,127.92,36.42,127.9,36.28Zm-2.26,1.98a28.429,28.429,0,0,1-.38,3.48c-.16.78-.4.82-.8.82a4.247,4.247,0,0,1-.86-.06l.74-1.2c-.28-.16-.54-.34-1.44-.8a8.579,8.579,0,0,0,.4-2.24Zm-4.76,9.5c0-.14-.1-.2-.22-.24l-1.76-.54a22.375,22.375,0,0,1-1.2,3.7V46.54h-6.02v6.3h1.9v-.82h2.2v.58h1.92V51.32l1.66.42a16.325,16.325,0,0,0,1.22-3.72C120.68,47.98,120.88,47.92,120.88,47.76Zm-5.12,2.42h-2.18V48.36h2.18Zm13.3-.58a14.886,14.886,0,0,0-2.04-3.4l-1.6.94a20.324,20.324,0,0,1,1.96,3.62ZM117.1,37.8V36.1h-5.14v1.7Zm.9,2.68V38.74h-6.78v1.74Zm-.78,2.48V41.32h-5.26v1.64Zm.04,2.6V43.9h-5.3v1.66Zm31.26-9.38c0-.18-.32-.24-.44-.24l-2.02-.16v14.6c0,.62-.5.62-.72.62-.12,0-.76-.02-1.58-.06l1.12,2.14c2.28-.06,3.26-.14,3.26-2.14V36.76c0-.1.04-.14.18-.28C148.44,36.36,148.52,36.26,148.52,36.18Zm-3.58,2.12c0-.22-.44-.24-.58-.24L142.58,38V49.04h2V38.74C144.8,38.54,144.94,38.44,144.94,38.3Zm-3,4.86V41.22h-4.1V39.84h3.4V37.9h-3.4V36.48c.18-.16.36-.28.36-.44s-.34-.22-.46-.22l-2-.08V37.9h-1.18l.18-.48c.22-.08.44-.08.44-.28,0-.18-.3-.24-.36-.26l-1.88-.38a14.053,14.053,0,0,1-1.74,3.74l2.1.6c.28-.54.36-.72.48-1h1.96v1.38h-4.22v1.94h4.22V44.4h-3.5v7.62h2.1v-5.7h1.4v6.7h2.1v-6.7h1.42V49.4c0,.58-.42.56-1.28.56l.9,1.88c1.44-.24,2.5-.4,2.5-1.66V44.4h-3.54V43.16Zm26.7,1.2a7.066,7.066,0,0,0-7.44-7.28,8.626,8.626,0,0,0-8.82,8.48,5.691,5.691,0,0,0,4,5.38c1.04,0,1.96-1.68,2.56-2.92a28.4,28.4,0,0,0,2.48-8.9,5.117,5.117,0,0,1,3.4,1.34,4.715,4.715,0,0,1,1.44,3.5,6.257,6.257,0,0,1-1.44,3.98,6.736,6.736,0,0,1-3.6,2.14l1.48,2.06a9.655,9.655,0,0,0,4.66-3.52A7.473,7.473,0,0,0,168.64,44.36Zm-9.6-4.88c-.4,3.12-2.12,8.34-3.16,8.34-.36,0-1.28-.84-1.28-2.46a6.55,6.55,0,0,1,2-4.44A5.9,5.9,0,0,1,159.04,39.48Zm29.06,5.24V42.6a22.968,22.968,0,0,0-2.64-.12c-1.06,0-2.06.06-3.1.14v2.1a24.511,24.511,0,0,1,3-.22A21.736,21.736,0,0,1,188.1,44.72Zm-4.52-4.02V38.48a15.642,15.642,0,0,1-3.18,1.18c.14-.56.3-1.28.48-2.18.04-.2.08-.22.34-.34.18-.08.24-.14.24-.28,0-.22-.46-.32-.5-.32l-2.46-.58a24.288,24.288,0,0,1-.68,4.24,14.511,14.511,0,0,1-1.98.12,8.07,8.07,0,0,1-1.62-.12l.16,2.08a26.369,26.369,0,0,0,2.98-.24,33.3,33.3,0,0,1-4.06,9.52l2.44.74a56.72,56.72,0,0,0,4.12-10.64A24.138,24.138,0,0,0,183.58,40.7Zm4.84,11.44-.2-2.32a13.167,13.167,0,0,1-3.52.44,4.683,4.683,0,0,1-2.54-.54.687.687,0,0,1-.24-.6,3.781,3.781,0,0,1,.08-.74l-1.98-.42a4.635,4.635,0,0,0-.24,1.44c0,2.04,1.54,3.04,5.14,3.04A19.345,19.345,0,0,0,188.42,52.14Zm20.8-6.54a5.912,5.912,0,0,0-2.02-4.52,6.876,6.876,0,0,0-3.62-1.48c.2-.9.22-1.04.46-2.44,0-.08.1-.16.16-.2.2-.14.28-.18.28-.28,0-.24-.46-.28-.64-.3l-2.32-.22a19.839,19.839,0,0,1-.28,3.46,9.748,9.748,0,0,0-3.28,1.08,16.545,16.545,0,0,1-.66-3.26l-2.34.94c.26,1.06.56,2.06,1.12,3.68a8.03,8.03,0,0,0-2.68,5.8c0,2.16,1.12,3.42,2.52,3.42,1.32,0,2.72-1.4,3.3-1.98a10.766,10.766,0,0,0,.8,1.22l1.66-1.82a13.2,13.2,0,0,1-.92-1.36,24.69,24.69,0,0,0,2.32-5.74,3.9,3.9,0,0,1,3.72,3.78,5.175,5.175,0,0,1-1.62,3.72,7.3,7.3,0,0,1-3.8,1.78l1.38,1.92a9.038,9.038,0,0,0,4.16-2.28A6.931,6.931,0,0,0,209.22,45.6Zm-8.42-3.82a22.083,22.083,0,0,1-1.18,3.34c-.4-.86-.7-1.58-.98-2.34A6.233,6.233,0,0,1,200.8,41.78Zm-2.56,5.64c-.28.36-1.1,1.38-1.94,1.38-.54,0-.78-.54-.78-1.12a5.811,5.811,0,0,1,1.34-3.48C197.5,45.82,197.82,46.52,198.24,47.42Zm14.7,1.3a16.444,16.444,0,0,1,3.86,4.44l2.08-1.66a11.764,11.764,0,0,0-4.44-4.34Zm27.6-3.88V42.8H231.8c.18-.3.92-1.86.98-1.9.04-.02.32-.06.36-.08.1-.04.12-.1.12-.14,0-.16-.32-.3-.4-.36l-1.6-.76h6.78v2.02h2.22v-4h-6.92v-.64c0-.14.06-.2.32-.38a.31.31,0,0,0,.14-.24c0-.12-.14-.22-.56-.24l-2.4-.12v1.62h-6.76V41.5h2.18V39.56h4.48a20.085,20.085,0,0,1-1.5,3.24h-5.6v2.04h4.4a24.918,24.918,0,0,1-2.32,3.14l2.28.96c.2-.26.24-.3.58-.8a13.351,13.351,0,0,1,2.64.9,14.2,14.2,0,0,1-7.08,1.88l1.1,2.02c4.84-.5,6.76-1.92,8.06-2.88a21.016,21.016,0,0,1,4.5,3.06l1.76-1.86a26.034,26.034,0,0,0-4.62-2.8,18.977,18.977,0,0,0,2.28-3.62Zm-5.9,0a11.728,11.728,0,0,1-1.7,2.76,20.123,20.123,0,0,0-3.36-1.02c.66-1.06.72-1.16,1.06-1.74Zm21.26-6.52a18.217,18.217,0,0,0-4.72-2.64l-1.16,1.94a22.074,22.074,0,0,1,4.46,2.74Zm5.54,8.52a21.452,21.452,0,0,0-3.58-5.52l-2,1.14a24.081,24.081,0,0,1,3.4,5.54Zm-2.78,2.56-2.12-1.08c-.46,1.86-1.06,2.2-1.76,2.2h-2.04a1,1,0,0,1-1.08-1.04V42a.647.647,0,0,1,.28-.5c.16-.14.24-.24.24-.36,0-.18-.14-.22-.3-.24l-2.6-.3v9.88c0,1.5.72,2.2,2.32,2.2h4.26C257.42,52.68,258.04,51.52,258.66,49.4Zm-10-6.36a.3.3,0,0,0-.24-.28l-2.36-.62a28.326,28.326,0,0,1-2.48,6.34l2.26.78a37.455,37.455,0,0,0,2.2-5.46c.08-.24.12-.26.44-.48A.348.348,0,0,0,248.66,43.04Zm31.44,4.08-1.96-1.62c-1.96,3.84-4.64,4.54-5.76,4.54a1.929,1.929,0,0,1-1.76-.84,10.531,10.531,0,0,1-.38-3.54,75.592,75.592,0,0,1,.56-8c.32-.26.56-.42.56-.58,0-.12-.18-.26-.66-.32l-2.66-.38c.06,1.34-.1,7.28-.1,8.5,0,4.8.32,5.82,1.26,6.64a4.449,4.449,0,0,0,2.92,1.02,7.229,7.229,0,0,0,3.98-1.28A14.923,14.923,0,0,0,280.1,47.12Zm20.34-8.22V36.5a60.55,60.55,0,0,1-14.58,1.86l.4,2.36a76.474,76.474,0,0,1,7.62-.86c-.94.88-3.88,3.64-3.88,7.06,0,4.46,5,5.5,6.62,5.84l.7-2.52a5.936,5.936,0,0,1-3.48-.96,3.427,3.427,0,0,1-1.48-2.8c0-2,1.66-4.22,3.42-5.64A7.741,7.741,0,0,1,300.44,38.9ZM113.04,70.48c0-.18-.16-.22-.4-.24l-2.18-.18V84.2c0,.52-.32.68-.94.68a11.8,11.8,0,0,1-1.42-.12l.98,2.24c2.74-.02,3.6-.54,3.6-2.16V71c0-.06.14-.2.26-.34C113,70.6,113.04,70.56,113.04,70.48Zm-4.4,1.34c0-.18-.18-.22-.38-.24l-2.18-.18V82.66h2.16V72.36c0-.08.1-.18.2-.26S108.64,71.94,108.64,71.82Zm-3.94,4.72v-2h-2.86V72a10.011,10.011,0,0,0,1.92-.46,5.422,5.422,0,0,0,.64.14c.08,0,.16,0,.16-.12,0-.16-.2-.38-.26-.44l-1.38-1.5a16.5,16.5,0,0,1-6.82,1.16l.86,1.82c.88-.04,1.7-.12,2.56-.24v2.18H95.98v2h2.98a12.271,12.271,0,0,1-1.32,3.2,14.353,14.353,0,0,1-2.26,2.9L97.4,83.7a15.6,15.6,0,0,0,2.12-3.2v6.42h2.32V80.14a13.554,13.554,0,0,0,1.7,1.54l1.08-1.54a14.624,14.624,0,0,1-2.78-3v-.6Zm27.4,8.52V70.18H117.88c.18,2.1.26,4.2.26,6.3,0,5-.28,7.3-1.6,9.56l2.08.74a15.243,15.243,0,0,0,1.64-6.62h3.7v5.7h2.26v-5.7h3.6v3.96c0,.56-.26.72-1.08.72a4.907,4.907,0,0,1-.92-.08l1.1,2.18C132.08,86.72,132.1,86.12,132.1,85.06Zm-2.28-11h-3.6V72.12h3.6Zm0,4.22h-3.6V75.94h3.6Zm-5.86-4.22h-3.6c0-.74,0-1.22-.02-1.94h3.62Zm0,4.22h-3.62c0-.4.02-.6.04-2.34h3.58Zm29.34-1.92a9.226,9.226,0,0,0-1.66-1.52l-.84.96a9.259,9.259,0,0,1,1.66,1.52Zm-1.62,1.82a8.72,8.72,0,0,0-1.66-1.54l-.82.96a8.879,8.879,0,0,1,1.64,1.54Zm.66-5.22V70.64c-3.78,1.16-9.98,1.64-14.3,1.6l.34,2.24c2-.28,4.94-.52,7.62-.74a14.913,14.913,0,0,0-2.64,3.04A7.275,7.275,0,0,0,142,80.76a5.017,5.017,0,0,0,1.48,3.6,8.975,8.975,0,0,0,4.92,2.22l.78-2.44a6.3,6.3,0,0,1-3.52-1.02,3.174,3.174,0,0,1-1.44-2.6,7.424,7.424,0,0,1,2.44-4.8A8.15,8.15,0,0,1,152.34,72.96Zm19.52,2.76-.36-2a22.8,22.8,0,0,1-3.64,1.8c-.32-.7-.4-.9-.66-1.52a13.174,13.174,0,0,0,3.16-1.36l-.44-1.94a19.3,19.3,0,0,1-3.42,1.54,17.431,17.431,0,0,1-.6-1.84c0-.06.02-.12.18-.28.1-.1.16-.16.16-.26,0-.24-.5-.18-.66-.16l-2.28.26c.32.94.54,1.58,1,2.82a24.664,24.664,0,0,1-4.66.4l.62,1.92a22.961,22.961,0,0,0,4.76-.54c.2.46.42.96.72,1.64a26.512,26.512,0,0,1-6.3.6l.7,2.02a25.794,25.794,0,0,0,6.42-.88c.38.74.56,1.1,1.04,1.96a15.277,15.277,0,0,0-2.86-.32c-2.26,0-4.42.74-4.42,3.48,0,2.64,2.48,3.78,6.08,3.78a20.133,20.133,0,0,0,3.16-.24l.2-2.36a14.59,14.59,0,0,1-4,.54c-.68,0-3.28,0-3.28-1.7,0-1.08,1.1-1.64,2.42-1.64a11.261,11.261,0,0,1,5.24,1.52l1.22-1.52a21.71,21.71,0,0,1-2.64-4.16A14.833,14.833,0,0,0,171.86,75.72Zm20.56,7.94a16.627,16.627,0,0,0-5.06-2.26c-.06-1.18-.06-1.38-.1-2.38a42.989,42.989,0,0,0,4.28-.5V76.34c-1.84.34-2.58.46-4.32.68V74.66c1-.02,2.86-.06,5.08-.06l.08-2.12c-1.88.14-2.56.18-5.12.3.02-1.04.04-1.42.04-1.44a.65.65,0,0,1,.26-.36c.22-.18.26-.2.26-.28,0-.14-.12-.2-.5-.24l-2.44-.24.06,2.66c-1.78.04-2.86.08-5.14.08l.04,2.16c1.72-.2,2.86-.28,5.16-.38l.04,2.5a13.725,13.725,0,0,1-1.38.04c-.34,0-.76,0-.76-.28,0-.26.3-.48.66-.74l-1.14-.98c-.78.56-2.14,1.5-2.14,2.48,0,.78.92,1.44,2.76,1.44.58,0,1.68-.04,2.04-.06l.04,1.92-.56-.02c-4.5-.16-4.7,2.16-4.7,2.74,0,1.62,1.72,2.6,4.48,2.6,2.56,0,3.04-.8,3.12-2.84a15.077,15.077,0,0,1,3.66,1.98Zm-7.28-.7c.02,1.12-.06,1.48-1.36,1.48-.24,0-1.52,0-1.52-.68,0-.52.64-.86,1.94-.86A5.177,5.177,0,0,1,185.14,82.96Zm28.88-8.54V72.26c-2.04.16-2.66.22-5.44.38V70.58c0-.08.02-.12.16-.24s.18-.18.18-.3c0-.2-.12-.26-.58-.28l-2.22-.14c.12,1.46.12,2.52.14,3.14-4.2.2-5.92.2-7.28.2v2.32c2.54-.32,5.56-.5,7.34-.6l.04,1.5a2.638,2.638,0,0,0-.94-.16c-2.04,0-3.14,1.52-3.14,3.72a3.579,3.579,0,0,0,1.04,2.78,2.518,2.518,0,0,0,1.64.62,4.022,4.022,0,0,0,1.08-.2,6.382,6.382,0,0,1-2.86,3.28l2.24,1.16a13.876,13.876,0,0,0,2.72-3.72,8.968,8.968,0,0,0,1.02-3.86,5.158,5.158,0,0,0-.58-2.44v-2.8C211.18,74.46,212.5,74.42,214.02,74.42Zm-7.28,5.06c0,1.42-.96,1.86-1.38,1.86-.46,0-1.1-.46-1.1-1.66,0-1.06.56-1.76,1.36-1.76a1.041,1.041,0,0,1,.74.28A1.865,1.865,0,0,1,206.74,79.48Z" transform="translate(-3.96 -1.62)"/></svg>