<svg xmlns="http://www.w3.org/2000/svg" width="671.704" height="39.116" viewBox="0 0 671.704 39.116"><defs><style>.a{fill:#2f2f2f;}</style></defs><path class="a" d="M32.208,0,16.676-18.612,31.768-32.12H23.5L9.372-18.48V-32.12H3.432V0h5.94V-12.144l3.256-2.9L24.772,0ZM42.02-26.4v-5.72H36.212v5.72Zm0,26.4V-23.672H36.212V0Zm11.4-26.4v-5.72H47.608v5.72Zm0,26.4V-23.672H47.608V0ZM85.668-27.1V-32.12H56.848V-27.1h11.44V0h5.94V-27.1ZM114.532,0V-5.016h-19.1v-9.5H112.42v-4.62H95.436V-27.1h18.392V-32.12H89.54V0Zm42.416-6.38a35.217,35.217,0,0,0-7.568-4.136,108.09,108.09,0,0,1-.616-11.792,41.107,41.107,0,0,0,5.5-1.232v-4.752a19.211,19.211,0,0,1-5.456,1.8,50.757,50.757,0,0,1,.616-5.456c.44-.264.836-.484.836-.7,0-.264-.132-.484-1.056-.616l-4.928-.792c-.088,4.356-.088,4.84-.176,8.14a34.831,34.831,0,0,1-4.092.264,22.9,22.9,0,0,1-3.96-.264l.044,4.532a48.909,48.909,0,0,0,7.964-.352c.088,2.992.22,4.84.572,10.076-.88-.088-1.8-.176-2.684-.176-4.268,0-7.744,1.716-7.744,5.676,0,6.336,7.392,6.336,8.668,6.336,5.984,0,6.864-2.288,6.952-5.676a23.539,23.539,0,0,1,4.62,3.476Zm-25.124-3.872-2.772-1.892-1.8,2.64a43.352,43.352,0,0,1-.22-4.62,111.8,111.8,0,0,1,1.628-13.64,12.577,12.577,0,0,1,.968-2.992,6.77,6.77,0,0,0,.836-.352.381.381,0,0,0,.176-.308c0-.44-.924-.836-1.056-.88l-4.268-1.672a83.412,83.412,0,0,0-2.684,20.592A47.333,47.333,0,0,0,124.3.264l4.048-.66C128.832-3.916,130.856-8.184,131.824-10.252ZM144.892-7.48c.088,2.288.176,3.3-2.728,3.3-2.6,0-3.872-.924-3.872-1.936s1.408-1.76,3.476-1.76A15.135,15.135,0,0,1,144.892-7.48Zm18.3.264a36.176,36.176,0,0,1,8.492,9.768L176.264-1.1a25.881,25.881,0,0,0-9.768-9.548ZM219.56-20.152V-24.9c-1.408.308-8.14,1.848-9.68,2.156-2.464.528-4.312.792-5.192.968a117.444,117.444,0,0,1,10.736-10.428l-2.244-3.7a41.094,41.094,0,0,1-13.024,2.024c-2.024,0-3.476-.132-4.884-.22l1.892,4.4A46.943,46.943,0,0,0,207.2-30.8c-3.168,4.136-8.844,9.724-10.208,10.428-1.056.528-7.128,1.012-8.668,1.144l.924,4.8c.748-.22,1.188-.308,1.76-.44,4.532-1.056,10.34-2.156,15.532-3.168-6.644,4.928-6.776,10.736-6.776,11.4a7.828,7.828,0,0,0,3.564,6.468c3.344,2.376,7.172,2.728,9.548,2.948l.88-4.8c-2.684-.044-8.844-.176-8.844-5.544,0-2.684,1.408-4.928,3.52-7.04C212.7-18.964,216.216-19.58,219.56-20.152ZM266.6-7.436l-2.86-4.224c-1.628,2.376-4.752,6.688-7.788,6.688-1.1,0-1.8-.528-1.8-2.068,0-1.1,1.012-5.94,1.012-6.952,0-2.728-1.628-5.324-5.5-5.324a12.909,12.909,0,0,0-4.4.924c2.728-6.292,5.808-11.572,6.468-11.792a7.912,7.912,0,0,1,.968-.264.468.468,0,0,0,.352-.4c0-.44-.792-.836-1.056-.968l-4.972-2.64c-.572,1.408-1.188,2.816-2.684,6.028-1.98,4.224-3.08,6.38-13.684,26.884L236.06,0c2.552-7.084,4.884-10.3,5.544-11,1.232-1.408,3.432-3.3,5.852-3.3a2.116,2.116,0,0,1,2.288,2.332c0,.7-.88,5.808-.88,6.908,0,.264,0,5.412,6.028,5.412C261.492.352,264.968-4.928,266.6-7.436ZM307.56-5.192a40.412,40.412,0,0,0-7.568-4,43.6,43.6,0,0,1-.572-6.116,4.03,4.03,0,0,1,1.672-3.52L296.516-21.3a6.647,6.647,0,0,0-1.892,4.488c0,.924.528,5.412.616,6.424a22.205,22.205,0,0,0-3.432-.264c-6.072,0-7.788,3.872-7.788,6.248a4.982,4.982,0,0,0,1.628,3.74C287.5.968,290,1.408,292.82,1.408c5.764,0,7.084-1.848,7.48-5.368a24.22,24.22,0,0,1,4.356,2.9Zm-12.1-.792c0,1.584.044,3.432-3.52,3.432-2.42,0-3.652-1.012-3.652-1.98,0-.88,1.056-2.112,3.344-2.112A14.776,14.776,0,0,1,295.46-5.984Zm13.332-17.6a21.745,21.745,0,0,0-9.812-4.048L297-23.848a31.142,31.142,0,0,1,9.636,4ZM295.68-25.872V-30.8c-1.144.4-2.464.836-5.06,1.5.176-.572,1.012-3.388,1.056-3.432.264-.264,1.012-.528,1.012-.968,0-.484-.836-.7-1.056-.748l-4.8-1.056a41.982,41.982,0,0,1-1.584,7.26,58.573,58.573,0,0,1-7.48.572l.66,4.576c2.068-.132,3.3-.264,5.324-.528a75.473,75.473,0,0,1-7.524,16.016l4.708,2.024c2.288-4.18,4.576-8.58,8.14-18.876C292.82-25.124,294.184-25.476,295.68-25.872ZM355.652-17.2c0-.4-.484-.484-1.056-.528l-4.62-.22V-3.96H335.148V-6.424L338.756-4a32.218,32.218,0,0,0,4.268-4.488,45.791,45.791,0,0,1,2.684,4.048l4.18-3.036a37.75,37.75,0,0,0-3.652-5.28,27.022,27.022,0,0,0,2.9-5.324c.088-.176.616-.308.968-.44a.474.474,0,0,0,.352-.44c0-.44-.748-.748-1.276-.88l-4.224-1.144a17.962,17.962,0,0,1-1.936,4.488,28.173,28.173,0,0,0-3.564-3.168l-3.3,2.552a3.883,3.883,0,0,0-1.628-.44l-4.092-.22V1.8h4.708V.484h14.828V1.76h4.708V-15.708a1.385,1.385,0,0,1,.616-.924C355.432-16.764,355.652-16.984,355.652-17.2ZM340.12-12.188a16.19,16.19,0,0,1-4.972,4.224v-7.744c0-.44.4-.616.7-.792A32.329,32.329,0,0,1,340.12-12.188Zm16.192-20.548c0-.44-.572-.66-1.1-.792l-4.972-1.364a81.16,81.16,0,0,1-4.928,12.1l4.972,1.672A58.677,58.677,0,0,0,354.86-31.5a1.37,1.37,0,0,1,.924-.748C356.048-32.34,356.312-32.428,356.312-32.736Zm-10.648,7.48a47.452,47.452,0,0,0-2.992-10.032L338.14-33.88a39.289,39.289,0,0,1,3.256,9.724Zm-6.688,1.672a37.544,37.544,0,0,0-4.136-10.164L330.66-31.9a31.859,31.859,0,0,1,4.048,9.856Zm-5.9,2.42a22.926,22.926,0,0,0-3.036-7.26l-2.332.88V-33.22c.484-.308.968-.66.968-1.056,0-.44-.352-.66-1.5-.748l-4.312-.352v8.008a4.248,4.248,0,0,0-.792-.132l-3.7-.264a37.215,37.215,0,0,1-1.672,10.912l4.4.352a36.484,36.484,0,0,0,1.32-9.724c.176-.088.22-.132.44-.264V1.892h4.84V-24.156a13.949,13.949,0,0,1,1.628,5.016Zm65.384,9.812c-1.892-1.232-3.256-2.068-5.676-3.432a53.111,53.111,0,0,0,1.5-6.556c.132-.616.132-.7.484-.924.616-.308.66-.352.66-.572,0-.4-.616-.616-1.056-.748l-4.928-1.364A37.412,37.412,0,0,1,388.3-16.9a28.314,28.314,0,0,0-8.492-2.024c.616-1.364,3.74-8.448,3.784-8.624a17.936,17.936,0,0,1,2.288-3.74l-2.9-2.9c-2.376,1.54-7.568,2.42-14.344,2.376l1.98,4.444a30.71,30.71,0,0,0,8.008-1.364,101.885,101.885,0,0,1-3.564,9.548,11.872,11.872,0,0,0-7,2.112c-3.08,2.068-5.192,5.324-5.192,8.712,0,3.256,1.98,5.676,4.972,5.676,3.872,0,5.764-2.816,10.12-12.144a27.241,27.241,0,0,1,8.8,2.464c-2.64,5.588-4.884,7.832-8.756,10.34l4.356,3.036c4.092-3.036,6.16-5.5,8.712-10.956,1.012.66,2.244,1.5,4.576,3.3ZM373.076-14.7a49.97,49.97,0,0,1-2.9,5.456,2.007,2.007,0,0,1-1.848,1.056c-.308,0-.88-.044-.88-1.188C367.444-11,369.292-13.508,373.076-14.7Zm66.748-2.42-1.5-5.016c-2.068.924-2.64,1.188-7.788,3.608-1.012-2.9-2.948-4.444-5.984-4.444a8.509,8.509,0,0,0-3.784.924c.748-1.144,1.1-1.76,2.508-4.356A92.617,92.617,0,0,0,433.8-28.072L434.1-33a37.152,37.152,0,0,1-8.624,2.244c.22-.484,1.32-2.948,1.364-2.992.044,0,.924-.4,1.012-.44.264-.088.44-.22.44-.484,0-.308-.748-.4-.88-.44l-5.5-.968a34.119,34.119,0,0,1-2.2,5.852,61.887,61.887,0,0,1-8.4-.176l.528,4.576c1.848,0,3.212-.044,5.72-.176a58.5,58.5,0,0,1-8.668,12.1L413.2-11.22c2.42-3.96,5.06-7.964,9.372-7.964,2.552,0,3.08,1.584,3.344,2.9-6.6,3.388-10.648,5.456-10.648,10.912a6.015,6.015,0,0,0,1.672,4.312c2.772,2.948,7.876,2.948,10.34,2.948a72.819,72.819,0,0,0,10.472-.66V-3.74a50.873,50.873,0,0,1-11.22,1.408c-3.212,0-6.6-.572-6.6-3.432,0-3.08,4.576-5.368,6.248-6.2-.044,1.936-.088,4.092-.22,6.6h5.1c0-1.5-.088-6.952-.088-8.668C434.236-15.268,436.348-16.016,439.824-17.116ZM467.676-1.408V-25.7h-4.488l3.256-5.324-1.1-1.54H458.3c.308-.748.352-.836.748-.924.264-.088.572-.176.572-.528s-.352-.484-1.144-.616l-3.828-.66a41.564,41.564,0,0,1-6.38,10.78l3.828,1.672a61.338,61.338,0,0,1,.308,6.38c0,9.636-1.892,13.288-3.608,16.72l4.048,1.5A32.489,32.489,0,0,0,455.8-8.052h8.272v4.8c0,1.32-1.232,1.584-2.288,1.584-.264,0-.748-.044-1.32-.088l1.232,3.74C463.628,1.936,467.676,1.848,467.676-1.408Zm-9.284-17.2H456.06v-3.256h2.332Zm5.676,0h-2.42v-3.256h2.42Zm0,6.776h-2.42v-3.3h2.42Zm-5.676,0h-2.244v-3.3h2.244Zm1.672-17.116L458.04-25.7h-3.564a28.138,28.138,0,0,0,1.98-3.256Zm27.544-5.236H469.524V-30.8h3.784a9.915,9.915,0,0,1-5.544,7.656l3.432,2.728a17.55,17.55,0,0,1-3.432,7l3.344,2.376a27.316,27.316,0,0,0,1.716-2.86h4.4v3.828h-7.48v3.828h7.48V1.76h4.356V-6.248h5.588v-3.828H481.58V-13.9h5.1v-3.872h-5.1v-.792a1.22,1.22,0,0,1,.44-.748,1.385,1.385,0,0,0,.352-.66c0-.308-1.056-.484-1.672-.616,4.048-.264,6.776-1.32,6.864-9.152ZM482.9-30.8c-.044,2.9-.088,5.9-3.08,5.9a9.344,9.344,0,0,1-1.32-.088l1.8,4.356-3.08-.352v3.212H474.5l.088-.4c.528-.264.66-.308.66-.616s-1.056-.66-1.584-.88l-1.716-.66A17.293,17.293,0,0,0,478.192-30.8ZM532.312-1.892c-5.368-2.376-10.032-6.248-12.364-11.572h12.188v-4.444h-3.124l.572-10.78h-10.56c0-.792-.044-4.224-.044-4.884,0-.4.088-.44.66-.88.132-.088.308-.22.308-.4,0-.528-.792-.616-1.276-.616l-5.1-.176c.22,2.684.264,4.4.308,6.952H506.22v4.4h7.7c0,4.048,0,4.532-.088,6.38h-9.416v4.444H513.3c-1.672,6.248-6.512,10.076-12.144,11.88l3.388,4.136c8.228-3.52,11.088-9.2,12.276-12.056a27.008,27.008,0,0,0,5.148,6.864,27.779,27.779,0,0,0,7.172,5.06Zm-7.964-22.4-.264,6.38H518.8c.132-4.136.132-4.576.132-6.38ZM503.4-31.724a29.493,29.493,0,0,0-5.808-4.092L495-32.34a25.593,25.593,0,0,1,5.808,4.136ZM499.928-20.5a33,33,0,0,0-5.808-3.74l-2.684,3.74a35.254,35.254,0,0,1,5.852,3.74ZM502.48-10.34l-4-2.684A49.456,49.456,0,0,1,493.064.044l3.74,2.244a3.787,3.787,0,0,0,1.1.44c.132,0,.22-.044.22-.352a9.174,9.174,0,0,1,0-1.1c.044-.132,1.716-4,2.024-4.8C501.116-6.16,501.776-8.1,502.48-10.34Zm69.828-.4L568-14.3c-4.312,8.448-10.208,9.988-12.672,9.988a4.243,4.243,0,0,1-3.872-1.848c-.836-1.5-.836-5.764-.836-7.788a166.307,166.307,0,0,1,1.232-17.6c.7-.572,1.232-.924,1.232-1.276,0-.264-.4-.572-1.452-.7l-5.852-.836c.132,2.948-.22,16.016-.22,18.7,0,10.56.7,12.8,2.772,14.608a9.787,9.787,0,0,0,6.424,2.244,15.9,15.9,0,0,0,8.756-2.816C567.864-4.444,570.5-8.228,572.308-10.736Zm42.064,5.588A36.578,36.578,0,0,0,603.24-10.12c-.132-2.6-.132-3.036-.22-5.236a94.581,94.581,0,0,0,9.416-1.1v-4.8c-4.048.748-5.676,1.012-9.5,1.5v-5.192c2.2-.044,6.292-.132,11.176-.132l.176-4.664c-4.136.308-5.632.4-11.264.66.044-2.288.088-3.124.088-3.168a1.43,1.43,0,0,1,.572-.792c.484-.4.572-.44.572-.616,0-.308-.264-.44-1.1-.528l-5.368-.528.132,5.852c-3.916.088-6.292.176-11.308.176l.088,4.752c3.784-.44,6.292-.616,11.352-.836l.088,5.5a30.2,30.2,0,0,1-3.036.088c-.748,0-1.672,0-1.672-.616,0-.572.66-1.056,1.452-1.628l-2.508-2.156c-1.716,1.232-4.708,3.3-4.708,5.456,0,1.716,2.024,3.168,6.072,3.168,1.276,0,3.7-.088,4.488-.132l.088,4.224-1.232-.044c-9.9-.352-10.34,4.752-10.34,6.028,0,3.564,3.784,5.72,9.856,5.72,5.632,0,6.688-1.76,6.864-6.248a33.168,33.168,0,0,1,8.052,4.356Zm-16.016-1.54c.044,2.464-.132,3.256-2.992,3.256-.528,0-3.344,0-3.344-1.5,0-1.144,1.408-1.892,4.268-1.892A11.39,11.39,0,0,1,598.356-6.688Zm62.656-18.788v-4.752c-4.488.352-5.852.484-11.968.836v-4.532c0-.176.044-.264.352-.528s.4-.4.4-.66c0-.44-.264-.572-1.276-.616l-4.884-.308c.264,3.212.264,5.544.308,6.908-9.24.44-13.024.44-16.016.44v5.1c5.588-.7,12.232-1.1,16.148-1.32l.088,3.3a5.8,5.8,0,0,0-2.068-.352c-4.488,0-6.908,3.344-6.908,8.184a7.874,7.874,0,0,0,2.288,6.116,5.54,5.54,0,0,0,3.608,1.364,8.848,8.848,0,0,0,2.376-.44c-.968,3.212-3.652,5.5-6.292,7.216l4.928,2.552a30.528,30.528,0,0,0,5.984-8.184,19.729,19.729,0,0,0,2.244-8.492,11.348,11.348,0,0,0-1.276-5.368v-6.16C654.764-25.388,657.668-25.476,661.012-25.476ZM645-14.344c0,3.124-2.112,4.092-3.036,4.092-1.012,0-2.42-1.012-2.42-3.652,0-2.332,1.232-3.872,2.992-3.872a2.29,2.29,0,0,1,1.628.616A4.1,4.1,0,0,1,645-14.344Zm30.14-8.844V-32.12H669.2v8.932l1.54,14.52h2.9Zm0,23.188V-5.94H669.2V0Z" transform="translate(-3.432 36.08)"/></svg>