<svg xmlns="http://www.w3.org/2000/svg" width="301.78" height="52.48" viewBox="0 0 301.78 52.48"><defs><style>.a{fill:#2f2f2f;}</style></defs><path class="a" d="M11.66,2.96V.9H4.58V19.8H6.62V2.96ZM32.1,15.68l-2.18-.92c0,1.14-.02,1.82-.76,1.82h-.84a.333.333,0,0,1-.38-.36V14.18H30.1V8.72H20.88v5.46h1.98A3.125,3.125,0,0,1,21.64,16a6.382,6.382,0,0,1-3.78.94l1.48,2.02c1.6-.3,4.18-.76,5.38-3.4.3-.02.56-.04.56-.26,0-.08,0-.3-.36-.44l-1.74-.68H25.8v3.46a1.14,1.14,0,0,0,1.28,1.12h2.76C30.94,18.76,31.86,18.58,32.1,15.68Zm-4.06-4.86H22.96v-.74h5.08Zm0,2H22.96v-.78h5.08ZM31.5,8.28V6.58H28.38a6.946,6.946,0,0,0,.74-1.6h1.8V3.32H26.74V2.5c0-.06,0-.08.1-.2.12-.1.16-.16.16-.24,0-.2-.22-.22-.3-.22l-2.64-.12v1.6H20.24V4.98h1.4a11.792,11.792,0,0,1,.8,1.6H20.2V5.6H18.1V3.4c0-.08.18-.26.34-.44a.271.271,0,0,0,.12-.22c0-.28-.44-.32-.54-.32l-2.2-.2V5.6H14.3V7.82h1.52v5.56c-.54.2-1.12.44-2.02.74l.46,2.46c.02.12.08.36.26.36.14,0,.2-.06.5-.46.18-.24.22-.26.68-.48,1.48-.72,2.5-1.22,4.36-2.22V11.62c-1.12.5-1.46.64-1.96.84V7.82h2.06v.46Zm-4.6-3.3a9.949,9.949,0,0,1-.78,1.6H24.8c-.12-.26-.62-1.38-.74-1.6Zm24.6,9.7V9.26H46.26V8.64h4.1V2.18H40.62V8.64h3.62v.62H39.86v6.76h2.12V10.9h2.26v1.76c-.82.08-1.6.14-1.96.18l.16,1.64c0,.08.02.38.26.38.1,0,.36-.3.44-.34a10.361,10.361,0,0,1,1.46-.36c.86-.16,1.66-.4,2.58-.66.02.12.16.68.16.8l1.76-.54a11.426,11.426,0,0,0-.88-2.72l-1.66.52c.2.5.22.56.26.68a5.689,5.689,0,0,1-.56.12V10.9h3.12v2.56c0,.88-.16,1.04-.86,1.04-.1,0-1.14-.08-1.32-.1l.82,2.04a5.882,5.882,0,0,0,2.82-.62A1.443,1.443,0,0,0,51.5,14.68ZM48.58,4.74H46.26V3.72h2.32Zm0,2.36H46.26V6.04h2.32ZM44.24,4.74H42.42V3.72h1.82Zm0,2.36H42.42V6.04h1.82ZM39.58,4.82a18.449,18.449,0,0,0-2.82-2.8l-1.7,1.56A27.27,27.27,0,0,1,37.8,6.34ZM52.5,16.22a62.657,62.657,0,0,1-8.86.62c-3.26,0-4.42-.32-4.42-2.44V8.66H34.74V10.8h2.3v4.42c-.72.44-1.8,1.02-2.82,1.5l1.04,2.04c.04.08.28.42.48.42.08,0,.1-.06.22-.36.04-.08.08-.14.44-.42.44-.34,1.12-.9,1.54-1.24a4.641,4.641,0,0,0,1.64,1.14,5.391,5.391,0,0,0,2.06.42h9.8Zm9.12,3.68V1H59.58V17.84H54.54V19.9Zm19.46-9.68L80.4,7.94c-.94.42-1.2.54-3.54,1.64a2.68,2.68,0,0,0-2.72-2.02,3.868,3.868,0,0,0-1.72.42c.34-.52.5-.8,1.14-1.98a42.1,42.1,0,0,0,4.78-.76L78.48,3a16.887,16.887,0,0,1-3.92,1.02c.1-.22.6-1.34.62-1.36.02,0,.42-.18.46-.2.12-.04.2-.1.2-.22,0-.14-.34-.18-.4-.2l-2.5-.44a15.509,15.509,0,0,1-1,2.66,28.13,28.13,0,0,1-3.82-.08l.24,2.08c.84,0,1.46-.02,2.6-.08a26.592,26.592,0,0,1-3.94,5.5l1.96,1.22c1.1-1.8,2.3-3.62,4.26-3.62a1.386,1.386,0,0,1,1.52,1.32c-3,1.54-4.84,2.48-4.84,4.96a2.734,2.734,0,0,0,.76,1.96c1.26,1.34,3.58,1.34,4.7,1.34a33.1,33.1,0,0,0,4.76-.3V16.3a23.124,23.124,0,0,1-5.1.64c-1.46,0-3-.26-3-1.56,0-1.4,2.08-2.44,2.84-2.82-.02.88-.04,1.86-.1,3H77.1c0-.68-.04-3.16-.04-3.94C78.54,11.06,79.5,10.72,81.08,10.22ZM103.1,18.4V16.54H98.92V14.62h3.54v-1.8H98.92V10.96h3.74V2.4H93.12v8.56h3.72v1.86H93.46v1.8h3.38v1.92H91.22V18.4ZM100.64,5.8H98.92V4.2h1.72Zm0,3.46H98.92V7.48h1.72ZM96.84,5.8h-1.7V4.2h1.7Zm0,3.46h-1.7V7.48h1.7Zm-4.62,4.9V12.42a21.532,21.532,0,0,1-2.14.64V9.76h1.7V7.8h-1.7V4.58H92.1V2.76H85.92V4.58h2V7.8h-1.7V9.76h1.7V13.7c-.68.22-1.5.46-2.42.66l.38,1.92c.06.28.12.38.2.38s.3-.32.34-.36c.16-.12,1.98-.7,2.36-.84C89.94,15.04,91.08,14.62,92.22,14.16Zm22.32,3.2V6.32H112.5l1.48-2.42-.5-.7h-3.2c.14-.34.16-.38.34-.42.12-.04.26-.08.26-.24s-.16-.22-.52-.28l-1.74-.3a18.893,18.893,0,0,1-2.9,4.9l1.74.76a27.879,27.879,0,0,1,.14,2.9c0,4.38-.86,6.04-1.64,7.6l1.84.68a14.768,14.768,0,0,0,1.34-4.46h3.76v2.18c0,.6-.56.72-1.04.72-.12,0-.34-.02-.6-.04l.56,1.7C112.7,18.88,114.54,18.84,114.54,17.36Zm-4.22-7.82h-1.06V8.06h1.06Zm2.58,0h-1.1V8.06h1.1Zm0,3.08h-1.1v-1.5h1.1Zm-2.58,0H109.3v-1.5h1.02Zm.76-7.78-.92,1.48h-1.62a12.79,12.79,0,0,0,.9-1.48ZM123.6,2.46h-8.22V4h1.72a4.507,4.507,0,0,1-2.52,3.48l1.56,1.24a7.977,7.977,0,0,1-1.56,3.18l1.52,1.08a12.421,12.421,0,0,0,.78-1.3h2v1.74h-3.4v1.74h3.4V18.8h1.98V15.16h2.54V13.42h-2.54V11.68h2.32V9.92h-2.32V9.56a.554.554,0,0,1,.2-.34.629.629,0,0,0,.16-.3c0-.14-.48-.22-.76-.28,1.84-.12,3.08-.6,3.12-4.16ZM121.46,4c-.02,1.32-.04,2.68-1.4,2.68a4.247,4.247,0,0,1-.6-.04l.82,1.98-1.4-.16V9.92h-1.24l.04-.18c.24-.12.3-.14.3-.28s-.48-.3-.72-.4l-.78-.3A7.861,7.861,0,0,0,119.32,4Zm21.04,9.12-1.96-1.62c-1.96,3.84-4.64,4.54-5.76,4.54a1.928,1.928,0,0,1-1.76-.84,10.531,10.531,0,0,1-.38-3.54,75.6,75.6,0,0,1,.56-8c.32-.26.56-.42.56-.58,0-.12-.18-.26-.66-.32l-2.66-.38c.06,1.34-.1,7.28-.1,8.5,0,4.8.32,5.82,1.26,6.64a4.449,4.449,0,0,0,2.92,1.02,7.229,7.229,0,0,0,3.98-1.28A14.922,14.922,0,0,0,142.5,13.12ZM162.84,4.9V2.5a60.55,60.55,0,0,1-14.58,1.86l.4,2.36a76.474,76.474,0,0,1,7.62-.86c-.94.88-3.88,3.64-3.88,7.06,0,4.46,5,5.5,6.62,5.84l.7-2.52a5.936,5.936,0,0,1-3.48-.96,3.427,3.427,0,0,1-1.48-2.8c0-2,1.66-4.22,3.42-5.64A7.741,7.741,0,0,1,162.84,4.9Zm17.6-1.48c0-.2-.38-.5-.42-.54l-1.84-1.42a55.231,55.231,0,0,1-6.4,6.52,3.431,3.431,0,0,0-1.38,2.24,2.341,2.341,0,0,0,1,1.76,33.3,33.3,0,0,1,6.9,7.5l2.06-1.92a40.978,40.978,0,0,0-6.76-6.68.853.853,0,0,1-.34-.7c0-.38.1-.48,1.42-1.72,2.06-1.92,4-3.78,4.42-4.22.52-.52.58-.58.82-.6C180.38,3.58,180.44,3.58,180.44,3.42Zm24.08,12.36-.62-2.24c-.82,1.16-1.58,1.52-2.14,1.52-.54,0-.74-.22-.74-1.32a27.767,27.767,0,0,1,.2-2.82c.26-2.68.28-2.9.28-3.26a2.279,2.279,0,0,0-2.2-2.4c-1.34,0-3.24,1.78-4.02,2.5l.44-.88-1.28-1.22a14.011,14.011,0,0,1,.2-2.64c.06-.06.36-.32.36-.38,0-.18-.18-.2-.5-.24l-1.98-.22-.08,4.3a16.314,16.314,0,0,1-3.6.96l.98,2.16c1-.32,1.54-.52,2.6-.9l-.04,1.76a22.885,22.885,0,0,1-3.8,4.6l2.08,1.4c.7-1.1,1.04-1.58,1.66-2.44l-.06,4.62,2.24-.12c-.12-2.34-.12-4.42-.14-7.2,1.4-1.72,2.94-3.64,4.08-3.64.68,0,.78.82.78,1.34,0,.84-.36,4.56-.36,5.32,0,.5,0,3.28,2.32,3.28A4.8,4.8,0,0,0,204.52,15.78Zm18.86-3.06a4.408,4.408,0,0,0-4.44-4.42,15.924,15.924,0,0,0-1.94.12,49.45,49.45,0,0,1,4.44-4.28L220.4,2.52a22.666,22.666,0,0,1-6.06,1c-.62,0-1.76-.08-2.24-.12l.46,2.24a18.671,18.671,0,0,0,4.68-.5,39.484,39.484,0,0,1-7.4,7.22l1.68,1.76a22.578,22.578,0,0,1,4.12-3.58,5.424,5.424,0,0,1,2.28-.5c1.3,0,3.24.64,3.24,2.62a3.523,3.523,0,0,1-1.32,2.66,5.227,5.227,0,0,0-3.94-2.34,2.8,2.8,0,0,0-2.94,2.66c0,1.48,1.28,2.74,3.78,2.74C220.26,18.38,223.38,16.04,223.38,12.72Zm-5.4,3.58a5.686,5.686,0,0,1-1.36.18c-.72,0-1.64-.2-1.64-.9a.881.881,0,0,1,1-.84C217.12,14.74,217.72,15.84,217.98,16.3Zm28,.48c-3.46-1.84-7.34-4.06-7.34-12.12,0-.26,0-1.6.04-1.68s.36-.34.4-.4a.478.478,0,0,0,.16-.32c0-.3-.68-.3-.9-.3l-2.24-.08c.02.84.08,3.42.08,3.96a11.151,11.151,0,0,1-3,8.22,12.957,12.957,0,0,1-4.28,2.88l1.94,1.94c3.9-2.54,5.18-3.92,6.64-7.36,1.64,3.56,2.98,4.98,6.72,7.26Zm18.7-6.56L264,7.94c-.94.42-1.2.54-3.54,1.64a2.68,2.68,0,0,0-2.72-2.02,3.868,3.868,0,0,0-1.72.42c.34-.52.5-.8,1.14-1.98a42.1,42.1,0,0,0,4.78-.76L262.08,3a16.887,16.887,0,0,1-3.92,1.02c.1-.22.6-1.34.62-1.36.02,0,.42-.18.46-.2.12-.04.2-.1.2-.22,0-.14-.34-.18-.4-.2l-2.5-.44a15.51,15.51,0,0,1-1,2.66,28.13,28.13,0,0,1-3.82-.08l.24,2.08c.84,0,1.46-.02,2.6-.08a26.592,26.592,0,0,1-3.94,5.5l1.96,1.22c1.1-1.8,2.3-3.62,4.26-3.62a1.386,1.386,0,0,1,1.52,1.32c-3,1.54-4.84,2.48-4.84,4.96a2.734,2.734,0,0,0,.76,1.96c1.26,1.34,3.58,1.34,4.7,1.34a33.1,33.1,0,0,0,4.76-.3V16.3a23.124,23.124,0,0,1-5.1.64c-1.46,0-3-.26-3-1.56,0-1.4,2.08-2.44,2.84-2.82-.02.88-.04,1.86-.1,3h2.32c0-.68-.04-3.16-.04-3.94C262.14,11.06,263.1,10.72,264.68,10.22Zm22.1,5.52-1.9-1.18c-.56,2.16-.8,2.16-1.3,2.16H281.6c-.32,0-.6-.14-.6-.52V12.46h3.32V2.1H272.16V12.46h3.2a6.957,6.957,0,0,1-1.96,3.16,7.24,7.24,0,0,1-3.56,1.82l1.6,1.74a9.951,9.951,0,0,0,5.8-5.28c.1-.2.12-.2.5-.4a.207.207,0,0,0,.12-.16.271.271,0,0,0-.14-.2l-1.32-.68h2.38V17c0,1.2.86,1.8,2.18,1.8h2.7C285.5,18.8,286.06,18.18,286.78,15.74Zm-4.84-7.96h-7.4V6.72h7.4Zm0-2.68h-7.4V4.04h7.4Zm0,5.42h-7.4V9.4h7.4Zm24.42-.54c0-4.3-3.46-5.66-6.14-5.66a20.667,20.667,0,0,0-5,.9,40.4,40.4,0,0,1-5.14.96l1.08,2.52c.68-.18,3.96-1.14,4.7-1.34a20.1,20.1,0,0,1,4.44-.9c1.52,0,3.68.76,3.68,3.28,0,3.18-3.7,4.58-7.12,4.58a15.881,15.881,0,0,1-1.96-.1l1.02,2.62a16.232,16.232,0,0,0,6.8-1.52C304.48,14.42,306.36,12.9,306.36,9.98ZM45.86,41.52l-.08-2.3a18.275,18.275,0,0,1-2.72.96c-.08-1-.18-2.18-.18-2.26-.02-.1-.06-.52-.06-.62s.04-.18.18-.36c.06-.08.18-.22.18-.3,0-.24-.34-.24-.52-.24l-2.34-.08a35.268,35.268,0,0,1,.58,4.32,25,25,0,0,1-3.22.22c-.36,0-.64,0-1.28-.04l.46,2.3a27.817,27.817,0,0,0,4.14-.3v1.06a9.968,9.968,0,0,1-.74,4.38A11.076,11.076,0,0,1,38.3,51.6l2.26,1.16a14.8,14.8,0,0,0,2.68-9.18c0-.34,0-.6-.02-1.2A22.871,22.871,0,0,0,45.86,41.52ZM35.74,46.76l-1.5-1.04c-.4.9-.52,1.18-.8,1.92a14.753,14.753,0,0,1-.4-3.78c0-2.74.54-6.1.96-6.44.26-.2.32-.24.32-.32,0-.2-.52-.34-.58-.36l-2.02-.58a36.261,36.261,0,0,0-.8,7.1,19.137,19.137,0,0,0,1.6,8.52l1.92-.3A18.453,18.453,0,0,1,35.74,46.76Zm14,1.96a16.443,16.443,0,0,1,3.86,4.44l2.08-1.66a11.764,11.764,0,0,0-4.44-4.34Zm28.62-5.9a8.554,8.554,0,0,1-3.74-2.22c.84-.66.96-.76,2.1-1.74.32-.28.34-.3.64-.3.12,0,.34,0,.34-.18,0-.16-.38-.36-.52-.42l-1.84-.88a13.185,13.185,0,0,1-2,2.14V36.88c0-.08.02-.1.34-.32.1-.06.16-.12.16-.22,0-.18-.18-.24-.54-.26l-2.08-.16v2.22l-.4-.36H67.7v1.88h1.42A6.788,6.788,0,0,1,67.4,42.4V36.2H60.78v6.56h2.4v7.2l-.58.14V44.3c0-.1.06-.12.26-.28a.225.225,0,0,0,.14-.2c0-.16-.18-.22-.54-.24l-1.72-.12V50.5c-.28.06-.36.06-.92.14l.62,1.9c.04.12.16.52.34.52.08,0,.08-.02.26-.3.12-.18.24-.2.66-.3.2-.06,1.12-.24,1.3-.3,1.42-.4,2.86-.8,4.26-1.3l.12-1.96c-.54.18-1.04.32-2.1.58v-2.7H67.4V44.84H65.28V42.76h1.68a2.794,2.794,0,0,1-.72.46l2.06,1.04a7.554,7.554,0,0,0,1.32-1.48l1.04,1.8h1.08a1.513,1.513,0,0,0,1.6-1.44v-1.4a8.387,8.387,0,0,0,3.5,2.88ZM71.22,41.8a.546.546,0,0,1-.6.62c-.08,0-.62-.04-.72-.06a13.271,13.271,0,0,0,1.32-2.96ZM65.38,41H62.86V38.12h2.52ZM76.6,52.78V44.76H67.86v8.02h2.26V52.3H74.3v.48ZM74.3,47.6H70.12v-.98H74.3Zm0,2.92H70.12V49.26H74.3Zm23.18-3.68c-.86-.56-1.48-.94-2.58-1.56a24.141,24.141,0,0,0,.68-2.98c.06-.28.06-.32.22-.42.28-.14.3-.16.3-.26,0-.18-.28-.28-.48-.34l-2.24-.62a17,17,0,0,1-.52,3.66A12.87,12.87,0,0,0,89,43.4c.28-.62,1.7-3.84,1.72-3.92a8.152,8.152,0,0,1,1.04-1.7l-1.32-1.32c-1.08.7-3.44,1.1-6.52,1.08l.9,2.02a13.959,13.959,0,0,0,3.64-.62,46.311,46.311,0,0,1-1.62,4.34,5.4,5.4,0,0,0-3.18.96A4.97,4.97,0,0,0,81.3,48.2a2.334,2.334,0,0,0,2.26,2.58c1.76,0,2.62-1.28,4.6-5.52a12.382,12.382,0,0,1,4,1.12,9.675,9.675,0,0,1-3.98,4.7l1.98,1.38a11.153,11.153,0,0,0,3.96-4.98c.46.3,1.02.68,2.08,1.5ZM85.94,45.32a22.711,22.711,0,0,1-1.32,2.48.912.912,0,0,1-.84.48c-.14,0-.4-.02-.4-.54C83.38,47,84.22,45.86,85.94,45.32Zm32.46,2.26c-3.68-2.5-4.36-5-4.4-11.48h-5.44v2.34h2.98c.02.36.04.68.1,1.24l-1.24-.34a12.1,12.1,0,0,1-4.28,8.24l1.98,1.4a13.011,13.011,0,0,0,2.5-3.08,13.842,13.842,0,0,0,1.5-3.48c1.2,4.32,2.42,5.6,4.38,6.98Zm-12.16-9.24a12.342,12.342,0,0,0-3.18-2.48l-1.62,1.72a14.468,14.468,0,0,1,3.08,2.38Zm13.04,11.34a32.909,32.909,0,0,1-4.34.56c-1.5.12-2.98.2-4.48.2-3.78,0-4.62-.68-4.62-2.38V42.98h-4.72v2.2h2.42V48.9a20.956,20.956,0,0,1-2.74,1.32l.86,2.3c.06.14.16.36.34.36.14,0,.16-.06.34-.46.06-.16.06-.16.24-.28,1.04-.72,2.04-1.5,2.24-1.66a3.462,3.462,0,0,0,.84,1.02,4.308,4.308,0,0,0,3.02.88h9.14Zm19.06-1.06-1.3-1.92c-.74,1.08-2.16,3.04-3.54,3.04-.5,0-.82-.24-.82-.94,0-.5.46-2.7.46-3.16a2.3,2.3,0,0,0-2.5-2.42,5.868,5.868,0,0,0-2,.42c1.24-2.86,2.64-5.26,2.94-5.36a3.6,3.6,0,0,1,.44-.12.213.213,0,0,0,.16-.18c0-.2-.36-.38-.48-.44l-2.26-1.2c-.26.64-.54,1.28-1.22,2.74-.9,1.92-1.4,2.9-6.22,12.22l2.46.7a16.5,16.5,0,0,1,2.52-5,3.928,3.928,0,0,1,2.66-1.5.962.962,0,0,1,1.04,1.06c0,.32-.4,2.64-.4,3.14a2.452,2.452,0,0,0,2.74,2.46C136.02,52.16,137.6,49.76,138.34,48.62Zm20.16-6.26a9.227,9.227,0,0,0-1.66-1.52l-.84.96a9.259,9.259,0,0,1,1.66,1.52Zm-1.62,1.82a8.72,8.72,0,0,0-1.66-1.54l-.82.96a8.879,8.879,0,0,1,1.64,1.54Zm.66-5.22V36.64c-3.78,1.16-9.98,1.64-14.3,1.6l.34,2.24c2-.28,4.94-.52,7.62-.74a14.912,14.912,0,0,0-2.64,3.04,7.275,7.275,0,0,0-1.36,3.98,5.017,5.017,0,0,0,1.48,3.6,8.975,8.975,0,0,0,4.92,2.22l.78-2.44a6.3,6.3,0,0,1-3.52-1.02,3.174,3.174,0,0,1-1.44-2.6,7.424,7.424,0,0,1,2.44-4.8A8.15,8.15,0,0,1,157.54,38.96ZM179.16,52.7V36.26h-8.54V52.84h2.2v-1.2h4.1V52.7Zm-2.24-7.8h-4.1V42.52h4.1Zm0-4.32h-4.1V38.2h4.1Zm0,9.02h-4.1V46.84h4.1Zm-6.72-4.62a13.83,13.83,0,0,1-2.72-4.12v-.22h2.62v-1.9h-2.62V36.58c0-.06.1-.14.2-.22s.12-.14.12-.18c0-.22-.42-.24-.54-.26l-1.82-.18v3H162.5v1.9h2.76a16.913,16.913,0,0,1-3.6,7.02l1.86,1.1a16.159,16.159,0,0,0,1.92-2.88v6.96h2.04V44.82a18.5,18.5,0,0,0,1.24,1.64Zm18.1-7.04V36.22h-4.7v1.72Zm.58,2.5V38.76h-6.06v1.68Zm11,10.72c-4-1.38-4.56-3.6-4.56-5.8a.458.458,0,0,1,.22-.48c.24-.22.34-.32.34-.48,0-.18-.16-.26-.78-.26l-2.14-.02c.02.32.06.8.06,1.3,0,4.8-3.06,5.54-4.3,5.8V46.6h-5.64v6.28h1.98v-.8h1.66v.62h2V51.44l1.62,1.74a6.923,6.923,0,0,0,4-3.54,8.9,8.9,0,0,0,3.84,3.38Zm-13.16-.78h-1.66V48.34h1.66ZM199.7,38.14c0-.14-.16-.26-.24-.3l-1.88-1.02a11.956,11.956,0,0,1-1.98,2.42l1.6,1.26a9.186,9.186,0,0,0,1.78-2c.1-.12.14-.12.44-.14C199.5,38.34,199.7,38.32,199.7,38.14Zm.42,5.04a10.383,10.383,0,0,1-3.82-2.04,3.23,3.23,0,0,1-1.08-2.68,8.453,8.453,0,0,1,.12-1.94,2.2,2.2,0,0,0,.22-.24.321.321,0,0,0,.1-.22c0-.18-.22-.22-.76-.24l-2-.04c.04.48.08,1.1.08,1.78,0,2.8-.52,4.5-4.24,5.62l1.54,1.78a8.222,8.222,0,0,0,3.94-3.24,9.17,9.17,0,0,0,4.18,3.32Zm-8.02-5.14c0-.12-.16-.16-.44-.22l-1.84-.34a13.121,13.121,0,0,1-.44,3.18l1.96.36a17.261,17.261,0,0,0,.36-2.6C191.86,38.34,192.1,38.2,192.1,38.04Zm7.42,8.22c0-.14-.22-.3-.32-.34l-1.86-.78a11.025,11.025,0,0,1-1.44,2.22l1.72,1.12a9.209,9.209,0,0,0,1.24-1.92c.1-.02.22-.08.36-.1C199.42,46.42,199.52,46.38,199.52,46.26Zm-11.2-3.3v-1.7h-4.8v1.7Zm4.12,3.3c0-.12-.14-.18-.44-.24l-2-.42a8.939,8.939,0,0,1-.82,3.02l2,.66a10.919,10.919,0,0,0,.84-2.66C192.18,46.54,192.44,46.42,192.44,46.26Zm-4.12-.62V43.96h-4.8v1.68Zm31.38-3.28a9.227,9.227,0,0,0-1.66-1.52l-.84.96a9.259,9.259,0,0,1,1.66,1.52Zm-1.62,1.82a8.72,8.72,0,0,0-1.66-1.54l-.82.96a8.879,8.879,0,0,1,1.64,1.54Zm.66-5.22V36.64c-3.78,1.16-9.98,1.64-14.3,1.6l.34,2.24c2-.28,4.94-.52,7.62-.74a14.912,14.912,0,0,0-2.64,3.04,7.275,7.275,0,0,0-1.36,3.98,5.017,5.017,0,0,0,1.48,3.6,8.975,8.975,0,0,0,4.92,2.22l.78-2.44a6.3,6.3,0,0,1-3.52-1.02,3.174,3.174,0,0,1-1.44-2.6,7.424,7.424,0,0,1,2.44-4.8A8.15,8.15,0,0,1,218.74,38.96Zm19.52,2.76-.36-2a22.8,22.8,0,0,1-3.64,1.8c-.32-.7-.4-.9-.66-1.52a13.174,13.174,0,0,0,3.16-1.36l-.44-1.94a19.3,19.3,0,0,1-3.42,1.54,17.431,17.431,0,0,1-.6-1.84c0-.06.02-.12.18-.28.1-.1.16-.16.16-.26,0-.24-.5-.18-.66-.16l-2.28.26c.32.94.54,1.58,1,2.82a24.664,24.664,0,0,1-4.66.4l.62,1.92a22.961,22.961,0,0,0,4.76-.54c.2.46.42.96.72,1.64a26.512,26.512,0,0,1-6.3.6l.7,2.02a25.794,25.794,0,0,0,6.42-.88c.38.74.56,1.1,1.04,1.96a15.277,15.277,0,0,0-2.86-.32c-2.26,0-4.42.74-4.42,3.48,0,2.64,2.48,3.78,6.08,3.78a20.133,20.133,0,0,0,3.16-.24l.2-2.36a14.59,14.59,0,0,1-4,.54c-.68,0-3.28,0-3.28-1.7,0-1.08,1.1-1.64,2.42-1.64a11.261,11.261,0,0,1,5.24,1.52l1.22-1.52a21.71,21.71,0,0,1-2.64-4.16A14.833,14.833,0,0,0,238.26,41.72Zm20.56,7.94a16.627,16.627,0,0,0-5.06-2.26c-.06-1.18-.06-1.38-.1-2.38a42.992,42.992,0,0,0,4.28-.5V42.34c-1.84.34-2.58.46-4.32.68V40.66c1-.02,2.86-.06,5.08-.06l.08-2.12c-1.88.14-2.56.18-5.12.3.02-1.04.04-1.42.04-1.44a.65.65,0,0,1,.26-.36c.22-.18.26-.2.26-.28,0-.14-.12-.2-.5-.24l-2.44-.24.06,2.66c-1.78.04-2.86.08-5.14.08l.04,2.16c1.72-.2,2.86-.28,5.16-.38l.04,2.5a13.725,13.725,0,0,1-1.38.04c-.34,0-.76,0-.76-.28,0-.26.3-.48.66-.74l-1.14-.98c-.78.56-2.14,1.5-2.14,2.48,0,.78.92,1.44,2.76,1.44.58,0,1.68-.04,2.04-.06l.04,1.92-.56-.02c-4.5-.16-4.7,2.16-4.7,2.74,0,1.62,1.72,2.6,4.48,2.6,2.56,0,3.04-.8,3.12-2.84a15.076,15.076,0,0,1,3.66,1.98Zm-7.28-.7c.02,1.12-.06,1.48-1.36,1.48-.24,0-1.52,0-1.52-.68,0-.52.64-.86,1.94-.86A5.177,5.177,0,0,1,251.54,48.96Zm28.88-8.54V38.26c-2.04.16-2.66.22-5.44.38V36.58c0-.08.02-.12.16-.24s.18-.18.18-.3c0-.2-.12-.26-.58-.28l-2.22-.14c.12,1.46.12,2.52.14,3.14-4.2.2-5.92.2-7.28.2v2.32c2.54-.32,5.56-.5,7.34-.6l.04,1.5a2.638,2.638,0,0,0-.94-.16c-2.04,0-3.14,1.52-3.14,3.72a3.579,3.579,0,0,0,1.04,2.78,2.518,2.518,0,0,0,1.64.62,4.022,4.022,0,0,0,1.08-.2,6.382,6.382,0,0,1-2.86,3.28l2.24,1.16a13.877,13.877,0,0,0,2.72-3.72,8.968,8.968,0,0,0,1.02-3.86,5.158,5.158,0,0,0-.58-2.44v-2.8C277.58,40.46,278.9,40.42,280.42,40.42Zm-7.28,5.06c0,1.42-.96,1.86-1.38,1.86-.46,0-1.1-.46-1.1-1.66,0-1.06.56-1.76,1.36-1.76a1.041,1.041,0,0,1,.74.28A1.865,1.865,0,0,1,273.14,45.48Z" transform="translate(-4.58 -0.9)"/></svg>