<svg xmlns="http://www.w3.org/2000/svg" width="864.576" height="80.736" viewBox="0 0 864.576 80.736"><defs><style>.a{fill:#2f2f2f;}</style></defs><path class="a" d="M97.472,28l-11.3-13.536L97.152,4.64H91.136L80.864,14.56V4.64h-4.32V28h4.32V19.168l2.368-2.112L92.064,28Zm7.776-19.2V4.64h-4.224V8.8Zm0,19.2V10.784h-4.224V28Zm8.928-19.2V4.64h-4.224V8.8Zm0,19.2V10.784h-4.224V28Zm24.1-19.712V4.64h-20.96V8.288h8.32V28h4.32V8.288ZM159.9,28V24.352H146.016V17.44h12.352V14.08H146.016V8.288h13.376V4.64H141.728V28Zm31.488-4.64a25.613,25.613,0,0,0-5.5-3.008,78.612,78.612,0,0,1-.448-8.576,29.9,29.9,0,0,0,4-.9V7.424a13.972,13.972,0,0,1-3.968,1.312,36.913,36.913,0,0,1,.448-3.968c.32-.192.608-.352.608-.512,0-.192-.1-.352-.768-.448l-3.584-.576c-.064,3.168-.064,3.52-.128,5.92a25.332,25.332,0,0,1-2.976.192,16.657,16.657,0,0,1-2.88-.192l.032,3.3a35.57,35.57,0,0,0,5.792-.256c.064,2.176.16,3.52.416,7.328-.64-.064-1.312-.128-1.952-.128-3.1,0-5.632,1.248-5.632,4.128,0,4.608,5.376,4.608,6.3,4.608,4.352,0,4.992-1.664,5.056-4.128a17.118,17.118,0,0,1,3.36,2.528ZM173.12,20.544,171.1,19.168l-1.312,1.92a31.528,31.528,0,0,1-.16-3.36,81.311,81.311,0,0,1,1.184-9.92,9.148,9.148,0,0,1,.7-2.176,4.922,4.922,0,0,0,.608-.256.277.277,0,0,0,.128-.224c0-.32-.672-.608-.768-.64l-3.1-1.216a60.663,60.663,0,0,0-1.952,14.976,34.424,34.424,0,0,0,1.216,9.92l2.944-.48A28.106,28.106,0,0,1,173.12,20.544Zm9.5,2.016c.064,1.664.128,2.4-1.984,2.4-1.888,0-2.816-.672-2.816-1.408s1.024-1.28,2.528-1.28A11.007,11.007,0,0,1,182.624,22.56Zm13.952.192a26.31,26.31,0,0,1,6.176,7.1L206.08,27.2a18.823,18.823,0,0,0-7.1-6.944Zm42.3-2.5c0-3.776-2.176-6.144-5.76-7.36l.512-1.472-3.68-.8c-.128.608-.224,1.024-.384,1.664a14.134,14.134,0,0,0-3.488.256c.16-1.28.192-1.44.384-2.624a44.393,44.393,0,0,0,8.448-1.7V4.8a31.237,31.237,0,0,1-7.84,2.144,23.194,23.194,0,0,1,.992-3.136c.352-.1.736-.192.736-.48,0-.1,0-.256-.8-.48l-3.328-.9a52.759,52.759,0,0,0-1.184,5.408,45.222,45.222,0,0,1-6.08-.224l1.056,3.168c1.728,0,2.56,0,4.576-.1-.16,1.5-.256,2.3-.32,3.552-5.792,3.2-6.976,7.68-6.976,9.856,0,2.592,1.5,4.16,3.52,4.16a8.992,8.992,0,0,0,4.576-1.6,7.086,7.086,0,0,0,.448,1.184L227.36,25.7c-.32-1.024-.384-1.152-.608-1.92a28.89,28.89,0,0,0,5.216-8.064,4.557,4.557,0,0,1,3.2,4.416,6.028,6.028,0,0,1-1.856,4.416,9.284,9.284,0,0,1-5.472,2.272l2.336,2.944C232.384,29.12,238.88,27.3,238.88,20.256ZM228.608,15.04A25.773,25.773,0,0,1,225.984,20a32.477,32.477,0,0,1-.16-4.608A7.414,7.414,0,0,1,228.608,15.04Zm-5.472,8.032a5.081,5.081,0,0,1-2.976,1.376c-.544,0-1.184-.192-1.184-1.5s.8-3.328,3.68-5.728A45.616,45.616,0,0,0,223.136,23.072Zm47.712,1.152a29.392,29.392,0,0,0-5.5-2.912,31.709,31.709,0,0,1-.416-4.448,2.931,2.931,0,0,1,1.216-2.56l-3.328-1.792a4.835,4.835,0,0,0-1.376,3.264c0,.672.384,3.936.448,4.672a16.149,16.149,0,0,0-2.5-.192c-4.416,0-5.664,2.816-5.664,4.544a3.623,3.623,0,0,0,1.184,2.72,7.6,7.6,0,0,0,5.216,1.5c4.192,0,5.152-1.344,5.44-3.9a17.615,17.615,0,0,1,3.168,2.112Zm-8.8-.576c0,1.152.032,2.5-2.56,2.5-1.76,0-2.656-.736-2.656-1.44,0-.64.768-1.536,2.432-1.536A10.746,10.746,0,0,1,262.048,23.648Zm9.7-12.8A15.815,15.815,0,0,0,264.608,7.9l-1.44,2.752a22.649,22.649,0,0,1,7.008,2.912Zm-9.536-1.664V5.6c-.832.288-1.792.608-3.68,1.088.128-.416.736-2.464.768-2.5.192-.192.736-.384.736-.7,0-.352-.608-.512-.768-.544l-3.488-.768a30.533,30.533,0,0,1-1.152,5.28,42.6,42.6,0,0,1-5.44.416l.48,3.328c1.5-.1,2.4-.192,3.872-.384a54.89,54.89,0,0,1-5.472,11.648l3.424,1.472a78.044,78.044,0,0,0,5.92-13.728C260.128,9.728,261.12,9.472,262.208,9.184Zm41.824,7.168V12.96a36.748,36.748,0,0,0-4.224-.192c-1.7,0-3.3.1-4.96.224v3.36a39.219,39.219,0,0,1,4.8-.352A34.777,34.777,0,0,1,304.032,16.352ZM296.8,9.92V6.368a25.028,25.028,0,0,1-5.088,1.888c.224-.9.48-2.048.768-3.488.064-.32.128-.352.544-.544.288-.128.384-.224.384-.448,0-.352-.736-.512-.8-.512l-3.936-.928a38.858,38.858,0,0,1-1.088,6.784,23.217,23.217,0,0,1-3.168.192,12.911,12.911,0,0,1-2.592-.192l.256,3.328a42.19,42.19,0,0,0,4.768-.384c-2.528,8.672-4.576,12.128-6.5,15.232l3.9,1.184a90.75,90.75,0,0,0,6.592-17.024A38.621,38.621,0,0,0,296.8,9.92Zm7.744,18.3-.32-3.712a21.067,21.067,0,0,1-5.632.7c-.736,0-3.168-.032-4.064-.864a1.1,1.1,0,0,1-.384-.96,6.05,6.05,0,0,1,.128-1.184l-3.168-.672a7.416,7.416,0,0,0-.384,2.3c0,3.264,2.464,4.864,8.224,4.864A30.952,30.952,0,0,0,304.544,28.224Zm33.632-12.448c0-7.136-5.248-11.648-11.9-11.648A13.8,13.8,0,0,0,312.16,17.7c0,5.728,5.248,8.608,6.4,8.608,1.664,0,3.136-2.688,4.1-4.672a45.434,45.434,0,0,0,3.968-14.24,8.186,8.186,0,0,1,5.44,2.144,7.544,7.544,0,0,1,2.3,5.6,10.011,10.011,0,0,1-2.3,6.368,10.778,10.778,0,0,1-5.76,3.424l2.368,3.3a15.448,15.448,0,0,0,7.456-5.632A11.957,11.957,0,0,0,338.176,15.776Zm-15.36-7.808c-.64,4.992-3.392,13.344-5.056,13.344-.576,0-2.048-1.344-2.048-3.936a10.48,10.48,0,0,1,3.2-7.1A9.447,9.447,0,0,1,322.816,7.968Zm49.7,16.32-3.488-1.472c0,1.824-.032,2.912-1.216,2.912h-1.344a.532.532,0,0,1-.608-.576V21.888h3.456V13.152H354.56v8.736h3.168a5,5,0,0,1-1.952,2.912c-1.824,1.376-4.256,1.472-6.048,1.5l2.368,3.232c2.56-.48,6.688-1.216,8.608-5.44.48-.032.9-.064.9-.416,0-.128,0-.48-.576-.7l-2.784-1.088h4.192v5.536a1.824,1.824,0,0,0,2.048,1.792H368.9C370.656,29.216,372.128,28.928,372.512,24.288Zm-6.5-7.776h-8.128V15.328h8.128Zm0,3.2h-8.128V18.464h8.128Zm5.536-7.264V9.728H366.56a11.114,11.114,0,0,0,1.184-2.56h2.88V4.512h-6.688V3.2c0-.1,0-.128.16-.32.192-.16.256-.256.256-.384,0-.32-.352-.352-.48-.352l-4.224-.192v2.56h-6.112V7.168h2.24a18.87,18.87,0,0,1,1.28,2.56h-3.584V8.16h-3.36V4.64c0-.128.288-.416.544-.7a.434.434,0,0,0,.192-.352c0-.448-.7-.512-.864-.512l-3.52-.32V8.16h-2.432v3.552h2.432v8.9c-.864.32-1.792.7-3.232,1.184l.736,3.936c.032.192.128.576.416.576.224,0,.32-.1.8-.736.288-.384.352-.416,1.088-.768,2.368-1.152,4-1.952,6.976-3.552V17.792c-1.792.8-2.336,1.024-3.136,1.344V11.712h3.3v.736Zm-7.36-5.28a15.919,15.919,0,0,1-1.248,2.56h-2.112c-.192-.416-.992-2.208-1.184-2.56Zm39.36,15.52V14.016h-8.384v-.992h6.56V2.688H386.144V13.024h5.792v.992h-7.008V24.832h3.392V16.64h3.616v2.816c-1.312.128-2.56.224-3.136.288l.256,2.624c0,.128.032.608.416.608.16,0,.576-.48.7-.544a16.58,16.58,0,0,1,2.336-.576c1.376-.256,2.656-.64,4.128-1.056.032.192.256,1.088.256,1.28l2.816-.864a18.282,18.282,0,0,0-1.408-4.352l-2.656.832c.32.8.352.9.416,1.088a9.1,9.1,0,0,1-.9.192V16.64h4.992v4.1c0,1.408-.256,1.664-1.376,1.664-.16,0-1.824-.128-2.112-.16l1.312,3.264a9.411,9.411,0,0,0,4.512-.992A2.309,2.309,0,0,0,403.552,22.688Zm-4.672-15.9h-3.712V5.152h3.712Zm0,3.776h-3.712v-1.7h3.712Zm-6.944-3.776h-2.912V5.152h2.912Zm0,3.776h-2.912v-1.7h2.912ZM384.48,6.912a29.519,29.519,0,0,0-4.512-4.48l-2.72,2.5a43.635,43.635,0,0,1,4.384,4.416Zm20.672,18.24a100.252,100.252,0,0,1-14.176.992c-5.216,0-7.072-.512-7.072-3.9V13.056h-7.168V16.48h3.68v7.072c-1.152.7-2.88,1.632-4.512,2.4l1.664,3.264c.064.128.448.672.768.672.128,0,.16-.1.352-.576.064-.128.128-.224.7-.672.7-.544,1.792-1.44,2.464-1.984a7.426,7.426,0,0,0,2.624,1.824,8.626,8.626,0,0,0,3.3.672h15.68Zm29.088-9.6L433.152,11.9c-1.5.672-1.92.864-5.664,2.624a4.289,4.289,0,0,0-4.352-3.232,6.188,6.188,0,0,0-2.752.672c.544-.832.8-1.28,1.824-3.168a67.358,67.358,0,0,0,7.648-1.216L430.08,4a27.02,27.02,0,0,1-6.272,1.632c.16-.352.96-2.144.992-2.176.032,0,.672-.288.736-.32.192-.064.32-.16.32-.352,0-.224-.544-.288-.64-.32l-4-.7a24.816,24.816,0,0,1-1.6,4.256,45.009,45.009,0,0,1-6.112-.128l.384,3.328c1.344,0,2.336-.032,4.16-.128a42.547,42.547,0,0,1-6.3,8.8l3.136,1.952c1.76-2.88,3.68-5.792,6.816-5.792a2.217,2.217,0,0,1,2.432,2.112c-4.8,2.464-7.744,3.968-7.744,7.936a4.375,4.375,0,0,0,1.216,3.136c2.016,2.144,5.728,2.144,7.52,2.144a52.96,52.96,0,0,0,7.616-.48V25.28a37,37,0,0,1-8.16,1.024c-2.336,0-4.8-.416-4.8-2.5,0-2.24,3.328-3.9,4.544-4.512-.032,1.408-.064,2.976-.16,4.8h3.712c0-1.088-.064-5.056-.064-6.3C430.176,16.9,431.712,16.352,434.24,15.552ZM469.472,28.64V25.664h-6.688V22.592h5.664v-2.88h-5.664V16.736h5.984V3.04H453.5v13.7h5.952v2.976h-5.408v2.88h5.408v3.072h-8.992V28.64ZM465.536,8.48h-2.752V5.92h2.752Zm0,5.536h-2.752V11.168h2.752Zm-6.08-5.536h-2.72V5.92h2.72Zm0,5.536h-2.72V11.168h2.72Zm-7.392,7.84V19.072A34.45,34.45,0,0,1,448.64,20.1v-5.28h2.72V11.68h-2.72V6.528h3.232V3.616h-9.888V6.528h3.2V11.68h-2.72v3.136h2.72v6.3c-1.088.352-2.4.736-3.872,1.056l.608,3.072c.1.448.192.608.32.608s.48-.512.544-.576c.256-.192,3.168-1.12,3.776-1.344C448.416,23.264,450.24,22.592,452.064,21.856Zm35.712,5.12V9.312h-3.264L486.88,5.44l-.8-1.12h-5.12c.224-.544.256-.608.544-.672.192-.064.416-.128.416-.384s-.256-.352-.832-.448l-2.784-.48a30.229,30.229,0,0,1-4.64,7.84l2.784,1.216a44.608,44.608,0,0,1,.224,4.64c0,7.008-1.376,9.664-2.624,12.16l2.944,1.088a23.629,23.629,0,0,0,2.144-7.136h6.016v3.488c0,.96-.9,1.152-1.664,1.152-.192,0-.544-.032-.96-.064l.9,2.72C484.832,29.408,487.776,29.344,487.776,26.976Zm-6.752-12.512h-1.7V12.1h1.7Zm4.128,0h-1.76V12.1h1.76Zm0,4.928h-1.76v-2.4h1.76Zm-4.128,0h-1.632v-2.4h1.632ZM482.24,6.944l-1.472,2.368h-2.592a20.467,20.467,0,0,0,1.44-2.368Zm20.032-3.808H489.12V5.6h2.752a7.211,7.211,0,0,1-4.032,5.568l2.5,1.984a12.764,12.764,0,0,1-2.5,5.088l2.432,1.728a19.876,19.876,0,0,0,1.248-2.08h3.2v2.784h-5.44v2.784h5.44V29.28h3.168V23.456h4.064V20.672h-4.064V17.888H501.6V15.072h-3.712V14.5a.887.887,0,0,1,.32-.544,1.007,1.007,0,0,0,.256-.48c0-.224-.768-.352-1.216-.448,2.944-.192,4.928-.96,4.992-6.656ZM498.848,5.6c-.032,2.112-.064,4.288-2.24,4.288a6.8,6.8,0,0,1-.96-.064l1.312,3.168-2.24-.256v2.336h-1.984l.064-.288c.384-.192.48-.224.48-.448s-.768-.48-1.152-.64l-1.248-.48A12.577,12.577,0,0,0,495.424,5.6Zm33.664,14.592L529.376,17.6c-3.136,6.144-7.424,7.264-9.216,7.264a3.086,3.086,0,0,1-2.816-1.344c-.608-1.088-.608-4.192-.608-5.664a120.937,120.937,0,0,1,.9-12.8c.512-.416.9-.672.9-.928,0-.192-.288-.416-1.056-.512l-4.256-.608c.1,2.144-.16,11.648-.16,13.6,0,7.68.512,9.312,2.016,10.624a7.118,7.118,0,0,0,4.672,1.632,11.567,11.567,0,0,0,6.368-2.048A23.876,23.876,0,0,0,532.512,20.192Zm32.64-3.84V12.96a36.749,36.749,0,0,0-4.224-.192c-1.7,0-3.3.1-4.96.224v3.36a39.219,39.219,0,0,1,4.8-.352A34.777,34.777,0,0,1,565.152,16.352ZM557.92,9.92V6.368a25.029,25.029,0,0,1-5.088,1.888c.224-.9.48-2.048.768-3.488.064-.32.128-.352.544-.544.288-.128.384-.224.384-.448,0-.352-.736-.512-.8-.512l-3.936-.928A38.858,38.858,0,0,1,548.7,9.12a23.218,23.218,0,0,1-3.168.192,12.911,12.911,0,0,1-2.592-.192l.256,3.328a42.19,42.19,0,0,0,4.768-.384c-2.528,8.672-4.576,12.128-6.5,15.232l3.9,1.184a90.752,90.752,0,0,0,6.592-17.024A38.622,38.622,0,0,0,557.92,9.92Zm7.744,18.3-.32-3.712a21.067,21.067,0,0,1-5.632.7c-.736,0-3.168-.032-4.064-.864a1.1,1.1,0,0,1-.384-.96,6.051,6.051,0,0,1,.128-1.184l-3.168-.672a7.417,7.417,0,0,0-.384,2.3c0,3.264,2.464,4.864,8.224,4.864A30.951,30.951,0,0,0,565.664,28.224Zm33.824.9V2.816H585.824V29.344h3.52v-1.92h6.56v1.7ZM595.9,16.64h-6.56V12.832h6.56Zm0-6.912h-6.56V5.92h6.56Zm0,14.432h-6.56V19.744h6.56Zm-10.752-7.392c-1.792-2.016-3.712-4.608-4.352-6.592V9.824h4.192V6.784H580.8V3.328c0-.1.16-.224.32-.352s.192-.224.192-.288c0-.352-.672-.384-.864-.416l-2.912-.288v4.8h-4.7v3.04h4.416a27.061,27.061,0,0,1-5.76,11.232l2.976,1.76a25.856,25.856,0,0,0,3.072-4.608V29.344H580.8V16.512a29.6,29.6,0,0,0,1.984,2.624ZM632.768,20V16.608H620.9V13.536h9.824v-3.36H620.9V6.56c3.3-.448,4.9-.832,5.568-.96.352-.064,1.056-.224,1.568-.32a2.885,2.885,0,0,0,1.28.448.426.426,0,0,0,.448-.384,1.349,1.349,0,0,0-.352-.672l-2.528-3.2C622.112,3.584,615.488,4.1,611.2,4.1c-2.048,0-3.36-.1-4.544-.16l1.664,3.488c3.3-.032,5.408-.16,8.512-.416v3.168H607.04v3.36h9.792v3.072H605.056V20h11.776v4.608a1.315,1.315,0,0,1-1.472,1.5,14.251,14.251,0,0,1-2.656-.384l1.568,3.968c5.184-.032,6.624-.608,6.624-4.352V20Zm29.28-11.136V5.152a22.353,22.353,0,0,1-7.584,1.312,28.188,28.188,0,0,1-4.1-.352v3.52c1.7.16,3.168.16,3.424.16A42.977,42.977,0,0,0,662.048,8.864Zm1.536,16.8V21.7a26.1,26.1,0,0,1-7.3.992c-3.232,0-3.552-.864-3.584-3.9l-3.488.48c.1,5.408,1.312,6.976,7.136,6.976A43.739,43.739,0,0,0,663.584,25.664Zm-16.736-5.7-1.888-1.024c-.7,1.248-.9,1.568-1.28,2.24a17.6,17.6,0,0,1-.448-4.384c0-4.832,1.376-10.624,1.856-10.912.064-.032.48-.192.544-.224a.379.379,0,0,0,.16-.288c0-.256-.608-.48-.832-.576L641.7,3.616a63.071,63.071,0,0,0-1.344,7.3,56.6,56.6,0,0,0-.48,6.3,27.879,27.879,0,0,0,1.312,8.416,9.8,9.8,0,0,0,1.184,2.528l2.528-.992A28.389,28.389,0,0,1,646.848,19.968Zm23.328,2.784a26.31,26.31,0,0,1,6.176,7.1L679.68,27.2a18.822,18.822,0,0,0-7.1-6.944Zm44.576-4.288a53.358,53.358,0,0,0-9.024-8.16l-2.24,2.56a49.669,49.669,0,0,1,8.448,8.32ZM714.464,6.3V2.912H687.3V6.3H700.48a23.78,23.78,0,0,1-4.32,5.632,29.957,29.957,0,0,1-9.568,6.176l2.464,3.2a38.987,38.987,0,0,0,9.856-6.752V29.6h3.84V11.52c0-.192.064-.256.544-.672a.506.506,0,0,0,.192-.352c0-.288-.288-.384-.448-.416a26.62,26.62,0,0,0,2.5-3.776Zm32.512,10.24V13.28H732.992c.288-.48,1.472-2.976,1.568-3.04.064-.032.512-.1.576-.128.16-.064.192-.16.192-.224,0-.256-.512-.48-.64-.576L732.128,8.1h10.848v3.232h3.552v-6.4H735.456V3.9c0-.224.1-.32.512-.608a.5.5,0,0,0,.224-.384c0-.192-.224-.352-.9-.384l-3.84-.192V4.928H720.64V11.2h3.488V8.1H731.3a32.13,32.13,0,0,1-2.4,5.184h-8.96v3.264h7.04a39.874,39.874,0,0,1-3.712,5.024l3.648,1.536c.32-.416.384-.48.928-1.28a21.363,21.363,0,0,1,4.224,1.44c-2.336,1.6-6.24,2.752-11.328,3.008L722.5,29.5c7.744-.8,10.816-3.072,12.9-4.608a33.626,33.626,0,0,1,7.2,4.9l2.816-2.976a41.654,41.654,0,0,0-7.392-4.48,30.364,30.364,0,0,0,3.648-5.792Zm-9.44,0a18.766,18.766,0,0,1-2.72,4.416,32.2,32.2,0,0,0-5.376-1.632c1.056-1.7,1.152-1.856,1.7-2.784Zm20.576-3.712a3.008,3.008,0,1,0,3.008,3.008A3.025,3.025,0,0,0,758.112,12.832ZM797.6,25.888a31.385,31.385,0,0,1-3.616.256,7.825,7.825,0,0,1-3.328-.48V21.472h5.7V18.24h-5.7V14.272h2.432a22.283,22.283,0,0,1-1.44,2.208l3.136.992c.48-.8,1.76-3.04,2.528-4.544l-1.76-1.824h-3.616l1.088-1.344a7.356,7.356,0,0,0-1.312-.928,56.532,56.532,0,0,0,4.544-4.448l-1.6-1.664H783.072V5.856h7.2a11.388,11.388,0,0,1-1.216,1.7,16.5,16.5,0,0,0-3.36-.96l-1.44,2.752a15.729,15.729,0,0,1,4.352,1.76h-6.592v3.168h5.216v9.344a5.556,5.556,0,0,1-1.632-2.208c.16-.768.384-1.76.608-3.392.032-.16.064-.192.416-.352.128-.064.256-.128.256-.288,0-.32-.544-.448-.8-.48l-2.848-.512c-.608,7.424-2.752,9.632-4.768,11.68l2.976,1.792a15.1,15.1,0,0,0,2.976-4.832,9.516,9.516,0,0,0,8.064,4.384h3.552ZM782.048,7.936l-2.624-1.7c-.064.48-.416,2.752-1.632,2.752h-2.944c-1.088,0-1.088-.32-1.088-.672V7.68c2.432-.736,4.448-1.5,4.992-1.728a16.637,16.637,0,0,1,1.6-.576c.1,0,.576.128.672.128.064,0,.352,0,.352-.256a1.218,1.218,0,0,0-.256-.544l-1.728-2.688A35.995,35.995,0,0,1,773.76,4.48V3.2c0-.16.128-.256.288-.352.416-.192.576-.288.576-.512,0-.384-.416-.448-.864-.448l-3.488-.064V9.44a2.488,2.488,0,0,0,1.184,2.336,15.391,15.391,0,0,1-3.2,5.5l2.528,1.7h-1.856v3.072h4.448a10.778,10.778,0,0,1-4.864,5.376l2.848,2.336a15.4,15.4,0,0,0,4.384-5.6,14.13,14.13,0,0,0,2.464,3.424l2.336-2.592a10.815,10.815,0,0,1-2.848-2.944h3.84V18.976h-3.9v-1.92h3.424v-3.04h-6.88a6.967,6.967,0,0,0,.448-.8,4.715,4.715,0,0,0,.416-.32c.032-.064.1-.128.1-.192,0-.16-.16-.32-.448-.416l-.416-.128h4.288C780.864,12.16,781.6,10.112,782.048,7.936Zm-7.968,9.12a15.193,15.193,0,0,1-.1,1.92h-2.528c.352-.512.544-.832,1.184-1.92Zm54.3,9.344V2.752H816.8v10.88h8.128V24.864c0,.928-.32,1.248-1.056,1.248a18.134,18.134,0,0,1-1.92-.128l1.664,3.712h1.6C827.776,29.7,828.384,28.7,828.384,26.4ZM824.928,6.944h-4.64v-1.7h4.64Zm0,4.192h-4.64V9.376h4.64Zm-10.752,2.5V2.752H802.432V29.6h3.552V13.632ZM810.72,6.944h-4.736v-1.7h4.736Zm0,4.192h-4.736V9.376h4.736Zm10.656,13.632V15.616h-12.1V26.272h3.552v-1.5Zm-3.552-2.848h-4.992V18.464h4.992Zm22.208-9.088a3.008,3.008,0,1,0,3.008,3.008A3.025,3.025,0,0,0,840.032,12.832Zm38.592,2.656c0-.288-.352-.352-.768-.384l-3.36-.16V25.12H863.712V23.328l2.624,1.76a23.429,23.429,0,0,0,3.1-3.264,33.3,33.3,0,0,1,1.952,2.944l3.04-2.208a27.453,27.453,0,0,0-2.656-3.84,19.655,19.655,0,0,0,2.112-3.872c.064-.128.448-.224.7-.32a.345.345,0,0,0,.256-.32c0-.32-.544-.544-.928-.64l-3.072-.832A13.064,13.064,0,0,1,869.44,16a20.489,20.489,0,0,0-2.592-2.3l-2.4,1.856a2.824,2.824,0,0,0-1.184-.32l-2.976-.16v14.24h3.424v-.96H874.5v.928h3.424v-12.7a1.007,1.007,0,0,1,.448-.672C878.464,15.808,878.624,15.648,878.624,15.488Zm-11.3,3.648a11.775,11.775,0,0,1-3.616,3.072V16.576c0-.32.288-.448.512-.576A23.511,23.511,0,0,1,867.328,19.136ZM879.1,4.192c0-.32-.416-.48-.8-.576l-3.616-.992a59.029,59.029,0,0,1-3.584,8.8l3.616,1.216a42.669,42.669,0,0,0,3.328-7.552,1,1,0,0,1,.672-.544C878.912,4.48,879.1,4.416,879.1,4.192Zm-7.744,5.44a34.507,34.507,0,0,0-2.176-7.3l-3.3,1.024a28.574,28.574,0,0,1,2.368,7.072ZM866.5,10.848a27.3,27.3,0,0,0-3.008-7.392L860.448,4.8a23.168,23.168,0,0,1,2.944,7.168Zm-4.288,1.76A16.674,16.674,0,0,0,860,7.328l-1.7.64V3.84c.352-.224.7-.48.7-.768,0-.32-.256-.48-1.088-.544l-3.136-.256V8.1a3.09,3.09,0,0,0-.576-.1l-2.688-.192a27.07,27.07,0,0,1-1.216,7.936l3.2.256a26.531,26.531,0,0,0,.96-7.072c.128-.064.16-.1.32-.192v20.64h3.52V10.432a10.145,10.145,0,0,1,1.184,3.648ZM910.4,19.744c-1.376-.9-2.368-1.5-4.128-2.5a38.624,38.624,0,0,0,1.088-4.768c.1-.448.1-.512.352-.672.448-.224.48-.256.48-.416,0-.288-.448-.448-.768-.544l-3.584-.992a27.206,27.206,0,0,1-.832,5.856,20.592,20.592,0,0,0-6.176-1.472c.448-.992,2.72-6.144,2.752-6.272a13.046,13.046,0,0,1,1.664-2.72l-2.112-2.112c-1.728,1.12-5.5,1.76-10.432,1.728l1.44,3.232a22.334,22.334,0,0,0,5.824-.992,74.1,74.1,0,0,1-2.592,6.944,8.634,8.634,0,0,0-5.088,1.536,7.953,7.953,0,0,0-3.776,6.336c0,2.368,1.44,4.128,3.616,4.128,2.816,0,4.192-2.048,7.36-8.832a19.812,19.812,0,0,1,6.4,1.792c-1.92,4.064-3.552,5.7-6.368,7.52l3.168,2.208a17.844,17.844,0,0,0,6.336-7.968c.736.48,1.632,1.088,3.328,2.4Zm-18.464-2.432a36.342,36.342,0,0,1-2.112,3.968,1.459,1.459,0,0,1-1.344.768c-.224,0-.64-.032-.64-.864C887.84,20,889.184,18.176,891.936,17.312Zm49.184-1.76L940.032,11.9c-1.5.672-1.92.864-5.664,2.624a4.289,4.289,0,0,0-4.352-3.232,6.188,6.188,0,0,0-2.752.672c.544-.832.8-1.28,1.824-3.168a67.357,67.357,0,0,0,7.648-1.216L936.96,4a27.02,27.02,0,0,1-6.272,1.632c.16-.352.96-2.144.992-2.176.032,0,.672-.288.736-.32.192-.064.32-.16.32-.352,0-.224-.544-.288-.64-.32l-4-.7a24.813,24.813,0,0,1-1.6,4.256,45.009,45.009,0,0,1-6.112-.128l.384,3.328c1.344,0,2.336-.032,4.16-.128a42.547,42.547,0,0,1-6.3,8.8l3.136,1.952c1.76-2.88,3.68-5.792,6.816-5.792a2.217,2.217,0,0,1,2.432,2.112c-4.8,2.464-7.744,3.968-7.744,7.936a4.375,4.375,0,0,0,1.216,3.136c2.016,2.144,5.728,2.144,7.52,2.144a52.959,52.959,0,0,0,7.616-.48V25.28a37,37,0,0,1-8.16,1.024c-2.336,0-4.8-.416-4.8-2.5,0-2.24,3.328-3.9,4.544-4.512-.032,1.408-.064,2.976-.16,4.8h3.712c0-1.088-.064-5.056-.064-6.3C937.056,16.9,938.592,16.352,941.12,15.552ZM235.76,72.192,232.624,69.6c-3.136,6.144-7.424,7.264-9.216,7.264a3.086,3.086,0,0,1-2.816-1.344c-.608-1.088-.608-4.192-.608-5.664a120.95,120.95,0,0,1,.9-12.8c.512-.416.9-.672.9-.928,0-.192-.288-.416-1.056-.512l-4.256-.608c.1,2.144-.16,11.648-.16,13.6,0,7.68.512,9.312,2.016,10.624a7.118,7.118,0,0,0,4.672,1.632,11.567,11.567,0,0,0,6.368-2.048A23.876,23.876,0,0,0,235.76,72.192ZM267.376,70.3c0-5.088-3.584-7.232-7.552-7.232a19.76,19.76,0,0,0-5.152.864,54.962,54.962,0,0,1-8.576,2.016l1.568,3.36c3.04-1.088,5.12-1.76,5.76-1.952a30.21,30.21,0,0,1,6.24-1.472c1.664,0,4.608.8,4.608,4.224,0,4.832-6.592,6.016-9.248,6.016-.512,0-1.152-.032-2.336-.128l1.664,3.36C259.792,78.752,267.376,77.5,267.376,70.3Zm35.168-2.144c0-1.152-.8-4.928-4.992-9.408l-2.656,1.92c1.76,2.016,3.552,5.216,3.552,6.208,0,.768-.736.832-2.112.96l2.176,3.3C300.56,70.752,302.544,69.984,302.544,68.16Zm-7.584-1.408c0-1.952-.352-5.5-4.7-5.5a15,15,0,0,0-2.528.256c.224-1.216.448-2.336.608-3.488.032-.32.1-.352.672-.7.352-.224.416-.32.416-.448,0-.288-.64-.48-.9-.512l-3.9-.544a33.124,33.124,0,0,1-.7,6.4c-1.408.224-4.352.768-6.688.96l1.28,3.872a40.284,40.284,0,0,1,4.544-1.376c-1.888,6.08-3.52,8.928-6.336,12.512l3.648,1.632A53.043,53.043,0,0,0,286.992,64.9a12.052,12.052,0,0,1,1.824-.16c2.3,0,2.656,1.024,2.656,2.72a18.918,18.918,0,0,1-1.952,7.968,1.968,1.968,0,0,1-1.92.8,8.947,8.947,0,0,1-2.88-.512l.448,3.872a20.241,20.241,0,0,0,2.752.192,4.972,4.972,0,0,0,4.8-2.464C294.416,74.368,294.96,69.408,294.96,66.752Zm36.16-1.664c0-2.112-.192-4.48-.384-6.72-.032-.32-.192-1.664-.192-1.952s.576-.48.576-.768c0-.416-.576-.416-.672-.416h-3.872a83.5,83.5,0,0,1,.8,9.952,19.45,19.45,0,0,1-1.952,8.576,14.123,14.123,0,0,1-4.544,5.408l3.808,2.016a21.426,21.426,0,0,0,4.48-6.56A23.6,23.6,0,0,0,331.12,65.088ZM320.848,64.1l-2.24-1.472c-.8,1.792-1.44,3.456-1.856,4.544a7.209,7.209,0,0,1-.224-1.984c0-1.92.512-8.032,1.184-8.576.128-.128.448-.256.448-.48,0-.32-.48-.384-.672-.384L314,55.552a60.569,60.569,0,0,0-.9,9.472,25.227,25.227,0,0,0,1.44,8.7h2.72A74.109,74.109,0,0,1,320.848,64.1Zm43.424,15.936v-4.1a41.47,41.47,0,0,1-9.888,1.44c-3.36,0-5.888-1.12-5.888-3.424,0-2.144,2.368-3.776,3.808-4.672a48.143,48.143,0,0,1,11.84-5.056l-1.184-3.9c-3.936,1.856-4.352,2.048-8.032,3.776a3.9,3.9,0,0,1-1.856-2.176,25.9,25.9,0,0,1-.928-7.584l-4.1.608c1.024,6.112,1.184,7.04,1.632,8.1a10.077,10.077,0,0,0,1.888,2.88c-3.52,2.08-6.624,4.128-6.624,8.128a6.1,6.1,0,0,0,3.264,5.472c1.6.832,3.264,1.28,7.04,1.28A57.4,57.4,0,0,0,364.272,80.032Zm36.384,1.088v-26.3H386.992V81.344h3.52v-1.92h6.56v1.7Zm-3.584-12.48h-6.56V64.832h6.56Zm0-6.912h-6.56V57.92h6.56Zm0,14.432h-6.56V71.744h6.56ZM386.32,68.768c-1.792-2.016-3.712-4.608-4.352-6.592v-.352h4.192v-3.04h-4.192V55.328c0-.1.16-.224.32-.352s.192-.224.192-.288c0-.352-.672-.384-.864-.416l-2.912-.288v4.8H374v3.04h4.416a27.061,27.061,0,0,1-5.76,11.232l2.976,1.76a25.855,25.855,0,0,0,3.072-4.608V81.344h3.264V68.512a29.6,29.6,0,0,0,1.984,2.624ZM415.28,57.5V54.752h-7.52V57.5Zm.928,4V58.816h-9.7V61.5Zm17.6,17.152c-6.4-2.208-7.3-5.76-7.3-9.28a.732.732,0,0,1,.352-.768c.384-.352.544-.512.544-.768,0-.288-.256-.416-1.248-.416l-3.424-.032c.032.512.1,1.28.1,2.08,0,7.68-4.9,8.864-6.88,9.28V71.36h-9.024V81.408H410.1v-1.28h2.656v.992h3.2V79.1l2.592,2.784a11.077,11.077,0,0,0,6.4-5.664,14.235,14.235,0,0,0,6.144,5.408Zm-21.056-1.248H410.1V74.144h2.656ZM433.52,57.824c0-.224-.256-.416-.384-.48l-3.008-1.632a19.13,19.13,0,0,1-3.168,3.872l2.56,2.016a14.7,14.7,0,0,0,2.848-3.2c.16-.192.224-.192.7-.224C433.2,58.144,433.52,58.112,433.52,57.824Zm.672,8.064a16.613,16.613,0,0,1-6.112-3.264,5.168,5.168,0,0,1-1.728-4.288,13.527,13.527,0,0,1,.192-3.1,3.513,3.513,0,0,0,.352-.384.514.514,0,0,0,.16-.352c0-.288-.352-.352-1.216-.384l-3.2-.064c.064.768.128,1.76.128,2.848,0,4.48-.832,7.2-6.784,8.992l2.464,2.848a13.155,13.155,0,0,0,6.3-5.184,14.672,14.672,0,0,0,6.688,5.312ZM421.36,57.664c0-.192-.256-.256-.7-.352l-2.944-.544a20.993,20.993,0,0,1-.7,5.088l3.136.576a27.62,27.62,0,0,0,.576-4.16C420.976,58.144,421.36,57.92,421.36,57.664Zm11.872,13.152c0-.224-.352-.48-.512-.544l-2.976-1.248a17.642,17.642,0,0,1-2.3,3.552l2.752,1.792a14.735,14.735,0,0,0,1.984-3.072c.16-.032.352-.128.576-.16C433.072,71.072,433.232,71.008,433.232,70.816Zm-17.92-5.28v-2.72h-7.68v2.72Zm6.592,5.28c0-.192-.224-.288-.7-.384L418,69.76a14.3,14.3,0,0,1-1.312,4.832l3.2,1.056a17.472,17.472,0,0,0,1.344-4.256C421.488,71.264,421.9,71.072,421.9,70.816Zm-6.592-.992V67.136h-7.68v2.688Zm50.208-5.248a14.763,14.763,0,0,0-2.656-2.432L461.52,63.68a14.815,14.815,0,0,1,2.656,2.432Zm-2.592,2.912a13.953,13.953,0,0,0-2.656-2.464L458.96,66.56a14.207,14.207,0,0,1,2.624,2.464Zm1.056-8.352V55.424c-6.048,1.856-15.968,2.624-22.88,2.56l.544,3.584c3.2-.448,7.9-.832,12.192-1.184a23.86,23.86,0,0,0-4.224,4.864,11.64,11.64,0,0,0-2.176,6.368,8.027,8.027,0,0,0,2.368,5.76c2.592,2.592,6.176,3.264,7.872,3.552l1.248-3.9a10.078,10.078,0,0,1-5.632-1.632,5.078,5.078,0,0,1-2.3-4.16c0-2.432,1.536-5.312,3.9-7.68C458.96,59.456,462.48,59.232,463.984,59.136Zm31.232,4.416-.576-3.2a36.483,36.483,0,0,1-5.824,2.88c-.512-1.12-.64-1.44-1.056-2.432a21.078,21.078,0,0,0,5.056-2.176l-.7-3.1a30.888,30.888,0,0,1-5.472,2.464,27.9,27.9,0,0,1-.96-2.944c0-.1.032-.192.288-.448.16-.16.256-.256.256-.416,0-.384-.8-.288-1.056-.256l-3.648.416c.512,1.5.864,2.528,1.6,4.512a39.463,39.463,0,0,1-7.456.64l.992,3.072a36.737,36.737,0,0,0,7.616-.864c.32.736.672,1.536,1.152,2.624a42.42,42.42,0,0,1-10.08.96l1.12,3.232A41.271,41.271,0,0,0,486.736,67.1c.608,1.184.9,1.76,1.664,3.136a24.444,24.444,0,0,0-4.576-.512c-3.616,0-7.072,1.184-7.072,5.568,0,4.224,3.968,6.048,9.728,6.048a32.213,32.213,0,0,0,5.056-.384l.32-3.776a23.345,23.345,0,0,1-6.4.864c-1.088,0-5.248,0-5.248-2.72,0-1.728,1.76-2.624,3.872-2.624a18.018,18.018,0,0,1,8.384,2.432l1.952-2.432a34.738,34.738,0,0,1-4.224-6.656A23.732,23.732,0,0,0,495.216,63.552Zm33.152,8a7.053,7.053,0,0,0-7.1-7.072,25.48,25.48,0,0,0-3.1.192,79.124,79.124,0,0,1,7.1-6.848L523.6,55.232a36.265,36.265,0,0,1-9.7,1.6c-.992,0-2.816-.128-3.584-.192l.736,3.584a29.873,29.873,0,0,0,7.488-.8A63.175,63.175,0,0,1,506.7,70.976l2.688,2.816c1.792-1.824,4.608-4.672,6.592-5.728a8.678,8.678,0,0,1,3.648-.8c2.08,0,5.184,1.024,5.184,4.192a5.637,5.637,0,0,1-2.112,4.256c-.9-1.12-2.976-3.744-6.3-3.744a4.482,4.482,0,0,0-4.7,4.256c0,2.368,2.048,4.384,6.048,4.384C523.376,80.608,528.368,76.864,528.368,71.552Zm-8.64,5.728a9.1,9.1,0,0,1-2.176.288c-1.152,0-2.624-.32-2.624-1.44a1.41,1.41,0,0,1,1.6-1.344C518.352,74.784,519.312,76.544,519.728,77.28ZM565.1,66.112a12.869,12.869,0,0,0-1.12-4.352l-2.144.48a5.173,5.173,0,0,1,.32.992c-.192.032-1.376.192-1.632.224.544-.576,2.912-3.264,3.392-3.808.128-.128.384-.1.64-.128.16-.032.256-.064.256-.192,0-.192-.256-.352-.384-.448l-2.176-1.536A22.337,22.337,0,0,1,560.72,60a4.593,4.593,0,0,0-.608-.7,37.559,37.559,0,0,0,2.368-3.04.906.906,0,0,1,.544-.352c.128-.064.192-.128.192-.224,0-.16-.16-.256-.352-.352l-2.3-1.28a19.459,19.459,0,0,1-2.016,3.52c-.224-.256-.352-.384-.8-.864l-1.5,1.664c0-.352.032-2.464.064-2.624,0-.1.224-.224.384-.352.16-.1.288-.192.288-.384,0-.288-.224-.384-.928-.448l-2.976-.256c0,6.432,0,8.48.16,10.848a15.319,15.319,0,0,0-.864-2.816l-2.08.64a5.64,5.64,0,0,1,.416,1.12c-.256.032-1.44.16-1.664.192,1.472-1.92,2.88-4.064,3.232-4.608a4.2,4.2,0,0,1,.48-.1c.16-.032.224-.1.224-.192,0-.16-.256-.352-.48-.48l-2.08-1.152c-.16.32-1.024,1.888-1.152,2.112a4.133,4.133,0,0,0-.672-.672c.384-.448,2.08-2.944,2.272-3.008.1-.032.32-.064.384-.1.128-.032.192-.1.192-.16,0-.256-.32-.416-.544-.512L548.72,54.4a24.149,24.149,0,0,1-1.792,3.2,5.774,5.774,0,0,0-.64-.576l-1.728,1.888a2.472,2.472,0,0,1,.448.32h-1.984v-3.68c0-.1.352-.352.448-.416a.4.4,0,0,0,.224-.32c0-.256-.32-.352-.992-.384l-2.688-.16v4.96h-3.04v2.912h2.816a21.776,21.776,0,0,1-4.448,10.176l2.752,1.76a17.724,17.724,0,0,0,1.92-3.04V81.5h3.008V69.312a7.021,7.021,0,0,0,1.344,1.792l1.664-2.08v2.112h.928a11.726,11.726,0,0,1-3.648,8.384l2.5,1.7a14.1,14.1,0,0,0,3.424-6.176,12.49,12.49,0,0,1,2.432,2.5l2.048-1.984a15.808,15.808,0,0,0-2.784-2.88l-1.5,1.536a14.313,14.313,0,0,0,.416-3.072h4.032a17.519,17.519,0,0,0,1.7,4.992,15.08,15.08,0,0,1-5.376,3.1L552.24,81.5a18.755,18.755,0,0,0,4.96-2.976c.768.928,2.368,2.848,4.32,2.848.544,0,1.408-.064,2.752-3.968l-2.24-1.824c-.128.448-.608,1.92-1.152,1.92-.448,0-1.12-.8-1.472-1.216a20.816,20.816,0,0,0,2.016-2.688c.16-.288.32-.288.64-.384a.282.282,0,0,0,.256-.288c0-.224-.32-.48-.576-.64l-1.664-1.152h4.16V68.352h-4.128l1.472-.576a10.213,10.213,0,0,0-1.12-2.016L558,66.816a10.069,10.069,0,0,1,.832,1.536H556.5a70.537,70.537,0,0,1-.256-9.312,13.009,13.009,0,0,1,2.752,3.008,13.188,13.188,0,0,1-1.312,1.408,4.758,4.758,0,0,1-.9.1l.576,2.24c.1.384.128.576.288.576.1,0,.256-.256.416-.384.128-.032,3.776-.64,4.48-.8.1.384.256,1.216.288,1.536Zm-5.664,5.024a11.123,11.123,0,0,1-1.664,2.72,11.16,11.16,0,0,1-.864-2.72Zm-5.984-2.784h-7.424v.192a11.42,11.42,0,0,1-3.008-4.192V62.144h2.56v-2.4a23.6,23.6,0,0,1,2.176,2.4l-1.568,2.272c-.416,0-.768,0-1.184-.032l.672,2.144c.128.384.224.672.416.672.128,0,.288-.416.448-.544.32-.064,3.9-.416,4.64-.576.128.736.16.832.192,1.12l1.92-.608C553.36,67.328,553.36,67.488,553.456,68.352Zm44-5.632a29.085,29.085,0,0,1-6.208-2.816,23.872,23.872,0,0,1-5.408-4.576.456.456,0,0,0,.288-.416c0-.224-.224-.384-.48-.416l-4.576-.8a22.5,22.5,0,0,1-11.68,9.76l2.432,2.816a28.48,28.48,0,0,0,4-2.08v2.624h15.424V64.1a19.262,19.262,0,0,0,3.68,1.7Zm-7.008.928h-13.76a31.165,31.165,0,0,0,6.624-6.272A29.045,29.045,0,0,0,590.448,63.648Zm5.28,15.744a47.346,47.346,0,0,0-7.456-7.552h6.752v-3.1H571.5v3.1h7.264c-1.44,2.752-2.112,3.872-2.912,5.152-1.6.064-2.5.1-4.512.1l1.024,4.192a.374.374,0,0,0,.288.288c.1,0,.192-.1.384-.48a.4.4,0,0,1,.32-.224c.768-.128,4.16-.416,4.832-.48.928-.1,8.128-.9,12.512-1.44a22.041,22.041,0,0,1,2.112,2.848Zm-7.616-3.232c-2.656.32-5.312.48-8,.608.576-.864,1.5-2.272,3.008-4.928h4.8l-2.3,2.336A19.358,19.358,0,0,1,588.112,76.16Zm38.976-8.608L626,63.9c-1.5.672-1.92.864-5.664,2.624a4.289,4.289,0,0,0-4.352-3.232,6.188,6.188,0,0,0-2.752.672c.544-.832.8-1.28,1.824-3.168a67.358,67.358,0,0,0,7.648-1.216L622.928,56a27.02,27.02,0,0,1-6.272,1.632c.16-.352.96-2.144.992-2.176.032,0,.672-.288.736-.32.192-.064.32-.16.32-.352,0-.224-.544-.288-.64-.32l-4-.7a24.813,24.813,0,0,1-1.6,4.256,45.008,45.008,0,0,1-6.112-.128l.384,3.328c1.344,0,2.336-.032,4.16-.128a42.548,42.548,0,0,1-6.3,8.8l3.136,1.952c1.76-2.88,3.68-5.792,6.816-5.792a2.217,2.217,0,0,1,2.432,2.112c-4.8,2.464-7.744,3.968-7.744,7.936a4.375,4.375,0,0,0,1.216,3.136c2.016,2.144,5.728,2.144,7.52,2.144a52.96,52.96,0,0,0,7.616-.48V77.28a37,37,0,0,1-8.16,1.024c-2.336,0-4.8-.416-4.8-2.5,0-2.24,3.328-3.9,4.544-4.512-.032,1.408-.064,2.976-.16,4.8h3.712c0-1.088-.064-5.056-.064-6.3C623.024,68.9,624.56,68.352,627.088,67.552Zm33.824-2.88V54.208h-14.56V64.672ZM657.52,58.3h-7.776V56.928h7.776Zm0,3.68h-7.776V60.576h7.776Zm5.28,15.808a51.135,51.135,0,0,1-8,.384v-3.84h5.952V71.1H654.8v-2.08h7.584V65.888H645.456v3.136h5.792v8.16a5.032,5.032,0,0,1-2.08-2.624c.064-.32.288-1.92.32-2.08.032-.128.1-.224.448-.512.256-.16.384-.288.384-.544,0-.192-.1-.416-.96-.48l-3.168-.288c-.064,4.8-1.5,6.976-4.128,9.216l2.976,2.144a13.859,13.859,0,0,0,3.2-4.608,7.372,7.372,0,0,0,1.888,2.3c1.344.992,2.944,1.952,6.624,1.952h4.736Zm-17.568-15.84v-3.36H642.1V55.3c0-.16.1-.256.32-.448.16-.16.288-.288.288-.48s0-.384-1.216-.416l-2.88-.1v4.736H634.8v3.36h3.808v4.9c-2.336.768-3.264.992-3.9,1.152l.16,3.68c.032.736.032.992.48.992.256,0,.288,0,.64-.544.16-.256.288-.288,1.248-.64.224-.064.768-.288,1.376-.544v6.3c0,.608-.128.768-.384.832-.224.064-2.368,0-2.816,0l1.28,3.712c1.152-.032,5.408-.064,5.408-2.368V69.44c1.76-.736,2.24-.928,2.912-1.216V64.48c-.7.256-2.08.8-2.912,1.152v-3.68Zm49.632,10.016v-3.3h-4.9v-5.5h4.192V59.84h-4.192V55.808c0-.16.288-.448.32-.48a1.017,1.017,0,0,0,.352-.576c0-.416-1.216-.48-1.632-.512l-2.848-.128V59.84h-2.944V55.776c.288-.352.7-.544.7-.96s-.928-.448-1.152-.448l-3.328-.192V59.84h-3.712v3.328h3.712v5.5h-4.352v3.3Zm-8.7-3.3h-2.944v-5.5h2.944Zm8.256,9.92a43.759,43.759,0,0,1-6.048-5.952l-2.592,2.016a49.425,49.425,0,0,0,5.888,6.528ZM676.688,55.776c0-.352-.64-.576-.672-.576l-3.328-.864a34.723,34.723,0,0,1-6.4,12.288L669.2,68.7a11.1,11.1,0,0,0,1.184-1.632V81.344h3.52V62.336c0-.128.16-.288.288-.384.032-.064.352-.288.352-.48s-.1-.224-.8-.64c.544-1.12.9-1.888,1.76-4.032.128-.224.16-.32.608-.48C676.5,56.16,676.688,56,676.688,55.776ZM683.664,75.2a.83.83,0,0,0-.352-.512l-3.1-1.632a23.45,23.45,0,0,1-5.344,6.3l2.752,2.3a33.662,33.662,0,0,0,4.928-5.728c.128-.224.192-.32.576-.32C683.248,75.584,683.664,75.584,683.664,75.2Zm41.7-3.008L722.224,69.6c-3.136,6.144-7.424,7.264-9.216,7.264a3.086,3.086,0,0,1-2.816-1.344c-.608-1.088-.608-4.192-.608-5.664a120.937,120.937,0,0,1,.9-12.8c.512-.416.9-.672.9-.928,0-.192-.288-.416-1.056-.512l-4.256-.608c.1,2.144-.16,11.648-.16,13.6,0,7.68.512,9.312,2.016,10.624a7.118,7.118,0,0,0,4.672,1.632,11.567,11.567,0,0,0,6.368-2.048A23.876,23.876,0,0,0,725.36,72.192Zm31.232,4.064a26.6,26.6,0,0,0-8.1-3.616c-.1-1.888-.1-2.208-.16-3.808a68.784,68.784,0,0,0,6.848-.8V64.544c-2.944.544-4.128.736-6.912,1.088V61.856c1.6-.032,4.576-.1,8.128-.1l.128-3.392c-3.008.224-4.1.288-8.192.48.032-1.664.064-2.272.064-2.3a1.04,1.04,0,0,1,.416-.576c.352-.288.416-.32.416-.448,0-.224-.192-.32-.8-.384l-3.9-.384.1,4.256c-2.848.064-4.576.128-8.224.128l.064,3.456c2.752-.32,4.576-.448,8.256-.608l.064,4a21.961,21.961,0,0,1-2.208.064c-.544,0-1.216,0-1.216-.448,0-.416.48-.768,1.056-1.184l-1.824-1.568c-1.248.9-3.424,2.4-3.424,3.968,0,1.248,1.472,2.3,4.416,2.3.928,0,2.688-.064,3.264-.1l.064,3.072-.9-.032c-7.2-.256-7.52,3.456-7.52,4.384,0,2.592,2.752,4.16,7.168,4.16,4.1,0,4.864-1.28,4.992-4.544a24.121,24.121,0,0,1,5.856,3.168Zm-11.648-1.12c.032,1.792-.1,2.368-2.176,2.368-.384,0-2.432,0-2.432-1.088,0-.832,1.024-1.376,3.1-1.376A8.283,8.283,0,0,1,744.944,75.136Zm46.208-13.664V58.016c-3.264.256-4.256.352-8.7.608v-3.3c0-.128.032-.192.256-.384s.288-.288.288-.48c0-.32-.192-.416-.928-.448l-3.552-.224c.192,2.336.192,4.032.224,5.024-6.72.32-9.472.32-11.648.32v3.712c4.064-.512,8.9-.8,11.744-.96l.064,2.4a4.221,4.221,0,0,0-1.5-.256c-3.264,0-5.024,2.432-5.024,5.952a5.726,5.726,0,0,0,1.664,4.448,4.029,4.029,0,0,0,2.624.992,6.435,6.435,0,0,0,1.728-.32c-.7,2.336-2.656,4-4.576,5.248l3.584,1.856a22.2,22.2,0,0,0,4.352-5.952,14.348,14.348,0,0,0,1.632-6.176,8.254,8.254,0,0,0-.928-3.9V61.7C786.608,61.536,788.72,61.472,791.152,61.472Zm-11.648,8.1c0,2.272-1.536,2.976-2.208,2.976-.736,0-1.76-.736-1.76-2.656,0-1.7.9-2.816,2.176-2.816a1.665,1.665,0,0,1,1.184.448A2.984,2.984,0,0,1,779.5,69.568Zm23.2,2.4a4.944,4.944,0,1,0,4.928,4.928A4.937,4.937,0,0,0,802.7,71.968Zm0,1.536A3.392,3.392,0,1,1,799.28,76.9,3.394,3.394,0,0,1,802.7,73.5Z" transform="translate(-76.544 -1.472)"/></svg>