<svg xmlns="http://www.w3.org/2000/svg" width="638.244" height="85.264" viewBox="0 0 638.244 85.264"><defs><style>.a{fill:#2f2f2f;}</style></defs><path class="a" d="M34.008,4.928V1.22H21.264V35.24h3.672V4.928ZM70.8,27.824l-3.924-1.656c0,2.052-.036,3.276-1.368,3.276H64a.6.6,0,0,1-.684-.648V25.124H67.2V15.3H50.6v9.828h3.564a5.625,5.625,0,0,1-2.2,3.276c-2.052,1.548-4.788,1.656-6.8,1.692l2.664,3.636c2.88-.54,7.524-1.368,9.684-6.12.54-.036,1.008-.072,1.008-.468,0-.144,0-.54-.648-.792l-3.132-1.224H59.46v6.228a2.052,2.052,0,0,0,2.3,2.016h4.968C68.712,33.368,70.368,33.044,70.8,27.824Zm-7.308-8.748H54.348V17.744h9.144Zm0,3.6H54.348v-1.4h9.144ZM69.72,14.5v-3.06H64.1a12.5,12.5,0,0,0,1.332-2.88h3.24V5.576H61.152V4.1c0-.108,0-.144.18-.36.216-.18.288-.288.288-.432,0-.36-.4-.4-.54-.4L56.328,2.7v2.88H49.452V8.564h2.52a21.226,21.226,0,0,1,1.44,2.88H49.38V9.68H45.6V5.72c0-.144.324-.468.612-.792a.488.488,0,0,0,.216-.4c0-.5-.792-.576-.972-.576L41.5,3.6V9.68H38.76v4H41.5V23.684c-.972.36-2.016.792-3.636,1.332l.828,4.428c.036.216.144.648.468.648.252,0,.36-.108.9-.828.324-.432.4-.468,1.224-.864,2.664-1.3,4.5-2.2,7.848-4V20.516c-2.016.9-2.628,1.152-3.528,1.512V13.676h3.708V14.5Zm-8.28-5.94a17.908,17.908,0,0,1-1.4,2.88H57.66c-.216-.468-1.116-2.484-1.332-2.88Zm44.28,17.46V16.268H96.288V15.152h7.38V3.524H86.136V15.152h6.516v1.116H84.768V28.436h3.816V19.22h4.068v3.168c-1.476.144-2.88.252-3.528.324l.288,2.952c0,.144.036.684.468.684.18,0,.648-.54.792-.612a18.65,18.65,0,0,1,2.628-.648c1.548-.288,2.988-.72,4.644-1.188.036.216.288,1.224.288,1.44l3.168-.972a20.567,20.567,0,0,0-1.584-4.9l-2.988.936c.36.9.4,1.008.468,1.224a10.241,10.241,0,0,1-1.008.216V19.22H101.9v4.608c0,1.584-.288,1.872-1.548,1.872-.18,0-2.052-.144-2.376-.18l1.476,3.672a10.588,10.588,0,0,0,5.076-1.116A2.6,2.6,0,0,0,105.72,26.024ZM100.464,8.132H96.288V6.3h4.176Zm0,4.248H96.288V10.472h4.176ZM92.652,8.132H89.376V6.3h3.276Zm0,4.248H89.376V10.472h3.276Zm-8.388-4.1a33.207,33.207,0,0,0-5.076-5.04l-3.06,2.808a49.087,49.087,0,0,1,4.932,4.968ZM107.52,28.8a112.783,112.783,0,0,1-15.948,1.116c-5.868,0-7.956-.576-7.956-4.392V15.188H75.552V19.04h4.14V27c-1.3.792-3.24,1.836-5.076,2.7l1.872,3.672c.072.144.5.756.864.756.144,0,.18-.108.4-.648.072-.144.144-.252.792-.756.792-.612,2.016-1.62,2.772-2.232a8.355,8.355,0,0,0,2.952,2.052,9.7,9.7,0,0,0,3.708.756h17.64Zm16.416,6.624V1.4h-3.672V31.712h-9.072V35.42ZM158.964,18l-1.224-4.1c-1.692.756-2.16.972-6.372,2.952a4.825,4.825,0,0,0-4.9-3.636,6.962,6.962,0,0,0-3.1.756c.612-.936.9-1.44,2.052-3.564a75.778,75.778,0,0,0,8.6-1.368L154.284,5a30.4,30.4,0,0,1-7.056,1.836c.18-.4,1.08-2.412,1.116-2.448.036,0,.756-.324.828-.36.216-.072.36-.18.36-.4,0-.252-.612-.324-.72-.36l-4.5-.792a27.918,27.918,0,0,1-1.8,4.788,50.635,50.635,0,0,1-6.876-.144l.432,3.744c1.512,0,2.628-.036,4.68-.144a47.865,47.865,0,0,1-7.092,9.9l3.528,2.2c1.98-3.24,4.14-6.516,7.668-6.516a2.494,2.494,0,0,1,2.736,2.376c-5.4,2.772-8.712,4.464-8.712,8.928a4.922,4.922,0,0,0,1.368,3.528c2.268,2.412,6.444,2.412,8.46,2.412a59.579,59.579,0,0,0,8.568-.54V28.94a41.623,41.623,0,0,1-9.18,1.152c-2.628,0-5.4-.468-5.4-2.808,0-2.52,3.744-4.392,5.112-5.076-.036,1.584-.072,3.348-.18,5.4H151.8c0-1.224-.072-5.688-.072-7.092C154.392,19.508,156.12,18.9,158.964,18ZM198.6,32.72V29.372h-7.524V25.916h6.372v-3.24h-6.372V19.328h6.732V3.92H180.636V19.328h6.7v3.348h-6.084v3.24h6.084v3.456H177.216V32.72Zm-4.428-22.68h-3.1V7.16h3.1Zm0,6.228h-3.1v-3.2h3.1Zm-6.84-6.228h-3.06V7.16h3.06Zm0,6.228h-3.06v-3.2h3.06Zm-8.316,8.82V21.956a38.756,38.756,0,0,1-3.852,1.152v-5.94h3.06V13.64h-3.06v-5.8H178.8V4.568H167.676V7.844h3.6v5.8h-3.06v3.528h3.06V24.26c-1.224.4-2.7.828-4.356,1.188L167.6,28.9c.108.5.216.684.36.684s.54-.576.612-.648c.288-.216,3.564-1.26,4.248-1.512C174.912,26.672,176.964,25.916,179.016,25.088Zm40.176,5.76V10.976H215.52l2.664-4.356-.9-1.26h-5.76c.252-.612.288-.684.612-.756.216-.072.468-.144.468-.432s-.288-.4-.936-.5l-3.132-.54a34.007,34.007,0,0,1-5.22,8.82l3.132,1.368a50.188,50.188,0,0,1,.252,5.22c0,7.884-1.548,10.872-2.952,13.68l3.312,1.224a26.582,26.582,0,0,0,2.412-8.028h6.768v3.924c0,1.08-1.008,1.3-1.872,1.3-.216,0-.612-.036-1.08-.072l1.008,3.06C215.88,33.584,219.192,33.512,219.192,30.848Zm-7.6-14.076h-1.908V14.108H211.6Zm4.644,0h-1.98V14.108h1.98Zm0,5.544h-1.98v-2.7h1.98Zm-4.644,0H209.76v-2.7H211.6Zm1.368-14-1.656,2.664h-2.916a23.022,23.022,0,0,0,1.62-2.664ZM235.5,4.028H220.7V6.8h3.1a8.112,8.112,0,0,1-4.536,6.264l2.808,2.232a14.359,14.359,0,0,1-2.808,5.724L222,22.964a22.356,22.356,0,0,0,1.4-2.34H227v3.132h-6.12v3.132H227V33.44h3.564V26.888h4.572V23.756h-4.572V20.624h4.176V17.456h-4.176v-.648a1,1,0,0,1,.36-.612,1.133,1.133,0,0,0,.288-.54c0-.252-.864-.4-1.368-.5,3.312-.216,5.544-1.08,5.616-7.488ZM231.648,6.8c-.036,2.376-.072,4.824-2.52,4.824a7.645,7.645,0,0,1-1.08-.072l1.476,3.564L227,14.828v2.628h-2.232l.072-.324c.432-.216.54-.252.54-.5s-.864-.54-1.3-.72l-1.4-.54A14.149,14.149,0,0,0,227.8,6.8ZM269.52,23.216,265.992,20.3c-3.528,6.912-8.352,8.172-10.368,8.172a3.471,3.471,0,0,1-3.168-1.512c-.684-1.224-.684-4.716-.684-6.372a136.069,136.069,0,0,1,1.008-14.4c.576-.468,1.008-.756,1.008-1.044,0-.216-.324-.468-1.188-.576l-4.788-.684c.108,2.412-.18,13.1-.18,15.3,0,8.64.576,10.476,2.268,11.952a8.008,8.008,0,0,0,5.256,1.836,13.013,13.013,0,0,0,7.164-2.3A26.861,26.861,0,0,0,269.52,23.216Zm36.612-14.8V4.1c-7.02,2.052-17.784,3.276-26.244,3.348l.72,4.248a137.654,137.654,0,0,1,13.716-1.548c-1.692,1.584-6.984,6.552-6.984,12.708,0,8.028,9,9.9,11.916,10.512l1.26-4.536a10.685,10.685,0,0,1-6.264-1.728,6.168,6.168,0,0,1-2.664-5.04c0-3.6,2.988-7.6,6.156-10.152A13.933,13.933,0,0,1,306.132,8.42Zm31.68-2.664c0-.36-.684-.9-.756-.972l-3.312-2.556a99.417,99.417,0,0,1-11.52,11.736c-1.188,1.116-2.484,2.448-2.484,4.032a4.214,4.214,0,0,0,1.8,3.168c4.644,4,8.172,7.164,12.42,13.5l3.708-3.456A73.761,73.761,0,0,0,325.5,19.184a1.536,1.536,0,0,1-.612-1.26c0-.684.18-.864,2.556-3.1,3.708-3.456,7.2-6.8,7.956-7.6.936-.936,1.044-1.044,1.476-1.08C337.7,6.044,337.812,6.044,337.812,5.756ZM381.156,28l-1.116-4.032c-1.476,2.088-2.844,2.736-3.852,2.736-.972,0-1.332-.4-1.332-2.376a49.987,49.987,0,0,1,.36-5.076c.468-4.824.5-5.22.5-5.868a4.1,4.1,0,0,0-3.96-4.32c-2.412,0-5.832,3.2-7.236,4.5l.792-1.584-2.3-2.2a25.221,25.221,0,0,1,.36-4.752c.108-.108.648-.576.648-.684,0-.324-.324-.36-.9-.432l-3.564-.4-.144,7.74a29.364,29.364,0,0,1-6.48,1.728L354.7,16.88c1.8-.576,2.772-.936,4.68-1.62l-.072,3.168a41.193,41.193,0,0,1-6.84,8.28l3.744,2.52c1.26-1.98,1.872-2.844,2.988-4.392l-.108,8.316,4.032-.216c-.216-4.212-.216-7.956-.252-12.96,2.52-3.1,5.292-6.552,7.344-6.552,1.224,0,1.4,1.476,1.4,2.412,0,1.512-.648,8.208-.648,9.576,0,.9,0,5.9,4.176,5.9C377.52,31.316,379.5,29.768,381.156,28ZM415.1,22.5a7.935,7.935,0,0,0-7.992-7.956,28.664,28.664,0,0,0-3.492.216c5.22-5.328,5.832-5.9,7.992-7.7L409.74,4.136c-3.42,1.332-9.54,1.8-10.908,1.8-1.116,0-3.168-.144-4.032-.216l.828,4.032a33.608,33.608,0,0,0,8.424-.9,71.072,71.072,0,0,1-13.32,13l3.024,3.168c2.016-2.052,5.184-5.256,7.416-6.444a9.763,9.763,0,0,1,4.1-.9c2.34,0,5.832,1.152,5.832,4.716a6.342,6.342,0,0,1-2.376,4.788c-1.008-1.26-3.348-4.212-7.092-4.212a5.042,5.042,0,0,0-5.292,4.788c0,2.664,2.3,4.932,6.8,4.932C409.488,32.684,415.1,28.472,415.1,22.5Zm-9.72,6.444a10.235,10.235,0,0,1-2.448.324c-1.3,0-2.952-.36-2.952-1.62a1.586,1.586,0,0,1,1.8-1.512C403.836,26.132,404.916,28.112,405.384,28.94Zm50.4.864c-6.228-3.312-13.212-7.308-13.212-21.816,0-.468,0-2.88.072-3.024s.648-.612.72-.72a.861.861,0,0,0,.288-.576c0-.54-1.224-.54-1.62-.54L438,2.984c.036,1.512.144,6.156.144,7.128,0,3.852-.432,9.612-5.4,14.8-2.268,2.34-4.176,3.492-7.7,5.184l3.492,3.492c7.02-4.572,9.324-7.056,11.952-13.248,2.952,6.408,5.364,8.964,12.1,13.068ZM489.444,18l-1.224-4.1c-1.692.756-2.16.972-6.372,2.952a4.825,4.825,0,0,0-4.9-3.636,6.961,6.961,0,0,0-3.1.756c.612-.936.9-1.44,2.052-3.564a75.777,75.777,0,0,0,8.6-1.368L484.764,5a30.4,30.4,0,0,1-7.056,1.836c.18-.4,1.08-2.412,1.116-2.448.036,0,.756-.324.828-.36.216-.072.36-.18.36-.4,0-.252-.612-.324-.72-.36l-4.5-.792a27.915,27.915,0,0,1-1.8,4.788,50.635,50.635,0,0,1-6.876-.144l.432,3.744c1.512,0,2.628-.036,4.68-.144a47.866,47.866,0,0,1-7.092,9.9l3.528,2.2c1.98-3.24,4.14-6.516,7.668-6.516a2.494,2.494,0,0,1,2.736,2.376c-5.4,2.772-8.712,4.464-8.712,8.928a4.922,4.922,0,0,0,1.368,3.528c2.268,2.412,6.444,2.412,8.46,2.412a59.579,59.579,0,0,0,8.568-.54V28.94a41.623,41.623,0,0,1-9.18,1.152c-2.628,0-5.4-.468-5.4-2.808,0-2.52,3.744-4.392,5.112-5.076-.036,1.584-.072,3.348-.18,5.4h4.176c0-1.224-.072-5.688-.072-7.092C484.872,19.508,486.6,18.9,489.444,18Zm39.78,9.936-3.42-2.124c-1.008,3.888-1.44,3.888-2.34,3.888H519.9c-.576,0-1.08-.252-1.08-.936V22.028H524.8V3.38H502.908V22.028h5.76a12.522,12.522,0,0,1-3.528,5.688,13.032,13.032,0,0,1-6.408,3.276l2.88,3.132a17.912,17.912,0,0,0,10.44-9.5c.18-.36.216-.36.9-.72a.373.373,0,0,0,.216-.288.487.487,0,0,0-.252-.36l-2.376-1.224h4.284V30.2c0,2.16,1.548,3.24,3.924,3.24h4.86C526.92,33.44,527.928,32.324,529.224,27.932ZM520.512,13.6h-13.32V11.7h13.32Zm0-4.824h-13.32V6.872h13.32Zm0,9.756h-13.32V16.52h13.32Zm43.956-.972c0-7.74-6.228-10.188-11.052-10.188-2.448,0-4.68.54-9,1.62a72.717,72.717,0,0,1-9.252,1.728l1.944,4.536c1.224-.324,7.128-2.052,8.46-2.412a36.183,36.183,0,0,1,7.992-1.62c2.736,0,6.624,1.368,6.624,5.9,0,5.724-6.66,8.244-12.816,8.244a28.585,28.585,0,0,1-3.528-.18l1.836,4.716a29.218,29.218,0,0,0,12.24-2.736C561.084,25.556,564.468,22.82,564.468,17.564Zm36.54-4.428L600.864,9a32.894,32.894,0,0,1-4.9,1.728c-.144-1.8-.324-3.924-.324-4.068-.036-.18-.108-.936-.108-1.116s.072-.324.324-.648c.108-.144.324-.4.324-.54,0-.432-.612-.432-.936-.432l-4.212-.144a63.473,63.473,0,0,1,1.044,7.776,44.992,44.992,0,0,1-5.8.4c-.648,0-1.152,0-2.3-.072l.828,4.14a50.069,50.069,0,0,0,7.452-.54v1.908a17.942,17.942,0,0,1-1.332,7.884A19.937,19.937,0,0,1,587.4,31.28l4.068,2.088c2.016-3.1,4.824-7.416,4.824-16.524,0-.612,0-1.08-.036-2.16A41.166,41.166,0,0,0,601.008,13.136Zm-18.216,9.432-2.7-1.872c-.72,1.62-.936,2.124-1.44,3.456a26.555,26.555,0,0,1-.72-6.8c0-4.932.972-10.98,1.728-11.592.468-.36.576-.432.576-.576,0-.36-.936-.612-1.044-.648l-3.636-1.044a65.272,65.272,0,0,0-1.44,12.78c0,8.82,1.908,13.1,2.88,15.336l3.456-.54A33.216,33.216,0,0,1,582.792,22.568Zm25.2,3.528a29.6,29.6,0,0,1,6.948,7.992l3.744-2.988a21.176,21.176,0,0,0-7.992-7.812Zm51.516-10.62a15.4,15.4,0,0,1-6.732-4c1.512-1.188,1.728-1.368,3.78-3.132.576-.5.612-.54,1.152-.54.216,0,.612,0,.612-.324,0-.288-.684-.648-.936-.756l-3.312-1.584A23.732,23.732,0,0,1,650.472,9V4.784c0-.144.036-.18.612-.576.18-.108.288-.216.288-.4,0-.324-.324-.432-.972-.468l-3.744-.288v4l-.72-.648H640.32V9.788h2.556a12.219,12.219,0,0,1-3.1,4.932V3.56H627.864V15.368h4.32v12.96l-1.044.252V18.14c0-.18.108-.216.468-.5a.405.405,0,0,0,.252-.36c0-.288-.324-.4-.972-.432l-3.1-.216V29.3c-.5.108-.648.108-1.656.252l1.116,3.42c.072.216.288.936.612.936.144,0,.144-.036.468-.54.216-.324.432-.36,1.188-.54.36-.108,2.016-.432,2.34-.54,2.556-.72,5.148-1.44,7.668-2.34l.216-3.528c-.972.324-1.872.576-3.78,1.044V22.6h3.816V19.112h-3.816V15.368h3.024a5.029,5.029,0,0,1-1.3.828l3.708,1.872a13.6,13.6,0,0,0,2.376-2.664l1.872,3.24h1.944a2.724,2.724,0,0,0,2.88-2.592v-2.52a15.1,15.1,0,0,0,6.3,5.184ZM646.656,13.64a.983.983,0,0,1-1.08,1.116c-.144,0-1.116-.072-1.3-.108a23.89,23.89,0,0,0,2.376-5.328ZM636.144,12.2h-4.536V7.016h4.536Zm20.2,21.2V18.968H640.608V33.4h4.068V32.54H652.2V33.4ZM652.2,24.08h-7.524V22.316H652.2Zm0,5.256h-7.524V27.068H652.2ZM188.484,74.712c-1.548-1.008-2.664-1.692-4.644-2.808a43.457,43.457,0,0,0,1.224-5.364c.108-.5.108-.576.4-.756.5-.252.54-.288.54-.468,0-.324-.5-.5-.864-.612L181.1,63.588a30.608,30.608,0,0,1-.936,6.588,23.166,23.166,0,0,0-6.948-1.656c.5-1.116,3.06-6.912,3.1-7.056a14.675,14.675,0,0,1,1.872-3.06l-2.376-2.376c-1.944,1.26-6.192,1.98-11.736,1.944l1.62,3.636a25.126,25.126,0,0,0,6.552-1.116,83.365,83.365,0,0,1-2.916,7.812,9.713,9.713,0,0,0-5.724,1.728,8.947,8.947,0,0,0-4.248,7.128c0,2.664,1.62,4.644,4.068,4.644,3.168,0,4.716-2.3,8.28-9.936a22.288,22.288,0,0,1,7.2,2.016c-2.16,4.572-4,6.408-7.164,8.46l3.564,2.484c3.348-2.484,5.04-4.5,7.128-8.964.828.54,1.836,1.224,3.744,2.7Zm-20.772-2.736a40.882,40.882,0,0,1-2.376,4.464,1.642,1.642,0,0,1-1.512.864c-.252,0-.72-.036-.72-.972C163.1,75,164.616,72.948,167.712,71.976Zm58.428,4.068c-6.624-4.5-7.848-9-7.92-20.664h-9.792v4.212h5.364c.036.648.072,1.224.18,2.232l-2.232-.612c-1.152,7.74-3.708,11.16-7.7,14.832l3.564,2.52a23.419,23.419,0,0,0,4.5-5.544,24.915,24.915,0,0,0,2.7-6.264c2.16,7.776,4.356,10.08,7.884,12.564ZM204.252,59.412c-3.24-3.168-4.716-3.924-5.724-4.464l-2.916,3.1a26.043,26.043,0,0,1,5.544,4.284Zm23.472,20.412a59.236,59.236,0,0,1-7.812,1.008c-2.7.216-5.364.36-8.064.36-6.8,0-8.316-1.224-8.316-4.284V67.764h-8.5v3.96h4.356v6.7A37.721,37.721,0,0,1,194.46,80.8l1.548,4.14c.108.252.288.648.612.648.252,0,.288-.108.612-.828.108-.288.108-.288.432-.5,1.872-1.3,3.672-2.7,4.032-2.988a6.231,6.231,0,0,0,1.512,1.836c1.008.756,2.232,1.584,5.436,1.584H225.1Zm34.308-1.908-2.34-3.456c-1.332,1.944-3.888,5.472-6.372,5.472-.9,0-1.476-.432-1.476-1.692,0-.9.828-4.86.828-5.688a4.131,4.131,0,0,0-4.5-4.356,10.562,10.562,0,0,0-3.6.756c2.232-5.148,4.752-9.468,5.292-9.648a6.473,6.473,0,0,1,.792-.216.383.383,0,0,0,.288-.324c0-.36-.648-.684-.864-.792l-4.068-2.16c-.468,1.152-.972,2.3-2.2,4.932-1.62,3.456-2.52,5.22-11.2,22L237.048,84c2.088-5.8,4-8.424,4.536-9,1.008-1.152,2.808-2.7,4.788-2.7a1.732,1.732,0,0,1,1.872,1.908c0,.576-.72,4.752-.72,5.652,0,.216,0,4.428,4.932,4.428C257.856,84.288,260.7,79.968,262.032,77.916ZM298.32,66.648a16.607,16.607,0,0,0-2.988-2.736L293.82,65.64a16.666,16.666,0,0,1,2.988,2.736ZM295.4,69.924a15.7,15.7,0,0,0-2.988-2.772L290.94,68.88a15.982,15.982,0,0,1,2.952,2.772Zm1.188-9.4V56.352c-6.8,2.088-17.964,2.952-25.74,2.88l.612,4.032c3.6-.5,8.892-.936,13.716-1.332a26.842,26.842,0,0,0-4.752,5.472,13.1,13.1,0,0,0-2.448,7.164,9.031,9.031,0,0,0,2.664,6.48c2.916,2.916,6.948,3.672,8.856,4l1.4-4.392a11.338,11.338,0,0,1-6.336-1.836,5.713,5.713,0,0,1-2.592-4.68c0-2.736,1.728-5.976,4.392-8.64C290.94,60.888,294.9,60.636,296.592,60.528ZM335.508,85.26V55.668H320.136V85.512h3.96v-2.16h7.38V85.26Zm-4.032-14.04H324.1V66.936h7.38Zm0-7.776H324.1V59.16h7.38Zm0,16.236H324.1V74.712h7.38Zm-12.1-8.316c-2.016-2.268-4.176-5.184-4.9-7.416v-.4H319.2v-3.42h-4.716V56.244c0-.108.18-.252.36-.4s.216-.252.216-.324c0-.4-.756-.432-.972-.468l-3.276-.324v5.4H305.52v3.42h4.968a30.443,30.443,0,0,1-6.48,12.636l3.348,1.98a29.086,29.086,0,0,0,3.456-5.184V85.512h3.672V71.076a33.308,33.308,0,0,0,2.232,2.952Zm32.58-12.672V55.6H343.5v3.1Zm1.044,4.5V60.168H342.1v3.024Zm19.8,19.3c-7.2-2.484-8.208-6.48-8.208-10.44a.824.824,0,0,1,.4-.864c.432-.4.612-.576.612-.864,0-.324-.288-.468-1.4-.468l-3.852-.036c.036.576.108,1.44.108,2.34,0,8.64-5.508,9.972-7.74,10.44V74.28H342.564v11.3h3.564v-1.44h2.988V85.26h3.6V82.992l2.916,3.132a12.461,12.461,0,0,0,7.2-6.372,16.015,16.015,0,0,0,6.912,6.084Zm-23.688-1.4h-2.988V77.412h2.988ZM372.48,59.052c0-.252-.288-.468-.432-.54l-3.384-1.836a21.521,21.521,0,0,1-3.564,4.356l2.88,2.268a16.535,16.535,0,0,0,3.2-3.6c.18-.216.252-.216.792-.252C372.12,59.412,372.48,59.376,372.48,59.052Zm.756,9.072a18.69,18.69,0,0,1-6.876-3.672,5.814,5.814,0,0,1-1.944-4.824,15.217,15.217,0,0,1,.216-3.492,3.951,3.951,0,0,0,.4-.432.578.578,0,0,0,.18-.4c0-.324-.4-.4-1.368-.432l-3.6-.072c.072.864.144,1.98.144,3.2,0,5.04-.936,8.1-7.632,10.116l2.772,3.2a14.8,14.8,0,0,0,7.092-5.832,16.506,16.506,0,0,0,7.524,5.976ZM358.8,58.872c0-.216-.288-.288-.792-.4l-3.312-.612a23.619,23.619,0,0,1-.792,5.724l3.528.648a31.075,31.075,0,0,0,.648-4.68C358.368,59.412,358.8,59.16,358.8,58.872Zm13.356,14.8c0-.252-.4-.54-.576-.612l-3.348-1.4a19.846,19.846,0,0,1-2.592,4l3.1,2.016a16.577,16.577,0,0,0,2.232-3.456c.18-.036.4-.144.648-.18C371.976,73.956,372.156,73.884,372.156,73.668ZM352,67.728v-3.06h-8.64v3.06Zm7.416,5.94c0-.216-.252-.324-.792-.432l-3.6-.756a16.089,16.089,0,0,1-1.476,5.436l3.6,1.188a19.653,19.653,0,0,0,1.512-4.788C358.944,74.172,359.412,73.956,359.412,73.668ZM352,72.552V69.528h-8.64v3.024Zm56.484-5.9a16.607,16.607,0,0,0-2.988-2.736L403.98,65.64a16.666,16.666,0,0,1,2.988,2.736Zm-2.916,3.276a15.7,15.7,0,0,0-2.988-2.772L401.1,68.88a15.982,15.982,0,0,1,2.952,2.772Zm1.188-9.4V56.352c-6.8,2.088-17.964,2.952-25.74,2.88l.612,4.032c3.6-.5,8.892-.936,13.716-1.332a26.842,26.842,0,0,0-4.752,5.472,13.1,13.1,0,0,0-2.448,7.164,9.031,9.031,0,0,0,2.664,6.48c2.916,2.916,6.948,3.672,8.856,4l1.4-4.392a11.338,11.338,0,0,1-6.336-1.836,5.713,5.713,0,0,1-2.592-4.68c0-2.736,1.728-5.976,4.392-8.64C401.1,60.888,405.06,60.636,406.752,60.528ZM441.888,65.5l-.648-3.6a41.044,41.044,0,0,1-6.552,3.24c-.576-1.26-.72-1.62-1.188-2.736a23.714,23.714,0,0,0,5.688-2.448L438.4,56.46a34.748,34.748,0,0,1-6.156,2.772,31.376,31.376,0,0,1-1.08-3.312c0-.108.036-.216.324-.5.18-.18.288-.288.288-.468,0-.432-.9-.324-1.188-.288l-4.1.468c.576,1.692.972,2.844,1.8,5.076a44.4,44.4,0,0,1-8.388.72l1.116,3.456a41.33,41.33,0,0,0,8.568-.972c.36.828.756,1.728,1.3,2.952a47.722,47.722,0,0,1-11.34,1.08l1.26,3.636a46.43,46.43,0,0,0,11.556-1.584c.684,1.332,1.008,1.98,1.872,3.528a27.5,27.5,0,0,0-5.148-.576c-4.068,0-7.956,1.332-7.956,6.264,0,4.752,4.464,6.8,10.944,6.8a36.24,36.24,0,0,0,5.688-.432l.36-4.248a26.263,26.263,0,0,1-7.2.972c-1.224,0-5.9,0-5.9-3.06,0-1.944,1.98-2.952,4.356-2.952a20.27,20.27,0,0,1,9.432,2.736l2.2-2.736a39.081,39.081,0,0,1-4.752-7.488A26.7,26.7,0,0,0,441.888,65.5ZM478.9,79.788a29.928,29.928,0,0,0-9.108-4.068c-.108-2.124-.108-2.484-.18-4.284a77.381,77.381,0,0,0,7.7-.9V66.612c-3.312.612-4.644.828-7.776,1.224V63.588c1.8-.036,5.148-.108,9.144-.108l.144-3.816c-3.384.252-4.608.324-9.216.54.036-1.872.072-2.556.072-2.592a1.17,1.17,0,0,1,.468-.648c.4-.324.468-.36.468-.5,0-.252-.216-.36-.9-.432l-4.392-.432.108,4.788c-3.2.072-5.148.144-9.252.144l.072,3.888c3.1-.36,5.148-.5,9.288-.684l.072,4.5a24.707,24.707,0,0,1-2.484.072c-.612,0-1.368,0-1.368-.5,0-.468.54-.864,1.188-1.332L460.9,64.7c-1.4,1.008-3.852,2.7-3.852,4.464,0,1.4,1.656,2.592,4.968,2.592,1.044,0,3.024-.072,3.672-.108l.072,3.456-1.008-.036c-8.1-.288-8.46,3.888-8.46,4.932,0,2.916,3.1,4.68,8.064,4.68,4.608,0,5.472-1.44,5.616-5.112a27.138,27.138,0,0,1,6.588,3.564Zm-13.1-1.26c.036,2.016-.108,2.664-2.448,2.664-.432,0-2.736,0-2.736-1.224,0-.936,1.152-1.548,3.492-1.548A9.319,9.319,0,0,1,465.792,78.528Zm51.984-15.372V59.268c-3.672.288-4.788.4-9.792.684V56.244c0-.144.036-.216.288-.432s.324-.324.324-.54c0-.36-.216-.468-1.044-.5l-4-.252c.216,2.628.216,4.536.252,5.652-7.56.36-10.656.36-13.1.36V64.7c4.572-.576,10.008-.9,13.212-1.08l.072,2.7a4.748,4.748,0,0,0-1.692-.288c-3.672,0-5.652,2.736-5.652,6.7a6.442,6.442,0,0,0,1.872,5,4.533,4.533,0,0,0,2.952,1.116,7.239,7.239,0,0,0,1.944-.36c-.792,2.628-2.988,4.5-5.148,5.9l4.032,2.088a24.976,24.976,0,0,0,4.9-6.7,16.142,16.142,0,0,0,1.836-6.948,9.285,9.285,0,0,0-1.044-4.392v-5.04C512.664,63.228,515.04,63.156,517.776,63.156Zm-13.1,9.108c0,2.556-1.728,3.348-2.484,3.348-.828,0-1.98-.828-1.98-2.988,0-1.908,1.008-3.168,2.448-3.168a1.873,1.873,0,0,1,1.332.5A3.357,3.357,0,0,1,504.672,72.264Z" transform="translate(-21.264 -1.22)"/></svg>