<svg xmlns="http://www.w3.org/2000/svg" width="177.26" height="52.82" viewBox="0 0 177.26 52.82"><defs><style>.a{fill:#2f2f2f;}</style></defs><path class="a" d="M82.4,8.34c0-.1-.12-.22-.46-.42L80.1,6.86a14.513,14.513,0,0,1-1.12,1.9V3.42H73.8a5.294,5.294,0,0,0,.54-1.24c.04-.06.06-.06.24-.16.16-.08.22-.12.22-.22,0-.18-.14-.2-.5-.22L71.98,1.5a9.616,9.616,0,0,1-.72,1.92H68.54v8.56c-1.12.08-2.06.12-2.5.12l.34,2.06c.04.28.12.38.24.38.1,0,.1-.02.24-.22a.69.69,0,0,1,.24-.18c.06-.02,6.68-.98,7.9-1.3a17.807,17.807,0,0,1-8.92,3.64l1.6,2.18a19.517,19.517,0,0,0,5.52-2.12,23.316,23.316,0,0,0,3.56-2.4V16.1a.638.638,0,0,1-.52.72s-1.54-.02-1.72-.02l.76,2.32h1.6c1.42,0,2.1-.62,2.1-2.06V12.12a19.567,19.567,0,0,0,2.76-3.46c.08-.14.12-.14.48-.16C82.26,8.5,82.4,8.48,82.4,8.34Zm-5.64.56H70.82V7.7h5.94Zm0-2.6H70.82V5.12h5.94Zm0,4.92c-3.04.4-4.84.52-5.94.58V10.34h5.94Zm27.06-8.4A12.214,12.214,0,0,0,102.06.94L101,1.82a10.068,10.068,0,0,1,1.8,1.86ZM101.86,4.3a8.489,8.489,0,0,0-1.66-1.82l-1.06.88a8.736,8.736,0,0,1,1.64,1.8Zm1.24,10.36A34.9,34.9,0,0,0,98,4.5L95.9,5.68a26.92,26.92,0,0,1,4.72,10.12ZM93.16,5.48c0-.18-.28-.28-.48-.32l-2.42-.54c-.58,3.38-2.24,7.9-5.06,10.8l2.58,1.08a27.806,27.806,0,0,0,4.36-8.92c.08-.26.36-1.5.44-1.6a3.289,3.289,0,0,1,.38-.26C93.06,5.64,93.16,5.58,93.16,5.48Zm29.54,4.68-1.22-2.2a27.678,27.678,0,0,1-4.78,4.12,14.562,14.562,0,0,1-4.92,2.26V4.3c0-.08.02-.1.32-.34.18-.16.2-.2.2-.28,0-.2-.4-.26-.54-.28l-2.38-.3V16.32l1.36,1.38A29.012,29.012,0,0,0,122.7,10.16Zm19.38.06-.68-2.28c-.94.42-1.2.54-3.54,1.64a2.68,2.68,0,0,0-2.72-2.02,3.867,3.867,0,0,0-1.72.42c.34-.52.5-.8,1.14-1.98a42.1,42.1,0,0,0,4.78-.76L139.48,3a16.887,16.887,0,0,1-3.92,1.02c.1-.22.6-1.34.62-1.36.02,0,.42-.18.46-.2.12-.04.2-.1.2-.22,0-.14-.34-.18-.4-.2l-2.5-.44a15.509,15.509,0,0,1-1,2.66,28.13,28.13,0,0,1-3.82-.08l.24,2.08c.84,0,1.46-.02,2.6-.08a26.592,26.592,0,0,1-3.94,5.5l1.96,1.22c1.1-1.8,2.3-3.62,4.26-3.62a1.386,1.386,0,0,1,1.52,1.32c-3,1.54-4.84,2.48-4.84,4.96a2.734,2.734,0,0,0,.76,1.96c1.26,1.34,3.58,1.34,4.7,1.34a33.1,33.1,0,0,0,4.76-.3V16.3a23.124,23.124,0,0,1-5.1.64c-1.46,0-3-.26-3-1.56,0-1.4,2.08-2.44,2.84-2.82-.02.88-.04,1.86-.1,3h2.32c0-.68-.04-3.16-.04-3.94C139.54,11.06,140.5,10.72,142.08,10.22ZM164.16,6.7V4.54h-4.8V2.64c0-.08,0-.16.2-.28.2-.14.22-.22.22-.32,0-.28-.94-.28-1.28-.28l-1.66-.02v2.8h-3.48c.28-.68.32-.78.6-1.4L152.7,2.1h-5.74V18.98h2.16V13.82l.8,2c1.64-.22,3.8-.64,3.8-3.48a6.7,6.7,0,0,0-1.74-4.28c.6-1.52.66-1.68,1.08-2.8V6.7h2.86c-.08,6.56-1.32,8.86-4.64,11l2.14,1.42c3-2.72,3.94-4.52,4.48-8.48h2.9a30.369,30.369,0,0,1-.42,4.96,1.406,1.406,0,0,1-1.54,1.14,11.719,11.719,0,0,1-1.7-.14l.82,2.4c2.52-.04,4.04-.32,4.52-2.66a42.9,42.9,0,0,0,.6-7.88h-5.02c.02-.36.04-.8.04-1.76Zm-12.8,5.4c0,1.26-1.04,1.36-2.28,1.38V4.16h1.96l-1.58,4.18C150.56,9.72,151.36,10.74,151.36,12.1Zm33-9.86a16.868,16.868,0,0,0-1.7-1.68l-.8.9a16.131,16.131,0,0,1,1.66,1.64ZM182.8,3.96a8.475,8.475,0,0,0-1.6-1.72l-.84.86a8.337,8.337,0,0,1,1.54,1.66Zm-1.18,3.58-.56-1.86a17.512,17.512,0,0,1-3.38,1.94,13.721,13.721,0,0,1-.74-1.52,17.438,17.438,0,0,0,3.04-1.4l-.64-1.96a12.809,12.809,0,0,1-3.16,1.64,12.377,12.377,0,0,1-.68-1.84c0-.1.26-.42.26-.48,0-.26-.32-.14-.48-.12l-2.24.4c.38,1,.62,1.58,1.08,2.66a19.165,19.165,0,0,1-4.58.62l.68,1.84a25.393,25.393,0,0,0,4.68-.74c.32.68.52,1.1.78,1.62a21.292,21.292,0,0,1-6.18.86l.86,1.9a24.27,24.27,0,0,0,6.22-1.1c.5.88.76,1.3,1.28,2.12a9.212,9.212,0,0,0-2.66-.42c-1.22,0-4.52.26-4.52,3.3a3.33,3.33,0,0,0,1.26,2.7,6.588,6.588,0,0,0,3.92,1.06,20.192,20.192,0,0,0,4.04-.4V16.1a12.953,12.953,0,0,1-4.36.72c-1.14,0-2.78-.16-2.78-1.58,0-.9.74-1.76,2.58-1.76a10.233,10.233,0,0,1,4.88,1.3l1.14-1.5a23.821,23.821,0,0,1-2.78-4A12.716,12.716,0,0,0,181.62,7.54Zm21.54,8.1a18.369,18.369,0,0,0-3.44-1.82,19.817,19.817,0,0,1-.26-2.78,1.832,1.832,0,0,1,.76-1.6l-2.08-1.12a3.022,3.022,0,0,0-.86,2.04c0,.42.24,2.46.28,2.92a10.093,10.093,0,0,0-1.56-.12c-2.76,0-3.54,1.76-3.54,2.84a2.264,2.264,0,0,0,.74,1.7,4.753,4.753,0,0,0,3.26.94c2.62,0,3.22-.84,3.4-2.44a11.009,11.009,0,0,1,1.98,1.32Zm-5.5-.36c0,.72.02,1.56-1.6,1.56-1.1,0-1.66-.46-1.66-.9,0-.4.48-.96,1.52-.96A6.716,6.716,0,0,1,197.66,15.28Zm6.06-8a9.884,9.884,0,0,0-4.46-1.84l-.9,1.72a14.156,14.156,0,0,1,4.38,1.82Zm-5.96-1.04V4c-.52.18-1.12.38-2.3.68.08-.26.46-1.54.48-1.56.12-.12.46-.24.46-.44,0-.22-.38-.32-.48-.34l-2.18-.48a19.083,19.083,0,0,1-.72,3.3,26.624,26.624,0,0,1-3.4.26l.3,2.08c.94-.06,1.5-.12,2.42-.24a34.305,34.305,0,0,1-3.42,7.28l2.14.92a48.777,48.777,0,0,0,3.7-8.58C196.46,6.58,197.08,6.42,197.76,6.24Zm28.9-2.08a9.111,9.111,0,0,0-1.56-1.68l-1.04.76a7.941,7.941,0,0,1,1.42,1.72Zm-2.18,1.12a12.322,12.322,0,0,0-1.54-1.7l-1.08.8a8.936,8.936,0,0,1,1.58,1.76Zm-.32,5.4c0-2.12-2.72-5.34-3.64-6.44L218.9,5.36c2.12,2.46,2.88,4.1,2.88,4.6,0,.48-.42.58-1.14.68l1.06,1.9C222.44,12.44,224.16,12.2,224.16,10.68Zm-4.54.02c0-1.78-.24-4.16-2.94-4.16a8.356,8.356,0,0,0-1.46.14c.16-.9.2-1.26.3-2.06.04-.26.04-.26.28-.42.2-.12.22-.14.22-.22,0-.16-.22-.26-.48-.3l-2.4-.34a23.937,23.937,0,0,1-.2,3.8c-1.64.36-2.32.5-3.84.74l.74,2.4a17.913,17.913,0,0,1,2.72-1.08,21.228,21.228,0,0,1-3.62,7.8l2.08.94a26.847,26.847,0,0,0,3.8-9.26,6.618,6.618,0,0,1,1.08-.1c1.24,0,1.62.48,1.62,2.02,0,.96-.16,3.48-1.06,4.6a1.556,1.556,0,0,1-1.38.56,5.886,5.886,0,0,1-1.36-.16l.48,2.16a14.075,14.075,0,0,0,1.5.08,3,3,0,0,0,2.28-.78C218.92,16.16,219.62,13.58,219.62,10.7Zm20-6.68a23.764,23.764,0,0,0-4.78-2.06l-.86,1.98a18.944,18.944,0,0,1,4.62,2.18Zm3.68,8.92a4.316,4.316,0,0,0-4.44-4.38,7.691,7.691,0,0,0-4.92,2.02,25.554,25.554,0,0,1,1.2-4.4l-2.3-.9a39.041,39.041,0,0,0-1.56,7.64l1.74.92c2.06-2.4,4.08-3.2,5.46-3.2,1.5,0,2.52.82,2.52,2.1,0,1.84-1.7,3.78-5.42,3.78a20.028,20.028,0,0,1-2.5-.22l1.06,2.46C236.62,18.7,243.3,18.58,243.3,12.94ZM113.04,36.48c0-.18-.16-.22-.4-.24l-2.18-.18V50.2c0,.52-.32.68-.94.68a11.8,11.8,0,0,1-1.42-.12l.98,2.24c2.74-.02,3.6-.54,3.6-2.16V37c0-.06.14-.2.26-.34C113,36.6,113.04,36.56,113.04,36.48Zm-4.4,1.34c0-.18-.18-.22-.38-.24l-2.18-.18V48.66h2.16V38.36c0-.08.1-.18.2-.26S108.64,37.94,108.64,37.82Zm-3.94,4.72v-2h-2.86V38a10.011,10.011,0,0,0,1.92-.46,5.422,5.422,0,0,0,.64.14c.08,0,.16,0,.16-.12,0-.16-.2-.38-.26-.44l-1.38-1.5a16.5,16.5,0,0,1-6.82,1.16l.86,1.82c.88-.04,1.7-.12,2.56-.24v2.18H95.98v2h2.98a12.271,12.271,0,0,1-1.32,3.2,14.353,14.353,0,0,1-2.26,2.9L97.4,49.7a15.6,15.6,0,0,0,2.12-3.2v6.42h2.32V46.14a13.554,13.554,0,0,0,1.7,1.54l1.08-1.54a14.624,14.624,0,0,1-2.78-3v-.6Zm27.4,8.52V36.18H117.88c.18,2.1.26,4.2.26,6.3,0,5-.28,7.3-1.6,9.56l2.08.74a15.243,15.243,0,0,0,1.64-6.62h3.7v5.7h2.26v-5.7h3.6v3.96c0,.56-.26.72-1.08.72a4.906,4.906,0,0,1-.92-.08l1.1,2.18C132.08,52.72,132.1,52.12,132.1,51.06Zm-2.28-11h-3.6V38.12h3.6Zm0,4.22h-3.6V41.94h3.6Zm-5.86-4.22h-3.6c0-.74,0-1.22-.02-1.94h3.62Zm0,4.22h-3.62c0-.4.02-.6.04-2.34h3.58Zm29.34-1.92a9.226,9.226,0,0,0-1.66-1.52l-.84.96a9.259,9.259,0,0,1,1.66,1.52Zm-1.62,1.82a8.72,8.72,0,0,0-1.66-1.54l-.82.96a8.879,8.879,0,0,1,1.64,1.54Zm.66-5.22V36.64c-3.78,1.16-9.98,1.64-14.3,1.6l.34,2.24c2-.28,4.94-.52,7.62-.74a14.912,14.912,0,0,0-2.64,3.04A7.275,7.275,0,0,0,142,46.76a5.017,5.017,0,0,0,1.48,3.6,8.975,8.975,0,0,0,4.92,2.22l.78-2.44a6.3,6.3,0,0,1-3.52-1.02,3.174,3.174,0,0,1-1.44-2.6,7.424,7.424,0,0,1,2.44-4.8A8.15,8.15,0,0,1,152.34,38.96Zm19.52,2.76-.36-2a22.8,22.8,0,0,1-3.64,1.8c-.32-.7-.4-.9-.66-1.52a13.174,13.174,0,0,0,3.16-1.36l-.44-1.94a19.3,19.3,0,0,1-3.42,1.54,17.431,17.431,0,0,1-.6-1.84c0-.06.02-.12.18-.28.1-.1.16-.16.16-.26,0-.24-.5-.18-.66-.16l-2.28.26c.32.94.54,1.58,1,2.82a24.664,24.664,0,0,1-4.66.4l.62,1.92a22.961,22.961,0,0,0,4.76-.54c.2.46.42.96.72,1.64a26.512,26.512,0,0,1-6.3.6l.7,2.02a25.794,25.794,0,0,0,6.42-.88c.38.74.56,1.1,1.04,1.96a15.277,15.277,0,0,0-2.86-.32c-2.26,0-4.42.74-4.42,3.48,0,2.64,2.48,3.78,6.08,3.78a20.133,20.133,0,0,0,3.16-.24l.2-2.36a14.59,14.59,0,0,1-4,.54c-.68,0-3.28,0-3.28-1.7,0-1.08,1.1-1.64,2.42-1.64a11.261,11.261,0,0,1,5.24,1.52l1.22-1.52a21.71,21.71,0,0,1-2.64-4.16A14.833,14.833,0,0,0,171.86,41.72Zm20.56,7.94a16.627,16.627,0,0,0-5.06-2.26c-.06-1.18-.06-1.38-.1-2.38a42.991,42.991,0,0,0,4.28-.5V42.34c-1.84.34-2.58.46-4.32.68V40.66c1-.02,2.86-.06,5.08-.06l.08-2.12c-1.88.14-2.56.18-5.12.3.02-1.04.04-1.42.04-1.44a.65.65,0,0,1,.26-.36c.22-.18.26-.2.26-.28,0-.14-.12-.2-.5-.24l-2.44-.24.06,2.66c-1.78.04-2.86.08-5.14.08l.04,2.16c1.72-.2,2.86-.28,5.16-.38l.04,2.5a13.725,13.725,0,0,1-1.38.04c-.34,0-.76,0-.76-.28,0-.26.3-.48.66-.74l-1.14-.98c-.78.56-2.14,1.5-2.14,2.48,0,.78.92,1.44,2.76,1.44.58,0,1.68-.04,2.04-.06l.04,1.92-.56-.02c-4.5-.16-4.7,2.16-4.7,2.74,0,1.62,1.72,2.6,4.48,2.6,2.56,0,3.04-.8,3.12-2.84a15.076,15.076,0,0,1,3.66,1.98Zm-7.28-.7c.02,1.12-.06,1.48-1.36,1.48-.24,0-1.52,0-1.52-.68,0-.52.64-.86,1.94-.86A5.177,5.177,0,0,1,185.14,48.96Zm28.88-8.54V38.26c-2.04.16-2.66.22-5.44.38V36.58c0-.08.02-.12.16-.24s.18-.18.18-.3c0-.2-.12-.26-.58-.28l-2.22-.14c.12,1.46.12,2.52.14,3.14-4.2.2-5.92.2-7.28.2v2.32c2.54-.32,5.56-.5,7.34-.6l.04,1.5a2.638,2.638,0,0,0-.94-.16c-2.04,0-3.14,1.52-3.14,3.72a3.579,3.579,0,0,0,1.04,2.78,2.518,2.518,0,0,0,1.64.62,4.022,4.022,0,0,0,1.08-.2,6.382,6.382,0,0,1-2.86,3.28l2.24,1.16a13.876,13.876,0,0,0,2.72-3.72,8.968,8.968,0,0,0,1.02-3.86,5.158,5.158,0,0,0-.58-2.44v-2.8C211.18,40.46,212.5,40.42,214.02,40.42Zm-7.28,5.06c0,1.42-.96,1.86-1.38,1.86-.46,0-1.1-.46-1.1-1.66,0-1.06.56-1.76,1.36-1.76a1.041,1.041,0,0,1,.74.28A1.865,1.865,0,0,1,206.74,45.48Z" transform="translate(-66.04 -0.56)"/></svg>