<svg xmlns="http://www.w3.org/2000/svg" width="177.504" height="14.096" viewBox="0 0 177.504 14.096"><defs><style>.a{fill:#fff;}</style></defs><path class="a" d="M48.636,10.48V9.232h-.9V7.376H42.78V6.768H46.7V3.824H42.78v-.56h5.792V1.888H42.78v-.3a.169.169,0,0,1,.1-.144c.144-.112.176-.128.176-.224s-.112-.128-.192-.144L40.972.832V1.888H35.164V3.264h5.808v.56H37.036V6.768h3.936v.608h-4.88V8.624h4.88v.608H35.164V10.48h5.808v.688h-4.88v1.248h4.88v.48c0,.288-.24.368-.5.368-.272,0-.72-.048-1.136-.08l.8,1.744c2.24-.016,2.64-.432,2.64-1.36V12.416h3.28v.432h1.68V10.48Zm-3.584-4.8H42.78V4.912h2.272Zm-4.08,0h-2.3V4.912h2.3ZM46.06,9.232H42.78V8.624h3.28Zm0,1.936H42.78V10.48h3.28ZM58,13.04V5.5H52.2V14.72h1.7V11.488h2.368v1.168c0,.272-.128.4-.448.4a7.508,7.508,0,0,1-1.056-.1l.672,1.824C56.828,14.784,58,14.56,58,13.04ZM56.268,7.792H53.9v-.88h2.368Zm0,2.288H53.9V9.2h2.368Zm8.9-5.568V3.04H61.516c.112-.144.592-.96.64-.992a3.03,3.03,0,0,1,.288-.1c.1-.032.128-.08.128-.144a.174.174,0,0,0-.112-.16l-2.032-.592A10.039,10.039,0,0,1,59.34,3.04H56.2l.592-.288A19.335,19.335,0,0,0,55.484.976l-1.744.768a12.913,12.913,0,0,1,.992,1.3H51.324V4.512ZM64.62,5.52c0-.064-.08-.128-.192-.144l-1.984-.144v7.152c0,.432-.16.56-.72.56-.336,0-.624-.032-.96-.064l.848,1.792C63.6,14.656,64.3,14.464,64.3,12.9V5.984c0-.048.112-.176.224-.272A.365.365,0,0,0,64.62,5.52Zm-3.328.24a.2.2,0,0,0-.208-.176l-1.9-.1v6.448h1.728V6.192c0-.064.032-.08.256-.24A.248.248,0,0,0,61.292,5.76Zm20.88,1.072a12.322,12.322,0,0,1-2.9-1.536c.448-.448.9-.912,1.312-1.392.144-.16.176-.16.448-.176.08,0,.208,0,.208-.128,0-.08-.064-.144-.336-.288l-1.216-.64A14.161,14.161,0,0,1,78.156,4.32a4.117,4.117,0,0,1-.336-.384c.224-.256,1.2-1.392,1.408-1.632.048-.016.32-.048.368-.064.064,0,.128-.016.128-.112,0-.128-.192-.24-.32-.3L78.156,1.2a11.463,11.463,0,0,1-1.232,1.392,7.279,7.279,0,0,1-.688-1.52l-1.616.512a10.21,10.21,0,0,0,2.064,3.424H72.6A10.471,10.471,0,0,0,74.428,2.1l-.528-.64H69.1V2.928h2.88A6.118,6.118,0,0,1,71,4.3a8.172,8.172,0,0,0-1.536-1.152L68.252,4.368A7.218,7.218,0,0,1,69.772,5.5a13.172,13.172,0,0,1-2.96,1.84l1.632,1.184a11.522,11.522,0,0,0,1.712-1.12V11.28h2.032l-.96.288a14.032,14.032,0,0,1,.624,1.28H67.964v1.568H81.132V12.848H77.164c.144-.272.256-.528.384-.816.192-.048.368-.08.368-.24,0-.176-.16-.208-.24-.224l-1.232-.288h2.5V7.168H70.46a13.079,13.079,0,0,0,1.456-1.392v.752h5.536V5.84a12.15,12.15,0,0,0,3.232,2.368ZM77.116,9.9H71.98V8.544h5.136ZM76,11.28a6.5,6.5,0,0,1-.72,1.568H72.924l.768-.192a5.076,5.076,0,0,0-.64-1.376ZM90.124,3.552A7.228,7.228,0,0,1,88.012,1.76a.165.165,0,0,0,.064-.128c0-.16-.208-.272-.288-.288l-1.36-.3A7.417,7.417,0,0,1,83.484,4.4l1.2,1.184a2.316,2.316,0,0,0,.272-.288v1.04h1.312V7.28H84.3V8.928h1.968v3.536c-.768.064-1.584.144-2.368.176l.128,1.664c.016.144.032.432.208.432.112,0,.416-.4.512-.432.064-.032,1.04-.192,1.2-.224,2.224-.384,3.04-.56,3.568-.688l.128-1.488a13.255,13.255,0,0,1-1.728.352V8.928h1.552V7.28H87.916V6.336h1.248V4.688Zm8.144,9.04a9.777,9.777,0,0,1-3.68-3.28v-1.5h3.12V6.256h-.88V1.472H90.3V3.008h4.784v.864H91.02V5.344h4.064v.912H90V7.808h2.88v2.544A9.3,9.3,0,0,1,89.9,11.76l.272,1.376c.016.08.08.4.256.4.08,0,.128-.112.192-.24.08-.144.1-.176.56-.384a15.376,15.376,0,0,0,1.7-.9v.48c0,.384-.208.448-.512.448-.464,0-.832-.048-1.04-.064l.688,1.808c2.016-.032,2.576-.16,2.576-1.36v-1.68a8.251,8.251,0,0,0,2.512,2.3ZM90.22,9.92c0-.016,0-.176-.352-.256L88.6,9.36a6.955,6.955,0,0,1-.624,2.272l1.392.32a8.067,8.067,0,0,0,.48-1.84C90,10.08,90.22,10.032,90.22,9.92ZM88.876,4.688H85.74a11.838,11.838,0,0,0,1.408-1.632A10.275,10.275,0,0,0,88.876,4.688Zm8.9,4.368c0-.048,0-.144-.224-.256L96.22,8.1A6.419,6.419,0,0,1,95.1,9.744l1.328.864A8.122,8.122,0,0,0,97.4,9.2C97.58,9.184,97.772,9.168,97.772,9.056ZM92.716,10.1A8.645,8.645,0,0,0,91.4,8.208l-1.312.784a8.125,8.125,0,0,1,1.2,1.84ZM86.14,11.824a9.429,9.429,0,0,0-.656-2.512l-1.376.5a16.476,16.476,0,0,1,.688,2.4Zm27.728-1.9a13.6,13.6,0,0,0-2.624-6.8l-1.648.8a14.879,14.879,0,0,1,2.352,6.5Zm-7.056-.24L105.484,8.5c-.3.768-.96,2.464-1.536,2.464-.32,0-1.088-.576-1.088-3.7a16.585,16.585,0,0,1,.3-3.568c.272-.1.464-.16.464-.336,0-.192-.256-.272-.368-.3l-1.76-.48a15.583,15.583,0,0,0-.48,4.16c0,3.04.512,4.912,1.632,6a1.745,1.745,0,0,0,1.184.528C105.132,13.264,105.932,11.568,106.812,9.68Zm22.448-1.5V6.48a18.374,18.374,0,0,0-2.112-.1c-.848,0-1.648.048-2.48.112v1.68a19.609,19.609,0,0,1,2.4-.176A17.388,17.388,0,0,1,129.26,8.176ZM125.644,4.96V3.184a12.514,12.514,0,0,1-2.544.944c.112-.448.24-1.024.384-1.744.032-.16.064-.176.272-.272.144-.064.192-.112.192-.224,0-.176-.368-.256-.4-.256l-1.968-.464a19.43,19.43,0,0,1-.544,3.392,11.609,11.609,0,0,1-1.584.1,6.456,6.456,0,0,1-1.3-.1l.128,1.664a21.1,21.1,0,0,0,2.384-.192,26.638,26.638,0,0,1-3.248,7.616l1.952.592a45.376,45.376,0,0,0,3.3-8.512A19.31,19.31,0,0,0,125.644,4.96Zm3.872,9.152-.16-1.856a10.533,10.533,0,0,1-2.816.352,3.747,3.747,0,0,1-2.032-.432.549.549,0,0,1-.192-.48,3.025,3.025,0,0,1,.064-.592l-1.584-.336a3.708,3.708,0,0,0-.192,1.152c0,1.632,1.232,2.432,4.112,2.432A15.476,15.476,0,0,0,129.516,14.112Zm15.376-5.936V6.656a12.166,12.166,0,0,0-1.488-.064,21.536,21.536,0,0,0-2.656.16V8.288A18.594,18.594,0,0,1,144.892,8.176Zm-3.328-2.928V3.5a8.242,8.242,0,0,1-2.368.944c.112-.464.272-1.232.288-1.312.048-.336.048-.384.16-.448.256-.192.288-.208.288-.272,0-.112-.1-.176-.352-.24l-1.808-.448a15.731,15.731,0,0,1-.432,3.152,13.341,13.341,0,0,1-2.672.192l.112,1.5a6.505,6.505,0,0,0,.96-.1c.128-.016,1.232-.176,1.232-.176a25.537,25.537,0,0,1-2.928,7.3l1.776.512a45.116,45.116,0,0,0,3.008-8.1A14.975,14.975,0,0,0,141.564,5.248Zm4.128-2.3A9.423,9.423,0,0,0,144.476,1.7l-.688.688a9.27,9.27,0,0,1,1.2,1.232Zm-1.68.832a11.62,11.62,0,0,0-1.264-1.3l-.672.64a10.346,10.346,0,0,1,1.264,1.3Zm1.184,10.08L145,12.16a9.44,9.44,0,0,1-2.592.32,3.589,3.589,0,0,1-1.824-.352.532.532,0,0,1-.208-.432,3.68,3.68,0,0,1,.064-.608l-1.488-.224a4.366,4.366,0,0,0-.1.944c0,2.176,2.032,2.272,3.584,2.272A14.012,14.012,0,0,0,145.2,13.856ZM162.828,9.92a13.6,13.6,0,0,0-2.624-6.8l-1.648.8a14.879,14.879,0,0,1,2.352,6.5Zm-7.056-.24L154.444,8.5c-.3.768-.96,2.464-1.536,2.464-.32,0-1.088-.576-1.088-3.7a16.586,16.586,0,0,1,.3-3.568c.272-.1.464-.16.464-.336,0-.192-.256-.272-.368-.3l-1.76-.48a15.582,15.582,0,0,0-.48,4.16c0,3.04.512,4.912,1.632,6a1.745,1.745,0,0,0,1.184.528C154.092,13.264,154.892,11.568,155.772,9.68Zm22.448-1.5V6.48a18.374,18.374,0,0,0-2.112-.1c-.848,0-1.648.048-2.48.112v1.68a19.609,19.609,0,0,1,2.4-.176A17.388,17.388,0,0,1,178.22,8.176ZM174.6,4.96V3.184a12.514,12.514,0,0,1-2.544.944c.112-.448.24-1.024.384-1.744.032-.16.064-.176.272-.272.144-.064.192-.112.192-.224,0-.176-.368-.256-.4-.256l-1.968-.464A19.429,19.429,0,0,1,170,4.56a11.609,11.609,0,0,1-1.584.1,6.455,6.455,0,0,1-1.3-.1l.128,1.664a21.1,21.1,0,0,0,2.384-.192,26.638,26.638,0,0,1-3.248,7.616l1.952.592a45.375,45.375,0,0,0,3.3-8.512A19.31,19.31,0,0,0,174.6,4.96Zm3.872,9.152-.16-1.856a10.533,10.533,0,0,1-2.816.352,3.747,3.747,0,0,1-2.032-.432.549.549,0,0,1-.192-.48,3.025,3.025,0,0,1,.064-.592l-1.584-.336a3.708,3.708,0,0,0-.192,1.152c0,1.632,1.232,2.432,4.112,2.432A15.476,15.476,0,0,0,178.476,14.112ZM194.3,6.368V1.328h-6.5v5.04Zm-1.552-3.024h-3.392V2.672h3.392Zm0,1.824h-3.392V4.48h3.392Zm2.752,3.1v-1.3h-8.88v1.3h1.52a6.149,6.149,0,0,1-1.168,1.712V8.656c-.528.192-1.056.352-1.616.512V5.9h1.664V4.256h-1.664V1.888c0-.112.128-.192.208-.24.1-.08.176-.144.176-.256s-.112-.16-.208-.176l-1.856-.144V4.256h-1.552V5.9h1.552V9.632c-.56.144-1.264.32-1.776.416l.288,1.792a.131.131,0,0,0,.112.112c.08,0,.128-.064.3-.256.1-.112.16-.128.752-.272.464-.112,2.224-.7,3.312-1.12a9.086,9.086,0,0,1-1.408,1.056l1.264.848a12.185,12.185,0,0,0,2.144-2.032h.736a9.853,9.853,0,0,1-3.808,3.2l1.248.88a15.747,15.747,0,0,0,2.512-1.984,8.662,8.662,0,0,0,1.568-2.1h.8a10.547,10.547,0,0,1-3.648,3.84l1.2.8a10.281,10.281,0,0,0,1.968-1.68l.64,1.568c1.28-.016,2.064-.24,2.544-.992a12.182,12.182,0,0,0,.88-4.864h-5.824a4.831,4.831,0,0,0,.288-.576Zm-1.888,1.9a6.047,6.047,0,0,1-.512,2.448.8.8,0,0,1-.848.448,4.319,4.319,0,0,1-.864-.1,9.19,9.19,0,0,0,1.84-2.8Zm19.056-4.144a12.866,12.866,0,0,1-4.016-1.856,10.225,10.225,0,0,1-2.528-2.512c.1-.064.24-.192.24-.256,0-.048-.08-.144-.224-.176L204.268.864a13.866,13.866,0,0,1-6.624,5.728l1.344,1.36a14.541,14.541,0,0,0,2.848-1.664V7.28h6.432v-1.3a14.42,14.42,0,0,0,3.024,1.648ZM207.8,5.648h-5.136a12.234,12.234,0,0,0,2.4-2.656A16.883,16.883,0,0,0,207.8,5.648Zm2.016,9.024V8.528h-9.344v6.208h1.744v-.544h5.792v.48Zm-1.808-2.128H202.22V10.1h5.792Z" transform="translate(-35.164 -0.832)"/></svg>