<svg xmlns="http://www.w3.org/2000/svg" width="221.88" height="17.62" viewBox="0 0 221.88 17.62"><defs><style>.a{fill:#fff;}</style></defs><path class="a" d="M-93.58-4.4V-5.96H-94.7V-8.28h-6.2v-.76H-96v-3.68h-4.9v-.7h7.24v-1.72h-7.24v-.38a.211.211,0,0,1,.12-.18c.18-.14.22-.16.22-.28s-.14-.16-.24-.18l-2.36-.3v1.32h-7.26v1.72h7.26v.7h-4.92v3.68h4.92v.76h-6.1v1.56h6.1v.76h-7.26V-4.4h7.26v.86h-6.1v1.56h6.1v.6c0,.36-.3.46-.62.46-.34,0-.9-.06-1.42-.1l1,2.18c2.8-.02,3.3-.54,3.3-1.7V-1.98h4.1v.54h2.1V-4.4Zm-4.48-6h-2.84v-.96h2.84Zm-5.1,0h-2.88v-.96h2.88Zm6.36,4.44h-4.1v-.76h4.1Zm0,2.42h-4.1V-4.4h4.1ZM-81.88-1.2v-9.42h-7.24V.9H-87V-3.14h2.96v1.46c0,.34-.16.5-.56.5a9.384,9.384,0,0,1-1.32-.12l.84,2.28C-83.34.98-81.88.7-81.88-1.2Zm-2.16-6.56H-87v-1.1h2.96Zm0,2.86H-87V-6h2.96Zm11.12-6.96V-13.7h-4.56c.14-.18.74-1.2.8-1.24a3.788,3.788,0,0,1,.36-.12c.12-.04.16-.1.16-.18a.218.218,0,0,0-.14-.2l-2.54-.74A12.549,12.549,0,0,1-80.2-13.7h-3.92l.74-.36a24.169,24.169,0,0,0-1.64-2.22l-2.18.96a16.141,16.141,0,0,1,1.24,1.62h-4.26v1.84Zm-.68,1.26c0-.08-.1-.16-.24-.18l-2.48-.18v8.94c0,.54-.2.7-.9.7-.42,0-.78-.04-1.2-.08L-77.36.84C-74.88.82-74,.58-74-1.38v-8.64c0-.06.14-.22.28-.34A.456.456,0,0,0-73.6-10.6Zm-4.16.3a.246.246,0,0,0-.26-.22l-2.38-.12v8.06h2.16V-9.76c0-.08.04-.1.32-.3A.31.31,0,0,0-77.76-10.3Zm26.1,1.34a15.4,15.4,0,0,1-3.62-1.92c.56-.56,1.12-1.14,1.64-1.74.18-.2.22-.2.56-.22.1,0,.26,0,.26-.16,0-.1-.08-.18-.42-.36l-1.52-.8a17.7,17.7,0,0,1-1.92,2.06,5.147,5.147,0,0,1-.42-.48c.28-.32,1.5-1.74,1.76-2.04.06-.02.4-.06.46-.08.08,0,.16-.02.16-.14,0-.16-.24-.3-.4-.38L-56.68-16a14.329,14.329,0,0,1-1.54,1.74,9.1,9.1,0,0,1-.86-1.9l-2.02.64a12.762,12.762,0,0,0,2.58,4.28h-5.1a13.089,13.089,0,0,0,2.28-3.64l-.66-.8h-6v1.84h3.6a7.648,7.648,0,0,1-1.22,1.72,10.215,10.215,0,0,0-1.92-1.44l-1.52,1.52a9.023,9.023,0,0,1,1.9,1.42,16.465,16.465,0,0,1-3.7,2.3l2.04,1.48a14.4,14.4,0,0,0,2.14-1.4V-3.4h2.54l-1.2.36a17.539,17.539,0,0,1,.78,1.6h-4.86V.52h16.46V-1.44h-4.96c.18-.34.32-.66.48-1.02.24-.06.46-.1.46-.3,0-.22-.2-.26-.3-.28l-1.54-.36h3.12V-8.54H-66.3a16.35,16.35,0,0,0,1.82-1.74v.94h6.92v-.86a15.187,15.187,0,0,0,4.04,2.96Zm-6.32,3.84H-64.4v-1.7h6.42Zm-1.4,1.72a8.122,8.122,0,0,1-.9,1.96h-2.94l.96-.24a6.345,6.345,0,0,0-.8-1.72Zm17.66-9.66a9.035,9.035,0,0,1-2.64-2.24.207.207,0,0,0,.08-.16c0-.2-.26-.34-.36-.36l-1.7-.38A9.272,9.272,0,0,1-50.02-12l1.5,1.48a2.9,2.9,0,0,0,.34-.36v1.3h1.64V-8.4H-49v2.06h2.46v4.42c-.96.08-1.98.18-2.96.22l.16,2.08c.02.18.04.54.26.54.14,0,.52-.5.64-.54.08-.04,1.3-.24,1.5-.28,2.78-.48,3.8-.7,4.46-.86l.16-1.86a16.569,16.569,0,0,1-2.16.44V-6.34h1.94V-8.4h-1.94V-9.58h1.56v-2.06Zm10.18,11.3a12.221,12.221,0,0,1-4.6-4.1V-7.74h3.9V-9.68h-1.1v-5.98H-41.5v1.92h5.98v1.08H-40.6v1.84h5.08v1.14h-6.36v1.94h3.6v3.18A11.631,11.631,0,0,1-42-2.8l.34,1.72c.02.1.1.5.32.5.1,0,.16-.14.24-.3.1-.18.12-.22.7-.48a19.22,19.22,0,0,0,2.12-1.12v.6c0,.48-.26.56-.64.56-.58,0-1.04-.06-1.3-.08l.86,2.26c2.52-.04,3.22-.2,3.22-1.7v-2.1A10.314,10.314,0,0,0-33-.06ZM-41.6-5.1c0-.02,0-.22-.44-.32l-1.58-.38a8.693,8.693,0,0,1-.78,2.84l1.74.4a10.085,10.085,0,0,0,.6-2.3C-41.88-4.9-41.6-4.96-41.6-5.1Zm-1.68-6.54H-47.2a14.8,14.8,0,0,0,1.76-2.04A12.844,12.844,0,0,0-43.28-11.64Zm11.12,5.46c0-.06,0-.18-.28-.32l-1.66-.88a8.024,8.024,0,0,1-1.4,2.06l1.66,1.08A10.153,10.153,0,0,0-32.62-6C-32.4-6.02-32.16-6.04-32.16-6.18Zm-6.32,1.3a10.805,10.805,0,0,0-1.64-2.36l-1.64.98a10.156,10.156,0,0,1,1.5,2.3ZM-46.7-2.72a11.786,11.786,0,0,0-.82-3.14l-1.72.62a20.6,20.6,0,0,1,.86,3ZM-12.04-5.1a17,17,0,0,0-3.28-8.5l-2.06,1a18.6,18.6,0,0,1,2.94,8.12Zm-8.82-.3-1.66-1.48c-.38.96-1.2,3.08-1.92,3.08-.4,0-1.36-.72-1.36-4.62a20.732,20.732,0,0,1,.38-4.46c.34-.12.58-.2.58-.42,0-.24-.32-.34-.46-.38l-2.2-.6a19.478,19.478,0,0,0-.6,5.2c0,3.8.64,6.14,2.04,7.5a2.181,2.181,0,0,0,1.48.66C-22.96-.92-21.96-3.04-20.86-5.4ZM7.2-7.28V-9.4a22.968,22.968,0,0,0-2.64-.12c-1.06,0-2.06.06-3.1.14v2.1a24.512,24.512,0,0,1,3-.22A21.735,21.735,0,0,1,7.2-7.28ZM2.68-11.3v-2.22A15.642,15.642,0,0,1-.5-12.34c.14-.56.3-1.28.48-2.18.04-.2.08-.22.34-.34.18-.08.24-.14.24-.28,0-.22-.46-.32-.5-.32l-2.46-.58a24.287,24.287,0,0,1-.68,4.24,14.511,14.511,0,0,1-1.98.12,8.07,8.07,0,0,1-1.62-.12l.16,2.08a26.369,26.369,0,0,0,2.98-.24A33.3,33.3,0,0,1-7.6-.44L-5.16.3A56.72,56.72,0,0,0-1.04-10.34,24.138,24.138,0,0,0,2.68-11.3ZM7.52.14l-.2-2.32a13.167,13.167,0,0,1-3.52.44,4.683,4.683,0,0,1-2.54-.54.687.687,0,0,1-.24-.6,3.782,3.782,0,0,1,.08-.74L-.88-4.04A4.635,4.635,0,0,0-1.12-2.6C-1.12-.56.42.44,4.02.44A19.345,19.345,0,0,0,7.52.14ZM26.74-7.28v-1.9a15.207,15.207,0,0,0-1.86-.08,26.92,26.92,0,0,0-3.32.2v1.92A23.242,23.242,0,0,1,26.74-7.28Zm-4.16-3.66v-2.18a10.3,10.3,0,0,1-2.96,1.18c.14-.58.34-1.54.36-1.64.06-.42.06-.48.2-.56.32-.24.36-.26.36-.34,0-.14-.12-.22-.44-.3l-2.26-.56a19.664,19.664,0,0,1-.54,3.94,16.676,16.676,0,0,1-3.34.24l.14,1.88a8.131,8.131,0,0,0,1.2-.12c.16-.02,1.54-.22,1.54-.22A31.921,31.921,0,0,1,13.18-.5L15.4.14A56.4,56.4,0,0,0,19.16-9.98,18.718,18.718,0,0,0,22.58-10.94Zm5.16-2.88a11.78,11.78,0,0,0-1.52-1.56l-.86.86a11.587,11.587,0,0,1,1.5,1.54Zm-2.1,1.04a14.526,14.526,0,0,0-1.58-1.62l-.84.8a12.932,12.932,0,0,1,1.58,1.62ZM27.12-.18,26.88-2.3a11.8,11.8,0,0,1-3.24.4,4.487,4.487,0,0,1-2.28-.44.665.665,0,0,1-.26-.54,4.6,4.6,0,0,1,.08-.76l-1.86-.28a5.458,5.458,0,0,0-.12,1.18C19.2-.02,21.74.1,23.68.1A17.515,17.515,0,0,0,27.12-.18ZM49.16-5.1a17,17,0,0,0-3.28-8.5l-2.06,1a18.6,18.6,0,0,1,2.94,8.12Zm-8.82-.3L38.68-6.88c-.38.96-1.2,3.08-1.92,3.08-.4,0-1.36-.72-1.36-4.62a20.732,20.732,0,0,1,.38-4.46c.34-.12.58-.2.58-.42,0-.24-.32-.34-.46-.38l-2.2-.6a19.478,19.478,0,0,0-.6,5.2c0,3.8.64,6.14,2.04,7.5a2.181,2.181,0,0,0,1.48.66C38.24-.92,39.24-3.04,40.34-5.4ZM68.4-7.28V-9.4a22.968,22.968,0,0,0-2.64-.12c-1.06,0-2.06.06-3.1.14v2.1a24.512,24.512,0,0,1,3-.22A21.735,21.735,0,0,1,68.4-7.28ZM63.88-11.3v-2.22a15.642,15.642,0,0,1-3.18,1.18c.14-.56.3-1.28.48-2.18.04-.2.08-.22.34-.34.18-.08.24-.14.24-.28,0-.22-.46-.32-.5-.32l-2.46-.58a24.286,24.286,0,0,1-.68,4.24,14.511,14.511,0,0,1-1.98.12,8.07,8.07,0,0,1-1.62-.12l.16,2.08a26.369,26.369,0,0,0,2.98-.24A33.3,33.3,0,0,1,53.6-.44L56.04.3a56.72,56.72,0,0,0,4.12-10.64A24.138,24.138,0,0,0,63.88-11.3ZM68.72.14l-.2-2.32A13.167,13.167,0,0,1,65-1.74a4.683,4.683,0,0,1-2.54-.54.687.687,0,0,1-.24-.6,3.782,3.782,0,0,1,.08-.74l-1.98-.42a4.635,4.635,0,0,0-.24,1.44c0,2.04,1.54,3.04,5.14,3.04A19.345,19.345,0,0,0,68.72.14ZM88.5-9.54v-6.3H80.38v6.3Zm-1.94-3.78H82.32v-.84h4.24Zm0,2.28H82.32v-.86h4.24ZM90-7.16V-8.78H78.9v1.62h1.9a7.686,7.686,0,0,1-1.46,2.14V-6.68c-.66.24-1.32.44-2.02.64v-4.08H79.4v-2.06H77.32v-2.96c0-.14.16-.24.26-.3.12-.1.22-.18.22-.32s-.14-.2-.26-.22l-2.32-.18v3.98H73.28v2.06h1.94v4.66c-.7.18-1.58.4-2.22.52l.36,2.24a.164.164,0,0,0,.14.14c.1,0,.16-.08.38-.32.12-.14.2-.16.94-.34.58-.14,2.78-.88,4.14-1.4A11.357,11.357,0,0,1,77.2-3.3l1.58,1.06a15.231,15.231,0,0,0,2.68-2.54h.92a12.316,12.316,0,0,1-4.76,4L79.18.32a19.685,19.685,0,0,0,3.14-2.48,10.827,10.827,0,0,0,1.96-2.62h1A13.183,13.183,0,0,1,80.72.02l1.5,1a12.851,12.851,0,0,0,2.46-2.1l.8,1.96c1.6-.02,2.58-.3,3.18-1.24.7-1.1,1.08-4.04,1.1-6.08H82.48a6.041,6.041,0,0,0,.36-.72ZM87.64-4.78A7.559,7.559,0,0,1,87-1.72a1,1,0,0,1-1.06.56,5.4,5.4,0,0,1-1.08-.12,11.487,11.487,0,0,0,2.3-3.5Zm23.82-5.18a16.082,16.082,0,0,1-5.02-2.32,12.781,12.781,0,0,1-3.16-3.14c.12-.08.3-.24.3-.32,0-.06-.1-.18-.28-.22l-2.34-.46a17.332,17.332,0,0,1-8.28,7.16l1.68,1.7a18.177,18.177,0,0,0,3.56-2.08V-8.4h8.04v-1.62a18.024,18.024,0,0,0,3.78,2.06Zm-6.08-.48H98.96a15.292,15.292,0,0,0,3-3.32A21.1,21.1,0,0,0,105.38-10.44ZM107.9.84V-6.84H96.22V.92H98.4V.24h7.24v.6Zm-2.26-2.66H98.4V-4.88h7.24Z" transform="translate(110.42 16.46)"/></svg>