<svg xmlns="http://www.w3.org/2000/svg" viewBox="0 0 85.08 98.36"><defs><style>.cls-1{fill:#ba9973;}</style></defs><g id="レイヤー_2" data-name="レイヤー 2"><g id="レイヤー_1-2" data-name="レイヤー 1"><path class="cls-1" d="M76.08,98.36H35.14a8.71,8.71,0,0,1-8.7-8.7V75.42h1.4V89.66a7.31,7.31,0,0,0,7.3,7.3H76.08a7.32,7.32,0,0,0,7.3-7.27l.3-80.45a7.6,7.6,0,0,0-7.54-7.63L35.46,1.4h0a7.59,7.59,0,0,0-7.58,7.54v30h-1.4v-30a9,9,0,0,1,9-8.94h0L76.15.21a9,9,0,0,1,8.93,9l-.3,80.45A8.72,8.72,0,0,1,76.08,98.36Z"/><path class="cls-1" d="M80.35,88.22h-50a.7.7,0,0,1-.7-.7v-13H31V86.82H79.65L80,10,31.56,9.73V38h-1.4V9a.7.7,0,0,1,.2-.49.71.71,0,0,1,.5-.21h0l49.81.26a.71.71,0,0,1,.7.71l-.32,78.23A.7.7,0,0,1,80.35,88.22Z"/><path class="cls-1" d="M63.43,5.89h0L52.27,5.83a.7.7,0,1,1,0-1.4h0l11.16.06a.7.7,0,1,1,0,1.4Z"/><circle class="cls-1" cx="48.98" cy="5.12" r="0.93"/><path class="cls-1" d="M10.36,80.2a2.71,2.71,0,0,1-2.62-2L.08,48.07A2.72,2.72,0,0,1,2,44.78L49.65,32.67a2.69,2.69,0,0,1,3.28,1.95l7.66,30.1a2.69,2.69,0,0,1-2,3.28L11,80.12A2.61,2.61,0,0,1,10.36,80.2ZM50.32,34A1.65,1.65,0,0,0,50,34L2.38,46.14a1.31,1.31,0,0,0-.94,1.58L9.1,77.82h0a1.31,1.31,0,0,0,.6.8,1.25,1.25,0,0,0,1,.14L58.3,66.65a1.32,1.32,0,0,0,.94-1.59L51.58,35A1.31,1.31,0,0,0,50.32,34Z"/><path class="cls-1" d="M30.81,58.93a.7.7,0,0,1-.25,0L3.12,48.51a.7.7,0,0,1-.41-.9.69.69,0,0,1,.9-.41l27,10.2L49.42,35.54a.7.7,0,1,1,1.06.92L31.34,58.68A.72.72,0,0,1,30.81,58.93Z"/><path class="cls-1" d="M12.51,36.7a.7.7,0,0,1-.67-.51s-1.32-4.43-4.12-6a5.61,5.61,0,0,1-1.09,2.89c-1.1,1.55-2.61,2.24-4,1.85A3.09,3.09,0,0,1,.36,32.23c0-.67.09-2.34,2.48-3.41a6.41,6.41,0,0,1,3.21-.62c-1.08-3-4.85-5.45-4.89-5.48a.7.7,0,0,1,.74-1.18c.2.12,4.86,3.1,5.7,7l.34.15c3.64,1.68,5.18,6.88,5.25,7.11a.7.7,0,0,1-.48.86A.69.69,0,0,1,12.51,36.7Zm-6.9-7.12a5.3,5.3,0,0,0-2.2.52c-1.11.5-1.71,1.24-1.65,2A1.65,1.65,0,0,0,3,33.55c.85.23,1.77-.24,2.53-1.31a4.16,4.16,0,0,0,.84-2.6A4.28,4.28,0,0,0,5.61,29.58Z"/></g></g></svg>