<svg xmlns="http://www.w3.org/2000/svg" width="78.88" height="17.62" viewBox="0 0 78.88 17.62"><defs><style>.a{fill:#2f2f2f;}</style></defs><path class="a" d="M-22.18-4.4V-5.96H-23.3V-8.28h-6.2v-.76h4.9v-3.68h-4.9v-.7h7.24v-1.72H-29.5v-.38a.211.211,0,0,1,.12-.18c.18-.14.22-.16.22-.28s-.14-.16-.24-.18l-2.36-.3v1.32h-7.26v1.72h7.26v.7h-4.92v3.68h4.92v.76h-6.1v1.56h6.1v.76h-7.26V-4.4h7.26v.86h-6.1v1.56h6.1v.6c0,.36-.3.46-.62.46-.34,0-.9-.06-1.42-.1l1,2.18c2.8-.02,3.3-.54,3.3-1.7V-1.98h4.1v.54h2.1V-4.4Zm-4.48-6H-29.5v-.96h2.84Zm-5.1,0h-2.88v-.96h2.88Zm6.36,4.44h-4.1v-.76h4.1Zm0,2.42h-4.1V-4.4h4.1ZM-10.48-1.2v-9.42h-7.24V.9h2.12V-3.14h2.96v1.46c0,.34-.16.5-.56.5a9.384,9.384,0,0,1-1.32-.12l.84,2.28C-11.94.98-10.48.7-10.48-1.2Zm-2.16-6.56H-15.6v-1.1h2.96Zm0,2.86H-15.6V-6h2.96Zm11.12-6.96V-13.7H-6.08c.14-.18.74-1.2.8-1.24a3.788,3.788,0,0,1,.36-.12c.12-.04.16-.1.16-.18a.217.217,0,0,0-.14-.2l-2.54-.74A12.549,12.549,0,0,1-8.8-13.7h-3.92l.74-.36a24.168,24.168,0,0,0-1.64-2.22l-2.18.96a16.14,16.14,0,0,1,1.24,1.62h-4.26v1.84ZM-2.2-10.6c0-.08-.1-.16-.24-.18l-2.48-.18v8.94c0,.54-.2.7-.9.7-.42,0-.78-.04-1.2-.08L-5.96.84C-3.48.82-2.6.58-2.6-1.38v-8.64c0-.06.14-.22.28-.34A.456.456,0,0,0-2.2-10.6Zm-4.16.3a.246.246,0,0,0-.26-.22L-9-10.64v8.06h2.16V-9.76c0-.08.04-.1.32-.3A.31.31,0,0,0-6.36-10.3Zm26.1,1.34a15.4,15.4,0,0,1-3.62-1.92c.56-.56,1.12-1.14,1.64-1.74.18-.2.22-.2.56-.22.1,0,.26,0,.26-.16,0-.1-.08-.18-.42-.36l-1.52-.8a17.7,17.7,0,0,1-1.92,2.06,5.146,5.146,0,0,1-.42-.48c.28-.32,1.5-1.74,1.76-2.04.06-.02.4-.06.46-.08.08,0,.16-.02.16-.14,0-.16-.24-.3-.4-.38L14.72-16a14.329,14.329,0,0,1-1.54,1.74,9.1,9.1,0,0,1-.86-1.9l-2.02.64a12.762,12.762,0,0,0,2.58,4.28H7.78a13.089,13.089,0,0,0,2.28-3.64l-.66-.8h-6v1.84H7a7.647,7.647,0,0,1-1.22,1.72,10.214,10.214,0,0,0-1.92-1.44L2.34-12.04a9.023,9.023,0,0,1,1.9,1.42,16.465,16.465,0,0,1-3.7,2.3L2.58-6.84a14.4,14.4,0,0,0,2.14-1.4V-3.4H7.26l-1.2.36a17.54,17.54,0,0,1,.78,1.6H1.98V.52H18.44V-1.44H13.48c.18-.34.32-.66.48-1.02.24-.06.46-.1.46-.3,0-.22-.2-.26-.3-.28L12.58-3.4H15.7V-8.54H5.1a16.349,16.349,0,0,0,1.82-1.74v.94h6.92v-.86a15.187,15.187,0,0,0,4.04,2.96ZM13.42-5.12H7v-1.7h6.42ZM12.02-3.4a8.122,8.122,0,0,1-.9,1.96H8.18l.96-.24a6.345,6.345,0,0,0-.8-1.72Zm17.66-9.66a9.035,9.035,0,0,1-2.64-2.24.207.207,0,0,0,.08-.16c0-.2-.26-.34-.36-.36l-1.7-.38A9.272,9.272,0,0,1,21.38-12l1.5,1.48a2.9,2.9,0,0,0,.34-.36v1.3h1.64V-8.4H22.4v2.06h2.46v4.42c-.96.08-1.98.18-2.96.22L22.06.38c.02.18.04.54.26.54.14,0,.52-.5.64-.54.08-.04,1.3-.24,1.5-.28,2.78-.48,3.8-.7,4.46-.86l.16-1.86a16.569,16.569,0,0,1-2.16.44V-6.34h1.94V-8.4H26.92V-9.58h1.56v-2.06ZM39.86-1.76a12.221,12.221,0,0,1-4.6-4.1V-7.74h3.9V-9.68h-1.1v-5.98H29.9v1.92h5.98v1.08H30.8v1.84h5.08v1.14H29.52v1.94h3.6v3.18A11.631,11.631,0,0,1,29.4-2.8l.34,1.72c.02.1.1.5.32.5.1,0,.16-.14.24-.3.1-.18.12-.22.7-.48a19.22,19.22,0,0,0,2.12-1.12v.6c0,.48-.26.56-.64.56-.58,0-1.04-.06-1.3-.08L32.04.86c2.52-.04,3.22-.2,3.22-1.7v-2.1A10.314,10.314,0,0,0,38.4-.06ZM29.8-5.1c0-.02,0-.22-.44-.32L27.78-5.8A8.694,8.694,0,0,1,27-2.96l1.74.4a10.084,10.084,0,0,0,.6-2.3C29.52-4.9,29.8-4.96,29.8-5.1Zm-1.68-6.54H24.2a14.8,14.8,0,0,0,1.76-2.04A12.844,12.844,0,0,0,28.12-11.64ZM39.24-6.18c0-.06,0-.18-.28-.32L37.3-7.38a8.024,8.024,0,0,1-1.4,2.06l1.66,1.08A10.153,10.153,0,0,0,38.78-6C39-6.02,39.24-6.04,39.24-6.18Zm-6.32,1.3a10.805,10.805,0,0,0-1.64-2.36l-1.64.98a10.156,10.156,0,0,1,1.5,2.3ZM24.7-2.72a11.786,11.786,0,0,0-.82-3.14l-1.72.62a20.594,20.594,0,0,1,.86,3Z" transform="translate(39.02 16.46)"/></svg>