<svg xmlns="http://www.w3.org/2000/svg" width="141.984" height="31.716" viewBox="0 0 141.984 31.716"><defs><style>.a{fill:#2f2f2f;}</style></defs><path class="a" d="M33.156-7.92v-2.808H31.14V-14.9H19.98v-1.368H28.8V-22.9H19.98v-1.26H33.012v-3.1H19.98v-.684a.38.38,0,0,1,.216-.324c.324-.252.4-.288.4-.5s-.252-.288-.432-.324l-4.248-.54v2.376H2.844v3.1H15.912v1.26H7.056v6.624h8.856V-14.9H4.932V-12.1h10.98v1.368H2.844V-7.92H15.912v1.548H4.932v2.808h10.98v1.08c0,.648-.54.828-1.116.828-.612,0-1.62-.108-2.556-.18l1.8,3.924c5.04-.036,5.94-.972,5.94-3.06V-3.564h7.38v.972h3.78V-7.92Zm-8.064-10.8H19.98v-1.728h5.112Zm-9.18,0H10.728v-1.728h5.184ZM27.36-10.728H19.98V-12.1h7.38Zm0,4.356H19.98V-7.92h7.38ZM54.216-2.16V-19.116H41.184V1.62H45V-5.652h5.328v2.628c0,.612-.288.9-1.008.9a16.892,16.892,0,0,1-2.376-.216l1.512,4.1C51.588,1.764,54.216,1.26,54.216-2.16ZM50.328-13.968H45v-1.98h5.328Zm0,5.148H45V-10.8h5.328ZM70.344-21.348V-24.66H62.136c.252-.324,1.332-2.16,1.44-2.232a6.818,6.818,0,0,1,.648-.216c.216-.072.288-.18.288-.324a.391.391,0,0,0-.252-.36l-4.572-1.332A22.588,22.588,0,0,1,57.24-24.66H50.184l1.332-.648a43.5,43.5,0,0,0-2.952-4L44.64-27.576a29.052,29.052,0,0,1,2.232,2.916H39.2v3.312ZM69.12-19.08c0-.144-.18-.288-.432-.324l-4.464-.324V-3.636c0,.972-.36,1.26-1.62,1.26-.756,0-1.4-.072-2.16-.144l1.908,4.032c4.464-.036,6.048-.468,6.048-4V-18.036c0-.108.252-.4.5-.612A.821.821,0,0,0,69.12-19.08Zm-7.488.54a.443.443,0,0,0-.468-.4l-4.284-.216V-4.644h3.888V-17.568c0-.144.072-.18.576-.54A.558.558,0,0,0,61.632-18.54Zm46.98,2.412a27.724,27.724,0,0,1-6.516-3.456c1.008-1.008,2.016-2.052,2.952-3.132.324-.36.4-.36,1.008-.4.18,0,.468,0,.468-.288,0-.18-.144-.324-.756-.648l-2.736-1.44a31.864,31.864,0,0,1-3.456,3.708,9.263,9.263,0,0,1-.756-.864c.5-.576,2.7-3.132,3.168-3.672.108-.036.72-.108.828-.144.144,0,.288-.036.288-.252,0-.288-.432-.54-.72-.684l-2.808-1.4A25.792,25.792,0,0,1,96.8-25.668a16.378,16.378,0,0,1-1.548-3.42L91.62-27.936a22.972,22.972,0,0,0,4.644,7.7h-9.18a23.56,23.56,0,0,0,4.1-6.552L90-28.224H79.2v3.312h6.48a13.765,13.765,0,0,1-2.2,3.1,18.386,18.386,0,0,0-3.456-2.592l-2.736,2.736a16.241,16.241,0,0,1,3.42,2.556,29.637,29.637,0,0,1-6.66,4.14l3.672,2.664a25.923,25.923,0,0,0,3.852-2.52V-6.12h4.572l-2.16.648a31.572,31.572,0,0,1,1.4,2.88H76.644V.936h29.628V-2.592H97.344c.324-.612.576-1.188.864-1.836.432-.108.828-.18.828-.54,0-.4-.36-.468-.54-.5L95.724-6.12h5.616v-9.252H82.26A29.429,29.429,0,0,0,85.536-18.5v1.692H97.992V-18.36a27.337,27.337,0,0,0,7.272,5.328ZM97.236-9.216H85.68v-3.06H97.236Zm-2.52,3.1A14.62,14.62,0,0,1,93.1-2.592H87.8l1.728-.432a11.421,11.421,0,0,0-1.44-3.1ZM126.5-23.508a16.264,16.264,0,0,1-4.752-4.032.372.372,0,0,0,.144-.288c0-.36-.468-.612-.648-.648l-3.06-.684a16.689,16.689,0,0,1-6.624,7.56l2.7,2.664a5.214,5.214,0,0,0,.612-.648v2.34h2.952v2.124H113.4v3.708h4.428v7.956c-1.728.144-3.564.324-5.328.4l.288,3.744c.036.324.072.972.468.972.252,0,.936-.9,1.152-.972.144-.072,2.34-.432,2.7-.5,5-.864,6.84-1.26,8.028-1.548l.288-3.348a29.824,29.824,0,0,1-3.888.792v-7.488h3.492V-15.12h-3.492v-2.124h2.808v-3.708Zm18.324,20.34c-4.212-2.34-7.38-5.544-8.28-7.38v-3.384h7.02v-3.492h-1.98V-28.188H126.9v3.456h10.764v1.944H128.52v3.312h9.144v2.052H126.216v3.492h6.48v5.724A20.935,20.935,0,0,1,126-5.04l.612,3.1c.036.18.18.9.576.9.18,0,.288-.252.432-.54.18-.324.216-.4,1.26-.864A34.6,34.6,0,0,0,132.7-4.464v1.08c0,.864-.468,1.008-1.152,1.008-1.044,0-1.872-.108-2.34-.144l1.548,4.068c4.536-.072,5.8-.36,5.8-3.06v-3.78A18.565,18.565,0,0,0,142.2-.108ZM126.72-9.18c0-.036,0-.4-.792-.576l-2.844-.684a15.648,15.648,0,0,1-1.4,5.112l3.132.72a18.152,18.152,0,0,0,1.08-4.14C126.216-8.82,126.72-8.928,126.72-9.18ZM123.7-20.952H116.64a26.637,26.637,0,0,0,3.168-3.672A23.12,23.12,0,0,0,123.7-20.952Zm20.016,9.828c0-.108,0-.324-.5-.576l-2.988-1.584a14.442,14.442,0,0,1-2.52,3.708l2.988,1.944a18.276,18.276,0,0,0,2.2-3.168C143.28-10.836,143.712-10.872,143.712-11.124Zm-11.376,2.34a19.449,19.449,0,0,0-2.952-4.248l-2.952,1.764a18.282,18.282,0,0,1,2.7,4.14ZM117.54-4.9a21.215,21.215,0,0,0-1.476-5.652l-3.1,1.116a37.07,37.07,0,0,1,1.548,5.4Z" transform="translate(-2.844 29.628)"/></svg>