<svg xmlns="http://www.w3.org/2000/svg" width="43.956" height="55.728" viewBox="0 0 43.956 55.728"><defs><style>.a{fill:#e0d5c8;}</style></defs><path class="a" d="M51.3-4V0H7.344L33.156-20.3q3.78-3.024,6.21-5.292a33.085,33.085,0,0,0,3.888-4.212,13.112,13.112,0,0,0,2.052-3.78,12.554,12.554,0,0,0,.594-3.888,12.586,12.586,0,0,0-1.242-5.508,14.452,14.452,0,0,0-3.4-4.536A16.375,16.375,0,0,0,36.18-50.6a17.13,17.13,0,0,0-6.264-1.134q-7.128,0-11.232,4.428T14.256-34.992H9.936a39.544,39.544,0,0,1,.756-6.1A16.456,16.456,0,0,1,12.636-45.9a17.6,17.6,0,0,1,7.182-7.236,21,21,0,0,1,10.314-2.592,20.752,20.752,0,0,1,7.83,1.458,20.756,20.756,0,0,1,6.372,4,18.728,18.728,0,0,1,4.32,5.886,16.865,16.865,0,0,1,1.566,7.236,17.989,17.989,0,0,1-.54,4.482,13.85,13.85,0,0,1-1.836,4.1,25.187,25.187,0,0,1-3.348,4.05,61.11,61.11,0,0,1-5.184,4.536L19.116-4Z" transform="translate(-7.344 55.728)"/></svg>