<svg xmlns="http://www.w3.org/2000/svg" width="41.04" height="74.196" viewBox="0 0 41.04 74.196"><defs><style>.a{fill:#e0d5c8;}</style></defs><path class="a" d="M28.3-22.248a23.366,23.366,0,0,0,5.076-.81,14.805,14.805,0,0,0,4-2,14.077,14.077,0,0,0,4.806-5.184,14.43,14.43,0,0,0,1.674-6.912,15.558,15.558,0,0,0-1.08-5.832,13.65,13.65,0,0,0-3.024-4.644,14.658,14.658,0,0,0-4.536-3.078,13.856,13.856,0,0,0-5.616-1.134,15.237,15.237,0,0,0-6.912,1.566,11.973,11.973,0,0,0-4.86,4.266,11.621,11.621,0,0,0-1.566,3.4,40.831,40.831,0,0,0-.918,4.914H10.908A44.026,44.026,0,0,1,11.88-43.2a18.6,18.6,0,0,1,1.728-4.212,15.628,15.628,0,0,1,6.264-6.156,18.878,18.878,0,0,1,9.288-2.268,18.973,18.973,0,0,1,7.452,1.458,19.246,19.246,0,0,1,6.048,4,18.33,18.33,0,0,1,4.05,5.94,18.582,18.582,0,0,1,1.458,7.4q0,11.232-10.8,16.632a18.671,18.671,0,0,1,8.856,6.966A19.083,19.083,0,0,1,49.248-2.7a21.4,21.4,0,0,1-1.62,8.316,20.081,20.081,0,0,1-4.482,6.7A21.131,21.131,0,0,1,36.4,16.74a21.4,21.4,0,0,1-8.316,1.62,21.445,21.445,0,0,1-10.26-2.538,17.765,17.765,0,0,1-7.236-6.858A18.307,18.307,0,0,1,8.856,4.7a24.491,24.491,0,0,1-.648-5.13h4.536a30.148,30.148,0,0,0,.81,4.644A11.768,11.768,0,0,0,15.12,7.56a14.017,14.017,0,0,0,5.562,4.86,16.084,16.084,0,0,0,7.506,1.944,15.714,15.714,0,0,0,6.48-1.35A17.025,17.025,0,0,0,39.96,9.342a18,18,0,0,0,3.618-5.4,16.089,16.089,0,0,0,1.35-6.534,15.317,15.317,0,0,0-2.16-8.1,13.9,13.9,0,0,0-5.94-5.4,18.656,18.656,0,0,0-3.672-1.3,31.991,31.991,0,0,0-4.86-.648Z" transform="translate(-8.208 55.836)"/></svg>