<svg xmlns="http://www.w3.org/2000/svg" width="29.304" height="37.152" viewBox="0 0 29.304 37.152"><defs><style>.a{fill:#e0d5c8;}</style></defs><path class="a" d="M34.2-2.664V0H4.9L22.1-13.536q2.52-2.016,4.14-3.528a22.056,22.056,0,0,0,2.592-2.808,8.741,8.741,0,0,0,1.368-2.52,8.369,8.369,0,0,0,.4-2.592,8.391,8.391,0,0,0-.828-3.672A9.634,9.634,0,0,0,27.5-31.68a10.917,10.917,0,0,0-3.384-2.052,11.42,11.42,0,0,0-4.176-.756,9.708,9.708,0,0,0-7.488,2.952Q9.72-28.584,9.5-23.328H6.624a26.363,26.363,0,0,1,.5-4.068,10.97,10.97,0,0,1,1.3-3.2,11.735,11.735,0,0,1,4.788-4.824,14,14,0,0,1,6.876-1.728,13.835,13.835,0,0,1,5.22.972,13.837,13.837,0,0,1,4.248,2.664,12.485,12.485,0,0,1,2.88,3.924,11.243,11.243,0,0,1,1.044,4.824,11.992,11.992,0,0,1-.36,2.988A9.233,9.233,0,0,1,31.9-19.044a16.791,16.791,0,0,1-2.232,2.7,40.74,40.74,0,0,1-3.456,3.024L12.744-2.664Z" transform="translate(-4.896 37.152)"/></svg>