<svg xmlns="http://www.w3.org/2000/svg" width="493.128" height="35.64" viewBox="0 0 493.128 35.64"><defs><style>.a{fill:#2f2f2f;}</style></defs><path class="a" d="M31.9-16.6v-4.1H25.848v-5.436c.072-.18.144-.252.4-.468.216-.18.324-.288.324-.432,0-.432-.828-.54-1.116-.576l-3.708-.5c.072,2.268.072,4.68.072,7.416h-6.8v-5.04c0-.18.072-.252.468-.54.216-.144.288-.216.288-.36,0-.36-.252-.4-1.08-.5l-3.96-.432V-20.7H4.068v4.1h6.66v8.244h4.284V-16.6h6.8C21.672-8.532,19.62-4.86,13.1-1.3l2.952,2.808c6.984-4.248,9.36-7.848,9.756-18.108Zm35.532,5.184v-4.572h-25.6v4.572Zm40.14-16.452a20.792,20.792,0,0,0-3.42-2.952l-1.836,1.62a18.036,18.036,0,0,1,3.42,2.988Zm-3.42,2.88a21.732,21.732,0,0,0-3.456-2.988l-1.8,1.62a20.991,20.991,0,0,1,3.42,2.988ZM103.1-.576v-4.68a75.849,75.849,0,0,1-11.88,1.008C85.212-4.248,85-5.364,85-7.452V-13.14a78.637,78.637,0,0,0,11.412-3.132c.864-.288,5.148-2.088,5.328-2.088s.864.144.972.144c.324,0,.324-.252.324-.288,0-.288-.5-.792-.54-.828L99.5-22.32A30.19,30.19,0,0,1,93.492-19.4,37.66,37.66,0,0,1,85-17.1v-8.676c0-.072.036-.18.432-.468.144-.144.36-.324.36-.5,0-.216-.36-.468-1.08-.576l-3.96-.576V-5.8c0,3.852,1.332,5.652,11.916,5.652C97.488-.144,101.376-.468,103.1-.576ZM141.84-4.32a71.953,71.953,0,0,0-9.54-8.892,43.484,43.484,0,0,0,4.176-8.064,4.987,4.987,0,0,1,1.944-2.16l-2.772-3.06a3.413,3.413,0,0,1-1.872.792H118.26v4.176h13.716a28.776,28.776,0,0,1-6.12,9.828,31.926,31.926,0,0,1-11.484,7.776L117.54-.648A34.751,34.751,0,0,0,129.852-9.9a56.779,56.779,0,0,1,8.784,9Zm37.944,1.944V-28.224h-13.9v11.052H176V-3.348c0,.9-.468,1.26-1.368,1.26H172.26l1.728,3.78h2.2C178.992,1.692,179.784-.072,179.784-2.376Zm-5.616-4.176v-3.2H169.7v-2.628h3.528v-3.1h-16.92v3.1h3.636c0,1.116,0,1.548-.072,2.628h-4.608v3.2h4.248c-.648,2.412-1.4,3.708-4.644,5.724L158,1.584c2.916-2.448,4.32-4.212,5.076-8.136H166V.936H169.7V-6.552ZM176-23.976h-6.192v-1.44H176Zm0,4h-6.192v-1.548H176ZM166-9.756H163.4c.036-.684.036-1.116.072-2.628H166Zm-2.268-7.416V-28.224h-13.9V1.512h4V-17.172Zm-3.636-6.8h-6.264v-1.44h6.264Zm0,4h-6.264v-1.548h6.264ZM215.64,1.944V-12.2H200.772V1.944h4.14V.72H211.5V1.944ZM211.5-3.168h-6.588V-8.424H211.5ZM199.728-4a28.029,28.029,0,0,0-3.348-4.716,38.485,38.485,0,0,0,2.2-14.868H193.32c.108-.648.4-2.124.648-3.78.036-.18.072-.288.4-.5.216-.144.324-.216.324-.4,0-.324-.432-.432-.72-.468l-3.888-.54a42.909,42.909,0,0,1-.756,5.688h-3.168v4.1h2.34a77.984,77.984,0,0,1-2.7,9.864l3.744.9c.216-.468.324-.864.468-1.26a17.766,17.766,0,0,1,2.016,2.016A20.582,20.582,0,0,1,185.832-.18l3.852,2.052a24.244,24.244,0,0,0,4.86-6.444,20,20,0,0,1,1.836,3.24Zm-5.148-15.48a33.2,33.2,0,0,1-1.152,7.56,23.7,23.7,0,0,0-2.3-1.944c.5-1.872.972-3.744,1.332-5.616Zm23.4,5a33.075,33.075,0,0,0-5.148-10.116L209.376-22.9a35.908,35.908,0,0,1,2.34,4.1c-3.06.18-3.348.18-5.58.252,1.368-3.816,1.908-5.328,2.952-8.424.108-.18.144-.252.54-.4.252-.072.54-.216.54-.5,0-.36-.5-.5-.9-.576l-4.212-.828A100.28,100.28,0,0,1,202.392-18.4c-2.592.072-2.88.072-3.384.072l.648,3.888c.108.612.216.828.432.828.18,0,.756-.576.9-.612s1.8-.144,2.052-.144c3.888-.252,7.92-.648,10.224-.9.5,1.332.684,2.016.828,2.484ZM230.8,4.824a25.843,25.843,0,0,1-3.06-6.984,32.2,32.2,0,0,1-1.224-8.568,31.512,31.512,0,0,1,1.224-8.532,25.545,25.545,0,0,1,3.06-7.02h-1.98a18.946,18.946,0,0,0-5.472,6.876,20.545,20.545,0,0,0-1.98,8.676,20.651,20.651,0,0,0,1.98,8.712,18.769,18.769,0,0,0,5.472,6.84Zm35.46-10.152c-5.112-3.636-9.54-8.244-11.88-14.04h11.3v-3.888H252.5v-4.428c0-.144.108-.252.324-.432.216-.144.324-.252.324-.4,0-.4-.864-.54-1.332-.576l-3.528-.18v6.012h-13.32v3.888h10.872a38.385,38.385,0,0,1-11.2,15.048l3.42,2.412a48.266,48.266,0,0,0,10.224-13.716v8.172h-4.968v3.6h4.968v5.8H252.5v-5.8h5.256V-7.344a30.089,30.089,0,0,0,5.544,4.9Zm-8.568-2.124H252.5v-7.776A31.19,31.19,0,0,0,257.688-7.452Zm46.584-8.676a27.724,27.724,0,0,1-6.516-3.456c1.008-1.008,2.016-2.052,2.952-3.132.324-.36.4-.36,1.008-.4.18,0,.468,0,.468-.288,0-.18-.144-.324-.756-.648l-2.736-1.44a31.86,31.86,0,0,1-3.456,3.708,9.263,9.263,0,0,1-.756-.864c.5-.576,2.7-3.132,3.168-3.672.108-.036.72-.108.828-.144.144,0,.288-.036.288-.252,0-.288-.432-.54-.72-.684l-2.808-1.4a25.8,25.8,0,0,1-2.772,3.132,16.377,16.377,0,0,1-1.548-3.42l-3.636,1.152a22.972,22.972,0,0,0,4.644,7.7h-9.18a23.559,23.559,0,0,0,4.1-6.552l-1.188-1.44h-10.8v3.312h6.48a13.765,13.765,0,0,1-2.2,3.1,18.386,18.386,0,0,0-3.456-2.592l-2.736,2.736a16.241,16.241,0,0,1,3.42,2.556,29.637,29.637,0,0,1-6.66,4.14l3.672,2.664a25.922,25.922,0,0,0,3.852-2.52V-6.12h4.572l-2.16.648a31.57,31.57,0,0,1,1.4,2.88H272.3V.936h29.628V-2.592H293c.324-.612.576-1.188.864-1.836.432-.108.828-.18.828-.54,0-.4-.36-.468-.54-.5l-2.772-.648H297v-9.252H277.92A29.428,29.428,0,0,0,281.2-18.5v1.692h12.456V-18.36a27.337,27.337,0,0,0,7.272,5.328ZM292.9-9.216H281.34v-3.06H292.9Zm-2.52,3.1a14.621,14.621,0,0,1-1.62,3.528h-5.292l1.728-.432a11.421,11.421,0,0,0-1.44-3.1Zm31.788-17.388a16.264,16.264,0,0,1-4.752-4.032.372.372,0,0,0,.144-.288c0-.36-.468-.612-.648-.648l-3.06-.684a16.689,16.689,0,0,1-6.624,7.56l2.7,2.664a5.215,5.215,0,0,0,.612-.648v2.34h2.952v2.124H309.06v3.708h4.428v7.956c-1.728.144-3.564.324-5.328.4l.288,3.744c.036.324.072.972.468.972.252,0,.936-.9,1.152-.972.144-.072,2.34-.432,2.7-.5,5-.864,6.84-1.26,8.028-1.548l.288-3.348a29.825,29.825,0,0,1-3.888.792v-7.488h3.492V-15.12H317.2v-2.124H320v-3.708Zm18.324,20.34c-4.212-2.34-7.38-5.544-8.28-7.38v-3.384h7.02v-3.492h-1.98V-28.188H322.56v3.456h10.764v1.944H324.18v3.312h9.144v2.052H321.876v3.492h6.48v5.724a20.935,20.935,0,0,1-6.7,3.168l.612,3.1c.036.18.18.9.576.9.18,0,.288-.252.432-.54.18-.324.216-.4,1.26-.864a34.6,34.6,0,0,0,3.816-2.016v1.08c0,.864-.468,1.008-1.152,1.008-1.044,0-1.872-.108-2.34-.144l1.548,4.068c4.536-.072,5.8-.36,5.8-3.06v-3.78A18.565,18.565,0,0,0,337.86-.108ZM322.38-9.18c0-.036,0-.4-.792-.576l-2.844-.684a15.648,15.648,0,0,1-1.4,5.112l3.132.72a18.153,18.153,0,0,0,1.08-4.14C321.876-8.82,322.38-8.928,322.38-9.18Zm-3.024-11.772H312.3a26.638,26.638,0,0,0,3.168-3.672A23.118,23.118,0,0,0,319.356-20.952Zm20.016,9.828c0-.108,0-.324-.5-.576l-2.988-1.584a14.442,14.442,0,0,1-2.52,3.708l2.988,1.944a18.277,18.277,0,0,0,2.2-3.168C338.94-10.836,339.372-10.872,339.372-11.124ZM328-8.784a19.45,19.45,0,0,0-2.952-4.248l-2.952,1.764a18.281,18.281,0,0,1,2.7,4.14ZM313.2-4.9a21.215,21.215,0,0,0-1.476-5.652l-3.1,1.116a37.07,37.07,0,0,1,1.548,5.4Zm39.636-5.832A20.032,20.032,0,0,0,350.82-19.4a19.3,19.3,0,0,0-5.436-6.876H343.4a26.685,26.685,0,0,1,3.06,7.02,32.143,32.143,0,0,1,1.224,8.532,31.567,31.567,0,0,1-1.224,8.568,25.844,25.844,0,0,1-3.06,6.984h1.98a19.12,19.12,0,0,0,5.436-6.84A20.236,20.236,0,0,0,352.836-10.728Zm34.416-3.024c0-8.028-5.9-13.1-13.392-13.1a15.527,15.527,0,0,0-15.876,15.264c0,6.444,5.9,9.684,7.2,9.684,1.872,0,3.528-3.024,4.608-5.256,1.188-2.412,3.312-7.452,4.464-16.02a9.21,9.21,0,0,1,6.12,2.412,8.487,8.487,0,0,1,2.592,6.3,11.263,11.263,0,0,1-2.592,7.164,12.125,12.125,0,0,1-6.48,3.852L376.56.252a17.379,17.379,0,0,0,8.388-6.336A13.451,13.451,0,0,0,387.252-13.752Zm-17.28-8.784c-.72,5.616-3.816,15.012-5.688,15.012-.648,0-2.3-1.512-2.3-4.428a11.79,11.79,0,0,1,3.6-7.992A10.628,10.628,0,0,1,369.972-22.536Zm55.98-4.248a16.677,16.677,0,0,0-3.06-2.952l-1.548,1.62a15.212,15.212,0,0,1,2.952,3.06Zm-2.016,4.1a15.4,15.4,0,0,0-2.988-3.2l-1.548,1.62a14.844,14.844,0,0,1,2.988,3.2Zm-5.544-.4-1.62-2.916a57.2,57.2,0,0,1-8.208.576,63.693,63.693,0,0,1-9.072-.648l1.08,3.96c1.692.108,2.736.144,4.9.144,2.736,0,4-.072,5.544-.18-1.368,1.26-2.808,2.556-3.636,3.276l2.484,2.592C412.812-18.792,415.584-21.132,418.392-23.076Zm1.692,21.384-.252-4.32A50.266,50.266,0,0,1,408.708-4.86c-6.12,0-6.372-1.008-6.372-2.016,0-1.3,1.44-2.556,2.016-3.024l-3.132-2.556c-1.08.972-3.492,3.132-3.492,6.372,0,3.636,3.456,5.148,11.592,5.148A87.869,87.869,0,0,0,420.084-1.692ZM461.3-18.144v-2.988h-16.02a10.1,10.1,0,0,0,.936-1.368c.288-.072.864-.252.864-.576,0-.216-.216-.36-.864-.468l-2.124-.4H456.66v1.764h4v-4.68H448.2v-.828a2.477,2.477,0,0,1,.54-.576c.18-.144.252-.252.252-.36,0-.324-.576-.4-.792-.4l-4.464-.324v2.484H431.424v4.716h3.852v-1.8h7.452a19.856,19.856,0,0,1-2.016,2.808H430.7v2.988h7.344a27.086,27.086,0,0,1-2.7,2.484l3.708,1.692A10.335,10.335,0,0,0,440.1-14.9a33.036,33.036,0,0,1,3.276.684,21.249,21.249,0,0,1-8.64,1.62c-.936,0-1.584-.036-2.16-.072l1.548,3.06a32.379,32.379,0,0,0,13.86-3.24,47.672,47.672,0,0,1,8.5,3.636l2.412-2.88a42.917,42.917,0,0,0-7.416-2.916,22.121,22.121,0,0,0,3.24-3.132Zm-12.24,0a13.1,13.1,0,0,1-2.052,1.872c-.828-.18-2.844-.684-4.824-.936.144-.144.72-.828.792-.936ZM461.34-5.58V-8.568h-13.5V-9.18a4.572,4.572,0,0,0,.36-.432c.108-.108.216-.18.216-.324,0-.324-.54-.36-.612-.36l-3.96-.144v1.872h-13.1V-5.58h9.54a23.375,23.375,0,0,1-9.936,4.86L432.9,2.3c2.88-.972,7.992-3.42,10.944-6.228V1.728h4v-5.94A19.115,19.115,0,0,0,458.5,2.016l2.088-3.024A17.19,17.19,0,0,1,451.26-5.58ZM497.2-1.908V-23.256H484.7c0-.648,0-3.816.036-4.032,0-.18.108-.432.54-.684.144-.108.432-.252.432-.54a.4.4,0,0,0-.432-.36l-4.824-.18c.072,1.3.108,1.98.108,5.8H468.288V1.4h4.068V-19.332h7.92c-.864,4.68-2.844,8.028-7.776,11.016L475.7-5.4a23.136,23.136,0,0,0,7.02-8.136,16.91,16.91,0,0,0,7.2,7.848L493.092-8.6c-5.544-2.664-7.452-6.444-8.424-10.728h8.6V-3.348c0,1.044-.612,1.152-1.728,1.152A15.608,15.608,0,0,1,489.1-2.34l1.476,4.14C495.72,1.8,497.2,1.3,497.2-1.908Z" transform="translate(-4.068 30.816)"/></svg>