<svg xmlns="http://www.w3.org/2000/svg" width="27.36" height="49.464" viewBox="0 0 27.36 49.464"><defs><style>.a{fill:#e0d5c8;}</style></defs><path class="a" d="M18.864-14.832a15.577,15.577,0,0,0,3.384-.54A9.87,9.87,0,0,0,24.912-16.7a9.385,9.385,0,0,0,3.2-3.456,9.62,9.62,0,0,0,1.116-4.608,10.372,10.372,0,0,0-.72-3.888,9.1,9.1,0,0,0-2.016-3.1A9.772,9.772,0,0,0,23.472-33.8a9.238,9.238,0,0,0-3.744-.756,10.158,10.158,0,0,0-4.608,1.044,7.982,7.982,0,0,0-3.24,2.844A7.747,7.747,0,0,0,10.836-28.4a27.221,27.221,0,0,0-.612,3.276H7.272A29.351,29.351,0,0,1,7.92-28.8a12.4,12.4,0,0,1,1.152-2.808,10.419,10.419,0,0,1,4.176-4.1,12.585,12.585,0,0,1,6.192-1.512,12.649,12.649,0,0,1,4.968.972,12.83,12.83,0,0,1,4.032,2.664,12.22,12.22,0,0,1,2.7,3.96,12.388,12.388,0,0,1,.972,4.932q0,7.488-7.2,11.088a12.447,12.447,0,0,1,5.9,4.644A12.722,12.722,0,0,1,32.832-1.8a14.269,14.269,0,0,1-1.08,5.544,13.388,13.388,0,0,1-2.988,4.464,14.087,14.087,0,0,1-4.5,2.952,14.268,14.268,0,0,1-5.544,1.08,14.3,14.3,0,0,1-6.84-1.692A11.843,11.843,0,0,1,7.056,5.976,12.2,12.2,0,0,1,5.9,3.132a16.327,16.327,0,0,1-.432-3.42H8.5a20.1,20.1,0,0,0,.54,3.1A7.846,7.846,0,0,0,10.08,5.04a9.345,9.345,0,0,0,3.708,3.24,10.722,10.722,0,0,0,5,1.3,10.476,10.476,0,0,0,4.32-.9A11.35,11.35,0,0,0,26.64,6.228a12,12,0,0,0,2.412-3.6,10.726,10.726,0,0,0,.9-4.356,10.211,10.211,0,0,0-1.44-5.4,9.267,9.267,0,0,0-3.96-3.6,12.437,12.437,0,0,0-2.448-.864,21.327,21.327,0,0,0-3.24-.432Z" transform="translate(-5.472 37.224)"/></svg>