<svg xmlns="http://www.w3.org/2000/svg" width="325.872" height="31.428" viewBox="0 0 325.872 31.428"><defs><style>.a{fill:#2f2f2f;}</style></defs><path class="a" d="M33.876-5.328c-5.112-3.636-9.54-8.244-11.88-14.04H33.3v-3.888H20.124v-4.428c0-.144.108-.252.324-.432.216-.144.324-.252.324-.4,0-.4-.864-.54-1.332-.576l-3.528-.18v6.012H2.592v3.888H13.464A38.385,38.385,0,0,1,2.268-4.32l3.42,2.412A48.266,48.266,0,0,0,15.912-15.624v8.172H10.944v3.6h4.968v5.8h4.212v-5.8H25.38V-7.344a30.09,30.09,0,0,0,5.544,4.9ZM25.308-7.452H20.124v-7.776A31.191,31.191,0,0,0,25.308-7.452Zm46.584-8.676a27.724,27.724,0,0,1-6.516-3.456c1.008-1.008,2.016-2.052,2.952-3.132.324-.36.4-.36,1.008-.4.18,0,.468,0,.468-.288,0-.18-.144-.324-.756-.648l-2.736-1.44a31.863,31.863,0,0,1-3.456,3.708,9.263,9.263,0,0,1-.756-.864c.5-.576,2.7-3.132,3.168-3.672.108-.036.72-.108.828-.144.144,0,.288-.036.288-.252,0-.288-.432-.54-.72-.684l-2.808-1.4a25.792,25.792,0,0,1-2.772,3.132,16.378,16.378,0,0,1-1.548-3.42L54.9-27.936a22.972,22.972,0,0,0,4.644,7.7h-9.18a23.56,23.56,0,0,0,4.1-6.552l-1.188-1.44H42.48v3.312h6.48a13.765,13.765,0,0,1-2.2,3.1,18.386,18.386,0,0,0-3.456-2.592l-2.736,2.736a16.241,16.241,0,0,1,3.42,2.556,29.636,29.636,0,0,1-6.66,4.14L41-12.312a25.924,25.924,0,0,0,3.852-2.52V-6.12h4.572l-2.16.648a31.571,31.571,0,0,1,1.4,2.88H39.924V.936H69.552V-2.592H60.624c.324-.612.576-1.188.864-1.836.432-.108.828-.18.828-.54,0-.4-.36-.468-.54-.5L59-6.12H64.62v-9.252H45.54A29.429,29.429,0,0,0,48.816-18.5v1.692H61.272V-18.36a27.337,27.337,0,0,0,7.272,5.328ZM60.516-9.216H48.96v-3.06H60.516ZM58-6.12a14.62,14.62,0,0,1-1.62,3.528H51.084l1.728-.432a11.421,11.421,0,0,0-1.44-3.1ZM89.784-23.508a16.264,16.264,0,0,1-4.752-4.032.372.372,0,0,0,.144-.288c0-.36-.468-.612-.648-.648l-3.06-.684a16.689,16.689,0,0,1-6.624,7.56l2.7,2.664a5.214,5.214,0,0,0,.612-.648v2.34h2.952v2.124H76.68v3.708h4.428v7.956c-1.728.144-3.564.324-5.328.4L76.068.684c.036.324.072.972.468.972.252,0,.936-.9,1.152-.972.144-.072,2.34-.432,2.7-.5,5-.864,6.84-1.26,8.028-1.548L88.7-4.716a29.824,29.824,0,0,1-3.888.792v-7.488h3.492V-15.12H84.816v-2.124h2.808v-3.708Zm18.324,20.34c-4.212-2.34-7.38-5.544-8.28-7.38v-3.384h7.02v-3.492h-1.98V-28.188H90.18v3.456h10.764v1.944H91.8v3.312h9.144v2.052H89.5v3.492h6.48v5.724a20.935,20.935,0,0,1-6.7,3.168l.612,3.1c.036.18.18.9.576.9.18,0,.288-.252.432-.54.18-.324.216-.4,1.26-.864a34.6,34.6,0,0,0,3.816-2.016v1.08c0,.864-.468,1.008-1.152,1.008-1.044,0-1.872-.108-2.34-.144l1.548,4.068c4.536-.072,5.8-.36,5.8-3.06v-3.78A18.565,18.565,0,0,0,105.48-.108ZM90-9.18c0-.036,0-.4-.792-.576l-2.844-.684a15.648,15.648,0,0,1-1.4,5.112l3.132.72a18.152,18.152,0,0,0,1.08-4.14C89.5-8.82,90-8.928,90-9.18ZM86.976-20.952H79.92a26.637,26.637,0,0,0,3.168-3.672A23.12,23.12,0,0,0,86.976-20.952Zm20.016,9.828c0-.108,0-.324-.5-.576L103.5-13.284a14.442,14.442,0,0,1-2.52,3.708l2.988,1.944a18.275,18.275,0,0,0,2.2-3.168C106.56-10.836,106.992-10.872,106.992-11.124ZM95.616-8.784a19.45,19.45,0,0,0-2.952-4.248l-2.952,1.764a18.282,18.282,0,0,1,2.7,4.14ZM80.82-4.9a21.215,21.215,0,0,0-1.476-5.652l-3.1,1.116a37.07,37.07,0,0,1,1.548,5.4Zm60.3-3.888L137.592-11.7c-3.528,6.912-8.352,8.172-10.368,8.172a3.471,3.471,0,0,1-3.168-1.512c-.684-1.224-.684-4.716-.684-6.372a136.066,136.066,0,0,1,1.008-14.4c.576-.468,1.008-.756,1.008-1.044,0-.216-.324-.468-1.188-.576l-4.788-.684c.108,2.412-.18,13.1-.18,15.3,0,8.64.576,10.476,2.268,11.952A8.008,8.008,0,0,0,126.756.972a13.013,13.013,0,0,0,7.164-2.3A26.86,26.86,0,0,0,141.12-8.784Zm36.612-14.8V-27.9c-7.02,2.052-17.784,3.276-26.244,3.348l.72,4.248a137.654,137.654,0,0,1,13.716-1.548c-1.692,1.584-6.984,6.552-6.984,12.708,0,8.028,9,9.9,11.916,10.512l1.26-4.536A10.685,10.685,0,0,1,165.852-4.9a6.168,6.168,0,0,1-2.664-5.04c0-3.6,2.988-7.6,6.156-10.152A13.933,13.933,0,0,1,177.732-23.58Zm39.24-4.356c0-.324-.288-.4-.72-.432l-3.924-.324V-3.24c0,.936-.576,1.224-1.692,1.224a21.234,21.234,0,0,1-2.556-.216L209.844,1.8c4.932-.036,6.48-.972,6.48-3.888V-27c0-.108.252-.36.468-.612C216.9-27.72,216.972-27.792,216.972-27.936Zm-7.92,2.412c0-.324-.324-.4-.684-.432l-3.924-.324V-6.012h3.888v-18.54c0-.144.18-.324.36-.468S209.052-25.308,209.052-25.524Zm-7.092,8.5v-3.6h-5.148V-25.2a18.02,18.02,0,0,0,3.456-.828,9.759,9.759,0,0,0,1.152.252c.144,0,.288,0,.288-.216,0-.288-.36-.684-.468-.792l-2.484-2.7C194.508-27.4,188.748-27.4,186.48-27.4l1.548,3.276c1.584-.072,3.06-.216,4.608-.432v3.924h-6.372v3.6h5.364a22.088,22.088,0,0,1-2.376,5.76,25.837,25.837,0,0,1-4.068,5.22L188.82-4.14a28.072,28.072,0,0,0,3.816-5.76V1.656h4.176v-12.2a24.4,24.4,0,0,0,3.06,2.772l1.944-2.772a26.323,26.323,0,0,1-5-5.4v-1.08ZM251.28-1.692V-28.476h-25.6c.324,3.78.468,7.56.468,11.34,0,9-.5,13.14-2.88,17.208L227.016,1.4c1.944-4.032,2.592-6.588,2.952-11.916h6.66V-.252H240.7v-10.26h6.48v7.128c0,1.008-.468,1.3-1.944,1.3a8.832,8.832,0,0,1-1.656-.144l1.98,3.924C251.244,1.3,251.28.216,251.28-1.692Zm-4.1-19.8H240.7v-3.492h6.48Zm0,7.6H240.7v-4.212h6.48Zm-10.548-7.6h-6.48c0-1.332,0-2.2-.036-3.492h6.516Zm0,7.6h-6.516c0-.72.036-1.08.072-4.212h6.444Zm53.316,11.52V-28.224h-13.9v11.052h10.116V-3.348c0,.9-.468,1.26-1.368,1.26H282.42l1.728,3.78h2.2C289.152,1.692,289.944-.072,289.944-2.376Zm-5.616-4.176v-3.2h-4.464v-2.628h3.528v-3.1h-16.92v3.1h3.636c0,1.116,0,1.548-.072,2.628h-4.608v3.2h4.248c-.648,2.412-1.4,3.708-4.644,5.724l3.132,2.412c2.916-2.448,4.32-4.212,5.076-8.136h2.916V.936h3.708V-6.552Zm1.836-17.424h-6.192v-1.44h6.192Zm0,4h-6.192v-1.548h6.192ZM276.156-9.756h-2.592c.036-.684.036-1.116.072-2.628h2.52Zm-2.268-7.416V-28.224h-13.9V1.512h4V-17.172Zm-3.636-6.8h-6.264v-1.44h6.264Zm0,4h-6.264v-1.548h6.264ZM325.8,1.944V-12.2H310.932V1.944h4.14V.72h6.588V1.944Zm-4.14-5.112h-6.588V-8.424h6.588ZM309.888-4a28.027,28.027,0,0,0-3.348-4.716,38.485,38.485,0,0,0,2.2-14.868H303.48c.108-.648.4-2.124.648-3.78.036-.18.072-.288.4-.5.216-.144.324-.216.324-.4,0-.324-.432-.432-.72-.468l-3.888-.54a42.909,42.909,0,0,1-.756,5.688h-3.168v4.1h2.34a77.985,77.985,0,0,1-2.7,9.864l3.744.9c.216-.468.324-.864.468-1.26a17.767,17.767,0,0,1,2.016,2.016A20.583,20.583,0,0,1,295.992-.18l3.852,2.052a24.245,24.245,0,0,0,4.86-6.444,20,20,0,0,1,1.836,3.24Zm-5.148-15.48a33.2,33.2,0,0,1-1.152,7.56,23.7,23.7,0,0,0-2.3-1.944c.5-1.872.972-3.744,1.332-5.616Zm23.4,5a33.075,33.075,0,0,0-5.148-10.116L319.536-22.9a35.908,35.908,0,0,1,2.34,4.1c-3.06.18-3.348.18-5.58.252,1.368-3.816,1.908-5.328,2.952-8.424.108-.18.144-.252.54-.4.252-.072.54-.216.54-.5,0-.36-.5-.5-.9-.576l-4.212-.828A100.28,100.28,0,0,1,312.552-18.4c-2.592.072-2.88.072-3.384.072l.648,3.888c.108.612.216.828.432.828.18,0,.756-.576.9-.612s1.8-.144,2.052-.144c3.888-.252,7.92-.648,10.224-.9.5,1.332.684,2.016.828,2.484Z" transform="translate(-2.268 29.484)"/></svg>