<svg xmlns="http://www.w3.org/2000/svg" width="212.88" height="52.4" viewBox="0 0 212.88 52.4"><defs><style>.a{fill:#2f2f2f;}</style></defs><path class="a" d="M-90.78-9.22V-11.5h-3.36v-3.02c.04-.1.08-.14.22-.26.12-.1.18-.16.18-.24,0-.24-.46-.3-.62-.32l-2.06-.28c.04,1.26.04,2.6.04,4.12h-3.78v-2.8c0-.1.04-.14.26-.3.12-.08.16-.12.16-.2,0-.2-.14-.22-.6-.28l-2.2-.24v3.82h-3.7v2.28h3.7v4.58h2.38V-9.22h3.78c-.08,4.48-1.22,6.52-4.84,8.5L-99.58.84c3.88-2.36,5.2-4.36,5.42-10.06Zm19.74,2.88V-8.88H-85.26v2.54Zm22.3-9.14a11.551,11.551,0,0,0-1.9-1.64l-1.02.9a10.02,10.02,0,0,1,1.9,1.66Zm-1.9,1.6a12.073,12.073,0,0,0-1.92-1.66l-1,.9a11.661,11.661,0,0,1,1.9,1.66ZM-51.22-.32v-2.6a42.138,42.138,0,0,1-6.6.56c-3.34,0-3.46-.62-3.46-1.78V-7.3a43.687,43.687,0,0,0,6.34-1.74c.48-.16,2.86-1.16,2.96-1.16s.48.08.54.08c.18,0,.18-.14.18-.16,0-.16-.28-.44-.3-.46l-1.66-1.66a16.772,16.772,0,0,1-3.34,1.62A20.922,20.922,0,0,1-61.28-9.5v-4.82c0-.04.02-.1.24-.26.08-.08.2-.18.2-.28,0-.12-.2-.26-.6-.32l-2.2-.32V-3.22c0,2.14.74,3.14,6.62,3.14C-54.34-.08-52.18-.26-51.22-.32ZM-29.7-2.4A39.974,39.974,0,0,0-35-7.34a24.158,24.158,0,0,0,2.32-4.48,2.771,2.771,0,0,1,1.08-1.2l-1.54-1.7a1.9,1.9,0,0,1-1.04.44H-42.8v2.32h7.62a15.987,15.987,0,0,1-3.4,5.46,17.736,17.736,0,0,1-6.38,4.32L-43.2-.36A19.306,19.306,0,0,0-36.36-5.5a31.544,31.544,0,0,1,4.88,5ZM-8.62-1.32V-15.68h-7.72v6.14h5.62v7.68c0,.5-.26.7-.76.7H-12.8l.96,2.1h1.22C-9.06.94-8.62-.04-8.62-1.32Zm-3.12-2.32V-5.42h-2.48V-6.88h1.96V-8.6h-9.4v1.72h2.02c0,.62,0,.86-.04,1.46h-2.56v1.78h2.36c-.36,1.34-.78,2.06-2.58,3.18L-20.72.88A6.787,6.787,0,0,0-17.9-3.64h1.62V.52h2.06V-3.64Zm1.02-9.68h-3.44v-.8h3.44Zm0,2.22h-3.44v-.86h3.44Zm-5.56,5.68h-1.44c.02-.38.02-.62.04-1.46h1.4Zm-1.26-4.12v-6.14h-7.72V.84h2.22V-9.54Zm-2.02-3.78h-3.48v-.8h3.48Zm0,2.22h-3.48v-.86h3.48ZM11.3,1.08V-6.78H3.04V1.08h2.3V.4H9v.68ZM9-1.76H5.34V-4.68H9ZM2.46-2.22A15.571,15.571,0,0,0,.6-4.84,21.38,21.38,0,0,0,1.82-13.1H-1.1c.06-.36.22-1.18.36-2.1.02-.1.04-.16.22-.28.12-.08.18-.12.18-.22,0-.18-.24-.24-.4-.26l-2.16-.3a23.839,23.839,0,0,1-.42,3.16H-5.08v2.28h1.3a43.325,43.325,0,0,1-1.5,5.48l2.08.5c.12-.26.18-.48.26-.7A9.87,9.87,0,0,1-1.82-4.42,11.435,11.435,0,0,1-5.26-.1l2.14,1.14A13.469,13.469,0,0,0-.42-2.54,11.11,11.11,0,0,1,.6-.74ZM-.4-10.82a18.445,18.445,0,0,1-.64,4.2A13.166,13.166,0,0,0-2.32-7.7c.28-1.04.54-2.08.74-3.12Zm13,2.78a18.375,18.375,0,0,0-2.86-5.62l-1.92.94a19.949,19.949,0,0,1,1.3,2.28c-1.7.1-1.86.1-3.1.14.76-2.12,1.06-2.96,1.64-4.68.06-.1.08-.14.3-.22.14-.04.3-.12.3-.28,0-.2-.28-.28-.5-.32l-2.34-.46a55.714,55.714,0,0,1-1.48,6.04c-1.44.04-1.6.04-1.88.04l.36,2.16c.06.34.12.46.24.46.1,0,.42-.32.5-.34s1-.08,1.14-.08c2.16-.14,4.4-.36,5.68-.5.28.74.38,1.12.46,1.38ZM19.72,2.68a14.357,14.357,0,0,1-1.7-3.88,17.887,17.887,0,0,1-.68-4.76,17.507,17.507,0,0,1,.68-4.74,14.191,14.191,0,0,1,1.7-3.9h-1.1a10.526,10.526,0,0,0-3.04,3.82,11.414,11.414,0,0,0-1.1,4.82,11.472,11.472,0,0,0,1.1,4.84,10.428,10.428,0,0,0,3.04,3.8Zm19.7-5.64a18.2,18.2,0,0,1-6.6-7.8H39.1v-2.16H31.78v-2.46c0-.08.06-.14.18-.24.12-.08.18-.14.18-.22,0-.22-.48-.3-.74-.32l-1.96-.1v3.34h-7.4v2.16h6.04A21.325,21.325,0,0,1,21.86-2.4l1.9,1.34a26.815,26.815,0,0,0,5.68-7.62v4.54H26.68v2h2.76V1.08h2.34V-2.14H34.7V-4.08a16.716,16.716,0,0,0,3.08,2.72ZM34.66-4.14H31.78V-8.46A17.328,17.328,0,0,0,34.66-4.14ZM60.54-8.96a15.4,15.4,0,0,1-3.62-1.92c.56-.56,1.12-1.14,1.64-1.74.18-.2.22-.2.56-.22.1,0,.26,0,.26-.16,0-.1-.08-.18-.42-.36l-1.52-.8a17.7,17.7,0,0,1-1.92,2.06,5.147,5.147,0,0,1-.42-.48c.28-.32,1.5-1.74,1.76-2.04.06-.02.4-.06.46-.08.08,0,.16-.02.16-.14,0-.16-.24-.3-.4-.38L55.52-16a14.329,14.329,0,0,1-1.54,1.74,9.1,9.1,0,0,1-.86-1.9l-2.02.64a12.762,12.762,0,0,0,2.58,4.28h-5.1a13.089,13.089,0,0,0,2.28-3.64l-.66-.8h-6v1.84h3.6a7.647,7.647,0,0,1-1.22,1.72,10.215,10.215,0,0,0-1.92-1.44l-1.52,1.52a9.023,9.023,0,0,1,1.9,1.42,16.465,16.465,0,0,1-3.7,2.3l2.04,1.48a14.4,14.4,0,0,0,2.14-1.4V-3.4h2.54l-1.2.36a17.54,17.54,0,0,1,.78,1.6H42.78V.52H59.24V-1.44H54.28c.18-.34.32-.66.48-1.02.24-.06.46-.1.46-.3,0-.22-.2-.26-.3-.28L53.38-3.4H56.5V-8.54H45.9a16.35,16.35,0,0,0,1.82-1.74v.94h6.92v-.86a15.187,15.187,0,0,0,4.04,2.96ZM54.22-5.12H47.8v-1.7h6.42ZM52.82-3.4a8.122,8.122,0,0,1-.9,1.96H48.98l.96-.24a6.345,6.345,0,0,0-.8-1.72Zm17.66-9.66a9.035,9.035,0,0,1-2.64-2.24.207.207,0,0,0,.08-.16c0-.2-.26-.34-.36-.36l-1.7-.38A9.272,9.272,0,0,1,62.18-12l1.5,1.48a2.9,2.9,0,0,0,.34-.36v1.3h1.64V-8.4H63.2v2.06h2.46v4.42c-.96.08-1.98.18-2.96.22L62.86.38c.02.18.04.54.26.54.14,0,.52-.5.64-.54.08-.04,1.3-.24,1.5-.28,2.78-.48,3.8-.7,4.46-.86l.16-1.86a16.569,16.569,0,0,1-2.16.44V-6.34h1.94V-8.4H67.72V-9.58h1.56v-2.06ZM80.66-1.76a12.221,12.221,0,0,1-4.6-4.1V-7.74h3.9V-9.68h-1.1v-5.98H70.7v1.92h5.98v1.08H71.6v1.84h5.08v1.14H70.32v1.94h3.6v3.18A11.631,11.631,0,0,1,70.2-2.8l.34,1.72c.02.1.1.5.32.5.1,0,.16-.14.24-.3.1-.18.12-.22.7-.48a19.219,19.219,0,0,0,2.12-1.12v.6c0,.48-.26.56-.64.56-.58,0-1.04-.06-1.3-.08L72.84.86c2.52-.04,3.22-.2,3.22-1.7v-2.1A10.314,10.314,0,0,0,79.2-.06ZM70.6-5.1c0-.02,0-.22-.44-.32L68.58-5.8a8.694,8.694,0,0,1-.78,2.84l1.74.4a10.084,10.084,0,0,0,.6-2.3C70.32-4.9,70.6-4.96,70.6-5.1Zm-1.68-6.54H65a14.8,14.8,0,0,0,1.76-2.04A12.844,12.844,0,0,0,68.92-11.64ZM80.04-6.18c0-.06,0-.18-.28-.32L78.1-7.38a8.023,8.023,0,0,1-1.4,2.06l1.66,1.08A10.153,10.153,0,0,0,79.58-6C79.8-6.02,80.04-6.04,80.04-6.18Zm-6.32,1.3a10.806,10.806,0,0,0-1.64-2.36l-1.64.98a10.156,10.156,0,0,1,1.5,2.3ZM65.5-2.72a11.786,11.786,0,0,0-.82-3.14l-1.72.62a20.594,20.594,0,0,1,.86,3ZM87.52-5.96a11.129,11.129,0,0,0-1.12-4.82,10.724,10.724,0,0,0-3.02-3.82h-1.1a14.824,14.824,0,0,1,1.7,3.9,17.857,17.857,0,0,1,.68,4.74,17.538,17.538,0,0,1-.68,4.76,14.357,14.357,0,0,1-1.7,3.88h1.1a10.622,10.622,0,0,0,3.02-3.8A11.242,11.242,0,0,0,87.52-5.96Zm19.12-1.68a7.066,7.066,0,0,0-7.44-7.28,8.626,8.626,0,0,0-8.82,8.48,5.691,5.691,0,0,0,4,5.38c1.04,0,1.96-1.68,2.56-2.92a28.4,28.4,0,0,0,2.48-8.9,5.117,5.117,0,0,1,3.4,1.34,4.715,4.715,0,0,1,1.44,3.5,6.257,6.257,0,0,1-1.44,3.98,6.736,6.736,0,0,1-3.6,2.14L100.7.14a9.655,9.655,0,0,0,4.66-3.52A7.473,7.473,0,0,0,106.64-7.64Zm-9.6-4.88c-.4,3.12-2.12,8.34-3.16,8.34-.36,0-1.28-.84-1.28-2.46a6.55,6.55,0,0,1,2-4.44A5.9,5.9,0,0,1,97.04-12.52ZM-11.16,19.12a9.265,9.265,0,0,0-1.7-1.64l-.86.9a8.451,8.451,0,0,1,1.64,1.7Zm-1.12,2.28a8.557,8.557,0,0,0-1.66-1.78l-.86.9a8.247,8.247,0,0,1,1.66,1.78Zm-3.08-.22-.9-1.62a31.78,31.78,0,0,1-4.56.32,35.385,35.385,0,0,1-5.04-.36l.6,2.2c.94.06,1.52.08,2.72.08,1.52,0,2.22-.04,3.08-.1-.76.7-1.56,1.42-2.02,1.82l1.38,1.44C-18.46,23.56-16.92,22.26-15.36,21.18Zm.94,11.88-.14-2.4a27.926,27.926,0,0,1-6.18.64c-3.4,0-3.54-.56-3.54-1.12,0-.72.8-1.42,1.12-1.68l-1.74-1.42a4.911,4.911,0,0,0-1.94,3.54c0,2.02,1.92,2.86,6.44,2.86A48.816,48.816,0,0,0-14.42,33.06Zm22.9-9.14V22.26H-.42A5.614,5.614,0,0,0,.1,21.5c.16-.04.48-.14.48-.32,0-.12-.12-.2-.48-.26l-1.18-.22H5.9v.98H8.12v-2.6H1.2v-.46a1.377,1.377,0,0,1,.3-.32c.1-.08.14-.14.14-.2,0-.18-.32-.22-.44-.22l-2.48-.18v1.38H-8.12V21.7h2.14v-1h4.14a11.032,11.032,0,0,1-1.12,1.56H-8.52v1.66h4.08a15.047,15.047,0,0,1-1.5,1.38l2.06.94a5.742,5.742,0,0,0,.58-.52,18.353,18.353,0,0,1,1.82.38,11.805,11.805,0,0,1-4.8.9c-.52,0-.88-.02-1.2-.04l.86,1.7a17.989,17.989,0,0,0,7.7-1.8A26.485,26.485,0,0,1,5.8,28.88l1.34-1.6a23.842,23.842,0,0,0-4.12-1.62,12.289,12.289,0,0,0,1.8-1.74Zm-6.8,0A7.28,7.28,0,0,1,.54,24.96c-.46-.1-1.58-.38-2.68-.52.08-.08.4-.46.44-.52ZM8.5,30.9V29.24H1V28.9a2.54,2.54,0,0,0,.2-.24c.06-.06.12-.1.12-.18,0-.18-.3-.2-.34-.2l-2.2-.08v1.04H-8.5V30.9h5.3a12.986,12.986,0,0,1-5.52,2.7l1.42,1.68a18.922,18.922,0,0,0,6.08-3.46v3.14H1v-3.3a10.619,10.619,0,0,0,5.92,3.46l1.16-1.68A9.55,9.55,0,0,1,2.9,30.9Zm19.92,2.04V21.08H21.48c0-.36,0-2.12.02-2.24,0-.1.06-.24.3-.38.08-.06.24-.14.24-.3a.224.224,0,0,0-.24-.2l-2.68-.1c.04.72.06,1.1.06,3.22H12.36v13.7h2.26V23.26h4.4a8.26,8.26,0,0,1-4.32,6.12L16.48,31a12.853,12.853,0,0,0,3.9-4.52,9.394,9.394,0,0,0,4,4.36l1.76-1.62a7.927,7.927,0,0,1-4.68-5.96h4.78v8.88c0,.58-.34.64-.96.64a8.671,8.671,0,0,1-1.36-.08l.82,2.3C27.6,35,28.42,34.72,28.42,32.94Z" transform="translate(106.24 17.12)"/></svg>