<svg xmlns="http://www.w3.org/2000/svg" width="181.04" height="17.46" viewBox="0 0 181.04 17.46"><defs><style>.a{fill:#2f2f2f;}</style></defs><path class="a" d="M-72.78-2.96a18.2,18.2,0,0,1-6.6-7.8h6.28v-2.16h-7.32v-2.46c0-.08.06-.14.18-.24.12-.08.18-.14.18-.22,0-.22-.48-.3-.74-.32l-1.96-.1v3.34h-7.4v2.16h6.04A21.325,21.325,0,0,1-90.34-2.4l1.9,1.34a26.815,26.815,0,0,0,5.68-7.62v4.54h-2.76v2h2.76V1.08h2.34V-2.14h2.92V-4.08a16.716,16.716,0,0,0,3.08,2.72Zm-4.76-1.18h-2.88V-8.46A17.328,17.328,0,0,0-77.54-4.14Zm25.88-4.82a15.4,15.4,0,0,1-3.62-1.92c.56-.56,1.12-1.14,1.64-1.74.18-.2.22-.2.56-.22.1,0,.26,0,.26-.16,0-.1-.08-.18-.42-.36l-1.52-.8a17.7,17.7,0,0,1-1.92,2.06,5.147,5.147,0,0,1-.42-.48c.28-.32,1.5-1.74,1.76-2.04.06-.02.4-.06.46-.08.08,0,.16-.02.16-.14,0-.16-.24-.3-.4-.38L-56.68-16a14.329,14.329,0,0,1-1.54,1.74,9.1,9.1,0,0,1-.86-1.9l-2.02.64a12.762,12.762,0,0,0,2.58,4.28h-5.1a13.089,13.089,0,0,0,2.28-3.64l-.66-.8h-6v1.84h3.6a7.648,7.648,0,0,1-1.22,1.72,10.215,10.215,0,0,0-1.92-1.44l-1.52,1.52a9.023,9.023,0,0,1,1.9,1.42,16.465,16.465,0,0,1-3.7,2.3l2.04,1.48a14.4,14.4,0,0,0,2.14-1.4V-3.4h2.54l-1.2.36a17.539,17.539,0,0,1,.78,1.6h-4.86V.52h16.46V-1.44h-4.96c.18-.34.32-.66.48-1.02.24-.06.46-.1.46-.3,0-.22-.2-.26-.3-.28l-1.54-.36h3.12V-8.54H-66.3a16.35,16.35,0,0,0,1.82-1.74v.94h6.92v-.86a15.187,15.187,0,0,0,4.04,2.96Zm-6.32,3.84H-64.4v-1.7h6.42Zm-1.4,1.72a8.122,8.122,0,0,1-.9,1.96h-2.94l.96-.24a6.345,6.345,0,0,0-.8-1.72Zm17.66-9.66a9.035,9.035,0,0,1-2.64-2.24.207.207,0,0,0,.08-.16c0-.2-.26-.34-.36-.36l-1.7-.38A9.272,9.272,0,0,1-50.02-12l1.5,1.48a2.9,2.9,0,0,0,.34-.36v1.3h1.64V-8.4H-49v2.06h2.46v4.42c-.96.08-1.98.18-2.96.22l.16,2.08c.02.18.04.54.26.54.14,0,.52-.5.64-.54.08-.04,1.3-.24,1.5-.28,2.78-.48,3.8-.7,4.46-.86l.16-1.86a16.569,16.569,0,0,1-2.16.44V-6.34h1.94V-8.4h-1.94V-9.58h1.56v-2.06Zm10.18,11.3a12.221,12.221,0,0,1-4.6-4.1V-7.74h3.9V-9.68h-1.1v-5.98H-41.5v1.92h5.98v1.08H-40.6v1.84h5.08v1.14h-6.36v1.94h3.6v3.18A11.631,11.631,0,0,1-42-2.8l.34,1.72c.02.1.1.5.32.5.1,0,.16-.14.24-.3.1-.18.12-.22.7-.48a19.22,19.22,0,0,0,2.12-1.12v.6c0,.48-.26.56-.64.56-.58,0-1.04-.06-1.3-.08l.86,2.26c2.52-.04,3.22-.2,3.22-1.7v-2.1A10.314,10.314,0,0,0-33-.06ZM-41.6-5.1c0-.02,0-.22-.44-.32l-1.58-.38a8.693,8.693,0,0,1-.78,2.84l1.74.4a10.085,10.085,0,0,0,.6-2.3C-41.88-4.9-41.6-4.96-41.6-5.1Zm-1.68-6.54H-47.2a14.8,14.8,0,0,0,1.76-2.04A12.844,12.844,0,0,0-43.28-11.64Zm11.12,5.46c0-.06,0-.18-.28-.32l-1.66-.88a8.024,8.024,0,0,1-1.4,2.06l1.66,1.08A10.153,10.153,0,0,0-32.62-6C-32.4-6.02-32.16-6.04-32.16-6.18Zm-6.32,1.3a10.805,10.805,0,0,0-1.64-2.36l-1.64.98a10.156,10.156,0,0,1,1.5,2.3ZM-46.7-2.72a11.786,11.786,0,0,0-.82-3.14l-1.72.62a20.6,20.6,0,0,1,.86,3Zm33.5-2.16L-15.16-6.5c-1.96,3.84-4.64,4.54-5.76,4.54a1.929,1.929,0,0,1-1.76-.84,10.531,10.531,0,0,1-.38-3.54,75.593,75.593,0,0,1,.56-8c.32-.26.56-.42.56-.58,0-.12-.18-.26-.66-.32l-2.66-.38c.06,1.34-.1,7.28-.1,8.5,0,4.8.32,5.82,1.26,6.64A4.449,4.449,0,0,0-21.18.54,7.229,7.229,0,0,0-17.2-.74,14.922,14.922,0,0,0-13.2-4.88ZM7.14-13.1v-2.4A60.55,60.55,0,0,1-7.44-13.64l.4,2.36a76.475,76.475,0,0,1,7.62-.86C-.36-11.26-3.3-8.5-3.3-5.08c0,4.46,5,5.5,6.62,5.84l.7-2.52A5.936,5.936,0,0,1,.54-2.72,3.427,3.427,0,0,1-.94-5.52c0-2,1.66-4.22,3.42-5.64A7.741,7.741,0,0,1,7.14-13.1Zm21.8-2.42c0-.18-.16-.22-.4-.24l-2.18-.18V-1.8c0,.52-.32.68-.94.68A11.8,11.8,0,0,1,24-1.24L24.98,1c2.74-.02,3.6-.54,3.6-2.16V-15c0-.06.14-.2.26-.34C28.9-15.4,28.94-15.44,28.94-15.52Zm-4.4,1.34c0-.18-.18-.22-.38-.24l-2.18-.18V-3.34h2.16v-10.3c0-.08.1-.18.2-.26S24.54-14.06,24.54-14.18ZM20.6-9.46v-2H17.74V-14a10.011,10.011,0,0,0,1.92-.46,5.422,5.422,0,0,0,.64.14c.08,0,.16,0,.16-.12,0-.16-.2-.38-.26-.44l-1.38-1.5A16.5,16.5,0,0,1,12-15.22l.86,1.82c.88-.04,1.7-.12,2.56-.24v2.18H11.88v2h2.98a12.271,12.271,0,0,1-1.32,3.2,14.354,14.354,0,0,1-2.26,2.9L13.3-2.3a15.6,15.6,0,0,0,2.12-3.2V.92h2.32V-5.86a13.553,13.553,0,0,0,1.7,1.54l1.08-1.54a14.624,14.624,0,0,1-2.78-3v-.6ZM48-.94V-15.82H33.78c.18,2.1.26,4.2.26,6.3,0,5-.28,7.3-1.6,9.56l2.08.74a15.243,15.243,0,0,0,1.64-6.62h3.7v5.7h2.26v-5.7h3.6v3.96c0,.56-.26.72-1.08.72a4.906,4.906,0,0,1-.92-.08L44.82.94C47.98.72,48,.12,48-.94Zm-2.28-11h-3.6v-1.94h3.6Zm0,4.22h-3.6v-2.34h3.6Zm-5.86-4.22h-3.6c0-.74,0-1.22-.02-1.94h3.62Zm0,4.22H36.24c0-.4.02-.6.04-2.34h3.58Zm29.62,6.4V-15.68H61.76v6.14h5.62v7.68c0,.5-.26.7-.76.7H65.3l.96,2.1h1.22C69.04.94,69.48-.04,69.48-1.32ZM66.36-3.64V-5.42H63.88V-6.88h1.96V-8.6h-9.4v1.72h2.02c0,.62,0,.86-.04,1.46H55.86v1.78h2.36c-.36,1.34-.78,2.06-2.58,3.18L57.38.88A6.787,6.787,0,0,0,60.2-3.64h1.62V.52h2.06V-3.64Zm1.02-9.68H63.94v-.8h3.44Zm0,2.22H63.94v-.86h3.44ZM61.82-5.42H60.38c.02-.38.02-.62.04-1.46h1.4ZM60.56-9.54v-6.14H52.84V.84h2.22V-9.54Zm-2.02-3.78H55.06v-.8h3.48Zm0,2.22H55.06v-.86h3.48ZM89.4,1.08V-6.78H81.14V1.08h2.3V.4H87.1v.68ZM87.1-1.76H83.44V-4.68H87.1Zm-6.54-.46A15.571,15.571,0,0,0,78.7-4.84a21.38,21.38,0,0,0,1.22-8.26H77c.06-.36.22-1.18.36-2.1.02-.1.04-.16.22-.28.12-.08.18-.12.18-.22,0-.18-.24-.24-.4-.26l-2.16-.3a23.838,23.838,0,0,1-.42,3.16H73.02v2.28h1.3a43.326,43.326,0,0,1-1.5,5.48l2.08.5c.12-.26.18-.48.26-.7a9.87,9.87,0,0,1,1.12,1.12A11.435,11.435,0,0,1,72.84-.1l2.14,1.14a13.469,13.469,0,0,0,2.7-3.58A11.111,11.111,0,0,1,78.7-.74Zm-2.86-8.6a18.445,18.445,0,0,1-.64,4.2A13.166,13.166,0,0,0,75.78-7.7c.28-1.04.54-2.08.74-3.12Zm13,2.78a18.375,18.375,0,0,0-2.86-5.62l-1.92.94a19.949,19.949,0,0,1,1.3,2.28c-1.7.1-1.86.1-3.1.14.76-2.12,1.06-2.96,1.64-4.68.06-.1.08-.14.3-.22.14-.04.3-.12.3-.28,0-.2-.28-.28-.5-.32l-2.34-.46a55.715,55.715,0,0,1-1.48,6.04c-1.44.04-1.6.04-1.88.04l.36,2.16c.06.34.12.46.24.46.1,0,.42-.32.5-.34s1-.08,1.14-.08c2.16-.14,4.4-.36,5.68-.5.28.74.38,1.12.46,1.38Z" transform="translate(90.34 16.38)"/></svg>