<svg xmlns="http://www.w3.org/2000/svg" viewBox="0 0 81.37 103.91"><defs><style>.cls-1{fill:#ba9973;}</style></defs><g id="レイヤー_2" data-name="レイヤー 2"><g id="レイヤー_1-2" data-name="レイヤー 1"><path class="cls-1" d="M42.87,94.48h0l-35-.18A7.84,7.84,0,0,1,0,86.42L.41,7.79A7.76,7.76,0,0,1,2.74,2.27,7.73,7.73,0,0,1,8.24,0h0l35,.18a7.85,7.85,0,0,1,7.79,7.88l-.29,55h-1.4l.29-55a6.44,6.44,0,0,0-6.4-6.47l-35-.18h0A6.44,6.44,0,0,0,1.81,7.8L1.4,86.43A6.44,6.44,0,0,0,7.8,92.9l35,.18h0a6.44,6.44,0,0,0,6.43-6.4h1.4a7.82,7.82,0,0,1-7.83,7.79Z"/><path class="cls-1" d="M46.8,86.77h0L3.9,86.55a.71.71,0,0,1-.5-.21.7.7,0,0,1-.2-.5l.41-78a.7.7,0,0,1,.7-.7h0l42.91.22a.7.7,0,0,1,.69.71l-.27,52.54h-1.4l.27-51.84L5,8.57,4.6,85.15l41.51.22,0-8.37h1.4l0,9.07a.68.68,0,0,1-.7.69Z"/><path class="cls-1" d="M32.36,5.27h0l-9.61,0a.7.7,0,1,1,0-1.4h0l9.61.05a.7.7,0,0,1,0,1.4Z"/><circle class="cls-1" cx="19.92" cy="4.5" r="0.8"/><path class="cls-1" d="M65.75,103.91a.66.66,0,0,1-.47-.19,9.49,9.49,0,0,0-2.59-1.3,18.67,18.67,0,0,1-9.55-7.17,30.13,30.13,0,0,1-4.38-10.59c-1.12-4.41-2.18-8.58-7.49-13.94-8.48-8.55-9.19-14.38-8.86-17.1a5.35,5.35,0,0,1,2.33-4.11c1-.6,2.34.53,7.73,5.65,4.68,4.45,11.69,11.12,14.78,11.12h.2a.7.7,0,1,1,.15,1.39c-3.4.35-9-4.77-16.09-11.48-2.5-2.37-5.31-5-6.18-5.39a4.12,4.12,0,0,0-1.53,3c-.24,2,.1,7.52,8.46,16,5.59,5.63,6.74,10.18,7.86,14.57a29,29,0,0,0,4.17,10.15,17.48,17.48,0,0,0,8.92,6.66,9.77,9.77,0,0,1,3,1.58.69.69,0,0,1,0,1A.68.68,0,0,1,65.75,103.91Z"/><path class="cls-1" d="M80.67,100.9a.72.72,0,0,1-.57-.29C76.39,95.44,70,77.13,64.93,62.42c-2.67-7.7-5.43-15.65-6.09-16.4-1.88-2.06-8.92-8.48-9-8.54a.7.7,0,0,1,.94-1c.29.27,7.16,6.53,9.09,8.63.79.88,2.73,6.39,6.37,16.89,4.81,13.85,11.39,32.83,15,37.83a.7.7,0,0,1-.16,1A.69.69,0,0,1,80.67,100.9Z"/><path class="cls-1" d="M42.72,36.48h0L8.93,36.31a.7.7,0,0,1-.69-.71l0-8.44a.71.71,0,0,1,.7-.69H9l33.78.17a.71.71,0,0,1,.7.71l0,8.44a.68.68,0,0,1-.7.69ZM9.64,34.91,42,35.08l0-7L9.68,27.87Z"/><path class="cls-1" d="M42.66,47.86h0L8.88,47.69a.71.71,0,0,1-.5-.21.7.7,0,0,1-.2-.5l0-8.44a.71.71,0,0,1,.7-.69h0L42.71,38a.71.71,0,0,1,.7.71l0,8.44a.68.68,0,0,1-.7.69ZM9.58,46.29,42,46.46l0-7L9.62,39.25Z"/><path class="cls-1" d="M33,74.67h0L8.73,74.54a.69.69,0,0,1-.69-.7l0-8.44a.69.69,0,0,1,.21-.49.71.71,0,0,1,.49-.21h0l24.2.13a.7.7,0,0,1,.7.7l0,8.44a.71.71,0,0,1-.21.5A.7.7,0,0,1,33,74.67ZM9.44,73.15l22.81.12,0-7L9.48,66.11Z"/><rect class="cls-1" x="9.01" y="19.75" width="15.75" height="4.47" transform="translate(0.12 -0.09) rotate(0.3)"/><rect class="cls-1" x="8.81" y="57.79" width="15.75" height="4.47" transform="translate(0.31 -0.09) rotate(0.3)"/></g></g></svg>