<svg xmlns="http://www.w3.org/2000/svg" width="339.812" height="71.893" viewBox="0 0 339.812 71.893"><defs><style>.a{fill:#e0d5c8;}.b{fill:#2f2f2f;}</style></defs><g transform="translate(-551.832 -6418.571)"><path class="a" d="M-48.57-37.62V-23.1h13.2v2.4h-13.2V0h-2.58V-40.02h16.14v2.4ZM-25.71-2.28h7.32V0h-9.72V-26.58h2.4ZM-.57-26.82a14.149,14.149,0,0,1,5.52,1.08A14.746,14.746,0,0,1,9.48-22.8a13.607,13.607,0,0,1,3.06,4.35,12.893,12.893,0,0,1,1.11,5.31A12.807,12.807,0,0,1,12.51-7.8,14.156,14.156,0,0,1,9.45-3.42,14.285,14.285,0,0,1,4.92-.48,14.371,14.371,0,0,1-.63.6,13.669,13.669,0,0,1-6.09-.51a14.533,14.533,0,0,1-4.5-3,14.1,14.1,0,0,1-3.03-4.41,13.246,13.246,0,0,1-1.11-5.4,12.131,12.131,0,0,1,1.14-5.16A14.121,14.121,0,0,1-10.5-22.8,14.846,14.846,0,0,1-6-25.74,13.779,13.779,0,0,1-.57-26.82Zm0,2.22a11.369,11.369,0,0,0-4.47.9,12.2,12.2,0,0,0-3.75,2.46,11.683,11.683,0,0,0-2.55,3.6,10.294,10.294,0,0,0-.93,4.32,11.2,11.2,0,0,0,.93,4.53A12.262,12.262,0,0,0-8.85-5.07,11.628,11.628,0,0,0-5.16-2.55a11.2,11.2,0,0,0,4.53.93,11.671,11.671,0,0,0,4.59-.9A12.2,12.2,0,0,0,7.71-4.98a11.481,11.481,0,0,0,2.55-3.66,10.988,10.988,0,0,0,.93-4.5,10.637,10.637,0,0,0-.93-4.41,11.942,11.942,0,0,0-2.55-3.66A11.93,11.93,0,0,0,3.96-23.7,11.518,11.518,0,0,0-.57-24.6ZM26.49-5.16l9.54-23.46,9,23.46,7.98-21.42h2.7L45.03,1.68l-9-23.76L26.19,1.68,16.83-26.58h2.64Z" transform="translate(721 6458.591)"/><path class="b" d="M42.328-32.736a20.383,20.383,0,0,0-3.74-3.608L36.7-34.364a18.592,18.592,0,0,1,3.608,3.74ZM39.864-27.72a18.825,18.825,0,0,0-3.652-3.916l-1.892,1.98a18.143,18.143,0,0,1,3.652,3.916ZM33.088-28.2l-1.98-3.564a69.915,69.915,0,0,1-10.032.7,77.848,77.848,0,0,1-11.088-.792l1.32,4.84c2.068.132,3.344.176,5.984.176,3.344,0,4.884-.088,6.776-.22-1.672,1.54-3.432,3.124-4.444,4l3.036,3.168C26.268-22.968,29.656-25.828,33.088-28.2ZM35.156-2.068l-.308-5.28a61.437,61.437,0,0,1-13.6,1.408c-7.48,0-7.788-1.232-7.788-2.464,0-1.584,1.76-3.124,2.464-3.7L12.1-15.224C10.78-14.036,7.832-11.4,7.832-7.436c0,4.444,4.224,6.292,14.168,6.292A107.4,107.4,0,0,0,35.156-2.068ZM84.788-34.144c0-.4-.352-.484-.88-.528l-4.8-.4V-3.96c0,1.144-.7,1.5-2.068,1.5a25.953,25.953,0,0,1-3.124-.264L76.076,2.2C82.1,2.156,84,1.012,84-2.552V-33c0-.132.308-.44.572-.748C84.7-33.88,84.788-33.968,84.788-34.144ZM75.108-31.2c0-.4-.4-.484-.836-.528l-4.8-.4V-7.348h4.752v-22.66c0-.176.22-.4.44-.572S75.108-30.932,75.108-31.2ZM66.44-20.812v-4.4H60.148V-30.8a22.025,22.025,0,0,0,4.224-1.012,11.928,11.928,0,0,0,1.408.308c.176,0,.352,0,.352-.264,0-.352-.44-.836-.572-.968l-3.036-3.3c-5.192,2.552-12.232,2.552-15,2.552l1.892,4c1.936-.088,3.74-.264,5.632-.528v4.8H47.256v4.4h6.556a27,27,0,0,1-2.9,7.04,31.578,31.578,0,0,1-4.972,6.38L50.38-5.06a34.31,34.31,0,0,0,4.664-7.04V2.024h5.1V-12.892A29.817,29.817,0,0,0,63.888-9.5l2.376-3.388a32.172,32.172,0,0,1-6.116-6.6v-1.32Zm59.4,18.744V-34.8H94.556c.4,4.62.572,9.24.572,13.86,0,11-.616,16.06-3.52,21.032l4.576,1.628c2.376-4.928,3.168-8.052,3.608-14.564h8.14V-.308H112.9v-12.54h7.92v8.712c0,1.232-.572,1.584-2.376,1.584a10.794,10.794,0,0,1-2.024-.176l2.42,4.8C125.8,1.584,125.84.264,125.84-2.068Zm-5.016-24.2H112.9v-4.268h7.92Zm0,9.284H112.9v-5.148h7.92Zm-12.892-9.284h-7.92c0-1.628,0-2.684-.044-4.268h7.964Zm0,9.284H99.968c0-.88.044-1.32.088-5.148h7.876ZM167.9-5.148a36.579,36.579,0,0,0-11.132-4.972c-.132-2.6-.132-3.036-.22-5.236a94.58,94.58,0,0,0,9.416-1.1v-4.8c-4.048.748-5.676,1.012-9.5,1.5v-5.192c2.2-.044,6.292-.132,11.176-.132l.176-4.664c-4.136.308-5.632.4-11.264.66.044-2.288.088-3.124.088-3.168a1.43,1.43,0,0,1,.572-.792c.484-.4.572-.44.572-.616,0-.308-.264-.44-1.1-.528l-5.368-.528.132,5.852c-3.916.088-6.292.176-11.308.176l.088,4.752c3.784-.44,6.292-.616,11.352-.836l.088,5.5a30.2,30.2,0,0,1-3.036.088c-.748,0-1.672,0-1.672-.616,0-.572.66-1.056,1.452-1.628L145.9-23.584c-1.716,1.232-4.708,3.3-4.708,5.456,0,1.716,2.024,3.168,6.072,3.168,1.276,0,3.7-.088,4.488-.132l.088,4.224-1.232-.044c-9.9-.352-10.34,4.752-10.34,6.028,0,3.564,3.784,5.72,9.856,5.72,5.632,0,6.688-1.76,6.864-6.248a33.168,33.168,0,0,1,8.052,4.356Zm-16.016-1.54c.044,2.464-.132,3.256-2.992,3.256-.528,0-3.344,0-3.344-1.5,0-1.144,1.408-1.892,4.268-1.892A11.39,11.39,0,0,1,151.888-6.688ZM215.6-21.208a20.3,20.3,0,0,0-3.652-3.344L210.1-22.44a20.37,20.37,0,0,1,3.652,3.344Zm-3.564,4a19.185,19.185,0,0,0-3.652-3.388l-1.8,2.112a19.535,19.535,0,0,1,3.608,3.388Zm1.452-11.484v-5.1c-8.316,2.552-21.956,3.608-31.46,3.52l.748,4.928c4.4-.616,10.868-1.144,16.764-1.628a32.807,32.807,0,0,0-5.808,6.688,16,16,0,0,0-2.992,8.756A11.037,11.037,0,0,0,194-3.608C197.56-.044,202.488.88,204.82,1.276l1.716-5.368a13.857,13.857,0,0,1-7.744-2.244,6.983,6.983,0,0,1-3.168-5.72c0-3.344,2.112-7.3,5.368-10.56C206.58-28.248,211.42-28.556,213.488-28.688Zm46.42,11.88c0-9.812-7.216-16.016-16.368-16.016a18.977,18.977,0,0,0-19.4,18.656c0,7.876,7.216,11.836,8.8,11.836,2.288,0,4.312-3.7,5.632-6.424,1.452-2.948,4.048-9.108,5.456-19.58a11.256,11.256,0,0,1,7.48,2.948,10.373,10.373,0,0,1,3.168,7.7A13.766,13.766,0,0,1,251.5-8.932a14.82,14.82,0,0,1-7.92,4.708L246.84.308a21.241,21.241,0,0,0,10.252-7.744A16.44,16.44,0,0,0,259.908-16.808Zm-21.12-10.736c-.88,6.864-4.664,18.348-6.952,18.348-.792,0-2.816-1.848-2.816-5.412a14.41,14.41,0,0,1,4.4-9.768A12.99,12.99,0,0,1,238.788-27.544Zm66.352-.308V-32.3H293.656v-1.452c0-.176.132-.264.572-.572a.68.68,0,0,0,.352-.528c0-.352-.4-.528-1.848-.616l-4.752-.264V-32.3h-9.5a29.264,29.264,0,0,0-6.952-3.828l-2.508,4.312a40.2,40.2,0,0,1,6.908,3.74l2.244-3.52v3.74h7.92a48.228,48.228,0,0,1-2.86,5.236c-1.98,0-2.992,0-4.664-.088l.132,4.268c0,.7.044,1.5.484,1.5.264,0,.352-.088.66-.528.352-.484.66-.528,2.288-.616,10.164-.7,11.924-.836,16.94-1.54a16.444,16.444,0,0,1,1.276,2.464l4.136-2.112a29.089,29.089,0,0,0-5.676-8.316l-4.18,2.112a22.367,22.367,0,0,1,1.936,2.244,77.893,77.893,0,0,1-8.228.572,47.221,47.221,0,0,0,3.168-5.192Zm.44,23.32-4.048-1.936c-.176,1.012-.572,2.64-1.408,2.64-.4,0-.528-.264-.528-.616V-14.608c0-.176.264-.352.4-.44a.693.693,0,0,0,.352-.572c0-.44-1.012-.44-1.716-.484l-3.872-.176V-1.144a2.764,2.764,0,0,0,2.816,2.552h3.476C302.808,1.408,304.744,1.056,305.58-4.532ZM293.172-15.4c0-.44-1.1-.528-1.716-.528l-4.048-.132V.308h5.016v-14.7c0-.176.22-.308.308-.4C293.04-15,293.172-15.136,293.172-15.4ZM275.7-22.132a30.323,30.323,0,0,0-7.48-3.652L265.98-21.56a38.524,38.524,0,0,1,7.392,3.652Zm10.824,6.952c0-.4-1.408-.572-1.936-.616l-4.136-.44v5.764c0,4.18-2.728,7.348-6.424,9.548l4.312,3.388c4.048-2.464,6.2-5.984,6.644-9.064a48.744,48.744,0,0,0,.44-6.952,1.018,1.018,0,0,1,.44-1.012C286.44-14.96,286.528-15,286.528-15.18Zm-9.944,2.244-4-2.376a47.967,47.967,0,0,1-6.468,13.948l3.74,2.288a3.564,3.564,0,0,0,1.408.572c.22,0,.352-.088.352-.528,0-.176-.044-.836-.044-.968.044-.176.44-1.1.66-1.628C273.152-3.7,275.22-8.624,276.584-12.936Zm71.06,8.052L346.28-9.812c-1.8,2.552-3.476,3.344-4.708,3.344-1.188,0-1.628-.484-1.628-2.9a61.1,61.1,0,0,1,.44-6.2c.572-5.9.616-6.38.616-7.172a5.013,5.013,0,0,0-4.84-5.28c-2.948,0-7.128,3.916-8.844,5.5l.968-1.936-2.816-2.684c.132-3.344.22-5.456.44-5.808.132-.132.792-.7.792-.836,0-.4-.4-.44-1.1-.528l-4.356-.484-.176,9.46a35.889,35.889,0,0,1-7.92,2.112L315.3-18.48c2.2-.7,3.388-1.144,5.72-1.98l-.088,3.872a50.347,50.347,0,0,1-8.36,10.12l4.576,3.08c1.54-2.42,2.288-3.476,3.652-5.368l-.132,10.164,4.928-.264c-.264-5.148-.264-9.724-.308-15.84,3.08-3.784,6.468-8.008,8.976-8.008,1.5,0,1.716,1.8,1.716,2.948,0,1.848-.792,10.032-.792,11.7,0,1.1,0,7.216,5.1,7.216C343.2-.836,345.62-2.728,347.644-4.884Z" transform="translate(544 6488)"/></g></svg>