<svg xmlns="http://www.w3.org/2000/svg" width="300.04" height="86.92" viewBox="0 0 300.04 86.92"><defs><style>.a{fill:#2f2f2f;}</style></defs><path class="a" d="M24.6,6.16l-1.62-1.9a2.017,2.017,0,0,1-.88.38H17.62c.2-.38.44-.78.56-1.08.28-.08.5-.12.5-.28,0-.2-.4-.38-.52-.42L16.1,2.08a17.418,17.418,0,0,1-5.52,7.68l1.98,1.36a27.672,27.672,0,0,0,3.8-4.46h5.12a15.943,15.943,0,0,1-2.64,5.26,17.434,17.434,0,0,1-6.26,5.22l2.18,1.5a19.432,19.432,0,0,0,5.42-4.74,23.491,23.491,0,0,0,3.56-6.78A2.083,2.083,0,0,1,24.6,6.16ZM45.02,17.28V4.12H31.16V17.2h2.38v-.78h9.1v.86Zm-2.38-3.12h-9.1V6.38h9.1Zm22.92-2.5V9.12H51.34v2.54ZM88.48,2.14A7.271,7.271,0,0,0,86.96.46l-.96.8a9.784,9.784,0,0,1,1.52,1.68ZM87.22,4.5a10.994,10.994,0,0,0-1.48-1.86l-.98.78a10.617,10.617,0,0,1,1.48,1.86Zm-.8,11.04A36.573,36.573,0,0,0,81.1,10.6a25.787,25.787,0,0,0,2.3-4.44A2.492,2.492,0,0,1,84.5,4.9L82.84,3.16a1.56,1.56,0,0,1-.94.56H73.28V6.04h7.6A17,17,0,0,1,71.1,15.8l1.78,1.84a19.387,19.387,0,0,0,6.88-5.16,29.062,29.062,0,0,1,4.84,5ZM108.88,4.62a8.355,8.355,0,0,0-1.86-1.8l-1.04.88a8.34,8.34,0,0,1,1.86,1.8Zm-2.28,1.3a8.282,8.282,0,0,0-1.8-1.76l-1.1.88a8.282,8.282,0,0,1,1.8,1.76Zm-.1,5.74a24.032,24.032,0,0,0-6.44-4.16l-.92,1.4V3.72c0-.1.5-.42.5-.54,0-.24-.44-.32-.48-.32l-2.48-.44V18.26h2.46V9.72a19.9,19.9,0,0,1,5.78,3.94Zm20.06,3.98a18.37,18.37,0,0,0-3.44-1.82,19.817,19.817,0,0,1-.26-2.78,1.832,1.832,0,0,1,.76-1.6l-2.08-1.12a3.022,3.022,0,0,0-.86,2.04c0,.42.24,2.46.28,2.92a10.093,10.093,0,0,0-1.56-.12c-2.76,0-3.54,1.76-3.54,2.84a2.264,2.264,0,0,0,.74,1.7,4.753,4.753,0,0,0,3.26.94c2.62,0,3.22-.84,3.4-2.44a11.009,11.009,0,0,1,1.98,1.32Zm-5.5-.36c0,.72.02,1.56-1.6,1.56-1.1,0-1.66-.46-1.66-.9,0-.4.48-.96,1.52-.96A6.716,6.716,0,0,1,121.06,15.28Zm6.06-8a9.884,9.884,0,0,0-4.46-1.84l-.9,1.72a14.155,14.155,0,0,1,4.38,1.82Zm-5.96-1.04V4c-.52.18-1.12.38-2.3.68.08-.26.46-1.54.48-1.56.12-.12.46-.24.46-.44,0-.22-.38-.32-.48-.34l-2.18-.48a19.083,19.083,0,0,1-.72,3.3,26.625,26.625,0,0,1-3.4.26l.3,2.08c.94-.06,1.5-.12,2.42-.24a34.306,34.306,0,0,1-3.42,7.28l2.14.92a48.777,48.777,0,0,0,3.7-8.58C119.86,6.58,120.48,6.42,121.16,6.24ZM148.64,9.5h-6.82a7.431,7.431,0,0,0,.42-.78h5.26V2.08h-9.1V8.72h1.42a11.8,11.8,0,0,1-3.58,4.4l1.48,1.48a10.091,10.091,0,0,0,.78-.74v1.98c0,.84.38,1.32,1.48,1.32h2.78a2.017,2.017,0,0,0,.9-.12l.68,1.98c3-.04,3.54-.6,3.82-2.64C148.3,15.3,148.54,12.62,148.64,9.5Zm-3.2-4.84h-4.98V3.8h4.98Zm0,2.34h-4.98V6.04h4.98Zm.98,4.42c-.1,2.36-.34,4.16-.34,4.2-.16,1.02-.56,1.08-.94,1.08a7.152,7.152,0,0,1-.9-.08,3.958,3.958,0,0,0,.6-1.86l-1.74-.62c-.04.38-.12,1.08-.74,1.08h-1.32c-.5,0-.54-.14-.56-.54.7-.24,1.84-.62,3.04-1.14.24-.1.26-.12.38-.12.08,0,.48.06.56.06.18,0,.22-.12.22-.18,0-.14-.28-.38-.32-.4l-1.28-1.02a12.467,12.467,0,0,1-2.6,1.18V12.6c0-.08.04-.1.2-.26.14-.12.2-.18.2-.3,0-.18-.24-.26-.48-.34.04-.04.18-.24.22-.28Zm-8.6-.26V8.84c-.58.26-1.06.44-1.88.74V7.16h1.88V4.94h-1.88V2.72c0-.1.02-.14.24-.36a.419.419,0,0,0,.14-.28c0-.18-.24-.24-.68-.26l-1.92-.08v3.2h-2.1V7.16h2.1v3.12c-.9.26-1.4.4-2.26.6l.06,2.18c0,.34.02.74.32.74.14,0,.16-.04.42-.36a.825.825,0,0,1,.26-.2c.18-.06.8-.34,1.2-.54v3.36c0,.62-.42.66-.64.66-.2,0-.44,0-1.08-.04l.9,2.34c2.28,0,3.04-.28,3.04-1.52V11.9C136.86,11.54,137.24,11.38,137.82,11.16Zm29.44-6.6V2.34H153.82V4.56Zm1.58,11.14a36.916,36.916,0,0,0-4.24-5.56l-2.02,1.54a26.618,26.618,0,0,1,4.12,5.64Zm.1-6.6V6.88H152.16V9.1h7.16v6.54c0,.68-.38.8-.88.8a17.341,17.341,0,0,1-1.76-.12l.98,2.56c2.3-.08,4-.14,4-1.78v-8Zm-10.82,2.22c0-.18-.16-.32-.74-.48l-1.86-.54a29.632,29.632,0,0,1-3.6,5.84l2.02,1.24a37.141,37.141,0,0,0,3.5-5.6c.06-.1.1-.1.48-.26C158.02,11.48,158.12,11.44,158.12,11.32Zm32.1,6.36a9.666,9.666,0,0,1-3.88-2.96,17.068,17.068,0,0,0,2.56-7l-.8-.7h-6.14c0-1.28,0-1.58-.04-2.7h7.56V2.16h-9.7c.08,2.6.1,5.98.1,6.48a17.682,17.682,0,0,1-1.1,6.74,7.791,7.791,0,0,1-1.58,2.46l1.9,1.2a4.692,4.692,0,0,0,.92-1.06l1.26,1.1A12.65,12.65,0,0,0,185,16.42a12,12,0,0,0,3.1,2.76Zm-3.86-8.42a11.287,11.287,0,0,1-1.16,3.3,11.492,11.492,0,0,1-.64-3.3Zm-2.48,5.32A8.87,8.87,0,0,1,180.56,17c.82-1.98,1.22-3.8,1.4-7.74h.58A12.686,12.686,0,0,0,183.88,14.58Zm-4.24-3.36a10.066,10.066,0,0,1-2.66-4.08v-.2h2.12V4.64h-2.12V2.58c0-.08.06-.14.22-.26.1-.06.22-.14.22-.24,0-.22-.34-.22-.54-.24l-2.22-.14V4.64H172.3v2.3h2.36a18.158,18.158,0,0,1-3.08,7.26l2,1.08a8.769,8.769,0,0,0,1.08-1.8V19h2.32V11.46a5.9,5.9,0,0,0,.94,1.14ZM209.3,8.36a9.226,9.226,0,0,0-1.66-1.52l-.84.96a9.259,9.259,0,0,1,1.66,1.52Zm-1.62,1.82a8.72,8.72,0,0,0-1.66-1.54l-.82.96a8.879,8.879,0,0,1,1.64,1.54Zm.66-5.22V2.64c-3.78,1.16-9.98,1.64-14.3,1.6l.34,2.24c2-.28,4.94-.52,7.62-.74a14.912,14.912,0,0,0-2.64,3.04A7.275,7.275,0,0,0,198,12.76a5.017,5.017,0,0,0,1.48,3.6,8.975,8.975,0,0,0,4.92,2.22l.78-2.44a6.3,6.3,0,0,1-3.52-1.02,3.174,3.174,0,0,1-1.44-2.6,7.424,7.424,0,0,1,2.44-4.8A8.15,8.15,0,0,1,208.34,4.96ZM230,6.32V4.64h-5.98c.02-.22.04-.4.04-.62,1.22-.02,2.44-.12,3.3-.2.28-.02.72-.08,1.04-.1.12.02.42.08.48.08.08,0,.18,0,.18-.16a.623.623,0,0,0-.14-.36l-1.1-1.58a16.032,16.032,0,0,1-2.52.56,14.89,14.89,0,0,1-2.52.16l-.9-.14a8,8,0,0,1,.18,1.68,4.538,4.538,0,0,1-1.54,3.62l1.5,1.06h-6.28V16.1h1.76a10.679,10.679,0,0,1-3.58,1.12L215.24,19A18.081,18.081,0,0,0,220,17.2a1.768,1.768,0,0,0,.48.1c.16,0,.3-.04.3-.18a.445.445,0,0,0-.16-.32l-.7-.7h3.34l-.54.68a14.368,14.368,0,0,0,5.38,2.18l1.3-1.88a14.558,14.558,0,0,1-3.46-.98h1.74V8.64h-5.36a5.3,5.3,0,0,0,1.4-2.32h1.32V8.2h2.1V6.32Zm-4.5,6.38h-7.58V12h7.58Zm0-1.96h-7.58v-.68h7.58Zm0,3.94h-7.58v-.74h7.58Zm-4.18-8.26V4.76h-5.04c.02-.4.02-.52.02-.74,1.76-.02,3.28-.16,3.48-.18.12,0,.52-.04.64-.06.1.02.44.1.5.1a.147.147,0,0,0,.16-.16.722.722,0,0,0-.14-.38l-.9-1.52a23.2,23.2,0,0,1-5.38.56l-.56-.06a13.742,13.742,0,0,1,.16,2.06,7.228,7.228,0,0,1-.46,2.78,4.108,4.108,0,0,1-.9,1.32l1.84,1.02a5.43,5.43,0,0,0,1.38-3.08h1.34V8.2h2.08V6.42ZM250.22,17V2.22h-7.24v6.8h5.08v7.02c0,.58-.2.78-.66.78a11.333,11.333,0,0,1-1.2-.08l1.04,2.32h1C249.84,19.06,250.22,18.44,250.22,17ZM248.06,4.84h-2.9V3.78h2.9Zm0,2.62h-2.9V6.36h2.9Zm-6.72,1.56V2.22H234V19h2.22V9.02Zm-2.16-4.18h-2.96V3.78h2.96Zm0,2.62h-2.96V6.36h2.96Zm6.66,8.52V10.26h-7.56v6.66h2.22v-.94Zm-2.22-1.78H240.5V12.04h3.12ZM270.5,8.36a9.227,9.227,0,0,0-1.66-1.52L268,7.8a9.259,9.259,0,0,1,1.66,1.52Zm-1.62,1.82a8.72,8.72,0,0,0-1.66-1.54l-.82.96a8.88,8.88,0,0,1,1.64,1.54Zm.66-5.22V2.64c-3.78,1.16-9.98,1.64-14.3,1.6l.34,2.24c2-.28,4.94-.52,7.62-.74a14.912,14.912,0,0,0-2.64,3.04,7.275,7.275,0,0,0-1.36,3.98,5.017,5.017,0,0,0,1.48,3.6,8.975,8.975,0,0,0,4.92,2.22l.78-2.44a6.3,6.3,0,0,1-3.52-1.02,3.174,3.174,0,0,1-1.44-2.6,7.424,7.424,0,0,1,2.44-4.8A8.15,8.15,0,0,1,269.54,4.96Zm19.52,2.76-.36-2a22.8,22.8,0,0,1-3.64,1.8c-.32-.7-.4-.9-.66-1.52a13.174,13.174,0,0,0,3.16-1.36l-.44-1.94a19.3,19.3,0,0,1-3.42,1.54,17.436,17.436,0,0,1-.6-1.84c0-.06.02-.12.18-.28.1-.1.16-.16.16-.26,0-.24-.5-.18-.66-.16l-2.28.26c.32.94.54,1.58,1,2.82a24.664,24.664,0,0,1-4.66.4l.62,1.92a22.961,22.961,0,0,0,4.76-.54c.2.46.42.96.72,1.64a26.513,26.513,0,0,1-6.3.6l.7,2.02a25.794,25.794,0,0,0,6.42-.88c.38.74.56,1.1,1.04,1.96a15.277,15.277,0,0,0-2.86-.32c-2.26,0-4.42.74-4.42,3.48,0,2.64,2.48,3.78,6.08,3.78a20.133,20.133,0,0,0,3.16-.24l.2-2.36a14.59,14.59,0,0,1-4,.54c-.68,0-3.28,0-3.28-1.7,0-1.08,1.1-1.64,2.42-1.64a11.261,11.261,0,0,1,5.24,1.52l1.22-1.52a21.712,21.712,0,0,1-2.64-4.16A14.833,14.833,0,0,0,289.06,7.72Zm5.48,7a16.444,16.444,0,0,1,3.86,4.44l2.08-1.66a11.764,11.764,0,0,0-4.44-4.34ZM19.58,49.6a18.554,18.554,0,0,0-5.56-2.66c-.16-2.54-.16-3.18-.14-4.88.4.04.94.06,1.34.06a15.527,15.527,0,0,0,3.64-.48V39.32A9.974,9.974,0,0,1,14.8,40a4.867,4.867,0,0,1-.84-.04c0-.7.06-2.16.1-2.42.02-.16.12-.22.24-.3.24-.16.26-.18.26-.26,0-.18-.38-.24-.48-.26l-2.4-.34V37.8c0,3.5-.02,4.02.12,8.66a10.982,10.982,0,0,0-1.46-.1c-2.92,0-4.66,1.38-4.66,3.12,0,1.36,1.1,2.82,4.74,2.82,3.26,0,3.88-1.16,3.76-3.12a16.39,16.39,0,0,1,4.14,2.44Zm-7.74-1.12c0,.88.02,1.88-1.58,1.88-.66,0-2.14-.18-2.14-1.02,0-.58.7-1.04,1.96-1.04A10.364,10.364,0,0,1,11.84,48.48Zm26.86-5.8c0-1.32-.12-2.8-.24-4.2-.02-.2-.12-1.04-.12-1.22s.36-.3.36-.48c0-.26-.36-.26-.42-.26H35.86a52.183,52.183,0,0,1,.5,6.22,12.156,12.156,0,0,1-1.22,5.36,8.827,8.827,0,0,1-2.84,3.38l2.38,1.26a13.391,13.391,0,0,0,2.8-4.1A14.752,14.752,0,0,0,38.7,42.68Zm-6.42-.62-1.4-.92c-.5,1.12-.9,2.16-1.16,2.84a4.506,4.506,0,0,1-.14-1.24c0-1.2.32-5.02.74-5.36.08-.08.28-.16.28-.3,0-.2-.3-.24-.42-.24L28,36.72a37.855,37.855,0,0,0-.56,5.92,15.767,15.767,0,0,0,.9,5.44h1.7A46.314,46.314,0,0,1,32.28,42.06Zm30.68.76a8.554,8.554,0,0,1-3.74-2.22c.84-.66.96-.76,2.1-1.74.32-.28.34-.3.64-.3.12,0,.34,0,.34-.18,0-.16-.38-.36-.52-.42l-1.84-.88a13.185,13.185,0,0,1-2,2.14V36.88c0-.08.02-.1.34-.32.1-.06.16-.12.16-.22,0-.18-.18-.24-.54-.26l-2.08-.16v2.22l-.4-.36H52.3v1.88h1.42A6.788,6.788,0,0,1,52,42.4V36.2H45.38v6.56h2.4v7.2l-.58.14V44.3c0-.1.06-.12.26-.28a.225.225,0,0,0,.14-.2c0-.16-.18-.22-.54-.24l-1.72-.12V50.5c-.28.06-.36.06-.92.14l.62,1.9c.04.12.16.52.34.52.08,0,.08-.02.26-.3.12-.18.24-.2.66-.3.2-.06,1.12-.24,1.3-.3,1.42-.4,2.86-.8,4.26-1.3l.12-1.96c-.54.18-1.04.32-2.1.58v-2.7H52V44.84H49.88V42.76h1.68a2.794,2.794,0,0,1-.72.46l2.06,1.04a7.554,7.554,0,0,0,1.32-1.48l1.04,1.8h1.08a1.513,1.513,0,0,0,1.6-1.44v-1.4a8.387,8.387,0,0,0,3.5,2.88ZM55.82,41.8a.546.546,0,0,1-.6.62c-.08,0-.62-.04-.72-.06a13.27,13.27,0,0,0,1.32-2.96ZM49.98,41H47.46V38.12h2.52ZM61.2,52.78V44.76H52.46v8.02h2.26V52.3H58.9v.48ZM58.9,47.6H54.72v-.98H58.9Zm0,2.92H54.72V49.26H58.9Zm23.18-3.68c-.86-.56-1.48-.94-2.58-1.56a24.142,24.142,0,0,0,.68-2.98c.06-.28.06-.32.22-.42.28-.14.3-.16.3-.26,0-.18-.28-.28-.48-.34l-2.24-.62a17,17,0,0,1-.52,3.66,12.87,12.87,0,0,0-3.86-.92c.28-.62,1.7-3.84,1.72-3.92a8.152,8.152,0,0,1,1.04-1.7l-1.32-1.32c-1.08.7-3.44,1.1-6.52,1.08l.9,2.02a13.959,13.959,0,0,0,3.64-.62,46.311,46.311,0,0,1-1.62,4.34,5.4,5.4,0,0,0-3.18.96A4.971,4.971,0,0,0,65.9,48.2a2.334,2.334,0,0,0,2.26,2.58c1.76,0,2.62-1.28,4.6-5.52a12.382,12.382,0,0,1,4,1.12,9.675,9.675,0,0,1-3.98,4.7l1.98,1.38a11.153,11.153,0,0,0,3.96-4.98c.46.3,1.02.68,2.08,1.5ZM70.54,45.32a22.714,22.714,0,0,1-1.32,2.48.912.912,0,0,1-.84.48c-.14,0-.4-.02-.4-.54C67.98,47,68.82,45.86,70.54,45.32ZM103,47.58c-3.68-2.5-4.36-5-4.4-11.48H93.16v2.34h2.98c.02.36.04.68.1,1.24L95,39.34a12.1,12.1,0,0,1-4.28,8.24l1.98,1.4a13.011,13.011,0,0,0,2.5-3.08,13.842,13.842,0,0,0,1.5-3.48c1.2,4.32,2.42,5.6,4.38,6.98ZM90.84,38.34a12.342,12.342,0,0,0-3.18-2.48l-1.62,1.72a14.468,14.468,0,0,1,3.08,2.38Zm13.04,11.34a32.909,32.909,0,0,1-4.34.56c-1.5.12-2.98.2-4.48.2-3.78,0-4.62-.68-4.62-2.38V42.98H85.72v2.2h2.42V48.9a20.956,20.956,0,0,1-2.74,1.32l.86,2.3c.06.14.16.36.34.36.14,0,.16-.06.34-.46.06-.16.06-.16.24-.28,1.04-.72,2.04-1.5,2.24-1.66a3.462,3.462,0,0,0,.84,1.02,4.308,4.308,0,0,0,3.02.88h9.14Zm19.06-1.06-1.3-1.92c-.74,1.08-2.16,3.04-3.54,3.04-.5,0-.82-.24-.82-.94,0-.5.46-2.7.46-3.16a2.3,2.3,0,0,0-2.5-2.42,5.868,5.868,0,0,0-2,.42c1.24-2.86,2.64-5.26,2.94-5.36a3.6,3.6,0,0,1,.44-.12.213.213,0,0,0,.16-.18c0-.2-.36-.38-.48-.44l-2.26-1.2c-.26.64-.54,1.28-1.22,2.74-.9,1.92-1.4,2.9-6.22,12.22l2.46.7a16.5,16.5,0,0,1,2.52-5,3.928,3.928,0,0,1,2.66-1.5.962.962,0,0,1,1.04,1.06c0,.32-.4,2.64-.4,3.14a2.452,2.452,0,0,0,2.74,2.46C120.62,52.16,122.2,49.76,122.94,48.62Zm18.5-3.9v-1.9a15.207,15.207,0,0,0-1.86-.08,26.92,26.92,0,0,0-3.32.2v1.92A23.242,23.242,0,0,1,141.44,44.72Zm-4.16-3.66V38.88a10.3,10.3,0,0,1-2.96,1.18c.14-.58.34-1.54.36-1.64.06-.42.06-.48.2-.56.32-.24.36-.26.36-.34,0-.14-.12-.22-.44-.3l-2.26-.56A19.663,19.663,0,0,1,132,40.6a16.676,16.676,0,0,1-3.34.24l.14,1.88a8.131,8.131,0,0,0,1.2-.12c.16-.02,1.54-.22,1.54-.22a31.921,31.921,0,0,1-3.66,9.12l2.22.64a56.4,56.4,0,0,0,3.76-10.12A18.718,18.718,0,0,0,137.28,41.06Zm5.16-2.88a11.78,11.78,0,0,0-1.52-1.56l-.86.86a11.587,11.587,0,0,1,1.5,1.54Zm-2.1,1.04a14.526,14.526,0,0,0-1.58-1.62l-.84.8a12.932,12.932,0,0,1,1.58,1.62Zm1.48,12.6-.24-2.12a11.8,11.8,0,0,1-3.24.4,4.487,4.487,0,0,1-2.28-.44.665.665,0,0,1-.26-.54,4.6,4.6,0,0,1,.08-.76l-1.86-.28a5.458,5.458,0,0,0-.12,1.18c0,2.72,2.54,2.84,4.48,2.84A17.516,17.516,0,0,0,141.82,51.82Zm22.3-8.86V41.02h-3.9V38.34c1.24-.2,2.02-.38,2.22-.44a3.862,3.862,0,0,1,.82-.16,5.23,5.23,0,0,0,.56,0,.113.113,0,0,0,.1-.12.244.244,0,0,0-.06-.18l-1.48-1.76a21.62,21.62,0,0,1-8.06,1.36l.78,1.82a27.465,27.465,0,0,0,2.8-.18v2.34h-3.72v1.94h3.72v2.5h-2.96v7.26h2.1v-.64h4.18v.48h2.2v-7.1h-3.2v-2.5Zm-11.06-5V36.14h-5.02v1.82Zm8.16,12.16h-4.18v-2.7h4.18Zm-7.9-6.98V41.38H147.9v1.76Zm-.08,2.6V44H147.9v1.74Zm.4,6.8V46.6H147.3v6.26h1.98V52h2.32v.54Zm-2.04-2.4h-2.32V48.52h2.32Zm2.62-9.56V38.74H146.9v1.84ZM184.3,49.1a16.008,16.008,0,0,0-3.44-1.88,49.135,49.135,0,0,1-.28-5.36,18.684,18.684,0,0,0,2.5-.56V39.14a8.732,8.732,0,0,1-2.48.82,23.075,23.075,0,0,1,.28-2.48c.2-.12.38-.22.38-.32,0-.12-.06-.22-.48-.28l-2.24-.36c-.04,1.98-.04,2.2-.08,3.7a15.833,15.833,0,0,1-1.86.12,10.411,10.411,0,0,1-1.8-.12l.02,2.06a22.231,22.231,0,0,0,3.62-.16c.04,1.36.1,2.2.26,4.58-.4-.04-.82-.08-1.22-.08-1.94,0-3.52.78-3.52,2.58,0,2.88,3.36,2.88,3.94,2.88,2.72,0,3.12-1.04,3.16-2.58a10.7,10.7,0,0,1,2.1,1.58Zm-11.42-1.76-1.26-.86-.82,1.2a19.708,19.708,0,0,1-.1-2.1,50.82,50.82,0,0,1,.74-6.2,5.718,5.718,0,0,1,.44-1.36,3.077,3.077,0,0,0,.38-.16.173.173,0,0,0,.08-.14c0-.2-.42-.38-.48-.4l-1.94-.76a37.915,37.915,0,0,0-1.22,9.36,21.516,21.516,0,0,0,.76,6.2l1.84-.3A17.566,17.566,0,0,1,172.88,47.34Zm5.94,1.26c.04,1.04.08,1.5-1.24,1.5-1.18,0-1.76-.42-1.76-.88s.64-.8,1.58-.8A6.879,6.879,0,0,1,178.82,48.6Zm25.76,4.2V36.16H193.16v16.7h2.18v-.7h7.06v.64Zm-2.18-2.52h-7.06V38.04h7.06Zm-.36-8.22V40.42h-2.18v-.98c0-.14.12-.24.24-.32a.372.372,0,0,0,.18-.3c0-.2-.34-.2-.66-.22L198,38.54v1.88h-2.26v1.64H198v1.4h-1.88v5.58h5.5V43.46h-1.76v-1.4ZM199.8,47.3h-1.86V45.2h1.86Zm-6.7-10.42c0-.18-.12-.34-.6-.52l-2.04-.74a13.606,13.606,0,0,1-3.88,7.2l1.92,1.56a8.338,8.338,0,0,0,.86-1.04v9.64h2.14V41.08c0-.12.12-.22.32-.4a.321.321,0,0,0,.1-.22c0-.2-.26-.34-.56-.46.16-.36,1.22-2.68,1.24-2.7.06-.06.08-.08.32-.16A.252.252,0,0,0,193.1,36.88Zm24.02,5.5V36.34h-8.14v6.04h1.88c-.06,4.86-.96,6.84-3.02,9.38l2,.92a14.662,14.662,0,0,0,2.86-6.66h2.06c.02,4.06-.14,4.92-1.6,4.92-.22,0-.62-.06-.84-.08l.76,2c3.38-.28,3.74-.44,3.76-8.88h-3.92c.02-.38.04-.64.04-1.6ZM215,40.34h-3.92V38.4H215Zm10.1-3.94c0-.22-.1-.22-.98-.3l-1.48-.14V50.1c0,.5-.22.7-.96.7a10.742,10.742,0,0,1-1.08-.1l.8,2.08c2.28-.04,3.28-.3,3.28-1.6V36.98c0-.12.16-.26.2-.3C224.98,36.6,225.1,36.5,225.1,36.4Zm-4.32,1.58c0-.2-.24-.24-.98-.3l-1.48-.12V48.78h2.04V38.58c0-.1.12-.22.2-.28C220.66,38.22,220.78,38.1,220.78,37.98Zm23.9,6.84V42.6h-5.34c0-.34.02-.44.02-.96.02-.7-.04-1.82-.06-2.54a18.484,18.484,0,0,0,2.54-.98.672.672,0,0,1,.3-.08h.64a.133.133,0,0,0,.1-.14c0-.14-.18-.34-.24-.4L241,35.98a24.974,24.974,0,0,1-9.96,2.54l1.08,2a30.768,30.768,0,0,0,4.68-.76,7.229,7.229,0,0,1,.12,1.6c0,.66-.02,1.04-.04,1.24h-7.36v2.22h7.12c-.66,2.98-2.08,4.5-5.32,6.34l1.94,1.7c3.38-2.2,5.02-4.08,5.82-8.04Zm19.38-1.98-1.62-1.18a1.189,1.189,0,0,1-.68.52l-4.68.9-.54-2.64c-.02-.1.08-.24.12-.3.16-.2.16-.24.16-.28,0-.22-.42-.2-.52-.18l-1.9.22.66,3.58-4.04.78.72,1.8,3.66-.76,1.38,7.72,2.14-.5-1.5-7.64,3.64-.74c-.38.66-.42.72-.8,1.34-.56.92-.62,1.04-.96,1.62l1.82.78C262.5,45.46,263.18,44.3,264.06,42.84Zm14.7.94a12.008,12.008,0,0,0-1.36-3.24l-1.78.68a12.751,12.751,0,0,1,1.42,3.24Zm5.26-2.14c0-.14-.14-.28-.4-.36l-1.96-.6c-.76,5.66-3.48,8.4-7.36,10.32l1.6,1.42a14.393,14.393,0,0,0,7.46-9.6c.2-.78.22-.86.4-.96C283.98,41.78,284.02,41.76,284.02,41.64Zm-8.8,3.1a12.825,12.825,0,0,0-1.54-3.22l-1.84.7a12.471,12.471,0,0,1,1.52,3.22Zm30.5.96a24.483,24.483,0,0,0-3.12-2.4,17.859,17.859,0,0,0-3.4-1.82l-.94,1.48V37.7c0-.1.52-.42.52-.54,0-.24-.42-.3-.48-.32l-2.4-.42V52.26h2.36V43.62a20.36,20.36,0,0,1,5.88,4ZM102.3,76.36a9.227,9.227,0,0,0-1.66-1.52l-.84.96a9.259,9.259,0,0,1,1.66,1.52Zm-1.62,1.82a8.72,8.72,0,0,0-1.66-1.54l-.82.96a8.879,8.879,0,0,1,1.64,1.54Zm.66-5.22V70.64c-3.78,1.16-9.98,1.64-14.3,1.6l.34,2.24c2-.28,4.94-.52,7.62-.74a14.913,14.913,0,0,0-2.64,3.04A7.275,7.275,0,0,0,91,80.76a5.017,5.017,0,0,0,1.48,3.6,8.975,8.975,0,0,0,4.92,2.22l.78-2.44a6.3,6.3,0,0,1-3.52-1.02,3.174,3.174,0,0,1-1.44-2.6,7.424,7.424,0,0,1,2.44-4.8A8.15,8.15,0,0,1,101.34,72.96ZM122.96,86.7V70.26h-8.54V86.84h2.2v-1.2h4.1V86.7Zm-2.24-7.8h-4.1V76.52h4.1Zm0-4.32h-4.1V72.2h4.1Zm0,9.02h-4.1V80.84h4.1ZM114,78.98a13.831,13.831,0,0,1-2.72-4.12v-.22h2.62v-1.9h-2.62V70.58c0-.06.1-.14.2-.22s.12-.14.12-.18c0-.22-.42-.24-.54-.26l-1.82-.18v3H106.3v1.9h2.76a16.913,16.913,0,0,1-3.6,7.02l1.86,1.1a16.159,16.159,0,0,0,1.92-2.88v6.96h2.04V78.82a18.5,18.5,0,0,0,1.24,1.64Zm18.1-7.04V70.22h-4.7v1.72Zm.58,2.5V72.76h-6.06v1.68Zm11,10.72c-4-1.38-4.56-3.6-4.56-5.8a.458.458,0,0,1,.22-.48c.24-.22.34-.32.34-.48,0-.18-.16-.26-.78-.26l-2.14-.02c.02.32.06.8.06,1.3,0,4.8-3.06,5.54-4.3,5.8V80.6h-5.64v6.28h1.98v-.8h1.66v.62h2V85.44l1.62,1.74a6.923,6.923,0,0,0,4-3.54,8.9,8.9,0,0,0,3.84,3.38Zm-13.16-.78h-1.66V82.34h1.66ZM143.5,72.14c0-.14-.16-.26-.24-.3l-1.88-1.02a11.956,11.956,0,0,1-1.98,2.42L141,74.5a9.186,9.186,0,0,0,1.78-2c.1-.12.14-.12.44-.14C143.3,72.34,143.5,72.32,143.5,72.14Zm.42,5.04a10.383,10.383,0,0,1-3.82-2.04,3.23,3.23,0,0,1-1.08-2.68,8.453,8.453,0,0,1,.12-1.94,2.2,2.2,0,0,0,.22-.24.321.321,0,0,0,.1-.22c0-.18-.22-.22-.76-.24l-2-.04c.04.48.08,1.1.08,1.78,0,2.8-.52,4.5-4.24,5.62l1.54,1.78a8.222,8.222,0,0,0,3.94-3.24,9.17,9.17,0,0,0,4.18,3.32Zm-8.02-5.14c0-.12-.16-.16-.44-.22l-1.84-.34a13.121,13.121,0,0,1-.44,3.18l1.96.36a17.261,17.261,0,0,0,.36-2.6C135.66,72.34,135.9,72.2,135.9,72.04Zm7.42,8.22c0-.14-.22-.3-.32-.34l-1.86-.78a11.025,11.025,0,0,1-1.44,2.22l1.72,1.12a9.209,9.209,0,0,0,1.24-1.92c.1-.02.22-.08.36-.1C143.22,80.42,143.32,80.38,143.32,80.26Zm-11.2-3.3v-1.7h-4.8v1.7Zm4.12,3.3c0-.12-.14-.18-.44-.24l-2-.42a8.939,8.939,0,0,1-.82,3.02l2,.66a10.919,10.919,0,0,0,.84-2.66C135.98,80.54,136.24,80.42,136.24,80.26Zm-4.12-.62V77.96h-4.8v1.68Zm31.38-3.28a9.227,9.227,0,0,0-1.66-1.52l-.84.96a9.259,9.259,0,0,1,1.66,1.52Zm-1.62,1.82a8.72,8.72,0,0,0-1.66-1.54l-.82.96a8.879,8.879,0,0,1,1.64,1.54Zm.66-5.22V70.64c-3.78,1.16-9.98,1.64-14.3,1.6l.34,2.24c2-.28,4.94-.52,7.62-.74a14.913,14.913,0,0,0-2.64,3.04,7.275,7.275,0,0,0-1.36,3.98,5.017,5.017,0,0,0,1.48,3.6,8.975,8.975,0,0,0,4.92,2.22l.78-2.44a6.3,6.3,0,0,1-3.52-1.02,3.174,3.174,0,0,1-1.44-2.6,7.424,7.424,0,0,1,2.44-4.8A8.15,8.15,0,0,1,162.54,72.96Zm19.52,2.76-.36-2a22.8,22.8,0,0,1-3.64,1.8c-.32-.7-.4-.9-.66-1.52a13.174,13.174,0,0,0,3.16-1.36l-.44-1.94a19.3,19.3,0,0,1-3.42,1.54,17.431,17.431,0,0,1-.6-1.84c0-.06.02-.12.18-.28.1-.1.16-.16.16-.26,0-.24-.5-.18-.66-.16l-2.28.26c.32.94.54,1.58,1,2.82a24.664,24.664,0,0,1-4.66.4l.62,1.92a22.961,22.961,0,0,0,4.76-.54c.2.46.42.96.72,1.64a26.512,26.512,0,0,1-6.3.6l.7,2.02a25.794,25.794,0,0,0,6.42-.88c.38.74.56,1.1,1.04,1.96a15.277,15.277,0,0,0-2.86-.32c-2.26,0-4.42.74-4.42,3.48,0,2.64,2.48,3.78,6.08,3.78a20.133,20.133,0,0,0,3.16-.24l.2-2.36a14.59,14.59,0,0,1-4,.54c-.68,0-3.28,0-3.28-1.7,0-1.08,1.1-1.64,2.42-1.64a11.261,11.261,0,0,1,5.24,1.52l1.22-1.52a21.71,21.71,0,0,1-2.64-4.16A14.833,14.833,0,0,0,182.06,75.72Zm20.56,7.94a16.626,16.626,0,0,0-5.06-2.26c-.06-1.18-.06-1.38-.1-2.38a42.989,42.989,0,0,0,4.28-.5V76.34c-1.84.34-2.58.46-4.32.68V74.66c1-.02,2.86-.06,5.08-.06l.08-2.12c-1.88.14-2.56.18-5.12.3.02-1.04.04-1.42.04-1.44a.65.65,0,0,1,.26-.36c.22-.18.26-.2.26-.28,0-.14-.12-.2-.5-.24l-2.44-.24.06,2.66c-1.78.04-2.86.08-5.14.08l.04,2.16c1.72-.2,2.86-.28,5.16-.38l.04,2.5a13.725,13.725,0,0,1-1.38.04c-.34,0-.76,0-.76-.28,0-.26.3-.48.66-.74l-1.14-.98c-.78.56-2.14,1.5-2.14,2.48,0,.78.92,1.44,2.76,1.44.58,0,1.68-.04,2.04-.06l.04,1.92-.56-.02c-4.5-.16-4.7,2.16-4.7,2.74,0,1.62,1.72,2.6,4.48,2.6,2.56,0,3.04-.8,3.12-2.84a15.077,15.077,0,0,1,3.66,1.98Zm-7.28-.7c.02,1.12-.06,1.48-1.36,1.48-.24,0-1.52,0-1.52-.68,0-.52.64-.86,1.94-.86A5.177,5.177,0,0,1,195.34,82.96Zm28.88-8.54V72.26c-2.04.16-2.66.22-5.44.38V70.58c0-.08.02-.12.16-.24s.18-.18.18-.3c0-.2-.12-.26-.58-.28l-2.22-.14c.12,1.46.12,2.52.14,3.14-4.2.2-5.92.2-7.28.2v2.32c2.54-.32,5.56-.5,7.34-.6l.04,1.5a2.638,2.638,0,0,0-.94-.16c-2.04,0-3.14,1.52-3.14,3.72a3.579,3.579,0,0,0,1.04,2.78,2.518,2.518,0,0,0,1.64.62,4.022,4.022,0,0,0,1.08-.2,6.382,6.382,0,0,1-2.86,3.28l2.24,1.16a13.876,13.876,0,0,0,2.72-3.72,8.968,8.968,0,0,0,1.02-3.86,5.158,5.158,0,0,0-.58-2.44v-2.8C221.38,74.46,222.7,74.42,224.22,74.42Zm-7.28,5.06c0,1.42-.96,1.86-1.38,1.86-.46,0-1.1-.46-1.1-1.66,0-1.06.56-1.76,1.36-1.76a1.041,1.041,0,0,1,.74.28A1.865,1.865,0,0,1,216.94,79.48Z" transform="translate(-5.68 -0.46)"/></svg>