<svg xmlns="http://www.w3.org/2000/svg" width="226.624" height="32" viewBox="0 0 226.624 32"><defs><style>.a{fill:#ba7394;}.b{fill:#231815;}.c{fill:#2f2f2f;}</style></defs><g transform="translate(-67 -757)"><rect class="a" width="94" height="6" transform="translate(67 783)"/><g transform="translate(69.746 757)"><path class="b" d="M2.453,27.85H0V0H2.453V14.555L17.34,0h3.15L8.222,11.969,20.987,27.85H18.136L6.631,13.527,2.453,17.605Z"/><path class="b" d="M8.321,2.021a1.558,1.558,0,0,1,.5-1.194A1.459,1.459,0,0,1,9.979.363a1.492,1.492,0,0,1,1.194.464,1.691,1.691,0,0,1,.5,1.194,1.625,1.625,0,0,1-.5,1.194,1.641,1.641,0,0,1-2.354,0,1.525,1.525,0,0,1-.5-1.194Zm.5,25V7.624h2.321v19.4Z" transform="translate(18.264 0.831)"/><path class="b" d="M11.48,2.022a1.691,1.691,0,0,1,.5-1.194A1.492,1.492,0,0,1,13.2.365a1.459,1.459,0,0,1,1.16.464,1.459,1.459,0,0,1,.5,1.194,1.426,1.426,0,0,1-.5,1.194,1.641,1.641,0,0,1-2.354,0,1.625,1.625,0,0,1-.53-1.194Zm.53,25V7.625h2.321v19.4Z" transform="translate(23.582 0.829)"/><path class="b" d="M14.433,0h22.28V2.255H26.767v25.6h-2.42V2.255H14.4Z" transform="translate(29.343)"/><path class="b" d="M25.11,12.5H39.8v2.255H25.11V25.6H41.124V27.85H22.69V0H40.925V2.255H25.11Z" transform="translate(47.538)"/></g><path class="c" d="M19.1.024V-3.048a31.1,31.1,0,0,1-7.416,1.08c-2.52,0-4.416-.84-4.416-2.568,0-1.608,1.776-2.832,2.856-3.5a36.107,36.107,0,0,1,8.88-3.792L18.12-14.76c-2.952,1.392-3.264,1.536-6.024,2.832A2.922,2.922,0,0,1,10.7-13.56a19.422,19.422,0,0,1-.7-5.688l-3.072.456c.768,4.584.888,5.28,1.224,6.072a7.558,7.558,0,0,0,1.416,2.16c-2.64,1.56-4.968,3.1-4.968,6.1A4.573,4.573,0,0,0,7.056-.36C8.256.264,9.5.6,12.336.6A43.051,43.051,0,0,0,19.1.024ZM46.08-3.48a19.21,19.21,0,0,0-4.128-2.256,58.96,58.96,0,0,1-.336-6.432,22.422,22.422,0,0,0,3-.672v-2.592a10.479,10.479,0,0,1-2.976.984,27.688,27.688,0,0,1,.336-2.976c.24-.144.456-.264.456-.384,0-.144-.072-.264-.576-.336l-2.688-.432c-.048,2.376-.048,2.64-.1,4.44a19,19,0,0,1-2.232.144,12.493,12.493,0,0,1-2.16-.144l.024,2.472a26.678,26.678,0,0,0,4.344-.192c.048,1.632.12,2.64.312,5.5-.48-.048-.984-.1-1.464-.1-2.328,0-4.224.936-4.224,3.1C33.672.1,37.7.1,38.4.1c3.264,0,3.744-1.248,3.792-3.1a12.839,12.839,0,0,1,2.52,1.9Zm-13.7-2.112L30.864-6.624l-.984,1.44a23.647,23.647,0,0,1-.12-2.52,60.982,60.982,0,0,1,.888-7.44,6.861,6.861,0,0,1,.528-1.632,3.692,3.692,0,0,0,.456-.192.208.208,0,0,0,.1-.168c0-.24-.5-.456-.576-.48l-2.328-.912A45.5,45.5,0,0,0,27.36-7.3a25.818,25.818,0,0,0,.912,7.44l2.208-.36A21.079,21.079,0,0,1,32.376-5.592ZM39.5-4.08c.048,1.248.1,1.8-1.488,1.8-1.416,0-2.112-.5-2.112-1.056s.768-.96,1.9-.96A8.255,8.255,0,0,1,39.5-4.08Zm21.12-8.832c0-3.336-2.664-5.184-5.976-5.184a5.844,5.844,0,0,0-4.992,2.3,6.072,6.072,0,0,0-.96,3.408h3.552c.024-.7.12-2.784,2.5-2.784A2.347,2.347,0,0,1,57.192-12.7,3.4,3.4,0,0,1,55.7-9.96c-1.536,1.392-2.448,2.184-2.448,4.632v.6h2.928V-5.64c0-.912.024-1.536,1.776-2.76C60.1-9.912,60.624-11.3,60.624-12.912ZM56.448,0V-3.312h-3.24V0Z" transform="translate(233 782)"/><path class="c" d="M-23.325.465A9.25,9.25,0,0,1-25.665-5.7a9.286,9.286,0,0,1,2.34-6.165l-1.14-1.005a10.674,10.674,0,0,0-2.76,7.17,10.746,10.746,0,0,0,2.76,7.17Zm13.89-5.4-.21-1.65-4.365.57-.345-1.92,3.225-.42-.225-1.56-3.27.42-.36-1.98c-.015-.075.24-.345.24-.405,0-.12-.12-.165-.45-.15l-1.575.09.465,2.685-3.585.45.21,1.56,3.63-.48.33,1.935-4.815.63.225,1.635,4.875-.63.81,4.785,1.74-.345L-13.71-4.38ZM4.7-10.485c0-.12-.2-.315-.255-.36l-1.305-1.08a23.288,23.288,0,0,1-8.7,6.375l1.3,1.335A26.9,26.9,0,0,0-.48-6.345v6.6H1.395V-7.74A19.206,19.206,0,0,0,3.87-10.08c.21-.225.24-.255.465-.27C4.635-10.365,4.7-10.38,4.7-10.485Zm13.95.72v-1.62h-7.26v1.62Zm2.025,3.72V-7.59H9.345v1.545h5.04C14.31-3.12,13.38-1.68,10.38-.6L11.85.63a6.994,6.994,0,0,0,3.33-2.79,7.7,7.7,0,0,0,.945-3.885Zm6.555.345a10.746,10.746,0,0,0-2.76-7.17l-1.14,1.005A9.286,9.286,0,0,1,25.665-5.7,9.25,9.25,0,0,1,23.325.465l1.14,1A10.674,10.674,0,0,0,27.225-5.7Z" transform="translate(195 783)"/></g></svg>