<svg xmlns="http://www.w3.org/2000/svg" width="301.48" height="52" viewBox="0 0 301.48 52"><defs><style>.a{fill:#2f2f2f;}</style></defs><path class="a" d="M24.8,4.96V3.16H13.88c.24-.48.26-.54.36-.6l.28-.14a.289.289,0,0,0,.04-.14c0-.14-.2-.2-.28-.22l-2.44-.64a13.945,13.945,0,0,1-2.96,5.3l2.06,1.12A17.722,17.722,0,0,0,12.9,4.96Zm-2,2.86V6.02H13.08v1.8Zm3.92,8.28-1.56-1.14c-.02.32-.2,1.42-.54,1.42-.74,0-1.16-2.22-1.16-4.24a22.148,22.148,0,0,1,.24-3.26H10.66v1.96H21.28a13.342,13.342,0,0,0,.96,6.34,3.429,3.429,0,0,0,2.46,2.14C25.82,19.32,26.38,17.58,26.72,16.1Zm-7.16,1.3a25.749,25.749,0,0,0-2.58-2.7,17.422,17.422,0,0,0,1.28-2.06.841.841,0,0,1,.3-.16c.06-.02.16-.06.16-.16,0-.16-.22-.28-.32-.32l-1.9-.84a13.759,13.759,0,0,1-1.18,2.16,15.228,15.228,0,0,0-2.72-1.66l-1.14,1.82A12.461,12.461,0,0,1,13.92,15a10.559,10.559,0,0,1-4.38,2.56L11,19.34a13.737,13.737,0,0,0,4.5-2.92,26.919,26.919,0,0,1,2.16,2.56ZM44.66,6.04V3.72a13.971,13.971,0,0,1-4.74.82,17.617,17.617,0,0,1-2.56-.22v2.2c1.06.1,1.98.1,2.14.1A26.861,26.861,0,0,0,44.66,6.04Zm.96,10.5V14.06a16.315,16.315,0,0,1-4.56.62c-2.02,0-2.22-.54-2.24-2.44l-2.18.3c.06,3.38.82,4.36,4.46,4.36A27.337,27.337,0,0,0,45.62,16.54ZM35.16,12.98l-1.18-.64c-.44.78-.56.98-.8,1.4A11,11,0,0,1,32.9,11c0-3.02.86-6.64,1.16-6.82.04-.02.3-.12.34-.14a.237.237,0,0,0,.1-.18c0-.16-.38-.3-.52-.36l-2.04-.74a39.419,39.419,0,0,0-.84,4.56,35.377,35.377,0,0,0-.3,3.94,17.425,17.425,0,0,0,.82,5.26,6.122,6.122,0,0,0,.74,1.58l1.58-.62A17.744,17.744,0,0,1,35.16,12.98Zm30.2,2.66a18.37,18.37,0,0,0-3.44-1.82,19.818,19.818,0,0,1-.26-2.78,1.832,1.832,0,0,1,.76-1.6L60.34,8.32a3.022,3.022,0,0,0-.86,2.04c0,.42.24,2.46.28,2.92a10.093,10.093,0,0,0-1.56-.12c-2.76,0-3.54,1.76-3.54,2.84a2.264,2.264,0,0,0,.74,1.7,4.753,4.753,0,0,0,3.26.94c2.62,0,3.22-.84,3.4-2.44a11.009,11.009,0,0,1,1.98,1.32Zm-5.5-.36c0,.72.02,1.56-1.6,1.56-1.1,0-1.66-.46-1.66-.9,0-.4.48-.96,1.52-.96A6.716,6.716,0,0,1,59.86,15.28Zm6.06-8a9.884,9.884,0,0,0-4.46-1.84l-.9,1.72a14.155,14.155,0,0,1,4.38,1.82ZM59.96,6.24V4c-.52.18-1.12.38-2.3.68.08-.26.46-1.54.48-1.56.12-.12.46-.24.46-.44,0-.22-.38-.32-.48-.34l-2.18-.48a19.083,19.083,0,0,1-.72,3.3,26.624,26.624,0,0,1-3.4.26l.3,2.08c.94-.06,1.5-.12,2.42-.24a34.306,34.306,0,0,1-3.42,7.28l2.14.92a48.777,48.777,0,0,0,3.7-8.58C58.66,6.58,59.28,6.42,59.96,6.24Zm25.42,6.48A4.408,4.408,0,0,0,80.94,8.3,15.924,15.924,0,0,0,79,8.42a49.449,49.449,0,0,1,4.44-4.28L82.4,2.52a22.666,22.666,0,0,1-6.06,1c-.62,0-1.76-.08-2.24-.12l.46,2.24a18.671,18.671,0,0,0,4.68-.5,39.485,39.485,0,0,1-7.4,7.22l1.68,1.76a22.577,22.577,0,0,1,4.12-3.58,5.424,5.424,0,0,1,2.28-.5c1.3,0,3.24.64,3.24,2.62a3.523,3.523,0,0,1-1.32,2.66,5.227,5.227,0,0,0-3.94-2.34,2.8,2.8,0,0,0-2.94,2.66c0,1.48,1.28,2.74,3.78,2.74C82.26,18.38,85.38,16.04,85.38,12.72Zm-5.4,3.58a5.686,5.686,0,0,1-1.36.18c-.72,0-1.64-.2-1.64-.9a.881.881,0,0,1,1-.84C79.12,14.74,79.72,15.84,79.98,16.3Zm25.64.42V4.64H92.82V6.86h10.42v6.96H92.78v2.2h10.46v.7ZM124.06,4.6a31.128,31.128,0,0,0-8.46-2.94l-.38,2.28a22.505,22.505,0,0,1,8.26,3.04Zm-.82,5.38a28.535,28.535,0,0,0-6.94-2.72l-.5,2.16a28.582,28.582,0,0,1,6.92,2.86Zm1.64,6.78a35.679,35.679,0,0,0-9.96-4.2l-.6,2.22a35.957,35.957,0,0,1,9.84,4.48Zm21.8.28V15.26h-3.8l1.24-7.66h-8.04V9.44h5.7l-.94,5.82h-7.32v1.78ZM165.94,6.96V4.58H155.12V6.96ZM168,16.2V13.82H152.98V16.2ZM185.76,4.98V2.82h-9.68V4.98Zm2.7,4.96V7.88h-15.1V9.94h6.72c-.1,3.9-1.34,5.82-5.34,7.26l1.96,1.64a9.326,9.326,0,0,0,4.44-3.72,10.27,10.27,0,0,0,1.26-5.18ZM206,7.1c0-.08-.06-.14-.14-.2l-1.6-1.34a19.391,19.391,0,0,1-4.44,4.16,19.47,19.47,0,0,1-4.72,2.64l1.3,1.6a23.887,23.887,0,0,0,4.06-2.34v7.14h2.06V10.08a19.317,19.317,0,0,0,2.72-2.62C205.4,7.44,206,7.38,206,7.1Zm25.66-2.94a9.11,9.11,0,0,0-1.56-1.68l-1.04.76a7.941,7.941,0,0,1,1.42,1.72Zm-2.18,1.12a12.322,12.322,0,0,0-1.54-1.7l-1.08.8a8.936,8.936,0,0,1,1.58,1.76Zm-.32,5.4c0-2.12-2.72-5.34-3.64-6.44L223.9,5.36c2.12,2.46,2.88,4.1,2.88,4.6,0,.48-.42.58-1.14.68l1.06,1.9C227.44,12.44,229.16,12.2,229.16,10.68Zm-4.54.02c0-1.78-.24-4.16-2.94-4.16a8.356,8.356,0,0,0-1.46.14c.16-.9.2-1.26.3-2.06.04-.26.04-.26.28-.42.2-.12.22-.14.22-.22,0-.16-.22-.26-.48-.3l-2.4-.34a23.937,23.937,0,0,1-.2,3.8c-1.64.36-2.32.5-3.84.74l.74,2.4a17.913,17.913,0,0,1,2.72-1.08,21.228,21.228,0,0,1-3.62,7.8l2.08.94a26.847,26.847,0,0,0,3.8-9.26,6.618,6.618,0,0,1,1.08-.1c1.24,0,1.62.48,1.62,2.02,0,.96-.16,3.48-1.06,4.6a1.556,1.556,0,0,1-1.38.56,5.886,5.886,0,0,1-1.36-.16l.48,2.16a14.075,14.075,0,0,0,1.5.08,3,3,0,0,0,2.28-.78C223.92,16.16,224.62,13.58,224.62,10.7Zm24.76,2.46c0-2.36-1.36-3.84-3.6-4.6l.32-.92-2.3-.5c-.08.38-.14.64-.24,1.04a8.834,8.834,0,0,0-2.18.16c.1-.8.12-.9.24-1.64a27.745,27.745,0,0,0,5.28-1.06V3.5A19.523,19.523,0,0,1,242,4.84a14.5,14.5,0,0,1,.62-1.96c.22-.06.46-.12.46-.3,0-.06,0-.16-.5-.3l-2.08-.56a32.975,32.975,0,0,0-.74,3.38,28.263,28.263,0,0,1-3.8-.14l.66,1.98c1.08,0,1.6,0,2.86-.06-.1.94-.16,1.44-.2,2.22-3.62,2-4.36,4.8-4.36,6.16,0,1.62.94,2.6,2.2,2.6a5.62,5.62,0,0,0,2.86-1,4.428,4.428,0,0,0,.28.74l1.92-1.04c-.2-.64-.24-.72-.38-1.2a18.056,18.056,0,0,0,3.26-5.04,2.848,2.848,0,0,1,2,2.76,3.767,3.767,0,0,1-1.16,2.76,5.8,5.8,0,0,1-3.42,1.42l1.46,1.84C245.32,18.7,249.38,17.56,249.38,13.16ZM242.96,9.9a16.109,16.109,0,0,1-1.64,3.1,20.3,20.3,0,0,1-.1-2.88A4.634,4.634,0,0,1,242.96,9.9Zm-3.42,5.02a3.175,3.175,0,0,1-1.86.86c-.34,0-.74-.12-.74-.94s.5-2.08,2.3-3.58A28.509,28.509,0,0,0,239.54,14.92Zm30.98.86-.62-2.24c-.82,1.16-1.58,1.52-2.14,1.52-.54,0-.74-.22-.74-1.32a27.774,27.774,0,0,1,.2-2.82c.26-2.68.28-2.9.28-3.26a2.279,2.279,0,0,0-2.2-2.4c-1.34,0-3.24,1.78-4.02,2.5l.44-.88-1.28-1.22a14.01,14.01,0,0,1,.2-2.64c.06-.06.36-.32.36-.38,0-.18-.18-.2-.5-.24l-1.98-.22-.08,4.3a16.313,16.313,0,0,1-3.6.96l.98,2.16c1-.32,1.54-.52,2.6-.9l-.04,1.76a22.884,22.884,0,0,1-3.8,4.6l2.08,1.4c.7-1.1,1.04-1.58,1.66-2.44l-.06,4.62,2.24-.12c-.12-2.34-.12-4.42-.14-7.2,1.4-1.72,2.94-3.64,4.08-3.64.68,0,.78.82.78,1.34,0,.84-.36,4.56-.36,5.32,0,.5,0,3.28,2.32,3.28A4.8,4.8,0,0,0,270.52,15.78ZM289.82,5.4a9.877,9.877,0,0,1-2.4.68c.14-2.08.16-2.3.28-2.4a1.826,1.826,0,0,1,.26-.16A.147.147,0,0,0,288,3.4c0-.12-.02-.2-.46-.28l-2.14-.38c-.02.92-.06,2.68-.08,3.66-.42.04-1.1.1-1.74.1a13.774,13.774,0,0,1-1.86-.14l.02,1.98c.5.02,1.16.04,1.76.04a18.067,18.067,0,0,0,1.82-.08c.04,1.44.06,1.8.24,4.52a6.132,6.132,0,0,0-1.34-.16c-1.78,0-3.34.66-3.34,2.54,0,2.78,3.44,2.78,4.02,2.78,2.5,0,2.82-.82,2.86-2.5a6.942,6.942,0,0,1,2.16,1.42l1.04-1.8a12.177,12.177,0,0,0-3.3-1.82,47.988,47.988,0,0,1-.3-5.28,12.9,12.9,0,0,0,2.46-.56Zm-4.14,9.28c.04.92.06,1.36-1.3,1.36-1.18,0-1.68-.36-1.68-.82,0-.48.58-.84,1.5-.84A4.236,4.236,0,0,1,285.68,14.68Zm-8.02-.9a9.071,9.071,0,0,1-.08-1.32,34.216,34.216,0,0,1,.9-7.46c.12-.44.2-.74.44-.84.28-.1.38-.14.38-.28,0-.2-.44-.38-.48-.38l-1.92-.78a34.5,34.5,0,0,0-1.18,9.12,21.208,21.208,0,0,0,.78,6.14l1.68-.34a13.051,13.051,0,0,1,1.56-4.14l-1.26-.88ZM291.5,4.4a9.157,9.157,0,0,0-1.56-1.48l-.82.88a9.114,9.114,0,0,1,1.54,1.44Zm1.4-1.44a9.292,9.292,0,0,0-1.62-1.58l-.82.86a12.42,12.42,0,0,1,1.6,1.56Zm1.64,11.76a16.444,16.444,0,0,1,3.86,4.44l2.08-1.66a11.764,11.764,0,0,0-4.44-4.34ZM21.3,52.44V50.46H6.64V46.74l1.4,1.24a10.143,10.143,0,0,0,1.74-1.02v2.7h9.96V45.18H12.08c.32-.3.6-.54.96-.92h8V42.64H14.42c.24-.32.26-.36.38-.38.28-.08.36-.1.36-.26,0-.18-.16-.2-.32-.24l-2.2-.44c-.14.28-.24.42-.3.54v-.9h3v1.2h2.18v-1.2h3.46V39.42H17.52v-.6c0-.02.16-.1.2-.12.08-.04.24-.12.24-.22,0-.16-.4-.2-.44-.2l-2.18-.12v1.26h-3v-.64c0-.06.02-.08.18-.14.14-.06.18-.1.18-.16,0-.14-.32-.2-.4-.2l-2.12-.12v1.26H7.32v1.54h2.86v1.2H12.1c-.18.24-.22.28-.38.48H7.2v1.62h2.9a12,12,0,0,1-3.46,2.22V38H21.08V36.1H4.34V52.94h2.3v-.5ZM17.5,48.1H12.02V46.74H17.5Zm23.6,4.54V45.06H33.78a22.975,22.975,0,0,0,4.88-6.26l-1.18-1.3H32.76c.06-.12.3-.68.38-.78.04-.08.46-.16.52-.22a.227.227,0,0,0,.06-.16c0-.2-.44-.38-.6-.44l-1.88-.58a14.877,14.877,0,0,1-6.16,7.16l1.84,1.58a24.685,24.685,0,0,0,2.5-2.1,15.119,15.119,0,0,1,2.3,2.08,19.964,19.964,0,0,1-7.36,3.82l1.7,1.78a34.093,34.093,0,0,0,3.96-1.9v5.18H32.4v-.98h6.32v.7ZM35.52,39.4a14.389,14.389,0,0,1-2.24,3.18,17.079,17.079,0,0,0-2.52-2.04,13.175,13.175,0,0,0,.88-1.14Zm3.2,10.66H32.4v-3.1h6.32Zm22.78-7.7a9.227,9.227,0,0,0-1.66-1.52L59,41.8a9.259,9.259,0,0,1,1.66,1.52Zm-1.62,1.82a8.72,8.72,0,0,0-1.66-1.54l-.82.96a8.879,8.879,0,0,1,1.64,1.54Zm.66-5.22V36.64c-3.78,1.16-9.98,1.64-14.3,1.6l.34,2.24c2-.28,4.94-.52,7.62-.74a14.912,14.912,0,0,0-2.64,3.04,7.275,7.275,0,0,0-1.36,3.98,5.017,5.017,0,0,0,1.48,3.6,8.975,8.975,0,0,0,4.92,2.22l.78-2.44a6.3,6.3,0,0,1-3.52-1.02,3.174,3.174,0,0,1-1.44-2.6,7.424,7.424,0,0,1,2.44-4.8A8.15,8.15,0,0,1,60.54,38.96Zm15.14,4.32a12.635,12.635,0,0,0,5.46,4.32l1.6-1.68c-1.72-.58-3.4-1.3-4.32-2.64h3.82v-1.9H73.48c.14-.24.2-.34.34-.6.14-.02.44-.06.44-.28,0-.18-.18-.22-.64-.34,1,.02,3.48-.14,5.22-.28a15.358,15.358,0,0,1,1.24,1.32l1.42-1.44a18.368,18.368,0,0,0-4.34-3.58l-1.34,1.3a14.247,14.247,0,0,1,1.32.9c-1.24.02-3.58.04-4.36.04.14-.28.76-1.54.9-1.8.14-.06.38-.16.44-.2a.218.218,0,0,0,.16-.2c0-.08-.1-.16-.24-.18l-2.62-.3a22.4,22.4,0,0,1-1.24,2.66c-1.3,0-2.5-.02-3.84-.08l.56,2.22a.192.192,0,0,0,.18.16c.08,0,.1-.04.22-.22.06-.08.1-.08.52-.1l3.64-.12a4.891,4.891,0,0,1-.58,1.12H65.54v1.9h3.82a14.716,14.716,0,0,1-3.96,2.84l1.56,1.48a16.506,16.506,0,0,0,2.26-1.42l.84,1.56a15.94,15.94,0,0,0,5.42-2.18,1.178,1.178,0,0,1,.28-.14.533.533,0,0,0,.24.06c.06,0,.18-.06.18-.16a.344.344,0,0,0-.14-.22L74.7,43.8a11.216,11.216,0,0,1-5.12,2.12,15.656,15.656,0,0,0,2.64-2.64ZM67.52,53.1c6.24-.1,8.38-.8,13.02-3.38.1-.02.58-.08.66-.1a.155.155,0,0,0,.16-.14c0-.1-.04-.14-.12-.2l-1.92-1.36c-2.86,1.94-5.86,3.22-12.84,3.28Zm1.3-2.68c3.52-.24,7.12-1.46,8.88-2.92.08-.06.12-.06.5-.08.08,0,.24-.04.24-.16a.26.26,0,0,0-.16-.24l-1.56-1.16a15.931,15.931,0,0,1-8.7,2.86Zm33.64,1.98V38.28H95.6v14.2h2V51.4h2.86v1ZM94.42,39.12h-3.9v-2.1c0-.2.02-.26.24-.44.16-.14.22-.2.22-.34,0-.22-.26-.26-.46-.26l-2.16-.08c.08,1.42.1,2.22.1,3.22H85.94v1.96h2.5c-.44,4.4-1.26,7.42-3.66,10.44l2.44.8c2.82-3.82,3.14-9.04,3.28-11.24h1.84a51,51,0,0,1-.52,7.62c-.28,1.82-.6,2.1-1.48,2.1a5.738,5.738,0,0,1-1.04-.1l.8,2.18c2.52-.1,3.26-.66,3.7-3.66A70.769,70.769,0,0,0,94.42,39.12Zm6.04,10.2H97.6V40.36h2.86Zm21.44-2.2-1.96-1.62c-1.96,3.84-4.64,4.54-5.76,4.54a1.929,1.929,0,0,1-1.76-.84,10.531,10.531,0,0,1-.38-3.54,75.592,75.592,0,0,1,.56-8c.32-.26.56-.42.56-.58,0-.12-.18-.26-.66-.32l-2.66-.38c.06,1.34-.1,7.28-.1,8.5,0,4.8.32,5.82,1.26,6.64a4.449,4.449,0,0,0,2.92,1.02,7.229,7.229,0,0,0,3.98-1.28A14.922,14.922,0,0,0,121.9,47.12Zm20.34-8.22V36.5a60.549,60.549,0,0,1-14.58,1.86l.4,2.36a76.473,76.473,0,0,1,7.62-.86c-.94.88-3.88,3.64-3.88,7.06,0,4.46,5,5.5,6.62,5.84l.7-2.52a5.936,5.936,0,0,1-3.48-.96,3.427,3.427,0,0,1-1.48-2.8c0-2,1.66-4.22,3.42-5.64A7.741,7.741,0,0,1,142.24,38.9Zm20.64,12.66V43.98h-9.12v8.98h2.18v-2.8h4.74v.56c0,.32-.14.52-.58.52a7.4,7.4,0,0,1-1.22-.16l.94,2.08C161.5,53.14,162.88,53.04,162.88,51.56Zm-2.2-5.22h-4.74V45.6h4.74Zm0,2.3h-4.74V47.8h4.74Zm3.44-5.46V41.54h-4.7v-.78h3.32v-1.5h-3.32v-.8h4.62V36.94h-4.62a.578.578,0,0,1,.3-.6c.06-.06.14-.12.14-.22,0-.08-.16-.16-.26-.16l-2.44-.18v1.16h-4.08v1.52h4.08v.8h-2.9v1.5h2.9v.78h-4.3l1.3-1.04a7.449,7.449,0,0,0-1.8-1.9l-.82.84V37c0-.22.2-.32.36-.4.12-.06.28-.12.28-.32,0-.18-.2-.22-.34-.24l-2.52-.28v17.2h2.22V39.98a7.518,7.518,0,0,1,1.2,1.58v1.62ZM149.24,39.8c0-.1-.02-.22-.4-.28l-1.86-.34a18.749,18.749,0,0,1-.92,4.66l1.88.54a19.488,19.488,0,0,0,.82-4.22C149,40.1,149.24,40.02,149.24,39.8Zm35.84,11.76a7.619,7.619,0,0,1-2.26-1.98,22.727,22.727,0,0,0,1.94-5.24l-.82-1.04H178.9V38.28h3.12V40.3a.489.489,0,0,1-.54.52h-1.24l.88,2h.9c1.46,0,2.22-.54,2.22-2.3V36.24h-7.46V52.98h2.12V51.6l1.5,1.28a9.493,9.493,0,0,0,1.26-1.44,9.536,9.536,0,0,0,1.86,1.68Zm-2.72-6.26a12.32,12.32,0,0,1-.78,2.28,10.028,10.028,0,0,1-.76-2.16l-1.74.98a14.8,14.8,0,0,0,1.32,3.28,8.341,8.341,0,0,1-1.5,1.68V45.3Zm-6.1-2.86v-1.9h-3.4V39.3h2.76V37.52h-2.76v-.76c0-.1.12-.2.32-.36a.271.271,0,0,0,.12-.22.212.212,0,0,0-.24-.2l-2.3-.1v1.64h-2.6V39.3h2.6v1.24h-3.5v1.9h1.92l-.5.2a13.946,13.946,0,0,1,.8,1.84h-1.84v2h3.12v1.18h-2.84v1.96h2.84v3.34h2.1V49.62h2.82V47.66h-2.82V46.48h3.1v-2h-1.6c.12-.28.28-.64.54-1.32.3-.16.42-.22.42-.36a.218.218,0,0,0-.2-.22l-.68-.14Zm-3.16,0a16.818,16.818,0,0,1-.66,2.04h-1.88l.78-.34a8.974,8.974,0,0,0-.7-1.7Zm32.06,1.46a16.468,16.468,0,0,1-5.38-4.32h5.02V37.6h-7.3v-.94c0-.12.18-.26.22-.28.04-.04.18-.14.18-.24,0-.22-.34-.26-.46-.26l-2.42-.1V37.6h-7.3v1.98H199.6l-1.4,1.44a18.851,18.851,0,0,0,3.22,3.14,14.921,14.921,0,0,0,2.24,1.66ZM194.6,41.1c0-.06-.08-.16-.3-.28l-1.84-1.08a12.845,12.845,0,0,1-2.5,2.92,13.881,13.881,0,0,1-2.36,1.92l1.72,1.34a31.324,31.324,0,0,0,4.82-4.64c.04-.04.06-.04.16-.04C194.46,41.24,194.6,41.24,194.6,41.1Zm9.94,9.98c-3.46-.74-4.94-1.5-6.66-2.9a12.779,12.779,0,0,0,2.38-3.88c.1-.26.12-.26.3-.3.1,0,.18-.02.18-.12s-.16-.18-.34-.26l-2-.82a9.438,9.438,0,0,1-2.04,3.86A16.263,16.263,0,0,1,194.22,43l-1.92,1.04a17.618,17.618,0,0,0,2.52,4.18,10.185,10.185,0,0,1-2.92,1.84,17.789,17.789,0,0,1-4.14,1.32l1.56,2a17.976,17.976,0,0,0,6.96-3.62,14.441,14.441,0,0,0,6.88,3.36Zm9.64,2.16c2.68-1.18,3.62-1.94,4.68-3.76a10.678,10.678,0,0,0,4.98,3.78l1.64-2c-2.88-.84-3.84-1.72-4.84-2.96h4.68V46.4h-.74V39.96H221.4a24.072,24.072,0,0,0,2.34-2.38l-1.16-.8h-3.36l.18-.22c.46-.08.64-.12.64-.32,0-.12-.06-.2-.72-.3l-1.9-.28a9.014,9.014,0,0,1-3.54,3l1.88,1.28a13.263,13.263,0,0,0,1.98-1.58h2.34a9.243,9.243,0,0,1-1.44,1.6H214.3V46.4h-1.26v1.9h4.12c-.94,1.44-2.04,2.24-4.6,3.14Zm2.08-8.48.8.6a5.027,5.027,0,0,0,1.76-2.54c.26-.1.38-.16.38-.3,0-.04,0-.22-.28-.32l-1.2-.46h1.6V43.6a1.016,1.016,0,0,0,1.02,1.12h1.24c.52,0,.72-.2,1.04-.66V46.4h-2.68c.04-.18.04-.2.1-.44.14-.12.38-.32.38-.54,0-.2-.5-.24-.68-.24l-1.86-.1a8.988,8.988,0,0,1-.12,1.32h-1.5Zm1.06-3.02a2.844,2.844,0,0,1-1.06,1.92V41.74Zm4.66.66c-.2.5-.4.96-.66.96s-.28-.26-.28-.48V41.74h1.58V42.9Zm-13.82,3.92c.06.44.08.78.3.78.12,0,.2-.12.4-.4.08-.1.12-.18.2-.22.04-.02.98-.42,1.1-.48v4.08c0,.54-.2.68-.8.68a4.941,4.941,0,0,1-1.2-.16l1,2.5c.9,0,3.26-.04,3.26-1.7V45.16c.6-.22.68-.26,1.3-.5V42.6c-.76.28-.94.36-1.3.48V40.74h1.38V38.82h-1.38V36.7c0-.08.28-.32.4-.42a.408.408,0,0,0,.16-.3c0-.18-.1-.22-.84-.24l-1.98-.06v3.14H208.2v1.92h1.96v3.02c-.78.24-1.46.44-2.22.64Zm36.94-3.96a9.226,9.226,0,0,0-1.66-1.52l-.84.96a9.259,9.259,0,0,1,1.66,1.52Zm-1.62,1.82a8.72,8.72,0,0,0-1.66-1.54l-.82.96a8.879,8.879,0,0,1,1.64,1.54Zm.66-5.22V36.64c-3.78,1.16-9.98,1.64-14.3,1.6l.34,2.24c2-.28,4.94-.52,7.62-.74a14.912,14.912,0,0,0-2.64,3.04,7.275,7.275,0,0,0-1.36,3.98,5.017,5.017,0,0,0,1.48,3.6,8.975,8.975,0,0,0,4.92,2.22l.78-2.44a6.3,6.3,0,0,1-3.52-1.02,3.174,3.174,0,0,1-1.44-2.6,7.424,7.424,0,0,1,2.44-4.8A8.15,8.15,0,0,1,244.14,38.96Zm19.52,2.76-.36-2a22.8,22.8,0,0,1-3.64,1.8c-.32-.7-.4-.9-.66-1.52a13.174,13.174,0,0,0,3.16-1.36l-.44-1.94a19.3,19.3,0,0,1-3.42,1.54,17.436,17.436,0,0,1-.6-1.84c0-.06.02-.12.18-.28.1-.1.16-.16.16-.26,0-.24-.5-.18-.66-.16l-2.28.26c.32.94.54,1.58,1,2.82a24.664,24.664,0,0,1-4.66.4l.62,1.92a22.961,22.961,0,0,0,4.76-.54c.2.46.42.96.72,1.64a26.513,26.513,0,0,1-6.3.6l.7,2.02a25.794,25.794,0,0,0,6.42-.88c.38.74.56,1.1,1.04,1.96a15.277,15.277,0,0,0-2.86-.32c-2.26,0-4.42.74-4.42,3.48,0,2.64,2.48,3.78,6.08,3.78a20.133,20.133,0,0,0,3.16-.24l.2-2.36a14.59,14.59,0,0,1-4,.54c-.68,0-3.28,0-3.28-1.7,0-1.08,1.1-1.64,2.42-1.64a11.261,11.261,0,0,1,5.24,1.52l1.22-1.52a21.711,21.711,0,0,1-2.64-4.16A14.833,14.833,0,0,0,263.66,41.72Zm20.56,7.94a16.627,16.627,0,0,0-5.06-2.26c-.06-1.18-.06-1.38-.1-2.38a42.992,42.992,0,0,0,4.28-.5V42.34c-1.84.34-2.58.46-4.32.68V40.66c1-.02,2.86-.06,5.08-.06l.08-2.12c-1.88.14-2.56.18-5.12.3.02-1.04.04-1.42.04-1.44a.65.65,0,0,1,.26-.36c.22-.18.26-.2.26-.28,0-.14-.12-.2-.5-.24l-2.44-.24.06,2.66c-1.78.04-2.86.08-5.14.08l.04,2.16c1.72-.2,2.86-.28,5.16-.38l.04,2.5a13.725,13.725,0,0,1-1.38.04c-.34,0-.76,0-.76-.28,0-.26.3-.48.66-.74l-1.14-.98c-.78.56-2.14,1.5-2.14,2.48,0,.78.92,1.44,2.76,1.44.58,0,1.68-.04,2.04-.06l.04,1.92-.56-.02c-4.5-.16-4.7,2.16-4.7,2.74,0,1.62,1.72,2.6,4.48,2.6,2.56,0,3.04-.8,3.12-2.84a15.076,15.076,0,0,1,3.66,1.98Zm-7.28-.7c.02,1.12-.06,1.48-1.36,1.48-.24,0-1.52,0-1.52-.68,0-.52.64-.86,1.94-.86A5.177,5.177,0,0,1,276.94,48.96Zm28.88-8.54V38.26c-2.04.16-2.66.22-5.44.38V36.58c0-.08.02-.12.16-.24s.18-.18.18-.3c0-.2-.12-.26-.58-.28l-2.22-.14c.12,1.46.12,2.52.14,3.14-4.2.2-5.92.2-7.28.2v2.32c2.54-.32,5.56-.5,7.34-.6l.04,1.5a2.638,2.638,0,0,0-.94-.16c-2.04,0-3.14,1.52-3.14,3.72a3.579,3.579,0,0,0,1.04,2.78,2.518,2.518,0,0,0,1.64.62,4.022,4.022,0,0,0,1.08-.2,6.382,6.382,0,0,1-2.86,3.28l2.24,1.16a13.876,13.876,0,0,0,2.72-3.72,8.968,8.968,0,0,0,1.02-3.86,5.158,5.158,0,0,0-.58-2.44v-2.8C302.98,40.46,304.3,40.42,305.82,40.42Zm-7.28,5.06c0,1.42-.96,1.86-1.38,1.86-.46,0-1.1-.46-1.1-1.66,0-1.06.56-1.76,1.36-1.76a1.041,1.041,0,0,1,.74.28A1.865,1.865,0,0,1,298.54,45.48Z" transform="translate(-4.34 -1.38)"/></svg>