<svg xmlns="http://www.w3.org/2000/svg" width="314.397" height="102.252" viewBox="0 0 314.397 102.252"><defs><style>.a{fill:#ba7394;}.b{fill:#231815;}.c{fill:#2f2f2f;}</style></defs><g transform="translate(-558 -970.748)"><rect class="a" width="184" height="10" transform="translate(558 1063)"/><g transform="translate(79.254 -16)"><g transform="translate(486.746 1029.133)"><path class="b" d="M4.72,53.579H0V0H4.72V28L33.359,0h6.059l-23.6,23.026L40.375,53.579H34.89L12.757,26.024,4.72,33.869Z"/><path class="b" d="M8.322,3.556a3,3,0,0,1,.957-2.3A2.806,2.806,0,0,1,11.511.366a2.87,2.87,0,0,1,2.3.893,3.253,3.253,0,0,1,.957,2.3,3.125,3.125,0,0,1-.957,2.3,3.157,3.157,0,0,1-4.529,0,2.934,2.934,0,0,1-.957-2.3Zm.957,48.093V14.335h4.465V51.649Z" transform="translate(42.822 1.93)"/><path class="b" d="M11.48,3.56a3.253,3.253,0,0,1,.957-2.3A2.87,2.87,0,0,1,14.8.371a2.807,2.807,0,0,1,2.232.893,2.806,2.806,0,0,1,.957,2.3,2.743,2.743,0,0,1-.957,2.3,3.157,3.157,0,0,1-4.529,0,3.125,3.125,0,0,1-1.021-2.3ZM12.5,51.653V14.339h4.465V51.653Z" transform="translate(55.973 1.926)"/><path class="b" d="M14.464,0H57.327V4.337H38.191V53.579H33.535V4.337H14.4Z" transform="translate(69.754)"/><path class="b" d="M27.346,24.047H55.6v4.337H27.346V49.241H58.154v4.337H22.69V0H57.771V4.337H27.346Z" transform="translate(112.417)"/></g><path class="c" d="M35.024.044V-5.588a57.022,57.022,0,0,1-13.6,1.98c-4.62,0-8.1-1.54-8.1-4.708,0-2.948,3.256-5.192,5.236-6.424a66.2,66.2,0,0,1,16.28-6.952L33.22-27.06c-5.412,2.552-5.984,2.816-11.044,5.192a5.357,5.357,0,0,1-2.552-2.992c-1.188-3.3-1.232-7.964-1.276-10.428l-5.632.836c1.408,8.4,1.628,9.68,2.244,11.132a13.856,13.856,0,0,0,2.6,3.96c-4.84,2.86-9.108,5.676-9.108,11.176A8.383,8.383,0,0,0,12.936-.66c2.2,1.144,4.488,1.76,9.68,1.76A78.928,78.928,0,0,0,35.024.044ZM84.48-6.38a35.217,35.217,0,0,0-7.568-4.136A108.092,108.092,0,0,1,76.3-22.308a41.107,41.107,0,0,0,5.5-1.232v-4.752a19.211,19.211,0,0,1-5.456,1.8,50.759,50.759,0,0,1,.616-5.456c.44-.264.836-.484.836-.7,0-.264-.132-.484-1.056-.616l-4.928-.792c-.088,4.356-.088,4.84-.176,8.14a34.831,34.831,0,0,1-4.092.264,22.9,22.9,0,0,1-3.96-.264l.044,4.532a48.909,48.909,0,0,0,7.964-.352c.088,2.992.22,4.84.572,10.076-.88-.088-1.8-.176-2.684-.176-4.268,0-7.744,1.716-7.744,5.676C61.732.176,69.124.176,70.4.176c5.984,0,6.864-2.288,6.952-5.676a23.539,23.539,0,0,1,4.62,3.476ZM59.356-10.252l-2.772-1.892L54.78-9.5a43.352,43.352,0,0,1-.22-4.62,111.8,111.8,0,0,1,1.628-13.64,12.578,12.578,0,0,1,.968-2.992,6.769,6.769,0,0,0,.836-.352.381.381,0,0,0,.176-.308c0-.44-.924-.836-1.056-.88l-4.268-1.672A83.412,83.412,0,0,0,50.16-13.376,47.333,47.333,0,0,0,51.832.264L55.88-.4C56.364-3.916,58.388-8.184,59.356-10.252ZM72.424-7.48c.088,2.288.176,3.3-2.728,3.3-2.6,0-3.872-.924-3.872-1.936s1.408-1.76,3.476-1.76A15.135,15.135,0,0,1,72.424-7.48Zm38.72-16.192c0-6.116-4.884-9.5-10.956-9.5-2.244,0-6.688.484-9.152,4.224a11.132,11.132,0,0,0-1.76,6.248h6.512c.044-1.276.22-5.1,4.576-5.1a4.3,4.3,0,0,1,4.488,4.532c0,1.76-.616,3.168-2.728,5.016-2.816,2.552-4.488,4-4.488,8.492v1.1H103V-10.34c0-1.672.044-2.816,3.256-5.06C110.176-18.172,111.144-20.724,111.144-23.672ZM103.488,0V-6.072h-5.94V0Z" transform="translate(682 1077)"/><path class="c" d="M-15.1-7.9l-.336-2.64-6.984.912-.552-3.072,5.16-.672-.36-2.5-5.232.672-.576-3.168c-.024-.12.384-.552.384-.648,0-.192-.192-.264-.72-.24l-2.52.144.744,4.3-5.736.72.336,2.5,5.808-.768.528,3.1-7.7,1.008.36,2.616,7.8-1.008,1.3,7.656,2.784-.552-1.32-7.464Zm22.608-8.88c0-.192-.312-.5-.408-.576L5.016-19.08A37.26,37.26,0,0,1-8.9-8.88l2.088,2.136A43.032,43.032,0,0,0-.768-10.152V.408h3V-12.384a30.73,30.73,0,0,0,3.96-3.744c.336-.36.384-.408.744-.432C7.416-16.584,7.512-16.608,7.512-16.776Zm22.32,1.152v-2.592H18.216v2.592Zm3.24,5.952v-2.472H14.952v2.472h8.064c-.12,4.68-1.608,6.984-6.408,8.712L18.96,1.008a11.191,11.191,0,0,0,5.328-4.464A12.324,12.324,0,0,0,25.8-9.672Z" transform="translate(572 1006)"/></g></g></svg>