<svg xmlns="http://www.w3.org/2000/svg" width="468.684" height="138.056" viewBox="0 0 468.684 138.056"><defs><style>.a{fill:#2f2f2f;}</style></defs><path class="a" d="M30.42,10.688,27.5,7.268a3.63,3.63,0,0,1-1.584.684H17.856c.36-.684.792-1.4,1.008-1.944.5-.144.9-.216.9-.5,0-.36-.72-.684-.936-.756l-3.708-1.4A31.352,31.352,0,0,1,5.184,17.168l3.564,2.448a49.809,49.809,0,0,0,6.84-8.028H24.8a28.7,28.7,0,0,1-4.752,9.468,31.381,31.381,0,0,1-11.268,9.4l3.924,2.7a34.978,34.978,0,0,0,9.756-8.532,42.284,42.284,0,0,0,6.408-12.2A3.75,3.75,0,0,1,30.42,10.688ZM67.176,30.7V7.016H42.228V30.56h4.284v-1.4h16.38V30.7Zm-4.284-5.616H46.512v-14h16.38Zm41.256-4.5V16.016h-25.6v4.572ZM145.4,3.452A13.087,13.087,0,0,0,142.668.428l-1.728,1.44a17.612,17.612,0,0,1,2.736,3.024ZM143.136,7.7a19.789,19.789,0,0,0-2.664-3.348l-1.764,1.4A19.112,19.112,0,0,1,141.372,9.1ZM141.7,27.572a65.833,65.833,0,0,0-9.576-8.892,46.417,46.417,0,0,0,4.14-7.992,4.485,4.485,0,0,1,1.98-2.268l-2.988-3.132A2.807,2.807,0,0,1,133.56,6.3H118.044v4.176h13.68a30.607,30.607,0,0,1-17.6,17.568l3.2,3.312c7.128-3.528,9.792-6.372,12.384-9.288a52.313,52.313,0,0,1,8.712,9ZM182.124,7.916a15.04,15.04,0,0,0-3.348-3.24L176.9,6.26a15.013,15.013,0,0,1,3.348,3.24Zm-4.1,2.34a14.907,14.907,0,0,0-3.24-3.168L172.8,8.672a14.908,14.908,0,0,1,3.24,3.168Zm-.18,10.332A43.259,43.259,0,0,0,166.248,13.1l-1.656,2.52V6.3c0-.18.9-.756.9-.972,0-.432-.792-.576-.864-.576l-4.464-.792V32.468h4.428V17.1A35.812,35.812,0,0,1,175,24.188Zm36.108,7.164a33.065,33.065,0,0,0-6.192-3.276,35.67,35.67,0,0,1-.468-5,3.3,3.3,0,0,1,1.368-2.88l-3.744-2.016a5.439,5.439,0,0,0-1.548,3.672c0,.756.432,4.428.5,5.256a18.168,18.168,0,0,0-2.808-.216c-4.968,0-6.372,3.168-6.372,5.112a4.076,4.076,0,0,0,1.332,3.06c1.512,1.332,3.564,1.692,5.868,1.692,4.716,0,5.8-1.512,6.12-4.392a19.817,19.817,0,0,1,3.564,2.376Zm-9.9-.648c0,1.3.036,2.808-2.88,2.808-1.98,0-2.988-.828-2.988-1.62,0-.72.864-1.728,2.736-1.728A12.089,12.089,0,0,1,204.048,27.1Zm10.908-14.4a17.792,17.792,0,0,0-8.028-3.312l-1.62,3.1a25.48,25.48,0,0,1,7.884,3.276Zm-10.728-1.872V6.8c-.936.324-2.016.684-4.14,1.224.144-.468.828-2.772.864-2.808.216-.216.828-.432.828-.792,0-.4-.684-.576-.864-.612l-3.924-.864a34.349,34.349,0,0,1-1.3,5.94,47.923,47.923,0,0,1-6.12.468l.54,3.744c1.692-.108,2.7-.216,4.356-.432a61.751,61.751,0,0,1-6.156,13.1l3.852,1.656a87.8,87.8,0,0,0,6.66-15.444C201.888,11.444,203,11.156,204.228,10.832ZM253.692,16.7H241.416a13.38,13.38,0,0,0,.756-1.4h9.468V3.344H235.26V15.3h2.556a21.235,21.235,0,0,1-6.444,7.92l2.664,2.664a18.166,18.166,0,0,0,1.4-1.332v3.564c0,1.512.684,2.376,2.664,2.376h5a3.63,3.63,0,0,0,1.62-.216l1.224,3.564c5.4-.072,6.372-1.08,6.876-4.752C253.08,27.14,253.512,22.316,253.692,16.7Zm-5.76-8.712h-8.964V6.44h8.964Zm0,4.212h-8.964V10.472h8.964Zm1.764,7.956c-.18,4.248-.612,7.488-.612,7.56-.288,1.836-1.008,1.944-1.692,1.944a12.874,12.874,0,0,1-1.62-.144,7.124,7.124,0,0,0,1.08-3.348l-3.132-1.116c-.072.684-.216,1.944-1.332,1.944h-2.376c-.9,0-.972-.252-1.008-.972,1.26-.432,3.312-1.116,5.472-2.052.432-.18.468-.216.684-.216.144,0,.864.108,1.008.108.324,0,.4-.216.4-.324,0-.252-.5-.684-.576-.72l-2.3-1.836A22.44,22.44,0,0,1,239,23.108V22.28c0-.144.072-.18.36-.468.252-.216.36-.324.36-.54,0-.324-.432-.468-.864-.612.072-.072.324-.432.4-.5Zm-15.48-.468V15.512c-1.044.468-1.908.792-3.384,1.332V12.488h3.384v-4h-3.384v-4c0-.18.036-.252.432-.648a.755.755,0,0,0,.252-.5c0-.324-.432-.432-1.224-.468l-3.456-.144v5.76h-3.78v4h3.78V18.1c-1.62.468-2.52.72-4.068,1.08l.108,3.924c0,.612.036,1.332.576,1.332.252,0,.288-.072.756-.648a1.485,1.485,0,0,1,.468-.36c.324-.108,1.44-.612,2.16-.972v6.048c0,1.116-.756,1.188-1.152,1.188-.36,0-.792,0-1.944-.072l1.62,4.212c4.1,0,5.472-.5,5.472-2.736V21.02C232.488,20.372,233.172,20.084,234.216,19.688Zm52.992-11.88v-4H263.016v4Zm2.844,20.052a66.45,66.45,0,0,0-7.632-10.008l-3.636,2.772A47.913,47.913,0,0,1,286.2,30.776Zm.18-11.88v-4h-30.2v4h12.888V27.752c0,1.224-.684,1.44-1.584,1.44a31.213,31.213,0,0,1-3.168-.216l1.764,4.608c4.14-.144,7.2-.252,7.2-3.2V15.98Zm-19.476,4c0-.324-.288-.576-1.332-.864l-3.348-.972a53.336,53.336,0,0,1-6.48,10.512l3.636,2.232a66.852,66.852,0,0,0,6.3-10.08c.108-.18.18-.18.864-.468C270.576,20.264,270.756,20.192,270.756,19.976Zm57.78,11.448c-3.96-1.944-5.436-3.384-6.984-5.328,1.8-2.844,3.384-5.8,4.608-12.6l-1.44-1.26H313.668c0-2.3,0-2.844-.072-4.86H327.2V3.488h-17.46c.144,4.68.18,10.764.18,11.664a31.828,31.828,0,0,1-1.98,12.132,14.023,14.023,0,0,1-2.844,4.428l3.42,2.16a8.447,8.447,0,0,0,1.656-1.908l2.268,1.98a22.77,22.77,0,0,0,6.7-4.788,21.6,21.6,0,0,0,5.58,4.968Zm-6.948-15.156a20.316,20.316,0,0,1-2.088,5.94,20.687,20.687,0,0,1-1.152-5.94Zm-4.464,9.576a15.967,15.967,0,0,1-5.976,4.356c1.476-3.564,2.2-6.84,2.52-13.932h1.044A22.834,22.834,0,0,0,317.124,25.844ZM309.492,19.8a18.12,18.12,0,0,1-4.788-7.344v-.36h3.816V7.952H304.7V4.244c0-.144.108-.252.4-.468.18-.108.4-.252.4-.432,0-.4-.612-.4-.972-.432l-4-.252V7.952H296.28v4.14h4.248a32.686,32.686,0,0,1-5.544,13.068l3.6,1.944a15.787,15.787,0,0,0,1.944-3.24V33.8H304.7V20.228A10.625,10.625,0,0,0,306.4,22.28Zm53.388-5.148a16.607,16.607,0,0,0-2.988-2.736L358.38,13.64a16.666,16.666,0,0,1,2.988,2.736Zm-2.916,3.276a15.7,15.7,0,0,0-2.988-2.772L355.5,16.88a15.983,15.983,0,0,1,2.952,2.772Zm1.188-9.4V4.352c-6.8,2.088-17.964,2.952-25.74,2.88l.612,4.032c3.6-.5,8.892-.936,13.716-1.332a26.842,26.842,0,0,0-4.752,5.472,13.1,13.1,0,0,0-2.448,7.164,9.031,9.031,0,0,0,2.664,6.48c2.916,2.916,6.948,3.672,8.856,4l1.4-4.392a11.338,11.338,0,0,1-6.336-1.836,5.713,5.713,0,0,1-2.592-4.68c0-2.736,1.728-5.976,4.392-8.64C355.5,8.888,359.46,8.636,361.152,8.528Zm38.988,2.448V7.952H389.376c.036-.4.072-.72.072-1.116,2.2-.036,4.392-.216,5.94-.36.5-.036,1.3-.144,1.872-.18.216.036.756.144.864.144.144,0,.324,0,.324-.288A1.121,1.121,0,0,0,398.2,5.5l-1.98-2.844a28.857,28.857,0,0,1-4.536,1.008,26.8,26.8,0,0,1-4.536.288l-1.62-.252a14.4,14.4,0,0,1,.324,3.024,8.168,8.168,0,0,1-2.772,6.516l2.7,1.908h-11.3V28.58h3.168A19.222,19.222,0,0,1,371.2,30.6l2.376,3.2a32.545,32.545,0,0,0,8.568-3.24,3.183,3.183,0,0,0,.864.18c.288,0,.54-.072.54-.324a.8.8,0,0,0-.288-.576L382,28.58h6.012l-.972,1.224a25.864,25.864,0,0,0,9.684,3.924l2.34-3.384a26.205,26.205,0,0,1-6.228-1.764h3.132V15.152h-9.648a9.542,9.542,0,0,0,2.52-4.176h2.376V14.36h3.78V10.976Zm-8.1,11.484H378.4V21.2H392.04Zm0-3.528H378.4V17.708H392.04Zm0,7.092H378.4V24.692H392.04Zm-7.524-14.868V8.168h-9.072c.036-.72.036-.936.036-1.332,3.168-.036,5.9-.288,6.264-.324.216,0,.936-.072,1.152-.108.18.036.792.18.9.18a.265.265,0,0,0,.288-.288,1.3,1.3,0,0,0-.252-.684l-1.62-2.736a41.752,41.752,0,0,1-9.684,1.008l-1.008-.108a24.739,24.739,0,0,1,.288,3.708,13.009,13.009,0,0,1-.828,5,7.4,7.4,0,0,1-1.62,2.376l3.312,1.836a9.775,9.775,0,0,0,2.484-5.544h2.412v3.2h3.744v-3.2ZM436.536,30.2V3.6H423.5v12.24h9.144V28.472c0,1.044-.36,1.4-1.188,1.4a20.4,20.4,0,0,1-2.16-.144l1.872,4.176h1.8C435.852,33.908,436.536,32.792,436.536,30.2ZM432.648,8.312h-5.22V6.4h5.22Zm0,4.716h-5.22v-1.98h5.22Zm-12.1,2.808V3.6H407.34V33.8h4V15.836Zm-3.888-7.524h-5.328V6.4h5.328Zm0,4.716h-5.328v-1.98h5.328Zm11.988,15.336v-10.3H415.044V30.056h4V28.364Zm-4-3.2H419.04V21.272h5.616ZM473.04,14.648a16.607,16.607,0,0,0-2.988-2.736L468.54,13.64a16.666,16.666,0,0,1,2.988,2.736Zm-2.916,3.276a15.7,15.7,0,0,0-2.988-2.772L465.66,16.88a15.982,15.982,0,0,1,2.952,2.772Zm1.188-9.4V4.352c-6.8,2.088-17.964,2.952-25.74,2.88l.612,4.032c3.6-.5,8.892-.936,13.716-1.332a26.842,26.842,0,0,0-4.752,5.472,13.1,13.1,0,0,0-2.448,7.164,9.031,9.031,0,0,0,2.664,6.48c2.916,2.916,6.948,3.672,8.856,4l1.4-4.392a11.338,11.338,0,0,1-6.336-1.836,5.713,5.713,0,0,1-2.592-4.68c0-2.736,1.728-5.976,4.392-8.64C465.66,8.888,469.62,8.636,471.312,8.528ZM29.088,65.5l-.648-3.6a41.044,41.044,0,0,1-6.552,3.24c-.576-1.26-.72-1.62-1.188-2.736a23.713,23.713,0,0,0,5.688-2.448L25.6,56.46a34.748,34.748,0,0,1-6.156,2.772,31.379,31.379,0,0,1-1.08-3.312c0-.108.036-.216.324-.5.18-.18.288-.288.288-.468,0-.432-.9-.324-1.188-.288l-4.1.468c.576,1.692.972,2.844,1.8,5.076a44.4,44.4,0,0,1-8.388.72L8.208,64.38a41.33,41.33,0,0,0,8.568-.972c.36.828.756,1.728,1.3,2.952a47.722,47.722,0,0,1-11.34,1.08l1.26,3.636a46.43,46.43,0,0,0,11.556-1.584c.684,1.332,1.008,1.98,1.872,3.528a27.5,27.5,0,0,0-5.148-.576c-4.068,0-7.956,1.332-7.956,6.264,0,4.752,4.464,6.8,10.944,6.8a36.24,36.24,0,0,0,5.688-.432l.36-4.248a26.263,26.263,0,0,1-7.2.972c-1.224,0-5.9,0-5.9-3.06,0-1.944,1.98-2.952,4.356-2.952a20.27,20.27,0,0,1,9.432,2.736l2.2-2.736A39.08,39.08,0,0,1,23.436,68.3,26.7,26.7,0,0,0,29.088,65.5Zm9.864,12.6A29.6,29.6,0,0,1,45.9,86.088L49.644,83.1a21.175,21.175,0,0,0-7.992-7.812ZM85.824,79.68a33.4,33.4,0,0,0-10.008-4.788c-.288-4.572-.288-5.724-.252-8.784.72.072,1.692.108,2.412.108a27.948,27.948,0,0,0,6.552-.864V61.176A17.954,17.954,0,0,1,77.22,62.4a8.76,8.76,0,0,1-1.512-.072c0-1.26.108-3.888.18-4.356.036-.288.216-.4.432-.54.432-.288.468-.324.468-.468,0-.324-.684-.432-.864-.468l-4.32-.612V58.44c0,6.3-.036,7.236.216,15.588a19.769,19.769,0,0,0-2.628-.18c-5.256,0-8.388,2.484-8.388,5.616,0,2.448,1.98,5.076,8.532,5.076,5.868,0,6.984-2.088,6.768-5.616a29.5,29.5,0,0,1,7.452,4.392ZM71.892,77.664c0,1.584.036,3.384-2.844,3.384-1.188,0-3.852-.324-3.852-1.836,0-1.044,1.26-1.872,3.528-1.872A18.655,18.655,0,0,1,71.892,77.664Zm48.348-10.44c0-2.376-.216-5.04-.432-7.56-.036-.36-.216-1.872-.216-2.2s.648-.54.648-.864c0-.468-.648-.468-.756-.468h-4.356a93.927,93.927,0,0,1,.9,11.2,21.88,21.88,0,0,1-2.2,9.648,15.889,15.889,0,0,1-5.112,6.084L113,85.332a24.1,24.1,0,0,0,5.04-7.38A26.554,26.554,0,0,0,120.24,67.224Zm-11.556-1.116-2.52-1.656c-.9,2.016-1.62,3.888-2.088,5.112a8.111,8.111,0,0,1-.252-2.232c0-2.16.576-9.036,1.332-9.648.144-.144.5-.288.5-.54,0-.36-.54-.432-.756-.432L100.98,56.5a68.139,68.139,0,0,0-1.008,10.656,28.381,28.381,0,0,0,1.62,9.792h3.06A83.365,83.365,0,0,1,108.684,66.108Zm55.224,1.368a15.4,15.4,0,0,1-6.732-4c1.512-1.188,1.728-1.368,3.78-3.132.576-.5.612-.54,1.152-.54.216,0,.612,0,.612-.324,0-.288-.684-.648-.936-.756l-3.312-1.584a23.732,23.732,0,0,1-3.6,3.852V56.784c0-.144.036-.18.612-.576.18-.108.288-.216.288-.4,0-.324-.324-.432-.972-.468l-3.744-.288v4l-.72-.648H144.72v3.384h2.556a12.218,12.218,0,0,1-3.1,4.932V55.56H132.264V67.368h4.32v12.96l-1.044.252V70.14c0-.18.108-.216.468-.5a.405.405,0,0,0,.252-.36c0-.288-.324-.4-.972-.432l-3.1-.216V81.3c-.5.108-.648.108-1.656.252l1.116,3.42c.072.216.288.936.612.936.144,0,.144-.036.468-.54.216-.324.432-.36,1.188-.54.36-.108,2.016-.432,2.34-.54,2.556-.72,5.148-1.44,7.668-2.34l.216-3.528c-.972.324-1.872.576-3.78,1.044V74.6h3.816V71.112h-3.816V67.368h3.024a5.029,5.029,0,0,1-1.3.828l3.708,1.872a13.6,13.6,0,0,0,2.376-2.664l1.872,3.24h1.944a2.724,2.724,0,0,0,2.88-2.592v-2.52a15.1,15.1,0,0,0,6.3,5.184ZM151.056,65.64a.983.983,0,0,1-1.08,1.116c-.144,0-1.116-.072-1.3-.108a23.886,23.886,0,0,0,2.376-5.328ZM140.544,64.2h-4.536V59.016h4.536Zm20.2,21.2V70.968H145.008V85.4h4.068V84.54H156.6V85.4ZM156.6,76.08h-7.524V74.316H156.6Zm0,5.256h-7.524V79.068H156.6Zm41.724-6.624c-1.548-1.008-2.664-1.692-4.644-2.808A43.455,43.455,0,0,0,194.9,66.54c.108-.5.108-.576.4-.756.5-.252.54-.288.54-.468,0-.324-.5-.5-.864-.612l-4.032-1.116a30.608,30.608,0,0,1-.936,6.588,23.166,23.166,0,0,0-6.948-1.656c.5-1.116,3.06-6.912,3.1-7.056a14.674,14.674,0,0,1,1.872-3.06l-2.376-2.376c-1.944,1.26-6.192,1.98-11.736,1.944l1.62,3.636a25.126,25.126,0,0,0,6.552-1.116,83.365,83.365,0,0,1-2.916,7.812,9.714,9.714,0,0,0-5.724,1.728A8.947,8.947,0,0,0,169.2,77.16c0,2.664,1.62,4.644,4.068,4.644,3.168,0,4.716-2.3,8.28-9.936a22.288,22.288,0,0,1,7.2,2.016c-2.16,4.572-4,6.408-7.164,8.46l3.564,2.484c3.348-2.484,5.04-4.5,7.128-8.964.828.54,1.836,1.224,3.744,2.7Zm-20.772-2.736a40.882,40.882,0,0,1-2.376,4.464,1.642,1.642,0,0,1-1.512.864c-.252,0-.72-.036-.72-.972C172.944,75,174.456,72.948,177.552,71.976Zm58.428,4.068c-6.624-4.5-7.848-9-7.92-20.664h-9.792v4.212h5.364c.036.648.072,1.224.18,2.232l-2.232-.612c-1.152,7.74-3.708,11.16-7.7,14.832l3.564,2.52a23.419,23.419,0,0,0,4.5-5.544,24.916,24.916,0,0,0,2.7-6.264c2.16,7.776,4.356,10.08,7.884,12.564ZM214.092,59.412c-3.24-3.168-4.716-3.924-5.724-4.464l-2.916,3.1A26.043,26.043,0,0,1,211,62.328Zm23.472,20.412a59.236,59.236,0,0,1-7.812,1.008c-2.7.216-5.364.36-8.064.36-6.8,0-8.316-1.224-8.316-4.284V67.764h-8.5v3.96h4.356v6.7A37.721,37.721,0,0,1,204.3,80.8l1.548,4.14c.108.252.288.648.612.648.252,0,.288-.108.612-.828.108-.288.108-.288.432-.5,1.872-1.3,3.672-2.7,4.032-2.988a6.231,6.231,0,0,0,1.512,1.836c1.008.756,2.232,1.584,5.436,1.584h16.452Zm34.308-1.908-2.34-3.456c-1.332,1.944-3.888,5.472-6.372,5.472-.9,0-1.476-.432-1.476-1.692,0-.9.828-4.86.828-5.688a4.131,4.131,0,0,0-4.5-4.356,10.562,10.562,0,0,0-3.6.756c2.232-5.148,4.752-9.468,5.292-9.648a6.474,6.474,0,0,1,.792-.216.383.383,0,0,0,.288-.324c0-.36-.648-.684-.864-.792l-4.068-2.16c-.468,1.152-.972,2.3-2.2,4.932-1.62,3.456-2.52,5.22-11.2,22L246.888,84c2.088-5.8,4-8.424,4.536-9,1.008-1.152,2.808-2.7,4.788-2.7a1.732,1.732,0,0,1,1.872,1.908c0,.576-.72,4.752-.72,5.652,0,.216,0,4.428,4.932,4.428C267.7,84.288,270.54,79.968,271.872,77.916Zm33.3-7.02v-3.42a27.373,27.373,0,0,0-3.348-.144,48.454,48.454,0,0,0-5.976.36v3.456A41.835,41.835,0,0,1,305.172,70.9Zm-7.488-6.588V60.384a18.544,18.544,0,0,1-5.328,2.124c.252-1.044.612-2.772.648-2.952.108-.756.108-.864.36-1.008.576-.432.648-.468.648-.612,0-.252-.216-.4-.792-.54l-4.068-1.008a35.4,35.4,0,0,1-.972,7.092,30.017,30.017,0,0,1-6.012.432l.252,3.384a14.638,14.638,0,0,0,2.16-.216c.288-.036,2.772-.4,2.772-.4A57.458,57.458,0,0,1,280.764,83.1l4,1.152a101.511,101.511,0,0,0,6.768-18.216A33.692,33.692,0,0,0,297.684,64.308Zm9.288-5.184a21.2,21.2,0,0,0-2.736-2.808l-1.548,1.548a20.857,20.857,0,0,1,2.7,2.772ZM303.192,61a26.15,26.15,0,0,0-2.844-2.916l-1.512,1.44a23.277,23.277,0,0,1,2.844,2.916Zm2.664,22.68-.432-3.816a21.24,21.24,0,0,1-5.832.72c-.648,0-3.2,0-4.1-.792a1.2,1.2,0,0,1-.468-.972,8.28,8.28,0,0,1,.144-1.368l-3.348-.5a9.825,9.825,0,0,0-.216,2.124c0,4.9,4.572,5.112,8.064,5.112A31.528,31.528,0,0,0,305.856,83.676ZM346,67.728V64.236h-7.02V59.412c2.232-.36,3.636-.684,4-.792a6.951,6.951,0,0,1,1.476-.288,9.415,9.415,0,0,0,1.008,0,.2.2,0,0,0,.18-.216.44.44,0,0,0-.108-.324l-2.664-3.168c-4.32,1.836-9.612,2.412-14.508,2.448l1.4,3.276a49.439,49.439,0,0,0,5.04-.324v4.212h-6.7v3.492h6.7v4.5h-5.328V85.3h3.78V84.144h7.524v.864h3.96V72.228h-5.76v-4.5Zm-19.908-9V55.452h-9.036v3.276Zm14.688,21.888h-7.524v-4.86h7.524Zm-14.22-12.564V64.884H316.8v3.168Zm-.144,4.68V69.6H316.8v3.132Zm.72,12.24V74.28H315.72V85.548h3.564V84h4.176v.972Zm-3.672-4.32h-4.176V77.736h4.176Zm4.716-17.208V60.132H315v3.312ZM382.32,78.78a28.815,28.815,0,0,0-6.192-3.384,88.437,88.437,0,0,1-.5-9.648,33.634,33.634,0,0,0,4.5-1.008V60.852a15.718,15.718,0,0,1-4.464,1.476,41.536,41.536,0,0,1,.5-4.464c.36-.216.684-.4.684-.576,0-.216-.108-.4-.864-.5l-4.032-.648c-.072,3.564-.072,3.96-.144,6.66a28.5,28.5,0,0,1-3.348.216,18.74,18.74,0,0,1-3.24-.216l.036,3.708a40.017,40.017,0,0,0,6.516-.288c.072,2.448.18,3.96.468,8.244-.72-.072-1.476-.144-2.2-.144-3.492,0-6.336,1.4-6.336,4.644,0,5.184,6.048,5.184,7.092,5.184,4.9,0,5.616-1.872,5.688-4.644a19.259,19.259,0,0,1,3.78,2.844Zm-20.556-3.168L359.5,74.064l-1.476,2.16a35.472,35.472,0,0,1-.18-3.78,91.479,91.479,0,0,1,1.332-11.16,10.29,10.29,0,0,1,.792-2.448,5.538,5.538,0,0,0,.684-.288.312.312,0,0,0,.144-.252c0-.36-.756-.684-.864-.72l-3.492-1.368a68.246,68.246,0,0,0-2.2,16.848,38.728,38.728,0,0,0,1.368,11.16l3.312-.54A31.618,31.618,0,0,1,361.764,75.612Zm10.692,2.268c.072,1.872.144,2.7-2.232,2.7-2.124,0-3.168-.756-3.168-1.584s1.152-1.44,2.844-1.44A12.383,12.383,0,0,1,372.456,77.88Zm46.368,7.56V55.488H398.268v30.06h3.924v-1.26H414.9V85.44ZM414.9,80.9H402.192V58.872H414.9Zm-.648-14.8V63.156h-3.924V61.392c0-.252.216-.432.432-.576a.669.669,0,0,0,.324-.54c0-.36-.612-.36-1.188-.4l-2.916-.108v3.384h-4.068v2.952h4.068v2.52H403.6V78.672h9.9V68.628h-3.168v-2.52ZM410.22,75.54h-3.348V71.76h3.348ZM398.16,56.784c0-.324-.216-.612-1.08-.936l-3.672-1.332a24.491,24.491,0,0,1-6.984,12.96l3.456,2.808a15.007,15.007,0,0,0,1.548-1.872V85.764h3.852V64.344c0-.216.216-.4.576-.72a.578.578,0,0,0,.18-.4c0-.36-.468-.612-1.008-.828.288-.648,2.2-4.824,2.232-4.86.108-.108.144-.144.576-.288A.453.453,0,0,0,398.16,56.784Zm43.236,9.9V55.812H426.744V66.684h3.384C430.02,75.432,428.4,79,424.692,83.568l3.6,1.656c3.276-4.716,4.212-7.2,5.148-11.988h3.708c.036,7.308-.252,8.856-2.88,8.856-.4,0-1.116-.108-1.512-.144l1.368,3.6c6.084-.5,6.732-.792,6.768-15.984h-7.056c.036-.684.072-1.152.072-2.88Zm-3.816-3.672h-7.056V59.52h7.056Zm18.18-7.092c0-.4-.18-.4-1.764-.54l-2.664-.252V80.58c0,.9-.4,1.26-1.728,1.26a19.335,19.335,0,0,1-1.944-.18L449.1,85.4c4.1-.072,5.9-.54,5.9-2.88V56.964c0-.216.288-.468.36-.54C455.544,56.28,455.76,56.1,455.76,55.92Zm-7.776,2.844c0-.36-.432-.432-1.764-.54l-2.664-.216V78.2h3.672V59.844c0-.18.216-.4.36-.5C447.768,59.2,447.984,58.98,447.984,58.764ZM31.644,123.076v-4H22.032c0-.612.036-.792.036-1.728.036-1.26-.072-3.276-.108-4.572a33.271,33.271,0,0,0,4.572-1.764,1.209,1.209,0,0,1,.54-.144h1.152a.24.24,0,0,0,.18-.252c0-.252-.324-.612-.432-.72l-2.952-2.736a44.953,44.953,0,0,1-17.928,4.572l1.944,3.6a55.383,55.383,0,0,0,8.424-1.368,13.013,13.013,0,0,1,.216,2.88c0,1.188-.036,1.872-.072,2.232H4.356v4H17.172c-1.188,5.364-3.744,8.1-9.576,11.412l3.492,3.06c6.084-3.96,9.036-7.344,10.476-14.472Zm34.884-3.564-2.916-2.124a2.141,2.141,0,0,1-1.224.936l-8.424,1.62-.972-4.752c-.036-.18.144-.432.216-.54.288-.36.288-.432.288-.5,0-.4-.756-.36-.936-.324l-3.42.4,1.188,6.444-7.272,1.4,1.3,3.24,6.588-1.368,2.484,13.9,3.852-.9-2.7-13.752,6.552-1.332c-.684,1.188-.756,1.3-1.44,2.412-1.008,1.656-1.116,1.872-1.728,2.916l3.276,1.4C63.72,124.228,64.944,122.14,66.528,119.512Zm26.46,1.692a21.616,21.616,0,0,0-2.448-5.832l-3.2,1.224a22.95,22.95,0,0,1,2.556,5.832Zm9.468-3.852c0-.252-.252-.5-.72-.648l-3.528-1.08c-1.368,10.188-6.264,15.12-13.248,18.576l2.88,2.556c3.456-2.016,10.728-6.228,13.428-17.28.36-1.4.4-1.548.72-1.728C102.384,117.6,102.456,117.568,102.456,117.352Zm-15.84,5.58a23.085,23.085,0,0,0-2.772-5.8l-3.312,1.26a22.449,22.449,0,0,1,2.736,5.8Zm54.9,1.728a44.069,44.069,0,0,0-5.616-4.32,32.148,32.148,0,0,0-6.12-3.276l-1.692,2.664V110.26c0-.18.936-.756.936-.972,0-.432-.756-.54-.864-.576l-4.32-.756v28.512h4.248V120.916a36.648,36.648,0,0,1,10.584,7.2Zm37.764-6.012a16.608,16.608,0,0,0-2.988-2.736l-1.512,1.728a16.667,16.667,0,0,1,2.988,2.736Zm-2.916,3.276a15.7,15.7,0,0,0-2.988-2.772L171.9,120.88a15.984,15.984,0,0,1,2.952,2.772Zm1.188-9.4v-4.176c-6.8,2.088-17.964,2.952-25.74,2.88l.612,4.032c3.6-.5,8.892-.936,13.716-1.332a26.842,26.842,0,0,0-4.752,5.472,13.1,13.1,0,0,0-2.448,7.164,9.031,9.031,0,0,0,2.664,6.48c2.916,2.916,6.948,3.672,8.856,4l1.4-4.392a11.338,11.338,0,0,1-6.336-1.836,5.713,5.713,0,0,1-2.592-4.68c0-2.736,1.728-5.976,4.392-8.64C171.9,112.888,175.86,112.636,177.552,112.528Zm38.916,24.732V107.668H201.1v29.844h3.96v-2.16h7.38v1.908Zm-4.032-14.04h-7.38v-4.284h7.38Zm0-7.776h-7.38V111.16h7.38Zm0,16.236h-7.38v-4.968h7.38Zm-12.1-8.316c-2.016-2.268-4.176-5.184-4.9-7.416v-.4h4.716v-3.42h-4.716v-3.888c0-.108.18-.252.36-.4s.216-.252.216-.324c0-.4-.756-.432-.972-.468l-3.276-.324v5.4H186.48v3.42h4.968a30.443,30.443,0,0,1-6.48,12.636l3.348,1.98a29.086,29.086,0,0,0,3.456-5.184v12.528h3.672V123.076a33.308,33.308,0,0,0,2.232,2.952Zm32.58-12.672v-3.1h-8.46v3.1Zm1.044,4.5v-3.024H223.056v3.024Zm19.8,19.3c-7.2-2.484-8.208-6.48-8.208-10.44a.824.824,0,0,1,.4-.864c.432-.4.612-.576.612-.864,0-.324-.288-.468-1.4-.468l-3.852-.036c.036.576.108,1.44.108,2.34,0,8.64-5.508,9.972-7.74,10.44V126.28H223.524v11.3h3.564v-1.44h2.988v1.116h3.6v-2.268l2.916,3.132a12.462,12.462,0,0,0,7.2-6.372,16.014,16.014,0,0,0,6.912,6.084Zm-23.688-1.4h-2.988v-3.672h2.988Zm23.364-22.032c0-.252-.288-.468-.432-.54l-3.384-1.836a21.522,21.522,0,0,1-3.564,4.356l2.88,2.268a16.536,16.536,0,0,0,3.2-3.6c.18-.216.252-.216.792-.252C253.08,111.412,253.44,111.376,253.44,111.052Zm.756,9.072a18.69,18.69,0,0,1-6.876-3.672,5.814,5.814,0,0,1-1.944-4.824,15.217,15.217,0,0,1,.216-3.492,3.951,3.951,0,0,0,.4-.432.578.578,0,0,0,.18-.4c0-.324-.4-.4-1.368-.432l-3.6-.072c.072.864.144,1.98.144,3.2,0,5.04-.936,8.1-7.632,10.116l2.772,3.2a14.8,14.8,0,0,0,7.092-5.832,16.507,16.507,0,0,0,7.524,5.976Zm-14.436-9.252c0-.216-.288-.288-.792-.4l-3.312-.612a23.617,23.617,0,0,1-.792,5.724l3.528.648a31.071,31.071,0,0,0,.648-4.68C239.328,111.412,239.76,111.16,239.76,110.872Zm13.356,14.8c0-.252-.4-.54-.576-.612l-3.348-1.4a19.845,19.845,0,0,1-2.592,4l3.1,2.016a16.577,16.577,0,0,0,2.232-3.456c.18-.036.4-.144.648-.18C252.936,125.956,253.116,125.884,253.116,125.668Zm-20.16-5.94v-3.06h-8.64v3.06Zm7.416,5.94c0-.216-.252-.324-.792-.432l-3.6-.756a16.09,16.09,0,0,1-1.476,5.436l3.6,1.188a19.655,19.655,0,0,0,1.512-4.788C239.9,126.172,240.372,125.956,240.372,125.668Zm-7.416-1.116v-3.024h-8.64v3.024Zm56.484-5.9a16.606,16.606,0,0,0-2.988-2.736l-1.512,1.728a16.666,16.666,0,0,1,2.988,2.736Zm-2.916,3.276a15.7,15.7,0,0,0-2.988-2.772l-1.476,1.728a15.983,15.983,0,0,1,2.952,2.772Zm1.188-9.4v-4.176c-6.8,2.088-17.964,2.952-25.74,2.88l.612,4.032c3.6-.5,8.892-.936,13.716-1.332a26.842,26.842,0,0,0-4.752,5.472,13.1,13.1,0,0,0-2.448,7.164,9.031,9.031,0,0,0,2.664,6.48c2.916,2.916,6.948,3.672,8.856,4l1.4-4.392a11.338,11.338,0,0,1-6.336-1.836,5.713,5.713,0,0,1-2.592-4.68c0-2.736,1.728-5.976,4.392-8.64C282.06,112.888,286.02,112.636,287.712,112.528Zm35.136,4.968-.648-3.6a41.044,41.044,0,0,1-6.552,3.24c-.576-1.26-.72-1.62-1.188-2.736a23.713,23.713,0,0,0,5.688-2.448l-.792-3.492a34.748,34.748,0,0,1-6.156,2.772,31.376,31.376,0,0,1-1.08-3.312c0-.108.036-.216.324-.5.18-.18.288-.288.288-.468,0-.432-.9-.324-1.188-.288l-4.1.468c.576,1.692.972,2.844,1.8,5.076a44.4,44.4,0,0,1-8.388.72l1.116,3.456a41.33,41.33,0,0,0,8.568-.972c.36.828.756,1.728,1.3,2.952a47.722,47.722,0,0,1-11.34,1.08l1.26,3.636a46.43,46.43,0,0,0,11.556-1.584c.684,1.332,1.008,1.98,1.872,3.528a27.5,27.5,0,0,0-5.148-.576c-4.068,0-7.956,1.332-7.956,6.264,0,4.752,4.464,6.8,10.944,6.8a36.241,36.241,0,0,0,5.688-.432l.36-4.248a26.262,26.262,0,0,1-7.2.972c-1.224,0-5.9,0-5.9-3.06,0-1.944,1.98-2.952,4.356-2.952a20.27,20.27,0,0,1,9.432,2.736l2.2-2.736A39.081,39.081,0,0,1,317.2,120.3,26.7,26.7,0,0,0,322.848,117.5Zm37.008,14.292a29.928,29.928,0,0,0-9.108-4.068c-.108-2.124-.108-2.484-.18-4.284a77.381,77.381,0,0,0,7.7-.9v-3.924c-3.312.612-4.644.828-7.776,1.224v-4.248c1.8-.036,5.148-.108,9.144-.108l.144-3.816c-3.384.252-4.608.324-9.216.54.036-1.872.072-2.556.072-2.592a1.17,1.17,0,0,1,.468-.648c.4-.324.468-.36.468-.5,0-.252-.216-.36-.9-.432l-4.392-.432.108,4.788c-3.2.072-5.148.144-9.252.144l.072,3.888c3.1-.36,5.148-.5,9.288-.684l.072,4.5a24.707,24.707,0,0,1-2.484.072c-.612,0-1.368,0-1.368-.5,0-.468.54-.864,1.188-1.332l-2.052-1.764c-1.4,1.008-3.852,2.7-3.852,4.464,0,1.4,1.656,2.592,4.968,2.592,1.044,0,3.024-.072,3.672-.108l.072,3.456-1.008-.036c-8.1-.288-8.46,3.888-8.46,4.932,0,2.916,3.1,4.68,8.064,4.68,4.608,0,5.472-1.44,5.616-5.112a27.137,27.137,0,0,1,6.588,3.564Zm-13.1-1.26c.036,2.016-.108,2.664-2.448,2.664-.432,0-2.736,0-2.736-1.224,0-.936,1.152-1.548,3.492-1.548A9.319,9.319,0,0,1,346.752,130.528Zm51.984-15.372v-3.888c-3.672.288-4.788.4-9.792.684v-3.708c0-.144.036-.216.288-.432s.324-.324.324-.54c0-.36-.216-.468-1.044-.5l-4-.252c.216,2.628.216,4.536.252,5.652-7.56.36-10.656.36-13.1.36V116.7c4.572-.576,10.008-.9,13.212-1.08l.072,2.7a4.748,4.748,0,0,0-1.692-.288c-3.672,0-5.652,2.736-5.652,6.7a6.442,6.442,0,0,0,1.872,5,4.533,4.533,0,0,0,2.952,1.116,7.239,7.239,0,0,0,1.944-.36c-.792,2.628-2.988,4.5-5.148,5.9l4.032,2.088a24.976,24.976,0,0,0,4.9-6.7,16.142,16.142,0,0,0,1.836-6.948,9.285,9.285,0,0,0-1.044-4.392v-5.04C393.624,115.228,396,115.156,398.736,115.156Zm-13.1,9.108c0,2.556-1.728,3.348-2.484,3.348-.828,0-1.98-.828-1.98-2.988,0-1.908,1.008-3.168,2.448-3.168a1.873,1.873,0,0,1,1.332.5A3.357,3.357,0,0,1,385.632,124.264Z" transform="translate(-4.356 -0.428)"/></svg>