<svg xmlns="http://www.w3.org/2000/svg" width="270.32" height="52.48" viewBox="0 0 270.32 52.48"><defs><style>.a{fill:#2f2f2f;}</style></defs><path class="a" d="M32.06,2.96V.9H24.98V19.8h2.04V2.96ZM52.5,15.68l-2.18-.92c0,1.14-.02,1.82-.76,1.82h-.84a.333.333,0,0,1-.38-.36V14.18H50.5V8.72H41.28v5.46h1.98A3.125,3.125,0,0,1,42.04,16a6.382,6.382,0,0,1-3.78.94l1.48,2.02c1.6-.3,4.18-.76,5.38-3.4.3-.02.56-.04.56-.26,0-.08,0-.3-.36-.44l-1.74-.68H46.2v3.46a1.14,1.14,0,0,0,1.28,1.12h2.76C51.34,18.76,52.26,18.58,52.5,15.68Zm-4.06-4.86H43.36v-.74h5.08Zm0,2H43.36v-.78h5.08ZM51.9,8.28V6.58H48.78a6.947,6.947,0,0,0,.74-1.6h1.8V3.32H47.14V2.5c0-.06,0-.08.1-.2.12-.1.16-.16.16-.24,0-.2-.22-.22-.3-.22l-2.64-.12v1.6H40.64V4.98h1.4a11.792,11.792,0,0,1,.8,1.6H40.6V5.6H38.5V3.4c0-.08.18-.26.34-.44a.271.271,0,0,0,.12-.22c0-.28-.44-.32-.54-.32l-2.2-.2V5.6H34.7V7.82h1.52v5.56c-.54.2-1.12.44-2.02.74l.46,2.46c.02.12.08.36.26.36.14,0,.2-.06.5-.46.18-.24.22-.26.68-.48,1.48-.72,2.5-1.22,4.36-2.22V11.62c-1.12.5-1.46.64-1.96.84V7.82h2.06v.46Zm-4.6-3.3a9.949,9.949,0,0,1-.78,1.6H45.2c-.12-.26-.62-1.38-.74-1.6Zm24.6,9.7V9.26H66.66V8.64h4.1V2.18H61.02V8.64h3.62v.62H60.26v6.76h2.12V10.9h2.26v1.76c-.82.08-1.6.14-1.96.18l.16,1.64c0,.08.02.38.26.38.1,0,.36-.3.44-.34A10.361,10.361,0,0,1,65,14.16c.86-.16,1.66-.4,2.58-.66.02.12.16.68.16.8l1.76-.54a11.426,11.426,0,0,0-.88-2.72l-1.66.52c.2.5.22.56.26.68a5.69,5.69,0,0,1-.56.12V10.9h3.12v2.56c0,.88-.16,1.04-.86,1.04-.1,0-1.14-.08-1.32-.1l.82,2.04a5.882,5.882,0,0,0,2.82-.62A1.443,1.443,0,0,0,71.9,14.68ZM68.98,4.74H66.66V3.72h2.32Zm0,2.36H66.66V6.04h2.32ZM64.64,4.74H62.82V3.72h1.82Zm0,2.36H62.82V6.04h1.82ZM59.98,4.82a18.449,18.449,0,0,0-2.82-2.8l-1.7,1.56A27.27,27.27,0,0,1,58.2,6.34ZM72.9,16.22a62.657,62.657,0,0,1-8.86.62c-3.26,0-4.42-.32-4.42-2.44V8.66H55.14V10.8h2.3v4.42c-.72.44-1.8,1.02-2.82,1.5l1.04,2.04c.04.08.28.42.48.42.08,0,.1-.06.22-.36.04-.08.08-.14.44-.42.44-.34,1.12-.9,1.54-1.24a4.641,4.641,0,0,0,1.64,1.14,5.391,5.391,0,0,0,2.06.42h9.8Zm9.12,3.68V1H79.98V17.84H74.94V19.9ZM114.46,4.16a9.11,9.11,0,0,0-1.56-1.68l-1.04.76a7.941,7.941,0,0,1,1.42,1.72Zm-2.18,1.12a12.321,12.321,0,0,0-1.54-1.7l-1.08.8a8.935,8.935,0,0,1,1.58,1.76Zm-.32,5.4c0-2.12-2.72-5.34-3.64-6.44L106.7,5.36c2.12,2.46,2.88,4.1,2.88,4.6,0,.48-.42.58-1.14.68l1.06,1.9C110.24,12.44,111.96,12.2,111.96,10.68Zm-4.54.02c0-1.78-.24-4.16-2.94-4.16a8.356,8.356,0,0,0-1.46.14c.16-.9.2-1.26.3-2.06.04-.26.04-.26.28-.42.2-.12.22-.14.22-.22,0-.16-.22-.26-.48-.3l-2.4-.34a23.936,23.936,0,0,1-.2,3.8c-1.64.36-2.32.5-3.84.74l.74,2.4a17.913,17.913,0,0,1,2.72-1.08A21.228,21.228,0,0,1,96.74,17l2.08.94a26.847,26.847,0,0,0,3.8-9.26,6.618,6.618,0,0,1,1.08-.1c1.24,0,1.62.48,1.62,2.02,0,.96-.16,3.48-1.06,4.6a1.556,1.556,0,0,1-1.38.56,5.886,5.886,0,0,1-1.36-.16l.48,2.16a14.075,14.075,0,0,0,1.5.08,3,3,0,0,0,2.28-.78C106.72,16.16,107.42,13.58,107.42,10.7Zm24.12,8.14V4.04h-7c.1-.18.52-1.16.56-1.22.1-.16.16-.18.52-.38.06-.04.18-.1.18-.22s-.12-.2-.3-.22l-2.72-.26a8.877,8.877,0,0,1-.7,2.3h-3.74v14.8h2.32V17.8h8.58v1.04Zm-2.3-7.04h-8.58V9.82h8.58Zm0-3.92h-8.58V6.08h8.58Zm0,7.98h-8.58V13.72h8.58Zm25.32-7.3c-3.22-1.48-4.28-2.6-5.34-6.62h-3.96V4.16h2.2A12.264,12.264,0,0,0,149.7,8.1h-9.18a21.938,21.938,0,0,0,2.52-3.46c.04-.08.44-.2.52-.24.02-.02.12-.06.12-.16a.316.316,0,0,0-.16-.24l-2.18-1.22c-1.86,3.4-3.18,4.82-5.38,6.18l1.8,1.62a15.093,15.093,0,0,0,2.58-2.3v1.86h2.26a6.861,6.861,0,0,1-1.24,4.12,8.089,8.089,0,0,1-4.12,2.76l1.62,1.86c4.04-1.96,5.74-4.26,6.06-8.74h3.14a31.045,31.045,0,0,1-.34,4.96c-.12.6-.36,1.5-1.44,1.5-.26,0-.86-.04-1.7-.14l.94,2.3c4.18-.06,4.72-.92,4.8-10a7.616,7.616,0,0,0,2.66,1.78Zm17.06,9.46V15.46a25.919,25.919,0,0,1-6.18.9c-2.1,0-3.68-.7-3.68-2.14,0-1.34,1.48-2.36,2.38-2.92a30.089,30.089,0,0,1,7.4-3.16L170.8,5.7c-2.46,1.16-2.72,1.28-5.02,2.36a2.435,2.435,0,0,1-1.16-1.36,16.185,16.185,0,0,1-.58-4.74l-2.56.38c.64,3.82.74,4.4,1.02,5.06a6.3,6.3,0,0,0,1.18,1.8c-2.2,1.3-4.14,2.58-4.14,5.08a3.811,3.811,0,0,0,2.04,3.42,8.6,8.6,0,0,0,4.4.8A35.876,35.876,0,0,0,171.62,18.02ZM194.42,9V7.02h-8c0-1.06,0-1.18.02-2.24a41.486,41.486,0,0,0,6.34-.7,3.329,3.329,0,0,1,.66-.12,2.8,2.8,0,0,0,.58,0c.04-.02.04-.04.04-.06,0-.14-.2-.36-.28-.44l-1.54-1.74a16.314,16.314,0,0,1-2.3.76,36.479,36.479,0,0,1-4.42.58,3.592,3.592,0,0,1-.44-.04l-.9-.16c.06,1.44.08,2.9.08,4.34,0,5.18-.96,6.5-1.62,7.38l2.08.94A14.251,14.251,0,0,0,186.38,9h2.4v6.82h2.28V9Zm-12-4.56a10.669,10.669,0,0,0-3.12-2.26L177.82,3.9a17.448,17.448,0,0,1,3.1,2.16Zm12.92,11.7c-3.88.36-8.08.44-9.24.44-2.26,0-3.96-.42-3.96-1.84V8.9h-4.56v2.02h2.4v4.32a18.1,18.1,0,0,1-2.66,1.48l1.02,2.04c.1.2.22.24.28.24.04,0,.06-.04.16-.32.06-.18.12-.22.66-.6a18.736,18.736,0,0,0,1.86-1.52c.54.92,1.08,1.86,4.84,1.92,1.48.02,5.82.04,8.14.02Zm19.52-3.24a17,17,0,0,0-3.28-8.5l-2.06,1a18.6,18.6,0,0,1,2.94,8.12Zm-8.82-.3-1.66-1.48c-.38.96-1.2,3.08-1.92,3.08-.4,0-1.36-.72-1.36-4.62a20.732,20.732,0,0,1,.38-4.46c.34-.12.58-.2.58-.42,0-.24-.32-.34-.46-.38l-2.2-.6a19.479,19.479,0,0,0-.6,5.2c0,3.8.64,6.14,2.04,7.5a2.181,2.181,0,0,0,1.48.66C203.94,17.08,204.94,14.96,206.04,12.6Zm29.54,4.18c-3.46-1.84-7.34-4.06-7.34-12.12,0-.26,0-1.6.04-1.68s.36-.34.4-.4a.478.478,0,0,0,.16-.32c0-.3-.68-.3-.9-.3l-2.24-.08c.02.84.08,3.42.08,3.96a11.151,11.151,0,0,1-3,8.22,12.957,12.957,0,0,1-4.28,2.88l1.94,1.94c3.9-2.54,5.18-3.92,6.64-7.36,1.64,3.56,2.98,4.98,6.72,7.26Zm18.7-6.56-.68-2.28c-.94.42-1.2.54-3.54,1.64a2.68,2.68,0,0,0-2.72-2.02,3.867,3.867,0,0,0-1.72.42c.34-.52.5-.8,1.14-1.98a42.1,42.1,0,0,0,4.78-.76L251.68,3a16.887,16.887,0,0,1-3.92,1.02c.1-.22.6-1.34.62-1.36.02,0,.42-.18.46-.2.12-.04.2-.1.2-.22,0-.14-.34-.18-.4-.2l-2.5-.44a15.509,15.509,0,0,1-1,2.66,28.13,28.13,0,0,1-3.82-.08l.24,2.08c.84,0,1.46-.02,2.6-.08a26.592,26.592,0,0,1-3.94,5.5l1.96,1.22c1.1-1.8,2.3-3.62,4.26-3.62a1.386,1.386,0,0,1,1.52,1.32c-3,1.54-4.84,2.48-4.84,4.96a2.734,2.734,0,0,0,.76,1.96c1.26,1.34,3.58,1.34,4.7,1.34a33.1,33.1,0,0,0,4.76-.3V16.3a23.124,23.124,0,0,1-5.1.64c-1.46,0-3-.26-3-1.56,0-1.4,2.08-2.44,2.84-2.82-.02.88-.04,1.86-.1,3h2.32c0-.68-.04-3.16-.04-3.94C251.74,11.06,252.7,10.72,254.28,10.22Zm10.66-1.48c-.84.26-.94.28-1.66.52V6.94h1.5V4.68h-1.5V2.96c0-.2.12-.3.3-.4.18-.14.24-.2.24-.32s-.02-.22-.72-.28l-2.08-.16V4.68h-1.86V6.94h1.86V9.98c-.78.2-1.34.34-2.16.54l.22,2.1c.06.6.18.7.34.7.12,0,.18-.1.36-.3a6.5,6.5,0,0,1,1.24-.58v3.8c0,.44-.14.52-.48.52a6.882,6.882,0,0,1-1.26-.12l1,2.38c1.98,0,3-.22,3-1.22V11.66c.26-.12,1.4-.6,1.62-.7Zm11.5-2.08-1.76-.88c-.24,1.12-.48,1.16-.82,1.16h-.36a.523.523,0,0,1-.6-.58V4.18h1.02V5.62h2.12V2.26H265.3v3.5h2.12V4.18h3.42v3a1.468,1.468,0,0,0,1.66,1.64h1.98C275.6,8.82,276.04,8.36,276.44,6.66Zm.76,10.02a11.494,11.494,0,0,1-5.04-4.02h4.06V10.62h-4.64V9.74c0-.12.02-.14.16-.26a.471.471,0,0,0,.14-.3c0-.2-.18-.2-.58-.22l-2-.06v1.72h-4.28v2.04h3.44a13.209,13.209,0,0,1-4.92,4.54l1.92,1.5a15.241,15.241,0,0,0,3.84-4.2v4.44h2.28V14.4a14.455,14.455,0,0,0,3.7,4ZM270.78,5.22c0-.22-.16-.3-.6-.4l-2.08-.48a4.577,4.577,0,0,1-3.08,3.88l2.04,1.32a6.754,6.754,0,0,0,2.9-3.56c.06-.18.08-.24.38-.38C270.72,5.42,270.78,5.4,270.78,5.22Zm24.52,7.9-1.96-1.62c-1.96,3.84-4.64,4.54-5.76,4.54a1.929,1.929,0,0,1-1.76-.84,10.531,10.531,0,0,1-.38-3.54,75.592,75.592,0,0,1,.56-8c.32-.26.56-.42.56-.58,0-.12-.18-.26-.66-.32l-2.66-.38c.06,1.34-.1,7.28-.1,8.5,0,4.8.32,5.82,1.26,6.64a4.449,4.449,0,0,0,2.92,1.02,7.229,7.229,0,0,0,3.98-1.28A14.923,14.923,0,0,0,295.3,13.12ZM60.64,38.9V36.5a60.55,60.55,0,0,1-14.58,1.86l.4,2.36a76.473,76.473,0,0,1,7.62-.86c-.94.88-3.88,3.64-3.88,7.06,0,4.46,5,5.5,6.62,5.84l.7-2.52a5.936,5.936,0,0,1-3.48-.96,3.427,3.427,0,0,1-1.48-2.8c0-2,1.66-4.22,3.42-5.64A7.741,7.741,0,0,1,60.64,38.9Zm4.5,9.82A16.443,16.443,0,0,1,69,53.16l2.08-1.66a11.764,11.764,0,0,0-4.44-4.34Zm37.76,3.72V50.46H88.24V46.74l1.4,1.24a10.143,10.143,0,0,0,1.74-1.02v2.7h9.96V45.18H93.68c.32-.3.6-.54.96-.92h8V42.64H96.02c.24-.32.26-.36.38-.38.28-.08.36-.1.36-.26,0-.18-.16-.2-.32-.24l-2.2-.44c-.14.28-.24.42-.3.54v-.9h3v1.2h2.18v-1.2h3.46V39.42H99.12v-.6c0-.02.16-.1.2-.12.08-.04.24-.12.24-.22,0-.16-.4-.2-.44-.2l-2.18-.12v1.26h-3v-.64c0-.06.02-.08.18-.14.14-.06.18-.1.18-.16,0-.14-.32-.2-.4-.2l-2.12-.12v1.26H88.92v1.54h2.86v1.2H93.7c-.18.24-.22.28-.38.48H88.8v1.62h2.9a12,12,0,0,1-3.46,2.22V38h14.44V36.1H85.94V52.94h2.3v-.5ZM99.1,48.1H93.62V46.74H99.1Zm23.6,4.54V45.06h-7.32a22.975,22.975,0,0,0,4.88-6.26l-1.18-1.3h-4.72c.06-.12.3-.68.38-.78.04-.08.46-.16.52-.22a.227.227,0,0,0,.06-.16c0-.2-.44-.38-.6-.44l-1.88-.58a14.877,14.877,0,0,1-6.16,7.16l1.84,1.58a24.685,24.685,0,0,0,2.5-2.1,15.119,15.119,0,0,1,2.3,2.08,19.964,19.964,0,0,1-7.36,3.82l1.7,1.78a34.093,34.093,0,0,0,3.96-1.9v5.18H114v-.98h6.32v.7ZM117.12,39.4a14.389,14.389,0,0,1-2.24,3.18,17.079,17.079,0,0,0-2.52-2.04,13.177,13.177,0,0,0,.88-1.14Zm3.2,10.66H114v-3.1h6.32Zm22.78-7.7a9.227,9.227,0,0,0-1.66-1.52l-.84.96a9.26,9.26,0,0,1,1.66,1.52Zm-1.62,1.82a8.72,8.72,0,0,0-1.66-1.54l-.82.96a8.88,8.88,0,0,1,1.64,1.54Zm.66-5.22V36.64c-3.78,1.16-9.98,1.64-14.3,1.6l.34,2.24c2-.28,4.94-.52,7.62-.74a14.912,14.912,0,0,0-2.64,3.04,7.275,7.275,0,0,0-1.36,3.98,5.017,5.017,0,0,0,1.48,3.6,8.975,8.975,0,0,0,4.92,2.22l.78-2.44a6.3,6.3,0,0,1-3.52-1.02,3.174,3.174,0,0,1-1.44-2.6,7.424,7.424,0,0,1,2.44-4.8A8.15,8.15,0,0,1,142.14,38.96ZM163.76,52.7V36.26h-8.54V52.84h2.2v-1.2h4.1V52.7Zm-2.24-7.8h-4.1V42.52h4.1Zm0-4.32h-4.1V38.2h4.1Zm0,9.02h-4.1V46.84h4.1Zm-6.72-4.62a13.83,13.83,0,0,1-2.72-4.12v-.22h2.62v-1.9h-2.62V36.58c0-.06.1-.14.2-.22s.12-.14.12-.18c0-.22-.42-.24-.54-.26l-1.82-.18v3H147.1v1.9h2.76a16.913,16.913,0,0,1-3.6,7.02l1.86,1.1a16.159,16.159,0,0,0,1.92-2.88v6.96h2.04V44.82a18.5,18.5,0,0,0,1.24,1.64Zm18.1-7.04V36.22h-4.7v1.72Zm.58,2.5V38.76h-6.06v1.68Zm11,10.72c-4-1.38-4.56-3.6-4.56-5.8a.458.458,0,0,1,.22-.48c.24-.22.34-.32.34-.48,0-.18-.16-.26-.78-.26l-2.14-.02c.02.32.06.8.06,1.3,0,4.8-3.06,5.54-4.3,5.8V46.6h-5.64v6.28h1.98v-.8h1.66v.62h2V51.44l1.62,1.74a6.923,6.923,0,0,0,4-3.54,8.9,8.9,0,0,0,3.84,3.38Zm-13.16-.78h-1.66V48.34h1.66ZM184.3,38.14c0-.14-.16-.26-.24-.3l-1.88-1.02a11.956,11.956,0,0,1-1.98,2.42l1.6,1.26a9.186,9.186,0,0,0,1.78-2c.1-.12.14-.12.44-.14C184.1,38.34,184.3,38.32,184.3,38.14Zm.42,5.04a10.383,10.383,0,0,1-3.82-2.04,3.23,3.23,0,0,1-1.08-2.68,8.453,8.453,0,0,1,.12-1.94,2.2,2.2,0,0,0,.22-.24.321.321,0,0,0,.1-.22c0-.18-.22-.22-.76-.24l-2-.04c.04.48.08,1.1.08,1.78,0,2.8-.52,4.5-4.24,5.62l1.54,1.78a8.222,8.222,0,0,0,3.94-3.24A9.17,9.17,0,0,0,183,45.04Zm-8.02-5.14c0-.12-.16-.16-.44-.22l-1.84-.34a13.121,13.121,0,0,1-.44,3.18l1.96.36a17.261,17.261,0,0,0,.36-2.6C176.46,38.34,176.7,38.2,176.7,38.04Zm7.42,8.22c0-.14-.22-.3-.32-.34l-1.86-.78a11.025,11.025,0,0,1-1.44,2.22l1.72,1.12a9.209,9.209,0,0,0,1.24-1.92c.1-.02.22-.08.36-.1C184.02,46.42,184.12,46.38,184.12,46.26Zm-11.2-3.3v-1.7h-4.8v1.7Zm4.12,3.3c0-.12-.14-.18-.44-.24l-2-.42a8.939,8.939,0,0,1-.82,3.02l2,.66a10.919,10.919,0,0,0,.84-2.66C176.78,46.54,177.04,46.42,177.04,46.26Zm-4.12-.62V43.96h-4.8v1.68Zm31.38-3.28a9.226,9.226,0,0,0-1.66-1.52l-.84.96a9.259,9.259,0,0,1,1.66,1.52Zm-1.62,1.82a8.72,8.72,0,0,0-1.66-1.54l-.82.96a8.879,8.879,0,0,1,1.64,1.54Zm.66-5.22V36.64c-3.78,1.16-9.98,1.64-14.3,1.6l.34,2.24c2-.28,4.94-.52,7.62-.74a14.912,14.912,0,0,0-2.64,3.04A7.275,7.275,0,0,0,193,46.76a5.017,5.017,0,0,0,1.48,3.6,8.975,8.975,0,0,0,4.92,2.22l.78-2.44a6.3,6.3,0,0,1-3.52-1.02,3.174,3.174,0,0,1-1.44-2.6,7.424,7.424,0,0,1,2.44-4.8A8.15,8.15,0,0,1,203.34,38.96Zm19.52,2.76-.36-2a22.8,22.8,0,0,1-3.64,1.8c-.32-.7-.4-.9-.66-1.52a13.174,13.174,0,0,0,3.16-1.36l-.44-1.94a19.3,19.3,0,0,1-3.42,1.54,17.431,17.431,0,0,1-.6-1.84c0-.06.02-.12.18-.28.1-.1.16-.16.16-.26,0-.24-.5-.18-.66-.16l-2.28.26c.32.94.54,1.58,1,2.82a24.664,24.664,0,0,1-4.66.4l.62,1.92a22.961,22.961,0,0,0,4.76-.54c.2.46.42.96.72,1.64a26.512,26.512,0,0,1-6.3.6l.7,2.02a25.794,25.794,0,0,0,6.42-.88c.38.74.56,1.1,1.04,1.96a15.277,15.277,0,0,0-2.86-.32c-2.26,0-4.42.74-4.42,3.48,0,2.64,2.48,3.78,6.08,3.78a20.133,20.133,0,0,0,3.16-.24l.2-2.36a14.59,14.59,0,0,1-4,.54c-.68,0-3.28,0-3.28-1.7,0-1.08,1.1-1.64,2.42-1.64a11.261,11.261,0,0,1,5.24,1.52l1.22-1.52a21.71,21.71,0,0,1-2.64-4.16A14.833,14.833,0,0,0,222.86,41.72Zm20.56,7.94a16.627,16.627,0,0,0-5.06-2.26c-.06-1.18-.06-1.38-.1-2.38a42.991,42.991,0,0,0,4.28-.5V42.34c-1.84.34-2.58.46-4.32.68V40.66c1-.02,2.86-.06,5.08-.06l.08-2.12c-1.88.14-2.56.18-5.12.3.02-1.04.04-1.42.04-1.44a.65.65,0,0,1,.26-.36c.22-.18.26-.2.26-.28,0-.14-.12-.2-.5-.24l-2.44-.24.06,2.66c-1.78.04-2.86.08-5.14.08l.04,2.16c1.72-.2,2.86-.28,5.16-.38l.04,2.5a13.725,13.725,0,0,1-1.38.04c-.34,0-.76,0-.76-.28,0-.26.3-.48.66-.74l-1.14-.98c-.78.56-2.14,1.5-2.14,2.48,0,.78.92,1.44,2.76,1.44.58,0,1.68-.04,2.04-.06l.04,1.92-.56-.02c-4.5-.16-4.7,2.16-4.7,2.74,0,1.62,1.72,2.6,4.48,2.6,2.56,0,3.04-.8,3.12-2.84a15.076,15.076,0,0,1,3.66,1.98Zm-7.28-.7c.02,1.12-.06,1.48-1.36,1.48-.24,0-1.52,0-1.52-.68,0-.52.64-.86,1.94-.86A5.177,5.177,0,0,1,236.14,48.96Zm28.88-8.54V38.26c-2.04.16-2.66.22-5.44.38V36.58c0-.08.02-.12.16-.24s.18-.18.18-.3c0-.2-.12-.26-.58-.28l-2.22-.14c.12,1.46.12,2.52.14,3.14-4.2.2-5.92.2-7.28.2v2.32c2.54-.32,5.56-.5,7.34-.6l.04,1.5a2.638,2.638,0,0,0-.94-.16c-2.04,0-3.14,1.52-3.14,3.72a3.579,3.579,0,0,0,1.04,2.78,2.518,2.518,0,0,0,1.64.62,4.022,4.022,0,0,0,1.08-.2,6.382,6.382,0,0,1-2.86,3.28l2.24,1.16a13.876,13.876,0,0,0,2.72-3.72,8.968,8.968,0,0,0,1.02-3.86,5.158,5.158,0,0,0-.58-2.44v-2.8C262.18,40.46,263.5,40.42,265.02,40.42Zm-7.28,5.06c0,1.42-.96,1.86-1.38,1.86-.46,0-1.1-.46-1.1-1.66,0-1.06.56-1.76,1.36-1.76a1.041,1.041,0,0,1,.74.28A1.865,1.865,0,0,1,257.74,45.48Z" transform="translate(-24.98 -0.9)"/></svg>