<svg xmlns="http://www.w3.org/2000/svg" width="472.86" height="136.688" viewBox="0 0 472.86 136.688"><defs><style>.a{fill:#2f2f2f;}</style></defs><path class="a" d="M33.192,32.036V28.652h-5.22V25.2h3.96V22.1h-3.96V18.716h3.96v-3.1h-3.96V12.7h5.22V9.32H28.62a27.836,27.836,0,0,0,1.872-3.528c.216-.324.288-.324.936-.5a.357.357,0,0,0,.288-.36c0-.216-.36-.432-.468-.468l-3.96-1.476A32.315,32.315,0,0,1,23.94,9.32H21.168c.468-.828,1.476-2.7,1.944-3.744a.782.782,0,0,1,.612-.468c.18-.036.468-.144.468-.432,0-.252-.4-.432-.5-.468L19.944,2.8a36.378,36.378,0,0,1-6.156,10.872v-.72H4.428v2.952h9.36V15.62l2.34,1.908A15.728,15.728,0,0,0,17.5,15.584V33.44h3.6v-1.4ZM24.3,22.1H21.1V18.716h3.2Zm0-6.48H21.1V12.7h3.2Zm0,13.032H21.1V25.2h3.2ZM14.112,32.468V22.28H3.744v11.3H7.272V31.208h3.312v1.26Zm-3.528-4.1H7.272v-3.2h3.312Zm3.1-22.032V3.344H4.752V6.332Zm1.692,4.932V8.1H2.7v3.168Zm-1.584,9.252V17.564H4.428v2.952ZM69.372,18.68c0-1.3-.9-5.544-5.616-10.584l-2.988,2.16c1.98,2.268,4,5.868,4,6.984,0,.864-.828.936-2.376,1.08l2.448,3.708C67.14,21.6,69.372,20.732,69.372,18.68ZM60.84,17.1c0-2.2-.4-6.192-5.292-6.192a16.875,16.875,0,0,0-2.844.288c.252-1.368.5-2.628.684-3.924.036-.36.108-.4.756-.792.4-.252.468-.36.468-.5,0-.324-.72-.54-1.008-.576l-4.392-.612a37.263,37.263,0,0,1-.792,7.2c-1.584.252-4.9.864-7.524,1.08l1.44,4.356a45.321,45.321,0,0,1,5.112-1.548c-2.124,6.84-3.96,10.044-7.128,14.076l4.1,1.836a59.673,59.673,0,0,0,7.452-16.776,13.558,13.558,0,0,1,2.052-.18c2.592,0,2.988,1.152,2.988,3.06a21.283,21.283,0,0,1-2.2,8.964,2.214,2.214,0,0,1-2.16.9,10.066,10.066,0,0,1-3.24-.576l.5,4.356a22.77,22.77,0,0,0,3.1.216,5.594,5.594,0,0,0,5.4-2.772C60.228,25.664,60.84,20.084,60.84,17.1Zm45.252,1.152c0-8.028-5.9-13.1-13.392-13.1A15.527,15.527,0,0,0,76.824,20.408c0,6.444,5.9,9.684,7.2,9.684,1.872,0,3.528-3.024,4.608-5.256,1.188-2.412,3.312-7.452,4.464-16.02a9.21,9.21,0,0,1,6.12,2.412,8.487,8.487,0,0,1,2.592,6.3,11.263,11.263,0,0,1-2.592,7.164,12.125,12.125,0,0,1-6.48,3.852L95.4,32.252a17.379,17.379,0,0,0,8.388-6.336A13.451,13.451,0,0,0,106.092,18.248ZM88.812,9.464C88.092,15.08,85,24.476,83.124,24.476c-.648,0-2.3-1.512-2.3-4.428a11.79,11.79,0,0,1,3.6-7.992A10.628,10.628,0,0,1,88.812,9.464Zm54.216,23.8V3.668H127.656V33.512h3.96v-2.16H139V33.26ZM139,19.22h-7.38V14.936H139Zm0-7.776h-7.38V7.16H139Zm0,16.236h-7.38V22.712H139Zm-12.1-8.316c-2.016-2.268-4.176-5.184-4.9-7.416v-.4h4.716V8.132H122V4.244c0-.108.18-.252.36-.4s.216-.252.216-.324c0-.4-.756-.432-.972-.468l-3.276-.324v5.4H113.04v3.42h4.968a30.443,30.443,0,0,1-6.48,12.636l3.348,1.98a29.086,29.086,0,0,0,3.456-5.184V33.512H122V19.076a33.3,33.3,0,0,0,2.232,2.952ZM159.48,6.692V3.6h-8.46v3.1Zm1.044,4.5V8.168H149.616v3.024Zm19.8,19.3c-7.2-2.484-8.208-6.48-8.208-10.44a.824.824,0,0,1,.4-.864c.432-.4.612-.576.612-.864,0-.324-.288-.468-1.4-.468l-3.852-.036c.036.576.108,1.44.108,2.34,0,8.64-5.508,9.972-7.74,10.44V22.28H150.084v11.3h3.564v-1.44h2.988V33.26h3.6V30.992l2.916,3.132a12.462,12.462,0,0,0,7.2-6.372,16.014,16.014,0,0,0,6.912,6.084Zm-23.688-1.4h-2.988V25.412h2.988ZM180,7.052c0-.252-.288-.468-.432-.54l-3.384-1.836a21.522,21.522,0,0,1-3.564,4.356L175.5,11.3a16.536,16.536,0,0,0,3.2-3.6c.18-.216.252-.216.792-.252C179.64,7.412,180,7.376,180,7.052Zm.756,9.072a18.69,18.69,0,0,1-6.876-3.672,5.814,5.814,0,0,1-1.944-4.824,15.217,15.217,0,0,1,.216-3.492,3.951,3.951,0,0,0,.4-.432.578.578,0,0,0,.18-.4c0-.324-.4-.4-1.368-.432l-3.6-.072c.072.864.144,1.98.144,3.2,0,5.04-.936,8.1-7.632,10.116l2.772,3.2a14.8,14.8,0,0,0,7.092-5.832,16.507,16.507,0,0,0,7.524,5.976ZM166.32,6.872c0-.216-.288-.288-.792-.4l-3.312-.612a23.617,23.617,0,0,1-.792,5.724l3.528.648a31.071,31.071,0,0,0,.648-4.68C165.888,7.412,166.32,7.16,166.32,6.872Zm13.356,14.8c0-.252-.4-.54-.576-.612l-3.348-1.4a19.845,19.845,0,0,1-2.592,4l3.1,2.016a16.577,16.577,0,0,0,2.232-3.456c.18-.036.4-.144.648-.18C179.5,21.956,179.676,21.884,179.676,21.668Zm-20.16-5.94v-3.06h-8.64v3.06Zm7.416,5.94c0-.216-.252-.324-.792-.432l-3.6-.756a16.09,16.09,0,0,1-1.476,5.436l3.6,1.188a19.655,19.655,0,0,0,1.512-4.788C166.464,22.172,166.932,21.956,166.932,21.668Zm-7.416-1.116V17.528h-8.64v3.024Zm53.892-10.08V6.3a25.148,25.148,0,0,1-8.532,1.476,31.71,31.71,0,0,1-4.608-.4v3.96c1.908.18,3.564.18,3.852.18A48.349,48.349,0,0,0,213.408,10.472Zm1.728,18.9V24.908a29.367,29.367,0,0,1-8.208,1.116c-3.636,0-4-.972-4.032-4.392l-3.924.54c.108,6.084,1.476,7.848,8.028,7.848A49.207,49.207,0,0,0,215.136,29.372Zm-18.828-6.408-2.124-1.152c-.792,1.4-1.008,1.764-1.44,2.52a19.8,19.8,0,0,1-.5-4.932c0-5.436,1.548-11.952,2.088-12.276.072-.036.54-.216.612-.252a.427.427,0,0,0,.18-.324c0-.288-.684-.54-.936-.648l-3.672-1.332A70.957,70.957,0,0,0,189,12.776a63.679,63.679,0,0,0-.54,7.092,31.364,31.364,0,0,0,1.476,9.468,11.019,11.019,0,0,0,1.332,2.844l2.844-1.116A31.939,31.939,0,0,1,196.308,22.964Zm56.664-4.716c0-8.028-5.9-13.1-13.392-13.1A15.527,15.527,0,0,0,223.7,20.408c0,6.444,5.9,9.684,7.2,9.684,1.872,0,3.528-3.024,4.608-5.256,1.188-2.412,3.312-7.452,4.464-16.02a9.21,9.21,0,0,1,6.12,2.412,8.487,8.487,0,0,1,2.592,6.3,11.263,11.263,0,0,1-2.592,7.164,12.125,12.125,0,0,1-6.48,3.852l2.664,3.708a17.379,17.379,0,0,0,8.388-6.336A13.451,13.451,0,0,0,252.972,18.248Zm-17.28-8.784c-.72,5.616-3.816,15.012-5.688,15.012-.648,0-2.3-1.512-2.3-4.428a11.79,11.79,0,0,1,3.6-7.992A10.628,10.628,0,0,1,235.692,9.464ZM286.7,22.5a7.935,7.935,0,0,0-7.992-7.956,28.664,28.664,0,0,0-3.492.216c5.22-5.328,5.832-5.9,7.992-7.7L281.34,4.136c-3.42,1.332-9.54,1.8-10.908,1.8-1.116,0-3.168-.144-4.032-.216l.828,4.032a33.608,33.608,0,0,0,8.424-.9,71.072,71.072,0,0,1-13.32,13l3.024,3.168c2.016-2.052,5.184-5.256,7.416-6.444a9.763,9.763,0,0,1,4.1-.9c2.34,0,5.832,1.152,5.832,4.716a6.342,6.342,0,0,1-2.376,4.788c-1.008-1.26-3.348-4.212-7.092-4.212a5.042,5.042,0,0,0-5.292,4.788c0,2.664,2.3,4.932,6.8,4.932C281.088,32.684,286.7,28.472,286.7,22.5Zm-9.72,6.444a10.235,10.235,0,0,1-2.448.324c-1.3,0-2.952-.36-2.952-1.62a1.586,1.586,0,0,1,1.8-1.512C275.436,26.132,276.516,28.112,276.984,28.94ZM321.408,8.888l-1.692-3.024a58.407,58.407,0,0,1-7.92.432,58.4,58.4,0,0,1-9.72-.828l.972,4.14c2.124.18,4.572.216,10.548.216l-3.672,3.1,2.628,2.844C314.532,14.108,318.24,11.048,321.408,8.888Zm1.44,21.78-.216-4.464a48.036,48.036,0,0,1-11.232.972c-1.584,0-5.112,0-6.12-.864a1.334,1.334,0,0,1-.5-1.152c0-1.224,1.224-2.34,2.124-3.1l-3.312-2.7c-1.692,1.656-3.6,3.672-3.6,6.876a3.439,3.439,0,0,0,1.188,2.808c2.088,1.98,7.236,2.268,10.44,2.268C315.792,31.316,319.68,30.956,322.848,30.668Zm36.288,1.368V27.428a46.654,46.654,0,0,1-11.124,1.62c-3.78,0-6.624-1.26-6.624-3.852,0-2.412,2.664-4.248,4.284-5.256a54.161,54.161,0,0,1,13.32-5.688L357.66,9.86c-4.428,2.088-4.9,2.3-9.036,4.248a4.383,4.383,0,0,1-2.088-2.448c-.972-2.7-1.008-6.516-1.044-8.532l-4.608.684c1.152,6.876,1.332,7.92,1.836,9.108a11.336,11.336,0,0,0,2.124,3.24c-3.96,2.34-7.452,4.644-7.452,9.144a6.859,6.859,0,0,0,3.672,6.156c1.8.936,3.672,1.44,7.92,1.44A64.577,64.577,0,0,0,359.136,32.036Zm37.548-7.416a14.92,14.92,0,0,0-2.376-7.812l-3.348,1.764a11.054,11.054,0,0,1,1.62,5.364c0,4.356-3.636,5.616-6.588,5.616a4.846,4.846,0,0,1-3.384-1.08,4.3,4.3,0,0,1-1.152-3.168,21.774,21.774,0,0,1,.432-3.312c.972.072,1.836.18,3.2.18,1.764,0,2.88-.108,3.42-.144l.936-3.96a23.4,23.4,0,0,1-4.248.288,13.864,13.864,0,0,1-2.376-.108c.648-2.3,1.08-3.6,1.512-4.824a33.163,33.163,0,0,0,5.292.288l.828-3.888c-2.088.036-2.916.036-4.716-.036a37.424,37.424,0,0,1,1.908-4.212c.576-.18,1.08-.072,1.08-.5,0-.4-.54-.576-.828-.684L383.76,2.84c-.5,1.836-1.044,3.348-2.124,6.48a27.463,27.463,0,0,1-6.12-1.8l-.324,4.176c2.052.54,2.988.72,5.22,1.152-.792,2.34-1.116,3.528-1.476,4.788a25.612,25.612,0,0,1-4.86-1.368l-.612,3.96A28.419,28.419,0,0,0,378,21.416a24.739,24.739,0,0,0-.432,4.068c0,6.624,5.22,7.848,8.712,7.848C390.816,33.332,396.684,30.848,396.684,24.62Zm39.636-9.972a16.607,16.607,0,0,0-2.988-2.736L431.82,13.64a16.666,16.666,0,0,1,2.988,2.736ZM433.4,17.924a15.7,15.7,0,0,0-2.988-2.772L428.94,16.88a15.983,15.983,0,0,1,2.952,2.772Zm1.188-9.4V4.352c-6.8,2.088-17.964,2.952-25.74,2.88l.612,4.032c3.6-.5,8.892-.936,13.716-1.332a26.842,26.842,0,0,0-4.752,5.472,13.1,13.1,0,0,0-2.448,7.164,9.031,9.031,0,0,0,2.664,6.48c2.916,2.916,6.948,3.672,8.856,4l1.4-4.392a11.338,11.338,0,0,1-6.336-1.836,5.713,5.713,0,0,1-2.592-4.68c0-2.736,1.728-5.976,4.392-8.64C428.94,8.888,432.9,8.636,434.592,8.528ZM29.088,65.5l-.648-3.6a41.044,41.044,0,0,1-6.552,3.24c-.576-1.26-.72-1.62-1.188-2.736a23.713,23.713,0,0,0,5.688-2.448L25.6,56.46a34.748,34.748,0,0,1-6.156,2.772,31.379,31.379,0,0,1-1.08-3.312c0-.108.036-.216.324-.5.18-.18.288-.288.288-.468,0-.432-.9-.324-1.188-.288l-4.1.468c.576,1.692.972,2.844,1.8,5.076a44.4,44.4,0,0,1-8.388.72L8.208,64.38a41.33,41.33,0,0,0,8.568-.972c.36.828.756,1.728,1.3,2.952a47.722,47.722,0,0,1-11.34,1.08l1.26,3.636a46.43,46.43,0,0,0,11.556-1.584c.684,1.332,1.008,1.98,1.872,3.528a27.5,27.5,0,0,0-5.148-.576c-4.068,0-7.956,1.332-7.956,6.264,0,4.752,4.464,6.8,10.944,6.8a36.24,36.24,0,0,0,5.688-.432l.36-4.248a26.263,26.263,0,0,1-7.2.972c-1.224,0-5.9,0-5.9-3.06,0-1.944,1.98-2.952,4.356-2.952a20.27,20.27,0,0,1,9.432,2.736l2.2-2.736A39.08,39.08,0,0,1,23.436,68.3,26.7,26.7,0,0,0,29.088,65.5Zm9.864,12.6A29.6,29.6,0,0,1,45.9,86.088L49.644,83.1a21.175,21.175,0,0,0-7.992-7.812ZM89.1,66.72a30.477,30.477,0,0,1-11.16-2.232,31.765,31.765,0,0,0,6.66-5.976l-1.764-1.728h-11.3l.4-.432c.72-.18,1.188-.288,1.188-.72,0-.252-.936-.468-1.584-.648L68.868,54.3a27.706,27.706,0,0,1-9.936,8.28l2.988,2.448a29.691,29.691,0,0,0,5.364-3.816,18.506,18.506,0,0,0,3.492,3.24c-2.7,1.188-5.652,2.376-12.78,3.1l2.124,3.42c7.848-1.3,11.052-2.772,14.184-4.248a38.275,38.275,0,0,0,12.924,3.636Zm-.18,14.616a23.306,23.306,0,0,1-6.084-2.268,12.51,12.51,0,0,1-4.248-3.384H88.776V72.3H75.384V70.968a1.144,1.144,0,0,1,.4-.648.924.924,0,0,0,.36-.576c0-.18,0-.468-1.8-.54l-2.952-.144V72.3H58.176v3.384H68a30.468,30.468,0,0,1-10.26,6.66l2.988,3.1a43.475,43.475,0,0,0,10.656-7.56v8.028h4V77.736a24.01,24.01,0,0,0,10.908,6.912ZM77.184,59.808a18.228,18.228,0,0,1-2.952,2.772,17.574,17.574,0,0,1-3.276-2.772ZM125.6,74.352V70.608h-7.7V64.7h7.056V60.96H117.9V56.82c0-.18.108-.288.36-.54a.932.932,0,0,0,.324-.612c0-.4-.612-.468-.9-.5l-4.1-.36V60.96h-2.412c.108-.288.468-1.656.54-1.8.072-.18.108-.18.576-.4a.475.475,0,0,0,.324-.432c0-.288-.252-.432-.684-.5l-3.636-.756A29.247,29.247,0,0,1,104.256,67.4l3.42,1.656a30.4,30.4,0,0,0,2.2-4.356h3.708v5.9h-8.892v3.744h8.892v11.3h4.32v-11.3Zm-19.98-17.6c0-.216-.144-.432-.9-.684L100.872,54.7a39.465,39.465,0,0,1-7.776,13.9l3.672,2.3a9.385,9.385,0,0,0,1.08-1.44v16.2h3.924V64.776c0-.18.072-.36.4-.648.216-.18.4-.324.4-.648s-.252-.576-.612-.9a39.481,39.481,0,0,0,2.412-4.788c.144-.36.36-.4.828-.54A.508.508,0,0,0,105.624,56.748Zm53.064,5.724V58.3a25.148,25.148,0,0,1-8.532,1.476,31.71,31.71,0,0,1-4.608-.4v3.96c1.908.18,3.564.18,3.852.18A48.349,48.349,0,0,0,158.688,62.472Zm1.728,18.9V76.908a29.366,29.366,0,0,1-8.208,1.116c-3.636,0-4-.972-4.032-4.392l-3.924.54c.108,6.084,1.476,7.848,8.028,7.848A49.207,49.207,0,0,0,160.416,81.372Zm-18.828-6.408-2.124-1.152c-.792,1.4-1.008,1.764-1.44,2.52a19.8,19.8,0,0,1-.5-4.932c0-5.436,1.548-11.952,2.088-12.276.072-.036.54-.216.612-.252a.427.427,0,0,0,.18-.324c0-.288-.684-.54-.936-.648l-3.672-1.332a70.957,70.957,0,0,0-1.512,8.208,63.679,63.679,0,0,0-.54,7.092,31.364,31.364,0,0,0,1.476,9.468,11.019,11.019,0,0,0,1.332,2.844l2.844-1.116A31.939,31.939,0,0,1,141.588,74.964Zm51.228-6.336a39.035,39.035,0,0,0-6.336-6.192l-3.06,3.024a25.192,25.192,0,0,1,5.94,5.9Zm7.092,13.356a53.312,53.312,0,0,0-4.68-10.908l-3.96,2.088a47.022,47.022,0,0,1,4.356,10.44ZM199.044,62.4V58.728H185.8v-2.34c0-.18.18-.252.468-.432.4-.216.432-.4.432-.5,0-.288-.108-.432-1.116-.5l-4.572-.288v4.068H169.056c.54,5.22.576,10.8.576,11.376,0,8.064-1.4,11.592-3.024,14.832l4.176,1.3c1.548-3.384,2.88-7.308,2.88-18.792a47.7,47.7,0,0,0-.216-5.04Zm-6.3,16.848-3.96-1.512c0,.324,0,2.628-.036,2.736a1.318,1.318,0,0,1-1.332,1.3H185.9c-.9,0-1.116-.468-1.116-1.728V69.708a.545.545,0,0,1,.216-.432c.432-.36.54-.432.54-.648,0-.36-.576-.468-1.3-.5l-4.068-.18V82.7c0,1.512.684,3.2,2.664,3.2h6.3C192.168,85.908,192.492,82.812,192.744,79.248Zm-12.96-6.732c0-.36-.54-.468-.864-.54l-3.636-.756a32.517,32.517,0,0,1-2.232,10.512l3.96,1.512c1.224-2.952,1.44-4.608,2.232-9.828.036-.18.108-.252.4-.612A.374.374,0,0,0,179.784,72.516ZM233.46,60.132a22.765,22.765,0,0,0-3.348-3.1L228.6,58.728a23.966,23.966,0,0,1,3.312,3.1ZM230.184,63.3a21.8,21.8,0,0,0-3.348-3.1L225.324,61.9a22.623,22.623,0,0,1,3.312,3.1Zm2.772,11.736-3.42-2.844c-2.916,6.156-7.272,8.28-10.152,8.28a3.567,3.567,0,0,1-2.916-1.3c-.5-.612-.864-1.584-.864-6.768,0-4.5.468-13.68.864-14.112.216-.216.828-.648.828-.972,0-.4-1.008-.5-1.116-.5l-4.608-.54c.036,2.232,0,12.2,0,14.256,0,8.748.756,11.016,2.268,12.42a7.856,7.856,0,0,0,5.292,1.836C226.044,84.792,230.328,78.924,232.956,75.036ZM269.892,60.42V56.1c-7.02,2.052-17.784,3.276-26.244,3.348l.72,4.248a137.654,137.654,0,0,1,13.716-1.548c-1.692,1.584-6.984,6.552-6.984,12.708,0,8.028,9,9.9,11.916,10.512l1.26-4.536a10.685,10.685,0,0,1-6.264-1.728,6.168,6.168,0,0,1-2.664-5.04c0-3.6,2.988-7.6,6.156-10.152A13.933,13.933,0,0,1,269.892,60.42Zm22.356-3.492V53.22H279.5V87.24h3.672V56.928ZM326.376,67.4V63.3h-6.048V57.864c.072-.18.144-.252.4-.468.216-.18.324-.288.324-.432,0-.432-.828-.54-1.116-.576l-3.708-.5c.072,2.268.072,4.68.072,7.416h-6.8V58.26c0-.18.072-.252.468-.54.216-.144.288-.216.288-.36,0-.36-.252-.4-1.08-.5l-3.96-.432V63.3h-6.66v4.1h6.66v8.244h4.284V67.4h6.8c-.144,8.064-2.2,11.736-8.712,15.3l2.952,2.808c6.984-4.248,9.36-7.848,9.756-18.108Zm19.908-5.94A33.577,33.577,0,0,0,338.724,57l-2.2,3.384a32.53,32.53,0,0,1,7.38,4.536Zm17.136,3.744-2.484-3.6a50.215,50.215,0,0,1-10.548,11.016,33.707,33.707,0,0,1-13.356,6.228l2.52,4.32c.252.468.576.684.792.684.288,0,.36-.612.54-1.116a48.411,48.411,0,0,0,13.572-8.028A50.614,50.614,0,0,0,363.42,65.208Zm34.92-2.52-2.916-3.42a3.63,3.63,0,0,1-1.584.684h-8.064c.36-.684.792-1.4,1.008-1.944.5-.144.9-.216.9-.5,0-.36-.72-.684-.936-.756l-3.708-1.4A31.352,31.352,0,0,1,373.1,69.168l3.564,2.448a49.808,49.808,0,0,0,6.84-8.028h9.216a28.7,28.7,0,0,1-4.752,9.468,31.382,31.382,0,0,1-11.268,9.4l3.924,2.7a34.978,34.978,0,0,0,9.756-8.532,42.285,42.285,0,0,0,6.408-12.2A3.75,3.75,0,0,1,398.34,62.688ZM436.32,79.68a71.954,71.954,0,0,0-9.54-8.892,43.486,43.486,0,0,0,4.176-8.064,4.987,4.987,0,0,1,1.944-2.16l-2.772-3.06a3.413,3.413,0,0,1-1.872.792H412.74v4.176h13.716a28.776,28.776,0,0,1-6.12,9.828,31.926,31.926,0,0,1-11.484,7.776l3.168,3.276A34.751,34.751,0,0,0,424.332,74.1a56.778,56.778,0,0,1,8.784,9Zm39.24-22.1a3.33,3.33,0,1,0-3.312,3.384A3.342,3.342,0,0,0,475.56,57.576Zm-1.3,0a2.044,2.044,0,0,1-2.016,2.052,2.052,2.052,0,0,1,0-4.1A2.044,2.044,0,0,1,474.264,57.576Zm-1.08,18.936A33.251,33.251,0,0,0,467.1,69.2l-2.772,2.376a27.293,27.293,0,0,1,5.688,7.488Zm-1.476-10.08V62.724H461.376V58.116c0-.18.18-.324.324-.4.324-.216.468-.324.468-.5,0-.324-.4-.432-.972-.5l-3.888-.5v6.516H446.832v3.708h10.476V79.1c0,.864-.18,1.152-1.332,1.152a15.082,15.082,0,0,1-2.844-.288l1.368,4.176c6.012-.036,6.876-.612,6.876-3.96V66.432ZM455.076,72.12c0-.252-.54-.612-.684-.684l-2.952-1.944a26.416,26.416,0,0,1-7.272,8.1l3.708,2.3a31.449,31.449,0,0,0,6.156-7.164c.108-.144.144-.144.612-.288C454.86,72.408,455.076,72.336,455.076,72.12ZM29.268,110.836c0-.288-.468-.756-.612-.864l-3.132-2.592a55.89,55.89,0,0,1-20.88,15.3l3.132,3.2a64.549,64.549,0,0,0,9.072-5.112v15.84h4.5V117.424a46.1,46.1,0,0,0,5.94-5.616c.5-.54.576-.612,1.116-.648C29.124,111.124,29.268,111.088,29.268,110.836ZM51.8,113.464A33.578,33.578,0,0,0,44.244,109l-2.2,3.384a32.53,32.53,0,0,1,7.38,4.536Zm17.136,3.744-2.484-3.6a50.215,50.215,0,0,1-10.548,11.016,33.707,33.707,0,0,1-13.356,6.228l2.52,4.32c.252.468.576.684.792.684.288,0,.36-.612.54-1.116a48.411,48.411,0,0,0,13.572-8.028A50.614,50.614,0,0,0,68.94,117.208ZM104.8,124.66a44.068,44.068,0,0,0-5.616-4.32,32.147,32.147,0,0,0-6.12-3.276l-1.692,2.664V110.26c0-.18.936-.756.936-.972,0-.432-.756-.54-.864-.576l-4.32-.756v28.512h4.248V120.916a36.648,36.648,0,0,1,10.584,7.2Zm19.62,14.76V105.4h-3.672v30.312h-9.072v3.708ZM159.444,122l-1.224-4.1c-1.692.756-2.16.972-6.372,2.952a4.825,4.825,0,0,0-4.9-3.636,6.961,6.961,0,0,0-3.1.756c.612-.936.9-1.44,2.052-3.564a75.778,75.778,0,0,0,8.6-1.368l.252-4.032a30.4,30.4,0,0,1-7.056,1.836c.18-.4,1.08-2.412,1.116-2.448.036,0,.756-.324.828-.36.216-.072.36-.18.36-.4,0-.252-.612-.324-.72-.36l-4.5-.792a27.918,27.918,0,0,1-1.8,4.788,50.635,50.635,0,0,1-6.876-.144l.432,3.744c1.512,0,2.628-.036,4.68-.144a47.865,47.865,0,0,1-7.092,9.9l3.528,2.2c1.98-3.24,4.14-6.516,7.668-6.516a2.494,2.494,0,0,1,2.736,2.376c-5.4,2.772-8.712,4.464-8.712,8.928a4.922,4.922,0,0,0,1.368,3.528c2.268,2.412,6.444,2.412,8.46,2.412a59.578,59.578,0,0,0,8.568-.54V132.94a41.624,41.624,0,0,1-9.18,1.152c-2.628,0-5.4-.468-5.4-2.808,0-2.52,3.744-4.392,5.112-5.076-.036,1.584-.072,3.348-.18,5.4h4.176c0-1.224-.072-5.688-.072-7.092C154.872,123.508,156.6,122.9,159.444,122Zm32.22-8.964h2.808V110.98h4.752v-2.628h-4.752c0-.576,0-.612.4-.828.108-.072.288-.216.288-.4,0-.252-.18-.324-.828-.36l-3.6-.252v1.836h-2.916c0-.54,0-.54.36-.756.144-.072.324-.18.324-.4,0-.288-.4-.36-.936-.4l-3.708-.252v1.8H179.1v.144l-3.78-1.908a20.359,20.359,0,0,1-1.692,2.916,20.177,20.177,0,0,0-1.98-2.448l-3.42,1.8a20.8,20.8,0,0,1,2.88,3.924,20.162,20.162,0,0,1-3.744,3.42l4.068,2.124a18.748,18.748,0,0,0,1.512-1.548c.252.756.288.864.468,1.476a19.254,19.254,0,0,1-2.448,5,17.287,17.287,0,0,1-4.068,4.86l3.852,2.16a33.578,33.578,0,0,0,3.816-5.58c.036.936.108,2.016.108,3.348,0,3.888-.936,5.364-2.628,5.364a11.646,11.646,0,0,1-2.916-.432l2.088,4.716c1.872-.036,4.464-.144,6.048-2.628.828-1.26,1.44-4.284,1.44-7.632a35.791,35.791,0,0,0-.936-8.136l1.332,1.332c.432-.36.612-.5,1.26-1.116V126.6h18.648v-2.34H191.16v-1.152h6.12V121.1h-6.12v-1.152h6.12v-2.016h-6.12v-1.152h7.38v-2.3h-6.156a1.213,1.213,0,0,1,.432-.216.358.358,0,0,0,.252-.324.563.563,0,0,0-.288-.4Zm-3.852-2.052h2.916v1.584l-1.368-.756a13.282,13.282,0,0,1-1.8,2.664h-2.772a5.053,5.053,0,0,1,.432-.648,6.009,6.009,0,0,1,.648-.18.438.438,0,0,0,.216-.36c0-.144-.144-.216-.216-.252h1.944Zm-3.708,5.8h3.312v1.152H184.1Zm0,3.168h3.312V121.1H184.1Zm-.252-8.964v1.08l-1.836-.792a18.7,18.7,0,0,1-4.86,5.76,24.787,24.787,0,0,0-1.4-3.708c1.3-1.656,1.98-2.664,2.808-3.816a.661.661,0,0,0,.54-.18v1.656Zm.252,12.132h3.312v1.152H184.1Zm-.648,7.236-2.16.972a19.144,19.144,0,0,0,2.592,2.448,29.664,29.664,0,0,1-6.192,1.008l2.088,3.456a25.852,25.852,0,0,0,7.812-2.376,25.522,25.522,0,0,0,9.972,2.448l2.2-3.636a40.472,40.472,0,0,1-8.748-.792,22.25,22.25,0,0,0,5.112-5.328l-.648-1.044H179.64v2.844Zm6.444,0a14.612,14.612,0,0,1-2.52,2.016,12.811,12.811,0,0,1-2.412-2.016Zm43.74-11.3V107.776H216.612v11.268Zm-3.816-6.912h-9.288V110.4h9.288Zm0,4.32h-9.288v-1.728h9.288Zm-15.012-7.2c0-.216-.324-.432-.4-.468l-3.384-2.34a26.553,26.553,0,0,1-6.732,6.084l2.88,2.592a36.78,36.78,0,0,0,6.48-5.436c.144-.108.288-.108.576-.108C214.6,109.576,214.812,109.5,214.812,109.252Zm20.916,19.656v-3.276H231.12v-1.944h4.032v-3.132H214.668v3.132H226.98v1.944H213.84v3.276h4.968l-2.124,1.944a32.411,32.411,0,0,1,3.456,4.356l2.7-2.448a33.809,33.809,0,0,0-2.916-3.852h7.056v4.356c0,.576-.324.972-.756.972s-2.232-.108-2.592-.144l1.44,3.708c4.536-.072,6.048-.108,6.048-2.952v-5.94Zm-20.376-12.24c0-.18-.288-.4-.432-.468l-3.42-1.908a30.461,30.461,0,0,1-7.848,8.244l2.736,2.664a11.716,11.716,0,0,0,1.656-1.368v14.04h4.068v-16.38c0-.108.072-.18.288-.324.36-.216.468-.36.468-.576a.615.615,0,0,0-.252-.468l-.5-.432c.576-.576.72-.756,2.052-2.232.36-.4.36-.432.648-.432C214.956,117.028,215.352,117.028,215.352,116.668Zm56.088,1.98a16.609,16.609,0,0,0-2.988-2.736l-1.512,1.728a16.666,16.666,0,0,1,2.988,2.736Zm-2.916,3.276a15.7,15.7,0,0,0-2.988-2.772l-1.476,1.728a15.983,15.983,0,0,1,2.952,2.772Zm1.188-9.4v-4.176c-6.8,2.088-17.964,2.952-25.74,2.88l.612,4.032c3.6-.5,8.892-.936,13.716-1.332a26.842,26.842,0,0,0-4.752,5.472,13.1,13.1,0,0,0-2.448,7.164,9.031,9.031,0,0,0,2.664,6.48c2.916,2.916,6.948,3.672,8.856,4l1.4-4.392a11.338,11.338,0,0,1-6.336-1.836,5.713,5.713,0,0,1-2.592-4.68c0-2.736,1.728-5.976,4.392-8.64C264.06,112.888,268.02,112.636,269.712,112.528Zm35.136,4.968-.648-3.6a41.044,41.044,0,0,1-6.552,3.24c-.576-1.26-.72-1.62-1.188-2.736a23.713,23.713,0,0,0,5.688-2.448l-.792-3.492a34.748,34.748,0,0,1-6.156,2.772,31.376,31.376,0,0,1-1.08-3.312c0-.108.036-.216.324-.5.18-.18.288-.288.288-.468,0-.432-.9-.324-1.188-.288l-4.1.468c.576,1.692.972,2.844,1.8,5.076a44.4,44.4,0,0,1-8.388.72l1.116,3.456a41.33,41.33,0,0,0,8.568-.972c.36.828.756,1.728,1.3,2.952a47.722,47.722,0,0,1-11.34,1.08l1.26,3.636a46.43,46.43,0,0,0,11.556-1.584c.684,1.332,1.008,1.98,1.872,3.528a27.5,27.5,0,0,0-5.148-.576c-4.068,0-7.956,1.332-7.956,6.264,0,4.752,4.464,6.8,10.944,6.8a36.241,36.241,0,0,0,5.688-.432l.36-4.248a26.262,26.262,0,0,1-7.2.972c-1.224,0-5.9,0-5.9-3.06,0-1.944,1.98-2.952,4.356-2.952a20.27,20.27,0,0,1,9.432,2.736l2.2-2.736A39.081,39.081,0,0,1,299.2,120.3,26.7,26.7,0,0,0,304.848,117.5Zm37.008,14.292a29.928,29.928,0,0,0-9.108-4.068c-.108-2.124-.108-2.484-.18-4.284a77.381,77.381,0,0,0,7.7-.9v-3.924c-3.312.612-4.644.828-7.776,1.224v-4.248c1.8-.036,5.148-.108,9.144-.108l.144-3.816c-3.384.252-4.608.324-9.216.54.036-1.872.072-2.556.072-2.592a1.17,1.17,0,0,1,.468-.648c.4-.324.468-.36.468-.5,0-.252-.216-.36-.9-.432l-4.392-.432.108,4.788c-3.2.072-5.148.144-9.252.144l.072,3.888c3.1-.36,5.148-.5,9.288-.684l.072,4.5a24.707,24.707,0,0,1-2.484.072c-.612,0-1.368,0-1.368-.5,0-.468.54-.864,1.188-1.332l-2.052-1.764c-1.4,1.008-3.852,2.7-3.852,4.464,0,1.4,1.656,2.592,4.968,2.592,1.044,0,3.024-.072,3.672-.108l.072,3.456-1.008-.036c-8.1-.288-8.46,3.888-8.46,4.932,0,2.916,3.1,4.68,8.064,4.68,4.608,0,5.472-1.44,5.616-5.112a27.137,27.137,0,0,1,6.588,3.564Zm-13.1-1.26c.036,2.016-.108,2.664-2.448,2.664-.432,0-2.736,0-2.736-1.224,0-.936,1.152-1.548,3.492-1.548A9.319,9.319,0,0,1,328.752,130.528Zm51.984-15.372v-3.888c-3.672.288-4.788.4-9.792.684v-3.708c0-.144.036-.216.288-.432s.324-.324.324-.54c0-.36-.216-.468-1.044-.5l-4-.252c.216,2.628.216,4.536.252,5.652-7.56.36-10.656.36-13.1.36V116.7c4.572-.576,10.008-.9,13.212-1.08l.072,2.7a4.748,4.748,0,0,0-1.692-.288c-3.672,0-5.652,2.736-5.652,6.7a6.442,6.442,0,0,0,1.872,5,4.533,4.533,0,0,0,2.952,1.116,7.239,7.239,0,0,0,1.944-.36c-.792,2.628-2.988,4.5-5.148,5.9l4.032,2.088a24.976,24.976,0,0,0,4.9-6.7,16.142,16.142,0,0,0,1.836-6.948,9.285,9.285,0,0,0-1.044-4.392v-5.04C375.624,115.228,378,115.156,380.736,115.156Zm-13.1,9.108c0,2.556-1.728,3.348-2.484,3.348-.828,0-1.98-.828-1.98-2.988,0-1.908,1.008-3.168,2.448-3.168a1.873,1.873,0,0,1,1.332.5A3.357,3.357,0,0,1,367.632,124.264Z" transform="translate(-2.7 -2.732)"/></svg>