<svg xmlns="http://www.w3.org/2000/svg" width="470.952" height="136.328" viewBox="0 0 470.952 136.328"><defs><style>.a{fill:#2f2f2f;}</style></defs><path class="a" d="M30.78,8.528V5.288H11.124c.432-.864.468-.972.648-1.08l.5-.252a.52.52,0,0,0,.072-.252c0-.252-.36-.36-.5-.4L7.452,2.156A25.1,25.1,0,0,1,2.124,11.7l3.708,2.016A31.9,31.9,0,0,0,9.36,8.528Zm-3.6,5.148v-3.24H9.684v3.24Zm7.056,14.9-2.808-2.052c-.036.576-.36,2.556-.972,2.556-1.332,0-2.088-4-2.088-7.632a39.866,39.866,0,0,1,.432-5.868H5.328v3.528H24.444c-.072,3.42-.144,7.668,1.728,11.412,1.332,2.664,3.312,3.852,4.428,3.852C32.616,34.376,33.624,31.244,34.236,28.58ZM21.348,30.92A46.348,46.348,0,0,0,16.7,26.06a31.361,31.361,0,0,0,2.3-3.708,1.514,1.514,0,0,1,.54-.288c.108-.036.288-.108.288-.288,0-.288-.4-.5-.576-.576l-3.42-1.512a24.767,24.767,0,0,1-2.124,3.888,27.41,27.41,0,0,0-4.9-2.988L6.768,23.864A22.429,22.429,0,0,1,11.2,26.6a19.007,19.007,0,0,1-7.884,4.608l2.628,3.2a24.727,24.727,0,0,0,8.1-5.256,48.454,48.454,0,0,1,3.888,4.608Zm45.18-20.448V6.3A25.148,25.148,0,0,1,58,7.772a31.71,31.71,0,0,1-4.608-.4v3.96c1.908.18,3.564.18,3.852.18A48.349,48.349,0,0,0,66.528,10.472Zm1.728,18.9V24.908a29.367,29.367,0,0,1-8.208,1.116c-3.636,0-4-.972-4.032-4.392l-3.924.54c.108,6.084,1.476,7.848,8.028,7.848A49.207,49.207,0,0,0,68.256,29.372ZM49.428,22.964,47.3,21.812c-.792,1.4-1.008,1.764-1.44,2.52a19.8,19.8,0,0,1-.5-4.932c0-5.436,1.548-11.952,2.088-12.276.072-.036.54-.216.612-.252a.427.427,0,0,0,.18-.324c0-.288-.684-.54-.936-.648L43.632,4.568a70.955,70.955,0,0,0-1.512,8.208,63.678,63.678,0,0,0-.54,7.092,31.364,31.364,0,0,0,1.476,9.468,11.019,11.019,0,0,0,1.332,2.844l2.844-1.116A31.939,31.939,0,0,1,49.428,22.964Zm54.36,4.788A33.065,33.065,0,0,0,97.6,24.476a35.672,35.672,0,0,1-.468-5,3.3,3.3,0,0,1,1.368-2.88l-3.744-2.016A5.439,5.439,0,0,0,93.2,18.248c0,.756.432,4.428.5,5.256a18.168,18.168,0,0,0-2.808-.216c-4.968,0-6.372,3.168-6.372,5.112a4.076,4.076,0,0,0,1.332,3.06c1.512,1.332,3.564,1.692,5.868,1.692,4.716,0,5.8-1.512,6.12-4.392a19.817,19.817,0,0,1,3.564,2.376Zm-9.9-.648c0,1.3.036,2.808-2.88,2.808-1.98,0-2.988-.828-2.988-1.62,0-.72.864-1.728,2.736-1.728A12.089,12.089,0,0,1,93.888,27.1ZM104.8,12.7a17.792,17.792,0,0,0-8.028-3.312l-1.62,3.1a25.48,25.48,0,0,1,7.884,3.276ZM94.068,10.832V6.8c-.936.324-2.016.684-4.14,1.224.144-.468.828-2.772.864-2.808.216-.216.828-.432.828-.792,0-.4-.684-.576-.864-.612l-3.924-.864a34.349,34.349,0,0,1-1.3,5.94,47.923,47.923,0,0,1-6.12.468l.54,3.744c1.692-.108,2.7-.216,4.356-.432a61.751,61.751,0,0,1-6.156,13.1l3.852,1.656a87.8,87.8,0,0,0,6.66-15.444C91.728,11.444,92.844,11.156,94.068,10.832ZM139.824,22.5a7.935,7.935,0,0,0-7.992-7.956,28.664,28.664,0,0,0-3.492.216c5.22-5.328,5.832-5.9,7.992-7.7L134.46,4.136c-3.42,1.332-9.54,1.8-10.908,1.8-1.116,0-3.168-.144-4.032-.216l.828,4.032a33.608,33.608,0,0,0,8.424-.9,71.072,71.072,0,0,1-13.32,13l3.024,3.168c2.016-2.052,5.184-5.256,7.416-6.444a9.763,9.763,0,0,1,4.1-.9c2.34,0,5.832,1.152,5.832,4.716a6.342,6.342,0,0,1-2.376,4.788c-1.008-1.26-3.348-4.212-7.092-4.212a5.042,5.042,0,0,0-5.292,4.788c0,2.664,2.3,4.932,6.8,4.932C134.208,32.684,139.824,28.472,139.824,22.5ZM130.1,28.94a10.235,10.235,0,0,1-2.448.324c-1.3,0-2.952-.36-2.952-1.62a1.586,1.586,0,0,1,1.8-1.512C128.556,26.132,129.636,28.112,130.1,28.94Zm46.152.756V7.952h-23.04v4h18.756V24.476H153.144v3.96h18.828V29.7ZM209.448,7.88A56.03,56.03,0,0,0,194.22,2.588l-.684,4.1A40.51,40.51,0,0,1,208.4,12.164Zm-1.476,9.684a51.362,51.362,0,0,0-12.492-4.9l-.9,3.888A51.447,51.447,0,0,1,207.036,21.7Zm2.952,12.2A64.222,64.222,0,0,0,193,22.208l-1.08,4a64.723,64.723,0,0,1,17.712,8.064Zm39.24.5v-3.2h-6.84l2.232-13.788H231.084v3.312h10.26l-1.692,10.476H226.476v3.2Zm34.668-18.144V7.844H265.356v4.284ZM288.54,28.76V24.476H261.5V28.76Zm31.968-20.2V4.676H303.084V8.564Zm4.86,8.928V13.784h-27.18v3.708h12.1c-.18,7.02-2.412,10.476-9.612,13.068l3.528,2.952a16.786,16.786,0,0,0,7.992-6.7,18.486,18.486,0,0,0,2.268-9.324ZM356.94,12.38c0-.144-.108-.252-.252-.36l-2.88-2.412a34.9,34.9,0,0,1-7.992,7.488,35.046,35.046,0,0,1-8.5,4.752l2.34,2.88a43,43,0,0,0,7.308-4.212V33.368h3.708V17.744a34.773,34.773,0,0,0,4.9-4.716C355.86,12.992,356.94,12.884,356.94,12.38Zm46.188-5.292a16.4,16.4,0,0,0-2.808-3.024l-1.872,1.368A14.3,14.3,0,0,1,401,8.528ZM399.2,9.1a22.179,22.179,0,0,0-2.772-3.06l-1.944,1.44a16.084,16.084,0,0,1,2.844,3.168Zm-.576,9.72c0-3.816-4.9-9.612-6.552-11.592L389.16,9.248c3.816,4.428,5.184,7.38,5.184,8.28,0,.864-.756,1.044-2.052,1.224l1.908,3.42C395.532,21.992,398.628,21.56,398.628,18.824Zm-8.172.036c0-3.2-.432-7.488-5.292-7.488a15.041,15.041,0,0,0-2.628.252c.288-1.62.36-2.268.54-3.708.072-.468.072-.468.5-.756.36-.216.4-.252.4-.4,0-.288-.4-.468-.864-.54l-4.32-.612a43.088,43.088,0,0,1-.36,6.84c-2.952.648-4.176.9-6.912,1.332l1.332,4.32a32.242,32.242,0,0,1,4.9-1.944,38.21,38.21,0,0,1-6.516,14.04l3.744,1.692c3.276-4.968,5-9.288,6.84-16.668a11.913,11.913,0,0,1,1.944-.18c2.232,0,2.916.864,2.916,3.636,0,1.728-.288,6.264-1.908,8.28a2.8,2.8,0,0,1-2.484,1.008,10.6,10.6,0,0,1-2.448-.288l.864,3.888a25.335,25.335,0,0,0,2.7.144,5.408,5.408,0,0,0,4.1-1.4C389.2,28.688,390.456,24.044,390.456,18.86Zm44.568,4.428c0-4.248-2.448-6.912-6.48-8.28l.576-1.656-4.14-.9c-.144.684-.252,1.152-.432,1.872a15.9,15.9,0,0,0-3.924.288c.18-1.44.216-1.62.432-2.952a49.941,49.941,0,0,0,9.5-1.908V5.9a35.142,35.142,0,0,1-8.82,2.412,26.1,26.1,0,0,1,1.116-3.528c.4-.108.828-.216.828-.54,0-.108,0-.288-.9-.54L419.04,2.7a59.36,59.36,0,0,0-1.332,6.084,50.874,50.874,0,0,1-6.84-.252l1.188,3.564c1.944,0,2.88,0,5.148-.108-.18,1.692-.288,2.592-.36,4C410.328,19.58,409,24.62,409,27.068c0,2.916,1.692,4.68,3.96,4.68a10.116,10.116,0,0,0,5.148-1.8,7.973,7.973,0,0,0,.5,1.332l3.456-1.872c-.36-1.152-.432-1.3-.684-2.16a32.5,32.5,0,0,0,5.868-9.072,5.127,5.127,0,0,1,3.6,4.968,6.782,6.782,0,0,1-2.088,4.968,10.444,10.444,0,0,1-6.156,2.556l2.628,3.312C427.716,33.26,435.024,31.208,435.024,23.288ZM423.468,17.42A29,29,0,0,1,420.516,23a36.535,36.535,0,0,1-.18-5.184A8.341,8.341,0,0,1,423.468,17.42Zm-6.156,9.036A5.716,5.716,0,0,1,413.964,28c-.612,0-1.332-.216-1.332-1.692s.9-3.744,4.14-6.444A51.323,51.323,0,0,0,417.312,26.456ZM473.076,28l-1.116-4.032c-1.476,2.088-2.844,2.736-3.852,2.736-.972,0-1.332-.4-1.332-2.376a49.987,49.987,0,0,1,.36-5.076c.468-4.824.5-5.22.5-5.868a4.1,4.1,0,0,0-3.96-4.32c-2.412,0-5.832,3.2-7.236,4.5l.792-1.584-2.3-2.2a25.218,25.218,0,0,1,.36-4.752c.108-.108.648-.576.648-.684,0-.324-.324-.36-.9-.432l-3.564-.4-.144,7.74a29.364,29.364,0,0,1-6.48,1.728l1.764,3.888c1.8-.576,2.772-.936,4.68-1.62l-.072,3.168a41.192,41.192,0,0,1-6.84,8.28l3.744,2.52c1.26-1.98,1.872-2.844,2.988-4.392l-.108,8.316,4.032-.216c-.216-4.212-.216-7.956-.252-12.96,2.52-3.1,5.292-6.552,7.344-6.552,1.224,0,1.4,1.476,1.4,2.412,0,1.512-.648,8.208-.648,9.576,0,.9,0,5.9,4.176,5.9C469.44,31.316,471.42,29.768,473.076,28ZM30.456,61.32a17.778,17.778,0,0,1-4.32,1.224c.252-3.744.288-4.14.5-4.32a3.287,3.287,0,0,1,.468-.288.265.265,0,0,0,.072-.216c0-.216-.036-.36-.828-.5L22.5,56.532c-.036,1.656-.108,4.824-.144,6.588-.756.072-1.98.18-3.132.18a24.794,24.794,0,0,1-3.348-.252l.036,3.564c.9.036,2.088.072,3.168.072a32.52,32.52,0,0,0,3.276-.144c.072,2.592.108,3.24.432,8.136a11.038,11.038,0,0,0-2.412-.288c-3.2,0-6.012,1.188-6.012,4.572,0,5,6.192,5,7.236,5,4.5,0,5.076-1.476,5.148-4.5a12.5,12.5,0,0,1,3.888,2.556l1.872-3.24a21.918,21.918,0,0,0-5.94-3.276,86.378,86.378,0,0,1-.54-9.5,23.218,23.218,0,0,0,4.428-1.008ZM23,78.024c.072,1.656.108,2.448-2.34,2.448-2.124,0-3.024-.648-3.024-1.476,0-.864,1.044-1.512,2.7-1.512A7.625,7.625,0,0,1,23,78.024ZM8.568,76.4a16.331,16.331,0,0,1-.144-2.376A61.588,61.588,0,0,1,10.044,60.6c.216-.792.36-1.332.792-1.512.5-.18.684-.252.684-.5,0-.36-.792-.684-.864-.684L7.2,56.5A62.094,62.094,0,0,0,5.076,72.912a38.174,38.174,0,0,0,1.4,11.052L9.5,83.352A23.491,23.491,0,0,1,12.312,75.9l-2.268-1.584ZM33.48,59.52a16.481,16.481,0,0,0-2.808-2.664L29.2,58.44a16.4,16.4,0,0,1,2.772,2.592ZM36,56.928a16.724,16.724,0,0,0-2.916-2.844l-1.476,1.548a22.358,22.358,0,0,1,2.88,2.808ZM38.952,78.1A29.6,29.6,0,0,1,45.9,86.088L49.644,83.1a21.175,21.175,0,0,0-7.992-7.812Zm49.968,6.7V81.228H62.532v-6.7l2.52,2.232a18.259,18.259,0,0,0,3.132-1.836v4.86H86.112V71.724H72.324c.576-.54,1.08-.972,1.728-1.656h14.4V67.152H76.536c.432-.576.468-.648.684-.684.5-.144.648-.18.648-.468,0-.324-.288-.36-.576-.432l-3.96-.792c-.252.5-.432.756-.54.972v-1.62h5.4v2.16h3.924v-2.16h6.228V61.356H82.116v-1.08c0-.036.288-.18.36-.216.144-.072.432-.216.432-.4,0-.288-.72-.36-.792-.36l-3.924-.216v2.268h-5.4V60.2c0-.108.036-.144.324-.252.252-.108.324-.18.324-.288,0-.252-.576-.36-.72-.36L68.9,59.088v2.268H63.756v2.772H68.9v2.16H72.36c-.324.432-.4.5-.684.864H63.54v2.916h5.22a21.6,21.6,0,0,1-6.228,4V58.8H88.524V55.38H58.392V85.692h4.14v-.9ZM82.08,76.98H72.216V74.532H82.08Zm42.48,8.172V71.508H111.384a41.355,41.355,0,0,0,8.784-11.268l-2.124-2.34h-8.5c.108-.216.54-1.224.684-1.4.072-.144.828-.288.936-.4a.409.409,0,0,0,.108-.288c0-.36-.792-.684-1.08-.792l-3.384-1.044c-2.592,5.616-4.788,8.6-11.088,12.888l3.312,2.844a44.434,44.434,0,0,0,4.5-3.78,27.215,27.215,0,0,1,4.14,3.744,35.935,35.935,0,0,1-13.248,6.876l3.06,3.2a61.369,61.369,0,0,0,7.128-3.42v9.324H108.9V83.892h11.376v1.26ZM114.516,61.32a25.9,25.9,0,0,1-4.032,5.724,30.743,30.743,0,0,0-4.536-3.672,23.716,23.716,0,0,0,1.584-2.052Zm5.76,19.188H108.9v-5.58h11.376Zm41-13.86a16.608,16.608,0,0,0-2.988-2.736L156.78,65.64a16.667,16.667,0,0,1,2.988,2.736Zm-2.916,3.276a15.7,15.7,0,0,0-2.988-2.772L153.9,68.88a15.984,15.984,0,0,1,2.952,2.772Zm1.188-9.4V56.352c-6.8,2.088-17.964,2.952-25.74,2.88l.612,4.032c3.6-.5,8.892-.936,13.716-1.332a26.842,26.842,0,0,0-4.752,5.472,13.1,13.1,0,0,0-2.448,7.164,9.031,9.031,0,0,0,2.664,6.48c2.916,2.916,6.948,3.672,8.856,4l1.4-4.392a11.338,11.338,0,0,1-6.336-1.836,5.713,5.713,0,0,1-2.592-4.68c0-2.736,1.728-5.976,4.392-8.64C153.9,60.888,157.86,60.636,159.552,60.528ZM186.8,68.3a22.743,22.743,0,0,0,9.828,7.776l2.88-3.024c-3.1-1.044-6.12-2.34-7.776-4.752h6.876v-3.42H182.844c.252-.432.36-.612.612-1.08.252-.036.792-.108.792-.5,0-.324-.324-.4-1.152-.612,1.8.036,6.264-.252,9.4-.5a27.641,27.641,0,0,1,2.232,2.376l2.556-2.592a33.061,33.061,0,0,0-7.812-6.444l-2.412,2.34a25.645,25.645,0,0,1,2.376,1.62c-2.232.036-6.444.072-7.848.072.252-.5,1.368-2.772,1.62-3.24.252-.108.684-.288.792-.36a.393.393,0,0,0,.288-.36c0-.144-.18-.288-.432-.324l-4.716-.54A40.323,40.323,0,0,1,176.9,59.52c-2.34,0-4.5-.036-6.912-.144l1.008,4a.346.346,0,0,0,.324.288c.144,0,.18-.072.4-.4.108-.144.18-.144.936-.18l6.552-.216a8.8,8.8,0,0,1-1.044,2.016h-9.612V68.3h6.876a26.489,26.489,0,0,1-7.128,5.112l2.808,2.664a29.71,29.71,0,0,0,4.068-2.556l1.512,2.808a28.691,28.691,0,0,0,9.756-3.924,2.12,2.12,0,0,1,.5-.252.959.959,0,0,0,.432.108c.108,0,.324-.108.324-.288a.619.619,0,0,0-.252-.4l-2.412-2.34a20.189,20.189,0,0,1-9.216,3.816,28.18,28.18,0,0,0,4.752-4.752ZM172.116,85.98c11.232-.18,15.084-1.44,23.436-6.084.18-.036,1.044-.144,1.188-.18a.278.278,0,0,0,.288-.252c0-.18-.072-.252-.216-.36l-3.456-2.448c-5.148,3.492-10.548,5.8-23.112,5.9Zm2.34-4.824c6.336-.432,12.816-2.628,15.984-5.256.144-.108.216-.108.9-.144.144,0,.432-.072.432-.288a.468.468,0,0,0-.288-.432l-2.808-2.088c-4.644,3.2-8.82,4.608-15.66,5.148Zm60.552,3.564V59.3H222.66v25.56h3.6V82.92h5.148v1.8Zm-14.472-23.9h-7.02v-3.78c0-.36.036-.468.432-.792.288-.252.4-.36.4-.612,0-.4-.468-.468-.828-.468l-3.888-.144c.144,2.556.18,4,.18,5.8h-4.536v3.528h4.5c-.792,7.92-2.268,13.356-6.588,18.792l4.392,1.44c5.076-6.876,5.652-16.272,5.9-20.232h3.312a91.791,91.791,0,0,1-.936,13.716c-.5,3.276-1.08,3.78-2.664,3.78a10.329,10.329,0,0,1-1.872-.18l1.44,3.924c4.536-.18,5.868-1.188,6.66-6.588A127.387,127.387,0,0,0,220.536,60.816Zm10.872,18.36H226.26V63.048h5.148ZM270,75.216,266.472,72.3c-3.528,6.912-8.352,8.172-10.368,8.172a3.471,3.471,0,0,1-3.168-1.512c-.684-1.224-.684-4.716-.684-6.372a136.069,136.069,0,0,1,1.008-14.4c.576-.468,1.008-.756,1.008-1.044,0-.216-.324-.468-1.188-.576l-4.788-.684c.108,2.412-.18,13.1-.18,15.3,0,8.64.576,10.476,2.268,11.952a8.008,8.008,0,0,0,5.256,1.836,13.012,13.012,0,0,0,7.164-2.3A26.861,26.861,0,0,0,270,75.216Zm36.612-14.8V56.1c-7.02,2.052-17.784,3.276-26.244,3.348l.72,4.248A137.653,137.653,0,0,1,294.8,62.148c-1.692,1.584-6.984,6.552-6.984,12.708,0,8.028,9,9.9,11.916,10.512L301,80.832a10.685,10.685,0,0,1-6.264-1.728,6.168,6.168,0,0,1-2.664-5.04c0-3.6,2.988-7.6,6.156-10.152A13.933,13.933,0,0,1,306.612,60.42Zm37.152,22.788V69.564H327.348V85.728h3.924v-5.04H339.8V81.7c0,.576-.252.936-1.044.936a13.314,13.314,0,0,1-2.2-.288l1.692,3.744C341.28,86.052,343.764,85.872,343.764,83.208Zm-3.96-9.4h-8.532V72.48H339.8Zm0,4.14h-8.532V76.44H339.8ZM346,68.124V65.172h-8.46v-1.4h5.976v-2.7h-5.976v-1.44h8.316V56.892h-8.316a1.04,1.04,0,0,1,.54-1.08c.108-.108.252-.216.252-.4,0-.144-.288-.288-.468-.288l-4.392-.324v2.088h-7.344v2.736h7.344v1.44h-5.22v2.7h5.22v1.4h-7.74l2.34-1.872a13.408,13.408,0,0,0-3.24-3.42l-1.476,1.512V57c0-.4.36-.576.648-.72.216-.108.5-.216.5-.576,0-.324-.36-.4-.612-.432l-4.536-.5v30.96h4V62.364a13.533,13.533,0,0,1,2.16,2.844v2.916ZM319.212,62.04c0-.18-.036-.4-.72-.5l-3.348-.612a33.749,33.749,0,0,1-1.656,8.388l3.384.972a35.078,35.078,0,0,0,1.476-7.6C318.78,62.58,319.212,62.436,319.212,62.04Zm64.512,21.168a13.715,13.715,0,0,1-4.068-3.564,40.907,40.907,0,0,0,3.492-9.432l-1.476-1.872H372.6V59.3h5.616V62.94a.88.88,0,0,1-.972.936h-2.232l1.584,3.6h1.62c2.628,0,4-.972,4-4.14v-7.7H368.784V85.764H372.6V83.28l2.7,2.3a17.09,17.09,0,0,0,2.268-2.592,17.164,17.164,0,0,0,3.348,3.024Zm-4.9-11.268a22.173,22.173,0,0,1-1.4,4.1,18.05,18.05,0,0,1-1.368-3.888l-3.132,1.764a26.637,26.637,0,0,0,2.376,5.9,15.015,15.015,0,0,1-2.7,3.024V71.94Zm-10.98-5.148v-3.42h-6.12V61.14H366.7v-3.2h-4.968V56.568c0-.18.216-.36.576-.648a.488.488,0,0,0,.216-.4.381.381,0,0,0-.432-.36l-4.14-.18v2.952h-4.68v3.2h4.68v2.232h-6.3v3.42H355.1l-.9.36a25.1,25.1,0,0,1,1.44,3.312h-3.312v3.6h5.616v2.124h-5.112v3.528h5.112v6.012h3.78V79.716H366.8V76.188h-5.076V74.064h5.58v-3.6h-2.88c.216-.5.5-1.152.972-2.376.54-.288.756-.4.756-.648a.392.392,0,0,0-.36-.4l-1.224-.252Zm-5.688,0a30.281,30.281,0,0,1-1.188,3.672h-3.384l1.4-.612a16.153,16.153,0,0,0-1.26-3.06Zm57.708,2.628a29.641,29.641,0,0,1-9.684-7.776h9.036V58.08H406.08V56.388c0-.216.324-.468.4-.5.072-.072.324-.252.324-.432,0-.4-.612-.468-.828-.468l-4.356-.18V58.08h-13.14v3.564H409.86l-2.52,2.592a33.931,33.931,0,0,0,5.8,5.652,26.858,26.858,0,0,0,4.032,2.988ZM400.86,64.38c0-.108-.144-.288-.54-.5l-3.312-1.944a23.121,23.121,0,0,1-4.5,5.256,24.985,24.985,0,0,1-4.248,3.456l3.1,2.412a56.383,56.383,0,0,0,8.676-8.352c.072-.072.108-.072.288-.072C400.608,64.632,400.86,64.632,400.86,64.38Zm17.892,17.964c-6.228-1.332-8.892-2.7-11.988-5.22a23,23,0,0,0,4.284-6.984c.18-.468.216-.468.54-.54.18,0,.324-.036.324-.216s-.288-.324-.612-.468l-3.6-1.476a16.988,16.988,0,0,1-3.672,6.948,29.273,29.273,0,0,1-3.852-6.588l-3.456,1.872a31.714,31.714,0,0,0,4.536,7.524A18.333,18.333,0,0,1,396,80.508a32.019,32.019,0,0,1-7.452,2.376l2.808,3.6a32.358,32.358,0,0,0,12.528-6.516,25.994,25.994,0,0,0,12.384,6.048ZM436.1,86.232c4.824-2.124,6.516-3.492,8.424-6.768,2.736,3.672,5.076,5.076,8.964,6.8l2.952-3.6c-5.184-1.512-6.912-3.1-8.712-5.328h8.424V73.92h-1.332V62.328H449.1a43.334,43.334,0,0,0,4.212-4.284l-2.088-1.44h-6.048l.324-.4c.828-.144,1.152-.216,1.152-.576,0-.216-.108-.36-1.3-.54l-3.42-.5a16.225,16.225,0,0,1-6.372,5.4l3.384,2.3a23.874,23.874,0,0,0,3.564-2.844h4.212a16.637,16.637,0,0,1-2.592,2.88H436.32V73.92h-2.268v3.42h7.416c-1.692,2.592-3.672,4.032-8.28,5.652Zm3.744-15.264,1.44,1.08a9.049,9.049,0,0,0,3.168-4.572c.468-.18.684-.288.684-.54,0-.072,0-.4-.5-.576l-2.16-.828h2.88V68.88a1.829,1.829,0,0,0,1.836,2.016h2.232c.936,0,1.3-.36,1.872-1.188V73.92h-4.824c.072-.324.072-.36.18-.792.252-.216.684-.576.684-.972,0-.36-.9-.432-1.224-.432l-3.348-.18a16.173,16.173,0,0,1-.216,2.376h-2.7Zm1.908-5.436a5.12,5.12,0,0,1-1.908,3.456V65.532Zm8.388,1.188c-.36.9-.72,1.728-1.188,1.728s-.5-.468-.5-.864V65.532H451.3V67.62Zm-24.876,7.056c.108.792.144,1.4.54,1.4.216,0,.36-.216.72-.72.144-.18.216-.324.36-.4.072-.036,1.764-.756,1.98-.864v7.344c0,.972-.36,1.224-1.44,1.224a8.9,8.9,0,0,1-2.16-.288l1.8,4.5c1.62,0,5.868-.072,5.868-3.06V71.688c1.08-.4,1.224-.468,2.34-.9V67.08c-1.368.5-1.692.648-2.34.864V63.732h2.484V60.276h-2.484V56.46c0-.144.5-.576.72-.756a.734.734,0,0,0,.288-.54c0-.324-.18-.4-1.512-.432l-3.564-.108v5.652H425.34v3.456h3.528v5.436c-1.4.432-2.628.792-4,1.152ZM32.4,118.648a16.608,16.608,0,0,0-2.988-2.736L27.9,117.64a16.666,16.666,0,0,1,2.988,2.736Zm-2.916,3.276a15.7,15.7,0,0,0-2.988-2.772L25.02,120.88a15.983,15.983,0,0,1,2.952,2.772Zm1.188-9.4v-4.176c-6.8,2.088-17.964,2.952-25.74,2.88l.612,4.032c3.6-.5,8.892-.936,13.716-1.332a26.842,26.842,0,0,0-4.752,5.472,13.1,13.1,0,0,0-2.448,7.164,9.031,9.031,0,0,0,2.664,6.48c2.916,2.916,6.948,3.672,8.856,4l1.4-4.392a11.338,11.338,0,0,1-6.336-1.836,5.713,5.713,0,0,1-2.592-4.68c0-2.736,1.728-5.976,4.392-8.64C25.02,112.888,28.98,112.636,30.672,112.528ZM65.808,117.5l-.648-3.6a41.044,41.044,0,0,1-6.552,3.24c-.576-1.26-.72-1.62-1.188-2.736a23.713,23.713,0,0,0,5.688-2.448l-.792-3.492a34.748,34.748,0,0,1-6.156,2.772,31.378,31.378,0,0,1-1.08-3.312c0-.108.036-.216.324-.5.18-.18.288-.288.288-.468,0-.432-.9-.324-1.188-.288l-4.1.468c.576,1.692.972,2.844,1.8,5.076a44.4,44.4,0,0,1-8.388.72l1.116,3.456a41.33,41.33,0,0,0,8.568-.972c.36.828.756,1.728,1.3,2.952a47.722,47.722,0,0,1-11.34,1.08l1.26,3.636a46.43,46.43,0,0,0,11.556-1.584c.684,1.332,1.008,1.98,1.872,3.528a27.5,27.5,0,0,0-5.148-.576c-4.068,0-7.956,1.332-7.956,6.264,0,4.752,4.464,6.8,10.944,6.8a36.241,36.241,0,0,0,5.688-.432l.36-4.248a26.262,26.262,0,0,1-7.2.972c-1.224,0-5.9,0-5.9-3.06,0-1.944,1.98-2.952,4.356-2.952a20.27,20.27,0,0,1,9.432,2.736l2.2-2.736a39.08,39.08,0,0,1-4.752-7.488A26.7,26.7,0,0,0,65.808,117.5Zm37.008,14.292a29.928,29.928,0,0,0-9.108-4.068c-.108-2.124-.108-2.484-.18-4.284a77.381,77.381,0,0,0,7.7-.9v-3.924c-3.312.612-4.644.828-7.776,1.224v-4.248c1.8-.036,5.148-.108,9.144-.108l.144-3.816c-3.384.252-4.608.324-9.216.54.036-1.872.072-2.556.072-2.592a1.17,1.17,0,0,1,.468-.648c.4-.324.468-.36.468-.5,0-.252-.216-.36-.9-.432l-4.392-.432.108,4.788c-3.2.072-5.148.144-9.252.144l.072,3.888c3.1-.36,5.148-.5,9.288-.684l.072,4.5a24.706,24.706,0,0,1-2.484.072c-.612,0-1.368,0-1.368-.5,0-.468.54-.864,1.188-1.332L84.816,116.7c-1.4,1.008-3.852,2.7-3.852,4.464,0,1.4,1.656,2.592,4.968,2.592,1.044,0,3.024-.072,3.672-.108l.072,3.456-1.008-.036c-8.1-.288-8.46,3.888-8.46,4.932,0,2.916,3.1,4.68,8.064,4.68,4.608,0,5.472-1.44,5.616-5.112a27.137,27.137,0,0,1,6.588,3.564Zm-13.1-1.26c.036,2.016-.108,2.664-2.448,2.664-.432,0-2.736,0-2.736-1.224,0-.936,1.152-1.548,3.492-1.548A9.318,9.318,0,0,1,89.712,130.528ZM141.7,115.156v-3.888c-3.672.288-4.788.4-9.792.684v-3.708c0-.144.036-.216.288-.432s.324-.324.324-.54c0-.36-.216-.468-1.044-.5l-4-.252c.216,2.628.216,4.536.252,5.652-7.56.36-10.656.36-13.1.36V116.7c4.572-.576,10.008-.9,13.212-1.08l.072,2.7a4.748,4.748,0,0,0-1.692-.288c-3.672,0-5.652,2.736-5.652,6.7a6.442,6.442,0,0,0,1.872,5,4.533,4.533,0,0,0,2.952,1.116,7.239,7.239,0,0,0,1.944-.36c-.792,2.628-2.988,4.5-5.148,5.9l4.032,2.088a24.976,24.976,0,0,0,4.9-6.7,16.142,16.142,0,0,0,1.836-6.948,9.285,9.285,0,0,0-1.044-4.392v-5.04C136.584,115.228,138.96,115.156,141.7,115.156Zm-13.1,9.108c0,2.556-1.728,3.348-2.484,3.348-.828,0-1.98-.828-1.98-2.988,0-1.908,1.008-3.168,2.448-3.168a1.873,1.873,0,0,1,1.332.5A3.357,3.357,0,0,1,128.592,124.264Z" transform="translate(-2.124 -2.156)"/></svg>