<svg xmlns="http://www.w3.org/2000/svg" width="302.46" height="85.88" viewBox="0 0 302.46 85.88"><defs><style>.a{fill:#2f2f2f;}</style></defs><path class="a" d="M26.14,18.02V16.14h-2.9V14.22h2.2V12.5h-2.2V10.62h2.2V8.9h-2.2V7.28h2.9V5.4H23.6a15.465,15.465,0,0,0,1.04-1.96c.12-.18.16-.18.52-.28a.2.2,0,0,0,.16-.2c0-.12-.2-.24-.26-.26l-2.2-.82A17.952,17.952,0,0,1,21,5.4H19.46c.26-.46.82-1.5,1.08-2.08a.435.435,0,0,1,.34-.26c.1-.02.26-.08.26-.24,0-.14-.22-.24-.28-.26l-2.08-.78a20.21,20.21,0,0,1-3.42,6.04v-.4h-5.2V9.06h5.2V8.9l1.3,1.06a8.738,8.738,0,0,0,.76-1.08V18.8h2v-.78ZM21.2,12.5H19.42V10.62H21.2Zm0-3.6H19.42V7.28H21.2Zm0,7.24H19.42V14.22H21.2Zm-5.66,2.12V12.6H9.78v6.28h1.96V17.56h1.84v.7Zm-1.96-2.28H11.74V14.2h1.84ZM15.3,3.74V2.08H10.34V3.74Zm.94,2.74V4.72H9.2V6.48Zm-.88,5.14V9.98h-5.2v1.64ZM46.24,10.6c0-.72-.5-3.08-3.12-5.88l-1.66,1.2A10.228,10.228,0,0,1,43.68,9.8c0,.48-.46.52-1.32.6l1.36,2.06C45,12.22,46.24,11.74,46.24,10.6ZM41.5,9.72c0-1.22-.22-3.44-2.94-3.44a9.375,9.375,0,0,0-1.58.16c.14-.76.28-1.46.38-2.18.02-.2.06-.22.42-.44.22-.14.26-.2.26-.28,0-.18-.4-.3-.56-.32l-2.44-.34a20.7,20.7,0,0,1-.44,4c-.88.14-2.72.48-4.18.6l.8,2.42a25.178,25.178,0,0,1,2.84-.86,20.993,20.993,0,0,1-3.96,7.82l2.28,1.02a33.152,33.152,0,0,0,4.14-9.32,7.532,7.532,0,0,1,1.14-.1c1.44,0,1.66.64,1.66,1.7a11.824,11.824,0,0,1-1.22,4.98,1.23,1.23,0,0,1-1.2.5,5.592,5.592,0,0,1-1.8-.32l.28,2.42a12.65,12.65,0,0,0,1.72.12,3.108,3.108,0,0,0,3-1.54A15.338,15.338,0,0,0,41.5,9.72Zm25.14.64A7.066,7.066,0,0,0,59.2,3.08a8.626,8.626,0,0,0-8.82,8.48,5.691,5.691,0,0,0,4,5.38c1.04,0,1.96-1.68,2.56-2.92a28.4,28.4,0,0,0,2.48-8.9,5.117,5.117,0,0,1,3.4,1.34,4.715,4.715,0,0,1,1.44,3.5,6.257,6.257,0,0,1-1.44,3.98,6.736,6.736,0,0,1-3.6,2.14l1.48,2.06a9.655,9.655,0,0,0,4.66-3.52A7.473,7.473,0,0,0,66.64,10.36Zm-9.6-4.88c-.4,3.12-2.12,8.34-3.16,8.34-.36,0-1.28-.84-1.28-2.46a6.55,6.55,0,0,1,2-4.44A5.9,5.9,0,0,1,57.04,5.48ZM87.16,18.7V2.26H78.62V18.84h2.2v-1.2h4.1V18.7Zm-2.24-7.8h-4.1V8.52h4.1Zm0-4.32h-4.1V4.2h4.1Zm0,9.02h-4.1V12.84h4.1ZM78.2,10.98a13.831,13.831,0,0,1-2.72-4.12V6.64H78.1V4.74H75.48V2.58c0-.06.1-.14.2-.22s.12-.14.12-.18c0-.22-.42-.24-.54-.26l-1.82-.18v3H70.5v1.9h2.76a16.913,16.913,0,0,1-3.6,7.02l1.86,1.1a16.159,16.159,0,0,0,1.92-2.88v6.96h2.04V10.82a18.5,18.5,0,0,0,1.24,1.64ZM96.3,3.94V2.22H91.6V3.94Zm.58,2.5V4.76H90.82V6.44Zm11,10.72c-4-1.38-4.56-3.6-4.56-5.8a.458.458,0,0,1,.22-.48c.24-.22.34-.32.34-.48,0-.18-.16-.26-.78-.26l-2.14-.02c.02.32.06.8.06,1.3,0,4.8-3.06,5.54-4.3,5.8V12.6H91.08v6.28h1.98v-.8h1.66v.62h2V17.44l1.62,1.74a6.923,6.923,0,0,0,4-3.54,8.9,8.9,0,0,0,3.84,3.38Zm-13.16-.78H93.06V14.34h1.66ZM107.7,4.14c0-.14-.16-.26-.24-.3l-1.88-1.02a11.956,11.956,0,0,1-1.98,2.42l1.6,1.26a9.187,9.187,0,0,0,1.78-2c.1-.12.14-.12.44-.14C107.5,4.34,107.7,4.32,107.7,4.14Zm.42,5.04a10.383,10.383,0,0,1-3.82-2.04,3.23,3.23,0,0,1-1.08-2.68,8.454,8.454,0,0,1,.12-1.94,2.2,2.2,0,0,0,.22-.24.321.321,0,0,0,.1-.22c0-.18-.22-.22-.76-.24l-2-.04c.04.48.08,1.1.08,1.78,0,2.8-.52,4.5-4.24,5.62l1.54,1.78a8.222,8.222,0,0,0,3.94-3.24,9.17,9.17,0,0,0,4.18,3.32ZM100.1,4.04c0-.12-.16-.16-.44-.22l-1.84-.34a13.121,13.121,0,0,1-.44,3.18l1.96.36a17.263,17.263,0,0,0,.36-2.6C99.86,4.34,100.1,4.2,100.1,4.04Zm7.42,8.22c0-.14-.22-.3-.32-.34l-1.86-.78a11.026,11.026,0,0,1-1.44,2.22l1.72,1.12a9.209,9.209,0,0,0,1.24-1.92c.1-.02.22-.08.36-.1C107.42,12.42,107.52,12.38,107.52,12.26Zm-11.2-3.3V7.26h-4.8v1.7Zm4.12,3.3c0-.12-.14-.18-.44-.24l-2-.42a8.939,8.939,0,0,1-.82,3.02l2,.66a10.919,10.919,0,0,0,.84-2.66C100.18,12.54,100.44,12.42,100.44,12.26Zm-4.12-.62V9.96h-4.8v1.68Zm29.94-5.6V3.72a13.971,13.971,0,0,1-4.74.82,17.616,17.616,0,0,1-2.56-.22v2.2c1.06.1,1.98.1,2.14.1A26.861,26.861,0,0,0,126.26,6.04Zm.96,10.5V14.06a16.315,16.315,0,0,1-4.56.62c-2.02,0-2.22-.54-2.24-2.44l-2.18.3c.06,3.38.82,4.36,4.46,4.36A27.337,27.337,0,0,0,127.22,16.54Zm-10.46-3.56-1.18-.64c-.44.78-.56.98-.8,1.4A11,11,0,0,1,114.5,11c0-3.02.86-6.64,1.16-6.82.04-.02.3-.12.34-.14a.237.237,0,0,0,.1-.18c0-.16-.38-.3-.52-.36l-2.04-.74a39.419,39.419,0,0,0-.84,4.56,35.377,35.377,0,0,0-.3,3.94,17.425,17.425,0,0,0,.82,5.26,6.122,6.122,0,0,0,.74,1.58l1.58-.62A17.744,17.744,0,0,1,116.76,12.98Zm31.48-2.62a7.066,7.066,0,0,0-7.44-7.28,8.626,8.626,0,0,0-8.82,8.48,5.691,5.691,0,0,0,4,5.38c1.04,0,1.96-1.68,2.56-2.92a28.4,28.4,0,0,0,2.48-8.9,5.117,5.117,0,0,1,3.4,1.34,4.715,4.715,0,0,1,1.44,3.5,6.257,6.257,0,0,1-1.44,3.98,6.736,6.736,0,0,1-3.6,2.14l1.48,2.06a9.655,9.655,0,0,0,4.66-3.52A7.473,7.473,0,0,0,148.24,10.36Zm-9.6-4.88c-.4,3.12-2.12,8.34-3.16,8.34-.36,0-1.28-.84-1.28-2.46a6.55,6.55,0,0,1,2-4.44A5.9,5.9,0,0,1,138.64,5.48Zm28.34,7.24a4.408,4.408,0,0,0-4.44-4.42,15.924,15.924,0,0,0-1.94.12,49.45,49.45,0,0,1,4.44-4.28L164,2.52a22.666,22.666,0,0,1-6.06,1c-.62,0-1.76-.08-2.24-.12l.46,2.24a18.671,18.671,0,0,0,4.68-.5,39.484,39.484,0,0,1-7.4,7.22l1.68,1.76a22.578,22.578,0,0,1,4.12-3.58,5.424,5.424,0,0,1,2.28-.5c1.3,0,3.24.64,3.24,2.62a3.523,3.523,0,0,1-1.32,2.66,5.227,5.227,0,0,0-3.94-2.34,2.8,2.8,0,0,0-2.94,2.66c0,1.48,1.28,2.74,3.78,2.74C163.86,18.38,166.98,16.04,166.98,12.72Zm-5.4,3.58a5.686,5.686,0,0,1-1.36.18c-.72,0-1.64-.2-1.64-.9a.881.881,0,0,1,1-.84C160.72,14.74,161.32,15.84,161.58,16.3ZM186.26,5.16l-.94-1.68a32.448,32.448,0,0,1-4.4.24,32.442,32.442,0,0,1-5.4-.46l.54,2.3c1.18.1,2.54.12,5.86.12L179.88,7.4l1.46,1.58C182.44,8.06,184.5,6.36,186.26,5.16Zm.8,12.1-.12-2.48a26.687,26.687,0,0,1-6.24.54c-.88,0-2.84,0-3.4-.48a.741.741,0,0,1-.28-.64c0-.68.68-1.3,1.18-1.72l-1.84-1.5a5.248,5.248,0,0,0-2,3.82,1.911,1.911,0,0,0,.66,1.56c1.16,1.1,4.02,1.26,5.8,1.26C183.14,17.62,185.3,17.42,187.06,17.26Zm20.16.76V15.46a25.919,25.919,0,0,1-6.18.9c-2.1,0-3.68-.7-3.68-2.14,0-1.34,1.48-2.36,2.38-2.92a30.089,30.089,0,0,1,7.4-3.16L206.4,5.7c-2.46,1.16-2.72,1.28-5.02,2.36a2.435,2.435,0,0,1-1.16-1.36,16.185,16.185,0,0,1-.58-4.74l-2.56.38c.64,3.82.74,4.4,1.02,5.06a6.3,6.3,0,0,0,1.18,1.8c-2.2,1.3-4.14,2.58-4.14,5.08a3.811,3.811,0,0,0,2.04,3.42,8.6,8.6,0,0,0,4.4.8A35.876,35.876,0,0,0,207.22,18.02Zm20.86-4.12a8.289,8.289,0,0,0-1.32-4.34l-1.86.98a6.141,6.141,0,0,1,.9,2.98c0,2.42-2.02,3.12-3.66,3.12a2.692,2.692,0,0,1-1.88-.6,2.386,2.386,0,0,1-.64-1.76,12.1,12.1,0,0,1,.24-1.84c.54.04,1.02.1,1.78.1.98,0,1.6-.06,1.9-.08l.52-2.2a13,13,0,0,1-2.36.16,7.7,7.7,0,0,1-1.32-.06c.36-1.28.6-2,.84-2.68a18.423,18.423,0,0,0,2.94.16l.46-2.16c-1.16.02-1.62.02-2.62-.02a20.792,20.792,0,0,1,1.06-2.34c.32-.1.6-.04.6-.28,0-.22-.3-.32-.46-.38l-2.3-.86c-.28,1.02-.58,1.86-1.18,3.6a15.258,15.258,0,0,1-3.4-1l-.18,2.32c1.14.3,1.66.4,2.9.64-.44,1.3-.62,1.96-.82,2.66a14.229,14.229,0,0,1-2.7-.76l-.34,2.2a15.789,15.789,0,0,0,2.52.66,13.742,13.742,0,0,0-.24,2.26c0,3.68,2.9,4.36,4.84,4.36C224.82,18.74,228.08,17.36,228.08,13.9ZM250.1,8.36a9.226,9.226,0,0,0-1.66-1.52l-.84.96a9.259,9.259,0,0,1,1.66,1.52Zm-1.62,1.82a8.72,8.72,0,0,0-1.66-1.54L246,9.6a8.879,8.879,0,0,1,1.64,1.54Zm.66-5.22V2.64c-3.78,1.16-9.98,1.64-14.3,1.6l.34,2.24c2-.28,4.94-.52,7.62-.74a14.912,14.912,0,0,0-2.64,3.04,7.275,7.275,0,0,0-1.36,3.98,5.017,5.017,0,0,0,1.48,3.6,8.975,8.975,0,0,0,4.92,2.22l.78-2.44a6.3,6.3,0,0,1-3.52-1.02,3.174,3.174,0,0,1-1.44-2.6,7.424,7.424,0,0,1,2.44-4.8A8.15,8.15,0,0,1,249.14,4.96Zm19.52,2.76-.36-2a22.8,22.8,0,0,1-3.64,1.8c-.32-.7-.4-.9-.66-1.52a13.174,13.174,0,0,0,3.16-1.36l-.44-1.94a19.3,19.3,0,0,1-3.42,1.54,17.436,17.436,0,0,1-.6-1.84c0-.06.02-.12.18-.28.1-.1.16-.16.16-.26,0-.24-.5-.18-.66-.16l-2.28.26c.32.94.54,1.58,1,2.82a24.664,24.664,0,0,1-4.66.4l.62,1.92a22.961,22.961,0,0,0,4.76-.54c.2.46.42.96.72,1.64a26.513,26.513,0,0,1-6.3.6l.7,2.02a25.794,25.794,0,0,0,6.42-.88c.38.74.56,1.1,1.04,1.96a15.277,15.277,0,0,0-2.86-.32c-2.26,0-4.42.74-4.42,3.48,0,2.64,2.48,3.78,6.08,3.78a20.133,20.133,0,0,0,3.16-.24l.2-2.36a14.59,14.59,0,0,1-4,.54c-.68,0-3.28,0-3.28-1.7,0-1.08,1.1-1.64,2.42-1.64a11.261,11.261,0,0,1,5.24,1.52l1.22-1.52a21.712,21.712,0,0,1-2.64-4.16A14.833,14.833,0,0,0,268.66,7.72Zm5.48,7A16.444,16.444,0,0,1,278,19.16l2.08-1.66a11.764,11.764,0,0,0-4.44-4.34ZM302,8.4a16.932,16.932,0,0,1-6.2-1.24,17.648,17.648,0,0,0,3.7-3.32l-.98-.96h-6.28l.22-.24c.4-.1.66-.16.66-.4,0-.14-.52-.26-.88-.36l-1.48-.38a15.392,15.392,0,0,1-5.52,4.6l1.66,1.36a16.494,16.494,0,0,0,2.98-2.12,10.282,10.282,0,0,0,1.94,1.8,20.336,20.336,0,0,1-7.1,1.72l1.18,1.9a25.428,25.428,0,0,0,7.88-2.36,21.264,21.264,0,0,0,7.18,2.02Zm-.1,8.12a12.948,12.948,0,0,1-3.38-1.26,6.95,6.95,0,0,1-2.36-1.88h5.66V11.5h-7.44v-.74a.635.635,0,0,1,.22-.36.513.513,0,0,0,.2-.32c0-.1,0-.26-1-.3l-1.64-.08v1.8h-7.34v1.88h5.46a16.927,16.927,0,0,1-5.7,3.7l1.66,1.72a24.153,24.153,0,0,0,5.92-4.2v4.46h2.22V14.52a13.339,13.339,0,0,0,6.06,3.84ZM295.38,4.56a10.126,10.126,0,0,1-1.64,1.54,9.764,9.764,0,0,1-1.82-1.54ZM21.08,46.64V44.56H16.8V41.28h3.92V39.2H16.8V36.9c0-.1.06-.16.2-.3a.518.518,0,0,0,.18-.34c0-.22-.34-.26-.5-.28l-2.28-.2V39.2H13.06c.06-.16.26-.92.3-1,.04-.1.06-.1.32-.22a.264.264,0,0,0,.18-.24c0-.16-.14-.24-.38-.28l-2.02-.42a16.248,16.248,0,0,1-2.24,5.74l1.9.92a16.887,16.887,0,0,0,1.22-2.42H14.4v3.28H9.46v2.08H14.4v6.28h2.4V46.64ZM9.98,36.86c0-.12-.08-.24-.5-.38l-2.14-.76a21.925,21.925,0,0,1-4.32,7.72l2.04,1.28a5.213,5.213,0,0,0,.6-.8v9H7.84V41.32c0-.1.04-.2.22-.36.12-.1.22-.18.22-.36s-.14-.32-.34-.5a21.934,21.934,0,0,0,1.34-2.66c.08-.2.2-.22.46-.3A.282.282,0,0,0,9.98,36.86Zm29.48,3.18V37.72a13.971,13.971,0,0,1-4.74.82,17.616,17.616,0,0,1-2.56-.22v2.2c1.06.1,1.98.1,2.14.1A26.861,26.861,0,0,0,39.46,40.04Zm.96,10.5V48.06a16.315,16.315,0,0,1-4.56.62c-2.02,0-2.22-.54-2.24-2.44l-2.18.3c.06,3.38.82,4.36,4.46,4.36A27.337,27.337,0,0,0,40.42,50.54ZM29.96,46.98l-1.18-.64c-.44.78-.56.98-.8,1.4A11,11,0,0,1,27.7,45c0-3.02.86-6.64,1.16-6.82.04-.02.3-.12.34-.14a.237.237,0,0,0,.1-.18c0-.16-.38-.3-.52-.36l-2.04-.74a39.419,39.419,0,0,0-.84,4.56,35.377,35.377,0,0,0-.3,3.94,17.425,17.425,0,0,0,.82,5.26,6.122,6.122,0,0,0,.74,1.58l1.58-.62A17.744,17.744,0,0,1,29.96,46.98Zm28.46-3.52a21.686,21.686,0,0,0-3.52-3.44L53.2,41.7a14,14,0,0,1,3.3,3.28Zm3.94,7.42a29.619,29.619,0,0,0-2.6-6.06l-2.2,1.16a26.123,26.123,0,0,1,2.42,5.8ZM61.88,40V37.96H54.52v-1.3c0-.1.1-.14.26-.24.22-.12.24-.22.24-.28,0-.16-.06-.24-.62-.28l-2.54-.16v2.26H45.22c.3,2.9.32,6,.32,6.32,0,4.48-.78,6.44-1.68,8.24l2.32.72c.86-1.88,1.6-4.06,1.6-10.44a26.5,26.5,0,0,0-.12-2.8Zm-3.5,9.36-2.2-.84c0,.18,0,1.46-.02,1.52a.732.732,0,0,1-.74.72h-.84c-.5,0-.62-.26-.62-.96V44.06a.3.3,0,0,1,.12-.24c.24-.2.3-.24.3-.36,0-.2-.32-.26-.72-.28l-2.26-.1v8.2c0,.84.38,1.78,1.48,1.78h3.5C58.06,53.06,58.24,51.34,58.38,49.36Zm-7.2-3.74c0-.2-.3-.26-.48-.3l-2.02-.42a18.065,18.065,0,0,1-1.24,5.84l2.2.84a19.962,19.962,0,0,0,1.24-5.46c.02-.1.06-.14.22-.34A.208.208,0,0,0,51.18,45.62ZM81,38.74a12.647,12.647,0,0,0-1.86-1.72l-.84.94a13.314,13.314,0,0,1,1.84,1.72ZM79.18,40.5a12.114,12.114,0,0,0-1.86-1.72l-.84.94a12.568,12.568,0,0,1,1.84,1.72Zm1.54,6.52-1.9-1.58c-1.62,3.42-4.04,4.6-5.64,4.6a1.981,1.981,0,0,1-1.62-.72c-.28-.34-.48-.88-.48-3.76a54.933,54.933,0,0,1,.48-7.84c.12-.12.46-.36.46-.54,0-.22-.56-.28-.62-.28l-2.56-.3c.02,1.24,0,6.78,0,7.92,0,4.86.42,6.12,1.26,6.9a4.364,4.364,0,0,0,2.94,1.02C76.88,52.44,79.26,49.18,80.72,47.02Zm20.52-8.12V36.5a60.55,60.55,0,0,1-14.58,1.86l.4,2.36a76.473,76.473,0,0,1,7.62-.86c-.94.88-3.88,3.64-3.88,7.06,0,4.46,5,5.5,6.62,5.84l.7-2.52a5.936,5.936,0,0,1-3.48-.96,3.427,3.427,0,0,1-1.48-2.8c0-2,1.66-4.22,3.42-5.64A7.741,7.741,0,0,1,101.24,38.9Zm12.42-1.94V34.9h-7.08V53.8h2.04V36.96Zm18.96,5.82V40.5h-3.36V37.48c.04-.1.08-.14.22-.26.12-.1.18-.16.18-.24,0-.24-.46-.3-.62-.32l-2.06-.28c.04,1.26.04,2.6.04,4.12h-3.78V37.7c0-.1.04-.14.26-.3.12-.08.16-.12.16-.2,0-.2-.14-.22-.6-.28l-2.2-.24V40.5h-3.7v2.28h3.7v4.58h2.38V42.78h3.78c-.08,4.48-1.22,6.52-4.84,8.5l1.64,1.56c3.88-2.36,5.2-4.36,5.42-10.06Zm11.06-3.3a18.655,18.655,0,0,0-4.2-2.48l-1.22,1.88a18.072,18.072,0,0,1,4.1,2.52Zm9.52,2.08-1.38-2a27.9,27.9,0,0,1-5.86,6.12,18.726,18.726,0,0,1-7.42,3.46l1.4,2.4c.14.26.32.38.44.38.16,0,.2-.34.3-.62a26.9,26.9,0,0,0,7.54-4.46A28.119,28.119,0,0,0,153.2,41.56Zm19.4-1.4-1.62-1.9a2.017,2.017,0,0,1-.88.38h-4.48c.2-.38.44-.78.56-1.08.28-.08.5-.12.5-.28,0-.2-.4-.38-.52-.42l-2.06-.78a17.418,17.418,0,0,1-5.52,7.68l1.98,1.36a27.672,27.672,0,0,0,3.8-4.46h5.12a15.942,15.942,0,0,1-2.64,5.26,17.434,17.434,0,0,1-6.26,5.22l2.18,1.5a19.432,19.432,0,0,0,5.42-4.74,23.491,23.491,0,0,0,3.56-6.78A2.083,2.083,0,0,1,172.6,40.16Zm21.1,9.44a39.975,39.975,0,0,0-5.3-4.94,24.158,24.158,0,0,0,2.32-4.48,2.771,2.771,0,0,1,1.08-1.2l-1.54-1.7a1.9,1.9,0,0,1-1.04.44H180.6v2.32h7.62a15.987,15.987,0,0,1-3.4,5.46,17.737,17.737,0,0,1-6.38,4.32l1.76,1.82a19.306,19.306,0,0,0,6.84-5.14,31.544,31.544,0,0,1,4.88,5Zm21.8-12.28a1.85,1.85,0,1,0-1.84,1.88A1.857,1.857,0,0,0,215.5,37.32Zm-.72,0a1.135,1.135,0,0,1-1.12,1.14,1.14,1.14,0,0,1,0-2.28A1.135,1.135,0,0,1,214.78,37.32Zm-.6,10.52a18.472,18.472,0,0,0-3.38-4.06l-1.54,1.32a15.163,15.163,0,0,1,3.16,4.16Zm-.82-5.6V40.18h-5.74V37.62c0-.1.1-.18.18-.22.18-.12.26-.18.26-.28,0-.18-.22-.24-.54-.28l-2.16-.28v3.62h-5.82v2.06h5.82v7.04c0,.48-.1.64-.74.64a8.379,8.379,0,0,1-1.58-.16l.76,2.32c3.34-.02,3.82-.34,3.82-2.2V42.24Zm-9.24,3.16c0-.14-.3-.34-.38-.38l-1.64-1.08a14.676,14.676,0,0,1-4.04,4.5l2.06,1.28a17.471,17.471,0,0,0,3.42-3.98c.06-.08.08-.08.34-.16C204,45.56,204.12,45.52,204.12,45.4Zm29.04-7.38c0-.16-.26-.42-.34-.48l-1.74-1.44a31.05,31.05,0,0,1-11.6,8.5l1.74,1.78a35.861,35.861,0,0,0,5.04-2.84v8.8h2.5V41.68a25.609,25.609,0,0,0,3.3-3.12c.28-.3.32-.34.62-.36C233.08,38.18,233.16,38.16,233.16,38.02Zm12.52,1.46a18.655,18.655,0,0,0-4.2-2.48l-1.22,1.88a18.072,18.072,0,0,1,4.1,2.52Zm9.52,2.08-1.38-2a27.9,27.9,0,0,1-5.86,6.12,18.726,18.726,0,0,1-7.42,3.46l1.4,2.4c.14.26.32.38.44.38.16,0,.2-.34.3-.62a26.9,26.9,0,0,0,7.54-4.46A28.119,28.119,0,0,0,255.2,41.56Zm19.92,4.14A24.483,24.483,0,0,0,272,43.3a17.859,17.859,0,0,0-3.4-1.82l-.94,1.48V37.7c0-.1.52-.42.52-.54,0-.24-.42-.3-.48-.32l-2.4-.42V52.26h2.36V43.62a20.36,20.36,0,0,1,5.88,4Zm10.9,8.2V35h-2.04V51.84h-5.04V53.9Zm19.46-9.68-.68-2.28c-.94.42-1.2.54-3.54,1.64a2.681,2.681,0,0,0-2.72-2.02,3.867,3.867,0,0,0-1.72.42c.34-.52.5-.8,1.14-1.98a42.1,42.1,0,0,0,4.78-.76l.14-2.24a16.887,16.887,0,0,1-3.92,1.02c.1-.22.6-1.34.62-1.36.02,0,.42-.18.46-.2.12-.04.2-.1.2-.22,0-.14-.34-.18-.4-.2l-2.5-.44a15.509,15.509,0,0,1-1,2.66,28.131,28.131,0,0,1-3.82-.08l.24,2.08c.84,0,1.46-.02,2.6-.08a26.592,26.592,0,0,1-3.94,5.5l1.96,1.22c1.1-1.8,2.3-3.62,4.26-3.62a1.386,1.386,0,0,1,1.52,1.32c-3,1.54-4.84,2.48-4.84,4.96a2.734,2.734,0,0,0,.76,1.96c1.26,1.34,3.58,1.34,4.7,1.34a33.1,33.1,0,0,0,4.76-.3V50.3a23.124,23.124,0,0,1-5.1.64c-1.46,0-3-.26-3-1.56,0-1.4,2.08-2.44,2.84-2.82-.02.88-.04,1.86-.1,3h2.32c0-.68-.04-3.16-.04-3.94C302.94,45.06,303.9,44.72,305.48,44.22ZM108.98,73.24h1.56V72.1h2.64V70.64h-2.64c0-.32,0-.34.22-.46.06-.04.16-.12.16-.22,0-.14-.1-.18-.46-.2l-2-.14v1.02h-1.62c0-.3,0-.3.2-.42.08-.04.18-.1.18-.22,0-.16-.22-.2-.52-.22l-2.06-.14v1H102v.08l-2.1-1.06a11.312,11.312,0,0,1-.94,1.62,11.21,11.21,0,0,0-1.1-1.36l-1.9,1a11.554,11.554,0,0,1,1.6,2.18A11.2,11.2,0,0,1,95.48,75l2.26,1.18a10.415,10.415,0,0,0,.84-.86c.14.42.16.48.26.82a10.7,10.7,0,0,1-1.36,2.78,9.6,9.6,0,0,1-2.26,2.7l2.14,1.2a18.655,18.655,0,0,0,2.12-3.1c.02.52.06,1.12.06,1.86,0,2.16-.52,2.98-1.46,2.98a6.47,6.47,0,0,1-1.62-.24l1.16,2.62a3.639,3.639,0,0,0,3.36-1.46,9.124,9.124,0,0,0,.8-4.24,19.884,19.884,0,0,0-.52-4.52l.74.74c.24-.2.34-.28.7-.62v3.94h10.36v-1.3H108.7v-.64h3.4V77.72h-3.4v-.64h3.4V75.96h-3.4v-.64h4.1V74.04h-3.42a.674.674,0,0,1,.24-.12.2.2,0,0,0,.14-.18.313.313,0,0,0-.16-.22Zm-2.14-1.14h1.62v.88l-.76-.42a7.379,7.379,0,0,1-1,1.48h-1.54a2.807,2.807,0,0,1,.24-.36,3.337,3.337,0,0,1,.36-.1.243.243,0,0,0,.12-.2c0-.08-.08-.12-.12-.14h1.08Zm-2.06,3.22h1.84v.64h-1.84Zm0,1.76h1.84v.64h-1.84Zm-.14-4.98v.6l-1.02-.44a10.387,10.387,0,0,1-2.7,3.2,13.769,13.769,0,0,0-.78-2.06c.72-.92,1.1-1.48,1.56-2.12a.367.367,0,0,0,.3-.1v.92Zm.14,6.74h1.84v.64h-1.84Zm-.36,4.02-1.2.54a10.635,10.635,0,0,0,1.44,1.36,16.48,16.48,0,0,1-3.44.56l1.16,1.92a14.362,14.362,0,0,0,4.34-1.32,14.178,14.178,0,0,0,5.54,1.36l1.22-2.02a22.484,22.484,0,0,1-4.86-.44,12.361,12.361,0,0,0,2.84-2.96l-.36-.58h-8.8v1.58Zm3.58,0a8.119,8.119,0,0,1-1.4,1.12,7.117,7.117,0,0,1-1.34-1.12Zm24.3-6.28V70.32h-9.46v6.26Zm-2.12-3.84h-5.16v-.96h5.16Zm0,2.4h-5.16v-.96h5.16Zm-8.34-4c0-.12-.18-.24-.22-.26l-1.88-1.3A14.752,14.752,0,0,1,116,72.96l1.6,1.44a20.433,20.433,0,0,0,3.6-3.02c.08-.06.16-.06.32-.06C121.72,71.32,121.84,71.28,121.84,71.14Zm11.62,10.92V80.24H130.9V79.16h2.24V77.42H121.76v1.74h6.84v1.08h-7.3v1.82h2.76l-1.18,1.08a18.005,18.005,0,0,1,1.92,2.42l1.5-1.36a18.783,18.783,0,0,0-1.62-2.14h3.92v2.42c0,.32-.18.54-.42.54s-1.24-.06-1.44-.08l.8,2.06c2.52-.04,3.36-.06,3.36-1.64v-3.3Zm-11.32-6.8c0-.1-.16-.22-.24-.26L120,73.94a16.923,16.923,0,0,1-4.36,4.58L117.16,80a6.51,6.51,0,0,0,.92-.76v7.8h2.26v-9.1c0-.06.04-.1.16-.18.2-.12.26-.2.26-.32a.342.342,0,0,0-.14-.26l-.28-.24c.32-.32.4-.42,1.14-1.24.2-.22.2-.24.36-.24C121.92,75.46,122.14,75.46,122.14,75.26Zm31.16,1.1a9.226,9.226,0,0,0-1.66-1.52l-.84.96a9.259,9.259,0,0,1,1.66,1.52Zm-1.62,1.82a8.72,8.72,0,0,0-1.66-1.54l-.82.96a8.879,8.879,0,0,1,1.64,1.54Zm.66-5.22V70.64c-3.78,1.16-9.98,1.64-14.3,1.6l.34,2.24c2-.28,4.94-.52,7.62-.74a14.913,14.913,0,0,0-2.64,3.04A7.275,7.275,0,0,0,142,80.76a5.017,5.017,0,0,0,1.48,3.6,8.975,8.975,0,0,0,4.92,2.22l.78-2.44a6.3,6.3,0,0,1-3.52-1.02,3.174,3.174,0,0,1-1.44-2.6,7.424,7.424,0,0,1,2.44-4.8A8.15,8.15,0,0,1,152.34,72.96Zm19.52,2.76-.36-2a22.8,22.8,0,0,1-3.64,1.8c-.32-.7-.4-.9-.66-1.52a13.174,13.174,0,0,0,3.16-1.36l-.44-1.94a19.3,19.3,0,0,1-3.42,1.54,17.431,17.431,0,0,1-.6-1.84c0-.06.02-.12.18-.28.1-.1.16-.16.16-.26,0-.24-.5-.18-.66-.16l-2.28.26c.32.94.54,1.58,1,2.82a24.664,24.664,0,0,1-4.66.4l.62,1.92a22.961,22.961,0,0,0,4.76-.54c.2.46.42.96.72,1.64a26.512,26.512,0,0,1-6.3.6l.7,2.02a25.794,25.794,0,0,0,6.42-.88c.38.74.56,1.1,1.04,1.96a15.277,15.277,0,0,0-2.86-.32c-2.26,0-4.42.74-4.42,3.48,0,2.64,2.48,3.78,6.08,3.78a20.133,20.133,0,0,0,3.16-.24l.2-2.36a14.59,14.59,0,0,1-4,.54c-.68,0-3.28,0-3.28-1.7,0-1.08,1.1-1.64,2.42-1.64a11.261,11.261,0,0,1,5.24,1.52l1.22-1.52a21.71,21.71,0,0,1-2.64-4.16A14.833,14.833,0,0,0,171.86,75.72Zm20.56,7.94a16.627,16.627,0,0,0-5.06-2.26c-.06-1.18-.06-1.38-.1-2.38a42.989,42.989,0,0,0,4.28-.5V76.34c-1.84.34-2.58.46-4.32.68V74.66c1-.02,2.86-.06,5.08-.06l.08-2.12c-1.88.14-2.56.18-5.12.3.02-1.04.04-1.42.04-1.44a.65.65,0,0,1,.26-.36c.22-.18.26-.2.26-.28,0-.14-.12-.2-.5-.24l-2.44-.24.06,2.66c-1.78.04-2.86.08-5.14.08l.04,2.16c1.72-.2,2.86-.28,5.16-.38l.04,2.5a13.725,13.725,0,0,1-1.38.04c-.34,0-.76,0-.76-.28,0-.26.3-.48.66-.74l-1.14-.98c-.78.56-2.14,1.5-2.14,2.48,0,.78.92,1.44,2.76,1.44.58,0,1.68-.04,2.04-.06l.04,1.92-.56-.02c-4.5-.16-4.7,2.16-4.7,2.74,0,1.62,1.72,2.6,4.48,2.6,2.56,0,3.04-.8,3.12-2.84a15.077,15.077,0,0,1,3.66,1.98Zm-7.28-.7c.02,1.12-.06,1.48-1.36,1.48-.24,0-1.52,0-1.52-.68,0-.52.64-.86,1.94-.86A5.177,5.177,0,0,1,185.14,82.96Zm28.88-8.54V72.26c-2.04.16-2.66.22-5.44.38V70.58c0-.08.02-.12.16-.24s.18-.18.18-.3c0-.2-.12-.26-.58-.28l-2.22-.14c.12,1.46.12,2.52.14,3.14-4.2.2-5.92.2-7.28.2v2.32c2.54-.32,5.56-.5,7.34-.6l.04,1.5a2.638,2.638,0,0,0-.94-.16c-2.04,0-3.14,1.52-3.14,3.72a3.579,3.579,0,0,0,1.04,2.78,2.518,2.518,0,0,0,1.64.62,4.022,4.022,0,0,0,1.08-.2,6.382,6.382,0,0,1-2.86,3.28l2.24,1.16a13.876,13.876,0,0,0,2.72-3.72,8.968,8.968,0,0,0,1.02-3.86,5.158,5.158,0,0,0-.58-2.44v-2.8C211.18,74.46,212.5,74.42,214.02,74.42Zm-7.28,5.06c0,1.42-.96,1.86-1.38,1.86-.46,0-1.1-.46-1.1-1.66,0-1.06.56-1.76,1.36-1.76a1.041,1.041,0,0,1,.74.28A1.865,1.865,0,0,1,206.74,79.48Z" transform="translate(-3.02 -1.5)"/></svg>