<svg xmlns="http://www.w3.org/2000/svg" width="466.668" height="85.264" viewBox="0 0 466.668 85.264"><defs><style>.a{fill:#2f2f2f;}</style></defs><path class="a" d="M34.488,4.928V1.22H21.744V35.24h3.672V4.928Zm36.792,22.9-3.924-1.656c0,2.052-.036,3.276-1.368,3.276H64.476a.6.6,0,0,1-.684-.648V25.124H67.68V15.3h-16.6v9.828h3.564a5.625,5.625,0,0,1-2.2,3.276c-2.052,1.548-4.788,1.656-6.8,1.692l2.664,3.636c2.88-.54,7.524-1.368,9.684-6.12.54-.036,1.008-.072,1.008-.468,0-.144,0-.54-.648-.792l-3.132-1.224H59.94v6.228a2.052,2.052,0,0,0,2.3,2.016h4.968C69.192,33.368,70.848,33.044,71.28,27.824Zm-7.308-8.748H54.828V17.744h9.144Zm0,3.6H54.828v-1.4h9.144ZM70.2,14.5v-3.06H64.584a12.5,12.5,0,0,0,1.332-2.88h3.24V5.576H61.632V4.1c0-.108,0-.144.18-.36.216-.18.288-.288.288-.432,0-.36-.4-.4-.54-.4L56.808,2.7v2.88H49.932V8.564h2.52a21.226,21.226,0,0,1,1.44,2.88H49.86V9.68H46.08V5.72c0-.144.324-.468.612-.792a.488.488,0,0,0,.216-.4c0-.5-.792-.576-.972-.576l-3.96-.36V9.68H39.24v4h2.736V23.684c-.972.36-2.016.792-3.636,1.332l.828,4.428c.036.216.144.648.468.648.252,0,.36-.108.9-.828.324-.432.4-.468,1.224-.864,2.664-1.3,4.5-2.2,7.848-4V20.516c-2.016.9-2.628,1.152-3.528,1.512V13.676h3.708V14.5Zm-8.28-5.94a17.908,17.908,0,0,1-1.4,2.88H58.14c-.216-.468-1.116-2.484-1.332-2.88Zm44.28,17.46V16.268H96.768V15.152h7.38V3.524H86.616V15.152h6.516v1.116H85.248V28.436h3.816V19.22h4.068v3.168c-1.476.144-2.88.252-3.528.324l.288,2.952c0,.144.036.684.468.684.18,0,.648-.54.792-.612a18.65,18.65,0,0,1,2.628-.648c1.548-.288,2.988-.72,4.644-1.188.036.216.288,1.224.288,1.44l3.168-.972a20.567,20.567,0,0,0-1.584-4.9l-2.988.936c.36.9.4,1.008.468,1.224a10.241,10.241,0,0,1-1.008.216V19.22h5.616v4.608c0,1.584-.288,1.872-1.548,1.872-.18,0-2.052-.144-2.376-.18l1.476,3.672a10.588,10.588,0,0,0,5.076-1.116A2.6,2.6,0,0,0,106.2,26.024ZM100.944,8.132H96.768V6.3h4.176Zm0,4.248H96.768V10.472h4.176ZM93.132,8.132H89.856V6.3h3.276Zm0,4.248H89.856V10.472h3.276Zm-8.388-4.1a33.207,33.207,0,0,0-5.076-5.04l-3.06,2.808a49.087,49.087,0,0,1,4.932,4.968ZM108,28.8a112.783,112.783,0,0,1-15.948,1.116c-5.868,0-7.956-.576-7.956-4.392V15.188H76.032V19.04h4.14V27c-1.3.792-3.24,1.836-5.076,2.7l1.872,3.672c.072.144.5.756.864.756.144,0,.18-.108.4-.648.072-.144.144-.252.792-.756.792-.612,2.016-1.62,2.772-2.232a8.355,8.355,0,0,0,2.952,2.052,9.7,9.7,0,0,0,3.708.756h17.64Zm16.416,6.624V1.4h-3.672V31.712h-9.072V35.42ZM182.808,7.088A16.4,16.4,0,0,0,180,4.064l-1.872,1.368a14.3,14.3,0,0,1,2.556,3.1ZM178.884,9.1a22.178,22.178,0,0,0-2.772-3.06l-1.944,1.44a16.084,16.084,0,0,1,2.844,3.168Zm-.576,9.72c0-3.816-4.9-9.612-6.552-11.592L168.84,9.248c3.816,4.428,5.184,7.38,5.184,8.28,0,.864-.756,1.044-2.052,1.224l1.908,3.42C175.212,21.992,178.308,21.56,178.308,18.824Zm-8.172.036c0-3.2-.432-7.488-5.292-7.488a15.041,15.041,0,0,0-2.628.252c.288-1.62.36-2.268.54-3.708.072-.468.072-.468.5-.756.36-.216.4-.252.4-.4,0-.288-.4-.468-.864-.54l-4.32-.612a43.083,43.083,0,0,1-.36,6.84c-2.952.648-4.176.9-6.912,1.332l1.332,4.32a32.242,32.242,0,0,1,4.9-1.944,38.21,38.21,0,0,1-6.516,14.04l3.744,1.692c3.276-4.968,5-9.288,6.84-16.668a11.913,11.913,0,0,1,1.944-.18c2.232,0,2.916.864,2.916,3.636,0,1.728-.288,6.264-1.908,8.28a2.8,2.8,0,0,1-2.484,1.008,10.6,10.6,0,0,1-2.448-.288l.864,3.888a25.335,25.335,0,0,0,2.7.144,5.408,5.408,0,0,0,4.1-1.4C168.876,28.688,170.136,24.044,170.136,18.86Zm43.416,14.652V6.872h-12.6c.18-.324.936-2.088,1.008-2.2.18-.288.288-.324.936-.684.108-.072.324-.18.324-.4s-.216-.36-.54-.4l-4.9-.468a15.979,15.979,0,0,1-1.26,4.14h-6.732v26.64h4.176V31.64h15.444v1.872Zm-4.14-12.672H193.968V17.276h15.444Zm0-7.056H193.968v-3.24h15.444Zm0,14.364H193.968V24.3h15.444Zm45.576-13.14c-5.8-2.664-7.7-4.68-9.612-11.916h-7.128v4h3.96a22.074,22.074,0,0,0,4.032,7.092H229.716a39.486,39.486,0,0,0,4.536-6.228c.072-.144.792-.36.936-.432.036-.036.216-.108.216-.288a.569.569,0,0,0-.288-.432l-3.924-2.2c-3.348,6.12-5.724,8.676-9.684,11.124l3.24,2.916a27.168,27.168,0,0,0,4.644-4.14v3.348h4.068a12.35,12.35,0,0,1-2.232,7.416,14.561,14.561,0,0,1-7.416,4.968l2.916,3.348c7.272-3.528,10.332-7.668,10.908-15.732h5.652a55.884,55.884,0,0,1-.612,8.928c-.216,1.08-.648,2.7-2.592,2.7-.468,0-1.548-.072-3.06-.252l1.692,4.14c7.524-.108,8.5-1.656,8.64-18a13.709,13.709,0,0,0,4.788,3.2ZM285.7,32.036V27.428a46.654,46.654,0,0,1-11.124,1.62c-3.78,0-6.624-1.26-6.624-3.852,0-2.412,2.664-4.248,4.284-5.256a54.161,54.161,0,0,1,13.32-5.688L284.22,9.86c-4.428,2.088-4.9,2.3-9.036,4.248A4.383,4.383,0,0,1,273.1,11.66c-.972-2.7-1.008-6.516-1.044-8.532l-4.608.684c1.152,6.876,1.332,7.92,1.836,9.108a11.336,11.336,0,0,0,2.124,3.24c-3.96,2.34-7.452,4.644-7.452,9.144a6.859,6.859,0,0,0,3.672,6.156c1.8.936,3.672,1.44,7.92,1.44A64.577,64.577,0,0,0,285.7,32.036ZM326.736,15.8V12.236h-14.4c0-1.908,0-2.124.036-4.032a74.674,74.674,0,0,0,11.412-1.26,5.993,5.993,0,0,1,1.188-.216,5.046,5.046,0,0,0,1.044,0c.072-.036.072-.072.072-.108,0-.252-.36-.648-.5-.792L322.812,2.7a29.364,29.364,0,0,1-4.14,1.368,65.663,65.663,0,0,1-7.956,1.044,6.466,6.466,0,0,1-.792-.072l-1.62-.288c.108,2.592.144,5.22.144,7.812,0,9.324-1.728,11.7-2.916,13.284l3.744,1.692c1.044-1.98,2.556-4.932,2.988-11.736h4.32V28.076h4.1V15.8Zm-21.6-8.208a19.2,19.2,0,0,0-5.616-4.068l-2.664,3.1a31.408,31.408,0,0,1,5.58,3.888Zm23.256,21.06c-6.984.648-14.544.792-16.632.792-4.068,0-7.128-.756-7.128-3.312V15.62h-8.208v3.636h4.32v7.776a32.579,32.579,0,0,1-4.788,2.664l1.836,3.672c.18.36.4.432.5.432.072,0,.108-.072.288-.576.108-.324.216-.4,1.188-1.08a33.724,33.724,0,0,0,3.348-2.736c.972,1.656,1.944,3.348,8.712,3.456,2.664.036,10.476.072,14.652.036Zm35.136-5.832a30.6,30.6,0,0,0-5.9-15.3l-3.708,1.8a33.477,33.477,0,0,1,5.292,14.616Zm-15.876-.54-2.988-2.664c-.684,1.728-2.16,5.544-3.456,5.544-.72,0-2.448-1.3-2.448-8.316a37.318,37.318,0,0,1,.684-8.028c.612-.216,1.044-.36,1.044-.756,0-.432-.576-.612-.828-.684L335.7,6.3a35.062,35.062,0,0,0-1.08,9.36c0,6.84,1.152,11.052,3.672,13.5a3.926,3.926,0,0,0,2.664,1.188C343.872,30.344,345.672,26.528,347.652,22.28ZM400.824,29.8C394.6,26.492,387.612,22.5,387.612,7.988c0-.468,0-2.88.072-3.024s.648-.612.72-.72a.861.861,0,0,0,.288-.576c0-.54-1.224-.54-1.62-.54l-4.032-.144c.036,1.512.144,6.156.144,7.128,0,3.852-.432,9.612-5.4,14.8-2.268,2.34-4.176,3.492-7.7,5.184l3.492,3.492c7.02-4.572,9.324-7.056,11.952-13.248,2.952,6.408,5.364,8.964,12.1,13.068ZM434.484,18l-1.224-4.1c-1.692.756-2.16.972-6.372,2.952a4.825,4.825,0,0,0-4.9-3.636,6.961,6.961,0,0,0-3.1.756c.612-.936.9-1.44,2.052-3.564a75.777,75.777,0,0,0,8.6-1.368L429.8,5a30.4,30.4,0,0,1-7.056,1.836c.18-.4,1.08-2.412,1.116-2.448.036,0,.756-.324.828-.36.216-.072.36-.18.36-.4,0-.252-.612-.324-.72-.36l-4.5-.792a27.915,27.915,0,0,1-1.8,4.788,50.635,50.635,0,0,1-6.876-.144l.432,3.744c1.512,0,2.628-.036,4.68-.144a47.866,47.866,0,0,1-7.092,9.9l3.528,2.2c1.98-3.24,4.14-6.516,7.668-6.516a2.494,2.494,0,0,1,2.736,2.376c-5.4,2.772-8.712,4.464-8.712,8.928a4.922,4.922,0,0,0,1.368,3.528c2.268,2.412,6.444,2.412,8.46,2.412a59.579,59.579,0,0,0,8.568-.54V28.94a41.623,41.623,0,0,1-9.18,1.152c-2.628,0-5.4-.468-5.4-2.808,0-2.52,3.744-4.392,5.112-5.076-.036,1.584-.072,3.348-.18,5.4h4.176c0-1.224-.072-5.688-.072-7.092C429.912,19.508,431.64,18.9,434.484,18Zm19.188-2.664c-1.512.468-1.692.5-2.988.936V12.092h2.7V8.024h-2.7v-3.1c0-.36.216-.54.54-.72.324-.252.432-.36.432-.576s-.036-.4-1.3-.5l-3.744-.288V8.024h-3.348v4.068h3.348v5.472c-1.4.36-2.412.612-3.888.972l.4,3.78c.108,1.08.324,1.26.612,1.26.216,0,.324-.18.648-.54a11.694,11.694,0,0,1,2.232-1.044v6.84c0,.792-.252.936-.864.936a12.387,12.387,0,0,1-2.268-.216l1.8,4.284c3.564,0,5.4-.4,5.4-2.2V20.588c.468-.216,2.52-1.08,2.916-1.26Zm20.7-3.744L471.2,10c-.432,2.016-.864,2.088-1.476,2.088h-.648A.941.941,0,0,1,468,11.048V7.124h1.836V9.716h3.816V3.668H454.32v6.3h3.816V7.124h6.156v5.4c0,1.044.252,2.952,2.988,2.952h3.564C472.86,15.476,473.652,14.648,474.372,11.588Zm1.368,18.036c-4.5-2.124-6.84-4.1-9.072-7.236h7.308V18.716h-8.352V17.132c0-.216.036-.252.288-.468a.848.848,0,0,0,.252-.54c0-.36-.324-.36-1.044-.4l-3.6-.108v3.1h-7.7v3.672h6.192C458.1,25.7,454.86,28.4,451.152,30.56l3.456,2.7a27.433,27.433,0,0,0,6.912-7.56v7.992h4.1V25.52a26.018,26.018,0,0,0,6.66,7.2ZM464.184,9c0-.4-.288-.54-1.08-.72l-3.744-.864c-.4,2.412-1.116,4.932-5.544,6.984l3.672,2.376a12.157,12.157,0,0,0,5.22-6.408c.108-.324.144-.432.684-.684C464.076,9.356,464.184,9.32,464.184,9ZM30.96,75.216,27.432,72.3c-3.528,6.912-8.352,8.172-10.368,8.172A3.471,3.471,0,0,1,13.9,78.96c-.684-1.224-.684-4.716-.684-6.372a136.067,136.067,0,0,1,1.008-14.4c.576-.468,1.008-.756,1.008-1.044,0-.216-.324-.468-1.188-.576l-4.788-.684c.108,2.412-.18,13.1-.18,15.3,0,8.64.576,10.476,2.268,11.952A8.008,8.008,0,0,0,16.6,84.972a13.013,13.013,0,0,0,7.164-2.3A26.86,26.86,0,0,0,30.96,75.216Zm36.612-14.8V56.1c-7.02,2.052-17.784,3.276-26.244,3.348l.72,4.248a137.654,137.654,0,0,1,13.716-1.548C54.072,63.732,48.78,68.7,48.78,74.856c0,8.028,9,9.9,11.916,10.512l1.26-4.536A10.685,10.685,0,0,1,55.692,79.1a6.168,6.168,0,0,1-2.664-5.04c0-3.6,2.988-7.6,6.156-10.152A13.933,13.933,0,0,1,67.572,60.42Zm8.1,17.676a29.6,29.6,0,0,1,6.948,7.992L86.364,83.1a21.175,21.175,0,0,0-7.992-7.812Zm67.968,6.7V81.228H117.252v-6.7l2.52,2.232a18.259,18.259,0,0,0,3.132-1.836v4.86h17.928V71.724H127.044c.576-.54,1.08-.972,1.728-1.656h14.4V67.152H131.256c.432-.576.468-.648.684-.684.5-.144.648-.18.648-.468,0-.324-.288-.36-.576-.432l-3.96-.792c-.252.5-.432.756-.54.972v-1.62h5.4v2.16h3.924v-2.16h6.228V61.356h-6.228v-1.08c0-.036.288-.18.36-.216.144-.072.432-.216.432-.4,0-.288-.72-.36-.792-.36l-3.924-.216v2.268h-5.4V60.2c0-.108.036-.144.324-.252.252-.108.324-.18.324-.288,0-.252-.576-.36-.72-.36l-3.816-.216v2.268h-5.148v2.772h5.148v2.16h3.456c-.324.432-.4.5-.684.864H118.26v2.916h5.22a21.6,21.6,0,0,1-6.228,4V58.8h25.992V55.38H113.112V85.692h4.14v-.9ZM136.8,76.98h-9.864V74.532H136.8Zm42.48,8.172V71.508H166.1a41.356,41.356,0,0,0,8.784-11.268l-2.124-2.34h-8.5c.108-.216.54-1.224.684-1.4.072-.144.828-.288.936-.4a.409.409,0,0,0,.108-.288c0-.36-.792-.684-1.08-.792l-3.384-1.044c-2.592,5.616-4.788,8.6-11.088,12.888l3.312,2.844a44.436,44.436,0,0,0,4.5-3.78,27.215,27.215,0,0,1,4.14,3.744,35.935,35.935,0,0,1-13.248,6.876l3.06,3.2a61.368,61.368,0,0,0,7.128-3.42v9.324h4.284V83.892H175v1.26ZM169.236,61.32a25.9,25.9,0,0,1-4.032,5.724,30.743,30.743,0,0,0-4.536-3.672,23.713,23.713,0,0,0,1.584-2.052ZM175,80.508H163.62v-5.58H175Zm41-13.86a16.608,16.608,0,0,0-2.988-2.736L211.5,65.64a16.667,16.667,0,0,1,2.988,2.736Zm-2.916,3.276a15.7,15.7,0,0,0-2.988-2.772L208.62,68.88a15.984,15.984,0,0,1,2.952,2.772Zm1.188-9.4V56.352c-6.8,2.088-17.964,2.952-25.74,2.88l.612,4.032c3.6-.5,8.892-.936,13.716-1.332a26.842,26.842,0,0,0-4.752,5.472,13.1,13.1,0,0,0-2.448,7.164,9.031,9.031,0,0,0,2.664,6.48c2.916,2.916,6.948,3.672,8.856,4l1.4-4.392a11.338,11.338,0,0,1-6.336-1.836,5.713,5.713,0,0,1-2.592-4.68c0-2.736,1.728-5.976,4.392-8.64C208.62,60.888,212.58,60.636,214.272,60.528ZM253.188,85.26V55.668H237.816V85.512h3.96v-2.16h7.38V85.26Zm-4.032-14.04h-7.38V66.936h7.38Zm0-7.776h-7.38V59.16h7.38Zm0,16.236h-7.38V74.712h7.38Zm-12.1-8.316c-2.016-2.268-4.176-5.184-4.9-7.416v-.4h4.716v-3.42h-4.716V56.244c0-.108.18-.252.36-.4s.216-.252.216-.324c0-.4-.756-.432-.972-.468l-3.276-.324v5.4H223.2v3.42h4.968a30.443,30.443,0,0,1-6.48,12.636l3.348,1.98a29.086,29.086,0,0,0,3.456-5.184V85.512h3.672V71.076a33.308,33.308,0,0,0,2.232,2.952Zm32.58-12.672V55.6h-8.46v3.1Zm1.044,4.5V60.168H259.776v3.024Zm19.8,19.3c-7.2-2.484-8.208-6.48-8.208-10.44a.824.824,0,0,1,.4-.864c.432-.4.612-.576.612-.864,0-.324-.288-.468-1.4-.468l-3.852-.036c.036.576.108,1.44.108,2.34,0,8.64-5.508,9.972-7.74,10.44V74.28H260.244v11.3h3.564v-1.44H266.8V85.26h3.6V82.992l2.916,3.132a12.462,12.462,0,0,0,7.2-6.372,16.014,16.014,0,0,0,6.912,6.084Zm-23.688-1.4h-2.988V77.412H266.8ZM290.16,59.052c0-.252-.288-.468-.432-.54l-3.384-1.836a21.52,21.52,0,0,1-3.564,4.356l2.88,2.268a16.536,16.536,0,0,0,3.2-3.6c.18-.216.252-.216.792-.252C289.8,59.412,290.16,59.376,290.16,59.052Zm.756,9.072a18.69,18.69,0,0,1-6.876-3.672,5.814,5.814,0,0,1-1.944-4.824,15.217,15.217,0,0,1,.216-3.492,3.951,3.951,0,0,0,.4-.432.578.578,0,0,0,.18-.4c0-.324-.4-.4-1.368-.432l-3.6-.072c.072.864.144,1.98.144,3.2,0,5.04-.936,8.1-7.632,10.116l2.772,3.2A14.8,14.8,0,0,0,280.3,65.5a16.506,16.506,0,0,0,7.524,5.976ZM276.48,58.872c0-.216-.288-.288-.792-.4l-3.312-.612a23.619,23.619,0,0,1-.792,5.724l3.528.648a31.075,31.075,0,0,0,.648-4.68C276.048,59.412,276.48,59.16,276.48,58.872Zm13.356,14.8c0-.252-.4-.54-.576-.612l-3.348-1.4a19.846,19.846,0,0,1-2.592,4l3.1,2.016a16.577,16.577,0,0,0,2.232-3.456c.18-.036.4-.144.648-.18C289.656,73.956,289.836,73.884,289.836,73.668Zm-20.16-5.94v-3.06h-8.64v3.06Zm7.416,5.94c0-.216-.252-.324-.792-.432l-3.6-.756a16.089,16.089,0,0,1-1.476,5.436l3.6,1.188a19.653,19.653,0,0,0,1.512-4.788C276.624,74.172,277.092,73.956,277.092,73.668Zm-7.416-1.116V69.528h-8.64v3.024Zm56.484-5.9a16.607,16.607,0,0,0-2.988-2.736L321.66,65.64a16.666,16.666,0,0,1,2.988,2.736Zm-2.916,3.276a15.7,15.7,0,0,0-2.988-2.772L318.78,68.88a15.982,15.982,0,0,1,2.952,2.772Zm1.188-9.4V56.352c-6.8,2.088-17.964,2.952-25.74,2.88l.612,4.032c3.6-.5,8.892-.936,13.716-1.332a26.842,26.842,0,0,0-4.752,5.472,13.1,13.1,0,0,0-2.448,7.164,9.031,9.031,0,0,0,2.664,6.48c2.916,2.916,6.948,3.672,8.856,4l1.4-4.392a11.338,11.338,0,0,1-6.336-1.836,5.713,5.713,0,0,1-2.592-4.68c0-2.736,1.728-5.976,4.392-8.64C318.78,60.888,322.74,60.636,324.432,60.528ZM359.568,65.5l-.648-3.6a41.044,41.044,0,0,1-6.552,3.24c-.576-1.26-.72-1.62-1.188-2.736a23.714,23.714,0,0,0,5.688-2.448l-.792-3.492a34.748,34.748,0,0,1-6.156,2.772,31.381,31.381,0,0,1-1.08-3.312c0-.108.036-.216.324-.5.18-.18.288-.288.288-.468,0-.432-.9-.324-1.188-.288l-4.1.468c.576,1.692.972,2.844,1.8,5.076a44.4,44.4,0,0,1-8.388.72l1.116,3.456a41.33,41.33,0,0,0,8.568-.972c.36.828.756,1.728,1.3,2.952a47.722,47.722,0,0,1-11.34,1.08l1.26,3.636a46.43,46.43,0,0,0,11.556-1.584c.684,1.332,1.008,1.98,1.872,3.528a27.5,27.5,0,0,0-5.148-.576c-4.068,0-7.956,1.332-7.956,6.264,0,4.752,4.464,6.8,10.944,6.8a36.24,36.24,0,0,0,5.688-.432l.36-4.248a26.263,26.263,0,0,1-7.2.972c-1.224,0-5.9,0-5.9-3.06,0-1.944,1.98-2.952,4.356-2.952a20.27,20.27,0,0,1,9.432,2.736l2.2-2.736a39.081,39.081,0,0,1-4.752-7.488A26.7,26.7,0,0,0,359.568,65.5Zm37.008,14.292a29.928,29.928,0,0,0-9.108-4.068c-.108-2.124-.108-2.484-.18-4.284a77.381,77.381,0,0,0,7.7-.9V66.612c-3.312.612-4.644.828-7.776,1.224V63.588c1.8-.036,5.148-.108,9.144-.108l.144-3.816c-3.384.252-4.608.324-9.216.54.036-1.872.072-2.556.072-2.592a1.17,1.17,0,0,1,.468-.648c.4-.324.468-.36.468-.5,0-.252-.216-.36-.9-.432L383,55.6l.108,4.788c-3.2.072-5.148.144-9.252.144l.072,3.888c3.1-.36,5.148-.5,9.288-.684l.072,4.5a24.707,24.707,0,0,1-2.484.072c-.612,0-1.368,0-1.368-.5,0-.468.54-.864,1.188-1.332L378.576,64.7c-1.4,1.008-3.852,2.7-3.852,4.464,0,1.4,1.656,2.592,4.968,2.592,1.044,0,3.024-.072,3.672-.108l.072,3.456-1.008-.036c-8.1-.288-8.46,3.888-8.46,4.932,0,2.916,3.1,4.68,8.064,4.68,4.608,0,5.472-1.44,5.616-5.112a27.138,27.138,0,0,1,6.588,3.564Zm-13.1-1.26c.036,2.016-.108,2.664-2.448,2.664-.432,0-2.736,0-2.736-1.224,0-.936,1.152-1.548,3.492-1.548A9.319,9.319,0,0,1,383.472,78.528Zm51.984-15.372V59.268c-3.672.288-4.788.4-9.792.684V56.244c0-.144.036-.216.288-.432s.324-.324.324-.54c0-.36-.216-.468-1.044-.5l-4-.252c.216,2.628.216,4.536.252,5.652-7.56.36-10.656.36-13.1.36V64.7c4.572-.576,10.008-.9,13.212-1.08l.072,2.7a4.748,4.748,0,0,0-1.692-.288c-3.672,0-5.652,2.736-5.652,6.7a6.442,6.442,0,0,0,1.872,5,4.533,4.533,0,0,0,2.952,1.116,7.239,7.239,0,0,0,1.944-.36c-.792,2.628-2.988,4.5-5.148,5.9l4.032,2.088a24.976,24.976,0,0,0,4.9-6.7,16.142,16.142,0,0,0,1.836-6.948,9.285,9.285,0,0,0-1.044-4.392v-5.04C430.344,63.228,432.72,63.156,435.456,63.156Zm-13.1,9.108c0,2.556-1.728,3.348-2.484,3.348-.828,0-1.98-.828-1.98-2.988,0-1.908,1.008-3.168,2.448-3.168a1.873,1.873,0,0,1,1.332.5A3.357,3.357,0,0,1,422.352,72.264Z" transform="translate(-9.072 -1.22)"/></svg>