<svg xmlns="http://www.w3.org/2000/svg" width="178.806" height="18.716" viewBox="0 0 178.806 18.716"><defs><style>.a{fill:#2f2f2f;}.b{fill:none;stroke:#2f2f2f;}</style></defs><g transform="translate(-97.097 -466.08)"><path class="a" d="M1.12-.24c1.32,0,3,.48,4.8.48A4.07,4.07,0,0,0,8.52-1.2c.4-.4.48-.64.48-.8a.189.189,0,0,0-.2-.2c-.08,0-.2.04-.44.24a3.063,3.063,0,0,1-1.96.48c-1.4,0-3.36-.44-4.96-.44,3.16-2.36,9.32-6.12,9.32-10.96,0-2.52-1.88-3.48-3.72-3.48-2.16,0-4.76,1.88-4.76,3.88,0,.28.12.48.36.48.36,0,.96-.4.96-.84a2.977,2.977,0,0,1,2.72-2.88c1.68,0,2.44.92,2.44,3.04,0,3.96-4.68,8-7.92,10.48C-.32-1.28-.76-1.08-.76-.72c0,.28.36.8.68.8C.2.08.48-.24,1.12-.24ZM20.2-16.36c-3.84,0-8.12,5.68-8.12,11.96,0,2.88,1.68,4.52,4,4.52,4.8,0,7.48-7.44,7.48-12.32C23.56-14.76,22.6-16.36,20.2-16.36Zm.4.76c1.76,0,2.2,1.44,2.2,3.76C22.8-7.32,20.48-.8,16.68-.8c-1.88,0-2.6-1.64-2.6-4.12C14.08-9.88,17.24-15.6,20.6-15.6ZM25.68-.24c1.32,0,3,.48,4.8.48a4.07,4.07,0,0,0,2.6-1.44c.4-.4.48-.64.48-.8a.189.189,0,0,0-.2-.2c-.08,0-.2.04-.44.24a3.063,3.063,0,0,1-1.96.48c-1.4,0-3.36-.44-4.96-.44,3.16-2.36,9.32-6.12,9.32-10.96,0-2.52-1.88-3.48-3.72-3.48-2.16,0-4.76,1.88-4.76,3.88,0,.28.12.48.36.48.36,0,.96-.4.96-.84a2.977,2.977,0,0,1,2.72-2.88c1.68,0,2.44.92,2.44,3.04,0,3.96-4.68,8-7.92,10.48-1.16.92-1.6,1.12-1.6,1.48,0,.28.36.8.68.8C24.76.08,25.04-.24,25.68-.24ZM44.76-16.36c-3.84,0-8.12,5.68-8.12,11.96,0,2.88,1.68,4.52,4,4.52,4.8,0,7.48-7.44,7.48-12.32C48.12-14.76,47.16-16.36,44.76-16.36Zm.4.76c1.76,0,2.2,1.44,2.2,3.76C47.36-7.32,45.04-.8,41.24-.8c-1.88,0-2.6-1.64-2.6-4.12C38.64-9.88,41.8-15.6,45.16-15.6Zm13.24-.92a.742.742,0,0,0,.08-.28c0-.12-.24-.12-.64-.12a.329.329,0,0,0-.32.2L49.84.12a1.573,1.573,0,0,0-.08.24c0,.12.2.12.64.12a.364.364,0,0,0,.32-.16ZM62.84-13c.36-1.28.88-2.04.88-2.4,0-.28-.56-.76-.8-.76s-.32.08-.48.28c-.6.88-1.56,3-3.12,3.24-.32.04-.64.72-.64,1.12,0,.2.04.24.16.24.44,0,2.04-1.6,2.04-1.6C58.2-1.48,57.96-.84,57.8-.48c-.12.28-.2.36-.2.48a.183.183,0,0,0,.2.16A1.839,1.839,0,0,0,58.32,0C58.8-.2,59.84-.68,60-1.32,60.84-5.08,61.68-8.72,62.84-13Zm10.68-3.36c-3.84,0-8.12,5.68-8.12,11.96,0,2.88,1.68,4.52,4,4.52,4.8,0,7.48-7.44,7.48-12.32C76.88-14.76,75.92-16.36,73.52-16.36Zm.4.76c1.76,0,2.2,1.44,2.2,3.76C76.12-7.32,73.8-.8,70-.8c-1.88,0-2.6-1.64-2.6-4.12C67.4-9.88,70.56-15.6,73.92-15.6Zm13.24-.92a.742.742,0,0,0,.08-.28c0-.12-.24-.12-.64-.12a.329.329,0,0,0-.32.2L78.6.12a1.573,1.573,0,0,0-.08.24c0,.12.2.12.64.12a.364.364,0,0,0,.32-.16Zm7.32.16c-3.84,0-8.12,5.68-8.12,11.96,0,2.88,1.68,4.52,4,4.52,4.8,0,7.48-7.44,7.48-12.32C97.84-14.76,96.88-16.36,94.48-16.36Zm.4.76c1.76,0,2.2,1.44,2.2,3.76C97.08-7.32,94.76-.8,90.96-.8c-1.88,0-2.6-1.64-2.6-4.12C88.36-9.88,91.52-15.6,94.88-15.6Zm9.8,2.6c.36-1.28.88-2.04.88-2.4,0-.28-.56-.76-.8-.76s-.32.08-.48.28c-.6.88-1.56,3-3.12,3.24-.32.04-.64.72-.64,1.12,0,.2.04.24.16.24.44,0,2.04-1.6,2.04-1.6C100.04-1.48,99.8-.84,99.64-.48c-.12.28-.2.36-.2.48a.183.183,0,0,0,.2.16,1.839,1.839,0,0,0,.52-.16c.48-.2,1.52-.68,1.68-1.32C102.68-5.08,103.52-8.72,104.68-13Z" transform="translate(118 483)"/><path class="a" d="M7.7-3.136a10.119,10.119,0,0,0-1.68-.128c-1.856,0-2.944.912-2.944,1.952,0,1.184.96,1.9,2.832,1.9,1.936,0,2.88-.7,2.864-2.5A11.793,11.793,0,0,1,12.416.128c.1.064.16.048.24-.048a2.149,2.149,0,0,0,.4-.688c.048-.144.016-.208-.064-.272A13,13,0,0,0,8.72-2.944c-.064-.96-.112-1.792-.112-2.784a29.276,29.276,0,0,0,3.536-.432c.112-.016.16-.064.16-.16,0-.272-.016-.576-.016-.768-.016-.08-.064-.112-.176-.08A26.753,26.753,0,0,1,8.576-6.7C8.56-7.456,8.56-8.288,8.56-9.072a39.74,39.74,0,0,0,4.016-.464c.048,0,.112-.032.112-.16a6,6,0,0,0-.048-.7c-.016-.112-.048-.144-.176-.112a37.382,37.382,0,0,1-3.9.528c.016-.544.016-.9.048-1.408a1.5,1.5,0,0,1,.192-.736.247.247,0,0,0-.144-.368A6.447,6.447,0,0,0,7.392-12.7a3.821,3.821,0,0,1,.144,1.056c0,.592.016,1.04.016,1.7A27.131,27.131,0,0,1,3.1-10.08a5.684,5.684,0,0,0,.064.832c.016.112.048.144.144.16a30.492,30.492,0,0,0,4.24.08c0,.768.016,1.6.016,2.384A23.881,23.881,0,0,1,3.7-6.736a6.778,6.778,0,0,0,.048.816c.016.144.048.192.176.192A31.15,31.15,0,0,0,7.6-5.68C7.616-4.752,7.648-4.048,7.7-3.136Zm.016.96a1.8,1.8,0,0,1-.288,1.3,2.19,2.19,0,0,1-1.632.5C4.624-.384,4-.7,4-1.376c0-.576.672-1.008,2.016-1.008A7.569,7.569,0,0,1,7.712-2.176ZM26-9.872c-2.512,1.328-3.9,3.184-3.9,5.44C22.1-1.2,25.008-.048,27.712.192c.176.016.224-.048.256-.224a4.786,4.786,0,0,0,.1-.768c0-.128-.048-.16-.256-.176-2.336-.192-4.656-.976-4.656-3.632,0-2.144,1.792-4.112,4.128-5.04a6.624,6.624,0,0,1,2.336-.48c.16-.016.208-.048.208-.192a4.55,4.55,0,0,0-.1-.8c-.032-.1-.112-.144-.272-.128-4.288.528-7.536,1.008-9.92,1.392a12.514,12.514,0,0,1-1.984.192A8.858,8.858,0,0,0,18-8.528a.271.271,0,0,0,.224.144.888.888,0,0,0,.3-.112,3.443,3.443,0,0,1,.96-.272c2.016-.416,4.1-.752,6.5-1.136Zm1.344,2.656A6.908,6.908,0,0,1,29.2-5.168a.128.128,0,0,0,.208.032l.464-.384A.116.116,0,0,0,29.9-5.7,7.764,7.764,0,0,0,28.1-7.632a.124.124,0,0,0-.16-.016Zm1.408-1.072a7.642,7.642,0,0,1,1.84,2c.064.1.128.1.192.032l.432-.384c.08-.064.1-.112.048-.192A9.2,9.2,0,0,0,29.44-8.7c-.064-.048-.112-.032-.176.016Z" transform="translate(227 482)"/><line class="b" x2="11" y2="15" transform="translate(97.5 469.5)"/><line class="b" x1="11" y2="15" transform="translate(264.5 469.5)"/></g></svg>