<svg xmlns="http://www.w3.org/2000/svg" width="189.807" height="18.716" viewBox="0 0 189.807 18.716"><defs><style>.a{fill:#2f2f2f;}.b{fill:none;stroke:#2f2f2f;}</style></defs><g transform="translate(-621.097 -832.08)"><path class="a" d="M1.12-.2c1.32,0,3,.44,4.8.44A2.839,2.839,0,0,0,8.44-.92a3.063,3.063,0,0,0,.88-1.4.189.189,0,0,0-.2-.2,5.082,5.082,0,0,1-2.72.76C5-1.76,3.76-2.2,2.16-2.2,5.32-4.56,11-8.04,11-12.88c0-2.44-1.92-3.48-3.96-3.48-2.44,0-4.88,1.88-4.88,3.88,0,.36.12.6.48.6a1.082,1.082,0,0,0,1.08-.96,3,3,0,0,1,2.6-2.8c1.36,0,2.16,1.04,2.16,2.96,0,3.96-4.4,7.8-7.64,10.28C-.32-1.48-.96-1.12-.96-.76c0,.28.28.84.76.84A7.829,7.829,0,0,1,1.12-.2ZM20.2-16.36c-4.04,0-8.36,5.68-8.36,11.96A4.173,4.173,0,0,0,16.08.12c5.08,0,7.56-7.44,7.56-12.32C23.64-14.72,22.72-16.36,20.2-16.36Zm.4.96c1.48,0,2.12,1.24,2.12,3.56,0,4.52-2.4,10.8-6.04,10.8-1.56,0-2.36-1.4-2.36-3.88C14.32-9.88,17.56-15.4,20.6-15.4ZM25.68-.2c1.32,0,3,.44,4.8.44A2.839,2.839,0,0,0,33-.92a3.063,3.063,0,0,0,.88-1.4.189.189,0,0,0-.2-.2,5.082,5.082,0,0,1-2.72.76c-1.4,0-2.64-.44-4.24-.44,3.16-2.36,8.84-5.84,8.84-10.68,0-2.44-1.92-3.48-3.96-3.48-2.44,0-4.88,1.88-4.88,3.88,0,.36.12.6.48.6a1.082,1.082,0,0,0,1.08-.96,3,3,0,0,1,2.6-2.8c1.36,0,2.16,1.04,2.16,2.96,0,3.96-4.4,7.8-7.64,10.28-1.16.92-1.8,1.28-1.8,1.64,0,.28.28.84.76.84A7.829,7.829,0,0,1,25.68-.2ZM44.76-16.36c-4.04,0-8.36,5.68-8.36,11.96A4.173,4.173,0,0,0,40.64.12c5.08,0,7.56-7.44,7.56-12.32C48.2-14.72,47.28-16.36,44.76-16.36Zm.4.96c1.48,0,2.12,1.24,2.12,3.56,0,4.52-2.4,10.8-6.04,10.8-1.56,0-2.36-1.4-2.36-3.88C38.88-9.88,42.12-15.4,45.16-15.4Zm13.4-1.12a.742.742,0,0,0,.08-.28c0-.12-.56-.12-.96-.12a.329.329,0,0,0-.32.2L49.68.12a1.573,1.573,0,0,0-.08.24c0,.12.52.12.96.12a.364.364,0,0,0,.32-.16ZM63.08-13c.36-1.28.88-2.04.88-2.28,0-.28-.8-.88-1.12-.88a.649.649,0,0,0-.56.28c-.6.88-1.56,2.92-3.12,3.16-.32.04-.64.96-.64,1.36a.211.211,0,0,0,.24.24c.44,0,1.8-1.32,1.8-1.32C57.88-1.04,57.76-.84,57.6-.48c-.12.28-.2.36-.2.48s.12.16.24.16c.64,0,2.4-.64,2.6-1.52C61.08-5.12,61.92-8.72,63.08-13Zm10.44-3.36c-4.04,0-8.36,5.68-8.36,11.96A4.173,4.173,0,0,0,69.4.12c5.08,0,7.56-7.44,7.56-12.32C76.96-14.72,76.04-16.36,73.52-16.36Zm.4.96c1.48,0,2.12,1.24,2.12,3.56,0,4.52-2.4,10.8-6.04,10.8-1.56,0-2.36-1.4-2.36-3.88C67.64-9.88,70.88-15.4,73.92-15.4Zm13.4-1.12a.742.742,0,0,0,.08-.28c0-.12-.56-.12-.96-.12a.329.329,0,0,0-.32.2L78.44.12a1.573,1.573,0,0,0-.08.24c0,.12.52.12.96.12a.364.364,0,0,0,.32-.16Zm7.16.16c-4.04,0-8.36,5.68-8.36,11.96A4.173,4.173,0,0,0,90.36.12c5.08,0,7.56-7.44,7.56-12.32C97.92-14.72,97-16.36,94.48-16.36Zm.4.96c1.48,0,2.12,1.24,2.12,3.56,0,4.52-2.4,10.8-6.04,10.8-1.56,0-2.36-1.4-2.36-3.88C88.6-9.88,91.84-15.4,94.88-15.4ZM104.92-13c.36-1.28.88-2.04.88-2.28,0-.28-.8-.88-1.12-.88a.649.649,0,0,0-.56.28c-.6.88-1.56,2.92-3.12,3.16-.32.04-.64.96-.64,1.36a.211.211,0,0,0,.24.24c.44,0,1.8-1.32,1.8-1.32C99.72-1.04,99.6-.84,99.44-.48c-.12.28-.2.36-.2.48s.12.16.24.16c.64,0,2.4-.64,2.6-1.52C102.92-5.12,103.76-8.72,104.92-13Z" transform="translate(642 849)"/><path class="a" d="M9.62-3.92a12.649,12.649,0,0,0-2.1-.16c-2.32,0-3.68,1.14-3.68,2.44C3.84-.16,5.04.74,7.38.74c2.42,0,3.6-.88,3.58-3.12A14.741,14.741,0,0,1,15.52.16c.12.08.2.06.3-.06a2.686,2.686,0,0,0,.5-.86c.06-.18.02-.26-.08-.34A16.248,16.248,0,0,0,10.9-3.68c-.08-1.2-.14-2.24-.14-3.48a36.594,36.594,0,0,0,4.42-.54c.14-.02.2-.08.2-.2,0-.34-.02-.72-.02-.96-.02-.1-.08-.14-.22-.1a33.442,33.442,0,0,1-4.42.58c-.02-.94-.02-1.98-.02-2.96a49.675,49.675,0,0,0,5.02-.58c.06,0,.14-.04.14-.2A7.494,7.494,0,0,0,15.8-13c-.02-.14-.06-.18-.22-.14a46.728,46.728,0,0,1-4.88.66c.02-.68.02-1.12.06-1.76a1.872,1.872,0,0,1,.24-.92.309.309,0,0,0-.18-.46,8.059,8.059,0,0,0-1.58-.26,4.776,4.776,0,0,1,.18,1.32c0,.74.02,1.3.02,2.12a33.914,33.914,0,0,1-5.56-.16,7.105,7.105,0,0,0,.08,1.04c.02.14.06.18.18.2a38.115,38.115,0,0,0,5.3.1c0,.96.02,2,.02,2.98a29.851,29.851,0,0,1-4.84-.14A8.472,8.472,0,0,0,4.68-7.4c.02.18.06.24.22.24a38.937,38.937,0,0,0,4.6.06C9.52-5.94,9.56-5.06,9.62-3.92Zm.02,1.2A2.255,2.255,0,0,1,9.28-1.1a2.737,2.737,0,0,1-2.04.62C5.78-.48,5-.88,5-1.72c0-.72.84-1.26,2.52-1.26A9.461,9.461,0,0,1,9.64-2.72ZM32.5-12.34c-3.14,1.66-4.88,3.98-4.88,6.8,0,4.04,3.64,5.48,7.02,5.78.22.02.28-.06.32-.28A5.983,5.983,0,0,0,35.08-1c0-.16-.06-.2-.32-.22-2.92-.24-5.82-1.22-5.82-4.54,0-2.68,2.24-5.14,5.16-6.3a8.28,8.28,0,0,1,2.92-.6c.2-.02.26-.06.26-.24a5.687,5.687,0,0,0-.12-1c-.04-.12-.14-.18-.34-.16-5.36.66-9.42,1.26-12.4,1.74a15.642,15.642,0,0,1-2.48.24,11.073,11.073,0,0,0,.56,1.42.339.339,0,0,0,.28.18,1.11,1.11,0,0,0,.38-.14,4.3,4.3,0,0,1,1.2-.34c2.52-.52,5.12-.94,8.12-1.42Zm1.68,3.32A8.635,8.635,0,0,1,36.5-6.46a.16.16,0,0,0,.26.04l.58-.48a.144.144,0,0,0,.04-.22,9.706,9.706,0,0,0-2.26-2.42.155.155,0,0,0-.2-.02Zm1.76-1.34a9.553,9.553,0,0,1,2.3,2.5c.08.12.16.12.24.04l.54-.48c.1-.08.12-.14.06-.24a11.5,11.5,0,0,0-2.28-2.34c-.08-.06-.14-.04-.22.02Z" transform="translate(751 848)"/><line class="b" x2="11" y2="15" transform="translate(621.5 835.5)"/><line class="b" x1="11" y2="15" transform="translate(799.5 835.5)"/></g></svg>