<svg xmlns="http://www.w3.org/2000/svg" width="432.468" height="125.128" viewBox="0 0 432.468 125.128"><defs><style>.a{fill:#7c6850;}.b{fill:#ba9973;}.c{fill:#fff;}</style></defs><g transform="translate(-48 -20)"><rect class="a" width="432.468" height="122.128" rx="8" transform="translate(48 23)"/><rect class="b" width="432.468" height="118.128" rx="8" transform="translate(48 20)"/></g><path class="c" d="M-117.18-8.18c-1.86,0-2.5-.04-2.64-.04-.2,0-.22.02-.22.24,0,.12.04.5.04,1.44V-5c0,.94-.04,1.32-.04,1.44,0,.22.02.24.22.24.14,0,.78-.04,2.64-.04h5.08a4.452,4.452,0,0,1-.38,1.1,14.982,14.982,0,0,1-.84,1.5h-3.84l1.08-.48c.28-.12.3-.18.2-.38a14.459,14.459,0,0,0-.9-1.52c-.12-.18-.2-.2-.44-.1l-1.32.56c-.24.08-.26.14-.14.32a13.6,13.6,0,0,1,.84,1.6h-2.56c-1.8,0-2.42-.04-2.54-.04-.2,0-.22.02-.22.2V.88c0,.2.02.22.22.22.12,0,.74-.04,2.54-.04h12.04c1.8,0,2.42.04,2.54.04.2,0,.22-.02.22-.22V-.6c0-.18-.02-.2-.22-.2-.12,0-.74.04-2.54.04h-2.72l.6-1.04a1.015,1.015,0,0,1,.38-.46.332.332,0,0,0,.2-.28c0-.08-.08-.2-.26-.26a18.449,18.449,0,0,0-1.76-.56h.3c1.86,0,2.52.04,2.64.04.2,0,.22-.02.22-.24,0-.12-.04-.5-.04-1.44V-6.54c0-.94.04-1.32.04-1.44,0-.22-.02-.24-.22-.24-.12,0-.78.04-2.64.04Zm-.78,1.62h7.12v1.58h-7.12Zm-.5-9.6c-1.5,0-1.98-.04-2.1-.04-.22,0-.24.02-.24.22v1.38c0,.18.02.2.24.2.12,0,.6-.04,2.1-.04h2.22a13.519,13.519,0,0,1-2.22,2.32,29.138,29.138,0,0,0-2.16-1.98c-.18-.14-.22-.1-.4.04l-1,.8c-.1.08-.16.14-.16.18,0,.06.06.12.16.2a19.322,19.322,0,0,1,2,1.9,21.753,21.753,0,0,1-3.8,1.92,3.68,3.68,0,0,1,.82,1.1c.18.36.26.52.42.52a1.375,1.375,0,0,0,.46-.16,22.281,22.281,0,0,0,4.48-2.78v1.02c0,.2.02.22.22.22.1,0,.54-.04,1.96-.04h2.06c1.42,0,1.88.04,1.98.04.2,0,.22-.02.22-.22v-.94a19.742,19.742,0,0,0,4.62,2.64,1.218,1.218,0,0,0,.46.14c.16,0,.22-.14.38-.52a5.572,5.572,0,0,1,.72-1.26,22.086,22.086,0,0,1-3.32-1.4c.56-.48,1.04-.94,1.46-1.36a1.639,1.639,0,0,1,.7-.54c.16-.06.26-.16.26-.28s-.06-.22-.24-.34c-.46-.3-.96-.6-1.56-.92a4.922,4.922,0,0,1-.56.86,18.128,18.128,0,0,1-1.64,1.6,12.247,12.247,0,0,1-1.12-.9,17.732,17.732,0,0,0,1.38-1.32,1.877,1.877,0,0,1,.68-.56c.18-.06.26-.16.26-.28,0-.1-.04-.2-.22-.32a14.854,14.854,0,0,0-1.54-.92,5.088,5.088,0,0,1-.56.84,9.949,9.949,0,0,1-1.2,1.28,2.661,2.661,0,0,1-.28-.38,6.2,6.2,0,0,1-.92-1.72c-.1-.22-.16-.24-.34-.24-.14,0-.7.04-1.82.04Zm3,5.3c-.82,0-1.32,0-1.6-.02a16.889,16.889,0,0,0,2.7-3.1,12.011,12.011,0,0,0,2.48,3.1c-.3.02-.76.02-1.52.02ZM-94.48-7.1c-.22.16-.24.2-.1.34a10.95,10.95,0,0,1,1.56,2.24c.06.12.1.18.16.18s.12-.06.24-.14l.88-.68c.22-.16.24-.22.12-.4A12.255,12.255,0,0,0-93.2-7.78c-.08-.08-.14-.14-.2-.14-.04,0-.1.04-.2.12Zm-2.74,4.04a3.571,3.571,0,0,1,.74.24,1.257,1.257,0,0,0,.42.16c.14,0,.2-.14.32-.44a17.746,17.746,0,0,0,.64-1.74.69.69,0,0,1,.26-.42.251.251,0,0,0,.12-.22c0-.08-.06-.14-.22-.2a10.42,10.42,0,0,0-1.46-.48,5.56,5.56,0,0,1-.08.74A18.593,18.593,0,0,1-97.22-3.06Zm10.04-5.3c1.9,0,2.54.04,2.64.04.22,0,.24-.02.24-.22V-9.9c0-.2-.02-.22-.24-.22-.1,0-.64.04-2.06.04l.22-3.98c.04-.54.06-1.08.12-1.66.02-.2-.04-.24-.24-.24-.1,0-.64.04-2.24.04H-91.9c-1.58,0-2.12-.04-2.24-.04-.2,0-.22.02-.22.22v1.36c0,.2.02.22.22.22.12,0,.66-.04,2.24-.04h3.62l-.06,1.2H-91.4c-1.62,0-2.16-.04-2.28-.04-.2,0-.22.02-.22.22v1.32c0,.2.02.22.22.22.12,0,.66-.04,2.28-.04h2.96l-.06,1.24h-3.88c-1.9,0-2.52-.04-2.64-.04-.2,0-.22.02-.22.22v1.44h-.12c-.12,0-.58.04-2.06.04h-.12V-9.98c1.16,0,1.5.04,1.62.04.22,0,.24-.02.24-.24v-1.24c0-.2-.02-.22-.24-.22-.12,0-.46.04-1.66.04h-1.6c-.68,0-1.06,0-1.32-.02a15.723,15.723,0,0,0,2.26-2.7,13.782,13.782,0,0,0,2.12,2.26c.2.18.32.28.42.28.12,0,.2-.16.36-.46a5.261,5.261,0,0,1,.78-1.02,12.225,12.225,0,0,1-2.82-2.46l.12-.1c.16-.12.22-.22.22-.32,0-.08-.1-.2-.3-.24a15.6,15.6,0,0,0-1.86-.32,4.026,4.026,0,0,1-.44,1.04,11.516,11.516,0,0,1-3.24,3.44,5.866,5.866,0,0,1,.62,1.34c.1.3.18.44.32.44a.765.765,0,0,0,.42-.24c.16-.12.3-.26.46-.4v.9c0,.22.02.24.22.24.1,0,.42-.02,1.42-.04v1.56h-.56c-1.48,0-1.94-.04-2.06-.04-.22,0-.24.02-.24.22v1.32c0,.2.02.22.24.22.12,0,.58-.04,2.06-.04h.56v5.48c-.46.1-.94.18-1.4.26-.58.1-1.08.16-1.76.22.14.58.32,1.18.5,1.72a.332.332,0,0,0,.32.26.566.566,0,0,0,.32-.14,2.588,2.588,0,0,1,.7-.26c1.66-.38,3.16-.78,4.6-1.22.58-.18.58-.14.6-.8a1.72,1.72,0,0,1,.02-.32,13.106,13.106,0,0,0,.78,1.36c.1.14.18.16.26.16a.34.34,0,0,0,.24-.18,1.771,1.771,0,0,1,.52-.42,26.036,26.036,0,0,0,2.8-1.92V-.98c0,.46-.16.62-.8.62a12.821,12.821,0,0,1-1.4-.08,4.115,4.115,0,0,1,.6,1.42c.14.62.12.62.76.6a3.887,3.887,0,0,0,2.06-.4,1.8,1.8,0,0,0,.66-1.7c0-.92-.1-2.06-.1-4.4A11.92,11.92,0,0,0-85.6.14c.18.16.3.24.4.24.12,0,.18-.12.3-.4a5.5,5.5,0,0,1,.82-1.4,10.707,10.707,0,0,1-3-2.68A16.648,16.648,0,0,0-85.4-5.82a2.055,2.055,0,0,1,.56-.52c.16-.1.26-.2.26-.28a.562.562,0,0,0-.2-.34,12.244,12.244,0,0,0-1.28-1,4.5,4.5,0,0,1-.46.76A13.081,13.081,0,0,1-88-5.54a12.718,12.718,0,0,1-1.08-2.82Zm-3.74,0v3.64A25.307,25.307,0,0,1-94.6-2.24l-.9.44a4.717,4.717,0,0,1,.08-.56c-.72.24-1.42.46-2.12.64V-6.74h.12c1.48,0,1.94.04,2.06.04.22,0,.24-.02.24-.22v-1.4h.1c.12,0,.74-.04,2.64-.04ZM-101.8-5.58c-.28.1-.3.14-.22.36a13.2,13.2,0,0,1,.68,3.02c.04.2.08.22.36.12l.86-.34c.24-.1.26-.16.24-.34a20.172,20.172,0,0,0-.68-3.02c-.06-.2-.1-.2-.34-.12Zm34.48,1.84c1.88,0,2.52.04,2.64.04.2,0,.22-.02.22-.22v-1.4c0-.2-.02-.22-.22-.22-.1,0-.64.04-2,.04V-8.2h.32c1.74,0,2.34.04,2.46.04.18,0,.2-.02.2-.22V-9.84c0-.2-.02-.22-.2-.22-.12,0-.72.04-2.46.04h-.32V-12.6c1.24.02,1.72.04,1.82.04.22,0,.24-.02.24-.2V-14.2c0-.2-.02-.22-.24-.22-.12,0-.8.04-2.74.04h-9.08c.24-.34.46-.68.66-1a1.872,1.872,0,0,1,.46-.58.348.348,0,0,0,.18-.28c0-.1-.12-.2-.28-.26a11.445,11.445,0,0,0-1.72-.5,6.418,6.418,0,0,1-.5,1.2,11.428,11.428,0,0,1-3.48,3.72,4.124,4.124,0,0,1,.9.88c.22.28.32.4.44.4.1,0,.22-.08.46-.26.34-.3.68-.62,1-.96v2h-.58c-1.74,0-2.34-.04-2.46-.04-.18,0-.2.02-.2.22v1.46c0,.2.02.22.2.22.12,0,.72-.04,2.46-.04h.58v2.7c-1.44,0-2-.04-2.1-.04-.2,0-.22.02-.22.22v1.4c0,.2.02.22.22.22.12,0,.78-.04,2.64-.04Zm-2.8-1.76V-8.2h1.6v2.7Zm-3.32,0V-8.2h1.58v2.7Zm-3.28,0V-8.2h1.54v2.7Zm6.6-4.52V-12.6h1.6v2.58Zm-3.32,0V-12.6h1.58v2.58Zm-3.28,0V-12.6h1.54v2.58ZM-80.2,1.2c.12.08.18.12.24.12a.242.242,0,0,0,.18-.12,13.124,13.124,0,0,0,2.36-3.5c.08-.2.08-.24-.18-.36l-1.16-.48c-.28-.12-.32-.12-.4.08A9.971,9.971,0,0,1-81.42.02c-.08.08-.12.12-.12.18s.06.14.2.22Zm12.34-3.84c-.26.12-.28.16-.16.32A18.333,18.333,0,0,1-66,1.02c.1.18.16.2.4.08l1.26-.7c.26-.14.28-.18.18-.36a16.351,16.351,0,0,0-2.16-3.16c-.14-.16-.2-.18-.44-.06Zm-3.94.06c-.28.06-.32.1-.24.3A17.651,17.651,0,0,1-71.2.94c.04.22.08.22.38.16L-69.4.82c.26-.06.28-.1.24-.32a17.282,17.282,0,0,0-1.02-3.18c-.08-.18-.12-.2-.38-.16Zm-3.94-.04c-.3.02-.34.06-.3.3A17.4,17.4,0,0,1-75.7.98c0,.2.02.24.34.2l1.44-.12c.24-.02.28-.08.26-.28a19.254,19.254,0,0,0-.46-3.32c-.04-.22-.1-.22-.34-.2Zm18.26-7.6h-.82c-1.56,0-2.06-.04-2.18-.04-.2,0-.22.02-.22.22v1.42c0,.18.02.2.22.2.12,0,.62-.04,2.18-.04h.36A16.809,16.809,0,0,1-61.16-2.9a4.953,4.953,0,0,1,.72,1.46c.08.24.16.34.24.34.1,0,.2-.12.36-.32a18.825,18.825,0,0,0,2.42-4.56c-.04,3.74-.14,7.04-.14,7.34,0,.2.02.22.22.22h1.64c.22,0,.24-.02.24-.22,0-.3-.14-3.88-.14-7.84a16.751,16.751,0,0,0,1.62,2.86c.14.2.24.3.32.3s.16-.12.28-.36A6.1,6.1,0,0,1-52.58-5a17.828,17.828,0,0,1-2.7-3.46c1.44,0,1.92.04,2.04.04.2,0,.22-.02.22-.2v-1.42c0-.2-.02-.22-.22-.22-.12,0-.62.04-2.16.04h-.16v-3.76A5.814,5.814,0,0,1-55.42-16a.938.938,0,0,0,.12-.42c0-.08-.12-.18-.32-.2-.68-.08-1.28-.12-2.02-.14a18.659,18.659,0,0,1,.16,2.82Zm7.42,5.24c-1.74.34-2.4.4-2.6.44s-.22.04-.18.26l.26,1.58c.02.18.06.2.26.16s.84-.18,2.58-.52L-47-3.6v1.48c0,2.22-.04,3.32-.04,3.44,0,.2.02.22.22.22h1.66c.2,0,.22-.02.22-.22,0-.1-.04-1.24-.04-3.46V-4c1.38-.28,1.92-.36,2.06-.4.22-.04.22-.06.2-.24l-.24-1.56c-.04-.22-.04-.24-.22-.2s-.64.18-1.8.42v-7.66a8.215,8.215,0,0,1,.12-2.22,1.129,1.129,0,0,0,.12-.4c0-.12-.12-.2-.3-.22-.7-.08-1.36-.12-2.12-.14A18.917,18.917,0,0,1-47-13.58v8ZM-52.32-9.8c-.1.1-.16.16-.16.22,0,.04.06.08.14.16A17.1,17.1,0,0,1-49.7-6.7c.14.16.18.16.4-.04l.98-.98c.2-.2.2-.24.06-.42a14.326,14.326,0,0,0-2.76-2.56c-.1-.08-.14-.12-.2-.12-.04,0-.08.04-.18.14Zm.58-4.6c-.2.18-.18.28-.04.38a14.45,14.45,0,0,1,2.72,2.62c.12.18.16.16.38-.06l.96-.94c.18-.16.18-.24.06-.38a14.106,14.106,0,0,0-2.82-2.54c-.18-.12-.2-.08-.38.08Zm-3.44,2.78a5.5,5.5,0,0,1,.8.34,1,1,0,0,0,.4.18c.12,0,.18-.12.3-.42a24.91,24.91,0,0,0,.92-2.54.709.709,0,0,1,.24-.44.2.2,0,0,0,.12-.2c0-.1-.06-.16-.22-.24a13.982,13.982,0,0,0-1.52-.56,7.429,7.429,0,0,1-.12.86A18.727,18.727,0,0,1-55.18-11.62Zm-5.06-3.34c-.26.1-.3.14-.22.36a15.081,15.081,0,0,1,1.02,3.34c.04.22.06.24.36.12l.86-.32c.26-.1.3-.16.26-.36a15.983,15.983,0,0,0-1.08-3.36c-.1-.2-.12-.22-.36-.12ZM-31.22-9.6a2.006,2.006,0,0,0-2,2,2.006,2.006,0,0,0,2,2,2.006,2.006,0,0,0,2-2A2.006,2.006,0,0,0-31.22-9.6ZM-11.4-4.12v.94h-3.28c-1.96,0-2.62-.04-2.74-.04-.2,0-.22.02-.22.24V-1.9c0,.22.02.24.22.24.12,0,.78-.04,2.74-.04h3.28v.46c0,.58-.18.72-1.04.74a13.652,13.652,0,0,1-2.02-.08A6.447,6.447,0,0,1-13.68.94c.2.56.2.58.8.58a6.473,6.473,0,0,0,2.82-.44c.54-.32.72-.86.72-1.78,0-.3,0-.64-.02-1h4.22v.44c0,.2.02.22.22.22h1.54c.2,0,.22-.02.22-.22,0-.12-.04-.64-.04-1.84V-4.12c1.18.02,1.64.04,1.74.04.18,0,.2-.02.2-.22V-5.5c0-.2-.02-.22-.2-.22-.1,0-.56.04-1.74.04v-.46c0-1.14.04-1.62.04-1.74,0-.2-.02-.22-.22-.22-.1,0-.8.04-2.76.04H-9.38v-.88h2.66c1.96,0,2.66.04,2.8.04.2,0,.22-.02.22-.24,0-.12-.04-.38-.04-1.04v-1.08c0-.66.04-.92.04-1.04,0-.22-.02-.24-.22-.24-.14,0-.84.04-2.8.04H-9.38v-.88H-4.3c1.8,0,2.42.04,2.54.04.2,0,.22-.02.22-.22v-1.26c0-.2-.02-.22-.22-.22-.12,0-.74.04-2.54.04H-9.38a3.1,3.1,0,0,1,.12-1.12.776.776,0,0,0,.12-.38c0-.12-.14-.2-.32-.22-.7-.08-1.34-.1-2.08-.12A9.563,9.563,0,0,1-11.4-15h-5.04c-1.8,0-2.42-.04-2.54-.04-.2,0-.22.02-.22.22v1.26c0,.2.02.22.22.22.12,0,.74-.04,2.54-.04h5.04v.88h-2.58c-1.96,0-2.66-.04-2.78-.04-.22,0-.24.02-.24.24,0,.12.04.38.04,1.04v1.08c0,.66-.04.92-.04,1.04,0,.22.02.24.24.24.12,0,.82-.04,2.78-.04h2.58v.88h-3.3c-1.94,0-2.6-.04-2.72-.04-.2,0-.22.02-.22.22v1.1c0,.18.02.2.22.2.12,0,.78-.04,2.72-.04h3.3v.94h-5.36c-1.74,0-2.34-.04-2.46-.04-.18,0-.2.02-.2.22v1.2c0,.2.02.22.2.22.12,0,.72-.04,2.46-.04Zm6.26-2.5v.94H-9.38v-.94ZM-9.38-3.18v-.94h4.24v.94Zm3.7-7.04h-3.7v-1h3.7Zm-9.34,0v-1h3.62v1ZM10.04-7.66c0-1.78.04-2.7.04-2.82,0-.18-.02-.2-.22-.2-.12,0-.6.04-2.08.04H5.26c-1.48,0-1.96-.04-2.1-.04-.2,0-.22.02-.22.2,0,.14.04.94.04,2.66v6.6c0,1.72-.04,2.48-.04,2.6,0,.2.02.22.22.22h1.6c.2,0,.22-.02.22-.22,0-.1-.04-.9-.04-2.54v-1.4h3.2V-.9c0,.4-.12.52-.66.52-.52,0-.8-.02-1.34-.06A3.71,3.71,0,0,1,6.6.84c.1.62.1.6.74.6C8.8,1.42,9.3,1.28,9.6,1.02c.42-.36.48-.9.48-1.66,0-.6-.04-1.66-.04-2.68Zm-5.1,3.5V-5.7h3.2v1.54Zm3.2-4.7v1.54H4.94V-8.86Zm8.44-3.16c1.78,0,2.4.04,2.52.04.2,0,.22-.02.22-.24v-1.52c0-.2-.02-.22-.22-.22-.12,0-.74.04-2.52.04H13.94c.32-.42.6-.82.82-1.16a2.214,2.214,0,0,1,.54-.7c.1-.08.18-.16.18-.26,0-.14-.1-.2-.28-.28a19.021,19.021,0,0,0-2-.54,4.426,4.426,0,0,1-.38,1,20.69,20.69,0,0,1-1.22,1.94H7.1l1.26-.5c.3-.12.3-.14.22-.32a10.209,10.209,0,0,0-1.16-1.92c-.12-.18-.14-.18-.42-.08l-1.36.52c-.22.1-.26.14-.14.32a13.339,13.339,0,0,1,1.12,1.98H4.26c-1.76,0-2.38-.04-2.5-.04-.2,0-.22.02-.22.22v1.52c0,.22.02.24.22.24.12,0,.74-.04,2.5-.04Zm1.26,3.8a6.415,6.415,0,0,1,.12-1.92,1.045,1.045,0,0,0,.14-.42c0-.1-.12-.2-.32-.22-.68-.08-1.32-.12-2.06-.14a16.511,16.511,0,0,1,.16,2.7v6.9c0,.64-.24.78-.86.78A16.462,16.462,0,0,1,13-.64a4.014,4.014,0,0,1,.54,1.4c.14.64.14.62.76.62,1.8,0,2.34-.1,2.88-.44.52-.34.7-.84.7-1.82,0-1-.04-2.06-.04-3.48Zm-5.9,3.24c0,1.34-.04,1.96-.04,2.1,0,.2.02.2.22.2H13.7c.2,0,.22,0,.22-.2,0-.12-.04-.76-.04-2.1V-7.34a9.24,9.24,0,0,1,.08-1.98,1.73,1.73,0,0,0,.12-.46c0-.12-.08-.2-.28-.22-.68-.08-1.28-.14-2-.16a20.581,20.581,0,0,1,.14,2.84Zm16.48-3.2c-1.86,0-2.5-.04-2.64-.04-.2,0-.22.02-.22.24,0,.12.04.5.04,1.44V-5c0,.94-.04,1.32-.04,1.44,0,.22.02.24.22.24.14,0,.78-.04,2.64-.04H33.5a4.452,4.452,0,0,1-.38,1.1,14.981,14.981,0,0,1-.84,1.5H28.44l1.08-.48c.28-.12.3-.18.2-.38a14.459,14.459,0,0,0-.9-1.52c-.12-.18-.2-.2-.44-.1l-1.32.56c-.24.08-.26.14-.14.32a13.6,13.6,0,0,1,.84,1.6H25.2c-1.8,0-2.42-.04-2.54-.04-.2,0-.22.02-.22.2V.88c0,.2.02.22.22.22.12,0,.74-.04,2.54-.04H37.24c1.8,0,2.42.04,2.54.04.2,0,.22-.02.22-.22V-.6c0-.18-.02-.2-.22-.2-.12,0-.74.04-2.54.04H34.52l.6-1.04a1.015,1.015,0,0,1,.38-.46.332.332,0,0,0,.2-.28c0-.08-.08-.2-.26-.26a18.449,18.449,0,0,0-1.76-.56h.3c1.86,0,2.52.04,2.64.04.2,0,.22-.02.22-.24,0-.12-.04-.5-.04-1.44V-6.54c0-.94.04-1.32.04-1.44,0-.22-.02-.24-.22-.24-.12,0-.78.04-2.64.04Zm-.78,1.62h7.12v1.58H27.64Zm-.5-9.6c-1.5,0-1.98-.04-2.1-.04-.22,0-.24.02-.24.22v1.38c0,.18.02.2.24.2.12,0,.6-.04,2.1-.04h2.22a13.519,13.519,0,0,1-2.22,2.32,29.136,29.136,0,0,0-2.16-1.98c-.18-.14-.22-.1-.4.04l-1,.8c-.1.08-.16.14-.16.18,0,.06.06.12.16.2a19.323,19.323,0,0,1,2,1.9,21.753,21.753,0,0,1-3.8,1.92,3.68,3.68,0,0,1,.82,1.1c.18.36.26.52.42.52a1.375,1.375,0,0,0,.46-.16,22.281,22.281,0,0,0,4.48-2.78v1.02c0,.2.02.22.22.22.1,0,.54-.04,1.96-.04H32.2c1.42,0,1.88.04,1.98.04.2,0,.22-.02.22-.22v-.94a19.742,19.742,0,0,0,4.62,2.64,1.218,1.218,0,0,0,.46.14c.16,0,.22-.14.38-.52a5.572,5.572,0,0,1,.72-1.26,22.087,22.087,0,0,1-3.32-1.4c.56-.48,1.04-.94,1.46-1.36a1.639,1.639,0,0,1,.7-.54c.16-.06.26-.16.26-.28s-.06-.22-.24-.34c-.46-.3-.96-.6-1.56-.92a4.921,4.921,0,0,1-.56.86,18.128,18.128,0,0,1-1.64,1.6,12.247,12.247,0,0,1-1.12-.9,17.732,17.732,0,0,0,1.38-1.32,1.877,1.877,0,0,1,.68-.56c.18-.06.26-.16.26-.28,0-.1-.04-.2-.22-.32a14.853,14.853,0,0,0-1.54-.92,5.088,5.088,0,0,1-.56.84,9.949,9.949,0,0,1-1.2,1.28,2.661,2.661,0,0,1-.28-.38,6.2,6.2,0,0,1-.92-1.72c-.1-.22-.16-.24-.34-.24-.14,0-.7.04-1.82.04Zm3,5.3c-.82,0-1.32,0-1.6-.02a16.889,16.889,0,0,0,2.7-3.1,12.011,12.011,0,0,0,2.48,3.1c-.3.02-.76.02-1.52.02ZM51.12-7.1c-.22.16-.24.2-.1.34a10.95,10.95,0,0,1,1.56,2.24c.06.12.1.18.16.18s.12-.06.24-.14l.88-.68c.22-.16.24-.22.12-.4A12.256,12.256,0,0,0,52.4-7.78c-.08-.08-.14-.14-.2-.14-.04,0-.1.04-.2.12ZM48.38-3.06a3.571,3.571,0,0,1,.74.24,1.257,1.257,0,0,0,.42.16c.14,0,.2-.14.32-.44a17.745,17.745,0,0,0,.64-1.74.69.69,0,0,1,.26-.42.251.251,0,0,0,.12-.22c0-.08-.06-.14-.22-.2a10.42,10.42,0,0,0-1.46-.48,5.561,5.561,0,0,1-.08.74A18.593,18.593,0,0,1,48.38-3.06Zm10.04-5.3c1.9,0,2.54.04,2.64.04.22,0,.24-.02.24-.22V-9.9c0-.2-.02-.22-.24-.22-.1,0-.64.04-2.06.04l.22-3.98c.04-.54.06-1.08.12-1.66.02-.2-.04-.24-.24-.24-.1,0-.64.04-2.24.04H53.7c-1.58,0-2.12-.04-2.24-.04-.2,0-.22.02-.22.22v1.36c0,.2.02.22.22.22.12,0,.66-.04,2.24-.04h3.62L57.26-13H54.2c-1.62,0-2.16-.04-2.28-.04-.2,0-.22.02-.22.22v1.32c0,.2.02.22.22.22.12,0,.66-.04,2.28-.04h2.96l-.06,1.24H53.22c-1.9,0-2.52-.04-2.64-.04-.2,0-.22.02-.22.22v1.44h-.12c-.12,0-.58.04-2.06.04h-.12V-9.98c1.16,0,1.5.04,1.62.04.22,0,.24-.02.24-.24v-1.24c0-.2-.02-.22-.24-.22-.12,0-.46.04-1.66.04h-1.6c-.68,0-1.06,0-1.32-.02a15.723,15.723,0,0,0,2.26-2.7,13.782,13.782,0,0,0,2.12,2.26c.2.18.32.28.42.28.12,0,.2-.16.36-.46a5.261,5.261,0,0,1,.78-1.02,12.225,12.225,0,0,1-2.82-2.46l.12-.1c.16-.12.22-.22.22-.32,0-.08-.1-.2-.3-.24a15.6,15.6,0,0,0-1.86-.32,4.026,4.026,0,0,1-.44,1.04,11.516,11.516,0,0,1-3.24,3.44,5.866,5.866,0,0,1,.62,1.34c.1.3.18.44.32.44a.765.765,0,0,0,.42-.24c.16-.12.3-.26.46-.4v.9c0,.22.02.24.22.24.1,0,.42-.02,1.42-.04v1.56h-.56c-1.48,0-1.94-.04-2.06-.04-.22,0-.24.02-.24.22v1.32c0,.2.02.22.24.22.12,0,.58-.04,2.06-.04h.56v5.48c-.46.1-.94.18-1.4.26-.58.1-1.08.16-1.76.22.14.58.32,1.18.5,1.72a.332.332,0,0,0,.32.26.566.566,0,0,0,.32-.14,2.588,2.588,0,0,1,.7-.26c1.66-.38,3.16-.78,4.6-1.22.58-.18.58-.14.6-.8a1.72,1.72,0,0,1,.02-.32,13.106,13.106,0,0,0,.78,1.36c.1.14.18.16.26.16a.34.34,0,0,0,.24-.18,1.771,1.771,0,0,1,.52-.42,26.036,26.036,0,0,0,2.8-1.92V-.98c0,.46-.16.62-.8.62a12.821,12.821,0,0,1-1.4-.08,4.115,4.115,0,0,1,.6,1.42c.14.62.12.62.76.6a3.887,3.887,0,0,0,2.06-.4,1.8,1.8,0,0,0,.66-1.7c0-.92-.1-2.06-.1-4.4A11.92,11.92,0,0,0,60,.14c.18.16.3.24.4.24.12,0,.18-.12.3-.4a5.5,5.5,0,0,1,.82-1.4,10.707,10.707,0,0,1-3-2.68A16.648,16.648,0,0,0,60.2-5.82a2.055,2.055,0,0,1,.56-.52c.16-.1.26-.2.26-.28a.562.562,0,0,0-.2-.34,12.244,12.244,0,0,0-1.28-1,4.5,4.5,0,0,1-.46.76A13.081,13.081,0,0,1,57.6-5.54a12.718,12.718,0,0,1-1.08-2.82Zm-3.74,0v3.64A25.307,25.307,0,0,1,51-2.24l-.9.44a4.716,4.716,0,0,1,.08-.56c-.72.24-1.42.46-2.12.64V-6.74h.12c1.48,0,1.94.04,2.06.04.22,0,.24-.02.24-.22v-1.4h.1c.12,0,.74-.04,2.64-.04ZM43.8-5.58c-.28.1-.3.14-.22.36a13.2,13.2,0,0,1,.68,3.02c.04.2.08.22.36.12l.86-.34c.24-.1.26-.16.24-.34a20.172,20.172,0,0,0-.68-3.02c-.06-.2-.1-.2-.34-.12ZM73.78-7.4H75.2a11.9,11.9,0,0,0,5.32,8.72c.22.14.34.22.44.22.12,0,.2-.16.36-.48a5.905,5.905,0,0,1,.9-1.44,8.854,8.854,0,0,1-3.46-2.86A21.93,21.93,0,0,0,80.6-4.76a2.293,2.293,0,0,1,.86-.6c.18-.06.24-.16.24-.28s-.04-.18-.16-.32a15.958,15.958,0,0,0-1.38-1.16,5.179,5.179,0,0,1-.64.84A21.611,21.611,0,0,1,77.86-4.8a12.723,12.723,0,0,1-.78-2.6h.98c1.5,0,2.2.04,2.3.04.2,0,.22-.02.22-.22,0-.12-.04-.78-.04-2.22v-3.7c0-1.4.04-2.08.04-2.2,0-.2-.02-.22-.22-.22-.1,0-.8.04-2.3.04H74.52c-1.64,0-2.44-.04-2.58-.04-.2,0-.22.02-.22.22,0,.14.04,1.28.04,3.52V-1.06l-.66.12a13.378,13.378,0,0,1-1.68.22,14.6,14.6,0,0,0,.44,1.9c.04.16.12.2.24.2a.515.515,0,0,0,.32-.14A1.929,1.929,0,0,1,71.06,1C72.96.56,74.6.12,76.14-.36c.58-.16.6-.16.6-.82a7.849,7.849,0,0,1,.08-1.26c-.92.34-1.96.66-3.04.94Zm4.74-1.7H73.78v-1.78h4.74Zm0-5.02v1.64H73.78v-1.64Zm-12-1.84c-1.04,0-1.56-.04-1.7-.04-.2,0-.22.02-.22.24,0,.12.04,1.5.04,4.26v8.62c0,2.76-.04,4.1-.04,4.24,0,.2.02.22.22.22h1.62c.2,0,.22-.02.22-.22,0-.12-.04-1.54-.04-4.24V-14.12h2.24A24.555,24.555,0,0,1,67.04-9.6c1.58,2.18,1.86,3.02,1.86,3.94,0,1.22-.72,1.5-1.96,1.44a2.634,2.634,0,0,1,.44,1.34c.06.62.08.62.72.58,1.94-.16,2.74-1.24,2.74-3.1,0-1.12-.08-2.2-1.72-4.36A38.213,38.213,0,0,0,70.8-13.7a1.591,1.591,0,0,1,.38-.64.512.512,0,0,0,.2-.36c0-.16-.08-.34-.52-.78-.44-.5-.6-.6-.78-.6a.456.456,0,0,0-.22.06.921.921,0,0,1-.4.06ZM92.68-9v7.42a4.989,4.989,0,0,1-3-2.86c.14-.5.26-1.02.36-1.58a1.675,1.675,0,0,1,.26-.62.619.619,0,0,0,.18-.38c0-.14-.1-.22-.38-.28-.58-.14-1.24-.28-1.9-.38a9.529,9.529,0,0,1-.12,1.28,9.469,9.469,0,0,1-3.6,6.32A4.348,4.348,0,0,1,85.64.96c.2.26.3.38.4.38.12,0,.24-.12.44-.34a11.394,11.394,0,0,0,2.44-3.42C90.5-.04,91.9,1.04,99.06,1.06c.8,0,1.6-.02,2.36-.06.62-.06.64-.06.72-.68a5.485,5.485,0,0,1,.38-1.44c-1.32.1-2.74.18-3.88.18a33.736,33.736,0,0,1-3.86-.18V-4.54h2.44c1.64,0,2.18.04,2.3.04.22,0,.24-.02.24-.2V-6.16c0-.2-.02-.22-.24-.22-.12,0-.66.04-2.3.04H94.78V-9h1.7c1.92,0,2.58.04,2.7.04.2,0,.22-.02.22-.22v-1.46c0-.2-.02-.22-.22-.22-.12,0-.78.04-2.7.04H90.84c-1.94,0-2.58-.04-2.7-.04-.22,0-.24.02-.24.22v1.46c0,.2.02.22.24.22.12,0,.76-.04,2.7-.04Zm1.82-5.68v-.2a3.58,3.58,0,0,1,.08-1.2.935.935,0,0,0,.12-.38c0-.12-.12-.18-.3-.2-.68-.06-1.4-.1-2.14-.1a8.052,8.052,0,0,1,.14,1.9v.18H88.12c-1.88,0-2.52-.04-2.66-.04-.2,0-.22.02-.22.2,0,.14.04.48.04,1.22v.68c0,1.78-.04,2.06-.04,2.2,0,.2.02.22.22.22h1.62c.22,0,.24-.02.24-.22v-2.42H99.98v2.42c0,.2.02.22.22.22h1.64c.2,0,.22-.02.22-.22,0-.12-.04-.42-.04-2.2v-.86c0-.56.04-.9.04-1.04,0-.18-.02-.2-.22-.2-.12,0-.78.04-2.64.04Zm21.26,2.42a4.543,4.543,0,0,1,4.48,4.64c0,3.78-2.66,5.18-6.04,5.98a4.242,4.242,0,0,1,1.4,1.26c.26.4.44.48.86.36,4.06-1.22,6.16-3.56,6.16-7.28,0-3.98-2.82-6.94-7.62-6.94a8.752,8.752,0,0,0-6.5,2.56,7.369,7.369,0,0,0-2.26,5.2c0,3.26,1.78,5.14,3.54,5.14a3.8,3.8,0,0,0,3.4-2.3,25.043,25.043,0,0,0,2.5-8.62Zm-2.4.12a22.851,22.851,0,0,1-2.12,7.16c-.54.96-.98,1.22-1.5,1.22-.62,0-1.36-1.02-1.36-2.86a5.759,5.759,0,0,1,1.56-3.7A6.023,6.023,0,0,1,113.36-12.14Z" transform="translate(217.396 49)"/><path class="c" d="M-135.688-2.968a11.3,11.3,0,0,1,.84-.812C-132.3-1.092-131.6-.336-130.4.952l2.968-1.176c.028-3.416.028-3.92.056-8.372a12.552,12.552,0,0,1,4.256-.98,3.675,3.675,0,0,1,3.892,3.724c0,1.96-1.148,2.968-2.156,2.968-.868,0-1.092-.728-1.428-1.876l-2.6,1.036c.392,2.044.784,3.976,3.864,3.976,3,0,5.236-2.716,5.236-6.16,0-3.5-2.408-6.384-6.748-6.384a15.5,15.5,0,0,0-4.312.644l.028-2.772a24.413,24.413,0,0,0,4.368-1.2v-3.192a17.772,17.772,0,0,1-4.312,1.456c.028-.532.112-3.276.224-3.444.056-.084.476-.42.476-.532,0-.14,0-.336-.784-.448l-3.108-.42c.028,1.82.028,2.072.056,5.236-.812.056-1.232.084-1.932.084a22.561,22.561,0,0,1-2.744-.14l.42,3.164a27.479,27.479,0,0,0,4.256-.14l.028,3.612a80.207,80.207,0,0,0-7,4.284Zm5.292.224a23.54,23.54,0,0,1-2.548-2.632A28.723,28.723,0,0,1-130.4-7.084Zm16.212-11.844a20.6,20.6,0,0,0-5.516-3.164l-1.82,2.464A16.286,16.286,0,0,1-116-12.1Zm26.544,1.4v-8.764h-13.244v8.764Zm-2.968-5.376h-7.224v-1.344h7.224Zm0,3.36h-7.224v-1.344h7.224Zm-11.676-5.6c0-.168-.252-.336-.308-.364l-2.632-1.82a20.653,20.653,0,0,1-5.236,4.732l2.24,2.016a28.607,28.607,0,0,0,5.04-4.228c.112-.084.224-.084.448-.084C-102.452-20.552-102.284-20.608-102.284-20.8ZM-86.016-5.516V-8.064H-89.6V-9.576h3.136v-2.436H-102.4v2.436h9.576v1.512h-10.22v2.548h3.864L-100.828-4A25.207,25.207,0,0,1-98.14-.616l2.1-1.9a26.3,26.3,0,0,0-2.268-3h5.488v3.388c0,.448-.252.756-.588.756s-1.736-.084-2.016-.112L-94.3,1.4c3.528-.056,4.7-.084,4.7-2.3v-4.62Zm-15.848-9.52c0-.14-.224-.308-.336-.364l-2.66-1.484a23.692,23.692,0,0,1-6.1,6.412l2.128,2.072a9.113,9.113,0,0,0,1.288-1.064V1.456h3.164v-12.74c0-.084.056-.14.224-.252.28-.168.364-.28.364-.448a.479.479,0,0,0-.2-.364l-.392-.336c.448-.448.56-.588,1.6-1.736.28-.308.28-.336.5-.336C-102.172-14.756-101.864-14.756-101.864-15.036ZM-60.4-3.3a25.717,25.717,0,0,0-4.816-2.548,27.746,27.746,0,0,1-.364-3.892,2.565,2.565,0,0,1,1.064-2.24l-2.912-1.568a4.23,4.23,0,0,0-1.2,2.856c0,.588.336,3.444.392,4.088a14.13,14.13,0,0,0-2.184-.168c-3.864,0-4.956,2.464-4.956,3.976A3.17,3.17,0,0,0-74.34-.42,6.654,6.654,0,0,0-69.776.9c3.668,0,4.508-1.176,4.76-3.416A15.413,15.413,0,0,1-62.244-.672Zm-7.7-.5c0,1.008.028,2.184-2.24,2.184-1.54,0-2.324-.644-2.324-1.26,0-.56.672-1.344,2.128-1.344A9.4,9.4,0,0,1-68.1-3.808Zm8.484-11.2a13.838,13.838,0,0,0-6.244-2.576l-1.26,2.408a19.818,19.818,0,0,1,6.132,2.548Zm-8.344-1.456V-19.6c-.728.252-1.568.532-3.22.952.112-.364.644-2.156.672-2.184.168-.168.644-.336.644-.616,0-.308-.532-.448-.672-.476l-3.052-.672a26.715,26.715,0,0,1-1.008,4.62,37.274,37.274,0,0,1-4.76.364l.42,2.912c1.316-.084,2.1-.168,3.388-.336A48.029,48.029,0,0,1-80.332-4.844l3,1.288a68.287,68.287,0,0,0,5.18-12.012C-69.776-15.988-68.908-16.212-67.956-16.464Zm38-5.208H-44.492V-18.9h3.612c-.5,4.256-1.82,5.768-4.06,7.252v-1.568c-1.932.616-2.156.7-2.52.812v-3.3h2.632v-2.856H-47.46v-2.912c0-.14.084-.224.392-.42.252-.14.392-.252.392-.448,0-.364-.784-.364-1.26-.392l-2.828-.084v4.256h-3.36v2.856h3.36v4.256c-2.1.588-3.136.812-3.724.924l.168,2.8c.028.644.112,1.148.42,1.148.14,0,.224-.084.42-.392a.96.96,0,0,1,.42-.392c.364-.168,1.988-.728,2.3-.84v5.88c0,.784-.952.784-1.176.784a16.305,16.305,0,0,1-1.68-.14l1.568,3.3c2.576,0,4.592-.448,4.592-2.352v-8.68c.9-.336,1.428-.5,2.52-.952v-.728L-42.252-9.1c3.556-3.388,4.284-5.768,4.732-9.8H-33.4a20.714,20.714,0,0,1-.7,4.732c-.336.98-.784,1.148-1.428,1.148a20.666,20.666,0,0,1-2.492-.2l1.736,3.3c1.344-.028,3.612-.028,4.508-1.344C-30.632-12.964-30.156-19.04-29.96-21.672ZM-30.772,1.4V-9.072H-44.548V1.456h3.332V.588H-34.1V1.4ZM-34.1-2.184h-7.112V-6.328H-34.1Zm15.792-18.452c0-.224-.336-.448-.42-.5l-2.52-1.736a21.07,21.07,0,0,1-5.572,5.236l2.548,2.3a26.649,26.649,0,0,0,4.648-4.508c.364-.392.392-.42.812-.448C-18.62-20.328-18.312-20.328-18.312-20.636ZM-1.848-11.9v-2.632H-8.96v-2.576h6.216V-19.74H-8.96v-1.6a.6.6,0,0,1,.252-.42c.056-.028.336-.252.336-.42,0-.364-.56-.392-.644-.392l-3.276-.14v2.968h-5.32v2.632h5.32v2.576H-18.48c.168-.056.476-.168.476-.5,0-.252-.364-.448-.42-.476l-2.8-1.456A24.066,24.066,0,0,1-27.412-9.52l2.436,2.044c.84-.7,1.316-1.148,1.652-1.484V2.072h3.108V-10.64a.888.888,0,0,1,.14-.392c.224-.308.28-.392.28-.5,0-.336-.448-.476-.644-.5a21.841,21.841,0,0,0,1.428-1.848V-11.9h10.3v2.632h-9.884v2.66H-14.5l-2.464,1.792a20.368,20.368,0,0,1,2.576,3.724l2.772-1.68a28.794,28.794,0,0,0-2.632-3.836h5.544v4.62c0,.728-.448.868-.952.868-.532,0-1.6-.112-2.716-.224l1.792,3.472C-7.672,2.072-5.6,1.708-5.6-.84V-6.608h3.444v-2.66H-5.6V-11.9Zm25.62,1.008-.952-3.192c-1.316.588-1.68.756-4.956,2.3a3.753,3.753,0,0,0-3.808-2.828,5.414,5.414,0,0,0-2.408.588c.476-.728.7-1.12,1.6-2.772a58.938,58.938,0,0,0,6.692-1.064l.2-3.136a23.642,23.642,0,0,1-5.488,1.428c.14-.308.84-1.876.868-1.9.028,0,.588-.252.644-.28.168-.056.28-.14.28-.308,0-.2-.476-.252-.56-.28l-3.5-.616a21.713,21.713,0,0,1-1.4,3.724,39.383,39.383,0,0,1-5.348-.112l.336,2.912c1.176,0,2.044-.028,3.64-.112a37.229,37.229,0,0,1-5.516,7.7L6.832-7.14c1.54-2.52,3.22-5.068,5.964-5.068a1.94,1.94,0,0,1,2.128,1.848C10.724-8.2,8.148-6.888,8.148-3.416A3.828,3.828,0,0,0,9.212-.672C10.976,1.2,14.224,1.2,15.792,1.2a46.339,46.339,0,0,0,6.664-.42V-2.38a32.374,32.374,0,0,1-7.14.9c-2.044,0-4.2-.364-4.2-2.184,0-1.96,2.912-3.416,3.976-3.948-.028,1.232-.056,2.6-.14,4.2H18.2c0-.952-.056-4.424-.056-5.516C20.216-9.716,21.56-10.192,23.772-10.892Zm29.792,1.82v-5.712h-5.74c.868-1.008,1.68-2.072,2.072-2.632.112-.112.14-.112.42-.168.056,0,.336-.028.336-.224,0-.224-.476-.42-.56-.448l-2.828-.98a16.542,16.542,0,0,1-2.212,4.452h-2.66l1.008-.868A14.158,14.158,0,0,0,41.3-18.7a82.675,82.675,0,0,0,8.344-.952,8.2,8.2,0,0,1,1.148-.2c.112,0,.588.112.7.112s.2-.056.2-.168c0-.252-.336-.616-.448-.728l-2.1-2.128a55.168,55.168,0,0,1-13.3,1.708c-1.736,0-2.8-.084-3.668-.14l1.26,2.716c.56.028,1.12.028,1.624.028L32.872-17a8.633,8.633,0,0,1,1.792,2.212H30.52v5.768h2.856v-3.192H50.708v3.136Zm-.448,7.784a24.292,24.292,0,0,1-8.2-2.016,19.094,19.094,0,0,0,4.956-5.712l-1.4-1.484h-13.8v2.632H37.8L36.288-6.5a16.7,16.7,0,0,0,3.22,3.22A22.451,22.451,0,0,1,30.492-1.2L32,1.512A22.436,22.436,0,0,0,37.268.5,25.106,25.106,0,0,0,42.2-1.54a23.946,23.946,0,0,0,9.66,2.912Zm-12.544-13.5H36.736l.812-.7a16.32,16.32,0,0,0-2.212-2.968c1.568,0,2.828-.028,5.208-.2L38.78-17.416A7.525,7.525,0,0,1,40.572-14.784Zm4.7,6.916A13.048,13.048,0,0,1,42.14-4.816a13.605,13.605,0,0,1-3.276-3.052Zm35.588-6.8-.112-3.22a25.586,25.586,0,0,1-3.808,1.344c-.112-1.4-.252-3.052-.252-3.164-.028-.14-.084-.728-.084-.868s.056-.252.252-.5c.084-.112.252-.308.252-.42,0-.336-.476-.336-.728-.336l-3.276-.112A49.375,49.375,0,0,1,73.92-15.9a34.994,34.994,0,0,1-4.508.308c-.5,0-.9,0-1.792-.056l.644,3.22a38.944,38.944,0,0,0,5.8-.42v1.484a13.955,13.955,0,0,1-1.036,6.132A15.506,15.506,0,0,1,70.28-.56l3.164,1.624C75.012-1.344,77.2-4.7,77.2-11.788c0-.476,0-.84-.028-1.68A32.018,32.018,0,0,0,80.864-14.672ZM66.7-7.336,64.6-8.792c-.56,1.26-.728,1.652-1.12,2.688a20.654,20.654,0,0,1-.56-5.292c0-3.836.756-8.54,1.344-9.016.364-.28.448-.336.448-.448,0-.28-.728-.476-.812-.5l-2.828-.812a50.765,50.765,0,0,0-1.12,9.94c0,6.86,1.484,10.192,2.24,11.928l2.688-.42A25.834,25.834,0,0,1,66.7-7.336Zm43.764,5.88a25.47,25.47,0,0,1-4.648-4.2c1.232-2.128,3.136-5.488,3.612-12.824L107.8-19.964H99.092v-2.1H86.184v2.688H87.92V-4.62c-.84.112-.924.14-1.708.252L86.66-1.82c.056.364.14.476.28.476.084,0,.2-.112.364-.28a3.018,3.018,0,0,1,.924-.28c.868-.2,4.284-1.12,5.88-1.568V1.176h2.828V-1.372L99.288.868A19.537,19.537,0,0,0,104.1-3.248,23.987,23.987,0,0,0,108.3.784ZM106.2-17.192a22.311,22.311,0,0,1-2.24,8.848,23.472,23.472,0,0,1-2.576-8.148l-2.8.952a29.12,29.12,0,0,0,3.78,9.828,11.837,11.837,0,0,1-5.432,4V-19.376h1.932v2.184Zm-12.1,6.1H90.916V-14h3.192Zm0-5.432H90.916v-2.856h3.192Zm0,10.864c-.7.112-1.092.2-3.192.56V-8.624h3.192Zm40.964-1.736a6.172,6.172,0,0,0-6.216-6.188,22.294,22.294,0,0,0-2.716.168,69.228,69.228,0,0,1,6.216-5.992L130.9-21.672a31.732,31.732,0,0,1-8.484,1.4c-.868,0-2.464-.112-3.136-.168l.644,3.136a26.14,26.14,0,0,0,6.552-.7A55.278,55.278,0,0,1,116.116-7.9l2.352,2.464c1.568-1.6,4.032-4.088,5.768-5.012a7.593,7.593,0,0,1,3.192-.7c1.82,0,4.536.9,4.536,3.668a4.932,4.932,0,0,1-1.848,3.724c-.784-.98-2.6-3.276-5.516-3.276A3.922,3.922,0,0,0,120.484-3.3c0,2.072,1.792,3.836,5.292,3.836C130.7.532,135.072-2.744,135.072-7.392Zm-7.56,5.012a7.96,7.96,0,0,1-1.9.252c-1.008,0-2.3-.28-2.3-1.26a1.234,1.234,0,0,1,1.4-1.176C126.308-4.564,127.148-3.024,127.512-2.38Z" transform="translate(217.396 88)"/></svg>