<svg xmlns="http://www.w3.org/2000/svg" width="305.544" height="92.424" viewBox="0 0 305.544 92.424"><defs><style>.a{fill:#7c6850;}.b{fill:#ba9973;}.c{fill:#fff;}</style></defs><g transform="translate(-48 -20)"><rect class="a" width="305.544" height="92.424" rx="4" transform="translate(48 20)"/><rect class="b" width="305.544" height="88.424" rx="4" transform="translate(48 20)"/></g><path class="c" d="M-93.744-6.544c-1.488,0-2-.032-2.112-.032-.16,0-.176.016-.176.192,0,.1.032.4.032,1.152V-4c0,.752-.032,1.056-.032,1.152,0,.176.016.192.176.192.112,0,.624-.032,2.112-.032h4.064a3.562,3.562,0,0,1-.3.88,11.985,11.985,0,0,1-.672,1.2h-3.072l.864-.384c.224-.1.24-.144.16-.3a11.566,11.566,0,0,0-.72-1.216c-.1-.144-.16-.16-.352-.08l-1.056.448c-.192.064-.208.112-.112.256a10.879,10.879,0,0,1,.672,1.28H-96.32c-1.44,0-1.936-.032-2.032-.032-.16,0-.176.016-.176.16V.7c0,.16.016.176.176.176.1,0,.592-.032,2.032-.032h9.632c1.44,0,1.936.032,2.032.032.16,0,.176-.016.176-.176V-.48c0-.144-.016-.16-.176-.16-.1,0-.592.032-2.032.032h-2.176l.48-.832a.812.812,0,0,1,.3-.368.266.266,0,0,0,.16-.224c0-.064-.064-.16-.208-.208a14.759,14.759,0,0,0-1.408-.448h.24c1.488,0,2.016.032,2.112.032.16,0,.176-.016.176-.192,0-.1-.032-.4-.032-1.152V-5.232c0-.752.032-1.056.032-1.152,0-.176-.016-.192-.176-.192-.1,0-.624.032-2.112.032Zm-.624,1.3h5.7v1.264h-5.7Zm-.4-7.68c-1.2,0-1.584-.032-1.68-.032-.176,0-.192.016-.192.176v1.1c0,.144.016.16.192.16.1,0,.48-.032,1.68-.032h1.776A10.815,10.815,0,0,1-94.768-9.7,23.308,23.308,0,0,0-96.5-11.28c-.144-.112-.176-.08-.32.032l-.8.64c-.08.064-.128.112-.128.144,0,.048.048.1.128.16a15.458,15.458,0,0,1,1.6,1.52,17.4,17.4,0,0,1-3.04,1.536,2.944,2.944,0,0,1,.656.88c.144.288.208.416.336.416A1.1,1.1,0,0,0-97.7-6.08,17.824,17.824,0,0,0-94.112-8.3v.816c0,.16.016.176.176.176.08,0,.432-.032,1.568-.032h1.648c1.136,0,1.5.032,1.584.032.16,0,.176-.016.176-.176V-8.24a15.794,15.794,0,0,0,3.7,2.112.974.974,0,0,0,.368.112c.128,0,.176-.112.3-.416a4.457,4.457,0,0,1,.576-1.008,17.669,17.669,0,0,1-2.656-1.12c.448-.384.832-.752,1.168-1.088a1.312,1.312,0,0,1,.56-.432c.128-.048.208-.128.208-.224s-.048-.176-.192-.272c-.368-.24-.768-.48-1.248-.736a3.938,3.938,0,0,1-.448.688,14.5,14.5,0,0,1-1.312,1.28,9.8,9.8,0,0,1-.9-.72,14.185,14.185,0,0,0,1.1-1.056,1.5,1.5,0,0,1,.544-.448c.144-.048.208-.128.208-.224,0-.08-.032-.16-.176-.256a11.883,11.883,0,0,0-1.232-.736,4.071,4.071,0,0,1-.448.672,7.959,7.959,0,0,1-.96,1.024,2.129,2.129,0,0,1-.224-.3,4.959,4.959,0,0,1-.736-1.376c-.08-.176-.128-.192-.272-.192-.112,0-.56.032-1.456.032Zm2.4,4.24c-.656,0-1.056,0-1.28-.016a13.512,13.512,0,0,0,2.16-2.48A9.609,9.609,0,0,0-89.5-8.7c-.24.016-.608.016-1.216.016ZM-75.584-5.68c-.176.128-.192.16-.08.272a8.76,8.76,0,0,1,1.248,1.792c.048.1.08.144.128.144s.1-.048.192-.112l.7-.544c.176-.128.192-.176.1-.32A9.8,9.8,0,0,0-74.56-6.224c-.064-.064-.112-.112-.16-.112-.032,0-.08.032-.16.1Zm-2.192,3.232a2.857,2.857,0,0,1,.592.192,1.006,1.006,0,0,0,.336.128c.112,0,.16-.112.256-.352a14.2,14.2,0,0,0,.512-1.392.552.552,0,0,1,.208-.336.2.2,0,0,0,.1-.176c0-.064-.048-.112-.176-.16a8.336,8.336,0,0,0-1.168-.384,4.449,4.449,0,0,1-.064.592A14.873,14.873,0,0,1-77.776-2.448Zm8.032-4.24c1.52,0,2.032.032,2.112.032.176,0,.192-.016.192-.176V-7.92c0-.16-.016-.176-.192-.176-.08,0-.512.032-1.648.032l.176-3.184c.032-.432.048-.864.1-1.328.016-.16-.032-.192-.192-.192-.08,0-.512.032-1.792.032H-73.52c-1.264,0-1.7-.032-1.792-.032-.16,0-.176.016-.176.176V-11.5c0,.16.016.176.176.176.1,0,.528-.032,1.792-.032h2.9l-.048.96H-73.12c-1.3,0-1.728-.032-1.824-.032-.16,0-.176.016-.176.176V-9.2c0,.16.016.176.176.176.1,0,.528-.032,1.824-.032h2.368l-.048.992h-3.1c-1.52,0-2.016-.032-2.112-.032-.16,0-.176.016-.176.176v1.152h-.1c-.1,0-.464.032-1.648.032h-.1V-7.984c.928,0,1.2.032,1.3.032.176,0,.192-.016.192-.192v-.992c0-.16-.016-.176-.192-.176-.1,0-.368.032-1.328.032h-1.28c-.544,0-.848,0-1.056-.016a12.579,12.579,0,0,0,1.808-2.16,11.025,11.025,0,0,0,1.7,1.808c.16.144.256.224.336.224.1,0,.16-.128.288-.368a4.209,4.209,0,0,1,.624-.816A9.78,9.78,0,0,1-77.9-12.576l.1-.08c.128-.1.176-.176.176-.256,0-.064-.08-.16-.24-.192a12.48,12.48,0,0,0-1.488-.256,3.22,3.22,0,0,1-.352.832A9.213,9.213,0,0,1-82.3-9.776a4.692,4.692,0,0,1,.5,1.072c.08.24.144.352.256.352a.612.612,0,0,0,.336-.192c.128-.1.24-.208.368-.32v.72c0,.176.016.192.176.192.08,0,.336-.016,1.136-.032v1.248h-.448c-1.184,0-1.552-.032-1.648-.032-.176,0-.192.016-.192.176v1.056c0,.16.016.176.192.176.1,0,.464-.032,1.648-.032h.448v4.384c-.368.08-.752.144-1.12.208-.464.08-.864.128-1.408.176.112.464.256.944.4,1.376a.265.265,0,0,0,.256.208.453.453,0,0,0,.256-.112,2.071,2.071,0,0,1,.56-.208c1.328-.3,2.528-.624,3.68-.976.464-.144.464-.112.48-.64a1.376,1.376,0,0,1,.016-.256,10.486,10.486,0,0,0,.624,1.088c.08.112.144.128.208.128a.272.272,0,0,0,.192-.144A1.417,1.417,0,0,1-74.976-.5a20.829,20.829,0,0,0,2.24-1.536V-.784c0,.368-.128.5-.64.5A10.257,10.257,0,0,1-74.5-.352a3.292,3.292,0,0,1,.48,1.136c.112.5.1.5.608.48A3.11,3.11,0,0,0-71.76.944a1.439,1.439,0,0,0,.528-1.36c0-.736-.08-1.648-.08-3.52A9.536,9.536,0,0,0-68.48.112c.144.128.24.192.32.192.1,0,.144-.1.24-.32a4.4,4.4,0,0,1,.656-1.12,8.566,8.566,0,0,1-2.4-2.144A13.318,13.318,0,0,0-68.32-4.656a1.644,1.644,0,0,1,.448-.416c.128-.08.208-.16.208-.224a.45.45,0,0,0-.16-.272,9.8,9.8,0,0,0-1.024-.8,3.6,3.6,0,0,1-.368.608A10.465,10.465,0,0,1-70.4-4.432a10.175,10.175,0,0,1-.864-2.256Zm-2.992,0v2.912A20.246,20.246,0,0,1-75.68-1.792l-.72.352a3.773,3.773,0,0,1,.064-.448c-.576.192-1.136.368-1.7.512V-5.392h.1c1.184,0,1.552.032,1.648.032.176,0,.192-.016.192-.176v-1.12h.08c.1,0,.592-.032,2.112-.032Zm-8.7,2.224c-.224.08-.24.112-.176.288a10.556,10.556,0,0,1,.544,2.416c.032.16.064.176.288.1l.688-.272c.192-.08.208-.128.192-.272a16.137,16.137,0,0,0-.544-2.416c-.048-.16-.08-.16-.272-.1Zm27.584,1.472c1.5,0,2.016.032,2.112.032.16,0,.176-.016.176-.176v-1.12c0-.16-.016-.176-.176-.176-.08,0-.512.032-1.6.032V-6.56h.256c1.392,0,1.872.032,1.968.032.144,0,.16-.016.16-.176V-7.872c0-.16-.016-.176-.16-.176-.1,0-.576.032-1.968.032h-.256V-10.08c.992.016,1.376.032,1.456.032.176,0,.192-.016.192-.16V-11.36c0-.16-.016-.176-.192-.176-.1,0-.64.032-2.192.032h-7.264c.192-.272.368-.544.528-.8a1.5,1.5,0,0,1,.368-.464.278.278,0,0,0,.144-.224c0-.08-.1-.16-.224-.208a9.156,9.156,0,0,0-1.376-.4,5.135,5.135,0,0,1-.4.96,9.142,9.142,0,0,1-2.784,2.976,3.3,3.3,0,0,1,.72.7c.176.224.256.32.352.32.08,0,.176-.064.368-.208.272-.24.544-.5.8-.768v1.6h-.464c-1.392,0-1.872-.032-1.968-.032-.144,0-.16.016-.16.176V-6.7c0,.16.016.176.16.176.1,0,.576-.032,1.968-.032h.464V-4.4c-1.152,0-1.6-.032-1.68-.032-.16,0-.176.016-.176.176v1.12c0,.16.016.176.176.176.1,0,.624-.032,2.112-.032ZM-56.1-4.4V-6.56h1.28V-4.4Zm-2.656,0V-6.56h1.264V-4.4Zm-2.624,0V-6.56h1.232V-4.4Zm5.28-3.616V-10.08h1.28v2.064Zm-2.656,0V-10.08h1.264v2.064Zm-2.624,0V-10.08h1.232v2.064ZM-64.16.96c.1.064.144.1.192.1a.193.193,0,0,0,.144-.1,10.5,10.5,0,0,0,1.888-2.8c.064-.16.064-.192-.144-.288l-.928-.384c-.224-.1-.256-.1-.32.064A7.976,7.976,0,0,1-65.136.016c-.064.064-.1.1-.1.144s.048.112.16.176Zm9.872-3.072c-.208.1-.224.128-.128.256A14.666,14.666,0,0,1-52.8.816c.08.144.128.16.32.064l1.008-.56c.208-.112.224-.144.144-.288A13.081,13.081,0,0,0-53.056-2.5c-.112-.128-.16-.144-.352-.048Zm-3.152.048c-.224.048-.256.08-.192.24A14.121,14.121,0,0,1-56.96.752c.032.176.064.176.3.128L-55.52.656c.208-.048.224-.08.192-.256a13.825,13.825,0,0,0-.816-2.544c-.064-.144-.1-.16-.3-.128ZM-60.592-2.1c-.24.016-.272.048-.24.24A13.918,13.918,0,0,1-60.56.784c0,.16.016.192.272.16l1.152-.1c.192-.016.224-.064.208-.224A15.4,15.4,0,0,0-59.3-2.032c-.032-.176-.08-.176-.272-.16Zm14.608-6.08h-.656c-1.248,0-1.648-.032-1.744-.032-.16,0-.176.016-.176.176V-6.9c0,.144.016.16.176.16.1,0,.5-.032,1.744-.032h.288A13.447,13.447,0,0,1-48.928-2.32a3.962,3.962,0,0,1,.576,1.168c.064.192.128.272.192.272.08,0,.16-.1.288-.256a15.06,15.06,0,0,0,1.936-3.648c-.032,2.992-.112,5.632-.112,5.872,0,.16.016.176.176.176h1.312c.176,0,.192-.016.192-.176,0-.24-.112-3.1-.112-6.272a13.4,13.4,0,0,0,1.3,2.288c.112.16.192.24.256.24s.128-.1.224-.288A4.879,4.879,0,0,1-42.064-4a14.262,14.262,0,0,1-2.16-2.768c1.152,0,1.536.032,1.632.032.16,0,.176-.016.176-.16V-8.032c0-.16-.016-.176-.176-.176-.1,0-.5.032-1.728.032h-.128v-3.008a4.651,4.651,0,0,1,.112-1.616.75.75,0,0,0,.1-.336c0-.064-.1-.144-.256-.16-.544-.064-1.024-.1-1.616-.112a14.927,14.927,0,0,1,.128,2.256Zm5.936,4.192c-1.392.272-1.92.32-2.08.352s-.176.032-.144.208l.208,1.264c.016.144.048.16.208.128s.672-.144,2.064-.416L-37.6-2.88V-1.7c0,1.776-.032,2.656-.032,2.752,0,.16.016.176.176.176h1.328c.16,0,.176-.016.176-.176,0-.08-.032-.992-.032-2.768V-3.2c1.1-.224,1.536-.288,1.648-.32.176-.032.176-.048.16-.192l-.192-1.248c-.032-.176-.032-.192-.176-.16s-.512.144-1.44.336v-6.128a6.572,6.572,0,0,1,.1-1.776.9.9,0,0,0,.1-.32c0-.1-.1-.16-.24-.176-.56-.064-1.088-.1-1.7-.112a15.133,15.133,0,0,1,.128,2.432v6.4ZM-41.856-7.84c-.08.08-.128.128-.128.176,0,.032.048.064.112.128A13.681,13.681,0,0,1-39.76-5.36c.112.128.144.128.32-.032l.784-.784c.16-.16.16-.192.048-.336A11.461,11.461,0,0,0-40.816-8.56c-.08-.064-.112-.1-.16-.1-.032,0-.064.032-.144.112Zm.464-3.68c-.16.144-.144.224-.032.3a11.56,11.56,0,0,1,2.176,2.1c.1.144.128.128.3-.048l.768-.752c.144-.128.144-.192.048-.3a11.285,11.285,0,0,0-2.256-2.032c-.144-.1-.16-.064-.3.064ZM-44.144-9.3a4.4,4.4,0,0,1,.64.272.8.8,0,0,0,.32.144c.1,0,.144-.1.24-.336a19.928,19.928,0,0,0,.736-2.032.567.567,0,0,1,.192-.352.161.161,0,0,0,.1-.16c0-.08-.048-.128-.176-.192a11.186,11.186,0,0,0-1.216-.448,5.944,5.944,0,0,1-.1.688A14.982,14.982,0,0,1-44.144-9.3Zm-4.048-2.672c-.208.08-.24.112-.176.288a12.065,12.065,0,0,1,.816,2.672c.032.176.048.192.288.1l.688-.256c.208-.08.24-.128.208-.288a12.786,12.786,0,0,0-.864-2.688c-.08-.16-.1-.176-.288-.1ZM-24.976-7.68a1.6,1.6,0,0,0-1.6,1.6,1.6,1.6,0,0,0,1.6,1.6,1.6,1.6,0,0,0,1.6-1.6A1.6,1.6,0,0,0-24.976-7.68ZM-9.12-3.3v.752h-2.624c-1.568,0-2.1-.032-2.192-.032-.16,0-.176.016-.176.192v.864c0,.176.016.192.176.192.1,0,.624-.032,2.192-.032H-9.12v.368c0,.464-.144.576-.832.592a10.922,10.922,0,0,1-1.616-.064A5.158,5.158,0,0,1-10.944.752c.16.448.16.464.64.464A5.179,5.179,0,0,0-8.048.864c.432-.256.576-.688.576-1.424,0-.24,0-.512-.016-.8h3.376v.352c0,.16.016.176.176.176H-2.7c.16,0,.176-.016.176-.176,0-.1-.032-.512-.032-1.472V-3.3c.944.016,1.312.032,1.392.032.144,0,.16-.016.16-.176V-4.4c0-.16-.016-.176-.16-.176-.08,0-.448.032-1.392.032v-.368c0-.912.032-1.3.032-1.392,0-.16-.016-.176-.176-.176-.08,0-.64.032-2.208.032H-7.5v-.7h2.128c1.568,0,2.128.032,2.24.032.16,0,.176-.016.176-.192,0-.1-.032-.3-.032-.832v-.864c0-.528.032-.736.032-.832,0-.176-.016-.192-.176-.192-.112,0-.672.032-2.24.032H-7.5v-.7H-3.44c1.44,0,1.936.032,2.032.032.16,0,.176-.016.176-.176v-1.008c0-.16-.016-.176-.176-.176C-1.5-12.032-2-12-3.44-12H-7.5a2.48,2.48,0,0,1,.1-.9.621.621,0,0,0,.1-.3c0-.1-.112-.16-.256-.176-.56-.064-1.072-.08-1.664-.1A7.65,7.65,0,0,1-9.12-12h-4.032c-1.44,0-1.936-.032-2.032-.032-.16,0-.176.016-.176.176v1.008c0,.16.016.176.176.176.1,0,.592-.032,2.032-.032H-9.12v.7h-2.064c-1.568,0-2.128-.032-2.224-.032-.176,0-.192.016-.192.192,0,.1.032.3.032.832v.864c0,.528-.032.736-.032.832,0,.176.016.192.192.192.1,0,.656-.032,2.224-.032H-9.12v.7h-2.64c-1.552,0-2.08-.032-2.176-.032-.16,0-.176.016-.176.176v.88c0,.144.016.16.176.16.1,0,.624-.032,2.176-.032h2.64v.752h-4.288c-1.392,0-1.872-.032-1.968-.032-.144,0-.16.016-.16.176v.96c0,.16.016.176.16.176.1,0,.576-.032,1.968-.032Zm5.008-2v.752H-7.5V-5.3ZM-7.5-2.544V-3.3h3.392v.752Zm2.96-5.632H-7.5v-.8h2.96Zm-7.472,0v-.8h2.9v.8ZM8.032-6.128c0-1.424.032-2.16.032-2.256,0-.144-.016-.16-.176-.16-.1,0-.48.032-1.664.032H4.208c-1.184,0-1.568-.032-1.68-.032-.16,0-.176.016-.176.16,0,.112.032.752.032,2.128v5.28c0,1.376-.032,1.984-.032,2.08,0,.16.016.176.176.176h1.28c.16,0,.176-.016.176-.176,0-.08-.032-.72-.032-2.032v-1.12h2.56V-.72c0,.32-.1.416-.528.416-.416,0-.64-.016-1.072-.048A2.968,2.968,0,0,1,5.28.672c.08.5.08.48.592.48C7.04,1.136,7.44,1.024,7.68.816c.336-.288.384-.72.384-1.328,0-.48-.032-1.328-.032-2.144Zm-4.08,2.8V-4.56h2.56v1.232Zm2.56-3.76v1.232H3.952V-7.088Zm6.752-2.528c1.424,0,1.92.032,2.016.032.16,0,.176-.016.176-.192v-1.216c0-.16-.016-.176-.176-.176-.1,0-.592.032-2.016.032H11.152c.256-.336.48-.656.656-.928a1.771,1.771,0,0,1,.432-.56c.08-.064.144-.128.144-.208,0-.112-.08-.16-.224-.224a15.217,15.217,0,0,0-1.6-.432,3.541,3.541,0,0,1-.3.8,16.552,16.552,0,0,1-.976,1.552H5.68l1.008-.4c.24-.1.24-.112.176-.256a8.167,8.167,0,0,0-.928-1.536c-.1-.144-.112-.144-.336-.064l-1.088.416c-.176.08-.208.112-.112.256a10.671,10.671,0,0,1,.9,1.584H3.408c-1.408,0-1.9-.032-2-.032-.16,0-.176.016-.176.176v1.216c0,.176.016.192.176.192.1,0,.592-.032,2-.032Zm1.008,3.04a5.132,5.132,0,0,1,.1-1.536.836.836,0,0,0,.112-.336c0-.08-.1-.16-.256-.176-.544-.064-1.056-.1-1.648-.112a13.209,13.209,0,0,1,.128,2.16v5.52c0,.512-.192.624-.688.624A13.169,13.169,0,0,1,10.4-.512a3.211,3.211,0,0,1,.432,1.12c.112.512.112.5.608.5,1.44,0,1.872-.08,2.3-.352C14.16.48,14.3.08,14.3-.7c0-.8-.032-1.648-.032-2.784ZM9.552-3.984c0,1.072-.032,1.568-.032,1.68,0,.16.016.16.176.16H10.96c.16,0,.176,0,.176-.16,0-.1-.032-.608-.032-1.68V-5.872a7.392,7.392,0,0,1,.064-1.584,1.384,1.384,0,0,0,.1-.368c0-.1-.064-.16-.224-.176-.544-.064-1.024-.112-1.6-.128a16.465,16.465,0,0,1,.112,2.272Zm13.184-2.56c-1.488,0-2-.032-2.112-.032-.16,0-.176.016-.176.192,0,.1.032.4.032,1.152V-4c0,.752-.032,1.056-.032,1.152,0,.176.016.192.176.192.112,0,.624-.032,2.112-.032H26.8a3.562,3.562,0,0,1-.3.88,11.984,11.984,0,0,1-.672,1.2H22.752l.864-.384c.224-.1.24-.144.16-.3a11.567,11.567,0,0,0-.72-1.216c-.1-.144-.16-.16-.352-.08l-1.056.448c-.192.064-.208.112-.112.256a10.879,10.879,0,0,1,.672,1.28H20.16c-1.44,0-1.936-.032-2.032-.032-.16,0-.176.016-.176.16V.7c0,.16.016.176.176.176.1,0,.592-.032,2.032-.032h9.632c1.44,0,1.936.032,2.032.032C31.984.88,32,.864,32,.7V-.48c0-.144-.016-.16-.176-.16-.1,0-.592.032-2.032.032H27.616l.48-.832a.812.812,0,0,1,.3-.368.266.266,0,0,0,.16-.224c0-.064-.064-.16-.208-.208a14.759,14.759,0,0,0-1.408-.448h.24c1.488,0,2.016.032,2.112.032.16,0,.176-.016.176-.192,0-.1-.032-.4-.032-1.152V-5.232c0-.752.032-1.056.032-1.152,0-.176-.016-.192-.176-.192-.1,0-.624.032-2.112.032Zm-.624,1.3h5.7v1.264h-5.7Zm-.4-7.68c-1.2,0-1.584-.032-1.68-.032-.176,0-.192.016-.192.176v1.1c0,.144.016.16.192.16.1,0,.48-.032,1.68-.032h1.776A10.815,10.815,0,0,1,21.712-9.7a23.309,23.309,0,0,0-1.728-1.584c-.144-.112-.176-.08-.32.032l-.8.64c-.08.064-.128.112-.128.144,0,.048.048.1.128.16a15.458,15.458,0,0,1,1.6,1.52,17.4,17.4,0,0,1-3.04,1.536,2.944,2.944,0,0,1,.656.88c.144.288.208.416.336.416a1.1,1.1,0,0,0,.368-.128A17.824,17.824,0,0,0,22.368-8.3v.816c0,.16.016.176.176.176.08,0,.432-.032,1.568-.032H25.76c1.136,0,1.5.032,1.584.032.16,0,.176-.016.176-.176V-8.24a15.794,15.794,0,0,0,3.7,2.112.974.974,0,0,0,.368.112c.128,0,.176-.112.3-.416a4.458,4.458,0,0,1,.576-1.008,17.669,17.669,0,0,1-2.656-1.12c.448-.384.832-.752,1.168-1.088a1.311,1.311,0,0,1,.56-.432c.128-.048.208-.128.208-.224s-.048-.176-.192-.272c-.368-.24-.768-.48-1.248-.736a3.937,3.937,0,0,1-.448.688,14.5,14.5,0,0,1-1.312,1.28,9.8,9.8,0,0,1-.9-.72,14.186,14.186,0,0,0,1.1-1.056,1.5,1.5,0,0,1,.544-.448c.144-.048.208-.128.208-.224,0-.08-.032-.16-.176-.256a11.883,11.883,0,0,0-1.232-.736,4.071,4.071,0,0,1-.448.672,7.96,7.96,0,0,1-.96,1.024,2.129,2.129,0,0,1-.224-.3,4.959,4.959,0,0,1-.736-1.376c-.08-.176-.128-.192-.272-.192-.112,0-.56.032-1.456.032Zm2.4,4.24c-.656,0-1.056,0-1.28-.016a13.511,13.511,0,0,0,2.16-2.48A9.609,9.609,0,0,0,26.976-8.7c-.24.016-.608.016-1.216.016ZM40.9-5.68c-.176.128-.192.16-.08.272a8.76,8.76,0,0,1,1.248,1.792c.048.1.08.144.128.144s.1-.048.192-.112l.7-.544c.176-.128.192-.176.1-.32A9.8,9.8,0,0,0,41.92-6.224c-.064-.064-.112-.112-.16-.112-.032,0-.08.032-.16.1ZM38.7-2.448a2.857,2.857,0,0,1,.592.192,1.006,1.006,0,0,0,.336.128c.112,0,.16-.112.256-.352A14.2,14.2,0,0,0,40.4-3.872a.552.552,0,0,1,.208-.336.2.2,0,0,0,.1-.176c0-.064-.048-.112-.176-.16a8.336,8.336,0,0,0-1.168-.384,4.449,4.449,0,0,1-.064.592A14.874,14.874,0,0,1,38.7-2.448Zm8.032-4.24c1.52,0,2.032.032,2.112.032.176,0,.192-.016.192-.176V-7.92c0-.16-.016-.176-.192-.176-.08,0-.512.032-1.648.032l.176-3.184c.032-.432.048-.864.1-1.328.016-.16-.032-.192-.192-.192-.08,0-.512.032-1.792.032H42.96c-1.264,0-1.7-.032-1.792-.032-.16,0-.176.016-.176.176V-11.5c0,.16.016.176.176.176.1,0,.528-.032,1.792-.032h2.9l-.048.96H43.36c-1.3,0-1.728-.032-1.824-.032-.16,0-.176.016-.176.176V-9.2c0,.16.016.176.176.176.1,0,.528-.032,1.824-.032h2.368l-.048.992h-3.1c-1.52,0-2.016-.032-2.112-.032-.16,0-.176.016-.176.176v1.152h-.1c-.1,0-.464.032-1.648.032h-.1V-7.984c.928,0,1.2.032,1.3.032.176,0,.192-.016.192-.192v-.992c0-.16-.016-.176-.192-.176-.1,0-.368.032-1.328.032h-1.28c-.544,0-.848,0-1.056-.016a12.579,12.579,0,0,0,1.808-2.16,11.025,11.025,0,0,0,1.7,1.808c.16.144.256.224.336.224.1,0,.16-.128.288-.368a4.209,4.209,0,0,1,.624-.816,9.78,9.78,0,0,1-2.256-1.968l.1-.08c.128-.1.176-.176.176-.256,0-.064-.08-.16-.24-.192a12.48,12.48,0,0,0-1.488-.256,3.22,3.22,0,0,1-.352.832,9.213,9.213,0,0,1-2.592,2.752,4.692,4.692,0,0,1,.5,1.072c.08.24.144.352.256.352a.612.612,0,0,0,.336-.192c.128-.1.24-.208.368-.32v.72c0,.176.016.192.176.192.08,0,.336-.016,1.136-.032v1.248H36.5c-1.184,0-1.552-.032-1.648-.032-.176,0-.192.016-.192.176v1.056c0,.16.016.176.192.176.1,0,.464-.032,1.648-.032h.448v4.384c-.368.08-.752.144-1.12.208-.464.08-.864.128-1.408.176.112.464.256.944.4,1.376a.265.265,0,0,0,.256.208.453.453,0,0,0,.256-.112,2.071,2.071,0,0,1,.56-.208c1.328-.3,2.528-.624,3.68-.976.464-.144.464-.112.48-.64a1.376,1.376,0,0,1,.016-.256,10.485,10.485,0,0,0,.624,1.088c.08.112.144.128.208.128a.272.272,0,0,0,.192-.144A1.417,1.417,0,0,1,41.5-.5a20.829,20.829,0,0,0,2.24-1.536V-.784c0,.368-.128.5-.64.5a10.257,10.257,0,0,1-1.12-.064,3.292,3.292,0,0,1,.48,1.136c.112.5.1.5.608.48A3.11,3.11,0,0,0,44.72.944a1.439,1.439,0,0,0,.528-1.36c0-.736-.08-1.648-.08-3.52A9.536,9.536,0,0,0,48,.112c.144.128.24.192.32.192.1,0,.144-.1.24-.32a4.4,4.4,0,0,1,.656-1.12,8.566,8.566,0,0,1-2.4-2.144A13.319,13.319,0,0,0,48.16-4.656a1.644,1.644,0,0,1,.448-.416c.128-.08.208-.16.208-.224a.45.45,0,0,0-.16-.272,9.8,9.8,0,0,0-1.024-.8,3.6,3.6,0,0,1-.368.608A10.465,10.465,0,0,1,46.08-4.432a10.174,10.174,0,0,1-.864-2.256Zm-2.992,0v2.912A20.246,20.246,0,0,1,40.8-1.792l-.72.352a3.773,3.773,0,0,1,.064-.448c-.576.192-1.136.368-1.7.512V-5.392h.1c1.184,0,1.552.032,1.648.032.176,0,.192-.016.192-.176v-1.12h.08c.1,0,.592-.032,2.112-.032Zm-8.7,2.224c-.224.08-.24.112-.176.288a10.555,10.555,0,0,1,.544,2.416c.032.16.064.176.288.1l.688-.272c.192-.08.208-.128.192-.272a16.138,16.138,0,0,0-.544-2.416c-.048-.16-.08-.16-.272-.1ZM59.024-5.92H60.16a9.524,9.524,0,0,0,4.256,6.976c.176.112.272.176.352.176.1,0,.16-.128.288-.384A4.724,4.724,0,0,1,65.776-.3a7.083,7.083,0,0,1-2.768-2.288A17.544,17.544,0,0,0,64.48-3.808a1.834,1.834,0,0,1,.688-.48c.144-.048.192-.128.192-.224s-.032-.144-.128-.256a12.765,12.765,0,0,0-1.1-.928,4.143,4.143,0,0,1-.512.672A17.289,17.289,0,0,1,62.288-3.84a10.179,10.179,0,0,1-.624-2.08h.784c1.2,0,1.76.032,1.84.032.16,0,.176-.016.176-.176,0-.1-.032-.624-.032-1.776V-10.8c0-1.12.032-1.664.032-1.76,0-.16-.016-.176-.176-.176-.08,0-.64.032-1.84.032H59.616c-1.312,0-1.952-.032-2.064-.032-.16,0-.176.016-.176.176,0,.112.032,1.024.032,2.816v8.9l-.528.1a10.7,10.7,0,0,1-1.344.176,11.676,11.676,0,0,0,.352,1.52c.032.128.1.16.192.16a.412.412,0,0,0,.256-.112A1.543,1.543,0,0,1,56.848.8C58.368.448,59.68.1,60.912-.288c.464-.128.48-.128.48-.656a6.279,6.279,0,0,1,.064-1.008c-.736.272-1.568.528-2.432.752Zm3.792-1.36H59.024V-8.7h3.792Zm0-4.016v1.312H59.024V-11.3Zm-9.6-1.472c-.832,0-1.248-.032-1.36-.032-.16,0-.176.016-.176.192,0,.1.032,1.2.032,3.408v6.9c0,2.208-.032,3.28-.032,3.392,0,.16.016.176.176.176h1.3c.16,0,.176-.016.176-.176,0-.1-.032-1.232-.032-3.392V-11.3h1.792A19.644,19.644,0,0,1,53.632-7.68C54.9-5.936,55.12-5.264,55.12-4.528c0,.976-.576,1.2-1.568,1.152A2.107,2.107,0,0,1,53.9-2.3c.048.5.064.5.576.464a2.157,2.157,0,0,0,2.192-2.48A4.992,4.992,0,0,0,55.3-7.808,30.571,30.571,0,0,0,56.64-10.96a1.273,1.273,0,0,1,.3-.512.41.41,0,0,0,.16-.288c0-.128-.064-.272-.416-.624-.352-.4-.48-.48-.624-.48a.365.365,0,0,0-.176.048.737.737,0,0,1-.32.048ZM74.144-7.2v5.936a3.991,3.991,0,0,1-2.4-2.288c.112-.4.208-.816.288-1.264a1.34,1.34,0,0,1,.208-.5.5.5,0,0,0,.144-.3c0-.112-.08-.176-.3-.224-.464-.112-.992-.224-1.52-.3a7.624,7.624,0,0,1-.1,1.024,7.575,7.575,0,0,1-2.88,5.056,3.479,3.479,0,0,1,.928.832c.16.208.24.3.32.3.1,0,.192-.1.352-.272a9.115,9.115,0,0,0,1.952-2.736C72.4-.032,73.52.832,79.248.848c.64,0,1.28-.016,1.888-.048.5-.048.512-.048.576-.544a4.388,4.388,0,0,1,.3-1.152c-1.056.08-2.192.144-3.1.144A26.989,26.989,0,0,1,75.824-.9V-3.632h1.952c1.312,0,1.744.032,1.84.032.176,0,.192-.016.192-.16V-4.928c0-.16-.016-.176-.192-.176-.1,0-.528.032-1.84.032H75.824V-7.2h1.36c1.536,0,2.064.032,2.16.032.16,0,.176-.016.176-.176V-8.512c0-.16-.016-.176-.176-.176-.1,0-.624.032-2.16.032H72.672c-1.552,0-2.064-.032-2.16-.032-.176,0-.192.016-.192.176v1.168c0,.16.016.176.192.176.1,0,.608-.032,2.16-.032ZM75.6-11.744v-.16a2.864,2.864,0,0,1,.064-.96.748.748,0,0,0,.1-.3c0-.1-.1-.144-.24-.16-.544-.048-1.12-.08-1.712-.08a6.441,6.441,0,0,1,.112,1.52v.144H70.5c-1.5,0-2.016-.032-2.128-.032-.16,0-.176.016-.176.16,0,.112.032.384.032.976v.544c0,1.424-.032,1.648-.032,1.76,0,.16.016.176.176.176h1.3c.176,0,.192-.016.192-.176v-1.936H79.984v1.936c0,.16.016.176.176.176h1.312c.16,0,.176-.016.176-.176,0-.1-.032-.336-.032-1.76v-.688c0-.448.032-.72.032-.832,0-.144-.016-.16-.176-.16-.1,0-.624.032-2.112.032ZM92.608-9.808A3.634,3.634,0,0,1,96.192-6.1c0,3.024-2.128,4.144-4.832,4.784A3.393,3.393,0,0,1,92.48-.3c.208.32.352.384.688.288C96.416-.992,98.1-2.864,98.1-5.84c0-3.184-2.256-5.552-6.1-5.552a7,7,0,0,0-5.2,2.048,5.9,5.9,0,0,0-1.808,4.16c0,2.608,1.424,4.112,2.832,4.112a3.039,3.039,0,0,0,2.72-1.84,20.035,20.035,0,0,0,2-6.9Zm-1.92.1a18.281,18.281,0,0,1-1.7,5.728c-.432.768-.784.976-1.2.976-.5,0-1.088-.816-1.088-2.288a4.607,4.607,0,0,1,1.248-2.96A4.819,4.819,0,0,1,90.688-9.712Z" transform="translate(153.768 33.6)"/><path class="c" d="M-116.3-2.544a9.686,9.686,0,0,1,.72-.7c2.184,2.3,2.784,2.952,3.816,4.056l2.544-1.008c.024-2.928.024-3.36.048-7.176a10.759,10.759,0,0,1,3.648-.84,3.15,3.15,0,0,1,3.336,3.192c0,1.68-.984,2.544-1.848,2.544-.744,0-.936-.624-1.224-1.608l-2.232.888c.336,1.752.672,3.408,3.312,3.408,2.568,0,4.488-2.328,4.488-5.28,0-3-2.064-5.472-5.784-5.472a13.29,13.29,0,0,0-3.7.552l.024-2.376a20.925,20.925,0,0,0,3.744-1.032v-2.736a15.232,15.232,0,0,1-3.7,1.248c.024-.456.1-2.808.192-2.952.048-.072.408-.36.408-.456,0-.12,0-.288-.672-.384l-2.664-.36c.024,1.56.024,1.776.048,4.488-.7.048-1.056.072-1.656.072a19.338,19.338,0,0,1-2.352-.12l.36,2.712a23.554,23.554,0,0,0,3.648-.12l.024,3.1a68.749,68.749,0,0,0-6,3.672Zm4.536.192a20.178,20.178,0,0,1-2.184-2.256,24.618,24.618,0,0,1,2.184-1.464Zm13.9-10.152a17.654,17.654,0,0,0-4.728-2.712l-1.56,2.112a13.959,13.959,0,0,1,4.728,2.736Zm22.752,1.2v-7.512H-86.472V-11.3Zm-2.544-4.608h-6.192v-1.152h6.192Zm0,2.88h-6.192v-1.152h6.192Zm-10.008-4.8c0-.144-.216-.288-.264-.312l-2.256-1.56a17.7,17.7,0,0,1-4.488,4.056l1.92,1.728a24.52,24.52,0,0,0,4.32-3.624c.1-.072.192-.072.384-.072C-87.816-17.616-87.672-17.664-87.672-17.832Zm13.944,13.1V-6.912H-76.8v-1.3h2.688V-10.3H-87.768v2.088h8.208v1.3h-8.76v2.184h3.312l-1.416,1.3a21.607,21.607,0,0,1,2.3,2.9l1.8-1.632a22.539,22.539,0,0,0-1.944-2.568h4.7v2.9c0,.384-.216.648-.5.648s-1.488-.072-1.728-.1l.96,2.472c3.024-.048,4.032-.072,4.032-1.968v-3.96Zm-13.584-8.16c0-.12-.192-.264-.288-.312l-2.28-1.272a20.308,20.308,0,0,1-5.232,5.5L-93.288-7.2a7.811,7.811,0,0,0,1.1-.912v9.36h2.712V-9.672c0-.072.048-.12.192-.216.24-.144.312-.24.312-.384a.41.41,0,0,0-.168-.312l-.336-.288c.384-.384.48-.5,1.368-1.488.24-.264.24-.288.432-.288C-87.576-12.648-87.312-12.648-87.312-12.888ZM-51.768-2.832A22.043,22.043,0,0,0-55.9-5.016a23.781,23.781,0,0,1-.312-3.336,2.2,2.2,0,0,1,.912-1.92l-2.5-1.344a3.626,3.626,0,0,0-1.032,2.448c0,.5.288,2.952.336,3.5a12.112,12.112,0,0,0-1.872-.144c-3.312,0-4.248,2.112-4.248,3.408A2.717,2.717,0,0,0-63.72-.36,5.7,5.7,0,0,0-59.808.768c3.144,0,3.864-1.008,4.08-2.928A13.211,13.211,0,0,1-53.352-.576Zm-6.6-.432c0,.864.024,1.872-1.92,1.872-1.32,0-1.992-.552-1.992-1.08,0-.48.576-1.152,1.824-1.152A8.06,8.06,0,0,1-58.368-3.264Zm7.272-9.6a11.861,11.861,0,0,0-5.352-2.208l-1.08,2.064a16.987,16.987,0,0,1,5.256,2.184Zm-7.152-1.248V-16.8c-.624.216-1.344.456-2.76.816.1-.312.552-1.848.576-1.872.144-.144.552-.288.552-.528,0-.264-.456-.384-.576-.408l-2.616-.576a22.9,22.9,0,0,1-.864,3.96,31.949,31.949,0,0,1-4.08.312l.36,2.5c1.128-.072,1.8-.144,2.9-.288a41.167,41.167,0,0,1-4.1,8.736l2.568,1.1a58.532,58.532,0,0,0,4.44-10.3C-59.808-13.7-59.064-13.9-58.248-14.112Zm32.568-4.464H-38.136V-16.2h3.1c-.432,3.648-1.56,4.944-3.48,6.216v-1.344c-1.656.528-1.848.6-2.16.7v-2.832h2.256v-2.448H-40.68v-2.5c0-.12.072-.192.336-.36.216-.12.336-.216.336-.384,0-.312-.672-.312-1.08-.336l-2.424-.072v3.648h-2.88v2.448h2.88v3.648c-1.8.5-2.688.7-3.192.792l.144,2.4c.024.552.1.984.36.984.12,0,.192-.072.36-.336a.822.822,0,0,1,.36-.336c.312-.144,1.7-.624,1.968-.72v5.04c0,.672-.816.672-1.008.672a13.976,13.976,0,0,1-1.44-.12l1.344,2.832c2.208,0,3.936-.384,3.936-2.016v-7.44c.768-.288,1.224-.432,2.16-.816V-9.5l2.3,1.7c3.048-2.9,3.672-4.944,4.056-8.4h3.528a17.755,17.755,0,0,1-.6,4.056c-.288.84-.672.984-1.224.984a17.714,17.714,0,0,1-2.136-.168L-31.1-8.5c1.152-.024,3.1-.024,3.864-1.152C-26.256-11.112-25.848-16.32-25.68-18.576Zm-.7,19.776V-7.776H-38.184V1.248h2.856V.5h6.1v.7Zm-2.856-3.072h-6.1V-5.424h6.1ZM-15.7-17.688c0-.192-.288-.384-.36-.432l-2.16-1.488a18.06,18.06,0,0,1-4.776,4.488l2.184,1.968a22.842,22.842,0,0,0,3.984-3.864c.312-.336.336-.36.7-.384C-15.96-17.424-15.7-17.424-15.7-17.688ZM-1.584-10.2v-2.256h-6.1v-2.208h5.328V-16.92H-7.68v-1.368a.514.514,0,0,1,.216-.36c.048-.024.288-.216.288-.36,0-.312-.48-.336-.552-.336l-2.808-.12v2.544H-15.1v2.256h4.56v2.208h-5.3c.144-.048.408-.144.408-.432,0-.216-.312-.384-.36-.408l-2.4-1.248A20.628,20.628,0,0,1-23.5-8.16l2.088,1.752c.72-.6,1.128-.984,1.416-1.272V1.776h2.664V-9.12a.761.761,0,0,1,.12-.336c.192-.264.24-.336.24-.432,0-.288-.384-.408-.552-.432A18.721,18.721,0,0,0-16.3-11.9v1.7h8.832v2.256h-8.472v2.28h3.5l-2.112,1.536A17.459,17.459,0,0,1-12.336-.936l2.376-1.44a24.681,24.681,0,0,0-2.256-3.288h4.752V-1.7c0,.624-.384.744-.816.744-.456,0-1.368-.1-2.328-.192l1.536,2.976C-6.576,1.776-4.8,1.464-4.8-.72V-5.664h2.952v-2.28H-4.8V-10.2Zm21.96.864-.816-2.736c-1.128.5-1.44.648-4.248,1.968a3.217,3.217,0,0,0-3.264-2.424,4.641,4.641,0,0,0-2.064.5c.408-.624.6-.96,1.368-2.376a50.519,50.519,0,0,0,5.736-.912L17.256-18a20.265,20.265,0,0,1-4.7,1.224c.12-.264.72-1.608.744-1.632.024,0,.5-.216.552-.24.144-.048.24-.12.24-.264,0-.168-.408-.216-.48-.24l-3-.528a18.611,18.611,0,0,1-1.2,3.192,33.757,33.757,0,0,1-4.584-.1l.288,2.5c1.008,0,1.752-.024,3.12-.1A31.91,31.91,0,0,1,3.5-7.584L5.856-6.12c1.32-2.16,2.76-4.344,5.112-4.344A1.663,1.663,0,0,1,12.792-8.88C9.192-7.032,6.984-5.9,6.984-2.928A3.281,3.281,0,0,0,7.9-.576c1.512,1.608,4.3,1.608,5.64,1.608a39.719,39.719,0,0,0,5.712-.36V-2.04a27.749,27.749,0,0,1-6.12.768c-1.752,0-3.6-.312-3.6-1.872,0-1.68,2.5-2.928,3.408-3.384-.024,1.056-.048,2.232-.12,3.6H15.6c0-.816-.048-3.792-.048-4.728C17.328-8.328,18.48-8.736,20.376-9.336Zm25.536,1.56v-4.9h-4.92c.744-.864,1.44-1.776,1.776-2.256.1-.1.12-.1.36-.144.048,0,.288-.024.288-.192,0-.192-.408-.36-.48-.384l-2.424-.84a14.179,14.179,0,0,1-1.9,3.816h-2.28l.864-.744a12.136,12.136,0,0,0-1.8-2.616,70.864,70.864,0,0,0,7.152-.816,7.029,7.029,0,0,1,.984-.168c.1,0,.5.1.6.1s.168-.048.168-.144c0-.216-.288-.528-.384-.624l-1.8-1.824a47.287,47.287,0,0,1-11.4,1.464c-1.488,0-2.4-.072-3.144-.12l1.08,2.328c.48.024.96.024,1.392.024l-1.872,1.248a7.4,7.4,0,0,1,1.536,1.9H26.16v4.944h2.448v-2.736H43.464v2.688ZM45.528-1.1A20.821,20.821,0,0,1,38.5-2.832a16.366,16.366,0,0,0,4.248-4.9L41.544-9H29.712v2.256H32.4L31.1-5.568a14.317,14.317,0,0,0,2.76,2.76,19.243,19.243,0,0,1-7.728,1.776l1.3,2.328A19.231,19.231,0,0,0,31.944.432,21.52,21.52,0,0,0,36.168-1.32a20.525,20.525,0,0,0,8.28,2.5ZM34.776-12.672H31.488l.7-.6a13.989,13.989,0,0,0-1.9-2.544c1.344,0,2.424-.024,4.464-.168L33.24-14.928A6.45,6.45,0,0,1,34.776-12.672Zm4.032,5.928A11.184,11.184,0,0,1,36.12-4.128a11.662,11.662,0,0,1-2.808-2.616Zm30.5-5.832-.1-2.76a21.93,21.93,0,0,1-3.264,1.152c-.1-1.2-.216-2.616-.216-2.712-.024-.12-.072-.624-.072-.744s.048-.216.216-.432c.072-.1.216-.264.216-.36,0-.288-.408-.288-.624-.288l-2.808-.1a42.322,42.322,0,0,1,.7,5.184,30,30,0,0,1-3.864.264c-.432,0-.768,0-1.536-.048l.552,2.76a33.38,33.38,0,0,0,4.968-.36v1.272a11.962,11.962,0,0,1-.888,5.256A13.291,13.291,0,0,1,60.24-.48L62.952.912A17.754,17.754,0,0,0,66.168-10.1c0-.408,0-.72-.024-1.44A27.444,27.444,0,0,0,69.312-12.576ZM57.168-6.288l-1.8-1.248c-.48,1.08-.624,1.416-.96,2.3a17.7,17.7,0,0,1-.48-4.536c0-3.288.648-7.32,1.152-7.728.312-.24.384-.288.384-.384,0-.24-.624-.408-.7-.432l-2.424-.7a43.513,43.513,0,0,0-.96,8.52c0,5.88,1.272,8.736,1.92,10.224l2.3-.36A22.143,22.143,0,0,1,57.168-6.288ZM94.68-1.248a21.832,21.832,0,0,1-3.984-3.6c1.056-1.824,2.688-4.7,3.1-10.992L92.4-17.112H84.936v-1.8H73.872v2.3H75.36V-3.96c-.72.1-.792.12-1.464.216L74.28-1.56c.048.312.12.408.24.408.072,0,.168-.1.312-.24a2.587,2.587,0,0,1,.792-.24c.744-.168,3.672-.96,5.04-1.344V1.008h2.424V-1.176L85.1.744a16.746,16.746,0,0,0,4.128-3.528,20.561,20.561,0,0,0,3.6,3.456ZM91.032-14.736a19.124,19.124,0,0,1-1.92,7.584A20.119,20.119,0,0,1,86.9-14.136l-2.4.816A24.96,24.96,0,0,0,87.744-4.9a10.146,10.146,0,0,1-4.656,3.432V-16.608h1.656v1.872ZM80.664-9.5H77.928V-12h2.736Zm0-4.656H77.928v-2.448h2.736Zm0,9.312c-.6.1-.936.168-2.736.48V-7.392h2.736Zm35.112-1.488a5.29,5.29,0,0,0-5.328-5.3,19.109,19.109,0,0,0-2.328.144,59.339,59.339,0,0,1,5.328-5.136L112.2-18.576a27.2,27.2,0,0,1-7.272,1.2c-.744,0-2.112-.1-2.688-.144l.552,2.688a22.406,22.406,0,0,0,5.616-.6,47.381,47.381,0,0,1-8.88,8.664l2.016,2.112a27.093,27.093,0,0,1,4.944-4.3,6.509,6.509,0,0,1,2.736-.6c1.56,0,3.888.768,3.888,3.144a4.228,4.228,0,0,1-1.584,3.192c-.672-.84-2.232-2.808-4.728-2.808a3.362,3.362,0,0,0-3.528,3.192c0,1.776,1.536,3.288,4.536,3.288C112.032.456,115.776-2.352,115.776-6.336Zm-6.48,4.3a6.823,6.823,0,0,1-1.632.216c-.864,0-1.968-.24-1.968-1.08a1.057,1.057,0,0,1,1.2-1.008C108.264-3.912,108.984-2.592,109.3-2.04Z" transform="translate(153.768 66.6)"/></svg>