<svg xmlns="http://www.w3.org/2000/svg" width="548.338" height="59.52" viewBox="0 0 548.338 59.52"><defs><style>.a{fill:#fff;}</style></defs><g transform="translate(-1931 4320.92)"><g transform="translate(70 -55)"><path class="a" d="M-117.18-8.18c-1.86,0-2.5-.04-2.64-.04-.2,0-.22.02-.22.24,0,.12.04.5.04,1.44V-5c0,.94-.04,1.32-.04,1.44,0,.22.02.24.22.24.14,0,.78-.04,2.64-.04h5.08a4.452,4.452,0,0,1-.38,1.1,14.982,14.982,0,0,1-.84,1.5h-3.84l1.08-.48c.28-.12.3-.18.2-.38a14.459,14.459,0,0,0-.9-1.52c-.12-.18-.2-.2-.44-.1l-1.32.56c-.24.08-.26.14-.14.32a13.6,13.6,0,0,1,.84,1.6h-2.56c-1.8,0-2.42-.04-2.54-.04-.2,0-.22.02-.22.2V.88c0,.2.02.22.22.22.12,0,.74-.04,2.54-.04h12.04c1.8,0,2.42.04,2.54.04.2,0,.22-.02.22-.22V-.6c0-.18-.02-.2-.22-.2-.12,0-.74.04-2.54.04h-2.72l.6-1.04a1.015,1.015,0,0,1,.38-.46.332.332,0,0,0,.2-.28c0-.08-.08-.2-.26-.26a18.449,18.449,0,0,0-1.76-.56h.3c1.86,0,2.52.04,2.64.04.2,0,.22-.02.22-.24,0-.12-.04-.5-.04-1.44V-6.54c0-.94.04-1.32.04-1.44,0-.22-.02-.24-.22-.24-.12,0-.78.04-2.64.04Zm-.78,1.62h7.12v1.58h-7.12Zm-.5-9.6c-1.5,0-1.98-.04-2.1-.04-.22,0-.24.02-.24.22v1.38c0,.18.02.2.24.2.12,0,.6-.04,2.1-.04h2.22a13.519,13.519,0,0,1-2.22,2.32,29.138,29.138,0,0,0-2.16-1.98c-.18-.14-.22-.1-.4.04l-1,.8c-.1.08-.16.14-.16.18,0,.06.06.12.16.2a19.322,19.322,0,0,1,2,1.9,21.753,21.753,0,0,1-3.8,1.92,3.68,3.68,0,0,1,.82,1.1c.18.36.26.52.42.52a1.375,1.375,0,0,0,.46-.16,22.281,22.281,0,0,0,4.48-2.78v1.02c0,.2.02.22.22.22.1,0,.54-.04,1.96-.04h2.06c1.42,0,1.88.04,1.98.04.2,0,.22-.02.22-.22v-.94a19.742,19.742,0,0,0,4.62,2.64,1.218,1.218,0,0,0,.46.14c.16,0,.22-.14.38-.52a5.572,5.572,0,0,1,.72-1.26,22.086,22.086,0,0,1-3.32-1.4c.56-.48,1.04-.94,1.46-1.36a1.639,1.639,0,0,1,.7-.54c.16-.06.26-.16.26-.28s-.06-.22-.24-.34c-.46-.3-.96-.6-1.56-.92a4.922,4.922,0,0,1-.56.86,18.128,18.128,0,0,1-1.64,1.6,12.247,12.247,0,0,1-1.12-.9,17.732,17.732,0,0,0,1.38-1.32,1.877,1.877,0,0,1,.68-.56c.18-.06.26-.16.26-.28,0-.1-.04-.2-.22-.32a14.854,14.854,0,0,0-1.54-.92,5.088,5.088,0,0,1-.56.84,9.949,9.949,0,0,1-1.2,1.28,2.661,2.661,0,0,1-.28-.38,6.2,6.2,0,0,1-.92-1.72c-.1-.22-.16-.24-.34-.24-.14,0-.7.04-1.82.04Zm3,5.3c-.82,0-1.32,0-1.6-.02a16.889,16.889,0,0,0,2.7-3.1,12.011,12.011,0,0,0,2.48,3.1c-.3.02-.76.02-1.52.02ZM-94.48-7.1c-.22.16-.24.2-.1.34a10.95,10.95,0,0,1,1.56,2.24c.06.12.1.18.16.18s.12-.06.24-.14l.88-.68c.22-.16.24-.22.12-.4A12.255,12.255,0,0,0-93.2-7.78c-.08-.08-.14-.14-.2-.14-.04,0-.1.04-.2.12Zm-2.74,4.04a3.571,3.571,0,0,1,.74.24,1.257,1.257,0,0,0,.42.16c.14,0,.2-.14.32-.44a17.746,17.746,0,0,0,.64-1.74.69.69,0,0,1,.26-.42.251.251,0,0,0,.12-.22c0-.08-.06-.14-.22-.2a10.42,10.42,0,0,0-1.46-.48,5.56,5.56,0,0,1-.08.74A18.593,18.593,0,0,1-97.22-3.06Zm10.04-5.3c1.9,0,2.54.04,2.64.04.22,0,.24-.02.24-.22V-9.9c0-.2-.02-.22-.24-.22-.1,0-.64.04-2.06.04l.22-3.98c.04-.54.06-1.08.12-1.66.02-.2-.04-.24-.24-.24-.1,0-.64.04-2.24.04H-91.9c-1.58,0-2.12-.04-2.24-.04-.2,0-.22.02-.22.22v1.36c0,.2.02.22.22.22.12,0,.66-.04,2.24-.04h3.62l-.06,1.2H-91.4c-1.62,0-2.16-.04-2.28-.04-.2,0-.22.02-.22.22v1.32c0,.2.02.22.22.22.12,0,.66-.04,2.28-.04h2.96l-.06,1.24h-3.88c-1.9,0-2.52-.04-2.64-.04-.2,0-.22.02-.22.22v1.44h-.12c-.12,0-.58.04-2.06.04h-.12V-9.98c1.16,0,1.5.04,1.62.04.22,0,.24-.02.24-.24v-1.24c0-.2-.02-.22-.24-.22-.12,0-.46.04-1.66.04h-1.6c-.68,0-1.06,0-1.32-.02a15.723,15.723,0,0,0,2.26-2.7,13.782,13.782,0,0,0,2.12,2.26c.2.18.32.28.42.28.12,0,.2-.16.36-.46a5.261,5.261,0,0,1,.78-1.02,12.225,12.225,0,0,1-2.82-2.46l.12-.1c.16-.12.22-.22.22-.32,0-.08-.1-.2-.3-.24a15.6,15.6,0,0,0-1.86-.32,4.026,4.026,0,0,1-.44,1.04,11.516,11.516,0,0,1-3.24,3.44,5.866,5.866,0,0,1,.62,1.34c.1.3.18.44.32.44a.765.765,0,0,0,.42-.24c.16-.12.3-.26.46-.4v.9c0,.22.02.24.22.24.1,0,.42-.02,1.42-.04v1.56h-.56c-1.48,0-1.94-.04-2.06-.04-.22,0-.24.02-.24.22v1.32c0,.2.02.22.24.22.12,0,.58-.04,2.06-.04h.56v5.48c-.46.1-.94.18-1.4.26-.58.1-1.08.16-1.76.22.14.58.32,1.18.5,1.72a.332.332,0,0,0,.32.26.566.566,0,0,0,.32-.14,2.588,2.588,0,0,1,.7-.26c1.66-.38,3.16-.78,4.6-1.22.58-.18.58-.14.6-.8a1.72,1.72,0,0,1,.02-.32,13.106,13.106,0,0,0,.78,1.36c.1.14.18.16.26.16a.34.34,0,0,0,.24-.18,1.771,1.771,0,0,1,.52-.42,26.036,26.036,0,0,0,2.8-1.92V-.98c0,.46-.16.62-.8.62a12.821,12.821,0,0,1-1.4-.08,4.115,4.115,0,0,1,.6,1.42c.14.62.12.62.76.6a3.887,3.887,0,0,0,2.06-.4,1.8,1.8,0,0,0,.66-1.7c0-.92-.1-2.06-.1-4.4A11.92,11.92,0,0,0-85.6.14c.18.16.3.24.4.24.12,0,.18-.12.3-.4a5.5,5.5,0,0,1,.82-1.4,10.707,10.707,0,0,1-3-2.68A16.648,16.648,0,0,0-85.4-5.82a2.055,2.055,0,0,1,.56-.52c.16-.1.26-.2.26-.28a.562.562,0,0,0-.2-.34,12.244,12.244,0,0,0-1.28-1,4.5,4.5,0,0,1-.46.76A13.081,13.081,0,0,1-88-5.54a12.718,12.718,0,0,1-1.08-2.82Zm-3.74,0v3.64A25.307,25.307,0,0,1-94.6-2.24l-.9.44a4.717,4.717,0,0,1,.08-.56c-.72.24-1.42.46-2.12.64V-6.74h.12c1.48,0,1.94.04,2.06.04.22,0,.24-.02.24-.22v-1.4h.1c.12,0,.74-.04,2.64-.04ZM-101.8-5.58c-.28.1-.3.14-.22.36a13.2,13.2,0,0,1,.68,3.02c.04.2.08.22.36.12l.86-.34c.24-.1.26-.16.24-.34a20.172,20.172,0,0,0-.68-3.02c-.06-.2-.1-.2-.34-.12Zm34.48,1.84c1.88,0,2.52.04,2.64.04.2,0,.22-.02.22-.22v-1.4c0-.2-.02-.22-.22-.22-.1,0-.64.04-2,.04V-8.2h.32c1.74,0,2.34.04,2.46.04.18,0,.2-.02.2-.22V-9.84c0-.2-.02-.22-.2-.22-.12,0-.72.04-2.46.04h-.32V-12.6c1.24.02,1.72.04,1.82.04.22,0,.24-.02.24-.2V-14.2c0-.2-.02-.22-.24-.22-.12,0-.8.04-2.74.04h-9.08c.24-.34.46-.68.66-1a1.872,1.872,0,0,1,.46-.58.348.348,0,0,0,.18-.28c0-.1-.12-.2-.28-.26a11.445,11.445,0,0,0-1.72-.5,6.418,6.418,0,0,1-.5,1.2,11.428,11.428,0,0,1-3.48,3.72,4.124,4.124,0,0,1,.9.88c.22.28.32.4.44.4.1,0,.22-.08.46-.26.34-.3.68-.62,1-.96v2h-.58c-1.74,0-2.34-.04-2.46-.04-.18,0-.2.02-.2.22v1.46c0,.2.02.22.2.22.12,0,.72-.04,2.46-.04h.58v2.7c-1.44,0-2-.04-2.1-.04-.2,0-.22.02-.22.22v1.4c0,.2.02.22.22.22.12,0,.78-.04,2.64-.04Zm-2.8-1.76V-8.2h1.6v2.7Zm-3.32,0V-8.2h1.58v2.7Zm-3.28,0V-8.2h1.54v2.7Zm6.6-4.52V-12.6h1.6v2.58Zm-3.32,0V-12.6h1.58v2.58Zm-3.28,0V-12.6h1.54v2.58ZM-80.2,1.2c.12.08.18.12.24.12a.242.242,0,0,0,.18-.12,13.124,13.124,0,0,0,2.36-3.5c.08-.2.08-.24-.18-.36l-1.16-.48c-.28-.12-.32-.12-.4.08A9.971,9.971,0,0,1-81.42.02c-.08.08-.12.12-.12.18s.06.14.2.22Zm12.34-3.84c-.26.12-.28.16-.16.32A18.333,18.333,0,0,1-66,1.02c.1.18.16.2.4.08l1.26-.7c.26-.14.28-.18.18-.36a16.351,16.351,0,0,0-2.16-3.16c-.14-.16-.2-.18-.44-.06Zm-3.94.06c-.28.06-.32.1-.24.3A17.651,17.651,0,0,1-71.2.94c.04.22.08.22.38.16L-69.4.82c.26-.06.28-.1.24-.32a17.282,17.282,0,0,0-1.02-3.18c-.08-.18-.12-.2-.38-.16Zm-3.94-.04c-.3.02-.34.06-.3.3A17.4,17.4,0,0,1-75.7.98c0,.2.02.24.34.2l1.44-.12c.24-.02.28-.08.26-.28a19.254,19.254,0,0,0-.46-3.32c-.04-.22-.1-.22-.34-.2Zm18.26-7.6h-.82c-1.56,0-2.06-.04-2.18-.04-.2,0-.22.02-.22.22v1.42c0,.18.02.2.22.2.12,0,.62-.04,2.18-.04h.36A16.809,16.809,0,0,1-61.16-2.9a4.953,4.953,0,0,1,.72,1.46c.08.24.16.34.24.34.1,0,.2-.12.36-.32a18.825,18.825,0,0,0,2.42-4.56c-.04,3.74-.14,7.04-.14,7.34,0,.2.02.22.22.22h1.64c.22,0,.24-.02.24-.22,0-.3-.14-3.88-.14-7.84a16.751,16.751,0,0,0,1.62,2.86c.14.2.24.3.32.3s.16-.12.28-.36A6.1,6.1,0,0,1-52.58-5a17.828,17.828,0,0,1-2.7-3.46c1.44,0,1.92.04,2.04.04.2,0,.22-.02.22-.2v-1.42c0-.2-.02-.22-.22-.22-.12,0-.62.04-2.16.04h-.16v-3.76A5.814,5.814,0,0,1-55.42-16a.938.938,0,0,0,.12-.42c0-.08-.12-.18-.32-.2-.68-.08-1.28-.12-2.02-.14a18.659,18.659,0,0,1,.16,2.82Zm7.42,5.24c-1.74.34-2.4.4-2.6.44s-.22.04-.18.26l.26,1.58c.02.18.06.2.26.16s.84-.18,2.58-.52L-47-3.6v1.48c0,2.22-.04,3.32-.04,3.44,0,.2.02.22.22.22h1.66c.2,0,.22-.02.22-.22,0-.1-.04-1.24-.04-3.46V-4c1.38-.28,1.92-.36,2.06-.4.22-.04.22-.06.2-.24l-.24-1.56c-.04-.22-.04-.24-.22-.2s-.64.18-1.8.42v-7.66a8.215,8.215,0,0,1,.12-2.22,1.129,1.129,0,0,0,.12-.4c0-.12-.12-.2-.3-.22-.7-.08-1.36-.12-2.12-.14A18.917,18.917,0,0,1-47-13.58v8ZM-52.32-9.8c-.1.1-.16.16-.16.22,0,.04.06.08.14.16A17.1,17.1,0,0,1-49.7-6.7c.14.16.18.16.4-.04l.98-.98c.2-.2.2-.24.06-.42a14.326,14.326,0,0,0-2.76-2.56c-.1-.08-.14-.12-.2-.12-.04,0-.08.04-.18.14Zm.58-4.6c-.2.18-.18.28-.04.38a14.45,14.45,0,0,1,2.72,2.62c.12.18.16.16.38-.06l.96-.94c.18-.16.18-.24.06-.38a14.106,14.106,0,0,0-2.82-2.54c-.18-.12-.2-.08-.38.08Zm-3.44,2.78a5.5,5.5,0,0,1,.8.34,1,1,0,0,0,.4.18c.12,0,.18-.12.3-.42a24.91,24.91,0,0,0,.92-2.54.709.709,0,0,1,.24-.44.2.2,0,0,0,.12-.2c0-.1-.06-.16-.22-.24a13.982,13.982,0,0,0-1.52-.56,7.429,7.429,0,0,1-.12.86A18.727,18.727,0,0,1-55.18-11.62Zm-5.06-3.34c-.26.1-.3.14-.22.36a15.081,15.081,0,0,1,1.02,3.34c.04.22.06.24.36.12l.86-.32c.26-.1.3-.16.26-.36a15.983,15.983,0,0,0-1.08-3.36c-.1-.2-.12-.22-.36-.12ZM-31.22-9.6a2.006,2.006,0,0,0-2,2,2.006,2.006,0,0,0,2,2,2.006,2.006,0,0,0,2-2A2.006,2.006,0,0,0-31.22-9.6ZM-11.4-4.12v.94h-3.28c-1.96,0-2.62-.04-2.74-.04-.2,0-.22.02-.22.24V-1.9c0,.22.02.24.22.24.12,0,.78-.04,2.74-.04h3.28v.46c0,.58-.18.72-1.04.74a13.652,13.652,0,0,1-2.02-.08A6.447,6.447,0,0,1-13.68.94c.2.56.2.58.8.58a6.473,6.473,0,0,0,2.82-.44c.54-.32.72-.86.72-1.78,0-.3,0-.64-.02-1h4.22v.44c0,.2.02.22.22.22h1.54c.2,0,.22-.02.22-.22,0-.12-.04-.64-.04-1.84V-4.12c1.18.02,1.64.04,1.74.04.18,0,.2-.02.2-.22V-5.5c0-.2-.02-.22-.2-.22-.1,0-.56.04-1.74.04v-.46c0-1.14.04-1.62.04-1.74,0-.2-.02-.22-.22-.22-.1,0-.8.04-2.76.04H-9.38v-.88h2.66c1.96,0,2.66.04,2.8.04.2,0,.22-.02.22-.24,0-.12-.04-.38-.04-1.04v-1.08c0-.66.04-.92.04-1.04,0-.22-.02-.24-.22-.24-.14,0-.84.04-2.8.04H-9.38v-.88H-4.3c1.8,0,2.42.04,2.54.04.2,0,.22-.02.22-.22v-1.26c0-.2-.02-.22-.22-.22-.12,0-.74.04-2.54.04H-9.38a3.1,3.1,0,0,1,.12-1.12.776.776,0,0,0,.12-.38c0-.12-.14-.2-.32-.22-.7-.08-1.34-.1-2.08-.12A9.563,9.563,0,0,1-11.4-15h-5.04c-1.8,0-2.42-.04-2.54-.04-.2,0-.22.02-.22.22v1.26c0,.2.02.22.22.22.12,0,.74-.04,2.54-.04h5.04v.88h-2.58c-1.96,0-2.66-.04-2.78-.04-.22,0-.24.02-.24.24,0,.12.04.38.04,1.04v1.08c0,.66-.04.92-.04,1.04,0,.22.02.24.24.24.12,0,.82-.04,2.78-.04h2.58v.88h-3.3c-1.94,0-2.6-.04-2.72-.04-.2,0-.22.02-.22.22v1.1c0,.18.02.2.22.2.12,0,.78-.04,2.72-.04h3.3v.94h-5.36c-1.74,0-2.34-.04-2.46-.04-.18,0-.2.02-.2.22v1.2c0,.2.02.22.2.22.12,0,.72-.04,2.46-.04Zm6.26-2.5v.94H-9.38v-.94ZM-9.38-3.18v-.94h4.24v.94Zm3.7-7.04h-3.7v-1h3.7Zm-9.34,0v-1h3.62v1ZM10.04-7.66c0-1.78.04-2.7.04-2.82,0-.18-.02-.2-.22-.2-.12,0-.6.04-2.08.04H5.26c-1.48,0-1.96-.04-2.1-.04-.2,0-.22.02-.22.2,0,.14.04.94.04,2.66v6.6c0,1.72-.04,2.48-.04,2.6,0,.2.02.22.22.22h1.6c.2,0,.22-.02.22-.22,0-.1-.04-.9-.04-2.54v-1.4h3.2V-.9c0,.4-.12.52-.66.52-.52,0-.8-.02-1.34-.06A3.71,3.71,0,0,1,6.6.84c.1.62.1.6.74.6C8.8,1.42,9.3,1.28,9.6,1.02c.42-.36.48-.9.48-1.66,0-.6-.04-1.66-.04-2.68Zm-5.1,3.5V-5.7h3.2v1.54Zm3.2-4.7v1.54H4.94V-8.86Zm8.44-3.16c1.78,0,2.4.04,2.52.04.2,0,.22-.02.22-.24v-1.52c0-.2-.02-.22-.22-.22-.12,0-.74.04-2.52.04H13.94c.32-.42.6-.82.82-1.16a2.214,2.214,0,0,1,.54-.7c.1-.08.18-.16.18-.26,0-.14-.1-.2-.28-.28a19.021,19.021,0,0,0-2-.54,4.426,4.426,0,0,1-.38,1,20.69,20.69,0,0,1-1.22,1.94H7.1l1.26-.5c.3-.12.3-.14.22-.32a10.209,10.209,0,0,0-1.16-1.92c-.12-.18-.14-.18-.42-.08l-1.36.52c-.22.1-.26.14-.14.32a13.339,13.339,0,0,1,1.12,1.98H4.26c-1.76,0-2.38-.04-2.5-.04-.2,0-.22.02-.22.22v1.52c0,.22.02.24.22.24.12,0,.74-.04,2.5-.04Zm1.26,3.8a6.415,6.415,0,0,1,.12-1.92,1.045,1.045,0,0,0,.14-.42c0-.1-.12-.2-.32-.22-.68-.08-1.32-.12-2.06-.14a16.511,16.511,0,0,1,.16,2.7v6.9c0,.64-.24.78-.86.78A16.462,16.462,0,0,1,13-.64a4.014,4.014,0,0,1,.54,1.4c.14.64.14.62.76.62,1.8,0,2.34-.1,2.88-.44.52-.34.7-.84.7-1.82,0-1-.04-2.06-.04-3.48Zm-5.9,3.24c0,1.34-.04,1.96-.04,2.1,0,.2.02.2.22.2H13.7c.2,0,.22,0,.22-.2,0-.12-.04-.76-.04-2.1V-7.34a9.24,9.24,0,0,1,.08-1.98,1.73,1.73,0,0,0,.12-.46c0-.12-.08-.2-.28-.22-.68-.08-1.28-.14-2-.16a20.581,20.581,0,0,1,.14,2.84Zm16.48-3.2c-1.86,0-2.5-.04-2.64-.04-.2,0-.22.02-.22.24,0,.12.04.5.04,1.44V-5c0,.94-.04,1.32-.04,1.44,0,.22.02.24.22.24.14,0,.78-.04,2.64-.04H33.5a4.452,4.452,0,0,1-.38,1.1,14.981,14.981,0,0,1-.84,1.5H28.44l1.08-.48c.28-.12.3-.18.2-.38a14.459,14.459,0,0,0-.9-1.52c-.12-.18-.2-.2-.44-.1l-1.32.56c-.24.08-.26.14-.14.32a13.6,13.6,0,0,1,.84,1.6H25.2c-1.8,0-2.42-.04-2.54-.04-.2,0-.22.02-.22.2V.88c0,.2.02.22.22.22.12,0,.74-.04,2.54-.04H37.24c1.8,0,2.42.04,2.54.04.2,0,.22-.02.22-.22V-.6c0-.18-.02-.2-.22-.2-.12,0-.74.04-2.54.04H34.52l.6-1.04a1.015,1.015,0,0,1,.38-.46.332.332,0,0,0,.2-.28c0-.08-.08-.2-.26-.26a18.449,18.449,0,0,0-1.76-.56h.3c1.86,0,2.52.04,2.64.04.2,0,.22-.02.22-.24,0-.12-.04-.5-.04-1.44V-6.54c0-.94.04-1.32.04-1.44,0-.22-.02-.24-.22-.24-.12,0-.78.04-2.64.04Zm-.78,1.62h7.12v1.58H27.64Zm-.5-9.6c-1.5,0-1.98-.04-2.1-.04-.22,0-.24.02-.24.22v1.38c0,.18.02.2.24.2.12,0,.6-.04,2.1-.04h2.22a13.519,13.519,0,0,1-2.22,2.32,29.136,29.136,0,0,0-2.16-1.98c-.18-.14-.22-.1-.4.04l-1,.8c-.1.08-.16.14-.16.18,0,.06.06.12.16.2a19.323,19.323,0,0,1,2,1.9,21.753,21.753,0,0,1-3.8,1.92,3.68,3.68,0,0,1,.82,1.1c.18.36.26.52.42.52a1.375,1.375,0,0,0,.46-.16,22.281,22.281,0,0,0,4.48-2.78v1.02c0,.2.02.22.22.22.1,0,.54-.04,1.96-.04H32.2c1.42,0,1.88.04,1.98.04.2,0,.22-.02.22-.22v-.94a19.742,19.742,0,0,0,4.62,2.64,1.218,1.218,0,0,0,.46.14c.16,0,.22-.14.38-.52a5.572,5.572,0,0,1,.72-1.26,22.087,22.087,0,0,1-3.32-1.4c.56-.48,1.04-.94,1.46-1.36a1.639,1.639,0,0,1,.7-.54c.16-.06.26-.16.26-.28s-.06-.22-.24-.34c-.46-.3-.96-.6-1.56-.92a4.921,4.921,0,0,1-.56.86,18.128,18.128,0,0,1-1.64,1.6,12.247,12.247,0,0,1-1.12-.9,17.732,17.732,0,0,0,1.38-1.32,1.877,1.877,0,0,1,.68-.56c.18-.06.26-.16.26-.28,0-.1-.04-.2-.22-.32a14.853,14.853,0,0,0-1.54-.92,5.088,5.088,0,0,1-.56.84,9.949,9.949,0,0,1-1.2,1.28,2.661,2.661,0,0,1-.28-.38,6.2,6.2,0,0,1-.92-1.72c-.1-.22-.16-.24-.34-.24-.14,0-.7.04-1.82.04Zm3,5.3c-.82,0-1.32,0-1.6-.02a16.889,16.889,0,0,0,2.7-3.1,12.011,12.011,0,0,0,2.48,3.1c-.3.02-.76.02-1.52.02ZM51.12-7.1c-.22.16-.24.2-.1.34a10.95,10.95,0,0,1,1.56,2.24c.06.12.1.18.16.18s.12-.06.24-.14l.88-.68c.22-.16.24-.22.12-.4A12.256,12.256,0,0,0,52.4-7.78c-.08-.08-.14-.14-.2-.14-.04,0-.1.04-.2.12ZM48.38-3.06a3.571,3.571,0,0,1,.74.24,1.257,1.257,0,0,0,.42.16c.14,0,.2-.14.32-.44a17.745,17.745,0,0,0,.64-1.74.69.69,0,0,1,.26-.42.251.251,0,0,0,.12-.22c0-.08-.06-.14-.22-.2a10.42,10.42,0,0,0-1.46-.48,5.561,5.561,0,0,1-.08.74A18.593,18.593,0,0,1,48.38-3.06Zm10.04-5.3c1.9,0,2.54.04,2.64.04.22,0,.24-.02.24-.22V-9.9c0-.2-.02-.22-.24-.22-.1,0-.64.04-2.06.04l.22-3.98c.04-.54.06-1.08.12-1.66.02-.2-.04-.24-.24-.24-.1,0-.64.04-2.24.04H53.7c-1.58,0-2.12-.04-2.24-.04-.2,0-.22.02-.22.22v1.36c0,.2.02.22.22.22.12,0,.66-.04,2.24-.04h3.62L57.26-13H54.2c-1.62,0-2.16-.04-2.28-.04-.2,0-.22.02-.22.22v1.32c0,.2.02.22.22.22.12,0,.66-.04,2.28-.04h2.96l-.06,1.24H53.22c-1.9,0-2.52-.04-2.64-.04-.2,0-.22.02-.22.22v1.44h-.12c-.12,0-.58.04-2.06.04h-.12V-9.98c1.16,0,1.5.04,1.62.04.22,0,.24-.02.24-.24v-1.24c0-.2-.02-.22-.24-.22-.12,0-.46.04-1.66.04h-1.6c-.68,0-1.06,0-1.32-.02a15.723,15.723,0,0,0,2.26-2.7,13.782,13.782,0,0,0,2.12,2.26c.2.18.32.28.42.28.12,0,.2-.16.36-.46a5.261,5.261,0,0,1,.78-1.02,12.225,12.225,0,0,1-2.82-2.46l.12-.1c.16-.12.22-.22.22-.32,0-.08-.1-.2-.3-.24a15.6,15.6,0,0,0-1.86-.32,4.026,4.026,0,0,1-.44,1.04,11.516,11.516,0,0,1-3.24,3.44,5.866,5.866,0,0,1,.62,1.34c.1.3.18.44.32.44a.765.765,0,0,0,.42-.24c.16-.12.3-.26.46-.4v.9c0,.22.02.24.22.24.1,0,.42-.02,1.42-.04v1.56h-.56c-1.48,0-1.94-.04-2.06-.04-.22,0-.24.02-.24.22v1.32c0,.2.02.22.24.22.12,0,.58-.04,2.06-.04h.56v5.48c-.46.1-.94.18-1.4.26-.58.1-1.08.16-1.76.22.14.58.32,1.18.5,1.72a.332.332,0,0,0,.32.26.566.566,0,0,0,.32-.14,2.588,2.588,0,0,1,.7-.26c1.66-.38,3.16-.78,4.6-1.22.58-.18.58-.14.6-.8a1.72,1.72,0,0,1,.02-.32,13.106,13.106,0,0,0,.78,1.36c.1.14.18.16.26.16a.34.34,0,0,0,.24-.18,1.771,1.771,0,0,1,.52-.42,26.036,26.036,0,0,0,2.8-1.92V-.98c0,.46-.16.62-.8.62a12.821,12.821,0,0,1-1.4-.08,4.115,4.115,0,0,1,.6,1.42c.14.62.12.62.76.6a3.887,3.887,0,0,0,2.06-.4,1.8,1.8,0,0,0,.66-1.7c0-.92-.1-2.06-.1-4.4A11.92,11.92,0,0,0,60,.14c.18.16.3.24.4.24.12,0,.18-.12.3-.4a5.5,5.5,0,0,1,.82-1.4,10.707,10.707,0,0,1-3-2.68A16.648,16.648,0,0,0,60.2-5.82a2.055,2.055,0,0,1,.56-.52c.16-.1.26-.2.26-.28a.562.562,0,0,0-.2-.34,12.244,12.244,0,0,0-1.28-1,4.5,4.5,0,0,1-.46.76A13.081,13.081,0,0,1,57.6-5.54a12.718,12.718,0,0,1-1.08-2.82Zm-3.74,0v3.64A25.307,25.307,0,0,1,51-2.24l-.9.44a4.716,4.716,0,0,1,.08-.56c-.72.24-1.42.46-2.12.64V-6.74h.12c1.48,0,1.94.04,2.06.04.22,0,.24-.02.24-.22v-1.4h.1c.12,0,.74-.04,2.64-.04ZM43.8-5.58c-.28.1-.3.14-.22.36a13.2,13.2,0,0,1,.68,3.02c.04.2.08.22.36.12l.86-.34c.24-.1.26-.16.24-.34a20.172,20.172,0,0,0-.68-3.02c-.06-.2-.1-.2-.34-.12ZM73.78-7.4H75.2a11.9,11.9,0,0,0,5.32,8.72c.22.14.34.22.44.22.12,0,.2-.16.36-.48a5.905,5.905,0,0,1,.9-1.44,8.854,8.854,0,0,1-3.46-2.86A21.93,21.93,0,0,0,80.6-4.76a2.293,2.293,0,0,1,.86-.6c.18-.06.24-.16.24-.28s-.04-.18-.16-.32a15.958,15.958,0,0,0-1.38-1.16,5.179,5.179,0,0,1-.64.84A21.611,21.611,0,0,1,77.86-4.8a12.723,12.723,0,0,1-.78-2.6h.98c1.5,0,2.2.04,2.3.04.2,0,.22-.02.22-.22,0-.12-.04-.78-.04-2.22v-3.7c0-1.4.04-2.08.04-2.2,0-.2-.02-.22-.22-.22-.1,0-.8.04-2.3.04H74.52c-1.64,0-2.44-.04-2.58-.04-.2,0-.22.02-.22.22,0,.14.04,1.28.04,3.52V-1.06l-.66.12a13.378,13.378,0,0,1-1.68.22,14.6,14.6,0,0,0,.44,1.9c.04.16.12.2.24.2a.515.515,0,0,0,.32-.14A1.929,1.929,0,0,1,71.06,1C72.96.56,74.6.12,76.14-.36c.58-.16.6-.16.6-.82a7.849,7.849,0,0,1,.08-1.26c-.92.34-1.96.66-3.04.94Zm4.74-1.7H73.78v-1.78h4.74Zm0-5.02v1.64H73.78v-1.64Zm-12-1.84c-1.04,0-1.56-.04-1.7-.04-.2,0-.22.02-.22.24,0,.12.04,1.5.04,4.26v8.62c0,2.76-.04,4.1-.04,4.24,0,.2.02.22.22.22h1.62c.2,0,.22-.02.22-.22,0-.12-.04-1.54-.04-4.24V-14.12h2.24A24.555,24.555,0,0,1,67.04-9.6c1.58,2.18,1.86,3.02,1.86,3.94,0,1.22-.72,1.5-1.96,1.44a2.634,2.634,0,0,1,.44,1.34c.06.62.08.62.72.58,1.94-.16,2.74-1.24,2.74-3.1,0-1.12-.08-2.2-1.72-4.36A38.213,38.213,0,0,0,70.8-13.7a1.591,1.591,0,0,1,.38-.64.512.512,0,0,0,.2-.36c0-.16-.08-.34-.52-.78-.44-.5-.6-.6-.78-.6a.456.456,0,0,0-.22.06.921.921,0,0,1-.4.06ZM92.68-9v7.42a4.989,4.989,0,0,1-3-2.86c.14-.5.26-1.02.36-1.58a1.675,1.675,0,0,1,.26-.62.619.619,0,0,0,.18-.38c0-.14-.1-.22-.38-.28-.58-.14-1.24-.28-1.9-.38a9.529,9.529,0,0,1-.12,1.28,9.469,9.469,0,0,1-3.6,6.32A4.348,4.348,0,0,1,85.64.96c.2.26.3.38.4.38.12,0,.24-.12.44-.34a11.394,11.394,0,0,0,2.44-3.42C90.5-.04,91.9,1.04,99.06,1.06c.8,0,1.6-.02,2.36-.06.62-.06.64-.06.72-.68a5.485,5.485,0,0,1,.38-1.44c-1.32.1-2.74.18-3.88.18a33.736,33.736,0,0,1-3.86-.18V-4.54h2.44c1.64,0,2.18.04,2.3.04.22,0,.24-.02.24-.2V-6.16c0-.2-.02-.22-.24-.22-.12,0-.66.04-2.3.04H94.78V-9h1.7c1.92,0,2.58.04,2.7.04.2,0,.22-.02.22-.22v-1.46c0-.2-.02-.22-.22-.22-.12,0-.78.04-2.7.04H90.84c-1.94,0-2.58-.04-2.7-.04-.22,0-.24.02-.24.22v1.46c0,.2.02.22.24.22.12,0,.76-.04,2.7-.04Zm1.82-5.68v-.2a3.58,3.58,0,0,1,.08-1.2.935.935,0,0,0,.12-.38c0-.12-.12-.18-.3-.2-.68-.06-1.4-.1-2.14-.1a8.052,8.052,0,0,1,.14,1.9v.18H88.12c-1.88,0-2.52-.04-2.66-.04-.2,0-.22.02-.22.2,0,.14.04.48.04,1.22v.68c0,1.78-.04,2.06-.04,2.2,0,.2.02.22.22.22h1.62c.22,0,.24-.02.24-.22v-2.42H99.98v2.42c0,.2.02.22.22.22h1.64c.2,0,.22-.02.22-.22,0-.12-.04-.42-.04-2.2v-.86c0-.56.04-.9.04-1.04,0-.18-.02-.2-.22-.2-.12,0-.78.04-2.64.04Zm21.26,2.42a4.543,4.543,0,0,1,4.48,4.64c0,3.78-2.66,5.18-6.04,5.98a4.242,4.242,0,0,1,1.4,1.26c.26.4.44.48.86.36,4.06-1.22,6.16-3.56,6.16-7.28,0-3.98-2.82-6.94-7.62-6.94a8.752,8.752,0,0,0-6.5,2.56,7.369,7.369,0,0,0-2.26,5.2c0,3.26,1.78,5.14,3.54,5.14a3.8,3.8,0,0,0,3.4-2.3,25.043,25.043,0,0,0,2.5-8.62Zm-2.4.12a22.851,22.851,0,0,1-2.12,7.16c-.54.96-.98,1.22-1.5,1.22-.62,0-1.36-1.02-1.36-2.86a5.759,5.759,0,0,1,1.56-3.7A6.023,6.023,0,0,1,113.36-12.14Z" transform="translate(1984.82 -4208)"/><path class="a" d="M-135.586-1.773a11.97,11.97,0,0,1,.89-.86c2.7,2.848,3.442,3.65,4.718,5.014l3.145-1.246c.03-3.62.03-4.154.059-8.872a13.3,13.3,0,0,1,4.51-1.039,3.9,3.9,0,0,1,4.124,3.946c0,2.077-1.217,3.145-2.285,3.145-.92,0-1.157-.771-1.513-1.988l-2.759,1.1c.415,2.166.831,4.213,4.095,4.213,3.175,0,5.549-2.878,5.549-6.528,0-3.709-2.552-6.765-7.151-6.765a16.43,16.43,0,0,0-4.569.682l.03-2.937a25.87,25.87,0,0,0,4.629-1.276v-3.383a18.832,18.832,0,0,1-4.569,1.543c.03-.564.119-3.472.237-3.65.059-.089.5-.445.5-.564,0-.148,0-.356-.831-.475l-3.294-.445c.03,1.929.03,2.2.059,5.549-.86.059-1.306.089-2.047.089a23.908,23.908,0,0,1-2.908-.148l.445,3.353a29.12,29.12,0,0,0,4.51-.148l.03,3.828A85,85,0,0,0-137.4-5.1Zm5.608.237a24.945,24.945,0,0,1-2.7-2.789,30.436,30.436,0,0,1,2.7-1.81Zm17.18-12.551a21.826,21.826,0,0,0-5.845-3.353l-1.929,2.611a17.258,17.258,0,0,1,5.845,3.383ZM-84.67-12.6V-21.89H-98.7V-12.6Zm-3.145-5.7H-95.47v-1.424h7.655Zm0,3.561H-95.47v-1.424h7.655Zm-12.373-5.934c0-.178-.267-.356-.326-.386l-2.789-1.929a21.886,21.886,0,0,1-5.549,5.014l2.374,2.136a30.314,30.314,0,0,0,5.341-4.48c.119-.089.237-.089.475-.089C-100.366-20.407-100.188-20.466-100.188-20.674Zm17.239,16.2v-2.7h-3.8v-1.6h3.323v-2.581h-16.883v2.581h10.148v1.6h-10.83v2.7h4.095l-1.751,1.6A26.711,26.711,0,0,1-95.8.72L-93.571-1.3a27.864,27.864,0,0,0-2.4-3.175h5.816v3.59c0,.475-.267.8-.623.8s-1.84-.089-2.136-.119l1.187,3.056c3.739-.059,4.985-.089,4.985-2.433v-4.9ZM-99.743-14.561c0-.148-.237-.326-.356-.386l-2.819-1.573a25.106,25.106,0,0,1-6.468,6.795l2.255,2.2a9.657,9.657,0,0,0,1.365-1.128V2.915h3.353v-13.5c0-.089.059-.148.237-.267.3-.178.386-.3.386-.475a.507.507,0,0,0-.208-.386l-.415-.356c.475-.475.593-.623,1.691-1.84.3-.326.3-.356.534-.356C-100.069-14.265-99.743-14.265-99.743-14.561ZM-55.8-2.129a27.253,27.253,0,0,0-5.1-2.7,29.4,29.4,0,0,1-.386-4.124,2.718,2.718,0,0,1,1.128-2.374l-3.086-1.662a4.483,4.483,0,0,0-1.276,3.026c0,.623.356,3.65.415,4.332a14.974,14.974,0,0,0-2.314-.178c-4.095,0-5.252,2.611-5.252,4.213a3.359,3.359,0,0,0,1.1,2.522,7.051,7.051,0,0,0,4.836,1.395c3.887,0,4.777-1.246,5.044-3.62A16.333,16.333,0,0,1-57.758.66Zm-8.16-.534c0,1.068.03,2.314-2.374,2.314-1.632,0-2.463-.682-2.463-1.335,0-.593.712-1.424,2.255-1.424A9.964,9.964,0,0,1-63.959-2.663Zm8.99-11.869a14.664,14.664,0,0,0-6.617-2.73L-62.92-14.71a21,21,0,0,1,6.5,2.7Zm-8.842-1.543V-19.4c-.771.267-1.662.564-3.412,1.009.119-.386.682-2.285.712-2.314.178-.178.682-.356.682-.653,0-.326-.564-.475-.712-.5l-3.234-.712a28.311,28.311,0,0,1-1.068,4.9,39.5,39.5,0,0,1-5.044.386l.445,3.086c1.395-.089,2.225-.178,3.59-.356a50.9,50.9,0,0,1-5.074,10.8L-73.751-2.4a72.365,72.365,0,0,0,5.489-12.729C-65.739-15.57-64.819-15.807-63.811-16.075Zm40.264-5.519h-15.4v2.937h3.828c-.534,4.51-1.929,6.112-4.3,7.685v-1.662c-2.047.653-2.285.742-2.67.86v-3.5H-39.3V-18.3h-2.789v-3.086c0-.148.089-.237.415-.445.267-.148.415-.267.415-.475,0-.386-.831-.386-1.335-.415l-3-.089v4.51h-3.561v3.026h3.561v4.51c-2.225.623-3.323.86-3.946.979l.178,2.967c.03.682.119,1.217.445,1.217.148,0,.237-.089.445-.415a1.017,1.017,0,0,1,.445-.415c.386-.178,2.107-.771,2.433-.89V-1.09c0,.831-1.009.831-1.246.831a17.279,17.279,0,0,1-1.78-.148l1.662,3.5c2.73,0,4.866-.475,4.866-2.492V-8.6c.949-.356,1.513-.534,2.67-1.009v-.771l2.848,2.107c3.768-3.59,4.54-6.112,5.014-10.385H-27.2a21.95,21.95,0,0,1-.742,5.014c-.356,1.039-.831,1.217-1.513,1.217a21.9,21.9,0,0,1-2.641-.208l1.84,3.5c1.424-.03,3.828-.03,4.777-1.424C-24.258-12.366-23.754-18.8-23.546-21.593Zm-.86,24.449v-11.1h-14.6V2.915h3.531V2h7.537v.86Zm-3.531-3.8h-7.537V-5.333h7.537ZM-11.2-20.5c0-.237-.356-.475-.445-.534l-2.67-1.84a22.328,22.328,0,0,1-5.9,5.549l2.7,2.433A28.241,28.241,0,0,0-12.6-19.665c.386-.415.415-.445.86-.475C-11.529-20.169-11.2-20.169-11.2-20.5ZM6.244-11.238v-2.789H-1.293v-2.73H5.294v-2.789H-1.293v-1.691a.636.636,0,0,1,.267-.445c.059-.03.356-.267.356-.445,0-.386-.593-.415-.682-.415l-3.472-.148v3.145h-5.638v2.789h5.638v2.73h-6.557c.178-.059.5-.178.5-.534,0-.267-.386-.475-.445-.5l-2.967-1.543a25.5,25.5,0,0,1-6.557,7.893l2.581,2.166c.89-.742,1.395-1.217,1.751-1.573V3.568h3.294V-9.9a.941.941,0,0,1,.148-.415c.237-.326.3-.415.3-.534,0-.356-.475-.5-.682-.534a23.145,23.145,0,0,0,1.513-1.958v2.107H-1.026v2.789H-11.5V-5.63h4.332l-2.611,1.9A21.584,21.584,0,0,1-7.049.215l2.937-1.78A30.514,30.514,0,0,0-6.9-5.63h5.875v4.9c0,.771-.475.92-1.009.92C-2.6.185-3.726.067-4.913-.052l1.9,3.679C.072,3.568,2.268,3.182,2.268.482V-5.63h3.65V-8.449H2.268v-2.789ZM33.393-10.17l-1.009-3.383c-1.395.623-1.78.8-5.252,2.433a3.977,3.977,0,0,0-4.035-3,5.738,5.738,0,0,0-2.552.623c.5-.771.742-1.187,1.691-2.937a62.457,62.457,0,0,0,7.092-1.128l.208-3.323a25.054,25.054,0,0,1-5.816,1.513c.148-.326.89-1.988.92-2.018.03,0,.623-.267.682-.3.178-.059.3-.148.3-.326,0-.208-.5-.267-.593-.3l-3.709-.653a23.01,23.01,0,0,1-1.484,3.946,41.734,41.734,0,0,1-5.667-.119l.356,3.086c1.246,0,2.166-.03,3.857-.119A39.451,39.451,0,0,1,12.534-8l2.908,1.81c1.632-2.67,3.412-5.371,6.32-5.371a2.056,2.056,0,0,1,2.255,1.958c-4.451,2.285-7.181,3.679-7.181,7.359A4.056,4.056,0,0,0,17.964.66c1.869,1.988,5.311,1.988,6.973,1.988A49.106,49.106,0,0,0,32,2.2V-1.15A34.306,34.306,0,0,1,24.433-.2c-2.166,0-4.451-.386-4.451-2.314,0-2.077,3.086-3.62,4.213-4.184-.03,1.306-.059,2.759-.148,4.451h3.442c0-1.009-.059-4.688-.059-5.845C29.625-8.924,31.049-9.428,33.393-10.17ZM64.964-8.241v-6.053H58.881c.92-1.068,1.78-2.2,2.2-2.789.119-.119.148-.119.445-.178.059,0,.356-.03.356-.237,0-.237-.5-.445-.593-.475l-3-1.039a17.529,17.529,0,0,1-2.344,4.718H53.125l1.068-.92a15,15,0,0,0-2.225-3.234,87.612,87.612,0,0,0,8.842-1.009,8.69,8.69,0,0,1,1.217-.208c.119,0,.623.119.742.119s.208-.059.208-.178c0-.267-.356-.653-.475-.771l-2.225-2.255a58.462,58.462,0,0,1-14.094,1.81c-1.84,0-2.967-.089-3.887-.148l1.335,2.878c.593.03,1.187.03,1.721.03l-2.314,1.543a9.149,9.149,0,0,1,1.9,2.344H40.544v6.112h3.027v-3.383H61.937v3.323ZM64.489.007A25.742,25.742,0,0,1,55.8-2.129a20.234,20.234,0,0,0,5.252-6.053L59.564-9.754H44.936v2.789h3.323l-1.6,1.454A17.7,17.7,0,0,0,50.069-2.1,23.791,23.791,0,0,1,40.515.1l1.6,2.878A23.776,23.776,0,0,0,47.7,1.906,26.605,26.605,0,0,0,52.917-.26,25.376,25.376,0,0,0,63.154,2.826ZM51.2-14.294H47.131l.86-.742a17.294,17.294,0,0,0-2.344-3.145c1.662,0,3-.03,5.519-.208L49.3-17.083A7.974,7.974,0,0,1,51.2-14.294Zm4.985,7.329a13.827,13.827,0,0,1-3.323,3.234,14.418,14.418,0,0,1-3.472-3.234Zm37.713-7.21-.119-3.412a27.113,27.113,0,0,1-4.035,1.424c-.119-1.484-.267-3.234-.267-3.353-.03-.148-.089-.771-.089-.92s.059-.267.267-.534c.089-.119.267-.326.267-.445,0-.356-.5-.356-.771-.356l-3.472-.119a52.324,52.324,0,0,1,.86,6.409,37.083,37.083,0,0,1-4.777.326c-.534,0-.95,0-1.9-.059l.682,3.412a41.268,41.268,0,0,0,6.142-.445v1.573a14.788,14.788,0,0,1-1.1,6.5A16.432,16.432,0,0,1,82.678.779L86.031,2.5c1.662-2.552,3.976-6.112,3.976-13.619,0-.5,0-.89-.03-1.78A33.931,33.931,0,0,0,93.894-14.176ZM78.88-6.4,76.655-7.945c-.593,1.335-.771,1.751-1.187,2.848a21.888,21.888,0,0,1-.593-5.608c0-4.065.8-9.05,1.424-9.554.386-.3.475-.356.475-.475,0-.3-.771-.5-.86-.534l-3-.86a53.8,53.8,0,0,0-1.187,10.533c0,7.27,1.573,10.8,2.374,12.64L76.951.6A27.376,27.376,0,0,1,78.88-6.4ZM125.257-.171a26.992,26.992,0,0,1-4.925-4.451c1.306-2.255,3.323-5.816,3.828-13.59l-1.721-1.573H113.21v-2.225H99.531v2.848h1.84V-3.523c-.89.119-.979.148-1.81.267l.475,2.7c.059.386.148.5.3.5.089,0,.208-.119.386-.3a3.2,3.2,0,0,1,.979-.3c.92-.208,4.54-1.187,6.231-1.662V2.619h3v-2.7l2.492,2.374a20.7,20.7,0,0,0,5.1-4.362A25.42,25.42,0,0,0,122.972,2.2Zm-4.51-16.675a23.643,23.643,0,0,1-2.374,9.376c-1.187-2.225-1.929-4.065-2.73-8.634L112.676-15.1a30.858,30.858,0,0,0,4.006,10.415,12.544,12.544,0,0,1-5.756,4.243V-19.16h2.047v2.314Zm-12.818,6.468h-3.383v-3.086h3.383Zm0-5.756h-3.383V-19.16h3.383Zm0,11.513c-.742.119-1.157.208-3.383.593V-7.766h3.383Zm43.409-1.84a6.54,6.54,0,0,0-6.587-6.557,23.625,23.625,0,0,0-2.878.178,73.361,73.361,0,0,1,6.587-6.35l-1.543-2.4a33.627,33.627,0,0,1-8.99,1.484c-.92,0-2.611-.119-3.323-.178l.682,3.323a27.7,27.7,0,0,0,6.943-.742A58.577,58.577,0,0,1,131.25-7l2.492,2.611c1.662-1.691,4.273-4.332,6.112-5.311a8.047,8.047,0,0,1,3.383-.742c1.929,0,4.807.949,4.807,3.887A5.227,5.227,0,0,1,146.086-2.6c-.831-1.039-2.759-3.472-5.845-3.472a4.156,4.156,0,0,0-4.362,3.946c0,2.2,1.9,4.065,5.608,4.065C146.709,1.936,151.338-1.535,151.338-6.461ZM143.326-1.15a8.435,8.435,0,0,1-2.018.267c-1.068,0-2.433-.3-2.433-1.335a1.307,1.307,0,0,1,1.484-1.246C142.051-3.464,142.941-1.832,143.326-1.15Z" transform="translate(2258 -4210.512)"/></g><g transform="translate(178.46 30)"><path class="a" d="M1.12-.2c1.32,0,3,.44,4.8.44A2.839,2.839,0,0,0,8.44-.92a3.063,3.063,0,0,0,.88-1.4.189.189,0,0,0-.2-.2,5.082,5.082,0,0,1-2.72.76C5-1.76,3.76-2.2,2.16-2.2,5.32-4.56,11-8.04,11-12.88c0-2.44-1.92-3.48-3.96-3.48-2.44,0-4.88,1.88-4.88,3.88,0,.36.12.6.48.6a1.082,1.082,0,0,0,1.08-.96,3,3,0,0,1,2.6-2.8c1.36,0,2.16,1.04,2.16,2.96,0,3.96-4.4,7.8-7.64,10.28C-.32-1.48-.96-1.12-.96-.76c0,.28.28.84.76.84A7.829,7.829,0,0,1,1.12-.2ZM20.2-16.36c-4.04,0-8.36,5.68-8.36,11.96A4.173,4.173,0,0,0,16.08.12c5.08,0,7.56-7.44,7.56-12.32C23.64-14.72,22.72-16.36,20.2-16.36Zm.4.96c1.48,0,2.12,1.24,2.12,3.56,0,4.52-2.4,10.8-6.04,10.8-1.56,0-2.36-1.4-2.36-3.88C14.32-9.88,17.56-15.4,20.6-15.4ZM25.68-.2c1.32,0,3,.44,4.8.44A2.839,2.839,0,0,0,33-.92a3.063,3.063,0,0,0,.88-1.4.189.189,0,0,0-.2-.2,5.082,5.082,0,0,1-2.72.76c-1.4,0-2.64-.44-4.24-.44,3.16-2.36,8.84-5.84,8.84-10.68,0-2.44-1.92-3.48-3.96-3.48-2.44,0-4.88,1.88-4.88,3.88,0,.36.12.6.48.6a1.082,1.082,0,0,0,1.08-.96,3,3,0,0,1,2.6-2.8c1.36,0,2.16,1.04,2.16,2.96,0,3.96-4.4,7.8-7.64,10.28-1.16.92-1.8,1.28-1.8,1.64,0,.28.28.84.76.84A7.829,7.829,0,0,1,25.68-.2ZM44.76-16.36c-4.04,0-8.36,5.68-8.36,11.96A4.173,4.173,0,0,0,40.64.12c5.08,0,7.56-7.44,7.56-12.32C48.2-14.72,47.28-16.36,44.76-16.36Zm.4.96c1.48,0,2.12,1.24,2.12,3.56,0,4.52-2.4,10.8-6.04,10.8-1.56,0-2.36-1.4-2.36-3.88C38.88-9.88,42.12-15.4,45.16-15.4Zm13.4-1.12a.742.742,0,0,0,.08-.28c0-.12-.56-.12-.96-.12a.329.329,0,0,0-.32.2L49.68.12a1.573,1.573,0,0,0-.08.24c0,.12.52.12.96.12a.364.364,0,0,0,.32-.16ZM63.08-13c.36-1.28.88-2.04.88-2.28,0-.28-.8-.88-1.12-.88a.649.649,0,0,0-.56.28c-.6.88-1.56,2.92-3.12,3.16-.32.04-.64.96-.64,1.36a.211.211,0,0,0,.24.24c.44,0,1.8-1.32,1.8-1.32C57.88-1.04,57.76-.84,57.6-.48c-.12.28-.2.36-.2.48s.12.16.24.16c.64,0,2.4-.64,2.6-1.52C61.08-5.12,61.92-8.72,63.08-13Zm10.44-3.36c-4.04,0-8.36,5.68-8.36,11.96A4.173,4.173,0,0,0,69.4.12c5.08,0,7.56-7.44,7.56-12.32C76.96-14.72,76.04-16.36,73.52-16.36Zm.4.96c1.48,0,2.12,1.24,2.12,3.56,0,4.52-2.4,10.8-6.04,10.8-1.56,0-2.36-1.4-2.36-3.88C67.64-9.88,70.88-15.4,73.92-15.4Zm13.4-1.12a.742.742,0,0,0,.08-.28c0-.12-.56-.12-.96-.12a.329.329,0,0,0-.32.2L78.44.12a1.573,1.573,0,0,0-.08.24c0,.12.52.12.96.12a.364.364,0,0,0,.32-.16Zm7.16.16c-4.04,0-8.36,5.68-8.36,11.96A4.173,4.173,0,0,0,90.36.12c5.08,0,7.56-7.44,7.56-12.32C97.92-14.72,97-16.36,94.48-16.36Zm.4.96c1.48,0,2.12,1.24,2.12,3.56,0,4.52-2.4,10.8-6.04,10.8-1.56,0-2.36-1.4-2.36-3.88C88.6-9.88,91.84-15.4,94.88-15.4ZM104.92-13c.36-1.28.88-2.04.88-2.28,0-.28-.8-.88-1.12-.88a.649.649,0,0,0-.56.28c-.6.88-1.56,2.92-3.12,3.16-.32.04-.64.96-.64,1.36a.211.211,0,0,0,.24.24c.44,0,1.8-1.32,1.8-1.32C99.72-1.04,99.6-.84,99.44-.48c-.12.28-.2.36-.2.48s.12.16.24.16c.64,0,2.4-.64,2.6-1.52C102.92-5.12,103.76-8.72,104.92-13Z" transform="translate(1952.5 -4334)"/><path class="a" d="M9.62-3.92a12.649,12.649,0,0,0-2.1-.16c-2.32,0-3.68,1.14-3.68,2.44C3.84-.16,5.04.74,7.38.74c2.42,0,3.6-.88,3.58-3.12A14.741,14.741,0,0,1,15.52.16c.12.08.2.06.3-.06a2.686,2.686,0,0,0,.5-.86c.06-.18.02-.26-.08-.34A16.248,16.248,0,0,0,10.9-3.68c-.08-1.2-.14-2.24-.14-3.48a36.594,36.594,0,0,0,4.42-.54c.14-.02.2-.08.2-.2,0-.34-.02-.72-.02-.96-.02-.1-.08-.14-.22-.1a33.442,33.442,0,0,1-4.42.58c-.02-.94-.02-1.98-.02-2.96a49.675,49.675,0,0,0,5.02-.58c.06,0,.14-.04.14-.2A7.494,7.494,0,0,0,15.8-13c-.02-.14-.06-.18-.22-.14a46.728,46.728,0,0,1-4.88.66c.02-.68.02-1.12.06-1.76a1.872,1.872,0,0,1,.24-.92.309.309,0,0,0-.18-.46,8.059,8.059,0,0,0-1.58-.26,4.776,4.776,0,0,1,.18,1.32c0,.74.02,1.3.02,2.12a33.914,33.914,0,0,1-5.56-.16,7.105,7.105,0,0,0,.08,1.04c.02.14.06.18.18.2a38.115,38.115,0,0,0,5.3.1c0,.96.02,2,.02,2.98a29.851,29.851,0,0,1-4.84-.14A8.472,8.472,0,0,0,4.68-7.4c.02.18.06.24.22.24a38.937,38.937,0,0,0,4.6.06C9.52-5.94,9.56-5.06,9.62-3.92Zm.02,1.2A2.255,2.255,0,0,1,9.28-1.1a2.737,2.737,0,0,1-2.04.62C5.78-.48,5-.88,5-1.72c0-.72.84-1.26,2.52-1.26A9.461,9.461,0,0,1,9.64-2.72ZM32.5-12.34c-3.14,1.66-4.88,3.98-4.88,6.8,0,4.04,3.64,5.48,7.02,5.78.22.02.28-.06.32-.28A5.983,5.983,0,0,0,35.08-1c0-.16-.06-.2-.32-.22-2.92-.24-5.82-1.22-5.82-4.54,0-2.68,2.24-5.14,5.16-6.3a8.28,8.28,0,0,1,2.92-.6c.2-.02.26-.06.26-.24a5.687,5.687,0,0,0-.12-1c-.04-.12-.14-.18-.34-.16-5.36.66-9.42,1.26-12.4,1.74a15.642,15.642,0,0,1-2.48.24,11.073,11.073,0,0,0,.56,1.42.339.339,0,0,0,.28.18,1.11,1.11,0,0,0,.38-.14,4.3,4.3,0,0,1,1.2-.34c2.52-.52,5.12-.94,8.12-1.42Zm1.68,3.32A8.635,8.635,0,0,1,36.5-6.46a.16.16,0,0,0,.26.04l.58-.48a.144.144,0,0,0,.04-.22,9.706,9.706,0,0,0-2.26-2.42.155.155,0,0,0-.2-.02Zm1.76-1.34a9.553,9.553,0,0,1,2.3,2.5c.08.12.16.12.24.04l.54-.48c.1-.08.12-.14.06-.24a11.5,11.5,0,0,0-2.28-2.34c-.08-.06-.14-.04-.22.02Z" transform="translate(2061.5 -4335)"/></g></g></svg>