<?xml version="1.0" encoding="utf-8"?>
<!-- Generator: Adobe Illustrator 24.1.2, SVG Export Plug-In . SVG Version: 6.00 Build 0)  -->
<svg version="1.1" id="レイヤー_1" xmlns="http://www.w3.org/2000/svg" xmlns:xlink="http://www.w3.org/1999/xlink" x="0px"
	 y="0px" viewBox="0 0 51.6 57.3" style="enable-background:new 0 0 51.6 57.3;" xml:space="preserve">
<style type="text/css">
	.st0{fill:#FFFFFF;}
	.st1{fill:#231815;}
	.st2{clip-path:url(#SVGID_2_);fill:url(#SVGID_3_);}
	.st3{clip-path:url(#SVGID_2_);fill:url(#SVGID_4_);}
</style>
<rect x="0.3" y="0.3" class="st0" width="51" height="56.7"/>
<g>
	<g>
		<rect x="0.3" y="45.7" class="st0" width="51" height="11.3"/>
		<path class="st1" d="M0,0v45.4v11.9h51.6V45.4V0H0z M51,56.7H0.6V46H51V56.7z M0.6,45.4V0.6H51v44.8H0.6z"/>
	</g>
</g>
<g>
	<g>
		<path class="st1" d="M16.4,42.1c-1.1,0-1.7-0.3-2.5-1l1.5-1.5c0.3,0.3,0.5,0.5,1,0.5c0.7,0,1.2-0.4,1.2-1.3v-5.9h2.2v6
			C19.8,41.1,18.1,42.1,16.4,42.1z"/>
		<path class="st1" d="M25.9,38.8h-1.4V42h-2.2v-9.1h3.6c2,0,3.1,1.4,3.1,2.9C29,37.3,27.9,38.8,25.9,38.8z M25.8,34.9h-1.3v1.8h1.3
			c0.6,0,1-0.4,1-0.9C26.8,35.4,26.4,34.9,25.8,34.9z"/>
		<path class="st1" d="M35.2,42l-1.5-2.8L32.2,42h-2.6l2.8-4.7l-2.7-4.4h2.5l1.3,2.6l1.3-2.6h2.5l-2.7,4.4l2.8,4.7H35.2z"/>
	</g>
	<g>
		<defs>
			<path id="SVGID_1_" d="M18.3,29.7l-4.5-2.3V8.2l4.5,2.3V29.7z M24.8,28.3L20.3,26V6.8l4.5,2.3V28.3z M31.3,26.8l-4.5-2.3V5.3
				l4.5,2.3V26.8z M37.8,25.4L33.3,23V3.9l4.5,2.3V25.4z"/>
		</defs>
		<clipPath id="SVGID_2_">
			<use xlink:href="#SVGID_1_"  style="overflow:visible;"/>
		</clipPath>
		<radialGradient id="SVGID_3_" cx="12.8939" cy="-0.2433" r="38.1343" gradientUnits="userSpaceOnUse">
			<stop  offset="0.65" style="stop-color:#EA601F"/>
			<stop  offset="0.75" style="stop-color:#E50012"/>
		</radialGradient>
		<circle class="st2" cx="12.9" cy="-0.2" r="38.1"/>
		<radialGradient id="SVGID_4_" cx="13.9914" cy="-2.5072" r="25.3323" gradientUnits="userSpaceOnUse">
			<stop  offset="0.6" style="stop-color:#E50012"/>
			<stop  offset="0.713" style="stop-color:#BC000B"/>
			<stop  offset="0.8385" style="stop-color:#940005"/>
			<stop  offset="0.9386" style="stop-color:#7C0001"/>
			<stop  offset="1" style="stop-color:#730000"/>
		</radialGradient>
		<path class="st3" d="M39.3-2.5c0,14-11.3,25.3-25.3,25.3c-14,0-25.3-11.3-25.3-25.3S0-27.8,14-27.8C28-27.8,39.3-16.5,39.3-2.5z"
			/>
	</g>
</g>
<g>
	<path class="st1" d="M7.3,52.4h1.2v0.2h0.6v-2.9H7.1v-0.4h3.1v-0.6H7.1v-0.5c0.1,0,0.1-0.1,0.1-0.2c0-0.1-0.2-0.1-0.2-0.1l-0.5-0.1
		v0.9h-3v0.6h3v0.4h-2v3H5v-0.3h1.2C6,52.7,5.6,53,5.2,53.2c-0.5,0.3-1.1,0.6-1.8,0.8l-0.1,0l0.4,0.6l0.1,0c0.5-0.2,1.1-0.5,1.6-0.7
		c0.4-0.2,0.8-0.5,1.1-0.8v1.8h0.6V53c0.8,0.7,1.7,1.2,2.9,1.5l0.1,0l0.3-0.6l-0.1,0C9.1,53.6,8.1,53.1,7.3,52.4z M7.1,50.7v-0.5
		h1.5v0.5H7.1z M8.6,51.3v0.5H7.1v-0.5H8.6z M6.4,51.3v0.5H5v-0.5H6.4z M6.4,50.3v0.5H5v-0.5H6.4z"/>
	<rect x="10.9" y="49.2" class="st1" width="3" height="0.6"/>
	<rect x="11.3" y="50.2" class="st1" width="2.2" height="0.6"/>
	<rect x="11.3" y="48.1" class="st1" width="2.2" height="0.6"/>
	<rect x="11.3" y="51.2" class="st1" width="2.2" height="0.6"/>
	<path class="st1" d="M16.2,51.7h1.2v-0.6h-1.2v-2h1.6v-0.6h-4.1v0.6h1.8v4.8h-0.7v-3.5c0.1,0,0.1-0.1,0.1-0.2c0,0,0-0.1-0.1-0.1
		l-0.7-0.1v3.9h-0.7v0.6h4.4v-0.6h-1.7V51.7z"/>
	<path class="st1" d="M11.1,54.9h0.6v-0.4h1.1v0.4h0.6v-2.5h-2.4V54.9z M12.9,52.9v1h-1.1v-1H12.9z"/>
	<rect x="18.8" y="50.8" class="st1" width="6.4" height="0.6"/>
	<path class="st1" d="M29.5,49.4h0.6v-0.6h-1.6v-0.6c0.1,0,0.1-0.1,0.1-0.2c0,0,0-0.1-0.1-0.1l-0.7-0.1v1.1h-1.6v0.6h0.6l0.4,1.1
		h-1.2v0.6h4.3v-0.6h-1.2L29.5,49.4z M27.6,49.4h1.3l-0.3,1.1h-0.6L27.6,49.4z"/>
	<path class="st1" d="M32.1,50.9l0.6-1.9c0.1,0,0.2-0.1,0.2-0.2c0-0.1,0-0.1-0.1-0.2l-0.4-0.2l-0.1,0l-0.2,0.1h-1.8v6.3H31v-5.8h1
		l-0.6,2l0.1,0c0.2,0.2,0.5,0.5,0.6,0.8c0.1,0.2,0.2,0.5,0.2,0.8c0,0.3-0.1,0.5-0.1,0.5c-0.1,0.1-0.2,0.1-0.3,0.1h-0.6l0.2,0.7h0.5
		c0.3,0,0.6-0.1,0.8-0.3c0.2-0.2,0.3-0.6,0.3-1c0-0.4-0.1-0.7-0.2-1C32.6,51.5,32.4,51.2,32.1,50.9z"/>
	<path class="st1" d="M26.8,54.7h0.6v-0.6h1.5v0.5h0.6v-2.9h-2.8V54.7z M28.9,52.3v1.3h-1.5v-1.3H28.9z"/>
	<path class="st1" d="M37.3,50.8h2.5v-0.6h-2.5v-1.7c0.1,0,0.1-0.1,0.1-0.2c0,0,0-0.1-0.1-0.1l0,0l-0.7-0.1v5.5h-2.8v0.6h6.7v-0.6
		h-3.2V50.8z"/>
	<path class="st1" d="M48.3,51.4v-0.6h-4.8v0.6h1.2c-0.2,0.3-0.4,0.7-0.8,0.9v-0.6l-1,0.4v-1.8h1v-0.6h-1v-1.4
		c0.1,0,0.1-0.1,0.1-0.2c0,0,0-0.1-0.1-0.1l-0.7-0.1v1.8h-0.9v0.6h0.9v2.1l-1.1,0.5l0.2,0.6c0,0.1,0.1,0.1,0.2,0.1
		c0.1,0,0.2-0.1,0.2-0.2l1.8-0.8c-0.1,0-0.1,0.1-0.2,0.1l-0.1,0.1l0.4,0.5l0.1,0c0.2-0.1,0.4-0.2,0.6-0.3c0.2-0.1,0.4-0.3,0.5-0.5
		h0.5c-0.1,0.2-0.3,0.5-0.6,0.7c-0.3,0.2-0.6,0.4-1,0.4l-0.1,0l0.3,0.5l0.1,0c1-0.3,1.6-0.8,1.9-1.6h0.4c-0.2,0.6-0.5,1-0.9,1.3
		c-0.4,0.3-1.1,0.5-1.9,0.6l-0.1,0l0.3,0.6l0.1,0c0.9-0.2,1.7-0.5,2.2-0.9c0.4-0.3,0.8-0.9,1-1.6h0.4l-0.2,1.2
		C47.1,54,47,54.1,47,54.2c0,0-0.1,0.1-0.3,0.1h-0.8l0.2,0.6h0.6c0.4,0,0.6-0.1,0.7-0.2c0.2-0.2,0.4-0.5,0.4-1l0.2-1.8l0-0.1h-2.8
		c0.1-0.1,0.1-0.2,0.2-0.3H48.3z"/>
	<path class="st1" d="M47.5,48.1h-3.2v2.5h3.2V48.1z M44.9,49v-0.3h2V49H44.9z M44.9,50v-0.4h2V50H44.9z"/>
</g>
<g>
</g>
<g>
</g>
<g>
</g>
<g>
</g>
<g>
</g>
<g>
</g>
<g>
</g>
<g>
</g>
<g>
</g>
<g>
</g>
<g>
</g>
<g>
</g>
<g>
</g>
<g>
</g>
<g>
</g>
</svg>
