<svg id="レイヤー_2" data-name="レイヤー 2" xmlns="http://www.w3.org/2000/svg" width="225.047" height="70.69" viewBox="0 0 225.047 70.69">
  <g id="レイヤー_1" data-name="レイヤー 1">
    <path id="パス_1" data-name="パス 1" d="M6.227,70.69H0V0H6.227V36.944L44.013,0h7.995L20.87,30.38l32.4,40.31H46.033l-29.2-36.355L6.227,44.686Z" fill="#2f2f2f"/>
    <path id="パス_2" data-name="パス 2" d="M8.323,4.577a3.955,3.955,0,0,1,1.262-3.03A3.7,3.7,0,0,1,12.531.369a3.787,3.787,0,0,1,3.03,1.178,4.292,4.292,0,0,1,1.262,3.03,4.124,4.124,0,0,1-1.262,3.03,4.166,4.166,0,0,1-5.975,0,3.871,3.871,0,0,1-1.262-3.03ZM9.585,68.029V18.8h5.891V68.029Z" transform="translate(59.156 2.661)" fill="#2f2f2f"/>
    <path id="パス_3" data-name="パス 3" d="M11.48,4.582a4.292,4.292,0,0,1,1.262-3.03A3.787,3.787,0,0,1,15.856.375,3.7,3.7,0,0,1,18.8,1.553a3.7,3.7,0,0,1,1.262,3.03A3.619,3.619,0,0,1,18.8,7.612a4.166,4.166,0,0,1-5.975,0,4.124,4.124,0,0,1-1.346-3.03Zm1.346,63.453V18.8h5.891V68.035Z" transform="translate(77.515 2.655)" fill="#2f2f2f"/>
    <path id="パス_4" data-name="パス 4" d="M14.484,0H71.036V5.723H45.79V70.69H39.646V5.723H14.4Z" transform="translate(96.63)" fill="#2f2f2f"/>
    <path id="パス_5" data-name="パス 5" d="M28.833,31.726H66.114v5.723H28.833V64.968H69.48V70.69H22.69V0H68.975V5.723H28.833Z" transform="translate(155.566)" fill="#2f2f2f"/>
  </g>
</svg>
