<svg xmlns="http://www.w3.org/2000/svg" width="472.34" height="129.312" viewBox="0 0 472.34 129.312"><defs><style>.a{fill:#e0d5c8;}.b{fill:#2f2f2f;}</style></defs><g transform="translate(-5169.204 3780.428)"><path class="a" d="M-108.9,0h-2.58V-37.62h-10.26v-2.4h23.28v2.4H-108.9Zm31.98-15.6V-26.58h2.4V0h-2.4V-13.32H-92.7V0h-2.4V-26.58h2.4V-15.6Zm14.76,7.08L-65.7,0h-2.64l11.82-27.96L-44.82,0h-2.64L-51-8.52Zm5.64-13.38-4.62,11.1h9.12Zm17.94-5.52,22.5,22.74v-21.9h2.4V1.2l-22.5-22.74V0h-2.4Zm50.52.84H15.3L1.86-13.92,16.08,0H12.6L0-12.36l-.48.48V0h-2.4V-26.58h2.4V-14.7Zm20.7-13.44h3l11.4,20.1,11.7-20.1H61.8L48.3-17.1V0H45.72V-17.1ZM75.6-26.82a14.149,14.149,0,0,1,5.52,1.08,14.746,14.746,0,0,1,4.53,2.94,13.607,13.607,0,0,1,3.06,4.35,12.893,12.893,0,0,1,1.11,5.31A12.807,12.807,0,0,1,88.68-7.8a14.156,14.156,0,0,1-3.06,4.38A14.285,14.285,0,0,1,81.09-.48,14.371,14.371,0,0,1,75.54.6,13.669,13.669,0,0,1,70.08-.51a14.533,14.533,0,0,1-4.5-3,14.1,14.1,0,0,1-3.03-4.41,13.246,13.246,0,0,1-1.11-5.4,12.131,12.131,0,0,1,1.14-5.16,14.121,14.121,0,0,1,3.09-4.32,14.846,14.846,0,0,1,4.5-2.94A13.778,13.778,0,0,1,75.6-26.82Zm0,2.22a11.369,11.369,0,0,0-4.47.9,12.2,12.2,0,0,0-3.75,2.46,11.683,11.683,0,0,0-2.55,3.6,10.294,10.294,0,0,0-.93,4.32,11.2,11.2,0,0,0,.93,4.53,12.262,12.262,0,0,0,2.49,3.72,11.629,11.629,0,0,0,3.69,2.52,11.2,11.2,0,0,0,4.53.93,11.671,11.671,0,0,0,4.59-.9,12.2,12.2,0,0,0,3.75-2.46,11.481,11.481,0,0,0,2.55-3.66,10.987,10.987,0,0,0,.93-4.5,10.637,10.637,0,0,0-.93-4.41,11.942,11.942,0,0,0-2.55-3.66,11.93,11.93,0,0,0-3.75-2.49A11.518,11.518,0,0,0,75.6-24.6ZM100.38-9.9a24.325,24.325,0,0,0,.18,3.51,5.059,5.059,0,0,0,.72,1.95,5.882,5.882,0,0,0,2.58,2.04,8.989,8.989,0,0,0,3.72.78,8.645,8.645,0,0,0,3.63-.78,5.9,5.9,0,0,0,2.55-2.04,4.558,4.558,0,0,0,.78-1.95,24.325,24.325,0,0,0,.18-3.51V-26.58h2.4V-9.42a18.443,18.443,0,0,1-.3,3.87,6.657,6.657,0,0,1-1.2,2.49,8.291,8.291,0,0,1-3.39,2.7,11.185,11.185,0,0,1-4.65.96,11.332,11.332,0,0,1-4.71-.96,8.291,8.291,0,0,1-3.39-2.7,6.657,6.657,0,0,1-1.2-2.49,18.443,18.443,0,0,1-.3-3.87V-26.58h2.4Z" transform="translate(5405 -3740.408)"/><path class="b" d="M-47.476-9.68v-3.432H-49.94v-5.1H-63.58v-1.672H-52.8v-8.1H-63.58v-1.54h15.928v-3.784H-63.58v-.836a.465.465,0,0,1,.264-.4c.4-.308.484-.352.484-.616s-.308-.352-.528-.4l-5.192-.66v2.9H-84.524v3.784h15.972v1.54H-79.376v8.1h10.824v1.672h-13.42v3.432h13.42v1.672H-84.524V-9.68h15.972v1.892h-13.42v3.432h13.42v1.32c0,.792-.66,1.012-1.364,1.012-.748,0-1.98-.132-3.124-.22l2.2,4.8c6.16-.044,7.26-1.188,7.26-3.74V-4.356h9.02v1.188h4.62V-9.68Zm-9.856-13.2H-63.58v-2.112h6.248Zm-11.22,0h-6.336v-2.112h6.336Zm13.992,9.768h-9.02v-1.672h9.02Zm0,5.324h-9.02V-9.68h9.02ZM-22.616-2.64V-23.364H-38.544V1.98h4.664V-6.908h6.512V-3.7c0,.748-.352,1.1-1.232,1.1a20.646,20.646,0,0,1-2.9-.264l1.848,5.016C-25.828,2.156-22.616,1.54-22.616-2.64Zm-4.752-14.432H-33.88v-2.42h6.512Zm0,6.292H-33.88V-13.2h6.512ZM-2.9-26.092V-30.14H-12.936c.308-.4,1.628-2.64,1.76-2.728a8.333,8.333,0,0,1,.792-.264c.264-.088.352-.22.352-.4a.479.479,0,0,0-.308-.44L-15.928-35.6A27.608,27.608,0,0,1-18.92-30.14h-8.624l1.628-.792a53.169,53.169,0,0,0-3.608-4.884l-4.8,2.112a35.509,35.509,0,0,1,2.728,3.564h-9.372v4.048ZM-4.4-23.32c0-.176-.22-.352-.528-.4l-5.456-.4V-4.444c0,1.188-.44,1.54-1.98,1.54-.924,0-1.716-.088-2.64-.176l2.332,4.928C-7.216,1.8-5.28,1.276-5.28-3.036V-22.044c0-.132.308-.484.616-.748A1,1,0,0,0-4.4-23.32Zm-9.152.66a.542.542,0,0,0-.572-.484l-5.236-.264V-5.676h4.752v-15.8c0-.176.088-.22.7-.66A.682.682,0,0,0-13.552-22.66Zm56.54,2.948a33.885,33.885,0,0,1-7.964-4.224c1.232-1.232,2.464-2.508,3.608-3.828.4-.44.484-.44,1.232-.484.22,0,.572,0,.572-.352,0-.22-.176-.4-.924-.792l-3.344-1.76a38.944,38.944,0,0,1-4.224,4.532,11.322,11.322,0,0,1-.924-1.056c.616-.7,3.3-3.828,3.872-4.488.132-.044.88-.132,1.012-.176.176,0,.352-.044.352-.308,0-.352-.528-.66-.88-.836L31.944-35.2a31.523,31.523,0,0,1-3.388,3.828,20.018,20.018,0,0,1-1.892-4.18L22.22-34.144A28.077,28.077,0,0,0,27.9-24.728H16.676a28.8,28.8,0,0,0,5.016-8.008L20.24-34.5H7.04v4.048h7.92a16.824,16.824,0,0,1-2.684,3.784,22.472,22.472,0,0,0-4.224-3.168L4.708-26.488a19.85,19.85,0,0,1,4.18,3.124A36.222,36.222,0,0,1,.748-18.3l4.488,3.256a31.684,31.684,0,0,0,4.708-3.08V-7.48h5.588l-2.64.792a38.587,38.587,0,0,1,1.716,3.52H3.916V1.144H40.128V-3.168H29.216c.4-.748.7-1.452,1.056-2.244.528-.132,1.012-.22,1.012-.66,0-.484-.44-.572-.66-.616L27.236-7.48H34.1V-18.788H10.78a35.969,35.969,0,0,0,4-3.828v2.068H30.008V-22.44A33.411,33.411,0,0,0,38.9-15.928Zm-13.9,8.448H14.96V-15H29.084ZM26-7.48a17.869,17.869,0,0,1-1.98,4.312H17.556L19.668-3.7a13.959,13.959,0,0,0-1.76-3.784ZM63.976-28.732a19.878,19.878,0,0,1-5.808-4.928.454.454,0,0,0,.176-.352c0-.44-.572-.748-.792-.792l-3.74-.836a20.4,20.4,0,0,1-8.1,9.24l3.3,3.256a6.371,6.371,0,0,0,.748-.792v2.86h3.608v2.6H47.96v4.532h5.412v9.724c-2.112.176-4.356.4-6.512.484L47.212.836c.044.4.088,1.188.572,1.188.308,0,1.144-1.1,1.408-1.188.176-.088,2.86-.528,3.3-.616,6.116-1.056,8.36-1.54,9.812-1.892l.352-4.092A36.452,36.452,0,0,1,57.9-4.8v-9.152h4.268V-18.48H57.9v-2.6h3.432v-4.532Zm22.4,24.86c-5.148-2.86-9.02-6.776-10.12-9.02v-4.136h8.58V-21.3h-2.42V-34.452H64.46v4.224H77.616v2.376H66.44V-23.8H77.616V-21.3H63.624v4.268h7.92v7A25.588,25.588,0,0,1,63.36-6.16l.748,3.784c.044.22.22,1.1.7,1.1.22,0,.352-.308.528-.66.22-.4.264-.484,1.54-1.056a42.283,42.283,0,0,0,4.664-2.464v1.32c0,1.056-.572,1.232-1.408,1.232-1.276,0-2.288-.132-2.86-.176l1.892,4.972c5.544-.088,7.084-.44,7.084-3.74v-4.62A22.69,22.69,0,0,0,83.16-.132ZM64.24-11.22c0-.044,0-.484-.968-.7L59.8-12.76A19.126,19.126,0,0,1,58.08-6.512l3.828.88a22.186,22.186,0,0,0,1.32-5.06C63.624-10.78,64.24-10.912,64.24-11.22Zm-3.7-14.388H51.92A32.555,32.555,0,0,0,55.792-30.1,28.257,28.257,0,0,0,60.544-25.608ZM85.008-13.6c0-.132,0-.4-.616-.7L80.74-16.236A17.652,17.652,0,0,1,77.66-11.7l3.652,2.376A22.336,22.336,0,0,0,84-13.2C84.48-13.244,85.008-13.288,85.008-13.6Zm-13.9,2.86A23.772,23.772,0,0,0,67.5-15.928l-3.608,2.156a22.344,22.344,0,0,1,3.3,5.06ZM53.02-5.984a25.929,25.929,0,0,0-1.8-6.908l-3.784,1.364a45.307,45.307,0,0,1,1.892,6.6Zm-257,52.536c0-5.192-2.992-8.448-7.92-10.12l.7-2.024-5.06-1.1c-.176.836-.308,1.408-.528,2.288a19.435,19.435,0,0,0-4.8.352c.22-1.76.264-1.98.528-3.608a61.04,61.04,0,0,0,11.616-2.332V25.3a42.951,42.951,0,0,1-10.78,2.948,31.894,31.894,0,0,1,1.364-4.312c.484-.132,1.012-.264,1.012-.66,0-.132,0-.352-1.1-.66l-4.576-1.232a72.547,72.547,0,0,0-1.628,7.436,62.18,62.18,0,0,1-8.36-.308l1.452,4.356c2.376,0,3.52,0,6.292-.132-.22,2.068-.352,3.168-.44,4.884-7.964,4.4-9.592,10.56-9.592,13.552,0,3.564,2.068,5.72,4.84,5.72a12.364,12.364,0,0,0,6.292-2.2,9.744,9.744,0,0,0,.616,1.628l4.224-2.288c-.44-1.408-.528-1.584-.836-2.64A39.723,39.723,0,0,0-213.488,40.3a6.266,6.266,0,0,1,4.4,6.072,8.288,8.288,0,0,1-2.552,6.072,12.765,12.765,0,0,1-7.524,3.124l3.212,4.048C-212.916,58.74-203.984,56.232-203.984,46.552Zm-14.124-7.172a35.438,35.438,0,0,1-3.608,6.82,44.656,44.656,0,0,1-.22-6.336A10.2,10.2,0,0,1-218.108,39.38Zm-7.524,11.044c-.968.748-2.376,1.892-4.092,1.892-.748,0-1.628-.264-1.628-2.068s1.1-4.576,5.06-7.876A62.72,62.72,0,0,0-225.632,50.424ZM-163.68,36.7c0-2.9-.264-6.16-.528-9.24-.044-.44-.264-2.288-.264-2.684s.792-.66.792-1.056c0-.572-.792-.572-.924-.572h-5.324a114.8,114.8,0,0,1,1.1,13.684,26.743,26.743,0,0,1-2.684,11.792,19.42,19.42,0,0,1-6.248,7.436l5.236,2.772a29.46,29.46,0,0,0,6.16-9.02A32.455,32.455,0,0,0-163.68,36.7ZM-177.8,35.332l-3.08-2.024c-1.1,2.464-1.98,4.752-2.552,6.248a9.913,9.913,0,0,1-.308-2.728c0-2.64.7-11.044,1.628-11.792.176-.176.616-.352.616-.66,0-.44-.66-.528-.924-.528l-4.8-.264a83.282,83.282,0,0,0-1.232,13.024,34.688,34.688,0,0,0,1.98,11.968h3.74A101.893,101.893,0,0,1-177.8,35.332Zm67.716-8.58a20.043,20.043,0,0,0-3.432-3.7l-2.288,1.672a17.471,17.471,0,0,1,3.124,3.784Zm-4.8,2.464a27.107,27.107,0,0,0-3.388-3.74l-2.376,1.76a19.658,19.658,0,0,1,3.476,3.872Zm-.7,11.88c0-4.664-5.984-11.748-8.008-14.168l-3.564,2.464c4.664,5.412,6.336,9.02,6.336,10.12,0,1.056-.924,1.276-2.508,1.5l2.332,4.18C-119.372,44.968-115.588,44.44-115.588,41.1Zm-9.988.044c0-3.916-.528-9.152-6.468-9.152a18.383,18.383,0,0,0-3.212.308c.352-1.98.44-2.772.66-4.532.088-.572.088-.572.616-.924.44-.264.484-.308.484-.484,0-.352-.484-.572-1.056-.66l-5.28-.748a52.658,52.658,0,0,1-.44,8.36c-3.608.792-5.1,1.1-8.448,1.628l1.628,5.28a39.409,39.409,0,0,1,5.984-2.376A46.7,46.7,0,0,1-149.072,55l4.576,2.068c4-6.072,6.116-11.352,8.36-20.372a14.56,14.56,0,0,1,2.376-.22c2.728,0,3.564,1.056,3.564,4.444,0,2.112-.352,7.656-2.332,10.12a3.422,3.422,0,0,1-3.036,1.232,12.95,12.95,0,0,1-2.992-.352l1.056,4.752a30.964,30.964,0,0,0,3.3.176c2.64,0,4.092-.792,5.016-1.716C-127.116,53.152-125.576,47.476-125.576,41.14Zm50.6,16.1V51.612a57.022,57.022,0,0,1-13.6,1.98c-4.62,0-8.1-1.54-8.1-4.708,0-2.948,3.256-5.192,5.236-6.424a66.2,66.2,0,0,1,16.28-6.952L-76.78,30.14c-5.412,2.552-5.984,2.816-11.044,5.192a5.357,5.357,0,0,1-2.552-2.992c-1.188-3.3-1.232-7.964-1.276-10.428l-5.632.836c1.408,8.4,1.628,9.68,2.244,11.132a13.856,13.856,0,0,0,2.6,3.96c-4.84,2.86-9.108,5.676-9.108,11.176a8.383,8.383,0,0,0,4.488,7.524c2.2,1.144,4.488,1.76,9.68,1.76A78.928,78.928,0,0,0-74.976,57.244ZM-37.62,22.528a52.25,52.25,0,0,1-13.2-1.54l.4,5.412a119.911,119.911,0,0,0,12.188,1.1Zm5.676,17.512c0-1.848-.308-4.488-1.892-6.248a7.861,7.861,0,0,0-5.852-2.42c-5.632,0-14.036,3.344-17.292,4.62l2.024,5.1c3.212-1.584,10.3-5.1,13.948-5.1,1.364,0,3.96.792,3.96,4.664a13.5,13.5,0,0,1-3.212,8.4c-3.652,4.444-8.4,5.852-11,6.6l3.388,4.224c2.992-1.1,7.7-2.772,11.44-7.3A19.716,19.716,0,0,0-31.944,40.04ZM20.328,24.464a20.383,20.383,0,0,0-3.74-3.608L14.7,22.836a18.592,18.592,0,0,1,3.608,3.74ZM17.864,29.48a18.825,18.825,0,0,0-3.652-3.916l-1.892,1.98a18.143,18.143,0,0,1,3.652,3.916ZM11.088,29l-1.98-3.564a69.915,69.915,0,0,1-10.032.7,77.848,77.848,0,0,1-11.088-.792l1.32,4.84c2.068.132,3.344.176,5.984.176,3.344,0,4.884-.088,6.776-.22-1.672,1.54-3.432,3.124-4.444,4L.66,37.312C4.268,34.232,7.656,31.372,11.088,29Zm2.068,26.136-.308-5.28A61.437,61.437,0,0,1-.748,51.26c-7.48,0-7.788-1.232-7.788-2.464,0-1.584,1.76-3.124,2.464-3.7L-9.9,41.976c-1.32,1.188-4.268,3.828-4.268,7.788,0,4.444,4.224,6.292,14.168,6.292A107.4,107.4,0,0,0,13.156,55.132ZM63.228,21.6a26.591,26.591,0,0,0-4.092-2.948l-1.584,2.112a25.92,25.92,0,0,1,3.872,2.992ZM58.52,23.848A26.052,26.052,0,0,0,54.252,20.9l-1.584,2.2A25.845,25.845,0,0,1,56.8,26.092ZM56.892,43.824C53.5,41.1,51.3,38.368,48.048,32.912a44.419,44.419,0,0,0,6.468-3.52L52.1,25.3a28.353,28.353,0,0,1-6.072,3.784,32.668,32.668,0,0,1-2.112-5.148c0-.22.616-1.144.616-1.364,0-.4-1.012-.22-1.188-.176l-4.576.968a48.844,48.844,0,0,0,3.212,7.392A48.862,48.862,0,0,1,29.744,33.44l2.86,4.4A86.089,86.089,0,0,0,44.044,34.5a52.471,52.471,0,0,0,4.664,6.864,16.359,16.359,0,0,0-5.148-.836c-4.84,0-10.208,2.992-10.208,8.8,0,5.5,4.576,9.152,11.924,9.152a47.907,47.907,0,0,0,8.316-.748l-1.1-4.928a23.19,23.19,0,0,1-7.348,1.056c-2.816,0-6.952-.264-6.952-4.4,0-3.036,2.992-4.84,6.776-4.84A16.406,16.406,0,0,1,54.3,47.564Zm49.5,2.156a37.406,37.406,0,0,0-7.216-18.7l-4.532,2.2a40.917,40.917,0,0,1,6.468,17.864Zm-19.4-.66-3.652-3.256c-.836,2.112-2.64,6.776-4.224,6.776-.88,0-2.992-1.584-2.992-10.164a45.61,45.61,0,0,1,.836-9.812c.748-.264,1.276-.44,1.276-.924,0-.528-.7-.748-1.012-.836l-4.84-1.32a42.853,42.853,0,0,0-1.32,11.44c0,8.36,1.408,13.508,4.488,16.5A4.8,4.8,0,0,0,78.8,55.176C82.368,55.176,84.568,50.512,86.988,45.32ZM145.9,52.052a36.579,36.579,0,0,0-11.132-4.972c-.132-2.6-.132-3.036-.22-5.236a94.58,94.58,0,0,0,9.416-1.1v-4.8c-4.048.748-5.676,1.012-9.5,1.5V32.252c2.2-.044,6.292-.132,11.176-.132l.176-4.664c-4.136.308-5.632.4-11.264.66.044-2.288.088-3.124.088-3.168a1.43,1.43,0,0,1,.572-.792c.484-.4.572-.44.572-.616,0-.308-.264-.44-1.1-.528l-5.368-.528.132,5.852c-3.916.088-6.292.176-11.308.176l.088,4.752c3.784-.44,6.292-.616,11.352-.836l.088,5.5a30.2,30.2,0,0,1-3.036.088c-.748,0-1.672,0-1.672-.616,0-.572.66-1.056,1.452-1.628L123.9,33.616c-1.716,1.232-4.708,3.3-4.708,5.456,0,1.716,2.024,3.168,6.072,3.168,1.276,0,3.7-.088,4.488-.132l.088,4.224-1.232-.044c-9.9-.352-10.34,4.752-10.34,6.028,0,3.564,3.784,5.72,9.856,5.72,5.632,0,6.688-1.76,6.864-6.248a33.168,33.168,0,0,1,8.052,4.356Zm-16.016-1.54c.044,2.464-.132,3.256-2.992,3.256-.528,0-3.344,0-3.344-1.5,0-1.144,1.408-1.892,4.268-1.892A11.39,11.39,0,0,1,129.888,50.512Zm61.952-4.048L187.528,42.9c-4.312,8.448-10.208,9.988-12.672,9.988a4.243,4.243,0,0,1-3.872-1.848c-.836-1.5-.836-5.764-.836-7.788a166.3,166.3,0,0,1,1.232-17.6c.7-.572,1.232-.924,1.232-1.276,0-.264-.4-.572-1.452-.7l-5.852-.836c.132,2.948-.22,16.016-.22,18.7,0,10.56.7,12.8,2.772,14.608a9.787,9.787,0,0,0,6.424,2.244,15.9,15.9,0,0,0,8.756-2.816C187.4,52.756,190.036,48.972,191.84,46.464Zm44-5.28V36.52a50.529,50.529,0,0,0-5.808-.264c-2.332,0-4.532.132-6.82.308v4.62a53.925,53.925,0,0,1,6.6-.484A47.818,47.818,0,0,1,235.84,41.184ZM225.9,32.34V27.456a34.413,34.413,0,0,1-7,2.6c.308-1.232.66-2.816,1.056-4.8.088-.44.176-.484.748-.748.4-.176.528-.308.528-.616,0-.484-1.012-.7-1.1-.7l-5.412-1.276a53.431,53.431,0,0,1-1.5,9.328,31.924,31.924,0,0,1-4.356.264,17.753,17.753,0,0,1-3.564-.264l.352,4.576a58.011,58.011,0,0,0,6.556-.528c-3.476,11.924-6.292,16.676-8.932,20.944l5.368,1.628a124.783,124.783,0,0,0,9.064-23.408A53.1,53.1,0,0,0,225.9,32.34Zm10.648,25.168-.44-5.1a28.967,28.967,0,0,1-7.744.968c-1.012,0-4.356-.044-5.588-1.188a1.511,1.511,0,0,1-.528-1.32,8.32,8.32,0,0,1,.176-1.628l-4.356-.924a10.2,10.2,0,0,0-.528,3.168c0,4.488,3.388,6.688,11.308,6.688A42.558,42.558,0,0,0,236.544,57.508Z" transform="translate(5405 -3711)"/></g></svg>