<svg xmlns="http://www.w3.org/2000/svg" width="258.318" height="199.918" viewBox="0 0 258.318 199.918"><defs><style>.a{fill:#2f2f2f;}.b{fill:#2a2a2a;}</style></defs><g transform="translate(-58.242 -3134.072)"><path class="a" d="M39.31,15.406V8.152H28.618v8.712h2.034V14.2h6.66v.612c0,.342-.378.378-.648.378-.468,0-.918-.036-1.278-.072l.7,1.89h.45C37.006,17.008,39.31,17.008,39.31,15.406ZM41.776,4.174v-1.6H35.242V2.14c0-.072.054-.126.252-.324a.219.219,0,0,0,.108-.18c0-.162-.144-.216-.45-.234l-2.286-.126v1.3H26.242v1.6H31.21a12.258,12.258,0,0,1-.72,1.548c-.846,0-1.728-.018-3.8-.036l.2,1.926c.018.054.054.342.216.342.09,0,.126-.054.378-.342.126-.144.18-.144.756-.162.936-.036,5.112-.126,5.958-.162,1.476-.054,2.9-.126,4.374-.234A14.112,14.112,0,0,1,40.1,8.368l1.35-1.458a21.828,21.828,0,0,0-3.78-2.736Zm-4.464,6.354h-6.66V9.7h6.66Zm0,2.268h-6.66v-.864h6.66Zm-.738-7.128c-1.638.036-2.664.036-3.888.036.342-.4.63-.738,1.206-1.53H36.5l-.774.99A9.543,9.543,0,0,1,36.574,5.668Zm21.708,3.69V1.906H49.03V9.358ZM56.266,4.822H51.028V3.688h5.238Zm0,2.9H51.028V6.5h5.238ZM59.758,13.7,57.94,12.6a6.737,6.737,0,0,1-.216,1.53c-.162.522-.414.558-.666.558h-1.98c-.594,0-.81-.162-.81-.612v-3.4c0-.09.054-.144.216-.252.09-.072.162-.144.162-.234,0-.126-.126-.216-.468-.216l-1.89-.036v5.238c0,1.116.828,1.476,1.89,1.476h3.276C59.416,16.648,59.614,14.938,59.758,13.7Zm-11.7-11.61c0-.234-.414-.252-.522-.252l-1.908-.09V9.826h2.016V2.554c0-.054.036-.09.18-.2C47.932,2.284,48.058,2.212,48.058,2.086Zm3.294,8.334c0-.126-.072-.216-.414-.27l-2-.306a5.2,5.2,0,0,1-5.058,5.31L45.3,17.008a6.993,6.993,0,0,0,5.562-6.156c.036-.09.09-.126.342-.27C51.316,10.528,51.352,10.474,51.352,10.42ZM76.282,9,75.67,6.946c-.846.378-1.08.486-3.186,1.476A2.412,2.412,0,0,0,70.036,6.6a3.481,3.481,0,0,0-1.548.378c.306-.468.45-.72,1.026-1.782a37.889,37.889,0,0,0,4.3-.684L73.942,2.5a15.2,15.2,0,0,1-3.528.918c.09-.2.54-1.206.558-1.224.018,0,.378-.162.414-.18.108-.036.18-.09.18-.2,0-.126-.306-.162-.36-.18l-2.25-.4a13.959,13.959,0,0,1-.9,2.394,25.317,25.317,0,0,1-3.438-.072l.216,1.872c.756,0,1.314-.018,2.34-.072a23.933,23.933,0,0,1-3.546,4.95l1.764,1.1c.99-1.62,2.07-3.258,3.834-3.258A1.247,1.247,0,0,1,70.594,9.34c-2.7,1.386-4.356,2.232-4.356,4.464a2.461,2.461,0,0,0,.684,1.764c1.134,1.206,3.222,1.206,4.23,1.206a29.79,29.79,0,0,0,4.284-.27V14.47a20.812,20.812,0,0,1-4.59.576c-1.314,0-2.7-.234-2.7-1.4,0-1.26,1.872-2.2,2.556-2.538-.018.792-.036,1.674-.09,2.7H72.7c0-.612-.036-2.844-.036-3.546C74,9.754,74.86,9.448,76.282,9Zm18.2,2.61L92.716,10.15c-1.764,3.456-4.176,4.086-5.184,4.086a1.736,1.736,0,0,1-1.584-.756,9.478,9.478,0,0,1-.342-3.186,68.034,68.034,0,0,1,.5-7.2c.288-.234.5-.378.5-.522,0-.108-.162-.234-.594-.288l-2.394-.342c.054,1.206-.09,6.552-.09,7.65,0,4.32.288,5.238,1.134,5.976a4,4,0,0,0,2.628.918,6.506,6.506,0,0,0,3.582-1.152A13.43,13.43,0,0,0,94.48,11.608Zm17.946-7.4V2.05A54.5,54.5,0,0,1,99.3,3.724l.36,2.124a68.827,68.827,0,0,1,6.858-.774c-.846.792-3.492,3.276-3.492,6.354,0,4.014,4.5,4.95,5.958,5.256l.63-2.268a5.343,5.343,0,0,1-3.132-.864,3.084,3.084,0,0,1-1.332-2.52c0-1.8,1.494-3.8,3.078-5.076A6.967,6.967,0,0,1,112.426,4.21Zm19.1,7.2a15.3,15.3,0,0,0-2.952-7.65l-1.854.9a16.739,16.739,0,0,1,2.646,7.308Zm-7.938-.27-1.494-1.332c-.342.864-1.08,2.772-1.728,2.772-.36,0-1.224-.648-1.224-4.158a18.658,18.658,0,0,1,.342-4.014c.306-.108.522-.18.522-.378,0-.216-.288-.306-.414-.342l-1.98-.54a17.53,17.53,0,0,0-.54,4.68c0,3.42.576,5.526,1.836,6.75a1.963,1.963,0,0,0,1.332.594C121.7,15.172,122.6,13.264,123.586,11.14Zm24.84-6.93V2.05A54.5,54.5,0,0,1,135.3,3.724l.36,2.124a68.827,68.827,0,0,1,6.858-.774c-.846.792-3.492,3.276-3.492,6.354,0,4.014,4.5,4.95,5.958,5.256l.63-2.268a5.343,5.343,0,0,1-3.132-.864,3.084,3.084,0,0,1-1.332-2.52c0-1.8,1.494-3.8,3.078-5.076A6.967,6.967,0,0,1,148.426,4.21Zm3.69,8.838a14.8,14.8,0,0,1,3.474,4l1.872-1.494a10.588,10.588,0,0,0-4-3.906Zm21.708-8.6-.846-1.512a29.2,29.2,0,0,1-3.96.216,29.2,29.2,0,0,1-4.86-.414l.486,2.07c1.062.09,2.286.108,5.274.108L168.082,6.46,169.4,7.882C170.386,7.054,172.24,5.524,173.824,4.444Zm.72,10.89-.108-2.232a24.018,24.018,0,0,1-5.616.486c-.792,0-2.556,0-3.06-.432a.667.667,0,0,1-.252-.576c0-.612.612-1.17,1.062-1.548l-1.656-1.35a4.723,4.723,0,0,0-1.8,3.438,1.72,1.72,0,0,0,.594,1.4c1.044.99,3.618,1.134,5.22,1.134C171.016,15.658,172.96,15.478,174.544,15.334Zm19.872-2.376-1.17-1.728c-.666.972-1.944,2.736-3.186,2.736-.45,0-.738-.216-.738-.846,0-.45.414-2.43.414-2.844a2.066,2.066,0,0,0-2.25-2.178,5.281,5.281,0,0,0-1.8.378,19.626,19.626,0,0,1,2.646-4.824,3.237,3.237,0,0,1,.4-.108.191.191,0,0,0,.144-.162c0-.18-.324-.342-.432-.4l-2.034-1.08c-.234.576-.486,1.152-1.1,2.466-.81,1.728-1.26,2.61-5.6,11l2.214.63a14.848,14.848,0,0,1,2.268-4.5,3.535,3.535,0,0,1,2.394-1.35.866.866,0,0,1,.936.954c0,.288-.36,2.376-.36,2.826a2.207,2.207,0,0,0,2.466,2.214C192.328,16.144,193.75,13.984,194.416,12.958Zm16.758.918a16.532,16.532,0,0,0-3.1-1.638,17.837,17.837,0,0,1-.234-2.5,1.649,1.649,0,0,1,.684-1.44l-1.872-1.008a2.719,2.719,0,0,0-.774,1.836c0,.378.216,2.214.252,2.628a9.084,9.084,0,0,0-1.4-.108c-2.484,0-3.186,1.584-3.186,2.556a2.038,2.038,0,0,0,.666,1.53,4.278,4.278,0,0,0,2.934.846c2.358,0,2.9-.756,3.06-2.2a9.908,9.908,0,0,1,1.782,1.188Zm-4.95-.324c0,.648.018,1.4-1.44,1.4-.99,0-1.494-.414-1.494-.81,0-.36.432-.864,1.368-.864A6.045,6.045,0,0,1,206.224,13.552Zm5.454-7.2A8.9,8.9,0,0,0,207.664,4.7l-.81,1.548A12.74,12.74,0,0,1,210.8,7.882Zm-5.364-.936V3.4c-.468.162-1.008.342-2.07.612.072-.234.414-1.386.432-1.4.108-.108.414-.216.414-.4,0-.2-.342-.288-.432-.306L202.7,1.474a17.174,17.174,0,0,1-.648,2.97,23.962,23.962,0,0,1-3.06.234l.27,1.872c.846-.054,1.35-.108,2.178-.216a30.876,30.876,0,0,1-3.078,6.552l1.926.828a43.9,43.9,0,0,0,3.33-7.722C205.144,5.722,205.7,5.578,206.314,5.416Zm10.458,8.676a7.265,7.265,0,0,1,.54-.522c1.638,1.728,2.088,2.214,2.862,3.042l1.908-.756c.018-2.2.018-2.52.036-5.382a8.069,8.069,0,0,1,2.736-.63,2.363,2.363,0,0,1,2.5,2.394c0,1.26-.738,1.908-1.386,1.908-.558,0-.7-.468-.918-1.206l-1.674.666c.252,1.314.5,2.556,2.484,2.556,1.926,0,3.366-1.746,3.366-3.96a4,4,0,0,0-4.338-4.1,9.967,9.967,0,0,0-2.772.414l.018-1.782a15.694,15.694,0,0,0,2.808-.774V3.9a11.424,11.424,0,0,1-2.772.936c.018-.342.072-2.106.144-2.214.036-.054.306-.27.306-.342,0-.09,0-.216-.5-.288l-2-.27c.018,1.17.018,1.332.036,3.366-.522.036-.792.054-1.242.054a14.5,14.5,0,0,1-1.764-.09l.27,2.034A17.665,17.665,0,0,0,220.156,7l.018,2.322a51.565,51.565,0,0,0-4.5,2.754Zm3.4.144a15.134,15.134,0,0,1-1.638-1.692,18.465,18.465,0,0,1,1.638-1.1ZM230.6,6.622a13.241,13.241,0,0,0-3.546-2.034l-1.17,1.584a10.47,10.47,0,0,1,3.546,2.052Zm18.252,2.34c0-.162-.2-.2-.432-.216l-1.89-.09V14.38H240.46V13.372l1.476.99a13.18,13.18,0,0,0,1.746-1.836,18.73,18.73,0,0,1,1.1,1.656l1.71-1.242A15.442,15.442,0,0,0,245,10.78,11.055,11.055,0,0,0,246.184,8.6c.036-.072.252-.126.4-.18a.194.194,0,0,0,.144-.18c0-.18-.306-.306-.522-.36l-1.728-.468a7.348,7.348,0,0,1-.792,1.836,11.526,11.526,0,0,0-1.458-1.3L240.874,9a1.589,1.589,0,0,0-.666-.18l-1.674-.09v8.01h1.926V16.2h6.066v.522h1.926V9.574A.566.566,0,0,1,248.7,9.2C248.758,9.142,248.848,9.052,248.848,8.962Zm-6.354,2.052a6.623,6.623,0,0,1-2.034,1.728V9.574c0-.18.162-.252.288-.324A13.225,13.225,0,0,1,242.494,11.014Zm6.624-8.406c0-.18-.234-.27-.45-.324l-2.034-.558a33.2,33.2,0,0,1-2.016,4.95l2.034.684a24.006,24.006,0,0,0,1.872-4.248.56.56,0,0,1,.378-.306C249.01,2.77,249.118,2.734,249.118,2.608Zm-4.356,3.06a19.41,19.41,0,0,0-1.224-4.1l-1.854.576a16.073,16.073,0,0,1,1.332,3.978Zm-2.736.684a15.359,15.359,0,0,0-1.692-4.158l-1.71.756a13.033,13.033,0,0,1,1.656,4.032Zm-2.412.99a9.379,9.379,0,0,0-1.242-2.97l-.954.36V2.41c.2-.126.4-.27.4-.432,0-.18-.144-.27-.612-.306l-1.764-.144V4.8a1.738,1.738,0,0,0-.324-.054L233.6,4.642a15.225,15.225,0,0,1-.684,4.464l1.8.144a14.925,14.925,0,0,0,.54-3.978c.072-.036.09-.054.18-.108v11.61h1.98V6.118a5.706,5.706,0,0,1,.666,2.052Zm26.748,4.014c-.774-.5-1.332-.846-2.322-1.4a21.734,21.734,0,0,0,.612-2.682c.054-.252.054-.288.2-.378.252-.126.27-.144.27-.234,0-.162-.252-.252-.432-.306l-2.016-.558a15.3,15.3,0,0,1-.468,3.294,11.583,11.583,0,0,0-3.474-.828c.252-.558,1.53-3.456,1.548-3.528a7.338,7.338,0,0,1,.936-1.53l-1.188-1.188c-.972.63-3.1.99-5.868.972l.81,1.818a12.563,12.563,0,0,0,3.276-.558,41.681,41.681,0,0,1-1.458,3.906,4.857,4.857,0,0,0-2.862.864A4.473,4.473,0,0,0,251.8,12.58a2.1,2.1,0,0,0,2.034,2.322c1.584,0,2.358-1.152,4.14-4.968a11.144,11.144,0,0,1,3.6,1.008,8.707,8.707,0,0,1-3.582,4.23l1.782,1.242a10.038,10.038,0,0,0,3.564-4.482c.414.27.918.612,1.872,1.35ZM255.976,9.988a20.437,20.437,0,0,1-1.188,2.232.821.821,0,0,1-.756.432c-.126,0-.36-.018-.36-.486C253.672,11.5,254.428,10.474,255.976,9.988Zm28.584,3.4a14.406,14.406,0,0,0-3.1-1.692,44.222,44.222,0,0,1-.252-4.824,16.817,16.817,0,0,0,2.25-.5V4.426a7.859,7.859,0,0,1-2.232.738,20.765,20.765,0,0,1,.252-2.232c.18-.108.342-.2.342-.288,0-.108-.054-.2-.432-.252l-2.016-.324c-.036,1.782-.036,1.98-.072,3.33a14.25,14.25,0,0,1-1.674.108,9.369,9.369,0,0,1-1.62-.108l.018,1.854a20.008,20.008,0,0,0,3.258-.144c.036,1.224.09,1.98.234,4.122-.36-.036-.738-.072-1.1-.072-1.746,0-3.168.7-3.168,2.322,0,2.592,3.024,2.592,3.546,2.592,2.448,0,2.808-.936,2.844-2.322a9.63,9.63,0,0,1,1.89,1.422Zm-10.278-1.584-1.134-.774-.738,1.08a17.736,17.736,0,0,1-.09-1.89,45.74,45.74,0,0,1,.666-5.58,5.147,5.147,0,0,1,.4-1.224,2.767,2.767,0,0,0,.342-.144.156.156,0,0,0,.072-.126c0-.18-.378-.342-.432-.36L271.618,2.1a34.122,34.122,0,0,0-1.1,8.424,19.363,19.363,0,0,0,.684,5.58l1.656-.27A15.809,15.809,0,0,1,274.282,11.806Zm5.346,1.134c.036.936.072,1.35-1.116,1.35-1.062,0-1.584-.378-1.584-.792s.576-.72,1.422-.72A6.191,6.191,0,0,1,279.628,12.94Zm-171.576,25.7c0-2.124-1.224-3.456-3.24-4.14l.288-.828-2.07-.45c-.072.342-.126.576-.216.936a7.951,7.951,0,0,0-1.962.144c.09-.72.108-.81.216-1.476a24.971,24.971,0,0,0,4.752-.954V29.95a17.571,17.571,0,0,1-4.41,1.206,13.046,13.046,0,0,1,.558-1.764c.2-.054.414-.108.414-.27,0-.054,0-.144-.45-.27l-1.872-.5a29.68,29.68,0,0,0-.666,3.042,25.437,25.437,0,0,1-3.42-.126l.594,1.782c.972,0,1.44,0,2.574-.054-.09.846-.144,1.3-.18,2-3.258,1.8-3.924,4.32-3.924,5.544a2.062,2.062,0,0,0,1.98,2.34,5.058,5.058,0,0,0,2.574-.9,3.985,3.985,0,0,0,.252.666l1.728-.936c-.18-.576-.216-.648-.342-1.08a16.25,16.25,0,0,0,2.934-4.536,2.563,2.563,0,0,1,1.8,2.484,3.391,3.391,0,0,1-1.044,2.484,5.222,5.222,0,0,1-3.078,1.278l1.314,1.656C104.4,43.63,108.052,42.6,108.052,38.644Zm-5.778-2.934A14.5,14.5,0,0,1,100.8,38.5a18.267,18.267,0,0,1-.09-2.592A4.171,4.171,0,0,1,102.274,35.71ZM99.2,40.228A2.858,2.858,0,0,1,97.522,41c-.306,0-.666-.108-.666-.846s.45-1.872,2.07-3.222A25.658,25.658,0,0,0,99.2,40.228Zm25.344-5.616c0-1.188-.108-2.52-.216-3.78-.018-.18-.108-.936-.108-1.1s.324-.27.324-.432c0-.234-.324-.234-.378-.234h-2.178a46.965,46.965,0,0,1,.45,5.6,10.94,10.94,0,0,1-1.1,4.824,7.944,7.944,0,0,1-2.556,3.042l2.142,1.134a12.052,12.052,0,0,0,2.52-3.69A13.277,13.277,0,0,0,124.54,34.612Zm-5.778-.558-1.26-.828c-.45,1.008-.81,1.944-1.044,2.556a4.055,4.055,0,0,1-.126-1.116c0-1.08.288-4.518.666-4.824.072-.072.252-.144.252-.27,0-.18-.27-.216-.378-.216l-1.962-.108a34.069,34.069,0,0,0-.5,5.328,14.191,14.191,0,0,0,.81,4.9h1.53A41.683,41.683,0,0,1,118.762,34.054Zm24.426,6.84a14.964,14.964,0,0,0-4.554-2.034c-.054-1.062-.054-1.242-.09-2.142a38.69,38.69,0,0,0,3.852-.45V34.306c-1.656.306-2.322.414-3.888.612V32.794c.9-.018,2.574-.054,4.572-.054l.072-1.908c-1.692.126-2.3.162-4.608.27.018-.936.036-1.278.036-1.3a.585.585,0,0,1,.234-.324c.2-.162.234-.18.234-.252,0-.126-.108-.18-.45-.216l-2.2-.216.054,2.394c-1.6.036-2.574.072-4.626.072l.036,1.944c1.548-.18,2.574-.252,4.644-.342l.036,2.25a12.353,12.353,0,0,1-1.242.036c-.306,0-.684,0-.684-.252,0-.234.27-.432.594-.666l-1.026-.882c-.7.5-1.926,1.35-1.926,2.232,0,.7.828,1.3,2.484,1.3.522,0,1.512-.036,1.836-.054l.036,1.728-.5-.018c-4.05-.144-4.23,1.944-4.23,2.466,0,1.458,1.548,2.34,4.032,2.34,2.3,0,2.736-.72,2.808-2.556a13.569,13.569,0,0,1,3.294,1.782Zm-6.552-.63c.018,1.008-.054,1.332-1.224,1.332-.216,0-1.368,0-1.368-.612,0-.468.576-.774,1.746-.774A4.66,4.66,0,0,1,136.636,40.264Zm25.974-5.9-.018-1.98c-1.656.27-2.232.342-3.24.486l.09-2.682c.018-.072.018-.126.162-.216.162-.108.2-.144.2-.234,0-.108,0-.216-.594-.288l-1.836-.216a27.073,27.073,0,0,1,.162,3.87c-2.07.288-2.736.36-3.816.486,0-2.07.018-2.178.036-2.466,0-.036.018-.144.18-.27.27-.18.306-.2.306-.288,0-.234-.234-.252-.612-.306l-2.034-.27c.09,1.26.108,3.114.108,3.852-1.35.144-1.89.2-3.312.324l.072,1.98c1.62-.252,1.8-.27,3.24-.486l.018,2.466c.018,3.348.5,4.608,4.554,4.608a40.472,40.472,0,0,0,4.824-.27l.162-2.16a15.4,15.4,0,0,1-4.626.63c-2.664,0-2.988-.522-2.988-2.574,0-.108,0-1.188.036-2.988,1.62-.216,1.926-.27,3.834-.5,0,1.962-.054,2.286-1.152,2.286a4.329,4.329,0,0,1-1.062-.126l.45,1.89a6.289,6.289,0,0,0,1.044.072c1.35,0,1.926-.4,2.2-1.152a11.86,11.86,0,0,0,.306-3.168C160.99,34.468,161.818,34.4,162.61,34.36Zm18.306,5.6-1.17-1.728c-.666.972-1.944,2.736-3.186,2.736-.45,0-.738-.216-.738-.846,0-.45.414-2.43.414-2.844a2.066,2.066,0,0,0-2.25-2.178,5.281,5.281,0,0,0-1.8.378,19.626,19.626,0,0,1,2.646-4.824,3.237,3.237,0,0,1,.4-.108.191.191,0,0,0,.144-.162c0-.18-.324-.342-.432-.4l-2.034-1.08c-.234.576-.486,1.152-1.1,2.466-.81,1.728-1.26,2.61-5.6,11l2.214.63a14.848,14.848,0,0,1,2.268-4.5,3.535,3.535,0,0,1,2.394-1.35.866.866,0,0,1,.936.954c0,.288-.36,2.376-.36,2.826a2.207,2.207,0,0,0,2.466,2.214C178.828,43.144,180.25,40.984,180.916,39.958Zm17.91-3.618c0-.648-.45-2.772-2.808-5.292l-1.494,1.08a9.205,9.205,0,0,1,2,3.492c0,.432-.414.468-1.188.54l1.224,1.854C197.71,37.8,198.826,37.366,198.826,36.34Zm-4.266-.792c0-1.1-.2-3.1-2.646-3.1a8.437,8.437,0,0,0-1.422.144c.126-.684.252-1.314.342-1.962.018-.18.054-.2.378-.4.2-.126.234-.18.234-.252,0-.162-.36-.27-.5-.288l-2.2-.306a18.633,18.633,0,0,1-.4,3.6c-.792.126-2.448.432-3.762.54l.72,2.178a22.66,22.66,0,0,1,2.556-.774,18.893,18.893,0,0,1-3.564,7.038l2.052.918a29.837,29.837,0,0,0,3.726-8.388,6.779,6.779,0,0,1,1.026-.09c1.3,0,1.494.576,1.494,1.53a10.642,10.642,0,0,1-1.1,4.482,1.107,1.107,0,0,1-1.08.45,5.033,5.033,0,0,1-1.62-.288l.252,2.178a11.385,11.385,0,0,0,1.548.108,2.8,2.8,0,0,0,2.7-1.386A13.8,13.8,0,0,0,194.56,35.548ZM208.4,40.516V43h2.43V40.516Zm.054-1.062h2.178V38.77c0-.684.018-1.116,1.332-2.07a3.9,3.9,0,0,0,2-3.384c0-2.484-2-3.888-4.482-3.888a4.372,4.372,0,0,0-3.726,1.728,4.554,4.554,0,0,0-.72,2.556h2.646c.036-.522.108-2.088,1.872-2.088a1.765,1.765,0,0,1,1.854,1.854,2.52,2.52,0,0,1-1.134,2.052c-1.116.972-1.818,1.6-1.818,3.474Z" transform="translate(32 3290)"/><g transform="translate(123.458 3134.075)"><g transform="translate(0.026 -0.002)"><path class="b" d="M26.595,89.692h0c-6.632-.07-11.836-2.467-15.482-7.1-6.752-8.59-7.821-24.671-3-45.277C12.292,19.2,20.422,11.693,26.495,8.577A21.255,21.255,0,0,1,38.96,6.15a.749.749,0,0,1,.609.869.769.769,0,0,1-.869.609c-.869-.16-21.425-3.336-29.186,30.025C4.82,57.809,5.8,73.441,12.262,81.661c3.346,4.265,8.16,6.462,14.323,6.532a.749.749,0,0,1,.739.749A.759.759,0,0,1,26.595,89.692Z" transform="translate(-0.032 -0.005)"/><path class="b" d="M57.878,90.7c-5.673,0-12.345-2.5-18.678-7.132-4.065-3-8.86-6.822-8.66-8.39a.749.749,0,0,1,1.488,0c.08.22.919,2,8.051,7.162,11.417,8.34,19.577,6.992,21.814,6.323a.751.751,0,0,1,.4,1.448A16.6,16.6,0,0,1,57.878,90.7ZM32,75.369ZM32,75.369ZM32,75.369Z" transform="translate(-0.062 -0.085)"/><path class="b" d="M64.189,89.594a.739.739,0,0,1-.569-.27.749.749,0,0,1,.09-1.059c.11-.09,10.987-9.589,12.655-30.434A33.96,33.96,0,0,0,74.257,43.4a.759.759,0,0,1,.4-1,.749.749,0,0,1,1,.4,35.029,35.029,0,0,1,2.207,15.182c-1.708,21.5-12.715,31.063-13.185,31.463A.759.759,0,0,1,64.189,89.594Z" transform="translate(-0.101 -0.047)"/><path class="b" d="M27.827,73.1c-3.586,0-9.669-8.081-10.657-10.757-1.1-3-.41-8.53,1.259-9.988a1.758,1.758,0,0,1,1.618-.429c1.838.429,3.316,3.855,3.586,4.535a.75.75,0,0,1-1.388.569c-.549-1.358-1.738-3.456-2.537-3.646a.455.455,0,0,0-.29.1c-1,.9-1.828,5.633-.839,8.35,1.638,4.455,7.651,9.769,9.259,9.769h.15a.749.749,0,0,1,.3,1.468A2,2,0,0,1,27.827,73.1Z" transform="translate(-0.046 -0.059)"/><path class="b" d="M73.692,83.278a.749.749,0,0,1-.4-1.378,27.158,27.158,0,0,0,9.459-12.525c4.385-11.437,1.878-25.88-7.241-41.881C62.6,4.83,42.479,6.558,42.279,6.588a.749.749,0,0,1-.819-.669.739.739,0,0,1,.669-.819c.21,0,21.265-1.888,34.679,21.645,6.542,11.477,13.135,28.287,7.3,43.249a27.967,27.967,0,0,1-9.988,13.175.7.7,0,0,1-.429.11Z" transform="translate(-0.075 -0.004)"/><path class="b" d="M59.7,67.3a.729.729,0,0,1-.669-.429.749.749,0,0,1,.35-1,3.636,3.636,0,0,0,1.7-1.648A.749.749,0,0,1,62.5,64.7,4.994,4.994,0,0,1,60,67.216.719.719,0,0,1,59.7,67.3Z" transform="translate(-0.096 -0.073)"/><path class="b" d="M54.559,77.254a.769.769,0,0,1-.629-.34.749.749,0,0,1,.22-1A23.323,23.323,0,0,1,60.242,73a20.466,20.466,0,0,1,5.274-.42.751.751,0,0,1-.1,1.5,18.727,18.727,0,0,0-4.834.38A22.234,22.234,0,0,0,55,77.125.709.709,0,0,1,54.559,77.254Z" transform="translate(-0.09 -0.083)"/><path class="b" d="M35,97.658a.753.753,0,0,1-.31-1.438c.16-.07,3.9-1.868,3-7.062a49.942,49.942,0,0,0-3-8.989.749.749,0,1,1,1.369-.609,49.94,49.94,0,0,1,3.136,9.379c1.059,6.353-3.836,8.65-3.885,8.67A.7.7,0,0,1,35,97.658Z" transform="translate(-0.067 -0.091)"/><path class="b" d="M72.664,96.981a.649.649,0,0,1-.2,0,5.464,5.464,0,0,1-3.526-2.817c-2.367-4.465.27-12.266.39-12.6a.749.749,0,0,1,1.408.489c0,.08-2.537,7.521-.469,11.407a4,4,0,0,0,2.587,2.068.749.749,0,0,1-.19,1.448Z" transform="translate(-0.106 -0.093)"/><path class="b" d="M57.732,138.258c-27.9,0-56.873-6.992-57.163-7.082a.789.789,0,0,1-.479-.36.739.739,0,0,1,0-.6c.19-.6,4.834-14.743,7.991-21.1,3.286-6.582,24.691-13.634,25.6-13.984a.749.749,0,0,1,.739.17c8.021,7.681,21.315,19.857,23.373,20.666,1.648-.859,8.88-11.546,15.052-21.595a.739.739,0,0,1,1-.26c.16.09,16.161,8.929,21.365,12.316,5.434,3.546,9.049,20.266,9.2,20.975a.739.739,0,0,1-.429.839c-.22.1-22.8,9.988-46.166,9.988Zm-56.014-8.3c4.824,1.119,30.874,6.852,56.014,6.852h.08c20.975,0,41.381-8.09,45-9.6-.7-3-4-16.571-8.42-19.427-4.575-3-17.629-10.248-20.646-11.916-6.213,10.078-13.844,21.714-15.981,21.714h-.07c-2.118-.23-18.478-15.562-23.972-20.776-3,1-21.525,7.481-24.3,12.985S2.747,126.811,1.718,129.958Z" transform="translate(-0.026 -0.108)"/><path class="b" d="M34.433,88.356a9.988,9.988,0,0,1-5.813-1.668.749.749,0,1,1,.909-1.189h0a8.85,8.85,0,0,0,5.464,1.348.75.75,0,0,1,.08,1.5Z" transform="translate(-0.06 -0.098)"/><path class="b" d="M60.089,41.932a.749.749,0,0,1-.589-.29.739.739,0,0,1,.13-1A10.727,10.727,0,0,0,62.716,36a.749.749,0,1,1,1.428.43,11.986,11.986,0,0,1-3.6,5.384.739.739,0,0,1-.459.12Z" transform="translate(-0.096 -0.039)"/><path class="b" d="M52,43.562a.749.749,0,0,1-.459-1.338,10.667,10.667,0,0,0,3.076-4.645.752.752,0,0,1,1.438.439,12.116,12.116,0,0,1-3.6,5.384.739.739,0,0,1-.459.16Z" transform="translate(-0.087 -0.041)"/><path class="b" d="M43.649,45.242a.749.749,0,0,1-.589-.29.739.739,0,0,1,.13-1.049,10.728,10.728,0,0,0,3.086-4.635.729.729,0,0,1,.929-.5.739.739,0,0,1,.5.929,11.986,11.986,0,0,1-3.6,5.384.739.739,0,0,1-.459.16Z" transform="translate(-0.077 -0.043)"/><path class="b" d="M33.259,47.332a.739.739,0,0,1-.589-.28.749.749,0,0,1,.13-1.059,10.608,10.608,0,0,0,3.076-4.635.752.752,0,0,1,1.438.439,12.066,12.066,0,0,1-3.6,5.384.789.789,0,0,1-.459.15Z" transform="translate(-0.065 -0.046)"/><path class="b" d="M26.619,52.853a.779.779,0,0,1-.26,0,.759.759,0,0,1-.449-1A35.828,35.828,0,0,0,26.519,31.2.774.774,0,0,1,28,30.739a36.737,36.737,0,0,1-.629,21.625A.749.749,0,0,1,26.619,52.853Z" transform="translate(-0.057 -0.033)"/><path class="b" d="M70.309,39.882a.739.739,0,0,1-.459-.16.749.749,0,0,1-.14-1,7.291,7.291,0,0,0,1.119-4.794.751.751,0,0,1,1.488-.2,8.72,8.72,0,0,1-1.418,5.9.759.759,0,0,1-.589.25Z" transform="translate(-0.108 -0.037)"/><path class="b" d="M107.034,32.742a3.376,3.376,0,0,1-2-.559c-1-.7-1.538-2-1.618-3.865a9.259,9.259,0,0,1-2-.36,4.135,4.135,0,0,1-3.256-3.776c-3.676-1.219-5.344-4.055-4.585-7.861a12.985,12.985,0,0,1,1.538-4v-.12a5.563,5.563,0,0,1,3.446-5.993C99.323,2.487,100.282.7,101.64.429c1-.19,1.818.439,2.587,1.338a8.71,8.71,0,0,1,3.506-1.6c2.367-.519,4.345.16,5.294,1.728C116.473.26,119.9.28,121.347,2c.759.9,1.528,3-1.328,6.912,3.845,1.878,5.993,4.435,5.933,7.112a5.194,5.194,0,0,1-1.438,3.376c1.568,2.917,1.508,5.863.21,7.681-1.1,1.528-3.376,2.5-6.542.779-.939.449-2,1-3.056,1.628C112.248,31.1,109.3,32.742,107.034,32.742Zm-2.048-4.375c.09,1.578.529,2.277,1,2.587,1.558,1.079,5.384-1,8.46-2.757l.619-.35a7.262,7.262,0,0,1-1.8.11,2.7,2.7,0,0,1-2.8.829,2,2,0,0,1-1.688.29,6.452,6.452,0,0,1-2-.829Q105.81,28.352,104.986,28.367Zm13.574-2h.06c2.137,1.269,3.925,1.209,4.9-.16s.949-3.226.06-5.334a4.185,4.185,0,0,1-1.378,3.626,2.857,2.857,0,0,1-2.257.729,14.061,14.061,0,0,1-1.408,1.129Zm-22.823-11.7a10.518,10.518,0,0,0-.6,1.938c-.439,2.237-.1,5.154,4.055,6.293a.749.749,0,0,1,.549.769,2.657,2.657,0,0,0,2.247,2.857,7.651,7.651,0,0,0,1.538.29,4.43,4.43,0,0,1,.08-1c-.16-.14-.33-.3-.489-.459a2.5,2.5,0,0,1-1-.709,3.8,3.8,0,0,1-.489-.739l-.26-.28a3.7,3.7,0,0,1-1.718-.8,3.416,3.416,0,0,1-1.109-2.747,2.267,2.267,0,0,1-.3-.459,20.975,20.975,0,0,1-2.507-4.954Zm9.419,10.588a17.36,17.36,0,0,0,1.908,1.438c.679-.09,1.378-.22,2.078-.37a8.341,8.341,0,0,1-1.159-1.159l-.1-.06a4,4,0,0,1-.909-1.818,25.47,25.47,0,0,1-3.446.479l.3.29a1,1,0,0,0,.459,0,.739.739,0,0,1,.9.839C105.186,25.021,105.166,25.14,105.156,25.26Zm9.609.849-.21.3a8.64,8.64,0,0,0,4.635-2.527.739.739,0,0,1,.8-.16,1.278,1.278,0,0,0,1.219-.34,2.637,2.637,0,0,0,.879-2.157c-.28.14-.579.28-.9.41-1.139,1.678-3.566,3.266-6.422,4.475ZM109.2,24.271a6.283,6.283,0,0,0,1.878,1.558c.929-.27,1.838-.589,2.717-.939q.34-.549.689-1.169a3.1,3.1,0,0,1-2.807-1.328h-.34c-.1.24-.2.449-.29.629-.22.429-.729,1.428-1.588,1.288a1,1,0,0,1-.26-.04Zm7.391-1.428c-.16.34-.32.669-.489,1a10.338,10.338,0,0,0,4-3.2.739.739,0,0,1,.38-.32,7.822,7.822,0,0,0,1.169-.529,5.863,5.863,0,0,0-2.317-1.928A7.991,7.991,0,0,1,116.593,22.843Zm-13.9-.549a12.1,12.1,0,0,0,1.658-.09c-.589-.27-1.159-.559-1.708-.879a5.072,5.072,0,0,0,.05.969Zm9.369-1.438a.759.759,0,0,1,.659.38,1.688,1.688,0,0,0,2,.939,2.577,2.577,0,0,0,.729-.32,43.406,43.406,0,0,0,1.848-4.8l-.5-.15a.749.749,0,0,1-.549-.629.759.759,0,0,1,.39-.749h.09a16.161,16.161,0,0,0-3.366-.31,5.316,5.316,0,0,1-.17.939,1.578,1.578,0,0,1,0,2,1.688,1.688,0,0,1-.5.41c-.23.849-.469,1.658-.709,2.377h.14Zm-3.536-2.2a.729.729,0,0,1,0,.41,5.483,5.483,0,0,0-.31,2.447h.06c.709-.15,1.388-.3,2-.41.23-.629.469-1.378.689-2.187a8.2,8.2,0,0,1-2.437-.26Zm-5.6,1.079a16.89,16.89,0,0,0,3.766,1.758,7.272,7.272,0,0,1,.22-2.377,12.256,12.256,0,0,1-2-2.078,5.274,5.274,0,0,0-1.818,2.377Zm-2.927-.11c.35.509.729,1,1.119,1.478a2.378,2.378,0,0,1,.07-.7,14.733,14.733,0,0,1-1.508-1.249,1.069,1.069,0,0,0,.14.16A1,1,0,0,1,99.992,19.627Zm-.459-2.877a9.528,9.528,0,0,0,2.078,2.1,6.7,6.7,0,0,1,2.3-3,26.418,26.418,0,0,1-1.608-2.627l-.859.12c-.24.32-.469.639-.689,1a10.4,10.4,0,0,0-1.179,2.407Zm22.274-.719a13.394,13.394,0,0,1,1.838,2.058A3.655,3.655,0,0,0,124.414,16c0-1.528-1-3.066-2.857-4.415a5.124,5.124,0,0,1,.29,4.445Zm-14.982.13a5.134,5.134,0,0,0,3.356,1.249,4.7,4.7,0,0,0,1.129-.05c.07-.3.14-.6.2-.9a3,3,0,0,0-.31-.31.729.729,0,0,1-.23-.679q0-.15,0-.27a13.184,13.184,0,0,0-2.907.35h0a.739.739,0,0,1-.6.459q-.3.06-.589.15Zm12.575.12a10.9,10.9,0,0,1,1,.529h-.05a.739.739,0,0,1-.15-1,3.756,3.756,0,0,0-.21-3.875,25.969,25.969,0,0,1-.739,3.6l.09.25a.749.749,0,0,1,0,.26.224.224,0,0,1,.11.24ZM96.766,12.7a11.716,11.716,0,0,0,.7,2.4h0c0-1.109.649-2.437,3.186-3.056q.36-.429.749-.869a6.522,6.522,0,0,1-.489-2.537.848.848,0,0,1,.07-.42A17.36,17.36,0,0,0,96.766,12.7Zm6.992-.06a23.625,23.625,0,0,0,1.518,2.437,2.817,2.817,0,0,1,.34-.759c0-1-.07-1.818,0-2.507a4.545,4.545,0,0,0-1.878.829Zm3.336-1.109a28.7,28.7,0,0,0,0,2.907,9.589,9.589,0,0,1,3.816-.739,3.076,3.076,0,0,0-1-1.328,4.994,4.994,0,0,0-2.118-.9Zm6.432,2.147a22.973,22.973,0,0,1,2.907.23,8.82,8.82,0,0,0-2.837-1.618,13.592,13.592,0,0,1-.09,1.388Zm-.09-3a9.838,9.838,0,0,1,4.794,3,14.642,14.642,0,0,0,.479-3.6l-.1-.1h0a.759.759,0,0,1-.42-.439,10.389,10.389,0,0,0-.919-.839,18.349,18.349,0,0,0-4.914-2.927,7.3,7.3,0,0,0-3.636,2.737.689.689,0,0,1-.29.27,13.444,13.444,0,0,1,2.547.39,1.618,1.618,0,0,1,1.878.28,2.567,2.567,0,0,1,.559,1.189Zm-2,1.059a4.134,4.134,0,0,1,.679.949v-.809a4.424,4.424,0,0,0-.719-.18Zm-3.885-3a5.993,5.993,0,0,0-2.917,1.478,7.391,7.391,0,0,1,1.348-.3,2,2,0,0,1,.539-.689,2.447,2.447,0,0,1,1.259-.489.779.779,0,0,0-.27-.03Zm-8.26-1.169a4.125,4.125,0,0,0-2.387,2.417,19.248,19.248,0,0,1,2.387-2.417Zm3.8-.749a4.747,4.747,0,0,0,0,.649.739.739,0,0,1-.469.769c-.07,0-.2.08-.23.469a3.735,3.735,0,0,0,.17,1.239c1.728-1.6,3.656-2.8,5.1-2.727a7.99,7.99,0,0,1,2.257-2,11.656,11.656,0,0,0-3.706.38l-.06.06a.8.8,0,0,1-.589.19h-.11a15.232,15.232,0,0,0-2.367.969Zm11.826-1.558a21.206,21.206,0,0,1,3,2A3.116,3.116,0,0,0,115.6,5.354a4.3,4.3,0,0,0-.689-.09Zm-.27-1.5a6.353,6.353,0,0,1,1.328.13,4.655,4.655,0,0,1,3.5,3.186c1.139-1.848,1.418-3.3.739-4.105-.909-1.089-3.905-1.169-7.162.6a.789.789,0,0,1-.639,0,.749.749,0,0,1-.429-.459c-.549-1.628-2.377-1.858-3.915-1.518A7.251,7.251,0,0,0,105.186,3c.19.28.37.549.539.829l.14.2c1.648-.929,4-.749,6.472.11a8.141,8.141,0,0,1,2.307-.37ZM102.07,1.908h-.08c-.18,0-1.089.439-2,4.994v.09c.539-.4,1.1-.779,1.668-1.129A6.512,6.512,0,0,1,103.188,2.8C102.789,2.3,102.369,1.908,102.07,1.908Zm2,2.157a5.554,5.554,0,0,0-.529.829c.28-.12.569-.24.849-.34a2.3,2.3,0,0,0-.28-.489Z" transform="translate(-0.136 0.002)"/><path class="b" d="M97.755,40.892h-.07c-.719,0-1.239-.7-1.328-1.7a5.733,5.733,0,0,1,2.687-4.884c.23-1,.5-2.187.809-3.436-3-.909-5.464-2.078-5.993-4.245-.35-1.608.459-3.456,2.547-5.683a8.989,8.989,0,0,1-1.129-1.678,4.7,4.7,0,0,1,.839-5.583C94.369,10.208,95,7.092,97.9,5.264a10.638,10.638,0,0,1,4.355-1.438,6.243,6.243,0,0,1,6.193-1.089C111.769.29,113.6-.419,114.715.31c.839.549,1,1.678.749,3.256a7.451,7.451,0,0,1,3.865.789,4.515,4.515,0,0,1,2.337,5.494c3.3.489,5.593,2,5.933,4,.29,1.668-.629,4.225-6.452,7.072,1.908,2.647,1.418,5.064.32,6.4a5.234,5.234,0,0,1-4.075,1.758,9.169,9.169,0,0,1-2.907,4.694c-2,1.778-4.994,3.156-7.162,2.237a3.276,3.276,0,0,1-1.1-.739c-1.468.519-2.747.679-3.466.29a1.458,1.458,0,0,1-.739-1.1,8.6,8.6,0,0,0-1.688.779c-.2.909-.36,1.668-.449,2.177a.649.649,0,0,1,0,.24C99.343,40.313,98.445,40.892,97.755,40.892Zm.749-3.935a3.936,3.936,0,0,0-.509,1,2.787,2.787,0,0,0-.16,1.179,5.833,5.833,0,0,0,.5-1.488h0v-.36Zm9.339-2.337h.06c1.378.579,3.666-.23,5.573-2a7.851,7.851,0,0,0,2.437-3.786,7.781,7.781,0,0,1-.929-.31,5.721,5.721,0,0,1-.4.709,17.979,17.979,0,0,1-6.742,5.384Zm-4.854-1.948a.779.779,0,0,1,.579.27.759.759,0,0,1,.1.789,1.149,1.149,0,0,0-.15.579c.24.16.929,0,1.868-.28a6.153,6.153,0,0,1-.449-1.778c-.649-.19-1.328-.36-2-.539l-1.638-.439c-.18.729-.36,1.418-.519,2.078a12.645,12.645,0,0,1,2-.659Zm-1.308-2.847,1.628.439c.869.22,1.728.449,2.547.689a.749.749,0,0,1,.539.679,4.994,4.994,0,0,0,.38,1.848,17.1,17.1,0,0,0,6.393-4.764c.12-.18.24-.35.33-.509A18.438,18.438,0,0,1,108,27.418a14.443,14.443,0,0,1-5.284.949,3.5,3.5,0,0,1-.609-.11c-.12.529-.29,1.049-.43,1.568ZM97.5,21.974c-2,2.147-2.3,3.486-2.118,4.285.31,1.418,2.4,2.357,4.844,3.106.18-.679.37-1.378.569-2.078a1.169,1.169,0,0,1-.13-.28c-.769-.4-1.388-1.388-1.858-3-.11-.39-.22-.8-.31-1.239A4.282,4.282,0,0,1,97.5,21.974Zm19.977,5.583h0a3.616,3.616,0,0,0,2.807-1.209,3.256,3.256,0,0,0,.22-3.576,6.462,6.462,0,0,1-3.076,4.465,1.408,1.408,0,0,1,.07.36ZM115.4,27.1a5.542,5.542,0,0,0,.519.2.448.448,0,0,0-.07-.29.749.749,0,0,1,.479-.929c1.508-.5,2.457-2.187,2.867-4.365a30.336,30.336,0,0,1-3.226,2.157c-.39.36-.779.679-1.159,1a3.156,3.156,0,0,1,.609,2.267Zm-12.895-.32a1.578,1.578,0,0,0,.35.06,8.34,8.34,0,0,0,2.6-.27c-.849-.32-1.708-.679-2.547-1.079-.11.479-.24.9-.38,1.328Zm9.309-.17a9.359,9.359,0,0,0,2.108,0,1.678,1.678,0,0,0-.37-1,12.575,12.575,0,0,1-1.718,1.039Zm-5.563-4.794c.39.28.769.549,1.159.8a.769.769,0,0,1,.27.919c-.24.559-.539,1.578.14,2a1.219,1.219,0,0,0,.4.18,45.6,45.6,0,0,0,6.2-2.737,1.918,1.918,0,0,0,.15-.859,7.991,7.991,0,0,0-1.658-3.855l-.689.449a8.828,8.828,0,0,1-.619.819,1.169,1.169,0,0,1-.429,1.189,1.652,1.652,0,0,1-1.868-.31,30.226,30.226,0,0,1-2.877,1.368Zm-5.873,2.317a3.266,3.266,0,0,0,.879,1.508l.27-.849a10.52,10.52,0,0,1-1.129-.619Zm3-.09c.839.41,1.7.769,2.557,1.1a3.805,3.805,0,0,1,.15-1.608c-.469-.32-1.169-.829-2-1.448-.2.649-.439,1.308-.679,2Zm-3.526-2.068a20.4,20.4,0,0,0,2.187,1.378c.28-.779.559-1.528.859-2.217-.759-.619-1.558-1.308-2.287-2h-.05c-.34.28-.669.559-1,.829C99.653,20.706,99.743,21.365,99.853,21.974Zm15.881-6.143a9.379,9.379,0,0,1,1.678,5.364,18.147,18.147,0,0,0,2-1.558,19.1,19.1,0,0,0-.829-6.283A13.861,13.861,0,0,0,118,11.8a.309.309,0,0,1-.09.07.739.739,0,0,1-1-.2c-.15-.22-.31-.449-.479-.659a4.934,4.934,0,0,0-2.327.37.679.679,0,0,1-.32.07c.39.5.819,1.139,1.308,1.9a1.338,1.338,0,0,1,1.149,1.139,2,2,0,0,1-.509,1.368Zm-1.618,1.558a12.556,12.556,0,0,1,1.758,3.456,1.6,1.6,0,0,1,0,.21,7.761,7.761,0,0,0-1.219-4.075Zm-8.91,2.327.11.08a.709.709,0,0,1,.32.519,1.151,1.151,0,0,1,0,.18,20.226,20.226,0,0,0,2.457-1.109,11.986,11.986,0,0,1-1.278-1.508.529.529,0,0,1-.15.08,3.726,3.726,0,0,0-1.458,1.778ZM97.5,14.453a3.3,3.3,0,0,0-.819,4.135,6.851,6.851,0,0,0,.839,1.279l.529-.5A31.74,31.74,0,0,1,98,15.981a3.916,3.916,0,0,1-.5-1.528Zm24.641,4.115a.2.2,0,0,1-.08.19c2.817-1.628,4.3-3.3,4.065-4.645s-2.217-2.467-4.914-2.817a5.9,5.9,0,0,1,.909.889C123.645,13.984,123.645,16.341,122.137,18.568Zm-20.366-3.885a10.458,10.458,0,0,0,2.307,4.065,6.992,6.992,0,0,1,1.458-1.768,11.3,11.3,0,0,1-.2-2.947h0a8.67,8.67,0,0,0-3.566.649Zm6.842-.21a.779.779,0,0,1-.439.18c-.889.06-.909.37-.919.5,0,.939,1.2,2.547,2.217,3.506.569-.32,1.129-.649,1.668-1a7.363,7.363,0,0,0,.519-1,13.534,13.534,0,0,0-2.307-2.207.769.769,0,0,1-.579.06Zm-8.69,1.718a19.364,19.364,0,0,0,1.758,1.888,12.305,12.305,0,0,1-1.219-2.567,2.517,2.517,0,0,0-.539.679Zm19.867-4.075c.1.26.19.539.28.819a21.365,21.365,0,0,1,.849,4.754c1.119-1.668,1.139-3.236,0-4.545a5.1,5.1,0,0,0-1.129-1.029Zm-6.233,3.216a4.166,4.166,0,0,1-.13.759l.42-.36Zm-3.826-2.347a8.45,8.45,0,0,1,2.367,1.908,3.556,3.556,0,0,0-.18-1.458c-.439-.439-.879-.839-1.3-1.2a1,1,0,0,0-.25,0C110.171,12.445,109.981,12.715,109.731,12.985Zm-9.988.629a1.876,1.876,0,0,1-.07.619l.32-.25a4.612,4.612,0,0,0-.11-.629.659.659,0,0,1-.18.27Zm1-7.991a7.991,7.991,0,0,0-2,.869c-2.327,1.468-2.677,3.9-1,6.842a2,2,0,0,1,.619-.689,18.389,18.389,0,0,1,2.327-6.982Zm.769,4.794a6.236,6.236,0,0,0-.12.739,8.471,8.471,0,0,0,.08,2,10.408,10.408,0,0,1,4-.7,17.816,17.816,0,0,1,.6-2.837,10.18,10.18,0,0,0-1.079-.629,9.109,9.109,0,0,0-3.526,1.468ZM107,12.555a3.3,3.3,0,0,1,.689.11.829.829,0,0,1-.21-.24.749.749,0,0,1,.29-1,6.692,6.692,0,0,1,1.109-.5,3.506,3.506,0,0,0-1.438-.559,16.282,16.282,0,0,0-.459,2.227Zm11.806-2.567a8.991,8.991,0,0,1,1.109.469.859.859,0,0,1,0-.27c.819-2,.35-3.626-1.338-4.525a6.173,6.173,0,0,0-3.436-.589c-.13.609-.28,1.269-.439,2h0C116.3,7.1,117.712,8.13,118.811,9.988Zm-7.351-.13h0a2.157,2.157,0,0,1,1.348.569c-.689-1-2.6-1.628-4.894-1.678a.212.212,0,0,1-.08.19,6.992,6.992,0,0,1,2.527,1.229,1.938,1.938,0,0,1,1.1-.3Zm-1-2.317a5.563,5.563,0,0,1,3.716,2.217,6.142,6.142,0,0,1,1-.19,13.426,13.426,0,0,0-1.059-.939h-.1a.759.759,0,0,1-1-.8,14.433,14.433,0,0,0-1.868-1.059,5.993,5.993,0,0,0-.659.779Zm-7.581-2.287a8.7,8.7,0,0,0-1.738,2.737,3.076,3.076,0,0,1,.9-.6,4,4,0,0,1,3.066.09c.24-.05.479-.08.709-.11.439,0,.869-.08,1.308-.1a2.9,2.9,0,0,1,.819-.819,1.658,1.658,0,0,1,1.6-.09,2.089,2.089,0,0,1,.14-.17,15.981,15.981,0,0,0-6.772-.929Zm9.639.589q.42.22.839.479c.06-.29.13-.6.2-.919a7.36,7.36,0,0,0-1.009.449Zm-3.935-1.528a17.329,17.329,0,0,1,2.307.759,8.22,8.22,0,0,1,3-1.308c.19-1.109.26-2,0-2.217,0,0-.779-.439-4.874,2.617a.759.759,0,0,1-.4.16Zm-2.327-.459a16.979,16.979,0,0,1,1.708.3,5.993,5.993,0,0,0-1.678-.29Z" transform="translate(-0.137 0.002)"/></g></g></g></svg>