<svg xmlns="http://www.w3.org/2000/svg" width="682.951" height="166.519" viewBox="0 0 682.951 166.519"><defs><style>.a{fill:#2f2f2f;}.b{fill:#2a2a2a;}</style></defs><g transform="translate(-354.305 -3041.497)"><path class="a" d="M25.44-1.056v-12.9H6.432V1.536h3.616V-3.2h11.84v1.088c0,.608-.672.672-1.152.672-.832,0-1.632-.064-2.272-.128l1.248,3.36h.8C21.344,1.792,25.44,1.792,25.44-1.056Zm4.384-19.968v-2.848H18.208v-.768c0-.128.1-.224.448-.576a.39.39,0,0,0,.192-.32c0-.288-.256-.384-.8-.416l-4.064-.224v2.3H2.208v2.848H11.04a21.792,21.792,0,0,1-1.28,2.752c-1.5,0-3.072-.032-6.752-.064l.352,3.424c.032.1.1.608.384.608.16,0,.224-.1.672-.608.224-.256.32-.256,1.344-.288,1.664-.064,9.088-.224,10.592-.288,2.624-.1,5.152-.224,7.776-.416a25.089,25.089,0,0,1,2.72,2.336l2.4-2.592a38.8,38.8,0,0,0-6.72-4.864Zm-7.936,11.3H10.048V-11.2h11.84Zm0,4.032H10.048V-7.232h11.84ZM20.576-18.368c-2.912.064-4.736.064-6.912.064.608-.7,1.12-1.312,2.144-2.72h4.64l-1.376,1.76A16.964,16.964,0,0,1,20.576-18.368Zm39.232,6.56V-25.056H43.36v13.248Zm-3.584-8.064H46.912v-2.016h9.312Zm0,5.152H46.912V-16.9h9.312ZM62.432-4.1,59.2-6.048a11.977,11.977,0,0,1-.384,2.72c-.288.928-.736.992-1.184.992h-3.52c-1.056,0-1.44-.288-1.44-1.088V-9.472c0-.16.1-.256.384-.448.16-.128.288-.256.288-.416,0-.224-.224-.384-.832-.384l-3.36-.064v9.312c0,1.984,1.472,2.624,3.36,2.624h5.824C61.824,1.152,62.176-1.888,62.432-4.1Zm-20.8-20.64c0-.416-.736-.448-.928-.448l-3.392-.16v14.368H40.9V-23.9c0-.1.064-.16.32-.352C41.408-24.384,41.632-24.512,41.632-24.736ZM47.488-9.92c0-.224-.128-.384-.736-.48L43.2-10.944c-.192,5.76-4.256,9.28-8.992,9.44l2.528,3.3A12.433,12.433,0,0,0,46.624-9.152c.064-.16.16-.224.608-.48C47.424-9.728,47.488-9.824,47.488-9.92Zm44.96-2.528L91.36-16.1c-1.5.672-1.92.864-5.664,2.624A4.289,4.289,0,0,0,81.344-16.7a6.188,6.188,0,0,0-2.752.672c.544-.832.8-1.28,1.824-3.168a67.358,67.358,0,0,0,7.648-1.216L88.288-24a27.02,27.02,0,0,1-6.272,1.632c.16-.352.96-2.144.992-2.176.032,0,.672-.288.736-.32.192-.064.32-.16.32-.352,0-.224-.544-.288-.64-.32l-4-.7a24.814,24.814,0,0,1-1.6,4.256,45.009,45.009,0,0,1-6.112-.128l.384,3.328c1.344,0,2.336-.032,4.16-.128a42.547,42.547,0,0,1-6.3,8.8L73.088-8.16c1.76-2.88,3.68-5.792,6.816-5.792a2.217,2.217,0,0,1,2.432,2.112c-4.8,2.464-7.744,3.968-7.744,7.936A4.375,4.375,0,0,0,75.808-.768c2.016,2.144,5.728,2.144,7.52,2.144A52.959,52.959,0,0,0,90.944.9V-2.72A37,37,0,0,1,82.784-1.7c-2.336,0-4.8-.416-4.8-2.5,0-2.24,3.328-3.9,4.544-4.512-.032,1.408-.064,2.976-.16,4.8H86.08c0-1.088-.064-5.056-.064-6.3C88.384-11.1,89.92-11.648,92.448-12.448Zm32.992,4.64L122.3-10.4c-3.136,6.144-7.424,7.264-9.216,7.264a3.086,3.086,0,0,1-2.816-1.344c-.608-1.088-.608-4.192-.608-5.664a120.95,120.95,0,0,1,.9-12.8c.512-.416.9-.672.9-.928,0-.192-.288-.416-1.056-.512l-4.256-.608c.1,2.144-.16,11.648-.16,13.6,0,7.68.512,9.312,2.016,10.624A7.118,7.118,0,0,0,112.672.864a11.567,11.567,0,0,0,6.368-2.048A23.876,23.876,0,0,0,125.44-7.808ZM157.984-20.96V-24.8c-6.24,1.824-15.808,2.912-23.328,2.976l.64,3.776a122.36,122.36,0,0,1,12.192-1.376c-1.5,1.408-6.208,5.824-6.208,11.3,0,7.136,8,8.8,10.592,9.344l1.12-4.032a9.5,9.5,0,0,1-5.568-1.536,5.483,5.483,0,0,1-2.368-4.48c0-3.2,2.656-6.752,5.472-9.024A12.385,12.385,0,0,1,157.984-20.96Zm34.592,12.8a27.2,27.2,0,0,0-5.248-13.6l-3.3,1.6a29.758,29.758,0,0,1,4.7,12.992Zm-14.112-.48-2.656-2.368c-.608,1.536-1.92,4.928-3.072,4.928-.64,0-2.176-1.152-2.176-7.392a33.171,33.171,0,0,1,.608-7.136c.544-.192.928-.32.928-.672,0-.384-.512-.544-.736-.608l-3.52-.96a31.166,31.166,0,0,0-.96,8.32c0,6.08,1.024,9.824,3.264,12a3.49,3.49,0,0,0,2.368,1.056C175.1-1.472,176.7-4.864,178.464-8.64Zm44.8-12.32V-24.8c-6.24,1.824-15.808,2.912-23.328,2.976l.64,3.776a122.36,122.36,0,0,1,12.192-1.376c-1.5,1.408-6.208,5.824-6.208,11.3,0,7.136,8,8.8,10.592,9.344l1.12-4.032A9.5,9.5,0,0,1,212.7-4.352a5.483,5.483,0,0,1-2.368-4.48c0-3.2,2.656-6.752,5.472-9.024A12.385,12.385,0,0,1,223.264-20.96Zm7.2,15.712a26.31,26.31,0,0,1,6.176,7.1L239.968-.8a18.823,18.823,0,0,0-7.1-6.944ZM24.576,31.456l-1.5-2.688a51.917,51.917,0,0,1-7.04.384,51.907,51.907,0,0,1-8.64-.736l.864,3.68c1.888.16,4.064.192,9.376.192L14.368,35.04,16.7,37.568C18.464,36.1,21.76,33.376,24.576,31.456Zm1.28,19.36-.192-3.968a42.7,42.7,0,0,1-9.984.864c-1.408,0-4.544,0-5.44-.768a1.186,1.186,0,0,1-.448-1.024c0-1.088,1.088-2.08,1.888-2.752l-2.944-2.4c-1.5,1.472-3.2,3.264-3.2,6.112a3.057,3.057,0,0,0,1.056,2.5c1.856,1.76,6.432,2.016,9.28,2.016C19.584,51.392,23.04,51.072,25.856,50.816Zm35.968-4.224-2.08-3.072c-1.184,1.728-3.456,4.864-5.664,4.864-.8,0-1.312-.384-1.312-1.5,0-.8.736-4.32.736-5.056a3.672,3.672,0,0,0-4-3.872,9.389,9.389,0,0,0-3.2.672c1.984-4.576,4.224-8.416,4.7-8.576a5.754,5.754,0,0,1,.7-.192.34.34,0,0,0,.256-.288c0-.32-.576-.608-.768-.7l-3.616-1.92c-.416,1.024-.864,2.048-1.952,4.384-1.44,3.072-2.24,4.64-9.952,19.552L39.616,52c1.856-5.152,3.552-7.488,4.032-8,.9-1.024,2.5-2.4,4.256-2.4a1.539,1.539,0,0,1,1.664,1.7c0,.512-.64,4.224-.64,5.024,0,.192,0,3.936,4.384,3.936C58.112,52.256,60.64,48.416,61.824,46.592Zm30.432,1.632a29.391,29.391,0,0,0-5.5-2.912,31.709,31.709,0,0,1-.416-4.448,2.931,2.931,0,0,1,1.216-2.56l-3.328-1.792a4.835,4.835,0,0,0-1.376,3.264c0,.672.384,3.936.448,4.672a16.149,16.149,0,0,0-2.5-.192c-4.416,0-5.664,2.816-5.664,4.544a3.623,3.623,0,0,0,1.184,2.72,7.6,7.6,0,0,0,5.216,1.5c4.192,0,5.152-1.344,5.44-3.9a17.615,17.615,0,0,1,3.168,2.112Zm-8.8-.576c0,1.152.032,2.5-2.56,2.5-1.76,0-2.656-.736-2.656-1.44,0-.64.768-1.536,2.432-1.536A10.746,10.746,0,0,1,83.456,47.648Zm9.7-12.8A15.815,15.815,0,0,0,86.016,31.9l-1.44,2.752a22.649,22.649,0,0,1,7.008,2.912Zm-9.536-1.664V29.6c-.832.288-1.792.608-3.68,1.088.128-.416.736-2.464.768-2.5.192-.192.736-.384.736-.7,0-.352-.608-.512-.768-.544l-3.488-.768a30.532,30.532,0,0,1-1.152,5.28,42.6,42.6,0,0,1-5.44.416l.48,3.328c1.5-.1,2.4-.192,3.872-.384a54.89,54.89,0,0,1-5.472,11.648L72.9,47.936a78.043,78.043,0,0,0,5.92-13.728C81.536,33.728,82.528,33.472,83.616,33.184Zm19.232,15.424a12.914,12.914,0,0,1,.96-.928c2.912,3.072,3.712,3.936,5.088,5.408l3.392-1.344c.032-3.9.032-4.48.064-9.568a14.345,14.345,0,0,1,4.864-1.12,4.2,4.2,0,0,1,4.448,4.256c0,2.24-1.312,3.392-2.464,3.392-.992,0-1.248-.832-1.632-2.144l-2.976,1.184c.448,2.336.9,4.544,4.416,4.544,3.424,0,5.984-3.1,5.984-7.04,0-4-2.752-7.3-7.712-7.3a17.719,17.719,0,0,0-4.928.736l.032-3.168a27.9,27.9,0,0,0,4.992-1.376V30.5a20.31,20.31,0,0,1-4.928,1.664c.032-.608.128-3.744.256-3.936.064-.1.544-.48.544-.608,0-.16,0-.384-.9-.512l-3.552-.48c.032,2.08.032,2.368.064,5.984-.928.064-1.408.1-2.208.1a25.783,25.783,0,0,1-3.136-.16L104,36.16a31.4,31.4,0,0,0,4.864-.16l.032,4.128a91.668,91.668,0,0,0-8,4.9Zm6.048.256a26.9,26.9,0,0,1-2.912-3.008A32.826,32.826,0,0,1,108.9,43.9Zm18.528-13.536a23.539,23.539,0,0,0-6.3-3.616l-2.08,2.816a18.612,18.612,0,0,1,6.3,3.648Zm33.088,4.16c0-.288-.352-.352-.768-.384l-3.36-.16V49.12H145.6V47.328l2.624,1.76a23.432,23.432,0,0,0,3.1-3.264,33.3,33.3,0,0,1,1.952,2.944l3.04-2.208a27.451,27.451,0,0,0-2.656-3.84,19.652,19.652,0,0,0,2.112-3.872c.064-.128.448-.224.7-.32a.345.345,0,0,0,.256-.32c0-.32-.544-.544-.928-.64l-3.072-.832A13.063,13.063,0,0,1,151.328,40a20.488,20.488,0,0,0-2.592-2.3l-2.4,1.856a2.824,2.824,0,0,0-1.184-.32l-2.976-.16v14.24H145.6v-.96h10.784v.928h3.424v-12.7a1.007,1.007,0,0,1,.448-.672C160.352,39.808,160.512,39.648,160.512,39.488Zm-11.3,3.648a11.775,11.775,0,0,1-3.616,3.072V40.576c0-.32.288-.448.512-.576A23.511,23.511,0,0,1,149.216,43.136Zm11.776-14.944c0-.32-.416-.48-.8-.576l-3.616-.992a59.026,59.026,0,0,1-3.584,8.8l3.616,1.216a42.676,42.676,0,0,0,3.328-7.552,1,1,0,0,1,.672-.544C160.8,28.48,160.992,28.416,160.992,28.192Zm-7.744,5.44a34.508,34.508,0,0,0-2.176-7.3l-3.3,1.024a28.574,28.574,0,0,1,2.368,7.072Zm-4.864,1.216a27.305,27.305,0,0,0-3.008-7.392l-3.04,1.344a23.17,23.17,0,0,1,2.944,7.168Zm-4.288,1.76a16.673,16.673,0,0,0-2.208-5.28l-1.7.64V27.84c.352-.224.7-.48.7-.768,0-.32-.256-.48-1.088-.544l-3.136-.256V32.1a3.089,3.089,0,0,0-.576-.1l-2.688-.192a27.067,27.067,0,0,1-1.216,7.936l3.2.256a26.534,26.534,0,0,0,.96-7.072c.128-.064.16-.1.32-.192v20.64h3.52V34.432a10.145,10.145,0,0,1,1.184,3.648Zm48.192,7.136c-1.376-.9-2.368-1.5-4.128-2.5a38.628,38.628,0,0,0,1.088-4.768c.1-.448.1-.512.352-.672.448-.224.48-.256.48-.416,0-.288-.448-.448-.768-.544l-3.584-.992a27.207,27.207,0,0,1-.832,5.856,20.592,20.592,0,0,0-6.176-1.472c.448-.992,2.72-6.144,2.752-6.272a13.044,13.044,0,0,1,1.664-2.72l-2.112-2.112c-1.728,1.12-5.5,1.76-10.432,1.728l1.44,3.232a22.334,22.334,0,0,0,5.824-.992,74.1,74.1,0,0,1-2.592,6.944,8.634,8.634,0,0,0-5.088,1.536A7.953,7.953,0,0,0,166.4,45.92c0,2.368,1.44,4.128,3.616,4.128,2.816,0,4.192-2.048,7.36-8.832a19.812,19.812,0,0,1,6.4,1.792c-1.92,4.064-3.552,5.7-6.368,7.52l3.168,2.208a17.845,17.845,0,0,0,6.336-7.968c.736.48,1.632,1.088,3.328,2.4Zm-18.464-2.432a36.336,36.336,0,0,1-2.112,3.968,1.459,1.459,0,0,1-1.344.768c-.224,0-.64-.032-.64-.864C169.728,44,171.072,42.176,173.824,41.312ZM225.28,47.36a25.613,25.613,0,0,0-5.5-3.008,78.612,78.612,0,0,1-.448-8.576,29.9,29.9,0,0,0,4-.9V31.424a13.972,13.972,0,0,1-3.968,1.312,36.913,36.913,0,0,1,.448-3.968c.32-.192.608-.352.608-.512,0-.192-.1-.352-.768-.448l-3.584-.576c-.064,3.168-.064,3.52-.128,5.92a25.332,25.332,0,0,1-2.976.192,16.657,16.657,0,0,1-2.88-.192l.032,3.3a35.57,35.57,0,0,0,5.792-.256c.064,2.176.16,3.52.416,7.328-.64-.064-1.312-.128-1.952-.128-3.1,0-5.632,1.248-5.632,4.128,0,4.608,5.376,4.608,6.3,4.608,4.352,0,4.992-1.664,5.056-4.128a17.118,17.118,0,0,1,3.36,2.528Zm-18.272-2.816-2.016-1.376-1.312,1.92a31.528,31.528,0,0,1-.16-3.36,81.311,81.311,0,0,1,1.184-9.92,9.148,9.148,0,0,1,.7-2.176,4.922,4.922,0,0,0,.608-.256.277.277,0,0,0,.128-.224c0-.32-.672-.608-.768-.64l-3.1-1.216a60.663,60.663,0,0,0-1.952,14.976,34.424,34.424,0,0,0,1.216,9.92l2.944-.48A28.106,28.106,0,0,1,207.008,44.544Zm9.5,2.016c.064,1.664.128,2.4-1.984,2.4-1.888,0-2.816-.672-2.816-1.408s1.024-1.28,2.528-1.28A11.007,11.007,0,0,1,216.512,46.56Zm39.616-2.3c0-3.776-2.176-6.144-5.76-7.36l.512-1.472-3.68-.8c-.128.608-.224,1.024-.384,1.664a14.134,14.134,0,0,0-3.488.256c.16-1.28.192-1.44.384-2.624a44.392,44.392,0,0,0,8.448-1.7V28.8a31.237,31.237,0,0,1-7.84,2.144,23.194,23.194,0,0,1,.992-3.136c.352-.1.736-.192.736-.48,0-.1,0-.256-.8-.48l-3.328-.9a52.759,52.759,0,0,0-1.184,5.408,45.222,45.222,0,0,1-6.08-.224l1.056,3.168c1.728,0,2.56,0,4.576-.1-.16,1.5-.256,2.3-.32,3.552-5.792,3.2-6.976,7.68-6.976,9.856,0,2.592,1.5,4.16,3.52,4.16a8.992,8.992,0,0,0,4.576-1.6,7.086,7.086,0,0,0,.448,1.184l3.072-1.664c-.32-1.024-.384-1.152-.608-1.92a28.89,28.89,0,0,0,5.216-8.064,4.557,4.557,0,0,1,3.2,4.416,6.028,6.028,0,0,1-1.856,4.416,9.284,9.284,0,0,1-5.472,2.272l2.336,2.944C249.632,53.12,256.128,51.3,256.128,44.256ZM245.856,39.04A25.773,25.773,0,0,1,243.232,44a32.477,32.477,0,0,1-.16-4.608A7.414,7.414,0,0,1,245.856,39.04Zm-5.472,8.032a5.081,5.081,0,0,1-2.976,1.376c-.544,0-1.184-.192-1.184-1.5s.8-3.328,3.68-5.728A45.616,45.616,0,0,0,240.384,47.072Zm45.7-9.984c0-2.112-.192-4.48-.384-6.72-.032-.32-.192-1.664-.192-1.952s.576-.48.576-.768c0-.416-.576-.416-.672-.416h-3.872a83.5,83.5,0,0,1,.8,9.952,19.45,19.45,0,0,1-1.952,8.576,14.123,14.123,0,0,1-4.544,5.408l3.808,2.016a21.426,21.426,0,0,0,4.48-6.56A23.6,23.6,0,0,0,286.08,37.088ZM275.808,36.1l-2.24-1.472c-.8,1.792-1.44,3.456-1.856,4.544a7.209,7.209,0,0,1-.224-1.984c0-1.92.512-8.032,1.184-8.576.128-.128.448-.256.448-.48,0-.32-.48-.384-.672-.384l-3.488-.192a60.569,60.569,0,0,0-.9,9.472,25.227,25.227,0,0,0,1.44,8.7h2.72A74.109,74.109,0,0,1,275.808,36.1Zm44.064,12.16a26.6,26.6,0,0,0-8.1-3.616c-.1-1.888-.1-2.208-.16-3.808a68.786,68.786,0,0,0,6.848-.8V36.544c-2.944.544-4.128.736-6.912,1.088V33.856c1.6-.032,4.576-.1,8.128-.1l.128-3.392c-3.008.224-4.1.288-8.192.48.032-1.664.064-2.272.064-2.3a1.04,1.04,0,0,1,.416-.576c.352-.288.416-.32.416-.448,0-.224-.192-.32-.8-.384l-3.9-.384.1,4.256c-2.848.064-4.576.128-8.224.128l.064,3.456c2.752-.32,4.576-.448,8.256-.608l.064,4a21.961,21.961,0,0,1-2.208.064c-.544,0-1.216,0-1.216-.448,0-.416.48-.768,1.056-1.184l-1.824-1.568c-1.248.9-3.424,2.4-3.424,3.968,0,1.248,1.472,2.3,4.416,2.3.928,0,2.688-.064,3.264-.1l.064,3.072-.9-.032c-7.2-.256-7.52,3.456-7.52,4.384,0,2.592,2.752,4.16,7.168,4.16,4.1,0,4.864-1.28,4.992-4.544a24.122,24.122,0,0,1,5.856,3.168Zm-11.648-1.12c.032,1.792-.1,2.368-2.176,2.368-.384,0-2.432,0-2.432-1.088,0-.832,1.024-1.376,3.1-1.376A8.283,8.283,0,0,1,308.224,47.136Zm46.816-10.5-.032-3.52c-2.944.48-3.968.608-5.76.864l.16-4.768c.032-.128.032-.224.288-.384.288-.192.352-.256.352-.416,0-.192,0-.384-1.056-.512l-3.264-.384a48.134,48.134,0,0,1,.288,6.88c-3.68.512-4.864.64-6.784.864,0-3.68.032-3.872.064-4.384,0-.064.032-.256.32-.48.48-.32.544-.352.544-.512,0-.416-.416-.448-1.088-.544l-3.616-.48c.16,2.24.192,5.536.192,6.848-2.4.256-3.36.352-5.888.576l.128,3.52c2.88-.448,3.2-.48,5.76-.864l.032,4.384c.032,5.952.9,8.192,8.1,8.192a71.95,71.95,0,0,0,8.576-.48l.288-3.84a27.385,27.385,0,0,1-8.224,1.12c-4.736,0-5.312-.928-5.312-4.576,0-.192,0-2.112.064-5.312,2.88-.384,3.424-.48,6.816-.9,0,3.488-.1,4.064-2.048,4.064a7.7,7.7,0,0,1-1.888-.224l.8,3.36a11.18,11.18,0,0,0,1.856.128c2.4,0,3.424-.7,3.9-2.048.32-.9.384-1.856.544-5.632C352.16,36.832,353.632,36.7,355.04,36.64Zm33.184,9.952-2.08-3.072c-1.184,1.728-3.456,4.864-5.664,4.864-.8,0-1.312-.384-1.312-1.5,0-.8.736-4.32.736-5.056a3.672,3.672,0,0,0-4-3.872,9.389,9.389,0,0,0-3.2.672c1.984-4.576,4.224-8.416,4.7-8.576a5.754,5.754,0,0,1,.7-.192.34.34,0,0,0,.256-.288c0-.32-.576-.608-.768-.7l-3.616-1.92c-.416,1.024-.864,2.048-1.952,4.384-1.44,3.072-2.24,4.64-9.952,19.552L366.016,52c1.856-5.152,3.552-7.488,4.032-8,.9-1.024,2.5-2.4,4.256-2.4a1.539,1.539,0,0,1,1.664,1.7c0,.512-.64,4.224-.64,5.024,0,.192,0,3.936,4.384,3.936C384.512,52.256,387.04,48.416,388.224,46.592ZM420.7,40.16c0-1.152-.8-4.928-4.992-9.408l-2.656,1.92c1.76,2.016,3.552,5.216,3.552,6.208,0,.768-.736.832-2.112.96l2.176,3.3C418.72,42.752,420.7,41.984,420.7,40.16Zm-7.584-1.408c0-1.952-.352-5.5-4.7-5.5a15,15,0,0,0-2.528.256c.224-1.216.448-2.336.608-3.488.032-.32.1-.352.672-.7.352-.224.416-.32.416-.448,0-.288-.64-.48-.9-.512l-3.9-.544a33.124,33.124,0,0,1-.7,6.4c-1.408.224-4.352.768-6.688.96l1.28,3.872a40.283,40.283,0,0,1,4.544-1.376c-1.888,6.08-3.52,8.928-6.336,12.512l3.648,1.632A53.042,53.042,0,0,0,405.152,36.9a12.052,12.052,0,0,1,1.824-.16c2.3,0,2.656,1.024,2.656,2.72a18.918,18.918,0,0,1-1.952,7.968,1.968,1.968,0,0,1-1.92.8,8.947,8.947,0,0,1-2.88-.512l.448,3.872a20.24,20.24,0,0,0,2.752.192,4.972,4.972,0,0,0,4.8-2.464C412.576,46.368,413.12,41.408,413.12,38.752Zm25.248,8.832V52h4.32V47.584Zm.1-1.888h3.872V44.48c0-1.216.032-1.984,2.368-3.68,2.24-1.632,3.552-3.232,3.552-6.016,0-4.416-3.552-6.912-7.968-6.912-1.6,0-4.832.352-6.624,3.072a8.1,8.1,0,0,0-1.28,4.544h4.7c.064-.928.192-3.712,3.328-3.712a3.138,3.138,0,0,1,3.3,3.3c0,1.216-.416,2.3-2.016,3.648-1.984,1.728-3.232,2.848-3.232,6.176Z" transform="translate(589 3110)"/><g transform="translate(354.278 3041.499)"><g transform="translate(0.026 -0.002)"><path class="b" d="M31,106.874h0c-7.994-.084-14.267-2.974-18.661-8.56C4.2,87.96,2.913,68.577,8.728,43.74,13.76,21.912,23.56,12.859,30.88,9.1A25.62,25.62,0,0,1,45.905,6.177a.9.9,0,0,1,.734,1.047.927.927,0,0,1-1.047.734c-1.047-.193-25.824-4.021-35.179,36.19-5.659,24.3-4.479,43.137,3.311,53.045,4.033,5.141,9.836,7.789,17.264,7.874a.9.9,0,0,1,.891.9A.915.915,0,0,1,31,106.874Z" transform="translate(1.016 1.23)"/><path class="b" d="M63.493,94.024c-6.838,0-14.881-3.01-22.514-8.6-4.9-3.612-10.679-8.223-10.438-10.113a.9.9,0,0,1,1.794,0c.1.265,1.108,2.408,9.7,8.632C55.8,94,65.636,92.375,68.333,91.568a.905.905,0,0,1,.482,1.746A20.009,20.009,0,0,1,63.493,94.024ZM32.3,75.544ZM32.3,75.544ZM32.3,75.544Z" transform="translate(6.195 15.199)"/><path class="b" d="M64.343,99.3a.891.891,0,0,1-.686-.325.9.9,0,0,1,.108-1.276C63.9,97.59,77.008,86.14,79.019,61.014a40.934,40.934,0,0,0-2.54-17.4.915.915,0,0,1,.482-1.2.9.9,0,0,1,1.2.482,42.222,42.222,0,0,1,2.661,18.3C78.766,87.115,65.5,98.637,64.933,99.119A.915.915,0,0,1,64.343,99.3Z" transform="translate(12.906 8.636)"/><path class="b" d="M30.125,77.453c-4.322,0-11.654-9.74-12.846-12.966-1.324-3.612-.494-10.282,1.517-12.039a2.119,2.119,0,0,1,1.95-.518c2.215.518,4,4.647,4.322,5.466a.9.9,0,0,1-1.673.686c-.662-1.637-2.095-4.166-3.058-4.394a.549.549,0,0,0-.349.12c-1.2,1.084-2.2,6.79-1.011,10.065,1.974,5.37,9.222,11.775,11.16,11.775h.181a.9.9,0,1,1,.361,1.77A2.407,2.407,0,0,1,30.125,77.453Z" transform="translate(3.361 10.581)"/><path class="b" d="M80.312,99.34a.9.9,0,0,1-.482-1.661,32.735,32.735,0,0,0,11.4-15.1C96.517,68.8,93.5,51.387,82.5,32.1,66.936,4.782,42.689,6.865,42.448,6.9a.9.9,0,0,1-.987-.807.891.891,0,0,1,.807-.987c.253,0,25.632-2.275,41.8,26.089,7.886,13.833,15.832,34.1,8.8,52.13A33.71,33.71,0,0,1,80.83,99.207a.843.843,0,0,1-.518.132Z" transform="translate(8.422 1.035)"/><path class="b" d="M59.852,68.027a.879.879,0,0,1-.807-.518.9.9,0,0,1,.421-1.2,4.382,4.382,0,0,0,2.047-1.987.9.9,0,0,1,1.71.578,6.02,6.02,0,0,1-3.01,3.034A.867.867,0,0,1,59.852,68.027Z" transform="translate(11.991 13.001)"/><path class="b" d="M54.71,78.22a.927.927,0,0,1-.758-.409.9.9,0,0,1,.265-1.2,28.112,28.112,0,0,1,7.344-3.516,24.668,24.668,0,0,1,6.357-.506.9.9,0,0,1-.12,1.806,22.573,22.573,0,0,0-5.827.457,26.8,26.8,0,0,0-6.73,3.214A.855.855,0,0,1,54.71,78.22Z" transform="translate(10.945 14.799)"/><path class="b" d="M35.153,101.466a.908.908,0,0,1-.373-1.734c.193-.084,4.7-2.251,3.612-8.512A60.2,60.2,0,0,0,34.78,80.385a.9.9,0,1,1,1.65-.734,60.2,60.2,0,0,1,3.78,11.305c1.276,7.657-4.623,10.426-4.683,10.45A.843.843,0,0,1,35.153,101.466Z" transform="translate(6.953 16.137)"/><path class="b" d="M73.631,100.236a.783.783,0,0,1-.241,0,6.586,6.586,0,0,1-4.25-3.4c-2.853-5.382.325-14.784.47-15.182a.9.9,0,0,1,1.7.59c0,.1-3.058,9.066-.566,13.749A4.816,4.816,0,0,0,73.86,98.49a.9.9,0,0,1-.229,1.746Z" transform="translate(13.827 16.549)"/><path class="b" d="M69.582,147.342c-33.626,0-68.552-8.428-68.9-8.536a.951.951,0,0,1-.578-.433.891.891,0,0,1,0-.722c.229-.722,5.827-17.77,9.631-25.427C13.7,104.289,39.5,95.789,40.591,95.368a.9.9,0,0,1,.891.2c9.668,9.258,25.692,23.934,28.172,24.909,1.986-1.035,10.7-13.918,18.143-26.029A.891.891,0,0,1,89,94.14c.193.108,19.48,10.763,25.752,14.845,6.549,4.274,10.908,24.428,11.088,25.283a.891.891,0,0,1-.518,1.011c-.265.12-27.486,12.039-55.646,12.039Zm-67.517-10c5.815,1.348,37.214,8.259,67.517,8.259h.1c25.283,0,49.879-9.752,54.237-11.57-.843-3.612-4.816-19.973-10.149-23.417C108.253,107,92.517,98.257,88.881,96.247c-7.488,12.148-16.687,26.174-19.263,26.174h-.084c-2.552-.277-22.273-18.757-28.894-25.042-3.612,1.2-25.945,9.017-29.292,15.651S3.305,133.545,2.065,137.337Z" transform="translate(-0.026 19.177)"/><path class="b" d="M35.693,88.98a12.039,12.039,0,0,1-7.007-2.011.9.9,0,1,1,1.1-1.433h0a10.667,10.667,0,0,0,6.586,1.625.9.9,0,0,1,.1,1.806Z" transform="translate(5.738 17.403)"/><path class="b" d="M60.238,43.274a.9.9,0,0,1-.71-.349.891.891,0,0,1,.157-1.2,12.93,12.93,0,0,0,3.72-5.6.9.9,0,1,1,1.722.518,14.447,14.447,0,0,1-4.334,6.489.891.891,0,0,1-.554.144Z" transform="translate(12.074 7.221)"/><path class="b" d="M52.152,44.9a.9.9,0,0,1-.554-1.613,12.858,12.858,0,0,0,3.708-5.6.906.906,0,0,1,1.734.53,14.6,14.6,0,0,1-4.334,6.489.891.891,0,0,1-.554.193Z" transform="translate(10.421 7.558)"/><path class="b" d="M43.8,46.579a.9.9,0,0,1-.71-.349.891.891,0,0,1,.157-1.264,12.93,12.93,0,0,0,3.72-5.586.879.879,0,0,1,1.12-.6.891.891,0,0,1,.6,1.12,14.447,14.447,0,0,1-4.334,6.489.891.891,0,0,1-.554.193Z" transform="translate(8.717 7.902)"/><path class="b" d="M33.413,48.668a.891.891,0,0,1-.71-.337.9.9,0,0,1,.157-1.276,12.786,12.786,0,0,0,3.708-5.586A.906.906,0,0,1,38.3,42a14.544,14.544,0,0,1-4.334,6.489.951.951,0,0,1-.554.181Z" transform="translate(6.598 8.329)"/><path class="b" d="M26.776,57.506a.939.939,0,0,1-.313,0,.915.915,0,0,1-.542-1.2,43.185,43.185,0,0,0,.734-24.9.933.933,0,0,1,1.782-.554,44.281,44.281,0,0,1-.758,26.065A.9.9,0,0,1,26.776,57.506Z" transform="translate(5.241 6.161)"/><path class="b" d="M70.459,41.279a.891.891,0,0,1-.554-.193.9.9,0,0,1-.169-1.2A8.789,8.789,0,0,0,71.085,34.1a.9.9,0,1,1,1.794-.241,10.51,10.51,0,0,1-1.71,7.115.915.915,0,0,1-.71.3Z" transform="translate(14.158 6.749)"/><path class="b" d="M109.834,39.466a4.069,4.069,0,0,1-2.408-.674c-1.2-.843-1.854-2.408-1.95-4.659a11.16,11.16,0,0,1-2.408-.433,4.984,4.984,0,0,1-3.925-4.551c-4.43-1.469-6.441-4.888-5.526-9.475a15.651,15.651,0,0,1,1.854-4.816v-.144a6.706,6.706,0,0,1,4.154-7.224C100.539,3,101.7.843,103.332.518c1.2-.229,2.191.53,3.118,1.613A10.5,10.5,0,0,1,110.676.205c2.853-.626,5.237.193,6.381,2.083,4.154-1.974,8.283-1.95,10.029.12.915,1.084,1.842,3.612-1.6,8.331,4.635,2.263,7.224,5.345,7.151,8.572a6.26,6.26,0,0,1-1.734,4.069c1.89,3.515,1.818,7.067.253,9.258-1.324,1.842-4.069,3.01-7.886.939-1.132.542-2.408,1.2-3.684,1.962C116.118,37.491,112.567,39.466,109.834,39.466Zm-2.468-5.273c.108,1.9.638,2.745,1.2,3.118,1.878,1.3,6.489-1.2,10.2-3.323l.746-.421a8.753,8.753,0,0,1-2.167.132,3.251,3.251,0,0,1-3.371,1,2.408,2.408,0,0,1-2.035.349,7.777,7.777,0,0,1-2.408-1Q108.359,34.174,107.366,34.192Zm16.361-2.408h.072c2.576,1.529,4.731,1.457,5.911-.193s1.144-3.889.072-6.429a5.044,5.044,0,0,1-1.661,4.37,3.443,3.443,0,0,1-2.721.879,16.947,16.947,0,0,1-1.7,1.36Zm-27.51-14.1a12.677,12.677,0,0,0-.722,2.336c-.53,2.7-.12,6.212,4.888,7.585a.9.9,0,0,1,.662.927,3.2,3.2,0,0,0,2.709,3.443,9.222,9.222,0,0,0,1.854.349,5.339,5.339,0,0,1,.1-1.2c-.193-.169-.4-.361-.59-.554a3.01,3.01,0,0,1-1.2-.855,4.575,4.575,0,0,1-.59-.891l-.313-.337a4.455,4.455,0,0,1-2.071-.963A4.117,4.117,0,0,1,99.6,24.212a2.733,2.733,0,0,1-.361-.554,25.282,25.282,0,0,1-3.022-5.972ZM107.57,30.448a20.924,20.924,0,0,0,2.3,1.734c.819-.108,1.661-.265,2.5-.445a10.053,10.053,0,0,1-1.4-1.4l-.12-.072a4.816,4.816,0,0,1-1.1-2.191,30.7,30.7,0,0,1-4.154.578l.361.349a1.2,1.2,0,0,0,.554,0,.891.891,0,0,1,1.084,1.011C107.606,30.159,107.582,30.3,107.57,30.448Zm11.582,1.023-.253.361a10.414,10.414,0,0,0,5.586-3.046.891.891,0,0,1,.963-.193,1.541,1.541,0,0,0,1.469-.409,3.178,3.178,0,0,0,1.059-2.6c-.337.169-.7.337-1.084.494-1.372,2.023-4.3,3.937-7.741,5.394Zm-6.706-2.215a7.573,7.573,0,0,0,2.263,1.878c1.12-.325,2.215-.71,3.275-1.132q.409-.662.831-1.409a3.732,3.732,0,0,1-3.383-1.6h-.409c-.12.289-.241.542-.349.758-.265.518-.879,1.722-1.914,1.553a1.2,1.2,0,0,1-.313-.048Zm8.909-1.722c-.193.409-.385.807-.59,1.2a12.461,12.461,0,0,0,4.816-3.853.891.891,0,0,1,.457-.385,9.428,9.428,0,0,0,1.409-.638,7.067,7.067,0,0,0-2.793-2.324A9.632,9.632,0,0,1,121.355,27.535ZM104.6,26.872a14.579,14.579,0,0,0,2-.108c-.71-.325-1.4-.674-2.059-1.059a6.114,6.114,0,0,0,.06,1.168Zm11.293-1.734a.915.915,0,0,1,.795.457,2.035,2.035,0,0,0,2.408,1.132,3.106,3.106,0,0,0,.879-.385,52.321,52.321,0,0,0,2.227-5.791l-.6-.181a.9.9,0,0,1-.662-.758.915.915,0,0,1,.47-.9h.108a19.48,19.48,0,0,0-4.057-.373,6.406,6.406,0,0,1-.2,1.132,1.9,1.9,0,0,1,0,2.408,2.035,2.035,0,0,1-.6.494c-.277,1.023-.566,2-.855,2.865h.169Zm-4.262-2.649a.879.879,0,0,1,0,.494,6.61,6.61,0,0,0-.373,2.95h.072c.855-.181,1.673-.361,2.408-.494.277-.758.566-1.661.831-2.637a9.884,9.884,0,0,1-2.938-.313Zm-6.754,1.3a20.359,20.359,0,0,0,4.539,2.119,8.765,8.765,0,0,1,.265-2.865,14.773,14.773,0,0,1-2.408-2.5,6.357,6.357,0,0,0-2.191,2.865Zm-3.528-.132c.421.614.879,1.2,1.348,1.782a2.867,2.867,0,0,1,.084-.843,17.758,17.758,0,0,1-1.818-1.5,1.288,1.288,0,0,0,.169.193A1.2,1.2,0,0,1,101.346,23.658Zm-.554-3.467a11.485,11.485,0,0,0,2.5,2.528,8.078,8.078,0,0,1,2.769-3.612,31.841,31.841,0,0,1-1.938-3.166l-1.035.144c-.289.385-.566.771-.831,1.2a12.533,12.533,0,0,0-1.421,2.9Zm26.848-.867a16.143,16.143,0,0,1,2.215,2.48,4.406,4.406,0,0,0,.927-2.516c0-1.842-1.2-3.7-3.443-5.321a6.176,6.176,0,0,1,.349,5.358Zm-18.059.157a6.188,6.188,0,0,0,4.045,1.5,5.671,5.671,0,0,0,1.36-.06c.084-.361.169-.722.241-1.084a3.612,3.612,0,0,0-.373-.373.879.879,0,0,1-.277-.819q0-.181,0-.325a15.892,15.892,0,0,0-3.5.421h0a.891.891,0,0,1-.722.554q-.359.073-.71.181Zm15.158.144a13.146,13.146,0,0,1,1.2.638h-.06a.891.891,0,0,1-.181-1.2,4.527,4.527,0,0,0-.253-4.671,31.3,31.3,0,0,1-.891,4.334l.108.3a.9.9,0,0,1,0,.313.27.27,0,0,1,.132.289ZM97.457,15.3a14.123,14.123,0,0,0,.843,2.889h0c0-1.336.783-2.938,3.841-3.684q.433-.518.9-1.047a7.862,7.862,0,0,1-.59-3.058,1.022,1.022,0,0,1,.084-.506A20.924,20.924,0,0,0,97.457,15.3Zm8.428-.072a28.474,28.474,0,0,0,1.83,2.938,3.4,3.4,0,0,1,.409-.915c0-1.2-.084-2.191,0-3.022a5.478,5.478,0,0,0-2.263,1Zm4.021-1.336a34.589,34.589,0,0,0,0,3.5,11.558,11.558,0,0,1,4.6-.891,3.708,3.708,0,0,0-1.2-1.6,6.02,6.02,0,0,0-2.552-1.084Zm7.753,2.588a27.691,27.691,0,0,1,3.5.277,10.631,10.631,0,0,0-3.419-1.95,16.381,16.381,0,0,1-.108,1.673Zm-.108-3.612a11.859,11.859,0,0,1,5.779,3.612,17.65,17.65,0,0,0,.578-4.334l-.12-.12h0a.915.915,0,0,1-.506-.53,12.522,12.522,0,0,0-1.108-1.011,22.117,22.117,0,0,0-5.923-3.528,8.8,8.8,0,0,0-4.382,3.3.831.831,0,0,1-.349.325,16.2,16.2,0,0,1,3.07.47,1.95,1.95,0,0,1,2.263.337,3.094,3.094,0,0,1,.674,1.433Zm-2.408,1.276a4.984,4.984,0,0,1,.819,1.144v-.975a5.333,5.333,0,0,0-.867-.217Zm-4.683-3.612a7.224,7.224,0,0,0-3.515,1.782,8.909,8.909,0,0,1,1.625-.361,2.408,2.408,0,0,1,.65-.831,2.95,2.95,0,0,1,1.517-.59.939.939,0,0,0-.325-.036ZM100.5,9.126a4.972,4.972,0,0,0-2.877,2.914A23.2,23.2,0,0,1,100.5,9.126Zm4.575-.9a5.721,5.721,0,0,0,0,.783.891.891,0,0,1-.566.927c-.084,0-.241.1-.277.566a4.5,4.5,0,0,0,.2,1.493c2.083-1.926,4.406-3.371,6.152-3.287A9.631,9.631,0,0,1,113.313,6.3a14.05,14.05,0,0,0-4.467.458l-.072.072a.963.963,0,0,1-.71.229h-.132a18.36,18.36,0,0,0-2.853,1.168Zm14.255-1.878a25.56,25.56,0,0,1,3.612,2.408,3.756,3.756,0,0,0-2.781-2.3,5.177,5.177,0,0,0-.831-.108Zm-.325-1.806a7.657,7.657,0,0,1,1.6.157,5.61,5.61,0,0,1,4.214,3.841c1.372-2.227,1.71-3.973.891-4.948-1.1-1.312-4.707-1.409-8.632.722a.951.951,0,0,1-.771,0,.9.9,0,0,1-.518-.554c-.662-1.962-2.865-2.239-4.719-1.83a8.741,8.741,0,0,0-3.467,1.686c.229.337.445.662.65,1l.169.241c1.986-1.12,4.816-.9,7.8.132a9.812,9.812,0,0,1,2.781-.445ZM103.85,2.3h-.1c-.217,0-1.312.53-2.408,6.02v.108c.65-.482,1.324-.939,2.011-1.36a7.85,7.85,0,0,1,1.842-3.7C104.717,2.77,104.211,2.3,103.85,2.3Zm2.408,2.6a6.7,6.7,0,0,0-.638,1c.337-.144.686-.289,1.023-.409a2.778,2.778,0,0,0-.337-.59Z" transform="translate(19.016 0.002)"/><path class="b" d="M98.571,49.282h-.084c-.867,0-1.493-.843-1.6-2.047a6.911,6.911,0,0,1,3.239-5.887c.277-1.2.6-2.637.975-4.142-3.612-1.1-6.586-2.5-7.224-5.117-.421-1.938.554-4.166,3.07-6.85a10.835,10.835,0,0,1-1.36-2.023,5.671,5.671,0,0,1,1.011-6.73C94.49,12.3,95.249,8.54,98.74,6.337A12.822,12.822,0,0,1,103.989,4.6a7.525,7.525,0,0,1,7.464-1.312c4.009-2.95,6.212-3.8,7.561-2.926,1.011.662,1.2,2.023.9,3.925a8.981,8.981,0,0,1,4.659.951,5.442,5.442,0,0,1,2.817,6.622c3.973.59,6.742,2.408,7.151,4.816.349,2.011-.758,5.093-7.777,8.524,2.3,3.19,1.71,6.1.385,7.717a6.309,6.309,0,0,1-4.912,2.119,11.052,11.052,0,0,1-3.5,5.659c-2.408,2.143-6.02,3.8-8.632,2.7a3.949,3.949,0,0,1-1.324-.891c-1.77.626-3.311.819-4.178.349a1.758,1.758,0,0,1-.891-1.324,10.366,10.366,0,0,0-2.035.939c-.241,1.1-.433,2.011-.542,2.625a.783.783,0,0,1,0,.289C100.486,48.583,99.4,49.282,98.571,49.282Zm.9-4.744a4.744,4.744,0,0,0-.614,1.2,3.359,3.359,0,0,0-.193,1.421,7.031,7.031,0,0,0,.6-1.794h0v-.433Zm11.257-2.817h.072c1.661.7,4.418-.277,6.718-2.408a9.463,9.463,0,0,0,2.938-4.563,9.379,9.379,0,0,1-1.12-.373,6.9,6.9,0,0,1-.482.855,21.671,21.671,0,0,1-8.127,6.489Zm-5.851-2.348a.939.939,0,0,1,.7.325.915.915,0,0,1,.12.951,1.385,1.385,0,0,0-.181.7c.289.193,1.12,0,2.251-.337a7.416,7.416,0,0,1-.542-2.143c-.783-.229-1.6-.433-2.408-.65l-1.974-.53c-.217.879-.433,1.71-.626,2.5a15.242,15.242,0,0,1,2.408-.795ZM103.3,35.942l1.962.53c1.047.265,2.083.542,3.07.831a.9.9,0,0,1,.65.819,6.02,6.02,0,0,0,.457,2.227,20.611,20.611,0,0,0,7.705-5.743c.144-.217.289-.421.4-.614a22.225,22.225,0,0,1-6.622-.951,17.409,17.409,0,0,1-6.369,1.144,4.214,4.214,0,0,1-.734-.132c-.144.638-.349,1.264-.518,1.89Zm-5.044-9.463c-2.408,2.588-2.769,4.2-2.552,5.165.373,1.71,2.889,2.841,5.839,3.744.217-.819.445-1.661.686-2.5a1.409,1.409,0,0,1-.157-.337c-.927-.482-1.673-1.673-2.239-3.612-.132-.47-.265-.963-.373-1.493A5.161,5.161,0,0,1,98.258,26.479Zm24.079,6.73h0a4.358,4.358,0,0,0,3.383-1.457,3.925,3.925,0,0,0,.265-4.31,7.789,7.789,0,0,1-3.708,5.382,1.7,1.7,0,0,1,.084.433Zm-2.492-.554a6.681,6.681,0,0,0,.626.241.54.54,0,0,0-.084-.349.9.9,0,0,1,.578-1.12c1.818-.6,2.962-2.637,3.455-5.261a36.564,36.564,0,0,1-3.889,2.6c-.47.433-.939.819-1.4,1.2a3.8,3.8,0,0,1,.734,2.733ZM104.3,32.27a1.9,1.9,0,0,0,.421.072,10.053,10.053,0,0,0,3.13-.325c-1.023-.385-2.059-.819-3.07-1.3-.132.578-.289,1.084-.457,1.6Zm11.221-.2a11.281,11.281,0,0,0,2.54,0,2.023,2.023,0,0,0-.445-1.2,15.157,15.157,0,0,1-2.071,1.252Zm-6.706-5.779c.47.337.927.662,1.4.963a.927.927,0,0,1,.325,1.108c-.289.674-.65,1.9.169,2.408a1.469,1.469,0,0,0,.482.217,54.961,54.961,0,0,0,7.476-3.3,2.312,2.312,0,0,0,.181-1.035,9.632,9.632,0,0,0-2-4.647l-.831.542a10.642,10.642,0,0,1-.746.987,1.409,1.409,0,0,1-.518,1.433,1.991,1.991,0,0,1-2.251-.373,36.433,36.433,0,0,1-3.467,1.649Zm-7.079,2.793A3.937,3.937,0,0,0,102.8,30.9l.325-1.023a12.683,12.683,0,0,1-1.36-.746Zm3.612-.108c1.011.494,2.047.927,3.082,1.324a4.587,4.587,0,0,1,.181-1.938c-.566-.385-1.409-1-2.408-1.746-.241.783-.53,1.577-.819,2.408Zm-4.25-2.492a24.6,24.6,0,0,0,2.637,1.661c.337-.939.674-1.842,1.035-2.673-.915-.746-1.878-1.577-2.757-2.408h-.06c-.409.337-.807.674-1.2,1C100.859,24.95,100.967,25.745,101.1,26.479Zm19.143-7.4a11.305,11.305,0,0,1,2.023,6.465,21.875,21.875,0,0,0,2.408-1.878,23.019,23.019,0,0,0-1-7.573,16.706,16.706,0,0,0-.7-1.878.373.373,0,0,1-.108.084.891.891,0,0,1-1.2-.241c-.181-.265-.373-.542-.578-.795a5.947,5.947,0,0,0-2.805.445.819.819,0,0,1-.385.084c.47.6.987,1.372,1.577,2.287a1.613,1.613,0,0,1,1.385,1.372,2.408,2.408,0,0,1-.614,1.649Zm-1.95,1.878a15.134,15.134,0,0,1,2.119,4.166,1.925,1.925,0,0,1,0,.253,9.355,9.355,0,0,0-1.469-4.912Zm-10.739,2.805.132.1a.855.855,0,0,1,.385.626,1.387,1.387,0,0,1,0,.217,24.38,24.38,0,0,0,2.962-1.336,14.449,14.449,0,0,1-1.541-1.818.638.638,0,0,1-.181.1,4.491,4.491,0,0,0-1.758,2.143Zm-9.294-6.345a3.973,3.973,0,0,0-.987,4.984,8.258,8.258,0,0,0,1.011,1.541l.638-.6a38.253,38.253,0,0,1-.06-4.081,4.72,4.72,0,0,1-.6-1.842Zm29.7,4.96a.245.245,0,0,1-.1.229c3.4-1.962,5.189-3.973,4.9-5.6s-2.673-2.974-5.923-3.4a7.115,7.115,0,0,1,1.1,1.072C129.777,16.848,129.777,19.689,127.96,22.374ZM103.411,17.69a12.605,12.605,0,0,0,2.781,4.9,8.428,8.428,0,0,1,1.758-2.131,13.616,13.616,0,0,1-.241-3.552h0a10.45,10.45,0,0,0-4.3.783Zm8.247-.253a.939.939,0,0,1-.53.217c-1.072.072-1.1.445-1.108.6,0,1.132,1.445,3.07,2.673,4.226.686-.385,1.36-.783,2.011-1.2a8.876,8.876,0,0,0,.626-1.2,16.313,16.313,0,0,0-2.781-2.661.927.927,0,0,1-.7.072Zm-10.474,2.071a23.344,23.344,0,0,0,2.119,2.275,14.832,14.832,0,0,1-1.469-3.094,3.034,3.034,0,0,0-.65.819ZM125.13,14.6c.12.313.229.65.337.987a25.752,25.752,0,0,1,1.023,5.731c1.348-2.011,1.372-3.9,0-5.478a6.152,6.152,0,0,0-1.36-1.24Zm-7.513,3.877a5.022,5.022,0,0,1-.157.915l.506-.433Zm-4.611-2.829a10.185,10.185,0,0,1,2.853,2.3,4.286,4.286,0,0,0-.217-1.758c-.53-.53-1.059-1.011-1.565-1.445a1.2,1.2,0,0,0-.3,0C113.536,14.993,113.308,15.319,113.007,15.644Zm-12.039.758a2.262,2.262,0,0,1-.084.746l.385-.3a5.56,5.56,0,0,0-.132-.758.8.8,0,0,1-.217.325Zm1.2-9.631a9.632,9.632,0,0,0-2.408,1.047c-2.805,1.77-3.227,4.7-1.2,8.247a2.408,2.408,0,0,1,.746-.831,22.165,22.165,0,0,1,2.805-8.416Zm.927,5.779a7.518,7.518,0,0,0-.144.891,10.21,10.21,0,0,0,.1,2.408,12.545,12.545,0,0,1,4.816-.843,21.476,21.476,0,0,1,.722-3.419,12.269,12.269,0,0,0-1.3-.758,10.98,10.98,0,0,0-4.25,1.77Zm6.622,2.576a3.979,3.979,0,0,1,.831.132,1,1,0,0,1-.253-.289.9.9,0,0,1,.349-1.2,8.066,8.066,0,0,1,1.336-.6,4.226,4.226,0,0,0-1.734-.674,19.624,19.624,0,0,0-.554,2.685Zm14.231-3.094a10.836,10.836,0,0,1,1.336.566,1.035,1.035,0,0,1,0-.325c.987-2.408.421-4.37-1.613-5.454a7.44,7.44,0,0,0-4.142-.71c-.157.734-.337,1.529-.53,2.408h0C120.929,8.552,122.626,9.792,123.95,12.032Zm-8.861-.157h0a2.6,2.6,0,0,1,1.625.686c-.831-1.2-3.13-1.962-5.9-2.023a.255.255,0,0,1-.1.229,8.428,8.428,0,0,1,3.046,1.481,2.336,2.336,0,0,1,1.324-.361Zm-1.2-2.793a6.706,6.706,0,0,1,4.479,2.673,7.4,7.4,0,0,1,1.2-.229,16.183,16.183,0,0,0-1.276-1.132h-.12a.915.915,0,0,1-1.2-.963,17.4,17.4,0,0,0-2.251-1.276,7.224,7.224,0,0,0-.795.939Zm-9.138-2.757a10.486,10.486,0,0,0-2.095,3.3,3.708,3.708,0,0,1,1.084-.722,4.816,4.816,0,0,1,3.7.108c.289-.06.578-.1.855-.132.53,0,1.047-.1,1.577-.12a3.491,3.491,0,0,1,.987-.987,2,2,0,0,1,1.926-.108,2.517,2.517,0,0,1,.169-.2,19.263,19.263,0,0,0-8.163-1.12Zm11.618.71q.506.265,1.011.578c.072-.349.157-.722.241-1.108a8.872,8.872,0,0,0-1.216.542Zm-4.744-1.842a20.888,20.888,0,0,1,2.781.915,9.909,9.909,0,0,1,3.612-1.577c.229-1.336.313-2.408,0-2.673,0,0-.939-.53-5.875,3.154a.915.915,0,0,1-.482.193Zm-2.805-.554A20.466,20.466,0,0,1,110.876,5a7.224,7.224,0,0,0-2.023-.349Z" transform="translate(19.094 0.01)"/></g></g></g></svg>