<svg xmlns="http://www.w3.org/2000/svg" width="334.884" height="467.952" viewBox="0 0 334.884 467.952"><defs><style>.a{fill:#2f2f2f;}.b,.d{fill:none;}.b{stroke:#ccc;stroke-width:2px;stroke-dasharray:4 4;}.c{stroke:none;}</style></defs><g transform="translate(-25 -3350.485)"><path class="a" d="M14.16,4.45,12.915,2.995a1.557,1.557,0,0,1-.7.33H2.49V5.02h8.445C9.915,6.115,9.06,7,7.89,8.17A19.209,19.209,0,0,0,6.24,6.7L5.07,7.87a15.134,15.134,0,0,1,3.78,4.5l1.515-1.215A13.518,13.518,0,0,0,9.1,9.49c1.86-1.98,3.99-4.125,4.365-4.485C13.635,4.855,13.86,4.675,14.16,4.45Zm15,0L27.915,2.995a1.557,1.557,0,0,1-.705.33H17.49V5.02h8.445C24.915,6.115,24.06,7,22.89,8.17A19.209,19.209,0,0,0,21.24,6.7L20.07,7.87a15.134,15.134,0,0,1,3.78,4.5l1.515-1.215A13.518,13.518,0,0,0,24.1,9.49c1.86-1.98,3.99-4.125,4.365-4.485C28.635,4.855,28.86,4.675,29.16,4.45ZM44.79,12.2a10.253,10.253,0,0,1-2.265-.51,6.53,6.53,0,0,1-2.145-1.17,14.8,14.8,0,0,0,2.49-4.29l-.69-.63H37.32c.12-.585.18-.9.255-1.425H44.61V2.53H37.725c.015-.18.015-1.125.03-1.14.015-.06.03-.06.21-.18a.2.2,0,0,0,.12-.18c0-.105-.06-.18-.36-.2L35.775.76c.015.675.015,1.08,0,1.77h-3.96V4.18H35.7a10.867,10.867,0,0,1-4.635,8.19l1.68,1.035a12.334,12.334,0,0,0,3.78-5.25,11.371,11.371,0,0,0,1.515,2.37,10.278,10.278,0,0,1-3.81,2l1.5,1.3a14.184,14.184,0,0,0,3.465-2.13,9.51,9.51,0,0,0,4.14,2.145ZM40.6,7.165a7.331,7.331,0,0,1-1.38,2.3,8.052,8.052,0,0,1-1.365-2.3ZM49.5,5.89A1.41,1.41,0,1,0,50.91,7.3,1.418,1.418,0,0,0,49.5,5.89ZM67.86,2.875a1.418,1.418,0,1,0-2.835,0,1.418,1.418,0,1,0,2.835,0Zm-.585,0a.833.833,0,1,1-1.665,0,.833.833,0,1,1,1.665,0Zm.06,7.695a26.988,26.988,0,0,0-3.81-7.71l-1.56.885a21.332,21.332,0,0,1,3.495,7.68Zm-7.4-6.93c0-.15-.315-.225-.36-.24l-1.815-.405a16.458,16.458,0,0,1-3.81,8.145l1.9.75a19.756,19.756,0,0,0,3.27-6.615c.06-.2.3-1.215.36-1.275.045-.06.315-.195.36-.24C59.9,3.73,59.94,3.7,59.94,3.64Zm22.92-.765a1.418,1.418,0,1,0-2.835,0,1.418,1.418,0,1,0,2.835,0Zm-.585,0a.833.833,0,1,1-1.665,0,.833.833,0,1,1,1.665,0Zm.06,7.695a26.988,26.988,0,0,0-3.81-7.71l-1.56.885a21.332,21.332,0,0,1,3.5,7.68ZM74.94,3.64c0-.15-.315-.225-.36-.24l-1.815-.405a16.458,16.458,0,0,1-3.81,8.145l1.9.75a19.756,19.756,0,0,0,3.27-6.615c.06-.2.3-1.215.36-1.275s.315-.195.36-.24C74.895,3.73,74.94,3.7,74.94,3.64ZM97.29,12.2a10.253,10.253,0,0,1-2.265-.51,6.53,6.53,0,0,1-2.145-1.17,14.8,14.8,0,0,0,2.49-4.29l-.69-.63H89.82c.12-.585.18-.9.255-1.425H97.11V2.53H90.225c.015-.18.015-1.125.03-1.14.015-.06.03-.06.21-.18a.2.2,0,0,0,.12-.18c0-.105-.06-.18-.36-.2L88.275.76c.015.675.015,1.08,0,1.77h-3.96V4.18H88.2a10.867,10.867,0,0,1-4.635,8.19l1.68,1.035a12.334,12.334,0,0,0,3.78-5.25,11.371,11.371,0,0,0,1.515,2.37,10.278,10.278,0,0,1-3.81,2l1.5,1.3a14.184,14.184,0,0,0,3.465-2.13,9.51,9.51,0,0,0,4.14,2.145Zm-4.185-5.04a7.331,7.331,0,0,1-1.38,2.3,8.052,8.052,0,0,1-1.365-2.3ZM110.67,4.03V2.29a10.478,10.478,0,0,1-3.555.615,13.212,13.212,0,0,1-1.92-.165V4.39c.795.075,1.485.075,1.605.075A20.146,20.146,0,0,0,110.67,4.03Zm.72,7.875v-1.86a12.236,12.236,0,0,1-3.42.465c-1.515,0-1.665-.405-1.68-1.83l-1.635.225c.045,2.535.615,3.27,3.345,3.27A20.5,20.5,0,0,0,111.39,11.9Zm-7.845-2.67-.885-.48c-.33.585-.42.735-.6,1.05a8.251,8.251,0,0,1-.21-2.055,14.251,14.251,0,0,1,.87-5.115c.03-.015.225-.09.255-.105a.178.178,0,0,0,.075-.135c0-.12-.285-.225-.39-.27l-1.53-.555a29.564,29.564,0,0,0-.63,3.42,26.532,26.532,0,0,0-.225,2.955,13.069,13.069,0,0,0,.615,3.945,4.591,4.591,0,0,0,.555,1.185l1.185-.465A13.308,13.308,0,0,1,103.545,9.235Zm23.4,4.29V1.195h-6.4V13.63h1.65v-.9h3.075v.8Zm-1.68-5.85H122.19V5.89h3.075Zm0-3.24H122.19V2.65h3.075Zm0,6.765H122.19V9.13h3.075Zm-5.04-3.465a10.373,10.373,0,0,1-2.04-3.09V4.48h1.965V3.055h-1.965V1.435c0-.045.075-.1.15-.165s.09-.1.09-.135c0-.165-.315-.18-.405-.2L116.655.8v2.25H114.45V4.48h2.07a12.684,12.684,0,0,1-2.7,5.265l1.395.825a12.119,12.119,0,0,0,1.44-2.16v5.22h1.53V7.615a13.879,13.879,0,0,0,.93,1.23ZM133.5,2.455V1.165h-3.525v1.29Zm.435,1.875V3.07H129.39V4.33Zm8.25,8.04c-3-1.035-3.42-2.7-3.42-4.35a.343.343,0,0,1,.165-.36c.18-.165.255-.24.255-.36,0-.135-.12-.2-.585-.2l-1.605-.015c.015.24.045.6.045.975,0,3.6-2.295,4.155-3.225,4.35V8.95h-4.23v4.71h1.485v-.6h1.245v.465h1.5V12.58l1.215,1.305a5.192,5.192,0,0,0,3-2.655,6.673,6.673,0,0,0,2.88,2.535Zm-9.87-.585H131.07v-1.53h1.245ZM142.05,2.6c0-.1-.12-.195-.18-.225l-1.41-.765a8.967,8.967,0,0,1-1.485,1.815l1.2.945a6.89,6.89,0,0,0,1.335-1.5c.075-.09.105-.09.33-.1C141.9,2.755,142.05,2.74,142.05,2.6Zm.315,3.78a7.787,7.787,0,0,1-2.865-1.53,2.423,2.423,0,0,1-.81-2.01,6.341,6.341,0,0,1,.09-1.455,1.648,1.648,0,0,0,.165-.18.241.241,0,0,0,.075-.165c0-.135-.165-.165-.57-.18l-1.5-.03c.03.36.06.825.06,1.335,0,2.1-.39,3.375-3.18,4.215l1.155,1.335a6.166,6.166,0,0,0,2.955-2.43,6.878,6.878,0,0,0,3.135,2.49ZM136.35,2.53c0-.09-.12-.12-.33-.165l-1.38-.255a9.84,9.84,0,0,1-.33,2.385l1.47.27a12.945,12.945,0,0,0,.27-1.95C136.17,2.755,136.35,2.65,136.35,2.53Zm5.565,6.165c0-.1-.165-.225-.24-.255l-1.4-.585A8.27,8.27,0,0,1,139.2,9.52l1.29.84a6.906,6.906,0,0,0,.93-1.44c.075-.015.165-.06.27-.075C141.84,8.815,141.915,8.785,141.915,8.695Zm-8.4-2.475V4.945h-3.6V6.22Zm3.09,2.475c0-.09-.1-.135-.33-.18l-1.5-.315a6.7,6.7,0,0,1-.615,2.265l1.5.495a8.189,8.189,0,0,0,.63-1.995C136.41,8.9,136.6,8.815,136.6,8.695Zm-3.09-.465V6.97h-3.6V8.23ZM156.15,9.34l-1.47-1.215c-1.47,2.88-3.48,3.4-4.32,3.4a1.446,1.446,0,0,1-1.32-.63,7.9,7.9,0,0,1-.285-2.655,56.692,56.692,0,0,1,.42-6c.24-.2.42-.315.42-.435,0-.09-.135-.2-.495-.24l-2-.285c.045,1.005-.075,5.46-.075,6.375,0,3.6.24,4.365.945,4.98a3.336,3.336,0,0,0,2.19.765,5.422,5.422,0,0,0,2.985-.96A11.192,11.192,0,0,0,156.15,9.34Zm14.76,1.86A13.915,13.915,0,0,0,166.74,9.2c-.12-1.9-.12-2.385-.105-3.66.3.03.705.045,1.005.045a11.645,11.645,0,0,0,2.73-.36V3.49a7.481,7.481,0,0,1-3.045.51,3.65,3.65,0,0,1-.63-.03c0-.525.045-1.62.075-1.815.015-.12.09-.165.18-.225.18-.12.2-.135.2-.195,0-.135-.285-.18-.36-.2l-1.8-.255V2.35c0,2.625-.015,3.015.09,6.495a8.237,8.237,0,0,0-1.1-.075c-2.19,0-3.495,1.035-3.495,2.34,0,1.02.825,2.115,3.555,2.115,2.445,0,2.91-.87,2.82-2.34a12.292,12.292,0,0,1,3.1,1.83Zm-5.805-.84c0,.66.015,1.41-1.185,1.41-.495,0-1.6-.135-1.6-.765,0-.435.525-.78,1.47-.78A7.773,7.773,0,0,1,165.1,10.36Zm17.82-9.18a17.812,17.812,0,0,1-4.5-.525L178.56,2.5a40.879,40.879,0,0,0,4.155.375Zm1.935,5.97a3.235,3.235,0,0,0-.645-2.13,2.68,2.68,0,0,0-1.995-.825,19.706,19.706,0,0,0-5.9,1.575l.69,1.74c1.1-.54,3.51-1.74,4.755-1.74.465,0,1.35.27,1.35,1.59a4.6,4.6,0,0,1-1.1,2.865,7.106,7.106,0,0,1-3.75,2.25l1.155,1.44a8.414,8.414,0,0,0,3.9-2.49A6.721,6.721,0,0,0,184.86,7.15ZM13.17,26.53V24.79a10.478,10.478,0,0,1-3.555.615A13.213,13.213,0,0,1,7.7,25.24v1.65c.795.075,1.485.075,1.605.075A20.145,20.145,0,0,0,13.17,26.53Zm.72,7.875v-1.86a12.236,12.236,0,0,1-3.42.465c-1.515,0-1.665-.4-1.68-1.83L7.155,31.4c.045,2.535.615,3.27,3.345,3.27A20.5,20.5,0,0,0,13.89,34.4Zm-7.845-2.67-.885-.48c-.33.585-.42.735-.6,1.05a8.251,8.251,0,0,1-.21-2.055,14.251,14.251,0,0,1,.87-5.115c.03-.015.225-.09.255-.105A.178.178,0,0,0,5.55,24.9c0-.12-.285-.225-.39-.27L3.63,24.07A29.564,29.564,0,0,0,3,27.49a26.533,26.533,0,0,0-.225,2.955A13.068,13.068,0,0,0,3.39,34.39a4.591,4.591,0,0,0,.555,1.185L5.13,35.11A13.308,13.308,0,0,1,6.045,31.735Zm21.99.69a6.217,6.217,0,0,0-.99-3.255l-1.395.735a4.606,4.606,0,0,1,.675,2.235c0,1.815-1.515,2.34-2.745,2.34a2.019,2.019,0,0,1-1.41-.45,1.79,1.79,0,0,1-.48-1.32,9.072,9.072,0,0,1,.18-1.38c.405.03.765.075,1.335.075.735,0,1.2-.045,1.425-.06l.39-1.65a9.749,9.749,0,0,1-1.77.12,5.776,5.776,0,0,1-.99-.045c.27-.96.45-1.5.63-2.01a13.817,13.817,0,0,0,2.205.12l.345-1.62c-.87.015-1.215.015-1.965-.015a15.594,15.594,0,0,1,.8-1.755c.24-.075.45-.03.45-.21,0-.165-.225-.24-.345-.285L22.65,23.35c-.21.765-.435,1.395-.885,2.7a11.443,11.443,0,0,1-2.55-.75l-.135,1.74c.855.225,1.245.3,2.175.48-.33.975-.465,1.47-.615,1.995a10.671,10.671,0,0,1-2.025-.57L18.36,30.6a11.842,11.842,0,0,0,1.89.495,10.307,10.307,0,0,0-.18,1.695c0,2.76,2.175,3.27,3.63,3.27C25.59,36.055,28.035,35.02,28.035,32.425Zm3.645.615a12.333,12.333,0,0,1,2.9,3.33l1.56-1.245a8.823,8.823,0,0,0-3.33-3.255ZM52.2,25.36V23.875H43.14V25.36h2.505v1.965h-2.37V36.07h1.59v-.525h5.46v.435H51.9V27.325H49.5V25.36ZM48,33.97h-.855V28.915H48Zm0-6.645h-.855V25.36H48Zm2.325,6.645H49.5V28.915h.825Zm-4.68,0h-.78V28.915h.78Zm-2.6-9.825c0-.135-.165-.195-.51-.315l-1.305-.45a15.214,15.214,0,0,1-2.625,5.37l1.365.915c.255-.405.33-.525.435-.69V36.13h1.65V26.8c0-.1.1-.195.15-.24.015-.015.15-.135.15-.21s-.045-.1-.39-.3a9.25,9.25,0,0,0,.54-1.455c.06-.105.09-.15.285-.225C42.885,24.34,43.05,24.28,43.05,24.145Zm24.2,1.725V24.415h-3.48v-.45c.225-.12.375-.195.375-.33,0-.1-.12-.18-.48-.21l-1.59-.165v1.155H58.6V25.87H62.07v.93H60.21v7.035h6.255V26.8h-2.7v-.93Zm-2.31,4.785h-3.24v-.7h3.24Zm0-1.845h-3.24v-.7h3.24Zm0,3.72h-3.24V31.8h3.24Zm2.295,3.3v-1.4H59.46V28.39c0-.06.015-.075.24-.225.075-.06.135-.105.135-.18,0-.15-.225-.195-.39-.21L57.93,27.61v8.715h1.53V35.83ZM58.245,24.115c0-.12-.15-.195-.255-.24l-1.68-.645a11.292,11.292,0,0,1-2.73,5.28l1.455.99a4.528,4.528,0,0,0,.48-.585v7.41h1.47V27.04c0-.075.12-.15.195-.2.18-.1.225-.165.225-.24,0-.165-.24-.33-.36-.4a16.544,16.544,0,0,0,.735-1.77c.045-.075.075-.075.285-.135C58.155,24.265,58.245,24.22,58.245,24.115ZM82.785,34.27l-1.32-.525c0,.8-.225.885-.45.885h-.21a.3.3,0,0,1-.3-.33V31.555h1.8V23.68H76.29v7.875h.63a7.086,7.086,0,0,1-1.05,2.955v-.39H74.25v-.825h1.26v-1H74.25v-.735H75.5v-.99H74.25V29.89h1.665V28.72h-1.4a4.1,4.1,0,0,0,.3-.375.346.346,0,0,1,.255-.2c.09-.03.165-.06.165-.15s-.15-.195-.225-.24l-.585-.27h1.5V26.245h-2.6c.105-.315.135-.4.24-.81H75.84v-1.29H71.955a.344.344,0,0,1,.24-.27c.105-.045.15-.075.15-.15,0-.1-.105-.15-.18-.165l-1.425-.42a7.372,7.372,0,0,1-1.5,2.49l1.365.615H69.27V27.49H71.1a5.276,5.276,0,0,1-2.07,1.965l1.23,1.02v5.76H71.7v-.93h3.315a5.286,5.286,0,0,1-.6.39l1.515.825c.5-.315,1.77-1.14,2.385-3.96.06-.24.045-.24.09-.285.225-.24.24-.255.24-.33,0-.135-.15-.18-.24-.21l-.615-.18h1.1V35.47c0,.7.6.84,1.065.84h1.245C81.855,36.31,82.545,36.31,82.785,34.27Zm-2-6.36H77.805v-.855H80.79Zm0-2.055H77.805V25.06H80.79Zm0,4.245H77.805v-.915H80.79Zm-7.9.465H71.7V29.89h1.185Zm0,1.725H71.7v-.735h1.185Zm.87-4.8a3.823,3.823,0,0,1-.765,1.23H71.97a7.541,7.541,0,0,0,.84-1.23Zm-.87,6.63H71.7v-.825h1.185Zm-.945-8.685c-.03.135-.09.36-.24.81h-.99c.21-.285.36-.525.54-.81ZM96.87,27.76c0-1.89-1.62-2.64-3.045-2.64a6.539,6.539,0,0,0-1.845.33,16.174,16.174,0,0,0-1.5-1.785l-1.545.72a8.706,8.706,0,0,1,1.515,1.65c-.63.27-1.08.48-1.89.9-.255-.465-.7-1.29-.81-1.44a2.272,2.272,0,0,1-.195-.375c0-.075.12-.375.12-.45,0-.27-.42-.06-.6.015l-1.59.69A15.891,15.891,0,0,1,87.03,27.76c-2.085,1.2-2.325,1.335-2.535,1.455l1.35,1.485a14.46,14.46,0,0,1,1.95-1.47,34.426,34.426,0,0,1,2.55,6.75l1.68-.75a45.172,45.172,0,0,0-2.76-6.87,21.556,21.556,0,0,1,2.07-1.02,11.475,11.475,0,0,1,.75,1.365l1.62-.69c-.345-.57-.585-.96-.795-1.245a3.906,3.906,0,0,1,.975-.18c.48,0,1.395.3,1.395,1.125,0,1.035-1.1,1.98-2.895,1.98a6.478,6.478,0,0,1-.93-.075l.57,1.635C93.195,31.225,96.87,31.12,96.87,27.76Zm15.27.48V27.07h-5.1v-.525h4.17V23.47H100.47v3.075h4.845v.525h-6v1.17h6V28.7h-2.79v5.28h8.13V28.7H107.04V28.24Zm-5.58-2.82h-1.47v-.915h1.47Zm2.97,0h-1.5v-.915h1.5Zm-5.925,0H102.15v-.915h1.455Zm5.355,6.18h-4.77v-.555h4.77Zm0-1.41h-4.77v-.54h4.77Zm0,2.865h-4.77V32.47h4.77Zm3.225,2.715V34.435h-10.53v-4.77a.286.286,0,0,1,.135-.2c.03-.03.12-.09.12-.165,0-.165-.24-.18-.375-.18L99.99,29.1v7.17h1.665V35.77Zm14.67-5.82c0-.54-.375-2.31-2.34-4.41l-1.245.9a7.671,7.671,0,0,1,1.665,2.91c0,.36-.345.39-.99.45l1.02,1.545C125.925,31.165,126.855,30.805,126.855,29.95Zm-3.555-.66c0-.915-.165-2.58-2.205-2.58a7.031,7.031,0,0,0-1.185.12c.1-.57.21-1.095.285-1.635.015-.15.045-.165.315-.33.165-.105.195-.15.195-.21,0-.135-.3-.225-.42-.24l-1.83-.255a15.526,15.526,0,0,1-.33,3c-.66.1-2.04.36-3.135.45l.6,1.815a18.884,18.884,0,0,1,2.13-.645,15.745,15.745,0,0,1-2.97,5.865l1.71.765a24.864,24.864,0,0,0,3.105-6.99,5.649,5.649,0,0,1,.855-.075c1.08,0,1.245.48,1.245,1.275a8.868,8.868,0,0,1-.915,3.735.923.923,0,0,1-.9.375,4.194,4.194,0,0,1-1.35-.24l.21,1.815a9.488,9.488,0,0,0,1.29.09,2.331,2.331,0,0,0,2.25-1.155A11.5,11.5,0,0,0,123.3,29.29Zm18.465,4.545-.465-1.68c-.615.87-1.185,1.14-1.6,1.14s-.555-.165-.555-.99a20.828,20.828,0,0,1,.15-2.115c.2-2.01.21-2.175.21-2.445a1.709,1.709,0,0,0-1.65-1.8c-1.005,0-2.43,1.335-3.015,1.875l.33-.66-.96-.915a10.509,10.509,0,0,1,.15-1.98c.045-.045.27-.24.27-.285,0-.135-.135-.15-.375-.18l-1.485-.165-.06,3.225a12.235,12.235,0,0,1-2.7.72l.735,1.62c.75-.24,1.155-.39,1.95-.675l-.03,1.32a17.163,17.163,0,0,1-2.85,3.45l1.56,1.05c.525-.825.78-1.185,1.245-1.83l-.045,3.465,1.68-.09c-.09-1.755-.09-3.315-.1-5.4,1.05-1.29,2.205-2.73,3.06-2.73.51,0,.585.615.585,1,0,.63-.27,3.42-.27,3.99,0,.375,0,2.46,1.74,2.46A3.6,3.6,0,0,0,141.765,33.835ZM156.15,30.04V28.45a17.226,17.226,0,0,0-1.98-.09c-.795,0-1.545.045-2.325.1V30.04a18.383,18.383,0,0,1,2.25-.165A16.3,16.3,0,0,1,156.15,30.04Zm-3.39-3.015V25.36a11.732,11.732,0,0,1-2.385.885c.1-.42.225-.96.36-1.635.03-.15.06-.165.255-.255.135-.06.18-.1.18-.21,0-.165-.345-.24-.375-.24l-1.845-.435a18.216,18.216,0,0,1-.51,3.18,10.883,10.883,0,0,1-1.485.09,6.052,6.052,0,0,1-1.215-.09l.12,1.56a19.776,19.776,0,0,0,2.235-.18,24.973,24.973,0,0,1-3.045,7.14l1.83.555a42.54,42.54,0,0,0,3.09-7.98A18.1,18.1,0,0,0,152.76,27.025Zm3.63,8.58-.15-1.74a9.875,9.875,0,0,1-2.64.33,3.513,3.513,0,0,1-1.9-.4.515.515,0,0,1-.18-.45,2.836,2.836,0,0,1,.06-.555l-1.485-.315a3.476,3.476,0,0,0-.18,1.08c0,1.53,1.155,2.28,3.855,2.28A14.508,14.508,0,0,0,156.39,35.6ZM172.08,25.6a10.267,10.267,0,0,0-1.35-2.19l-1.44.93a22.845,22.845,0,0,1,1.305,2.13Zm.72,9.39a7.721,7.721,0,0,1-4.14-6.24h3.495V27.07h-3.66c.015-.375.075-3.15.105-3.18a2.193,2.193,0,0,1,.285-.24s.06-.045.06-.09c0-.165-.18-.18-.48-.195l-1.725-.09c.03.765.045,1.32.015,3.8h-2.79v1.68h2.73c-.33,3.645-1.68,5.1-3.615,6.24V23.86c0-.06.06-.1.21-.24a.172.172,0,0,0,.09-.135c0-.12-.135-.165-.4-.165l-1.65-.03v3.42a7.974,7.974,0,0,0-.9-1.38l-1.62.945a12.877,12.877,0,0,1,1.41,2.37l1.11-.66v2.46a24.847,24.847,0,0,1-2.6,1.335l.435,1.875c.045.21.12.345.21.345s.1-.09.165-.21a.474.474,0,0,1,.285-.3c.51-.3,1.02-.6,1.5-.945V36.28h1.755v-.96l1.29.945a7.584,7.584,0,0,0,3.375-4.29,9.5,9.5,0,0,0,1.425,2.475,5.878,5.878,0,0,0,1.92,1.71Zm14.88-1.32-1.56-.825c-.255,1.47-.27,1.65-.87,1.65h-.315c-.51,0-.66-.18-.66-.51v-4.1h2.46V23.74h-7.95v6.15h3.765v5.055c0,.975.375,1.305,1.515,1.305h1.9C187.32,36.25,187.455,35.305,187.68,33.67ZM178.3,24.9a7.464,7.464,0,0,0-2.445-1.545l-.84,1.455a11.125,11.125,0,0,1,2.415,1.5Zm6.705,3.48h-4.515v-3.09h4.515Zm-7.875-.135a10.636,10.636,0,0,0-2.52-1.545l-.855,1.5a13.18,13.18,0,0,1,2.505,1.5Zm5.205,2.3c0-.165-.195-.195-.42-.225l-1.665-.225c.015.285.03.465.03.735,0,1.275-.315,3.165-3.51,4.11l1.53,1.4a5.427,5.427,0,0,0,3.705-5.13c0-.135.015-.165.18-.39C182.31,30.655,182.34,30.61,182.34,30.535Zm-4.17,1.1-1.32-1.14A17.788,17.788,0,0,1,174,34.93l1.575,1.215c.1.075.18.135.24.135a.183.183,0,0,0,.165-.195c0-.03-.03-.315-.03-.36a.487.487,0,0,1,.1-.3A36.019,36.019,0,0,0,178.17,31.63ZM15.72,47.62a6.833,6.833,0,0,0-1.17-1.26l-.78.57a5.956,5.956,0,0,1,1.065,1.29Zm-1.635.84a9.242,9.242,0,0,0-1.155-1.275l-.81.6a6.7,6.7,0,0,1,1.185,1.32Zm-.24,4.05c0-1.59-2.04-4.005-2.73-4.83L9.9,48.52c1.59,1.845,2.16,3.075,2.16,3.45s-.315.435-.855.51L12,53.9C12.555,53.83,13.845,53.65,13.845,52.51Zm-3.4.015c0-1.335-.18-3.12-2.2-3.12a6.267,6.267,0,0,0-1.1.105c.12-.675.15-.945.225-1.545.03-.195.03-.195.21-.315.15-.09.165-.105.165-.165,0-.12-.165-.195-.36-.225l-1.8-.255a17.952,17.952,0,0,1-.15,2.85c-1.23.27-1.74.375-2.88.555l.555,1.8a13.434,13.434,0,0,1,2.04-.81A15.921,15.921,0,0,1,2.43,57.25l1.56.705A20.135,20.135,0,0,0,6.84,51.01a4.963,4.963,0,0,1,.81-.075c.93,0,1.215.36,1.215,1.515a6.721,6.721,0,0,1-.8,3.45,1.167,1.167,0,0,1-1.035.42,4.415,4.415,0,0,1-1.02-.12l.36,1.62a10.556,10.556,0,0,0,1.125.06,2.253,2.253,0,0,0,1.71-.585C9.915,56.62,10.44,54.685,10.44,52.525ZM29.535,55.9V54.835H25.86v-.54h3.165V53.26H25.86v-.45h2.52V49.99H21.255v2.82h2.82v.45H21.06v1.575h-.615V55.9h3.63v.99H25.86V55.9Zm-2.73-4.155h-4.05v-.69h4.05Zm-2.73,3.09H22.59v-.54h1.485Zm5.49-5.16V48.49H28.23V46.765H24.915c.075-.225.09-.285.27-.39.12-.075.165-.1.165-.195s0-.165-.48-.21l-1.53-.135c-.06.24-.15.585-.255.93h-1.86V47.9H22.77c-.1.36-.1.39-.165.585h-2.3v1.185ZM26.49,48.49H24.435c.105-.33.12-.42.18-.585H26.49Zm-6.24-.48A10,10,0,0,0,18.1,46.06l-1.29,1.215A11,11,0,0,1,18.9,49.15Zm9.825,8.79a34.128,34.128,0,0,1-5.4.39c-3.495,0-4.545-.345-4.545-1.815V51.16H16.875v1.68H18.45v2.94a9.767,9.767,0,0,1-1.95.945l.63,1.74c.075.21.15.39.3.39s.165-.075.24-.33a.312.312,0,0,1,.1-.195c.03-.03.27-.2,1.6-1.14.555.735,1.11,1.35,3.87,1.35h6.015Zm10.35-10.62a17.812,17.812,0,0,1-4.5-.525L36.06,47.5a40.879,40.879,0,0,0,4.155.375Zm1.935,5.97a3.235,3.235,0,0,0-.645-2.13,2.68,2.68,0,0,0-1.995-.825,19.706,19.706,0,0,0-5.9,1.575l.69,1.74c1.1-.54,3.51-1.74,4.755-1.74.465,0,1.35.27,1.35,1.59a4.6,4.6,0,0,1-1.095,2.865,7.106,7.106,0,0,1-3.75,2.25l1.155,1.44a8.414,8.414,0,0,0,3.9-2.49A6.721,6.721,0,0,0,42.36,52.15Zm16.995.12a5.3,5.3,0,0,0-5.58-5.46,6.469,6.469,0,0,0-6.615,6.36,4.268,4.268,0,0,0,3,4.035c.78,0,1.47-1.26,1.92-2.19a21.3,21.3,0,0,0,1.86-6.675,3.837,3.837,0,0,1,2.55,1.005,3.536,3.536,0,0,1,1.08,2.625,4.693,4.693,0,0,1-1.08,2.985,5.052,5.052,0,0,1-2.7,1.6L54.9,58.1a7.241,7.241,0,0,0,3.495-2.64A5.6,5.6,0,0,0,59.355,52.27Zm-7.2-3.66c-.3,2.34-1.59,6.255-2.37,6.255-.27,0-.96-.63-.96-1.845a4.912,4.912,0,0,1,1.5-3.33A4.428,4.428,0,0,1,52.155,48.61Zm22.1,2.16A6.92,6.92,0,0,0,73,49.63l-.63.72a6.944,6.944,0,0,1,1.245,1.14Zm-1.215,1.365A6.54,6.54,0,0,0,71.79,50.98l-.615.72a6.66,6.66,0,0,1,1.23,1.155Zm.495-3.915V46.48a41.482,41.482,0,0,1-10.725,1.2l.255,1.68c1.5-.21,3.7-.39,5.715-.555a11.184,11.184,0,0,0-1.98,2.28,5.456,5.456,0,0,0-1.02,2.985,3.763,3.763,0,0,0,1.11,2.7,6.732,6.732,0,0,0,3.69,1.665l.585-1.83a4.724,4.724,0,0,1-2.64-.765,2.381,2.381,0,0,1-1.08-1.95,5.568,5.568,0,0,1,1.83-3.6A6.113,6.113,0,0,1,73.53,48.22Zm3.15,7.32a12.333,12.333,0,0,1,2.895,3.33l1.56-1.245a8.823,8.823,0,0,0-3.33-3.255Zm19.53-1.17a3.488,3.488,0,0,0-2.7-3.45l.24-.69-1.725-.375c-.06.285-.105.48-.18.78a6.625,6.625,0,0,0-1.635.12c.075-.6.09-.675.18-1.23a20.809,20.809,0,0,0,3.96-.8v-1.6a14.643,14.643,0,0,1-3.675,1.005,10.873,10.873,0,0,1,.465-1.47c.165-.045.345-.09.345-.225,0-.045,0-.12-.375-.225l-1.56-.42A24.73,24.73,0,0,0,89,48.325a21.2,21.2,0,0,1-2.85-.1l.5,1.485c.81,0,1.2,0,2.145-.045-.075.7-.12,1.08-.15,1.665-2.715,1.5-3.27,3.6-3.27,4.62a1.718,1.718,0,0,0,1.65,1.95,4.215,4.215,0,0,0,2.145-.75,3.321,3.321,0,0,0,.21.555l1.44-.78c-.15-.48-.18-.54-.285-.9a13.542,13.542,0,0,0,2.445-3.78,2.136,2.136,0,0,1,1.5,2.07,2.826,2.826,0,0,1-.87,2.07,4.352,4.352,0,0,1-2.565,1.065l1.095,1.38C93.165,58.525,96.21,57.67,96.21,54.37Zm-4.815-2.445a12.081,12.081,0,0,1-1.23,2.325,15.223,15.223,0,0,1-.075-2.16A3.475,3.475,0,0,1,91.395,51.925ZM88.83,55.69a2.382,2.382,0,0,1-1.4.645c-.255,0-.555-.09-.555-.7s.375-1.56,1.725-2.685A21.381,21.381,0,0,0,88.83,55.69Zm21.66.555a12.47,12.47,0,0,0-3.795-1.695c-.045-.885-.045-1.035-.075-1.785a32.243,32.243,0,0,0,3.21-.375V50.755c-1.38.255-1.935.345-3.24.51V49.5c.75-.015,2.145-.045,3.81-.045l.06-1.59c-1.41.1-1.92.135-3.84.225.015-.78.03-1.065.03-1.08a.488.488,0,0,1,.195-.27c.165-.135.195-.15.195-.21,0-.105-.09-.15-.375-.18l-1.83-.18.045,1.995c-1.335.03-2.145.06-3.855.06l.03,1.62c1.29-.15,2.145-.21,3.87-.285l.03,1.875a10.3,10.3,0,0,1-1.035.03c-.255,0-.57,0-.57-.21s.225-.36.5-.555l-.855-.735c-.585.42-1.6,1.125-1.6,1.86,0,.585.69,1.08,2.07,1.08.435,0,1.26-.03,1.53-.045l.03,1.44-.42-.015c-3.375-.12-3.525,1.62-3.525,2.055,0,1.215,1.29,1.95,3.36,1.95,1.92,0,2.28-.6,2.34-2.13a11.307,11.307,0,0,1,2.745,1.485Zm-5.46-.525c.015.84-.045,1.11-1.02,1.11-.18,0-1.14,0-1.14-.51,0-.39.48-.645,1.455-.645A3.883,3.883,0,0,1,105.03,55.72Zm19.92-4.71c0-.99-.09-2.1-.18-3.15-.015-.15-.09-.78-.09-.915s.27-.225.27-.36c0-.195-.27-.195-.315-.195H122.82a39.136,39.136,0,0,1,.375,4.665,9.117,9.117,0,0,1-.915,4.02,6.62,6.62,0,0,1-2.13,2.535l1.785.945a10.043,10.043,0,0,0,2.1-3.075A11.064,11.064,0,0,0,124.95,51.01Zm-4.815-.465-1.05-.69c-.375.84-.675,1.62-.87,2.13a3.38,3.38,0,0,1-.1-.93c0-.9.24-3.765.555-4.02.06-.06.21-.12.21-.225,0-.15-.225-.18-.315-.18l-1.635-.09a28.391,28.391,0,0,0-.42,4.44,11.826,11.826,0,0,0,.675,4.08h1.275A34.735,34.735,0,0,1,120.135,50.545ZM140.22,55.18V50.74h-8.88v4.44h4.35l-.525.45a9.73,9.73,0,0,1,1.065,1.23l1.155-.66a5.985,5.985,0,0,0-.93-1.02Zm-1.7-2.79H132.99V51.7h5.535Zm0,1.68H132.99v-.7h5.535Zm3.735-3.945V48.82h-3.48a5.824,5.824,0,0,0,.42-.885h2.13v-1.23h-4.7v-.27c0-.045.015-.075.105-.135.06-.03.15-.09.15-.15s-.09-.135-.3-.15l-1.785-.1v.81H130.11v1.23h2.13a5.429,5.429,0,0,1,.39.885h-3.375v1.305Zm-4.95-2.19a7.437,7.437,0,0,1-.375.885h-2.4a6.564,6.564,0,0,0-.465-.885Zm4.815,9.675a14.111,14.111,0,0,0-1.635-2.04l-1.185.675a15.113,15.113,0,0,1,1.71,2.19Zm-2.835-.72-1.35-.615c0,.645-.15,1.11-.555,1.11h-2.61a.345.345,0,0,1-.375-.345V56.035c0-.045.06-.1.135-.18a.229.229,0,0,0,.09-.15c0-.06-.09-.135-.315-.15l-1.29-.06V57.7c0,.69.33,1.02,1.455,1.02h3.375C139.1,58.72,139.245,57.25,139.29,56.89Zm-6.87-.48c0-.1-.15-.21-.24-.255l-1.095-.645a13.4,13.4,0,0,1-1.665,2.325l1.215.765A19.719,19.719,0,0,0,132,56.65c.045-.075.06-.075.225-.105C132.27,56.545,132.42,56.53,132.42,56.41Zm25.35.495a10.841,10.841,0,0,1-3.99-4.035h3.3V51.4h-3.765V49.54h3.18V48.085h-3.18v-1.53a.413.413,0,0,1,.165-.24c.03-.03.165-.15.165-.255,0-.165-.225-.18-.33-.18l-1.785-.1v2.31h-2.58V49.54h2.58V51.4h-2.985v-4.1h-4.08V57.04h1.5V55.465h2.58v-2.6h2.295a11.114,11.114,0,0,1-1.77,2.475,9.912,9.912,0,0,1-2.415,1.86L147.99,58.3a11.447,11.447,0,0,0,3.54-3.42v3.87h1.785V54.985a9.712,9.712,0,0,0,3.12,3.06Zm-10.755-2.9h-1.05V48.775h1.05Zm26.205-6.39a6.833,6.833,0,0,0-1.17-1.26l-.78.57a5.956,5.956,0,0,1,1.065,1.29Zm-1.635.84a9.241,9.241,0,0,0-1.155-1.275l-.81.6A6.7,6.7,0,0,1,170.8,49.1Zm-.24,4.05c0-1.59-2.04-4.005-2.73-4.83l-1.215.84c1.59,1.845,2.16,3.075,2.16,3.45s-.315.435-.855.51L169.5,53.9C170.055,53.83,171.345,53.65,171.345,52.51Zm-3.4.015c0-1.335-.18-3.12-2.205-3.12a6.267,6.267,0,0,0-1.1.105c.12-.675.15-.945.225-1.545.03-.195.03-.195.21-.315.15-.09.165-.105.165-.165,0-.12-.165-.195-.36-.225l-1.8-.255a17.951,17.951,0,0,1-.15,2.85c-1.23.27-1.74.375-2.88.555l.555,1.8a13.434,13.434,0,0,1,2.04-.81,15.921,15.921,0,0,1-2.715,5.85l1.56.705a20.135,20.135,0,0,0,2.85-6.945,4.963,4.963,0,0,1,.81-.075c.93,0,1.215.36,1.215,1.515a6.721,6.721,0,0,1-.795,3.45,1.167,1.167,0,0,1-1.035.42,4.415,4.415,0,0,1-1.02-.12l.36,1.62a10.556,10.556,0,0,0,1.125.06,2.253,2.253,0,0,0,1.71-.585C167.415,56.62,167.94,54.685,167.94,52.525Zm17.955,3.7a13.778,13.778,0,0,0-2.58-1.365,14.862,14.862,0,0,1-.2-2.085,1.374,1.374,0,0,1,.57-1.2l-1.56-.84a2.266,2.266,0,0,0-.645,1.53c0,.315.18,1.845.21,2.19a7.57,7.57,0,0,0-1.17-.09c-2.07,0-2.655,1.32-2.655,2.13a1.7,1.7,0,0,0,.555,1.275,3.565,3.565,0,0,0,2.445.7c1.965,0,2.415-.63,2.55-1.83a8.257,8.257,0,0,1,1.485.99Zm-4.125-.27c0,.54.015,1.17-1.2,1.17-.825,0-1.245-.345-1.245-.675,0-.3.36-.72,1.14-.72A5.037,5.037,0,0,1,181.77,55.96Zm4.545-6a7.413,7.413,0,0,0-3.345-1.38l-.675,1.29a10.617,10.617,0,0,1,3.285,1.365Zm-4.47-.78V47.5c-.39.135-.84.285-1.725.51.06-.2.345-1.155.36-1.17.09-.09.345-.18.345-.33,0-.165-.285-.24-.36-.255l-1.635-.36a14.311,14.311,0,0,1-.54,2.475,19.968,19.968,0,0,1-2.55.195l.225,1.56c.705-.045,1.125-.09,1.815-.18a25.73,25.73,0,0,1-2.565,5.46l1.605.69A36.583,36.583,0,0,0,179.6,49.66C180.87,49.435,181.335,49.315,181.845,49.18Zm-116.9,27.5a12.752,12.752,0,0,0-2.46-6.375l-1.545.75a13.949,13.949,0,0,1,2.205,6.09Zm-6.615-.225-1.245-1.11c-.285.72-.9,2.31-1.44,2.31-.3,0-1.02-.54-1.02-3.465a15.549,15.549,0,0,1,.285-3.345c.255-.09.435-.15.435-.315S55.1,70.27,55,70.24l-1.65-.45a14.609,14.609,0,0,0-.45,3.9c0,2.85.48,4.6,1.53,5.625a1.636,1.636,0,0,0,1.11.495C56.753,79.81,57.5,78.22,58.327,76.45Zm19.785,4.065V78.6a19.439,19.439,0,0,1-4.635.675c-1.575,0-2.76-.525-2.76-1.6,0-1,1.11-1.77,1.785-2.19a22.567,22.567,0,0,1,5.55-2.37l-.555-1.83c-1.845.87-2.04.96-3.765,1.77a1.826,1.826,0,0,1-.87-1.02,12.139,12.139,0,0,1-.435-3.555l-1.92.285a19.39,19.39,0,0,0,.765,3.8,4.724,4.724,0,0,0,.885,1.35c-1.65.975-3.105,1.935-3.105,3.81a2.858,2.858,0,0,0,1.53,2.565,6.45,6.45,0,0,0,3.3.6A26.907,26.907,0,0,0,78.113,80.515Zm17.04-5.46-1.32-.81c-.03.42-.075,1.035-.435,1.035-.27,0-.69-.36-.93-.585a12.593,12.593,0,0,0,1.35-2.25c.03-.06.09-.075.165-.09.09-.015.195-.03.195-.12,0-.045-.015-.105-.3-.24l-1.305-.645a11.856,11.856,0,0,1-1.02,2.055,6.958,6.958,0,0,1-.7-2.19h4.23v-1.47h-1.95l.705-.45a5.64,5.64,0,0,0-1.08-1.08l-1.23.675c.39.4.585.6.81.855H90.7a8.707,8.707,0,0,1,0-.885c.045-.06.345-.24.345-.3,0-.12-.165-.165-.435-.18l-1.485-.09a12.015,12.015,0,0,0,.03,1.455H83.137c.03.675.06,1.365.06,1.995A8.348,8.348,0,0,1,82,76.585l1.455.75c.975-1.575,1.275-2.895,1.245-6.12h4.665a10.586,10.586,0,0,0,1.215,3.51A6.176,6.176,0,0,1,89,76.03v-2.6h-3.99v3.24h1.275v-.5h2.58l1.2,1.08a6.935,6.935,0,0,0,1.425-1.32,3.682,3.682,0,0,0,2.31,1.305C94.793,77.245,95.122,75.445,95.152,75.055Zm-7.275.12h-1.59v-.81h1.59Zm1.185-2.31v-1.14H85.1v1.14Zm6.165,7.02a18.013,18.013,0,0,0-1.74-2.625l-1.44.885a10.8,10.8,0,0,1,1.815,2.64ZM90.2,78.355a12.428,12.428,0,0,0-1.335-1.665l-1.14.78a11.2,11.2,0,0,1,1.215,1.65Zm2.13.75-1.38-.855c-.1,1.32-.66,1.365-1.065,1.365H88c-.18,0-.7-.03-.7-.45V77.89c0-.06.075-.1.12-.135.105-.06.135-.12.135-.18,0-.12-.09-.12-.33-.135l-1.56-.09v2.91c0,.525.66.885,1.23.885h3.465c1.185,0,1.485-.51,1.62-.735A2.306,2.306,0,0,0,92.333,79.105Zm-6.96-.945c0-.12-.18-.21-.27-.255l-1.395-.66a10.853,10.853,0,0,1-1.545,3.015l1.35.9a9.664,9.664,0,0,0,1.5-2.79c.03-.045.06-.06.27-.12C85.342,78.235,85.372,78.22,85.372,78.16Zm23.775-7.605a9.485,9.485,0,0,0-1.395-1.29l-.63.705a9.985,9.985,0,0,1,1.38,1.29Zm-1.365,1.32a9.085,9.085,0,0,0-1.4-1.29l-.63.705a9.426,9.426,0,0,1,1.38,1.29Zm1.155,4.89-1.425-1.185c-1.215,2.565-3.03,3.45-4.23,3.45a1.486,1.486,0,0,1-1.215-.54c-.21-.255-.36-.66-.36-2.82a41.2,41.2,0,0,1,.36-5.88c.09-.09.345-.27.345-.4,0-.165-.42-.21-.465-.21l-1.92-.225c.015.93,0,5.085,0,5.94,0,3.645.315,4.59.945,5.175a3.273,3.273,0,0,0,2.2.765C106.058,80.83,107.842,78.385,108.938,76.765Zm14.6-.225a3.306,3.306,0,0,0-3.33-3.315,11.942,11.942,0,0,0-1.455.09,37.088,37.088,0,0,1,3.33-3.21l-.78-1.215a17,17,0,0,1-4.545.75c-.465,0-1.32-.06-1.68-.09l.345,1.68a14,14,0,0,0,3.51-.375,29.613,29.613,0,0,1-5.55,5.415l1.26,1.32a16.933,16.933,0,0,1,3.09-2.685,4.068,4.068,0,0,1,1.71-.375c.975,0,2.43.48,2.43,1.965a2.642,2.642,0,0,1-.99,1.995,3.921,3.921,0,0,0-2.955-1.755,2.1,2.1,0,0,0-2.205,2c0,1.11.96,2.055,2.835,2.055C121.192,80.785,123.533,79.03,123.533,76.54Zm-4.05,2.685a4.265,4.265,0,0,1-1.02.135c-.54,0-1.23-.15-1.23-.675a.661.661,0,0,1,.75-.63C118.838,78.055,119.287,78.88,119.482,79.225Zm9.645,1.275V78.43H127.1V80.5Zm3.885,0V78.43h-2.025V80.5Zm3.885,0V78.43h-2.025V80.5Z" transform="translate(72 3390)"/><path class="b" d="M1059.932-819.054c-29.366-.2-48.626,18.756-75.836,13.261s-27.949-26.466-49.278-39.122-24.579-61.251-3.513-81.736,69.2-48.863,105.383-40.21a419.333,419.333,0,0,0,79.736,11.425c17.908.978,47.153-6.023,61.835,12.338s25.533,42.756,16.213,72.951-13.521,32.984-52.985,41.921S1089.3-818.855,1059.932-819.054Z" transform="translate(-890.939 4320)"/><g class="b" transform="translate(309 3371)"><circle class="c" cx="11.5" cy="11.5" r="11.5"/><circle class="d" cx="11.5" cy="11.5" r="10.5"/></g><g class="b" transform="translate(334 3360)"><circle class="c" cx="7.5" cy="7.5" r="7.5"/><circle class="d" cx="7.5" cy="7.5" r="6.5"/></g><path class="a" d="M13.88,12.1V2.06H8.658V12.616H10.17v-1.54h2.184V12.1ZM8.42,10.544a6.276,6.276,0,0,1-2.226-3.01l.028-.126H8.238V5.952H6.362c.084-.938.1-1.568.112-2.24h1.54V2.354H4.64a8.756,8.756,0,0,1,.224-.868c.028-.07.1-.112.21-.168.084-.042.14-.07.14-.154s-.168-.14-.224-.154L3.436.632a10.983,10.983,0,0,1-1.6,4.284l1.5.574A7.524,7.524,0,0,0,4.22,3.712h.63a19.386,19.386,0,0,1-.028,2.24H2.106V7.408H4.654a6.471,6.471,0,0,1-2.968,4.424l1.512.924a8.124,8.124,0,0,0,2.38-3.234,8.959,8.959,0,0,0,1.75,2.184Zm3.934-.882H10.17V3.474h2.184ZM25.92,5.476c0-.924-.084-1.96-.168-2.94-.014-.14-.084-.728-.084-.854s.252-.21.252-.336c0-.182-.252-.182-.294-.182H23.932a36.527,36.527,0,0,1,.35,4.354,8.509,8.509,0,0,1-.854,3.752,6.179,6.179,0,0,1-1.988,2.366l1.666.882a9.374,9.374,0,0,0,1.96-2.87A10.327,10.327,0,0,0,25.92,5.476Zm-4.494-.434-.98-.644c-.35.784-.63,1.512-.812,1.988a3.154,3.154,0,0,1-.1-.868c0-.84.224-3.514.518-3.752.056-.056.2-.112.2-.21,0-.14-.21-.168-.294-.168L18.43,1.3a26.5,26.5,0,0,0-.392,4.144,11.037,11.037,0,0,0,.63,3.808h1.19A32.421,32.421,0,0,1,21.426,5.042Zm21.2-.014A11.257,11.257,0,0,1,39.108,3.4a8.947,8.947,0,0,1-2.212-2.2c.084-.056.21-.168.21-.224s-.07-.126-.2-.154L35.272.506a12.133,12.133,0,0,1-5.8,5.012l1.176,1.19a12.724,12.724,0,0,0,2.492-1.456V6.12h5.628V4.986a12.617,12.617,0,0,0,2.646,1.442Zm-4.256-.336H33.872a10.7,10.7,0,0,0,2.1-2.324A14.772,14.772,0,0,0,38.366,4.692Zm1.764,7.9V7.212H31.954v5.432H33.48v-.476h5.068v.42Zm-1.582-1.862H33.48V8.584h5.068Zm17.3-2.3a11.9,11.9,0,0,0-2.3-5.95l-1.442.7a13.019,13.019,0,0,1,2.058,5.684Zm-6.174-.21L48.516,7.184c-.266.672-.84,2.156-1.344,2.156-.28,0-.952-.5-.952-3.234a14.512,14.512,0,0,1,.266-3.122c.238-.084.406-.14.406-.294s-.224-.238-.322-.266L45.03,2a13.635,13.635,0,0,0-.42,3.64c0,2.66.448,4.3,1.428,5.25a1.527,1.527,0,0,0,1.036.462C48.208,11.356,48.908,9.872,49.678,8.22Zm17.066,2.17V5.672h-5.7v5.306h1.47V10.39Zm-1.456-1.4H62.516V6.96h2.772ZM67.3,4.65V3.334H60.542V4.65Zm2.268,6.468V.828H58.428V12.5h1.5V2.27h8.106V10.6c0,.5-.14.588-.686.588q-.189,0-.63-.042L67.29,12.7C68.886,12.672,69.572,12.364,69.572,11.118ZM84.02,6.064V4.426H78.91V1.4c0-.042.056-.084.14-.126a.235.235,0,0,0,.14-.21c0-.252-.434-.294-.532-.308L77.076.6V4.426H72.008V6.064h5.068v4.788h-4.1v1.554H83V10.852H78.91V6.064Zm12.418.84V5.574a10.645,10.645,0,0,0-1.3-.056,18.844,18.844,0,0,0-2.324.14V7A16.269,16.269,0,0,1,96.438,6.9ZM93.526,4.342V2.816a7.212,7.212,0,0,1-2.072.826c.1-.406.238-1.078.252-1.148.042-.294.042-.336.14-.392.224-.168.252-.182.252-.238,0-.1-.084-.154-.308-.21l-1.582-.392A13.765,13.765,0,0,1,89.83,4.02a11.673,11.673,0,0,1-2.338.168l.1,1.316a5.692,5.692,0,0,0,.84-.084c.112-.014,1.078-.154,1.078-.154a22.345,22.345,0,0,1-2.562,6.384L88.5,12.1a39.477,39.477,0,0,0,2.632-7.084A13.1,13.1,0,0,0,93.526,4.342Zm3.612-2.016a8.246,8.246,0,0,0-1.064-1.092l-.6.6a8.111,8.111,0,0,1,1.05,1.078Zm-1.47.728A10.168,10.168,0,0,0,94.562,1.92l-.588.56A9.052,9.052,0,0,1,95.08,3.614Zm1.036,8.82-.168-1.484a8.26,8.26,0,0,1-2.268.28,3.141,3.141,0,0,1-1.6-.308.465.465,0,0,1-.182-.378,3.219,3.219,0,0,1,.056-.532l-1.3-.2a3.821,3.821,0,0,0-.084.826c0,1.9,1.778,1.988,3.136,1.988A12.261,12.261,0,0,0,96.7,11.874Zm13.44.14V10.222a18.143,18.143,0,0,1-4.326.63c-1.47,0-2.576-.49-2.576-1.5,0-.938,1.036-1.652,1.666-2.044a21.063,21.063,0,0,1,5.18-2.212L109.57,3.39c-1.722.812-1.9.9-3.514,1.652a1.7,1.7,0,0,1-.812-.952,11.329,11.329,0,0,1-.406-3.318l-1.792.266a18.1,18.1,0,0,0,.714,3.542,4.409,4.409,0,0,0,.826,1.26c-1.54.91-2.9,1.806-2.9,3.556a2.667,2.667,0,0,0,1.428,2.394,6.02,6.02,0,0,0,3.08.56A25.113,25.113,0,0,0,110.144,12.014Zm3.724-2.31a11.51,11.51,0,0,1,2.7,3.108l1.456-1.162a8.235,8.235,0,0,0-3.108-3.038ZM130.43,6.68h-3.822V5.644h3.822Zm2.506,1.414c0-.1-.2-.21-.308-.28l-.8-.462V4.636h-6.622V7.674H126.9a7.213,7.213,0,0,1-2.576,1.6l1.092,1.064a9.553,9.553,0,0,0,2.31-1.666v2.254h1.582V8.948a9.151,9.151,0,0,0,2.226,1.834L132.6,9.718a6.105,6.105,0,0,1-1.176-.6c.406-.35.518-.462.826-.742a.38.38,0,0,1,.322-.154C132.866,8.22,132.936,8.22,132.936,8.094Zm-1.89-.42a4.081,4.081,0,0,1-.7.6,6.167,6.167,0,0,1-.574-.6Zm2-3.5V3.082h-3.682V2.508h2.884V1.444h-2.884v-.21c0-.07.014-.084.182-.2a.125.125,0,0,0,.07-.112c0-.154-.154-.182-.49-.21L127.714.6v.84h-2.772V2.508h2.772v.574H124.1V4.174Zm-8.932-1.526A8.541,8.541,0,0,0,122.128.926l-1.19,1.2a8.432,8.432,0,0,1,1.974,1.68Zm9.254,8.316a45.105,45.105,0,0,1-5.67.336c-2.87,0-3.6-.42-3.6-1.876V5.672h-3.164V7.184h1.624v2.94a15.133,15.133,0,0,1-1.876,1.106l.8,1.414c.042.07.224.35.35.35.084,0,.1-.07.1-.21.014-.182.014-.182.252-.406.266-.252,1.092-1.036,1.232-1.176a2.3,2.3,0,0,0,1.288,1.106,5.564,5.564,0,0,0,1.974.336h5.936Zm13.58.546a9.6,9.6,0,0,0-1.75-1.694h.56V6.568h-7.882V9.816h3.668l-.294.42a8.105,8.105,0,0,1,1.19,1.036l.756-.91a8.1,8.1,0,0,0-.658-.546h2.338l-.784.672a8.411,8.411,0,0,1,1.722,1.9Zm-2.576-3.682H142.54V7.38h1.834Zm0,1.12H142.54V8.542h1.834Zm-3.192-1.12h-1.82V7.38h1.82Zm0,1.12h-1.82V8.542h1.82Zm5.642-4.494V2.494h-5.152v-.42h3.878V1.192h-3.878c0-.126,0-.14.084-.182s.112-.112.112-.154c0-.14-.084-.14-.294-.154L140.02.6v1.89h-4.452a36.187,36.187,0,0,1,.238,3.808,16.9,16.9,0,0,1-.42,3.92,11.755,11.755,0,0,1-.742,2.072l1.414.518A14.048,14.048,0,0,0,137.3,6.624c0-1.428-.084-2.45-.112-3h2.828v.546L137.6,4.4l.112.966,2.31-.21c0,.868.084,1.106,1.26,1.106h3.43c.658,0,1.064-.392,1.26-1.19l-1.022-.476c-.056.21-.2.784-.6.784H142.12c-.476,0-.5-.21-.518-.392l2.856-.28-.112-.966-2.758.28V3.628h3.78v.826Zm-2.184,6.594-1.19-.462c-.084.448-.238.994-.63.994h-1.33c-.2,0-.42-.042-.42-.266V10.74c.014-.028.224-.308.224-.322,0-.084-.126-.14-.238-.14l-1.386-.028V12c0,.6.378.784.966.784h2.3C143.506,12.784,144.5,12.7,144.64,11.048Zm-5.264-.49c0-.07-.14-.126-.2-.14L137.948,10a4.572,4.572,0,0,1-1.106,2.072l1.176.742a6.027,6.027,0,0,0,1.134-2.1C139.222,10.684,139.376,10.642,139.376,10.558Zm21.336-5.782c0-1.764-1.512-2.464-2.842-2.464a6.1,6.1,0,0,0-1.722.308,15.094,15.094,0,0,0-1.4-1.666l-1.442.672a8.125,8.125,0,0,1,1.414,1.54c-.588.252-1.008.448-1.764.84-.238-.434-.658-1.2-.756-1.344a2.121,2.121,0,0,1-.182-.35c0-.07.112-.35.112-.42,0-.252-.392-.056-.56.014l-1.484.644a14.83,14.83,0,0,1,1.442,2.226c-1.946,1.12-2.17,1.246-2.366,1.358l1.26,1.386a13.5,13.5,0,0,1,1.82-1.372,32.132,32.132,0,0,1,2.38,6.3l1.568-.7a42.16,42.16,0,0,0-2.576-6.412,20.119,20.119,0,0,1,1.932-.952,10.713,10.713,0,0,1,.7,1.274l1.512-.644c-.322-.532-.546-.9-.742-1.162a3.646,3.646,0,0,1,.91-.168c.448,0,1.3.28,1.3,1.05,0,.966-1.022,1.848-2.7,1.848a6.046,6.046,0,0,1-.868-.07l.532,1.526C157.282,8.01,160.712,7.912,160.712,4.776Zm13.258-1.9V1.612h-7.644c.168-.336.182-.378.252-.42l.2-.1A.2.2,0,0,0,166.8,1c0-.1-.14-.14-.2-.154L164.9.394a9.762,9.762,0,0,1-2.072,3.71l1.442.784a12.406,12.406,0,0,0,1.372-2.016Zm-1.4,2V3.614h-6.8v1.26Zm2.744,5.8-1.092-.8c-.014.224-.14.994-.378.994-.518,0-.812-1.554-.812-2.968a15.5,15.5,0,0,1,.168-2.282h-9.128V6.988h7.434a9.34,9.34,0,0,0,.672,4.438,2.4,2.4,0,0,0,1.722,1.5C174.684,12.924,175.076,11.706,175.314,10.67Zm-5.012.91A18.025,18.025,0,0,0,168.5,9.69a12.2,12.2,0,0,0,.9-1.442.589.589,0,0,1,.21-.112c.042-.014.112-.042.112-.112,0-.112-.154-.2-.224-.224l-1.33-.588a9.632,9.632,0,0,1-.826,1.512,10.659,10.659,0,0,0-1.9-1.162l-.8,1.274A8.723,8.723,0,0,1,166.354,9.9a7.392,7.392,0,0,1-3.066,1.792l1.022,1.246a9.616,9.616,0,0,0,3.15-2.044,18.844,18.844,0,0,1,1.512,1.792Zm18.9-5.418a16.092,16.092,0,0,0-1.848-2.688l-1.134.84a3.837,3.837,0,0,1,.462.546c-.6.1-1.288.168-1.638.2,1.19-1.232,1.862-1.988,2.786-3.024.266-.056.434-.014.434-.2,0-.14-.182-.2-.28-.238l-1.4-.6a26.3,26.3,0,0,1-2.016,2.6,2.975,2.975,0,0,0-.6-.546,19.3,19.3,0,0,0,1.386-1.61c.224-.042.448-.042.448-.168,0-.1-.182-.14-.308-.2L184.12.534a6.2,6.2,0,0,1-1.2,1.68c-.252-.2-.5-.378-.77-.56L181.1,2.746a12.505,12.505,0,0,1,2.436,2,2.077,2.077,0,0,1-.476.448c-.84.042-1.232.056-2.1.056l.336,1.6c.014.084.056.14.112.14s.1-.07.224-.238a.2.2,0,0,1,.14-.1c.182-.028,1.022-.112,1.19-.126a8.034,8.034,0,0,1-2.912,3.094V6.5c0-.042.14-.2.168-.238a.154.154,0,0,0,.07-.14.176.176,0,0,0-.084-.154l-.2-.1c.462-.588.728-.966,1.022-1.414.21-.084.392-.084.392-.21,0-.1-.14-.126-.252-.168l-1.344-.518a13.169,13.169,0,0,1-3.178,3.752l1.246.91c.252-.238.448-.448.56-.56v5.068h1.6V9.83l1.19.826a8.28,8.28,0,0,0,1.512-1.344,5.681,5.681,0,0,0,.882,1.008,9.5,9.5,0,0,1-3.01,1.26l1.106,1.176a11.059,11.059,0,0,0,3.038-1.554,12.255,12.255,0,0,0,3.248,1.4l.994-1.47a8.753,8.753,0,0,1-3.038-.91,10.058,10.058,0,0,0,1.918-2.31l-.5-.714h-3.094a.984.984,0,0,1,.182-.266c.126-.028.2-.028.2-.084s-.084-.1-.14-.14l-.42-.322c1.96-.224,2.282-.266,3.318-.406a7.249,7.249,0,0,1,.532.952Zm-8.288-4.508c0-.1-.1-.154-.182-.2l-1.358-.7a9.483,9.483,0,0,1-2.66,2.8l1.358.91a14.452,14.452,0,0,0,2.436-2.618C180.7,1.78,180.914,1.78,180.914,1.654Zm4.746,6.79a4.972,4.972,0,0,1-.882,1.008,3.85,3.85,0,0,1-.854-1.008Zm16.954,2-.434-1.568c-.574.812-1.106,1.064-1.5,1.064s-.518-.154-.518-.924a19.437,19.437,0,0,1,.14-1.974c.182-1.876.2-2.03.2-2.282a1.6,1.6,0,0,0-1.54-1.68c-.938,0-2.268,1.246-2.814,1.75l.308-.616-.9-.854a9.81,9.81,0,0,1,.14-1.848c.042-.042.252-.224.252-.266,0-.126-.126-.14-.35-.168L194.214.926l-.056,3.01a11.42,11.42,0,0,1-2.52.672l.686,1.512c.7-.224,1.078-.364,1.82-.63l-.028,1.232a16.019,16.019,0,0,1-2.66,3.22l1.456.98c.49-.77.728-1.106,1.162-1.708l-.042,3.234,1.568-.084c-.084-1.638-.084-3.094-.1-5.04.98-1.2,2.058-2.548,2.856-2.548.476,0,.546.574.546.938,0,.588-.252,3.192-.252,3.724,0,.35,0,2.3,1.624,2.3A3.363,3.363,0,0,0,202.614,10.446ZM216.6,5.252a6.459,6.459,0,0,0-1.162-1.064l-.588.672a6.482,6.482,0,0,1,1.162,1.064Zm-1.134,1.274A6.1,6.1,0,0,0,214.3,5.448l-.574.672A6.215,6.215,0,0,1,214.878,7.2Zm.462-3.654V1.248a38.716,38.716,0,0,1-10.01,1.12l.238,1.568c1.4-.2,3.458-.364,5.334-.518a10.438,10.438,0,0,0-1.848,2.128,5.092,5.092,0,0,0-.952,2.786,3.512,3.512,0,0,0,1.036,2.52,6.283,6.283,0,0,0,3.444,1.554l.546-1.708a4.409,4.409,0,0,1-2.464-.714,2.222,2.222,0,0,1-1.008-1.82,5.2,5.2,0,0,1,1.708-3.36A5.705,5.705,0,0,1,215.928,2.872ZM13.782,34.99V23.482H7.8V35.088h1.54v-.84h2.87v.742Zm-1.568-5.46H9.344V27.864h2.87Zm0-3.024H9.344V24.84h2.87Zm0,6.314H9.344V30.888h2.87Zm-4.7-3.234a9.681,9.681,0,0,1-1.9-2.884v-.154H7.44v-1.33H5.606V23.706c0-.042.07-.1.14-.154s.084-.1.084-.126c0-.154-.294-.168-.378-.182l-1.274-.126v2.1H2.12v1.33H4.052a11.839,11.839,0,0,1-2.52,4.914l1.3.77a11.311,11.311,0,0,0,1.344-2.016v4.872H5.606V29.474a12.952,12.952,0,0,0,.868,1.148ZM19.9,24.658v-1.2H16.61v1.2Zm.406,1.75V25.232H16.064v1.176Zm7.7,7.5c-2.8-.966-3.192-2.52-3.192-4.06a.32.32,0,0,1,.154-.336c.168-.154.238-.224.238-.336S25.094,29,24.66,29l-1.5-.014c.014.224.042.56.042.91,0,3.36-2.142,3.878-3.01,4.06V30.72H16.246v4.4h1.386v-.56h1.162v.434h1.4v-.882l1.134,1.218a4.846,4.846,0,0,0,2.8-2.478,6.228,6.228,0,0,0,2.688,2.366Zm-9.212-.546H17.632V31.938h1.162ZM27.88,24.8c0-.1-.112-.182-.168-.21L26.4,23.874a8.369,8.369,0,0,1-1.386,1.694l1.12.882a6.431,6.431,0,0,0,1.246-1.4c.07-.084.1-.084.308-.1C27.74,24.938,27.88,24.924,27.88,24.8Zm.294,3.528A7.268,7.268,0,0,1,25.5,26.9a2.261,2.261,0,0,1-.756-1.876,5.918,5.918,0,0,1,.084-1.358,1.537,1.537,0,0,0,.154-.168.225.225,0,0,0,.07-.154c0-.126-.154-.154-.532-.168l-1.4-.028c.028.336.056.77.056,1.246,0,1.96-.364,3.15-2.968,3.934l1.078,1.246A5.755,5.755,0,0,0,24.044,27.3a6.419,6.419,0,0,0,2.926,2.324Zm-5.614-3.6c0-.084-.112-.112-.308-.154l-1.288-.238a9.185,9.185,0,0,1-.308,2.226l1.372.252a12.084,12.084,0,0,0,.252-1.82C22.392,24.938,22.56,24.84,22.56,24.728Zm5.194,5.754c0-.1-.154-.21-.224-.238l-1.3-.546a7.718,7.718,0,0,1-1.008,1.554l1.2.784a6.446,6.446,0,0,0,.868-1.344c.07-.014.154-.056.252-.07C27.684,30.594,27.754,30.566,27.754,30.482Zm-7.84-2.31v-1.19h-3.36v1.19Zm2.884,2.31c0-.084-.1-.126-.308-.168l-1.4-.294a6.257,6.257,0,0,1-.574,2.114l1.4.462a7.643,7.643,0,0,0,.588-1.862C22.616,30.678,22.8,30.594,22.8,30.482Zm-2.884-.434V28.872h-3.36v1.176ZM41.04,31.084,39.668,29.95c-1.372,2.688-3.248,3.178-4.032,3.178A1.35,1.35,0,0,1,34.4,32.54a7.372,7.372,0,0,1-.266-2.478,52.915,52.915,0,0,1,.392-5.6c.224-.182.392-.294.392-.406,0-.084-.126-.182-.462-.224L32.6,23.566c.042.938-.07,5.1-.07,5.95,0,3.36.224,4.074.882,4.648a3.114,3.114,0,0,0,2.044.714,5.06,5.06,0,0,0,2.786-.9A10.446,10.446,0,0,0,41.04,31.084Zm14.784-7.322a5.872,5.872,0,0,0-1.078-1.134l-.672.574a5.936,5.936,0,0,1,1.078,1.134ZM53.962,24A5.919,5.919,0,0,0,52.9,22.866l-.686.574a5.683,5.683,0,0,1,1.078,1.12Zm1.47,4.9A3.772,3.772,0,0,0,51.4,24.938a13.98,13.98,0,0,0-3.276.63,20.729,20.729,0,0,1-3.92.924l.784,1.764c2.6-.994,5.138-1.89,6.37-1.89a2.3,2.3,0,0,1,2.52,2.352c0,2.926-4.326,3.29-5.292,3.29-.168,0-.294-.014-.63-.028l.714,1.708C50.238,33.492,55.432,32.806,55.432,28.9Zm10.332-4.186a16.635,16.635,0,0,0-3.346-1.442l-.6,1.386a13.261,13.261,0,0,1,3.234,1.526Zm2.576,6.244a3.021,3.021,0,0,0-3.108-3.066,5.384,5.384,0,0,0-3.444,1.414,17.886,17.886,0,0,1,.84-3.08l-1.61-.63a27.329,27.329,0,0,0-1.092,5.348l1.218.644c1.442-1.68,2.856-2.24,3.822-2.24,1.05,0,1.764.574,1.764,1.47,0,1.288-1.19,2.646-3.794,2.646a14.02,14.02,0,0,1-1.75-.154l.742,1.722C63.664,34.99,68.34,34.906,68.34,30.958Zm15.512-.028a11.9,11.9,0,0,0-2.3-5.95l-1.442.7a13.019,13.019,0,0,1,2.058,5.684Zm-6.174-.21-1.162-1.036c-.266.672-.84,2.156-1.344,2.156-.28,0-.952-.5-.952-3.234a14.512,14.512,0,0,1,.266-3.122c.238-.084.406-.14.406-.294s-.224-.238-.322-.266l-1.54-.42a13.635,13.635,0,0,0-.42,3.64c0,2.66.448,4.3,1.428,5.25a1.527,1.527,0,0,0,1.036.462C76.208,33.856,76.908,32.372,77.678,30.72Zm20.356-2.548V26.814H95.3V24.938c.868-.14,1.414-.266,1.554-.308a2.7,2.7,0,0,1,.574-.112,3.661,3.661,0,0,0,.392,0,.079.079,0,0,0,.07-.084.171.171,0,0,0-.042-.126l-1.036-1.232a15.134,15.134,0,0,1-5.642.952L91.72,25.3a19.225,19.225,0,0,0,1.96-.126v1.638h-2.6v1.358h2.6v1.75H91.608V35h1.47v-.448H96v.336h1.54v-4.97H95.3v-1.75Zm-7.742-3.5V23.4H86.778v1.274ZM96,33.184H93.078v-1.89H96ZM90.474,28.3V27.066H86.68V28.3Zm-.056,1.82V28.9H86.68v1.218Zm.28,4.76V30.72H86.26V35.1h1.386v-.6H89.27v.378ZM89.27,33.2H87.646V32.064H89.27ZM91.1,26.506V25.218H85.98v1.288Zm19.362,5.124a5.8,5.8,0,0,0-.924-3.038l-1.3.686a4.3,4.3,0,0,1,.63,2.086c0,1.694-1.414,2.184-2.562,2.184a1.884,1.884,0,0,1-1.316-.42,1.67,1.67,0,0,1-.448-1.232,8.467,8.467,0,0,1,.168-1.288c.378.028.714.07,1.246.07.686,0,1.12-.042,1.33-.056l.364-1.54a9.1,9.1,0,0,1-1.652.112,5.391,5.391,0,0,1-.924-.042c.252-.9.42-1.4.588-1.876a12.9,12.9,0,0,0,2.058.112l.322-1.512c-.812.014-1.134.014-1.834-.014a14.554,14.554,0,0,1,.742-1.638c.224-.07.42-.028.42-.2s-.21-.224-.322-.266l-1.61-.6c-.2.714-.406,1.3-.826,2.52a10.68,10.68,0,0,1-2.38-.7l-.126,1.624c.8.21,1.162.28,2.03.448-.308.91-.434,1.372-.574,1.862a9.96,9.96,0,0,1-1.89-.532l-.238,1.54a11.052,11.052,0,0,0,1.764.462,9.62,9.62,0,0,0-.168,1.582c0,2.576,2.03,3.052,3.388,3.052C108.184,35.018,110.466,34.052,110.466,31.63Zm14.63-.518a3.255,3.255,0,0,0-2.52-3.22l.224-.644-1.61-.35c-.056.266-.1.448-.168.728a6.184,6.184,0,0,0-1.526.112c.07-.56.084-.63.168-1.148a19.421,19.421,0,0,0,3.7-.742v-1.5a13.666,13.666,0,0,1-3.43.938,10.148,10.148,0,0,1,.434-1.372c.154-.042.322-.084.322-.21,0-.042,0-.112-.35-.21L118.88,23.1a23.083,23.083,0,0,0-.518,2.366,19.784,19.784,0,0,1-2.66-.1l.462,1.386c.756,0,1.12,0,2-.042-.07.658-.112,1.008-.14,1.554-2.534,1.4-3.052,3.36-3.052,4.312a1.6,1.6,0,0,0,1.54,1.82,3.934,3.934,0,0,0,2-.7,3.1,3.1,0,0,0,.2.518l1.344-.728c-.14-.448-.168-.5-.266-.84a12.639,12.639,0,0,0,2.282-3.528,1.994,1.994,0,0,1,1.4,1.932,2.637,2.637,0,0,1-.812,1.932,4.062,4.062,0,0,1-2.394.994l1.022,1.288C122.254,34.99,125.1,34.192,125.1,31.112ZM120.6,28.83A11.276,11.276,0,0,1,119.454,31a14.208,14.208,0,0,1-.07-2.016A3.244,3.244,0,0,1,120.6,28.83Zm-2.394,3.514a2.223,2.223,0,0,1-1.3.6c-.238,0-.518-.084-.518-.658A3.584,3.584,0,0,1,118,29.782,19.957,19.957,0,0,0,118.208,32.344Zm19.712-4.368c0-.924-.084-1.96-.168-2.94-.014-.14-.084-.728-.084-.854s.252-.21.252-.336c0-.182-.252-.182-.294-.182h-1.694a36.527,36.527,0,0,1,.35,4.354,8.509,8.509,0,0,1-.854,3.752,6.179,6.179,0,0,1-1.988,2.366l1.666.882a9.374,9.374,0,0,0,1.96-2.87A10.327,10.327,0,0,0,137.92,27.976Zm-4.494-.434-.98-.644c-.35.784-.63,1.512-.812,1.988a3.154,3.154,0,0,1-.1-.868c0-.84.224-3.514.518-3.752.056-.056.2-.112.2-.21,0-.14-.21-.168-.294-.168L130.43,23.8a26.5,26.5,0,0,0-.392,4.144,11.037,11.037,0,0,0,.63,3.808h1.19A32.423,32.423,0,0,1,133.426,27.542Zm8.442,4.662a11.511,11.511,0,0,1,2.7,3.108l1.456-1.162a8.235,8.235,0,0,0-3.108-3.038Zm18.76,2.856V29.922h-5.922V35.06h1.554v-.6h2.786v.6Zm-1.582-1.96H156.26V31.294h2.786Zm2.016-6.832V24.9h-2.618V23.888c0-.014.014-.1.154-.252a.307.307,0,0,0,.112-.21c0-.1-.084-.154-.2-.154l-1.652-.07V24.9H154.3v1.372h2.562v1.386h-2.114v1.33h6.02v-1.33h-2.324V26.268ZM154.216,29.4a14.869,14.869,0,0,0-.9-2.2l-1.106.574c.112.21.224.518.266.616-.476.056-.6.056-1.148.1.728-.812,1.428-1.666,2.086-2.548.168-.21.168-.224.364-.252a.142.142,0,0,0,.126-.154.189.189,0,0,0-.07-.14l-1.092-.742c-.35.56-.588.91-1.26,1.82-.154-.14-.21-.182-.49-.42.546-.742.812-1.134,1.19-1.722.14-.21.14-.224.392-.308a.193.193,0,0,0,.14-.182.17.17,0,0,0-.07-.14l-1.19-.7a14.884,14.884,0,0,1-1.316,2.394c-.238-.168-.35-.252-.588-.406l-.742,1.12a9.606,9.606,0,0,1,1.82,1.456c-.168.224-.434.546-.868,1.036-.154,0-.9.028-1.05.042l.2,1.176c.014.1.056.322.182.322.056,0,.21-.168.252-.182a4.444,4.444,0,0,1,.49-.084c.028,0,.42-.056.812-.112v5.446H152V29.558c.56-.084.658-.1.812-.126.014.042.168.546.168.588Zm-.154,3.962a16.384,16.384,0,0,1-.546-2.968l-1.176.392a17.335,17.335,0,0,0,.49,2.954ZM150.506,31c0-.028-.042-.112-.238-.14l-1.176-.154a12,12,0,0,1-.63,3.416l1.274.266a13.4,13.4,0,0,0,.546-3.108C150.408,31.168,150.506,31.1,150.506,31Zm24.332-3.164h-8.9v-.812h7.98V23.44h-9.646c.056,1.232.07,2.464.07,3.682a16.694,16.694,0,0,1-.714,5.306,7.664,7.664,0,0,1-1.036,2.2l1.582.588a9.592,9.592,0,0,0,.994-2.45,19.347,19.347,0,0,0,.7-3.654H173.2c0,1.554,0,2.786-.07,3.318-.14,1.19-.56,1.246-.854,1.246-.042,0-.574-.014-1.218-.042l.742,1.512c1.694-.042,2.506-.364,2.772-1.96A17.88,17.88,0,0,0,174.8,30.3C174.838,29.012,174.838,28.494,174.838,27.836Zm-2.744-2.058h-6.16V24.756h6.16Zm-.2,7.462V29.95h-5.67V33.9h1.54V33.24Zm-1.568-1.288h-2.562v-.8h2.562Zm18.564-1.806V28.214H177.106v1.932Zm14.182,3.5c-2.422-1.288-5.138-2.842-5.138-8.484,0-.182,0-1.12.028-1.176s.252-.238.28-.28a.335.335,0,0,0,.112-.224c0-.21-.476-.21-.63-.21l-1.568-.056c.014.588.056,2.394.056,2.772a7.806,7.806,0,0,1-2.1,5.754,9.07,9.07,0,0,1-3,2.016l1.358,1.358c2.73-1.778,3.626-2.744,4.648-5.152,1.148,2.492,2.086,3.486,4.7,5.082ZM216.6,27.752a6.459,6.459,0,0,0-1.162-1.064l-.588.672a6.481,6.481,0,0,1,1.162,1.064Zm-1.134,1.274a6.1,6.1,0,0,0-1.162-1.078l-.574.672a6.216,6.216,0,0,1,1.148,1.078Zm.462-3.654V23.748a38.716,38.716,0,0,1-10.01,1.12l.238,1.568c1.4-.2,3.458-.364,5.334-.518a10.439,10.439,0,0,0-1.848,2.128,5.092,5.092,0,0,0-.952,2.786,3.512,3.512,0,0,0,1.036,2.52,6.283,6.283,0,0,0,3.444,1.554l.546-1.708a4.409,4.409,0,0,1-2.464-.714,2.222,2.222,0,0,1-1.008-1.82,5.2,5.2,0,0,1,1.708-3.36A5.705,5.705,0,0,1,215.928,25.372ZM59.646,55.488l-1.512-.7c-.014,1.12-.28,1.4-.966,1.4H54.662a.45.45,0,0,1-.518-.5V53.612h2.59l.588.994a1.387,1.387,0,0,0,1.512-.882c.5-1.19.476-4.2.462-6.622h-4.83c.168-.644.2-.728.294-.784.224-.14.224-.14.224-.224s-.1-.154-.336-.2l-1.624-.266a10.977,10.977,0,0,1-.98,3.318V47.7H50.728V46.3c0-.1.028-.112.238-.28a.177.177,0,0,0,.1-.14c0-.112-.154-.154-.336-.168l-1.526-.1V47.7H47.69V49.09H49.2v2.618c-.28.084-1.54.42-1.792.5l.238,1.512c.028.14.014.322.168.322.07,0,.1-.042.224-.21a.36.36,0,0,1,.238-.154c.322-.1.378-.126.924-.322v2.3c0,.28-.126.406-.42.406a9.985,9.985,0,0,1-1.092-.1l.924,1.764c1.554,0,2.114-.308,2.114-1.456V52.8c.42-.168.938-.364,1.316-.518V50.924l.476.252c.1-.14.112-.154.224-.322h2.45V52.2h-2.52v3.738c0,1.19.532,1.652,1.624,1.652h3.528C59.058,57.588,59.366,57.238,59.646,55.488Zm-1.834-5.642a9.606,9.606,0,0,1-.336,2.828c-.112.266-.308.308-.56.322V49.524H53.528c.126-.266.294-.644.462-1.05h3.794C57.8,48.964,57.812,49.412,57.812,49.846Zm-5.838-.756a5.041,5.041,0,0,1-.952,1.274l.868.462c-.518.2-.588.21-1.162.406V49.09Zm17.248-2.954a11.425,11.425,0,0,1-3.57-.518l-.084,1.61a10.721,10.721,0,0,0,3.584.378Zm3.136,9.576a7.121,7.121,0,0,1-2.03.294c-.8,0-.994-.21-.994-.77,0-.266.14-1.568.14-1.862a.941.941,0,0,0-.938-.952,3.8,3.8,0,0,0-.7.112c1.414-1.5,1.568-1.666,2.814-3l-.91-1.2a17.086,17.086,0,0,1-5.194,1.05,6.615,6.615,0,0,1-.994-.056l.364,1.442a15.147,15.147,0,0,0,4.074-.63c-.63.84-1.148,1.526-2.282,2.828-1.316,1.5-2.072,2.254-3.108,3.248l1.288.98c.616-.728,1.582-1.862,2.324-2.688.364-.392.644-.686,1.05-.686a.61.61,0,0,1,.63.658c0,.21-.056,1.2-.056,1.428,0,1.19.616,1.582,2.044,1.582a14.04,14.04,0,0,0,2.38-.21ZM87.59,53.906c-2.576-1.75-3.052-3.5-3.08-8.036H80.7v1.638h2.086c.014.252.028.476.07.868l-.868-.238a8.471,8.471,0,0,1-3,5.768l1.386.98a9.107,9.107,0,0,0,1.75-2.156,9.689,9.689,0,0,0,1.05-2.436c.84,3.024,1.694,3.92,3.066,4.886Zm-8.512-6.468A8.639,8.639,0,0,0,76.852,45.7l-1.134,1.2a10.128,10.128,0,0,1,2.156,1.666Zm9.128,7.938a23.037,23.037,0,0,1-3.038.392c-1.05.084-2.086.14-3.136.14-2.646,0-3.234-.476-3.234-1.666V50.686h-3.3v1.54h1.694v2.6a14.67,14.67,0,0,1-1.918.924l.6,1.61c.042.1.112.252.238.252.1,0,.112-.042.238-.322.042-.112.042-.112.168-.2.728-.5,1.428-1.05,1.568-1.162a2.423,2.423,0,0,0,.588.714,3.016,3.016,0,0,0,2.114.616h6.4Zm13.062-.742-.91-1.344c-.518.756-1.512,2.128-2.478,2.128-.35,0-.574-.168-.574-.658,0-.35.322-1.89.322-2.212a1.607,1.607,0,0,0-1.75-1.694,4.108,4.108,0,0,0-1.4.294A15.265,15.265,0,0,1,96.536,47.4a2.518,2.518,0,0,1,.308-.084.149.149,0,0,0,.112-.126c0-.14-.252-.266-.336-.308l-1.582-.84c-.182.448-.378.9-.854,1.918-.63,1.344-.98,2.03-4.354,8.554l1.722.49a11.548,11.548,0,0,1,1.764-3.5,2.749,2.749,0,0,1,1.862-1.05.673.673,0,0,1,.728.742c0,.224-.28,1.848-.28,2.2a1.717,1.717,0,0,0,1.918,1.722A4.536,4.536,0,0,0,101.268,54.634ZM115.1,50.252a6.459,6.459,0,0,0-1.162-1.064l-.588.672a6.481,6.481,0,0,1,1.162,1.064Zm-1.134,1.274a6.1,6.1,0,0,0-1.162-1.078l-.574.672a6.216,6.216,0,0,1,1.148,1.078Zm.462-3.654V46.248a38.717,38.717,0,0,1-10.01,1.12l.238,1.568c1.4-.2,3.458-.364,5.334-.518a10.439,10.439,0,0,0-1.848,2.128,5.092,5.092,0,0,0-.952,2.786,3.512,3.512,0,0,0,1.036,2.52,6.283,6.283,0,0,0,3.444,1.554l.546-1.708a4.409,4.409,0,0,1-2.464-.714,2.222,2.222,0,0,1-1.008-1.82,5.2,5.2,0,0,1,1.708-3.36A5.705,5.705,0,0,1,114.428,47.872Zm14.112,5.712-1.372-1.134c-1.372,2.688-3.248,3.178-4.032,3.178a1.35,1.35,0,0,1-1.232-.588,7.372,7.372,0,0,1-.266-2.478,52.915,52.915,0,0,1,.392-5.6c.224-.182.392-.294.392-.406,0-.084-.126-.182-.462-.224l-1.862-.266c.042.938-.07,5.1-.07,5.95,0,3.36.224,4.074.882,4.648a3.114,3.114,0,0,0,2.044.714,5.06,5.06,0,0,0,2.786-.9A10.445,10.445,0,0,0,128.54,53.584Zm13.384,1.778a11.639,11.639,0,0,0-3.542-1.582c-.042-.826-.042-.966-.07-1.666a30.094,30.094,0,0,0,3-.35V50.238c-1.288.238-1.806.322-3.024.476V49.062c.7-.014,2-.042,3.556-.042l.056-1.484c-1.316.1-1.792.126-3.584.21.014-.728.028-.994.028-1.008a.455.455,0,0,1,.182-.252c.154-.126.182-.14.182-.2,0-.1-.084-.14-.35-.168l-1.708-.168.042,1.862c-1.246.028-2,.056-3.6.056l.028,1.512c1.2-.14,2-.2,3.612-.266l.028,1.75a9.608,9.608,0,0,1-.966.028c-.238,0-.532,0-.532-.2s.21-.336.462-.518l-.8-.686c-.546.392-1.5,1.05-1.5,1.736,0,.546.644,1.008,1.932,1.008.406,0,1.176-.028,1.428-.042l.028,1.344-.392-.014c-3.15-.112-3.29,1.512-3.29,1.918,0,1.134,1.2,1.82,3.136,1.82,1.792,0,2.128-.56,2.184-1.988a10.553,10.553,0,0,1,2.562,1.386Zm-5.1-.49c.014.784-.042,1.036-.952,1.036-.168,0-1.064,0-1.064-.476,0-.364.448-.6,1.358-.6A3.624,3.624,0,0,1,136.828,54.872Zm16.7-8.9a16.625,16.625,0,0,1-4.2-.49l.126,1.722a38.154,38.154,0,0,0,3.878.35Zm1.806,5.572a3.019,3.019,0,0,0-.6-1.988,2.5,2.5,0,0,0-1.862-.77,18.392,18.392,0,0,0-5.5,1.47l.644,1.624c1.022-.5,3.276-1.624,4.438-1.624.434,0,1.26.252,1.26,1.484a4.3,4.3,0,0,1-1.022,2.674,6.632,6.632,0,0,1-3.5,2.1l1.078,1.344a7.853,7.853,0,0,0,3.64-2.324A6.273,6.273,0,0,0,155.336,51.54Zm16.058.14a1.225,1.225,0,1,0-1.232,1.218A1.222,1.222,0,0,0,171.394,51.68Zm-4.676,0A1.218,1.218,0,1,0,165.5,52.9,1.21,1.21,0,0,0,166.718,51.68Zm-4.662,0a1.225,1.225,0,1,0-1.218,1.218A1.219,1.219,0,0,0,162.056,51.68Z" transform="translate(109 3557)"/><path class="b" d="M1054.826-817.925c-28.674-.2-37.838-9.282-64.407-14.854s-46.3,4.581-68.179-12.1-15.565-61.133,5-81.906,49.625-37.339,84.956-28.564,73.291,11.826,90.777,12.818,55.063-2.873,69.4,15.746,24.241,28.539,15.141,59.158S1173.1-839.4,1134.57-830.338,1083.5-817.723,1054.826-817.925Z" transform="translate(1267.418 2698.58) rotate(180)"/><g class="b" transform="translate(42 3583)"><circle class="c" cx="11.5" cy="11.5" r="11.5"/><circle class="d" cx="11.5" cy="11.5" r="10.5"/></g><g class="b" transform="translate(25 3606)"><circle class="c" cx="7.5" cy="7.5" r="7.5"/><circle class="d" cx="7.5" cy="7.5" r="6.5"/></g><path class="a" d="M10.155,2.185A12.388,12.388,0,0,0,6.93.535L6.2,1.99A14.365,14.365,0,0,1,9.3,3.58Zm3.69,8.025a9.6,9.6,0,0,0-3.06-2.19L9.8,9.16a10.262,10.262,0,0,1,2.91,2.37ZM12.8,5.08,11.55,3.745a.958.958,0,0,1-.54.21H4.05v1.53H9.72A13.547,13.547,0,0,1,2.7,9.94l1.035,1.485A14.936,14.936,0,0,0,7.38,9.685v4.2H9.1V8.44a21.825,21.825,0,0,0,2.7-2.625A4.18,4.18,0,0,1,12.8,5.08ZM23.9,6.835a9.007,9.007,0,0,0-1.02-2.43l-1.335.51A9.563,9.563,0,0,1,22.6,7.345ZM27.84,5.23c0-.1-.1-.21-.3-.27l-1.47-.45a9.149,9.149,0,0,1-5.52,7.74l1.2,1.065a10.8,10.8,0,0,0,5.6-7.2c.15-.585.165-.645.3-.72C27.81,5.335,27.84,5.32,27.84,5.23Zm-6.6,2.325A9.619,9.619,0,0,0,20.085,5.14l-1.38.525a9.354,9.354,0,0,1,1.14,2.415Zm22.575.72a18.362,18.362,0,0,0-2.34-1.8,13.394,13.394,0,0,0-2.55-1.365l-.7,1.11V2.275c0-.075.39-.315.39-.405,0-.18-.315-.225-.36-.24l-1.8-.315v11.88h1.77V6.715a15.27,15.27,0,0,1,4.41,3ZM59.37,5.26c0-1.89-1.62-2.64-3.045-2.64a6.539,6.539,0,0,0-1.845.33,16.173,16.173,0,0,0-1.5-1.785l-1.545.72a8.706,8.706,0,0,1,1.515,1.65c-.63.27-1.08.48-1.89.9-.255-.465-.705-1.29-.81-1.44a2.272,2.272,0,0,1-.195-.375c0-.075.12-.375.12-.45,0-.27-.42-.06-.6.015l-1.59.69A15.89,15.89,0,0,1,49.53,5.26c-2.085,1.2-2.325,1.335-2.535,1.455L48.345,8.2a14.46,14.46,0,0,1,1.95-1.47,34.426,34.426,0,0,1,2.55,6.75l1.68-.75a45.172,45.172,0,0,0-2.76-6.87,21.556,21.556,0,0,1,2.07-1.02,11.476,11.476,0,0,1,.75,1.365l1.62-.69c-.345-.57-.585-.96-.8-1.245a3.906,3.906,0,0,1,.975-.18c.48,0,1.395.3,1.395,1.125,0,1.035-1.1,1.98-2.895,1.98a6.478,6.478,0,0,1-.93-.075l.57,1.635C55.695,8.725,59.37,8.62,59.37,5.26ZM74.415,3.415,73.035,2.02a.911.911,0,0,1-.525.33h-10.1V3.97h9.39a13.9,13.9,0,0,1-2.73,3.24L70.47,8.4A35.063,35.063,0,0,0,74.415,3.415ZM69.225,4.6c0-.12-.045-.12-.36-.135l-1.755-.09c.12,3.12-.585,5.505-3.75,7.695l1.6.945a9.273,9.273,0,0,0,3.84-6.75c.03-.2.09-1.245.12-1.275.015-.06.195-.21.225-.255S69.225,4.645,69.225,4.6ZM90.4,1.3a1.4,1.4,0,1,0-2.805,0,1.4,1.4,0,1,0,2.805,0ZM88.6,3.625,87.12,2.275a.855.855,0,0,1-.5.24h-8.49v1.74H86.13A12.669,12.669,0,0,1,84.255,7.93a12.073,12.073,0,0,1-4.98,3.93l1.635,1.32a13.389,13.389,0,0,0,4.44-3.66,17.944,17.944,0,0,0,2.64-5.07A1.989,1.989,0,0,1,88.6,3.625ZM89.82,1.3A.83.83,0,0,1,89,2.155.849.849,0,0,1,88.17,1.3.835.835,0,0,1,89,.46.826.826,0,0,1,89.82,1.3Zm12.81.27c0-.18-.3-.195-.375-.195l-1.92-.105c.075,1.2.105,3.285.105,3.645,0,4.53-1.29,5.955-4.365,7.17L97.38,13.54a7.785,7.785,0,0,0,4.4-4.56c.48-1.455.51-2.64.51-5.565,0-.15-.03-.825-.015-.96,0-.42,0-.465.195-.66C102.615,1.675,102.63,1.615,102.63,1.57Zm-6.24.12c0-.135-.27-.15-.39-.165l-1.785-.15v7.08H96V2.125c0-.045.015-.06.24-.225C96.3,1.84,96.39,1.765,96.39,1.69Zm22.86,4.08A6.92,6.92,0,0,0,118,4.63l-.63.72a6.944,6.944,0,0,1,1.245,1.14Zm-1.215,1.365A6.54,6.54,0,0,0,116.79,5.98l-.615.72a6.66,6.66,0,0,1,1.23,1.155Zm.495-3.915V1.48a41.482,41.482,0,0,1-10.725,1.2l.255,1.68c1.5-.21,3.705-.39,5.715-.555a11.184,11.184,0,0,0-1.98,2.28,5.456,5.456,0,0,0-1.02,2.985,3.763,3.763,0,0,0,1.11,2.7,6.732,6.732,0,0,0,3.69,1.665l.585-1.83a4.724,4.724,0,0,1-2.64-.765,2.381,2.381,0,0,1-1.08-1.95,5.568,5.568,0,0,1,1.83-3.6A6.113,6.113,0,0,1,118.53,3.22Zm15.915,10.3V1.195H128.04V13.63h1.65v-.9h3.075v.8Zm-1.68-5.85H129.69V5.89h3.075Zm0-3.24H129.69V2.65h3.075Zm0,6.765H129.69V9.13h3.075Zm-5.04-3.465a10.373,10.373,0,0,1-2.04-3.09V4.48h1.965V3.055h-1.965V1.435c0-.045.075-.1.15-.165s.09-.1.09-.135c0-.165-.315-.18-.405-.2L124.155.8v2.25H121.95V4.48h2.07a12.684,12.684,0,0,1-2.7,5.265l1.395.825a12.119,12.119,0,0,0,1.44-2.16v5.22h1.53V7.615a13.879,13.879,0,0,0,.93,1.23ZM141,2.455V1.165h-3.525v1.29Zm.435,1.875V3.07H136.89V4.33Zm8.25,8.04c-3-1.035-3.42-2.7-3.42-4.35a.343.343,0,0,1,.165-.36c.18-.165.255-.24.255-.36,0-.135-.12-.2-.585-.2l-1.605-.015c.015.24.045.6.045.975,0,3.6-2.295,4.155-3.225,4.35V8.95h-4.23v4.71h1.485v-.6h1.245v.465h1.5V12.58l1.215,1.305a5.192,5.192,0,0,0,3-2.655,6.673,6.673,0,0,0,2.88,2.535Zm-9.87-.585H138.57v-1.53h1.245ZM149.55,2.6c0-.1-.12-.195-.18-.225l-1.41-.765a8.967,8.967,0,0,1-1.485,1.815l1.2.945a6.89,6.89,0,0,0,1.335-1.5c.075-.09.105-.09.33-.1C149.4,2.755,149.55,2.74,149.55,2.6Zm.315,3.78A7.787,7.787,0,0,1,147,4.855a2.423,2.423,0,0,1-.81-2.01,6.341,6.341,0,0,1,.09-1.455,1.648,1.648,0,0,0,.165-.18.241.241,0,0,0,.075-.165c0-.135-.165-.165-.57-.18l-1.5-.03c.03.36.06.825.06,1.335,0,2.1-.39,3.375-3.18,4.215l1.155,1.335a6.166,6.166,0,0,0,2.955-2.43,6.878,6.878,0,0,0,3.135,2.49ZM143.85,2.53c0-.09-.12-.12-.33-.165l-1.38-.255a9.84,9.84,0,0,1-.33,2.385l1.47.27a12.945,12.945,0,0,0,.27-1.95C143.67,2.755,143.85,2.65,143.85,2.53Zm5.565,6.165c0-.1-.165-.225-.24-.255l-1.4-.585A8.27,8.27,0,0,1,146.7,9.52l1.29.84a6.906,6.906,0,0,0,.93-1.44c.075-.015.165-.06.27-.075C149.34,8.815,149.415,8.785,149.415,8.695Zm-8.4-2.475V4.945h-3.6V6.22Zm3.09,2.475c0-.09-.1-.135-.33-.18l-1.5-.315a6.7,6.7,0,0,1-.615,2.265l1.5.495a8.189,8.189,0,0,0,.63-1.995C143.91,8.9,144.1,8.815,144.1,8.695Zm-3.09-.465V6.97h-3.6V8.23ZM163.65,9.34l-1.47-1.215c-1.47,2.88-3.48,3.4-4.32,3.4a1.446,1.446,0,0,1-1.32-.63,7.9,7.9,0,0,1-.285-2.655,56.692,56.692,0,0,1,.42-6c.24-.2.42-.315.42-.435,0-.09-.135-.2-.495-.24l-2-.285c.045,1.005-.075,5.46-.075,6.375,0,3.6.24,4.365.945,4.98a3.336,3.336,0,0,0,2.19.765,5.422,5.422,0,0,0,2.985-.96A11.192,11.192,0,0,0,163.65,9.34ZM178.6,3.175v-1.8a45.412,45.412,0,0,1-10.935,1.4l.3,1.77a57.356,57.356,0,0,1,5.715-.645c-.705.66-2.91,2.73-2.91,5.295,0,3.345,3.75,4.125,4.965,4.38l.525-1.89a4.452,4.452,0,0,1-2.61-.72,2.57,2.57,0,0,1-1.11-2.1c0-1.5,1.245-3.165,2.565-4.23A5.806,5.806,0,0,1,178.6,3.175Zm14.43,6.75a6.217,6.217,0,0,0-.99-3.255l-1.4.735a4.606,4.606,0,0,1,.675,2.235c0,1.815-1.515,2.34-2.745,2.34a2.019,2.019,0,0,1-1.41-.45,1.79,1.79,0,0,1-.48-1.32,9.072,9.072,0,0,1,.18-1.38c.4.03.765.075,1.335.075.735,0,1.2-.045,1.425-.06l.39-1.65a9.749,9.749,0,0,1-1.77.12,5.776,5.776,0,0,1-.99-.045c.27-.96.45-1.5.63-2.01a13.818,13.818,0,0,0,2.205.12l.345-1.62c-.87.015-1.215.015-1.965-.015a15.592,15.592,0,0,1,.795-1.755c.24-.075.45-.03.45-.21,0-.165-.225-.24-.345-.285L187.65.85c-.21.765-.435,1.395-.885,2.7a11.443,11.443,0,0,1-2.55-.75l-.135,1.74c.855.225,1.245.3,2.175.48-.33.975-.465,1.47-.615,2a10.671,10.671,0,0,1-2.025-.57L183.36,8.1a11.842,11.842,0,0,0,1.89.495,10.308,10.308,0,0,0-.18,1.695c0,2.76,2.175,3.27,3.63,3.27C190.59,13.555,193.035,12.52,193.035,9.925Zm3.645.615a12.332,12.332,0,0,1,2.9,3.33l1.56-1.245A8.823,8.823,0,0,0,197.8,9.37ZM18.24,36.07V23.68H5.7V36.07H7.515v-.39h8.97v.39Zm-1.755-1.95H7.515V25.24h8.97Zm-1.275-1.2V26.665H8.655V32.92h1.71v-.465h3.15v.465Zm-1.695-1.98h-3.15V28.18h3.15Zm20.37-.9a10.856,10.856,0,0,1-3.9-1.29,7.19,7.19,0,0,1-2.07-1.83.175.175,0,0,0-.075-.195c.24-.3.51-.66.72-.975h.615a9.851,9.851,0,0,1,.7,1.74l1.7-.2a7.382,7.382,0,0,0-.555-1.545h2.445V24.31H29.43c.15-.27.165-.3.315-.39.12-.045.21-.12.21-.21,0-.12-.24-.165-.315-.18l-1.665-.3a7.2,7.2,0,0,1-.99,1.905V24.25h-3.21c.105-.27.105-.3.21-.345.195-.1.225-.12.225-.21s-.195-.15-.27-.165l-1.68-.345a9.563,9.563,0,0,1-2,3.7l1.695.69a11.5,11.5,0,0,0,1.11-1.8h.345a5.4,5.4,0,0,1,.51,1.605l1.47-.135a10,10,0,0,1-5.25,2.97l1.365,1.41a11.347,11.347,0,0,0,2.58-1.14v.63H30.1V30.6a10.21,10.21,0,0,0,2.61.96ZM27.45,26.68l-1.515-.135c-.18.255-.225.33-.345.48a5.659,5.659,0,0,0-.435-1.245h1.29a3.3,3.3,0,0,1-.4.39Zm1.29,3.1H25.155a8.786,8.786,0,0,0,1.725-1.71A6.615,6.615,0,0,0,28.74,29.785Zm2.835,6.48V31.75h-9.12v4.545H24.18V35.83h5.655v.435Zm-1.74-1.8H24.18v-1.35h5.655Zm18.525-5.79V27.22H45.15c.48-.585,1.02-1.35,1.125-1.515.48-.81.525-.825.735-.855.3-.03.42-.06.42-.18a.232.232,0,0,0-.12-.18l-1.68-.99a15.485,15.485,0,0,1-1.38,2.25V24.67H42.54v-.7c0-.09.12-.15.21-.195.06-.045.15-.09.15-.195,0-.06-.075-.12-.21-.12l-1.92-.075v1.29H36.855v1.41H40.77v1.14H35.6v1.455h5.7a18.051,18.051,0,0,1-5.745,2.67l.93,1.455c.87-.33,1.26-.48,1.935-.765V36.28h1.62v-.39H45.12v.315h1.65v-6.27H42.33a15.768,15.768,0,0,0,1.5-1.26ZM45.12,32.2H40.035v-.975H45.12Zm0,2.355H40.035V33.49H45.12ZM43.98,26.08A10.925,10.925,0,0,1,43,27.22H42.54V26.08ZM63.1,29.77a5.3,5.3,0,0,0-5.58-5.46,6.469,6.469,0,0,0-6.615,6.36,4.268,4.268,0,0,0,3,4.035c.78,0,1.47-1.26,1.92-2.19a21.3,21.3,0,0,0,1.86-6.675,3.837,3.837,0,0,1,2.55,1,3.536,3.536,0,0,1,1.08,2.625,4.693,4.693,0,0,1-1.08,2.985,5.052,5.052,0,0,1-2.7,1.6L58.65,35.6a7.241,7.241,0,0,0,3.495-2.64A5.6,5.6,0,0,0,63.1,29.77Zm-7.2-3.66c-.3,2.34-1.59,6.255-2.37,6.255-.27,0-.96-.63-.96-1.845a4.912,4.912,0,0,1,1.5-3.33A4.428,4.428,0,0,1,55.9,26.11Zm22.62,7.065A13.332,13.332,0,0,0,75.54,30.28l-1.2,1.11a3.68,3.68,0,0,1,.54.42c-.765.075-1.275.09-2.625.135.3-.195,1.44-.99,2.31-1.71a.57.57,0,0,1,.42-.135c.12-.015.24-.015.24-.135q0-.135-.315-.36l-.57-.42h4.11V27.79H72.9v-.615h4.08v-1.29H72.9V25.36h5.295V24.1H72.9c0-.2.015-.21.195-.315.06-.03.135-.09.135-.165,0-.225-.48-.27-.585-.27l-1.665-.075V24.1H65.94v1.26h5.04v.525H66.975v1.29H70.98v.615h-5.4v1.395H70.1a4.043,4.043,0,0,1-.735.87,11.929,11.929,0,0,0-1.4-.765l-1,1.17a9.842,9.842,0,0,1,2.415,1.53c-.99,0-2.6-.015-3.78-.135l.1,1.305c.015.18.06.57.24.57.1,0,.18-.03.36-.18a.679.679,0,0,1,.51-.15c.675-.015,1.065-.03,1.86-.06A5.694,5.694,0,0,1,65.73,35.1l1.425,1.32a15.054,15.054,0,0,0,2.76-1.965,1.306,1.306,0,0,0,.315.06c.165,0,.21-.075.21-.165a.426.426,0,0,0-.21-.315l-.945-.7c.165-.015,1.215-.06,1.695-.075v3.03h1.8V33.145a30.228,30.228,0,0,0,3.255-.285,7.936,7.936,0,0,1,1.17,1.38Zm-.69,2.055a10.294,10.294,0,0,1-2.925-2.025L73.635,34.27a10.412,10.412,0,0,0,2.85,2.175Zm-4.6-6.045A10.562,10.562,0,0,1,71,31.225c-.18-.15-.195-.165-.465-.375.465-.45.765-.765,1.17-1.185.075-.09.09-.09.36-.135a.222.222,0,0,0,.195-.21.2.2,0,0,0-.075-.135Zm20.265,6.6v-1.56H89.9V31.5H92.55V29.95H89.9V27.685h3.4v-1.6H89.9V24.115c0-.075.12-.18.225-.27a.426.426,0,0,0,.195-.315c0-.135-.12-.18-.54-.2l-1.635-.06V26.08h-.78c.045-.12.165-.7.24-.84a1.281,1.281,0,0,1,.21-.165c.105-.06.165-.135.165-.21,0-.165-.12-.195-.4-.27L86,24.2a13.216,13.216,0,0,1-.54,2.4A7.127,7.127,0,0,0,84.6,25.57l-.54.33V24.16c0-.09.075-.15.21-.24.105-.06.21-.135.21-.27s-.21-.195-.555-.21l-1.605-.075V26.38c-.06-.045-.075-.06-.27-.09l-1.41-.21a13.409,13.409,0,0,1-.42,3.645l1.575.24a16.026,16.026,0,0,0,.39-3.255.4.4,0,0,0,.135-.09v9.57h1.74V27.31a2.968,2.968,0,0,1,.705.855,4.377,4.377,0,0,1-.6.975l1.71.57a8.754,8.754,0,0,0,.975-2.025h1.29V29.95H85.755V31.5H88.14v2.73H84.855v1.56ZM109.47,25.12a6.833,6.833,0,0,0-1.17-1.26l-.78.57a5.956,5.956,0,0,1,1.065,1.29Zm-1.635.84a9.242,9.242,0,0,0-1.155-1.275l-.81.6a6.7,6.7,0,0,1,1.185,1.32Zm-.24,4.05c0-1.59-2.04-4-2.73-4.83l-1.215.84c1.59,1.845,2.16,3.075,2.16,3.45s-.315.435-.855.51l.795,1.425C106.305,31.33,107.6,31.15,107.6,30.01Zm-3.4.015c0-1.335-.18-3.12-2.205-3.12a6.267,6.267,0,0,0-1.1.105c.12-.675.15-.945.225-1.545.03-.195.03-.195.21-.315.15-.09.165-.1.165-.165,0-.12-.165-.195-.36-.225l-1.8-.255a17.952,17.952,0,0,1-.15,2.85c-1.23.27-1.74.375-2.88.555l.555,1.8a13.435,13.435,0,0,1,2.04-.81,15.921,15.921,0,0,1-2.715,5.85l1.56.705a20.135,20.135,0,0,0,2.85-6.945,4.964,4.964,0,0,1,.81-.075c.93,0,1.215.36,1.215,1.515a6.721,6.721,0,0,1-.795,3.45,1.167,1.167,0,0,1-1.035.42,4.415,4.415,0,0,1-1.02-.12l.36,1.62a10.556,10.556,0,0,0,1.125.06,2.253,2.253,0,0,0,1.71-.585C103.665,34.12,104.19,32.185,104.19,30.025ZM122.16,33.7a13.915,13.915,0,0,0-4.17-2c-.12-1.905-.12-2.385-.1-3.66.3.03.7.045,1,.045a11.645,11.645,0,0,0,2.73-.36V25.99a7.481,7.481,0,0,1-3.045.51,3.65,3.65,0,0,1-.63-.03c0-.525.045-1.62.075-1.815.015-.12.09-.165.18-.225.18-.12.195-.135.195-.195,0-.135-.285-.18-.36-.195l-1.8-.255V24.85c0,2.625-.015,3.015.09,6.495a8.237,8.237,0,0,0-1.095-.075c-2.19,0-3.5,1.035-3.5,2.34,0,1.02.825,2.115,3.555,2.115,2.445,0,2.91-.87,2.82-2.34a12.293,12.293,0,0,1,3.1,1.83Zm-5.805-.84c0,.66.015,1.41-1.185,1.41-.495,0-1.6-.135-1.6-.765,0-.435.525-.78,1.47-.78A7.773,7.773,0,0,1,116.355,32.86Zm18.9-8.3c0-.15-.285-.375-.315-.405l-1.38-1.065a41.424,41.424,0,0,1-4.8,4.89,2.573,2.573,0,0,0-1.035,1.68,1.756,1.756,0,0,0,.75,1.32,24.976,24.976,0,0,1,5.175,5.625l1.545-1.44a30.734,30.734,0,0,0-5.07-5.01.64.64,0,0,1-.255-.525c0-.285.075-.36,1.065-1.29,1.545-1.44,3-2.835,3.315-3.165.39-.39.435-.435.615-.45C135.21,24.685,135.255,24.685,135.255,24.565Zm18.69,3.855c-2.415-1.11-3.21-1.95-4.005-4.965h-2.97V25.12h1.65a9.2,9.2,0,0,0,1.68,2.955h-6.885a16.452,16.452,0,0,0,1.89-2.6c.03-.06.33-.15.39-.18.015-.015.09-.045.09-.12a.237.237,0,0,0-.12-.18l-1.635-.915c-1.4,2.55-2.385,3.615-4.035,4.635l1.35,1.215a11.32,11.32,0,0,0,1.935-1.725v1.4h1.7a5.146,5.146,0,0,1-.93,3.09,6.067,6.067,0,0,1-3.09,2.07l1.215,1.4c3.03-1.47,4.305-3.195,4.545-6.555h2.355a23.288,23.288,0,0,1-.255,3.72c-.09.45-.27,1.125-1.08,1.125-.2,0-.645-.03-1.275-.1l.7,1.725c3.135-.045,3.54-.69,3.6-7.5a5.712,5.712,0,0,0,1.995,1.335Zm14.16,1.53c0-.54-.375-2.31-2.34-4.41l-1.245.9a7.671,7.671,0,0,1,1.665,2.91c0,.36-.345.39-.99.45l1.02,1.545C167.175,31.165,168.1,30.805,168.1,29.95Zm-3.555-.66c0-.915-.165-2.58-2.205-2.58a7.031,7.031,0,0,0-1.185.12c.1-.57.21-1.095.285-1.635.015-.15.045-.165.315-.33.165-.105.2-.15.2-.21,0-.135-.3-.225-.42-.24l-1.83-.255a15.527,15.527,0,0,1-.33,3c-.66.1-2.04.36-3.135.45l.6,1.815a18.884,18.884,0,0,1,2.13-.645A15.744,15.744,0,0,1,156,34.645l1.71.765a24.864,24.864,0,0,0,3.1-6.99,5.649,5.649,0,0,1,.855-.075c1.08,0,1.245.48,1.245,1.275A8.868,8.868,0,0,1,162,33.355a.923.923,0,0,1-.9.375,4.194,4.194,0,0,1-1.35-.24l.21,1.815a9.487,9.487,0,0,0,1.29.09,2.331,2.331,0,0,0,2.25-1.155A11.5,11.5,0,0,0,164.55,29.29Zm14.34-4.275A17.823,17.823,0,0,0,175.3,23.47l-.645,1.485a14.208,14.208,0,0,1,3.465,1.635Zm2.76,6.69a3.237,3.237,0,0,0-3.33-3.285,5.768,5.768,0,0,0-3.69,1.515,19.163,19.163,0,0,1,.9-3.3L173.8,25.96a29.283,29.283,0,0,0-1.17,5.73l1.305.69c1.545-1.8,3.06-2.4,4.1-2.4,1.125,0,1.89.615,1.89,1.575,0,1.38-1.275,2.835-4.065,2.835a15.021,15.021,0,0,1-1.875-.165l.795,1.845C176.64,36.025,181.65,35.935,181.65,31.7Zm15.5,2.025a13.778,13.778,0,0,0-2.58-1.365,14.862,14.862,0,0,1-.2-2.085,1.374,1.374,0,0,1,.57-1.2l-1.56-.84a2.266,2.266,0,0,0-.645,1.53c0,.315.18,1.845.21,2.19a7.57,7.57,0,0,0-1.17-.09c-2.07,0-2.655,1.32-2.655,2.13a1.7,1.7,0,0,0,.555,1.275,3.565,3.565,0,0,0,2.445.7c1.965,0,2.415-.63,2.55-1.83a8.257,8.257,0,0,1,1.485.99Zm-4.125-.27c0,.54.015,1.17-1.2,1.17-.825,0-1.245-.345-1.245-.675,0-.3.36-.72,1.14-.72A5.037,5.037,0,0,1,193.02,33.46Zm4.545-6a7.413,7.413,0,0,0-3.345-1.38l-.675,1.29a10.617,10.617,0,0,1,3.285,1.365Zm-4.47-.78V25c-.39.135-.84.285-1.725.51.06-.2.345-1.155.36-1.17.09-.09.345-.18.345-.33s-.285-.24-.36-.255l-1.635-.36a14.311,14.311,0,0,1-.54,2.475,19.968,19.968,0,0,1-2.55.195l.225,1.56c.705-.045,1.125-.09,1.815-.18a25.73,25.73,0,0,1-2.565,5.46l1.605.69a36.583,36.583,0,0,0,2.775-6.435C192.12,26.935,192.585,26.815,193.1,26.68ZM18.27,54.175A12.752,12.752,0,0,0,15.81,47.8l-1.545.75a13.949,13.949,0,0,1,2.2,6.09Zm-6.615-.225L10.41,52.84c-.285.72-.9,2.31-1.44,2.31-.3,0-1.02-.54-1.02-3.465a15.549,15.549,0,0,1,.285-3.345c.255-.09.435-.15.435-.315s-.24-.255-.345-.285l-1.65-.45a14.609,14.609,0,0,0-.45,3.9c0,2.85.48,4.6,1.53,5.625a1.636,1.636,0,0,0,1.11.5C10.08,57.31,10.83,55.72,11.655,53.95ZM33.1,52.27a5.3,5.3,0,0,0-5.58-5.46,6.469,6.469,0,0,0-6.615,6.36,4.268,4.268,0,0,0,3,4.035c.78,0,1.47-1.26,1.92-2.19a21.3,21.3,0,0,0,1.86-6.675,3.837,3.837,0,0,1,2.55,1.005,3.536,3.536,0,0,1,1.08,2.625,4.693,4.693,0,0,1-1.08,2.985,5.052,5.052,0,0,1-2.7,1.6L28.65,58.1a7.241,7.241,0,0,0,3.495-2.64A5.6,5.6,0,0,0,33.1,52.27Zm-7.2-3.66c-.3,2.34-1.59,6.255-2.37,6.255-.27,0-.96-.63-.96-1.845a4.912,4.912,0,0,1,1.5-3.33A4.429,4.429,0,0,1,25.9,48.61ZM48,50.77a6.92,6.92,0,0,0-1.245-1.14l-.63.72a6.944,6.944,0,0,1,1.245,1.14Zm-1.215,1.365A6.54,6.54,0,0,0,45.54,50.98l-.615.72a6.66,6.66,0,0,1,1.23,1.155Zm.495-3.915V46.48a41.482,41.482,0,0,1-10.725,1.2l.255,1.68c1.5-.21,3.7-.39,5.715-.555a11.184,11.184,0,0,0-1.98,2.28,5.456,5.456,0,0,0-1.02,2.985,3.763,3.763,0,0,0,1.11,2.7,6.732,6.732,0,0,0,3.69,1.665l.585-1.83a4.724,4.724,0,0,1-2.64-.765,2.381,2.381,0,0,1-1.08-1.95,5.568,5.568,0,0,1,1.83-3.6A6.113,6.113,0,0,1,47.28,48.22Zm14.415-.705c0-.12-.195-.315-.255-.36l-1.305-1.08a23.288,23.288,0,0,1-8.7,6.375l1.305,1.335a26.9,26.9,0,0,0,3.78-2.13v6.6H58.4V50.26a19.206,19.206,0,0,0,2.475-2.34c.21-.225.24-.255.465-.27C61.635,47.635,61.695,47.62,61.695,47.515ZM77.91,49.45l-1.245-1.455a1.557,1.557,0,0,1-.705.33H66.24V50.02h8.445c-1.02,1.1-1.875,1.98-3.045,3.15a19.21,19.21,0,0,0-1.65-1.47l-1.17,1.17a15.134,15.134,0,0,1,3.78,4.5l1.515-1.215a13.517,13.517,0,0,0-1.26-1.665c1.86-1.98,3.99-4.125,4.365-4.485C77.385,49.855,77.61,49.675,77.91,49.45Zm13.785-1.935c0-.12-.195-.315-.255-.36l-1.305-1.08a23.288,23.288,0,0,1-8.7,6.375l1.305,1.335a26.894,26.894,0,0,0,3.78-2.13v6.6h1.875V50.26a19.206,19.206,0,0,0,2.475-2.34c.21-.225.24-.255.465-.27C91.635,47.635,91.695,47.62,91.695,47.515Zm15.99,5.1V50.95h-4c0-.255.015-.33.015-.72.015-.525-.03-1.365-.045-1.9a13.864,13.864,0,0,0,1.9-.735.5.5,0,0,1,.225-.06h.48a.1.1,0,0,0,.075-.1c0-.1-.135-.255-.18-.3l-1.23-1.14a18.73,18.73,0,0,1-7.47,1.9l.81,1.5a23.076,23.076,0,0,0,3.51-.57,5.422,5.422,0,0,1,.09,1.2c0,.495-.015.78-.03.93h-5.52v1.665h5.34c-.495,2.235-1.56,3.375-3.99,4.755l1.455,1.275c2.535-1.65,3.765-3.06,4.365-6.03Zm13.38,4.185H116.85V55.465h4.215Zm1.71,1.845v-4.56H115.14v4.56h1.71V58.18h4.215v.465Zm-7.9-11.88c0-.165-.18-.225-.315-.285l-1.485-.51a15.555,15.555,0,0,1-3.195,5.385l1.26.96a7.283,7.283,0,0,0,.75-.93v7.26h1.635v-8.76a.808.808,0,0,1,.18-.27.273.273,0,0,0,.075-.165c0-.165-.18-.27-.33-.36.48-.93.54-1.035.9-1.815.1-.24.1-.24.375-.345C114.81,46.9,114.87,46.855,114.87,46.765Zm7.515.915V46.3H115.74v1.38Zm1.065,1.92V48.22H114.6V49.6Zm-1.065,1.92V50.14H115.74v1.38Zm0,1.92V52.06H115.74v1.38ZM137.4,57.295V46.135H126.735c.135,1.575.195,3.15.195,4.725,0,3.75-.21,5.475-1.2,7.17l1.56.555a11.432,11.432,0,0,0,1.23-4.965h2.775V57.9h1.7V53.62h2.7v2.97c0,.42-.2.54-.81.54a3.68,3.68,0,0,1-.69-.06l.825,1.635C137.385,58.54,137.4,58.09,137.4,57.295Zm-1.71-8.25h-2.7V47.59h2.7Zm0,3.165h-2.7V50.455h2.7Zm-4.4-3.165h-2.7c0-.555,0-.915-.015-1.455h2.715Zm0,3.165H128.58c0-.3.015-.45.03-1.755h2.685ZM153,50.77a6.921,6.921,0,0,0-1.245-1.14l-.63.72a6.944,6.944,0,0,1,1.245,1.14Zm-1.215,1.365a6.54,6.54,0,0,0-1.245-1.155l-.615.72a6.66,6.66,0,0,1,1.23,1.155Zm.495-3.915V46.48a41.482,41.482,0,0,1-10.725,1.2l.255,1.68c1.5-.21,3.705-.39,5.715-.555a11.184,11.184,0,0,0-1.98,2.28,5.456,5.456,0,0,0-1.02,2.985,3.763,3.763,0,0,0,1.11,2.7,6.732,6.732,0,0,0,3.69,1.665l.585-1.83a4.724,4.724,0,0,1-2.64-.765,2.381,2.381,0,0,1-1.08-1.95,5.568,5.568,0,0,1,1.83-3.6A6.113,6.113,0,0,1,152.28,48.22Zm14.34,2.07-.27-1.5a17.1,17.1,0,0,1-2.73,1.35c-.24-.525-.3-.675-.495-1.14a9.88,9.88,0,0,0,2.37-1.02l-.33-1.455A14.478,14.478,0,0,1,162.6,47.68a13.074,13.074,0,0,1-.45-1.38c0-.045.015-.09.135-.21.075-.075.12-.12.12-.195,0-.18-.375-.135-.495-.12l-1.71.195c.24.7.4,1.185.75,2.115a18.5,18.5,0,0,1-3.495.3l.465,1.44a17.221,17.221,0,0,0,3.57-.405c.15.345.315.72.54,1.23a19.885,19.885,0,0,1-4.725.45l.525,1.515a19.346,19.346,0,0,0,4.815-.66c.285.555.42.825.78,1.47a11.458,11.458,0,0,0-2.145-.24c-1.695,0-3.315.555-3.315,2.61,0,1.98,1.86,2.835,4.56,2.835a15.1,15.1,0,0,0,2.37-.18l.15-1.77a10.943,10.943,0,0,1-3,.4c-.51,0-2.46,0-2.46-1.275,0-.81.825-1.23,1.815-1.23a8.446,8.446,0,0,1,3.93,1.14l.915-1.14a16.284,16.284,0,0,1-1.98-3.12A11.124,11.124,0,0,0,166.62,50.29Zm15.525,5.94a13.778,13.778,0,0,0-2.58-1.365,14.862,14.862,0,0,1-.2-2.085,1.374,1.374,0,0,1,.57-1.2l-1.56-.84a2.266,2.266,0,0,0-.645,1.53c0,.315.18,1.845.21,2.19a7.57,7.57,0,0,0-1.17-.09c-2.07,0-2.655,1.32-2.655,2.13a1.7,1.7,0,0,0,.555,1.275,3.565,3.565,0,0,0,2.445.7c1.965,0,2.415-.63,2.55-1.83a8.257,8.257,0,0,1,1.485.99Zm-4.125-.27c0,.54.015,1.17-1.2,1.17-.825,0-1.245-.345-1.245-.675,0-.3.36-.72,1.14-.72A5.037,5.037,0,0,1,178.02,55.96Zm4.545-6a7.413,7.413,0,0,0-3.345-1.38l-.675,1.29a10.617,10.617,0,0,1,3.285,1.365Zm-4.47-.78V47.5c-.39.135-.84.285-1.725.51.06-.2.345-1.155.36-1.17.09-.09.345-.18.345-.33,0-.165-.285-.24-.36-.255l-1.635-.36a14.311,14.311,0,0,1-.54,2.475,19.968,19.968,0,0,1-2.55.195l.225,1.56c.705-.045,1.125-.09,1.815-.18a25.73,25.73,0,0,1-2.565,5.46l1.605.69a36.583,36.583,0,0,0,2.775-6.435C177.12,49.435,177.585,49.315,178.1,49.18Zm20.175,4.995a12.752,12.752,0,0,0-2.46-6.375l-1.545.75a13.949,13.949,0,0,1,2.205,6.09Zm-6.615-.225-1.245-1.11c-.285.72-.9,2.31-1.44,2.31-.3,0-1.02-.54-1.02-3.465a15.549,15.549,0,0,1,.285-3.345c.255-.09.435-.15.435-.315s-.24-.255-.345-.285l-1.65-.45a14.609,14.609,0,0,0-.45,3.9c0,2.85.48,4.6,1.53,5.625a1.636,1.636,0,0,0,1.11.5C190.08,57.31,190.83,55.72,191.655,53.95Zm-163,22.89-1.47-1.215c-1.47,2.88-3.48,3.4-4.32,3.4a1.446,1.446,0,0,1-1.32-.63,7.9,7.9,0,0,1-.285-2.655,56.7,56.7,0,0,1,.42-6c.24-.195.42-.315.42-.435,0-.09-.135-.195-.5-.24l-2-.285c.045,1-.075,5.46-.075,6.375,0,3.6.24,4.365.945,4.98a3.337,3.337,0,0,0,2.19.765,5.422,5.422,0,0,0,2.985-.96A11.192,11.192,0,0,0,28.65,76.84Zm3.03,1.2a12.333,12.333,0,0,1,2.9,3.33l1.56-1.245a8.823,8.823,0,0,0-3.33-3.255Zm19.47-8.1c0-.09-.195-.195-.315-.255l-1.41-.66a8.792,8.792,0,0,1-1.74,2.625l1.41.78a16.826,16.826,0,0,0,1.575-2.115c.105-.15.105-.165.285-.21C51.015,70.1,51.15,70.075,51.15,69.94Zm-.81,6.015c0-.15-.21-.225-.375-.3l-1.14-.48a9.3,9.3,0,0,1-1.275,2.07l1.32.66a5.017,5.017,0,0,0,.405-.54c.015-.015.66-1.05.735-1.17a1.79,1.79,0,0,0,.24-.12C50.31,76.045,50.34,76.015,50.34,75.955Zm1.815-1.86a8.818,8.818,0,0,1-4.545-2.01,3.624,3.624,0,0,1-1.14-2.34c0-.03.075-.735.075-.75.03-.06.225-.24.255-.285a.2.2,0,0,0,.045-.12c0-.135-.24-.195-.435-.21l-1.695-.1C45,73,41.88,73.78,39.255,74.26L40.5,75.805a11.433,11.433,0,0,0,1.29-.435,5.823,5.823,0,0,1-1.725,2.295l1.47.75a16.378,16.378,0,0,0,1.815-2.55c.15-.045.315-.09.315-.18s-.12-.135-.18-.165l-1.02-.42a6.477,6.477,0,0,0,3.3-2.985c1.1,1.77,2.175,2.565,5.07,3.51ZM43.1,69.7c0-.12-.15-.18-.21-.195l-1.59-.525A6.028,6.028,0,0,1,39.975,72l1.44.69a10.716,10.716,0,0,0,1.41-2.745C43.005,69.835,43.1,69.79,43.1,69.7Zm9.12,10.065a6.823,6.823,0,0,1-4.6-1.785,4.217,4.217,0,0,1-1.11-3.63c.015-.075.255-.345.255-.4,0-.18-.315-.21-.39-.21l-1.74-.045c.015.21.045.495.045.915a4.746,4.746,0,0,1-1.89,4.14,6.854,6.854,0,0,1-3.525,1.11l1.245,1.56a8.027,8.027,0,0,0,3.48-1.455,5.933,5.933,0,0,0,1.74-2.235,5.27,5.27,0,0,0,1.62,2.145,8.064,8.064,0,0,0,3.525,1.545ZM67.2,80.8V79.135H61.365V74.53h4.86V72.79h-4.86V69.115c0-.075.135-.135.225-.18s.165-.09.165-.21-.135-.165-.225-.165L59.505,68.4v10.74h-5.22V80.8Zm14.67-8.04c0-1.89-1.62-2.64-3.045-2.64a6.539,6.539,0,0,0-1.845.33,16.174,16.174,0,0,0-1.5-1.785l-1.545.72a8.706,8.706,0,0,1,1.515,1.65c-.63.27-1.08.48-1.89.9-.255-.465-.7-1.29-.81-1.44a2.272,2.272,0,0,1-.195-.375c0-.075.12-.375.12-.45,0-.27-.42-.06-.6.015l-1.59.69A15.891,15.891,0,0,1,72.03,72.76c-2.085,1.2-2.325,1.335-2.535,1.455l1.35,1.485a14.46,14.46,0,0,1,1.95-1.47,34.426,34.426,0,0,1,2.55,6.75l1.68-.75a45.172,45.172,0,0,0-2.76-6.87,21.556,21.556,0,0,1,2.07-1.02,11.476,11.476,0,0,1,.75,1.365l1.62-.69c-.345-.57-.585-.96-.795-1.245a3.906,3.906,0,0,1,.975-.18c.48,0,1.395.3,1.395,1.125,0,1.035-1.1,1.98-2.895,1.98a6.478,6.478,0,0,1-.93-.075l.57,1.635C78.195,76.225,81.87,76.12,81.87,72.76Zm15.255.495c0-.075-.09-.165-.345-.315l-1.38-.795a10.884,10.884,0,0,1-.84,1.425v-4H90.675a3.971,3.971,0,0,0,.4-.93c.03-.045.045-.045.18-.12.12-.06.165-.09.165-.165,0-.135-.105-.15-.375-.165l-1.74-.06a7.211,7.211,0,0,1-.54,1.44H86.73v6.42c-.84.06-1.545.09-1.875.09l.255,1.545c.03.21.09.285.18.285.075,0,.075-.015.18-.165a.517.517,0,0,1,.18-.135c.045-.015,5.01-.735,5.925-.975a13.355,13.355,0,0,1-6.69,2.73L86.085,81a14.638,14.638,0,0,0,4.14-1.59,17.488,17.488,0,0,0,2.67-1.8v1.47a.479.479,0,0,1-.39.54s-1.155-.015-1.29-.015l.57,1.74h1.2c1.065,0,1.575-.465,1.575-1.545V76.09A14.675,14.675,0,0,0,96.63,73.5c.06-.105.09-.105.36-.12C97.02,73.375,97.125,73.36,97.125,73.255Zm-4.23.42H88.44v-.9H92.9Zm0-1.95H88.44V70.84H92.9Zm0,3.69c-2.28.3-3.63.39-4.455.435v-1.1H92.9Zm19.995-6.3a9.16,9.16,0,0,0-1.32-1.41l-.795.66a7.552,7.552,0,0,1,1.35,1.4Zm-1.47,1.11a6.367,6.367,0,0,0-1.245-1.365l-.8.66a6.552,6.552,0,0,1,1.23,1.35Zm.93,7.77a26.178,26.178,0,0,0-3.825-7.62l-1.575.885a20.19,20.19,0,0,1,3.54,7.59Zm-7.455-6.885c0-.135-.21-.21-.36-.24l-1.815-.405a16.23,16.23,0,0,1-3.795,8.1l1.935.81a20.855,20.855,0,0,0,3.27-6.69c.06-.195.27-1.125.33-1.2a2.468,2.468,0,0,1,.285-.195C104.82,71.23,104.895,71.185,104.895,71.11Zm21.855,3.51-.915-1.65a20.759,20.759,0,0,1-3.585,3.09,10.921,10.921,0,0,1-3.69,1.695v-7.53c0-.06.015-.075.24-.255.135-.12.15-.15.15-.21,0-.15-.3-.195-.4-.21l-1.785-.225V79.24l1.02,1.035A21.759,21.759,0,0,0,126.75,74.62Zm13.785,2.805a6.217,6.217,0,0,0-.99-3.255l-1.4.735a4.606,4.606,0,0,1,.675,2.235c0,1.815-1.515,2.34-2.745,2.34a2.019,2.019,0,0,1-1.41-.45,1.79,1.79,0,0,1-.48-1.32,9.072,9.072,0,0,1,.18-1.38c.4.03.765.075,1.335.075.735,0,1.2-.045,1.425-.06l.39-1.65a9.749,9.749,0,0,1-1.77.12,5.776,5.776,0,0,1-.99-.045c.27-.96.45-1.5.63-2.01a13.818,13.818,0,0,0,2.205.12l.345-1.62c-.87.015-1.215.015-1.965-.015a15.592,15.592,0,0,1,.795-1.755c.24-.075.45-.03.45-.21s-.225-.24-.345-.285l-1.725-.645c-.21.765-.435,1.4-.885,2.7a11.444,11.444,0,0,1-2.55-.75l-.135,1.74c.855.225,1.245.3,2.175.48-.33.975-.465,1.47-.615,2a10.671,10.671,0,0,1-2.025-.57l-.255,1.65a11.842,11.842,0,0,0,1.89.495,10.308,10.308,0,0,0-.18,1.7c0,2.76,2.175,3.27,3.63,3.27C138.09,81.055,140.535,80.02,140.535,77.425Zm16.695-5.7V70.27h-4.59l.3-1.23c.045-.06.33-.24.36-.285a.194.194,0,0,0,.075-.165c0-.15-.165-.165-.525-.195l-1.53-.135a12.267,12.267,0,0,1-.405,2.01h-1.86v1.41a8.289,8.289,0,0,0-.48-.945l-.84.315V69.07c0-.09.075-.15.195-.21.15-.075.21-.135.21-.21,0-.165-.15-.18-.51-.21l-1.62-.12V81.16h1.725V76.4l.975.6c.12-.12.3-.27.7-.7v3.27h1.575V75.01h1.38V81.1h1.665V77.95l.645,1.485c1.44-.015,2.325-.27,2.325-1.32V73.5H154.05V73.12a.407.407,0,0,1,.195-.36c.075-.06.2-.12.2-.24,0-.18-.315-.21-.585-.24l-1.485-.15V73.5h-.93a10.8,10.8,0,0,0,.75-1.77Zm-1.83,5.49c0,.36-.21.5-.555.5a3.089,3.089,0,0,1-.81-.12V75.01H155.4Zm-4.965-5.49a7.252,7.252,0,0,1-2.7,3.825v-3.4a8.132,8.132,0,0,1,.645,1.77l1.26-.5a8.089,8.089,0,0,0-.555-1.695Zm-4.44-.705c0-.12-.075-.18-.33-.195l-1.26-.1a11.232,11.232,0,0,1-.675,3.93l1.605.24a15.766,15.766,0,0,0,.45-3.63C145.875,71.215,145.995,71.14,145.995,71.02Zm26.025,5.655a12.752,12.752,0,0,0-2.46-6.375l-1.545.75a13.949,13.949,0,0,1,2.205,6.09ZM165.4,76.45l-1.245-1.11c-.285.72-.9,2.31-1.44,2.31-.3,0-1.02-.54-1.02-3.465a15.549,15.549,0,0,1,.285-3.345c.255-.09.435-.15.435-.315s-.24-.255-.345-.285l-1.65-.45a14.609,14.609,0,0,0-.45,3.9c0,2.85.48,4.6,1.53,5.625a1.636,1.636,0,0,0,1.11.495C163.83,79.81,164.58,78.22,165.4,76.45Zm21.66-1.65a1.313,1.313,0,1,0-1.32,1.305A1.309,1.309,0,0,0,187.065,74.8Zm-5.01,0a1.3,1.3,0,1,0-1.3,1.305A1.3,1.3,0,0,0,182.055,74.8Zm-4.995,0a1.313,1.313,0,1,0-1.3,1.305A1.306,1.306,0,0,0,177.06,74.8Z" transform="translate(65 3696)"/><path class="b" d="M1056.4-803.245c-28.786-.207-36.449-10.522-63.121-16.226s-43.863,5.793-65.832-11.282-20.65-74.772,0-96.037,71.887-46.757,107.356-37.775,56.779,15.884,74.333,16.9,45-3.963,59.391,15.1,29.345,34.992,20.209,66.335-14.473,41.2-53.157,50.474S1085.187-803.038,1056.4-803.245Z" transform="translate(-884.535 4620.674)"/><g class="b" transform="translate(311 3697)"><circle class="c" cx="11.5" cy="11.5" r="11.5"/><circle class="d" cx="11.5" cy="11.5" r="10.5"/></g><g class="b" transform="translate(336 3682)"><circle class="c" cx="7.5" cy="7.5" r="7.5"/><circle class="d" cx="7.5" cy="7.5" r="6.5"/></g></g></svg>