<svg xmlns="http://www.w3.org/2000/svg" width="1085" height="479.516" viewBox="0 0 1085 479.516"><defs><style>.a{fill:#2f2f2f;}.b,.d{fill:none;}.b{stroke:#ccc;stroke-width:2px;stroke-dasharray:4 4;}.c{stroke:none;}</style></defs><g transform="translate(-178 -3240.92)"><path class="a" d="M17.88,6.6,16.22,4.66a2.076,2.076,0,0,1-.94.44H2.32V7.36H13.58c-1.36,1.46-2.5,2.64-4.06,4.2A25.613,25.613,0,0,0,7.32,9.6L5.76,11.16a20.178,20.178,0,0,1,5.04,6l2.02-1.62a18.024,18.024,0,0,0-1.68-2.22c2.48-2.64,5.32-5.5,5.82-5.98C17.18,7.14,17.48,6.9,17.88,6.6Zm20,0L36.22,4.66a2.076,2.076,0,0,1-.94.44H22.32V7.36H33.58c-1.36,1.46-2.5,2.64-4.06,4.2a25.613,25.613,0,0,0-2.2-1.96l-1.56,1.56a20.178,20.178,0,0,1,5.04,6l2.02-1.62a18.024,18.024,0,0,0-1.68-2.22c2.48-2.64,5.32-5.5,5.82-5.98C37.18,7.14,37.48,6.9,37.88,6.6ZM58.72,16.94a13.671,13.671,0,0,1-3.02-.68,8.706,8.706,0,0,1-2.86-1.56,19.726,19.726,0,0,0,3.32-5.72l-.92-.84H48.76c.16-.78.24-1.2.34-1.9h9.38V4.04H49.3c.02-.24.02-1.5.04-1.52.02-.08.04-.08.28-.24a.27.27,0,0,0,.16-.24c0-.14-.08-.24-.48-.26l-2.6-.1c.02.9.02,1.44,0,2.36H41.42v2.2H46.6a14.489,14.489,0,0,1-6.18,10.92l2.24,1.38a16.445,16.445,0,0,0,5.04-7,15.161,15.161,0,0,0,2.02,3.16,13.7,13.7,0,0,1-5.08,2.66l2,1.74a18.912,18.912,0,0,0,4.62-2.84,12.68,12.68,0,0,0,5.52,2.86Zm-5.58-6.72a9.775,9.775,0,0,1-1.84,3.06,10.736,10.736,0,0,1-1.82-3.06ZM65,8.52a1.88,1.88,0,1,0,1.88,1.88A1.891,1.891,0,0,0,65,8.52ZM89.48,4.5a1.891,1.891,0,1,0-1.9,1.94A1.934,1.934,0,0,0,89.48,4.5Zm-.78,0a1.11,1.11,0,1,1-2.22,0,1.11,1.11,0,1,1,2.22,0Zm.08,10.26A35.985,35.985,0,0,0,83.7,4.48L81.62,5.66A28.442,28.442,0,0,1,86.28,15.9ZM78.92,5.52c0-.2-.42-.3-.48-.32l-2.42-.54a21.944,21.944,0,0,1-5.08,10.86l2.54,1A26.341,26.341,0,0,0,77.84,7.7c.08-.26.4-1.62.48-1.7.06-.08.42-.26.48-.32C78.86,5.64,78.92,5.6,78.92,5.52ZM109.48,4.5a1.891,1.891,0,1,0-1.9,1.94A1.934,1.934,0,0,0,109.48,4.5Zm-.78,0a1.11,1.11,0,1,1-2.22,0,1.11,1.11,0,1,1,2.22,0Zm.08,10.26A35.985,35.985,0,0,0,103.7,4.48l-2.08,1.18a28.442,28.442,0,0,1,4.66,10.24ZM98.92,5.52c0-.2-.42-.3-.48-.32l-2.42-.54a21.944,21.944,0,0,1-5.08,10.86l2.54,1A26.341,26.341,0,0,0,97.84,7.7c.08-.26.4-1.62.48-1.7.06-.08.42-.26.48-.32C98.86,5.64,98.92,5.6,98.92,5.52Zm29.8,11.42a13.671,13.671,0,0,1-3.02-.68,8.706,8.706,0,0,1-2.86-1.56,19.726,19.726,0,0,0,3.32-5.72l-.92-.84h-6.48c.16-.78.24-1.2.34-1.9h9.38V4.04H119.3c.02-.24.02-1.5.04-1.52.02-.08.04-.08.28-.24a.27.27,0,0,0,.16-.24c0-.14-.08-.24-.48-.26l-2.6-.1c.02.9.02,1.44,0,2.36h-5.28v2.2h5.18a14.489,14.489,0,0,1-6.18,10.92l2.24,1.38a16.445,16.445,0,0,0,5.04-7,15.161,15.161,0,0,0,2.02,3.16,13.7,13.7,0,0,1-5.08,2.66l2,1.74a18.912,18.912,0,0,0,4.62-2.84,12.68,12.68,0,0,0,5.52,2.86Zm-5.58-6.72a9.775,9.775,0,0,1-1.84,3.06,10.736,10.736,0,0,1-1.82-3.06Zm23.42-4.18V3.72a13.971,13.971,0,0,1-4.74.82,17.617,17.617,0,0,1-2.56-.22v2.2c1.06.1,1.98.1,2.14.1A26.861,26.861,0,0,0,146.56,6.04Zm.96,10.5V14.06a16.315,16.315,0,0,1-4.56.62c-2.02,0-2.22-.54-2.24-2.44l-2.18.3c.06,3.38.82,4.36,4.46,4.36A27.337,27.337,0,0,0,147.52,16.54Zm-10.46-3.56-1.18-.64c-.44.78-.56.98-.8,1.4A11,11,0,0,1,134.8,11c0-3.02.86-6.64,1.16-6.82.04-.02.3-.12.34-.14a.237.237,0,0,0,.1-.18c0-.16-.38-.3-.52-.36l-2.04-.74A39.419,39.419,0,0,0,133,7.32a35.377,35.377,0,0,0-.3,3.94,17.424,17.424,0,0,0,.82,5.26,6.122,6.122,0,0,0,.74,1.58l1.58-.62A17.744,17.744,0,0,1,137.06,12.98Zm31.2,5.72V2.26h-8.54V18.84h2.2v-1.2h4.1V18.7Zm-2.24-7.8h-4.1V8.52h4.1Zm0-4.32h-4.1V4.2h4.1Zm0,9.02h-4.1V12.84h4.1Zm-6.72-4.62a13.83,13.83,0,0,1-2.72-4.12V6.64h2.62V4.74h-2.62V2.58c0-.06.1-.14.2-.22s.12-.14.12-.18c0-.22-.42-.24-.54-.26l-1.82-.18v3H151.6v1.9h2.76a16.913,16.913,0,0,1-3.6,7.02l1.86,1.1a16.159,16.159,0,0,0,1.92-2.88v6.96h2.04V10.82a18.5,18.5,0,0,0,1.24,1.64ZM177,3.94V2.22h-4.7V3.94Zm.58,2.5V4.76h-6.06V6.44Zm11,10.72c-4-1.38-4.56-3.6-4.56-5.8a.458.458,0,0,1,.22-.48c.24-.22.34-.32.34-.48,0-.18-.16-.26-.78-.26l-2.14-.02c.02.32.06.8.06,1.3,0,4.8-3.06,5.54-4.3,5.8V12.6h-5.64v6.28h1.98v-.8h1.66v.62h2V17.44l1.62,1.74a6.923,6.923,0,0,0,4-3.54,8.9,8.9,0,0,0,3.84,3.38Zm-13.16-.78h-1.66V14.34h1.66ZM188.4,4.14c0-.14-.16-.26-.24-.3l-1.88-1.02a11.956,11.956,0,0,1-1.98,2.42l1.6,1.26a9.186,9.186,0,0,0,1.78-2c.1-.12.14-.12.44-.14C188.2,4.34,188.4,4.32,188.4,4.14Zm.42,5.04A10.383,10.383,0,0,1,185,7.14a3.23,3.23,0,0,1-1.08-2.68,8.453,8.453,0,0,1,.12-1.94,2.2,2.2,0,0,0,.22-.24.321.321,0,0,0,.1-.22c0-.18-.22-.22-.76-.24l-2-.04c.04.48.08,1.1.08,1.78,0,2.8-.52,4.5-4.24,5.62l1.54,1.78a8.222,8.222,0,0,0,3.94-3.24,9.17,9.17,0,0,0,4.18,3.32ZM180.8,4.04c0-.12-.16-.16-.44-.22l-1.84-.34a13.121,13.121,0,0,1-.44,3.18l1.96.36a17.261,17.261,0,0,0,.36-2.6C180.56,4.34,180.8,4.2,180.8,4.04Zm7.42,8.22c0-.14-.22-.3-.32-.34l-1.86-.78a11.025,11.025,0,0,1-1.44,2.22l1.72,1.12a9.209,9.209,0,0,0,1.24-1.92c.1-.02.22-.08.36-.1C188.12,12.42,188.22,12.38,188.22,12.26Zm-11.2-3.3V7.26h-4.8v1.7Zm4.12,3.3c0-.12-.14-.18-.44-.24l-2-.42a8.939,8.939,0,0,1-.82,3.02l2,.66a10.919,10.919,0,0,0,.84-2.66C180.88,12.54,181.14,12.42,181.14,12.26Zm-4.12-.62V9.96h-4.8v1.68Zm30.18,1.48-1.96-1.62c-1.96,3.84-4.64,4.54-5.76,4.54a1.928,1.928,0,0,1-1.76-.84,10.531,10.531,0,0,1-.38-3.54,75.6,75.6,0,0,1,.56-8c.32-.26.56-.42.56-.58,0-.12-.18-.26-.66-.32l-2.66-.38c.06,1.34-.1,7.28-.1,8.5,0,4.8.32,5.82,1.26,6.64a4.449,4.449,0,0,0,2.92,1.02,7.229,7.229,0,0,0,3.98-1.28A14.922,14.922,0,0,0,207.2,13.12Zm19.68,2.48a18.554,18.554,0,0,0-5.56-2.66c-.16-2.54-.16-3.18-.14-4.88.4.04.94.06,1.34.06a15.527,15.527,0,0,0,3.64-.48V5.32A9.975,9.975,0,0,1,222.1,6a4.867,4.867,0,0,1-.84-.04c0-.7.06-2.16.1-2.42.02-.16.12-.22.24-.3.24-.16.26-.18.26-.26,0-.18-.38-.24-.48-.26l-2.4-.34V3.8c0,3.5-.02,4.02.12,8.66a10.983,10.983,0,0,0-1.46-.1c-2.92,0-4.66,1.38-4.66,3.12,0,1.36,1.1,2.82,4.74,2.82,3.26,0,3.88-1.16,3.76-3.12a16.39,16.39,0,0,1,4.14,2.44Zm-7.74-1.12c0,.88.02,1.88-1.58,1.88-.66,0-2.14-.18-2.14-1.02,0-.58.7-1.04,1.96-1.04A10.364,10.364,0,0,1,219.14,14.48ZM242.9,2.24a23.75,23.75,0,0,1-6-.7L237.08,4a54.5,54.5,0,0,0,5.54.5Zm2.58,7.96a4.313,4.313,0,0,0-.86-2.84,3.573,3.573,0,0,0-2.66-1.1c-2.56,0-6.38,1.52-7.86,2.1l.92,2.32c1.46-.72,4.68-2.32,6.34-2.32.62,0,1.8.36,1.8,2.12a6.138,6.138,0,0,1-1.46,3.82,9.475,9.475,0,0,1-5,3l1.54,1.92a11.219,11.219,0,0,0,5.2-3.32A8.962,8.962,0,0,0,245.48,10.2Zm21.08-4.16V3.72a13.971,13.971,0,0,1-4.74.82,17.616,17.616,0,0,1-2.56-.22v2.2c1.06.1,1.98.1,2.14.1A26.861,26.861,0,0,0,266.56,6.04Zm.96,10.5V14.06a16.315,16.315,0,0,1-4.56.62c-2.02,0-2.22-.54-2.24-2.44l-2.18.3c.06,3.38.82,4.36,4.46,4.36A27.337,27.337,0,0,0,267.52,16.54Zm-10.46-3.56-1.18-.64c-.44.78-.56.98-.8,1.4A11,11,0,0,1,254.8,11c0-3.02.86-6.64,1.16-6.82.04-.02.3-.12.34-.14a.237.237,0,0,0,.1-.18c0-.16-.38-.3-.52-.36l-2.04-.74A39.419,39.419,0,0,0,253,7.32a35.377,35.377,0,0,0-.3,3.94,17.424,17.424,0,0,0,.82,5.26,6.122,6.122,0,0,0,.74,1.58l1.58-.62A17.744,17.744,0,0,1,257.06,12.98Zm29.32.92a8.289,8.289,0,0,0-1.32-4.34l-1.86.98a6.141,6.141,0,0,1,.9,2.98c0,2.42-2.02,3.12-3.66,3.12a2.692,2.692,0,0,1-1.88-.6,2.386,2.386,0,0,1-.64-1.76,12.093,12.093,0,0,1,.24-1.84c.54.04,1.02.1,1.78.1.98,0,1.6-.06,1.9-.08l.52-2.2a13,13,0,0,1-2.36.16,7.7,7.7,0,0,1-1.32-.06c.36-1.28.6-2,.84-2.68a18.424,18.424,0,0,0,2.94.16l.46-2.16c-1.16.02-1.62.02-2.62-.02a20.8,20.8,0,0,1,1.06-2.34c.32-.1.6-.04.6-.28,0-.22-.3-.32-.46-.38l-2.3-.86c-.28,1.02-.58,1.86-1.18,3.6a15.258,15.258,0,0,1-3.4-1l-.18,2.32c1.14.3,1.66.4,2.9.64-.44,1.3-.62,1.96-.82,2.66a14.229,14.229,0,0,1-2.7-.76l-.34,2.2a15.789,15.789,0,0,0,2.52.66,13.743,13.743,0,0,0-.24,2.26c0,3.68,2.9,4.36,4.84,4.36C283.12,18.74,286.38,17.36,286.38,13.9Zm4.86.82a16.444,16.444,0,0,1,3.86,4.44l2.08-1.66a11.764,11.764,0,0,0-4.44-4.34ZM28.6,38.48V36.5H16.52v1.98h3.34V41.1H16.7V52.76h2.12v-.7H26.1v.58h2.1V41.1H25V38.48ZM23,49.96H21.86V43.22H23Zm0-8.86H21.86V38.48H23Zm3.1,8.86H25V43.22h1.1Zm-6.24,0H18.82V43.22h1.04ZM16.4,36.86c0-.18-.22-.26-.68-.42l-1.74-.6A20.285,20.285,0,0,1,10.48,43l1.82,1.22c.34-.54.44-.7.58-.92v9.54h2.2V40.4c0-.14.14-.26.2-.32.02-.02.2-.18.2-.28,0-.12-.06-.14-.52-.4a12.333,12.333,0,0,0,.72-1.94c.08-.14.12-.2.38-.3C16.18,37.12,16.4,37.04,16.4,36.86Zm32.26,2.3V37.22H44.02v-.6c.3-.16.5-.26.5-.44,0-.14-.16-.24-.64-.28l-2.12-.22v1.54H37.14v1.94h4.62V40.4H39.28v9.38h8.34V40.4h-3.6V39.16Zm-3.08,6.38H41.26V44.6h4.32Zm0-2.46H41.26v-.94h4.32Zm0,4.96H41.26v-.98h4.32Zm3.06,4.4V50.58H38.28V42.52c0-.08.02-.1.32-.3.1-.08.18-.14.18-.24,0-.2-.3-.26-.52-.28l-2.02-.22V53.1h2.04v-.66ZM36.66,36.82c0-.16-.2-.26-.34-.32l-2.24-.86a15.057,15.057,0,0,1-3.64,7.04L32.38,44a6.039,6.039,0,0,0,.64-.78V53.1h1.96V40.72c0-.1.16-.2.26-.26.24-.14.3-.22.3-.32,0-.22-.32-.44-.48-.54a22.06,22.06,0,0,0,.98-2.36c.06-.1.1-.1.38-.18C36.54,37.02,36.66,36.96,36.66,36.82ZM69.38,50.36l-1.76-.7c0,1.06-.3,1.18-.6,1.18h-.28a.4.4,0,0,1-.4-.44V46.74h2.4V36.24H60.72v10.5h.84a9.448,9.448,0,0,1-1.4,3.94v-.52H58v-1.1h1.68V47.72H58v-.98h1.66V45.42H58v-.9h2.22V42.96H58.36a5.467,5.467,0,0,0,.4-.5.461.461,0,0,1,.34-.26c.12-.04.22-.08.22-.2,0-.14-.2-.26-.3-.32l-.78-.36h2V39.66H56.78c.14-.42.18-.54.32-1.08h3.02V36.86H54.94a.459.459,0,0,1,.32-.36c.14-.06.2-.1.2-.2,0-.14-.14-.2-.24-.22l-1.9-.56a9.83,9.83,0,0,1-2,3.32l1.82.82H51.36v1.66H53.8a7.035,7.035,0,0,1-2.76,2.62l1.64,1.36v7.68H54.6V51.74h4.42a7.048,7.048,0,0,1-.8.52l2.02,1.1c.66-.42,2.36-1.52,3.18-5.28.08-.32.06-.32.12-.38.3-.32.32-.34.32-.44,0-.18-.2-.24-.32-.28l-.82-.24h1.46v5.22c0,.94.8,1.12,1.42,1.12h1.66C68.14,53.08,69.06,53.08,69.38,50.36Zm-2.66-8.48H62.74V40.74h3.98Zm0-2.74H62.74V38.08h3.98Zm0,5.66H62.74V43.58h3.98Zm-10.54.62H54.6v-.9h1.58Zm0,2.3H54.6v-.98h1.58Zm1.16-6.4a5.1,5.1,0,0,1-1.02,1.64H54.96a10.055,10.055,0,0,0,1.12-1.64Zm-1.16,8.84H54.6v-1.1h1.58ZM54.92,38.58c-.04.18-.12.48-.32,1.08H53.28c.28-.38.48-.7.72-1.08Zm33.24,3.1c0-2.52-2.16-3.52-4.06-3.52a8.719,8.719,0,0,0-2.46.44,21.564,21.564,0,0,0-2-2.38l-2.06.96a11.608,11.608,0,0,1,2.02,2.2c-.84.36-1.44.64-2.52,1.2-.34-.62-.94-1.72-1.08-1.92a3.029,3.029,0,0,1-.26-.5c0-.1.16-.5.16-.6,0-.36-.56-.08-.8.02l-2.12.92a21.187,21.187,0,0,1,2.06,3.18c-2.78,1.6-3.1,1.78-3.38,1.94l1.8,1.98a19.281,19.281,0,0,1,2.6-1.96,45.9,45.9,0,0,1,3.4,9l2.24-1a60.228,60.228,0,0,0-3.68-9.16,28.743,28.743,0,0,1,2.76-1.36,15.3,15.3,0,0,1,1,1.82l2.16-.92c-.46-.76-.78-1.28-1.06-1.66a5.208,5.208,0,0,1,1.3-.24c.64,0,1.86.4,1.86,1.5,0,1.38-1.46,2.64-3.86,2.64a8.637,8.637,0,0,1-1.24-.1l.76,2.18C83.26,46.3,88.16,46.16,88.16,41.68Zm20.36.64V40.76h-6.8v-.7h5.56v-4.1H92.96v4.1h6.46v.7h-8v1.56h8v.62H95.7v7.04h10.84V42.94h-4.82v-.62Zm-7.44-3.76H99.12V37.34h1.96Zm3.96,0h-2V37.34h2Zm-7.9,0H95.2V37.34h1.94Zm7.14,8.24H97.92v-.74h6.36Zm0-1.88H97.92V44.2h6.36Zm0,3.82H97.92v-.78h6.36Zm4.3,3.62V50.58H94.54V44.22a.381.381,0,0,1,.18-.26c.04-.04.16-.12.16-.22,0-.22-.32-.24-.5-.24l-2.06-.04v9.56h2.22v-.66Zm19.56-7.76c0-.72-.5-3.08-3.12-5.88l-1.66,1.2a10.228,10.228,0,0,1,2.22,3.88c0,.48-.46.52-1.32.6l1.36,2.06C126.9,46.22,128.14,45.74,128.14,44.6Zm-4.74-.88c0-1.22-.22-3.44-2.94-3.44a9.375,9.375,0,0,0-1.58.16c.14-.76.28-1.46.38-2.18.02-.2.06-.22.42-.44.22-.14.26-.2.26-.28,0-.18-.4-.3-.56-.32l-2.44-.34a20.7,20.7,0,0,1-.44,4c-.88.14-2.72.48-4.18.6l.8,2.42a25.178,25.178,0,0,1,2.84-.86A20.993,20.993,0,0,1,112,50.86l2.28,1.02a33.152,33.152,0,0,0,4.14-9.32,7.533,7.533,0,0,1,1.14-.1c1.44,0,1.66.64,1.66,1.7A11.824,11.824,0,0,1,120,49.14a1.23,1.23,0,0,1-1.2.5,5.592,5.592,0,0,1-1.8-.32l.28,2.42a12.651,12.651,0,0,0,1.72.12,3.108,3.108,0,0,0,3-1.54A15.338,15.338,0,0,0,123.4,43.72Zm24.62,6.06-.62-2.24c-.82,1.16-1.58,1.52-2.14,1.52-.54,0-.74-.22-.74-1.32a27.767,27.767,0,0,1,.2-2.82c.26-2.68.28-2.9.28-3.26a2.279,2.279,0,0,0-2.2-2.4c-1.34,0-3.24,1.78-4.02,2.5l.44-.88-1.28-1.22a14.011,14.011,0,0,1,.2-2.64c.06-.06.36-.32.36-.38,0-.18-.18-.2-.5-.24l-1.98-.22-.08,4.3a16.314,16.314,0,0,1-3.6.96l.98,2.16c1-.32,1.54-.52,2.6-.9l-.04,1.76a22.885,22.885,0,0,1-3.8,4.6l2.08,1.4c.7-1.1,1.04-1.58,1.66-2.44l-.06,4.62,2.24-.12c-.12-2.34-.12-4.42-.14-7.2,1.4-1.72,2.94-3.64,4.08-3.64.68,0,.78.82.78,1.34,0,.84-.36,4.56-.36,5.32,0,.5,0,3.28,2.32,3.28A4.8,4.8,0,0,0,148.02,49.78Zm19.18-5.06V42.6a22.968,22.968,0,0,0-2.64-.12c-1.06,0-2.06.06-3.1.14v2.1a24.511,24.511,0,0,1,3-.22A21.736,21.736,0,0,1,167.2,44.72Zm-4.52-4.02V38.48a15.642,15.642,0,0,1-3.18,1.18c.14-.56.3-1.28.48-2.18.04-.2.08-.22.34-.34.18-.08.24-.14.24-.28,0-.22-.46-.32-.5-.32l-2.46-.58a24.288,24.288,0,0,1-.68,4.24,14.511,14.511,0,0,1-1.98.12,8.07,8.07,0,0,1-1.62-.12l.16,2.08a26.369,26.369,0,0,0,2.98-.24,33.3,33.3,0,0,1-4.06,9.52l2.44.74a56.72,56.72,0,0,0,4.12-10.64A24.138,24.138,0,0,0,162.68,40.7Zm4.84,11.44-.2-2.32a13.167,13.167,0,0,1-3.52.44,4.683,4.683,0,0,1-2.54-.54.687.687,0,0,1-.24-.6,3.781,3.781,0,0,1,.08-.74l-1.98-.42a4.635,4.635,0,0,0-.24,1.44c0,2.04,1.54,3.04,5.14,3.04A19.345,19.345,0,0,0,167.52,52.14ZM188.44,38.8a13.69,13.69,0,0,0-1.8-2.92l-1.92,1.24a30.464,30.464,0,0,1,1.74,2.84Zm.96,12.52A10.3,10.3,0,0,1,183.88,43h4.66V40.76h-4.88c.02-.5.1-4.2.14-4.24a2.924,2.924,0,0,1,.38-.32s.08-.06.08-.12c0-.22-.24-.24-.64-.26l-2.3-.12c.04,1.02.06,1.76.02,5.06h-3.72V43h3.64c-.44,4.86-2.24,6.8-4.82,8.32V36.48c0-.08.08-.14.28-.32a.23.23,0,0,0,.12-.18c0-.16-.18-.22-.54-.22l-2.2-.04v4.56a10.632,10.632,0,0,0-1.2-1.84l-2.16,1.26a17.169,17.169,0,0,1,1.88,3.16l1.48-.88v3.28a33.131,33.131,0,0,1-3.46,1.78l.58,2.5c.06.28.16.46.28.46.1,0,.14-.12.22-.28a.631.631,0,0,1,.38-.4c.68-.4,1.36-.8,2-1.26v4.98h2.34V51.76l1.72,1.26a10.113,10.113,0,0,0,4.5-5.72,12.665,12.665,0,0,0,1.9,3.3,7.838,7.838,0,0,0,2.56,2.28Zm19.84-1.76-2.08-1.1c-.34,1.96-.36,2.2-1.16,2.2h-.42c-.68,0-.88-.24-.88-.68V44.52h3.28v-8.2h-10.6v8.2h5.02v6.74c0,1.3.5,1.74,2.02,1.74h2.54C208.76,53,208.94,51.74,209.24,49.56Zm-12.5-11.7a9.952,9.952,0,0,0-3.26-2.06l-1.12,1.94a14.834,14.834,0,0,1,3.22,2Zm8.94,4.64h-6.02V38.38h6.02Zm-10.5-.18a14.181,14.181,0,0,0-3.36-2.06l-1.14,2a17.574,17.574,0,0,1,3.34,2Zm6.94,3.06c0-.22-.26-.26-.56-.3l-2.22-.3c.02.38.04.62.04.98,0,1.7-.42,4.22-4.68,5.48l2.04,1.86a7.236,7.236,0,0,0,4.94-6.84c0-.18.02-.22.24-.52C202.08,45.54,202.12,45.48,202.12,45.38Zm-5.56,1.46-1.76-1.52a23.717,23.717,0,0,1-3.8,5.92l2.1,1.62c.14.1.24.18.32.18a.244.244,0,0,0,.22-.26c0-.04-.04-.42-.04-.48a.65.65,0,0,1,.14-.4A48.025,48.025,0,0,0,196.56,46.84Zm33.4-8.68a9.111,9.111,0,0,0-1.56-1.68l-1.04.76a7.941,7.941,0,0,1,1.42,1.72Zm-2.18,1.12a12.322,12.322,0,0,0-1.54-1.7l-1.08.8a8.936,8.936,0,0,1,1.58,1.76Zm-.32,5.4c0-2.12-2.72-5.34-3.64-6.44l-1.62,1.12c2.12,2.46,2.88,4.1,2.88,4.6,0,.48-.42.58-1.14.68l1.06,1.9C225.74,46.44,227.46,46.2,227.46,44.68Zm-4.54.02c0-1.78-.24-4.16-2.94-4.16a8.356,8.356,0,0,0-1.46.14c.16-.9.2-1.26.3-2.06.04-.26.04-.26.28-.42.2-.12.22-.14.22-.22,0-.16-.22-.26-.48-.3l-2.4-.34a23.937,23.937,0,0,1-.2,3.8c-1.64.36-2.32.5-3.84.74l.74,2.4a17.913,17.913,0,0,1,2.72-1.08,21.228,21.228,0,0,1-3.62,7.8l2.08.94a26.847,26.847,0,0,0,3.8-9.26,6.618,6.618,0,0,1,1.08-.1c1.24,0,1.62.48,1.62,2.02,0,.96-.16,3.48-1.06,4.6a1.556,1.556,0,0,1-1.38.56,5.886,5.886,0,0,1-1.36-.16l.48,2.16a14.074,14.074,0,0,0,1.5.08,3,3,0,0,0,2.28-.78C222.22,50.16,222.92,47.58,222.92,44.7Zm25.46,4.5V47.78h-4.9v-.72h4.22V45.68h-4.22v-.6h3.36V41.32h-9.5v3.76h3.76v.6h-4.02v2.1h-.82V49.2h4.84v1.32h2.38V49.2Zm-3.64-5.54h-5.4v-.92h5.4Zm-3.64,4.12h-1.98v-.72h1.98Zm7.32-6.88V39.32h-1.78v-2.3h-4.42c.1-.3.12-.38.36-.52.16-.1.22-.14.22-.26,0-.1,0-.22-.64-.28l-2.04-.18c-.08.32-.2.78-.34,1.24H237.3v1.52h2.06c-.14.48-.14.52-.22.78h-3.06V40.9Zm-4.1-1.58h-2.74c.14-.44.16-.56.24-.78h2.5ZM236,38.68a13.328,13.328,0,0,0-2.86-2.6l-1.72,1.62a14.664,14.664,0,0,1,2.78,2.5ZM249.1,50.4a45.5,45.5,0,0,1-7.2.52c-4.66,0-6.06-.46-6.06-2.42V42.88H231.5v2.24h2.1v3.92A13.023,13.023,0,0,1,231,50.3l.84,2.32c.1.28.2.52.4.52s.22-.1.32-.44a.416.416,0,0,1,.14-.26c.04-.04.36-.26,2.14-1.52.74.98,1.48,1.8,5.16,1.8h8.02Zm13.8-14.16a23.75,23.75,0,0,1-6-.7l.18,2.46a54.506,54.506,0,0,0,5.54.5Zm2.58,7.96a4.313,4.313,0,0,0-.86-2.84,3.573,3.573,0,0,0-2.66-1.1c-2.56,0-6.38,1.52-7.86,2.1l.92,2.32c1.46-.72,4.68-2.32,6.34-2.32.62,0,1.8.36,1.8,2.12a6.138,6.138,0,0,1-1.46,3.82,9.475,9.475,0,0,1-5,3l1.54,1.92a11.219,11.219,0,0,0,5.2-3.32A8.962,8.962,0,0,0,265.48,44.2Zm22.66.16a7.066,7.066,0,0,0-7.44-7.28,8.626,8.626,0,0,0-8.82,8.48,5.691,5.691,0,0,0,4,5.38c1.04,0,1.96-1.68,2.56-2.92a28.4,28.4,0,0,0,2.48-8.9,5.117,5.117,0,0,1,3.4,1.34,4.715,4.715,0,0,1,1.44,3.5,6.257,6.257,0,0,1-1.44,3.98,6.736,6.736,0,0,1-3.6,2.14l1.48,2.06a9.655,9.655,0,0,0,4.66-3.52A7.473,7.473,0,0,0,288.14,44.36Zm-9.6-4.88c-.4,3.12-2.12,8.34-3.16,8.34-.36,0-1.28-.84-1.28-2.46a6.55,6.55,0,0,1,2-4.44A5.9,5.9,0,0,1,278.54,39.48ZM25.23,76.36a9.227,9.227,0,0,0-1.66-1.52l-.84.96a9.259,9.259,0,0,1,1.66,1.52Zm-1.62,1.82a8.72,8.72,0,0,0-1.66-1.54l-.82.96a8.879,8.879,0,0,1,1.64,1.54Zm.66-5.22V70.64c-3.78,1.16-9.98,1.64-14.3,1.6l.34,2.24c2-.28,4.94-.52,7.62-.74a14.912,14.912,0,0,0-2.64,3.04,7.275,7.275,0,0,0-1.36,3.98,5.017,5.017,0,0,0,1.48,3.6,8.975,8.975,0,0,0,4.92,2.22l.78-2.44a6.3,6.3,0,0,1-3.52-1.02,3.174,3.174,0,0,1-1.44-2.6,7.424,7.424,0,0,1,2.44-4.8A8.15,8.15,0,0,1,24.27,72.96Zm4.2,9.76a16.443,16.443,0,0,1,3.86,4.44l2.08-1.66a11.764,11.764,0,0,0-4.44-4.34Zm26.04-1.56c0-2.36-1.36-3.84-3.6-4.6l.32-.92-2.3-.5c-.08.38-.14.64-.24,1.04a8.834,8.834,0,0,0-2.18.16c.1-.8.12-.9.24-1.64a27.745,27.745,0,0,0,5.28-1.06V71.5a19.523,19.523,0,0,1-4.9,1.34,14.5,14.5,0,0,1,.62-1.96c.22-.06.46-.12.46-.3,0-.06,0-.16-.5-.3l-2.08-.56a32.976,32.976,0,0,0-.74,3.38,28.262,28.262,0,0,1-3.8-.14l.66,1.98c1.08,0,1.6,0,2.86-.06-.1.94-.16,1.44-.2,2.22-3.62,2-4.36,4.8-4.36,6.16,0,1.62.94,2.6,2.2,2.6a5.62,5.62,0,0,0,2.86-1,4.429,4.429,0,0,0,.28.74l1.92-1.04c-.2-.64-.24-.72-.38-1.2a18.056,18.056,0,0,0,3.26-5.04,2.848,2.848,0,0,1,2,2.76,3.767,3.767,0,0,1-1.16,2.76,5.8,5.8,0,0,1-3.42,1.42l1.46,1.84C50.45,86.7,54.51,85.56,54.51,81.16ZM48.09,77.9A16.108,16.108,0,0,1,46.45,81a20.3,20.3,0,0,1-.1-2.88A4.634,4.634,0,0,1,48.09,77.9Zm-3.42,5.02a3.175,3.175,0,0,1-1.86.86c-.34,0-.74-.12-.74-.94s.5-2.08,2.3-3.58A28.509,28.509,0,0,0,44.67,82.92Zm28.88.74a16.627,16.627,0,0,0-5.06-2.26c-.06-1.18-.06-1.38-.1-2.38a42.989,42.989,0,0,0,4.28-.5V76.34c-1.84.34-2.58.46-4.32.68V74.66c1-.02,2.86-.06,5.08-.06l.08-2.12c-1.88.14-2.56.18-5.12.3.02-1.04.04-1.42.04-1.44a.65.65,0,0,1,.26-.36c.22-.18.26-.2.26-.28,0-.14-.12-.2-.5-.24l-2.44-.24.06,2.66c-1.78.04-2.86.08-5.14.08l.04,2.16c1.72-.2,2.86-.28,5.16-.38l.04,2.5a13.725,13.725,0,0,1-1.38.04c-.34,0-.76,0-.76-.28,0-.26.3-.48.66-.74l-1.14-.98c-.78.56-2.14,1.5-2.14,2.48,0,.78.92,1.44,2.76,1.44.58,0,1.68-.04,2.04-.06l.04,1.92-.56-.02c-4.5-.16-4.7,2.16-4.7,2.74,0,1.62,1.72,2.6,4.48,2.6,2.56,0,3.04-.8,3.12-2.84a15.076,15.076,0,0,1,3.66,1.98Zm-7.28-.7c.02,1.12-.06,1.48-1.36,1.48-.24,0-1.52,0-1.52-.68,0-.52.64-.86,1.94-.86A5.177,5.177,0,0,1,66.27,82.96Zm26.56-6.28c0-1.32-.12-2.8-.24-4.2-.02-.2-.12-1.04-.12-1.22s.36-.3.36-.48c0-.26-.36-.26-.42-.26H89.99a52.183,52.183,0,0,1,.5,6.22,12.156,12.156,0,0,1-1.22,5.36,8.827,8.827,0,0,1-2.84,3.38l2.38,1.26a13.391,13.391,0,0,0,2.8-4.1A14.752,14.752,0,0,0,92.83,76.68Zm-6.42-.62-1.4-.92c-.5,1.12-.9,2.16-1.16,2.84a4.506,4.506,0,0,1-.14-1.24c0-1.2.32-5.02.74-5.36.08-.08.28-.16.28-.3,0-.2-.3-.24-.42-.24l-2.18-.12a37.855,37.855,0,0,0-.56,5.92,15.767,15.767,0,0,0,.9,5.44h1.7A46.314,46.314,0,0,1,86.41,76.06Zm26.78,6.18V76.32H101.35v5.92h5.8l-.7.6a12.975,12.975,0,0,1,1.42,1.64l1.54-.88a7.981,7.981,0,0,0-1.24-1.36Zm-2.26-3.72h-7.38V77.6h7.38Zm0,2.24h-7.38v-.94h7.38Zm4.98-5.26V73.76h-4.64a7.767,7.767,0,0,0,.56-1.18h2.84V70.94h-6.26v-.36c0-.06.02-.1.14-.18.08-.04.2-.12.2-.2s-.12-.18-.4-.2l-2.38-.14v1.08H99.71v1.64h2.84a7.236,7.236,0,0,1,.52,1.18h-4.5V75.5Zm-6.6-2.92a9.919,9.919,0,0,1-.5,1.18h-3.2a8.751,8.751,0,0,0-.62-1.18Zm6.42,12.9a18.814,18.814,0,0,0-2.18-2.72l-1.58.9a20.151,20.151,0,0,1,2.28,2.92Zm-3.78-.96-1.8-.82c0,.86-.2,1.48-.74,1.48h-3.48a.46.46,0,0,1-.5-.46V83.38c0-.06.08-.14.18-.24a.3.3,0,0,0,.12-.2c0-.08-.12-.18-.42-.2l-1.72-.08V85.6c0,.92.44,1.36,1.94,1.36h4.5C111.69,86.96,111.89,85,111.95,84.52Zm-9.16-.64c0-.14-.2-.28-.32-.34l-1.46-.86a17.866,17.866,0,0,1-2.22,3.1l1.62,1.02a26.3,26.3,0,0,0,1.82-2.6c.06-.1.08-.1.3-.14C102.59,84.06,102.79,84.04,102.79,83.88Zm33.8.66a14.455,14.455,0,0,1-5.32-5.38h4.4V77.2h-5.02V74.72h4.24V72.78h-4.24V70.74a.551.551,0,0,1,.22-.32c.04-.04.22-.2.22-.34,0-.22-.3-.24-.44-.24l-2.38-.14v3.08h-3.44v1.94h3.44V77.2h-3.98V71.74h-5.44V84.72h2v-2.1h3.44V79.16h3.06a14.819,14.819,0,0,1-2.36,3.3,13.216,13.216,0,0,1-3.22,2.48l1.78,1.46a15.262,15.262,0,0,0,4.72-4.56V87h2.38V81.98a12.949,12.949,0,0,0,4.16,4.08Zm-14.34-3.86h-1.4V73.7h1.4Zm34.94-8.52a9.111,9.111,0,0,0-1.56-1.68l-1.04.76a7.941,7.941,0,0,1,1.42,1.72Zm-2.18,1.12a12.322,12.322,0,0,0-1.54-1.7l-1.08.8a8.936,8.936,0,0,1,1.58,1.76Zm-.32,5.4c0-2.12-2.72-5.34-3.64-6.44l-1.62,1.12c2.12,2.46,2.88,4.1,2.88,4.6,0,.48-.42.58-1.14.68l1.06,1.9C152.97,80.44,154.69,80.2,154.69,78.68Zm-4.54.02c0-1.78-.24-4.16-2.94-4.16a8.356,8.356,0,0,0-1.46.14c.16-.9.2-1.26.3-2.06.04-.26.04-.26.28-.42.2-.12.22-.14.22-.22,0-.16-.22-.26-.48-.3l-2.4-.34a23.937,23.937,0,0,1-.2,3.8c-1.64.36-2.32.5-3.84.74l.74,2.4a17.914,17.914,0,0,1,2.72-1.08,21.228,21.228,0,0,1-3.62,7.8l2.08.94a26.847,26.847,0,0,0,3.8-9.26,6.618,6.618,0,0,1,1.08-.1c1.24,0,1.62.48,1.62,2.02,0,.96-.16,3.48-1.06,4.6a1.556,1.556,0,0,1-1.38.56,5.886,5.886,0,0,1-1.36-.16l.48,2.16a14.075,14.075,0,0,0,1.5.08,3,3,0,0,0,2.28-.78C149.45,84.16,150.15,81.58,150.15,78.7Zm23.94,4.94a18.369,18.369,0,0,0-3.44-1.82,19.817,19.817,0,0,1-.26-2.78,1.832,1.832,0,0,1,.76-1.6l-2.08-1.12a3.022,3.022,0,0,0-.86,2.04c0,.42.24,2.46.28,2.92a10.093,10.093,0,0,0-1.56-.12c-2.76,0-3.54,1.76-3.54,2.84a2.264,2.264,0,0,0,.74,1.7,4.753,4.753,0,0,0,3.26.94c2.62,0,3.22-.84,3.4-2.44a11.01,11.01,0,0,1,1.98,1.32Zm-5.5-.36c0,.72.02,1.56-1.6,1.56-1.1,0-1.66-.46-1.66-.9,0-.4.48-.96,1.52-.96A6.716,6.716,0,0,1,168.59,83.28Zm6.06-8a9.884,9.884,0,0,0-4.46-1.84l-.9,1.72a14.156,14.156,0,0,1,4.38,1.82Zm-5.96-1.04V72c-.52.18-1.12.38-2.3.68.08-.26.46-1.54.48-1.56.12-.12.46-.24.46-.44,0-.22-.38-.32-.48-.34l-2.18-.48a19.083,19.083,0,0,1-.72,3.3,26.625,26.625,0,0,1-3.4.26l.3,2.08c.94-.06,1.5-.12,2.42-.24a34.305,34.305,0,0,1-3.42,7.28l2.14.92a48.777,48.777,0,0,0,3.7-8.58C167.39,74.58,168.01,74.42,168.69,74.24Zm26.9,6.66a17,17,0,0,0-3.28-8.5l-2.06,1a18.6,18.6,0,0,1,2.94,8.12Zm-8.82-.3-1.66-1.48c-.38.96-1.2,3.08-1.92,3.08-.4,0-1.36-.72-1.36-4.62a20.732,20.732,0,0,1,.38-4.46c.34-.12.58-.2.58-.42,0-.24-.32-.34-.46-.38l-2.2-.6a19.479,19.479,0,0,0-.6,5.2c0,3.8.64,6.14,2.04,7.5a2.181,2.181,0,0,0,1.48.66C184.67,85.08,185.67,82.96,186.77,80.6Zm26.38,5.42V83.46a25.919,25.919,0,0,1-6.18.9c-2.1,0-3.68-.7-3.68-2.14,0-1.34,1.48-2.36,2.38-2.92a30.089,30.089,0,0,1,7.4-3.16l-.74-2.44c-2.46,1.16-2.72,1.28-5.02,2.36a2.435,2.435,0,0,1-1.16-1.36,16.185,16.185,0,0,1-.58-4.74l-2.56.38c.64,3.82.74,4.4,1.02,5.06a6.3,6.3,0,0,0,1.18,1.8c-2.2,1.3-4.14,2.58-4.14,5.08a3.811,3.811,0,0,0,2.04,3.42,8.6,8.6,0,0,0,4.4.8A35.876,35.876,0,0,0,213.15,86.02Zm22.72-7.28-1.76-1.08c-.04.56-.1,1.38-.58,1.38-.36,0-.92-.48-1.24-.78a16.792,16.792,0,0,0,1.8-3c.04-.08.12-.1.22-.12.12-.02.26-.04.26-.16,0-.06-.02-.14-.4-.32l-1.74-.86a15.807,15.807,0,0,1-1.36,2.74,9.277,9.277,0,0,1-.94-2.92h5.64V71.66h-2.6l.94-.6a7.52,7.52,0,0,0-1.44-1.44l-1.64.9c.52.54.78.8,1.08,1.14h-2.18a11.611,11.611,0,0,1,0-1.18c.06-.08.46-.32.46-.4,0-.16-.22-.22-.58-.24l-1.98-.12a16.02,16.02,0,0,0,.04,1.94h-8.02c.04.9.08,1.82.08,2.66a11.13,11.13,0,0,1-1.6,6.46l1.94,1c1.3-2.1,1.7-3.86,1.66-8.16h6.22a14.115,14.115,0,0,0,1.62,4.68,8.235,8.235,0,0,1-2.1,1.74V76.58h-5.32V80.9h1.7v-.66h3.44l1.6,1.44a9.246,9.246,0,0,0,1.9-1.76c1.58,1.56,2.74,1.74,3.08,1.74C235.39,81.66,235.83,79.26,235.87,78.74Zm-9.7.16h-2.12V77.82h2.12Zm1.58-3.08V74.3h-5.28v1.52Zm8.22,9.36a24.018,24.018,0,0,0-2.32-3.5l-1.92,1.18a14.394,14.394,0,0,1,2.42,3.52Zm-6.7-2.04a16.571,16.571,0,0,0-1.78-2.22l-1.52,1.04a14.936,14.936,0,0,1,1.62,2.2Zm2.84,1L230.27,83c-.14,1.76-.88,1.82-1.42,1.82h-2.52c-.24,0-.94-.04-.94-.6v-1.7c0-.08.1-.14.16-.18.14-.08.18-.16.18-.24,0-.16-.12-.16-.44-.18l-2.08-.12v3.88c0,.7.88,1.18,1.64,1.18h4.62c1.58,0,1.98-.68,2.16-.98A3.075,3.075,0,0,0,232.11,84.14Zm-9.28-1.26c0-.16-.24-.28-.36-.34l-1.86-.88a14.471,14.471,0,0,1-2.06,4.02l1.8,1.2a12.886,12.886,0,0,0,2-3.72c.04-.06.08-.08.36-.16C222.79,82.98,222.83,82.96,222.83,82.88Zm31.7-10.14a12.649,12.649,0,0,0-1.86-1.72l-.84.94a13.315,13.315,0,0,1,1.84,1.72Zm-1.82,1.76a12.113,12.113,0,0,0-1.86-1.72l-.84.94a12.568,12.568,0,0,1,1.84,1.72Zm1.54,6.52-1.9-1.58c-1.62,3.42-4.04,4.6-5.64,4.6a1.981,1.981,0,0,1-1.62-.72c-.28-.34-.48-.88-.48-3.76a54.931,54.931,0,0,1,.48-7.84c.12-.12.46-.36.46-.54,0-.22-.56-.28-.62-.28l-2.56-.3c.02,1.24,0,6.78,0,7.92,0,4.86.42,6.12,1.26,6.9a4.364,4.364,0,0,0,2.94,1.02C250.41,86.44,252.79,83.18,254.25,81.02Zm19.46-.3a4.408,4.408,0,0,0-4.44-4.42,15.924,15.924,0,0,0-1.94.12,49.447,49.447,0,0,1,4.44-4.28l-1.04-1.62a22.666,22.666,0,0,1-6.06,1c-.62,0-1.76-.08-2.24-.12l.46,2.24a18.671,18.671,0,0,0,4.68-.5,39.484,39.484,0,0,1-7.4,7.22l1.68,1.76a22.577,22.577,0,0,1,4.12-3.58,5.424,5.424,0,0,1,2.28-.5c1.3,0,3.24.64,3.24,2.62a3.523,3.523,0,0,1-1.32,2.66,5.227,5.227,0,0,0-3.94-2.34,2.8,2.8,0,0,0-2.94,2.66c0,1.48,1.28,2.74,3.78,2.74C270.59,86.38,273.71,84.04,273.71,80.72Zm-5.4,3.58a5.686,5.686,0,0,1-1.36.18c-.72,0-1.64-.2-1.64-.9a.881.881,0,0,1,1-.84C267.45,82.74,268.05,83.84,268.31,84.3ZM281.17,86V83.24h-2.7V86Zm5.18,0V83.24h-2.7V86Zm5.18,0V83.24h-2.7V86Z" transform="translate(578.5 3307)"/><path class="b" d="M1135.343-762.939c-44.867-.274-74.292,25.8-115.865,18.242s-42.7-36.407-75.288-53.817-37.552-84.256-5.366-112.435,105.724-67.216,161.007-55.312a707.515,707.515,0,0,0,121.823,15.717c27.36,1.346,72.041-8.285,94.474,16.973s39.01,58.815,24.771,100.35-20.658,45.373-80.953,57.667S1180.209-762.666,1135.343-762.939Z" transform="translate(-403.363 4210.458)"/><g class="b" transform="translate(946 3259)"><ellipse class="c" cx="17.5" cy="18" rx="17.5" ry="18"/><ellipse class="d" cx="17.5" cy="18" rx="16.5" ry="17"/></g><g class="b" transform="translate(984 3242)"><circle class="c" cx="11.5" cy="11.5" r="11.5"/><circle class="d" cx="11.5" cy="11.5" r="10.5"/></g><path class="a" d="M18.4,18.14V3.8H10.94V18.88H13.1v-2.2h3.12v1.46Zm-7.8-2.22a8.966,8.966,0,0,1-3.18-4.3l.04-.18h2.88V9.36H7.66c.12-1.34.14-2.24.16-3.2h2.2V4.22H5.2a12.509,12.509,0,0,1,.32-1.24c.04-.1.14-.16.3-.24.12-.06.2-.1.2-.22,0-.14-.24-.2-.32-.22L3.48,1.76A15.69,15.69,0,0,1,1.2,7.88l2.14.82A10.748,10.748,0,0,0,4.6,6.16h.9a27.694,27.694,0,0,1-.04,3.2H1.58v2.08H5.22c-.68,3.04-1.68,4.4-4.24,6.32l2.16,1.32a11.606,11.606,0,0,0,3.4-4.62,12.8,12.8,0,0,0,2.5,3.12Zm5.62-1.26H13.1V5.82h3.12ZM35.6,8.68c0-1.32-.12-2.8-.24-4.2-.02-.2-.12-1.04-.12-1.22s.36-.3.36-.48c0-.26-.36-.26-.42-.26H32.76a52.182,52.182,0,0,1,.5,6.22,12.156,12.156,0,0,1-1.22,5.36,8.827,8.827,0,0,1-2.84,3.38l2.38,1.26a13.391,13.391,0,0,0,2.8-4.1A14.752,14.752,0,0,0,35.6,8.68Zm-6.42-.62-1.4-.92c-.5,1.12-.9,2.16-1.16,2.84a4.506,4.506,0,0,1-.14-1.24c0-1.2.32-5.02.74-5.36.08-.08.28-.16.28-.3,0-.2-.3-.24-.42-.24L24.9,2.72a37.855,37.855,0,0,0-.56,5.92,15.767,15.767,0,0,0,.9,5.44h1.7A46.315,46.315,0,0,1,29.18,8.06Zm30.28-.02a16.082,16.082,0,0,1-5.02-2.32,12.781,12.781,0,0,1-3.16-3.14c.12-.08.3-.24.3-.32,0-.06-.1-.18-.28-.22l-2.34-.46a17.332,17.332,0,0,1-8.28,7.16l1.68,1.7a18.177,18.177,0,0,0,3.56-2.08V9.6h8.04V7.98a18.025,18.025,0,0,0,3.78,2.06Zm-6.08-.48H46.96a15.292,15.292,0,0,0,3-3.32A21.1,21.1,0,0,0,53.38,7.56ZM55.9,18.84V11.16H44.22v7.76H46.4v-.68h7.24v.6Zm-2.26-2.66H46.4V13.12h7.24ZM78.36,12.9a17,17,0,0,0-3.28-8.5l-2.06,1a18.6,18.6,0,0,1,2.94,8.12Zm-8.82-.3-1.66-1.48c-.38.96-1.2,3.08-1.92,3.08-.4,0-1.36-.72-1.36-4.62a20.732,20.732,0,0,1,.38-4.46c.34-.12.58-.2.58-.42,0-.24-.32-.34-.46-.38l-2.2-.6a19.478,19.478,0,0,0-.6,5.2c0,3.8.64,6.14,2.04,7.5a2.181,2.181,0,0,0,1.48.66C67.44,17.08,68.44,14.96,69.54,12.6Zm24.38,3.1V8.96H85.78v7.58h2.1V15.7Zm-2.08-2H87.88V10.8h3.96Zm2.88-6.2V5.62H85.06V7.5Zm3.24,9.24V2.04H82.04V18.72h2.14V4.1H95.76V16c0,.72-.2.84-.98.84q-.27,0-.9-.06L94.7,19C96.98,18.96,97.96,18.52,97.96,16.74ZM118.6,9.52V7.18h-7.3V2.86c0-.06.08-.12.2-.18a.336.336,0,0,0,.2-.3c0-.36-.62-.42-.76-.44l-2.26-.22V7.18h-7.24V9.52h7.24v6.84h-5.86v2.22h14.32V16.36H111.3V9.52Zm17.74,1.2V8.82a15.207,15.207,0,0,0-1.86-.08,26.92,26.92,0,0,0-3.32.2v1.92A23.242,23.242,0,0,1,136.34,10.72Zm-4.16-3.66V4.88a10.3,10.3,0,0,1-2.96,1.18c.14-.58.34-1.54.36-1.64.06-.42.06-.48.2-.56.32-.24.36-.26.36-.34,0-.14-.12-.22-.44-.3l-2.26-.56a19.664,19.664,0,0,1-.54,3.94,16.676,16.676,0,0,1-3.34.24l.14,1.88a8.131,8.131,0,0,0,1.2-.12c.16-.02,1.54-.22,1.54-.22a31.921,31.921,0,0,1-3.66,9.12l2.22.64a56.4,56.4,0,0,0,3.76-10.12A18.718,18.718,0,0,0,132.18,7.06Zm5.16-2.88a11.78,11.78,0,0,0-1.52-1.56l-.86.86a11.587,11.587,0,0,1,1.5,1.54Zm-2.1,1.04a14.526,14.526,0,0,0-1.58-1.62l-.84.8a12.932,12.932,0,0,1,1.58,1.62Zm1.48,12.6-.24-2.12a11.8,11.8,0,0,1-3.24.4,4.487,4.487,0,0,1-2.28-.44.665.665,0,0,1-.26-.54,4.6,4.6,0,0,1,.08-.76l-1.86-.28a5.458,5.458,0,0,0-.12,1.18c0,2.72,2.54,2.84,4.48,2.84A17.515,17.515,0,0,0,136.72,17.82Zm19.2.2V15.46a25.919,25.919,0,0,1-6.18.9c-2.1,0-3.68-.7-3.68-2.14,0-1.34,1.48-2.36,2.38-2.92a30.089,30.089,0,0,1,7.4-3.16L155.1,5.7c-2.46,1.16-2.72,1.28-5.02,2.36a2.435,2.435,0,0,1-1.16-1.36,16.185,16.185,0,0,1-.58-4.74l-2.56.38c.64,3.82.74,4.4,1.02,5.06a6.3,6.3,0,0,0,1.18,1.8c-2.2,1.3-4.14,2.58-4.14,5.08a3.811,3.811,0,0,0,2.04,3.42,8.6,8.6,0,0,0,4.4.8A35.876,35.876,0,0,0,155.92,18.02Zm5.32-3.3a16.444,16.444,0,0,1,3.86,4.44l2.08-1.66a11.764,11.764,0,0,0-4.44-4.34ZM184.9,10.4h-5.46V8.92h5.46Zm3.58,2.02c0-.14-.28-.3-.44-.4l-1.14-.66V7.48h-9.46v4.34h2.42a10.3,10.3,0,0,1-3.68,2.28l1.56,1.52a13.647,13.647,0,0,0,3.3-2.38v3.22h2.26V13.64a13.073,13.073,0,0,0,3.18,2.62L188,14.74a8.722,8.722,0,0,1-1.68-.86c.58-.5.74-.66,1.18-1.06a.542.542,0,0,1,.46-.22C188.38,12.6,188.48,12.6,188.48,12.42Zm-2.7-.6a5.83,5.83,0,0,1-1,.86,8.812,8.812,0,0,1-.82-.86Zm2.86-5V5.26h-5.26V4.44h4.12V2.92h-4.12v-.3c0-.1.02-.12.26-.28a.178.178,0,0,0,.1-.16c0-.22-.22-.26-.7-.3l-2.02-.16v1.2h-3.96V4.44h3.96v.82h-5.16V6.82ZM175.88,4.64a12.2,12.2,0,0,0-2.84-2.46l-1.7,1.72a12.045,12.045,0,0,1,2.82,2.4ZM189.1,16.52A64.437,64.437,0,0,1,181,17c-4.1,0-5.14-.6-5.14-2.68V8.96h-4.52v2.16h2.32v4.2a21.619,21.619,0,0,1-2.68,1.58l1.14,2.02c.06.1.32.5.5.5.12,0,.14-.1.14-.3.02-.26.02-.26.36-.58.38-.36,1.56-1.48,1.76-1.68a3.284,3.284,0,0,0,1.84,1.58,7.948,7.948,0,0,0,2.82.48h8.48Zm19.4.78a13.713,13.713,0,0,0-2.5-2.42h.8V10.24H195.54v4.64h5.24l-.42.6a11.578,11.578,0,0,1,1.7,1.48l1.08-1.3a11.575,11.575,0,0,0-.94-.78h3.34l-1.12.96a12.016,12.016,0,0,1,2.46,2.72Zm-3.68-5.26H202.2V11.4h2.62Zm0,1.6H202.2v-.58h2.62Zm-4.56-1.6h-2.6V11.4h2.6Zm0,1.6h-2.6v-.58h2.6Zm8.06-6.42V4.42h-7.36v-.6h5.54V2.56h-5.54c0-.18,0-.2.12-.26.14-.08.16-.16.16-.22,0-.2-.12-.2-.42-.22l-2.22-.14v2.7h-6.36a51.7,51.7,0,0,1,.34,5.44,24.136,24.136,0,0,1-.6,5.6,16.794,16.794,0,0,1-1.06,2.96l2.02.74c1.66-3.16,1.78-7.14,1.78-8.84,0-2.04-.12-3.5-.16-4.28h4.04v.78l-3.46.32.16,1.38,3.3-.3c0,1.24.12,1.58,1.8,1.58h4.9c.94,0,1.52-.56,1.8-1.7l-1.46-.68c-.08.3-.28,1.12-.86,1.12H201.6c-.68,0-.72-.3-.74-.56l4.08-.4-.16-1.38-3.94.4V6.04h5.4V7.22Zm-3.12,9.42-1.7-.66c-.12.64-.34,1.42-.9,1.42h-1.9c-.28,0-.6-.06-.6-.38V16.2c.02-.04.32-.44.32-.46,0-.12-.18-.2-.34-.2l-1.98-.04V18c0,.86.54,1.12,1.38,1.12h3.28C203.58,19.12,205,19,205.2,16.64Zm-7.52-.7c0-.1-.2-.18-.28-.2l-1.76-.6a6.532,6.532,0,0,1-1.58,2.96l1.68,1.06a8.61,8.61,0,0,0,1.62-3C197.46,16.12,197.68,16.06,197.68,15.94Zm30.48-8.26c0-2.52-2.16-3.52-4.06-3.52a8.719,8.719,0,0,0-2.46.44,21.564,21.564,0,0,0-2-2.38l-2.06.96a11.608,11.608,0,0,1,2.02,2.2c-.84.36-1.44.64-2.52,1.2-.34-.62-.94-1.72-1.08-1.92a3.029,3.029,0,0,1-.26-.5c0-.1.16-.5.16-.6,0-.36-.56-.08-.8.02l-2.12.92a21.186,21.186,0,0,1,2.06,3.18c-2.78,1.6-3.1,1.78-3.38,1.94l1.8,1.98a19.28,19.28,0,0,1,2.6-1.96,45.9,45.9,0,0,1,3.4,9l2.24-1a60.229,60.229,0,0,0-3.68-9.16,28.743,28.743,0,0,1,2.76-1.36,15.3,15.3,0,0,1,1,1.82l2.16-.92c-.46-.76-.78-1.28-1.06-1.66a5.208,5.208,0,0,1,1.3-.24c.64,0,1.86.4,1.86,1.5,0,1.38-1.46,2.64-3.86,2.64a8.637,8.637,0,0,1-1.24-.1l.76,2.18C223.26,12.3,228.16,12.16,228.16,7.68ZM247.1,4.96V3.16H236.18c.24-.48.26-.54.36-.6l.28-.14a.289.289,0,0,0,.04-.14c0-.14-.2-.2-.28-.22l-2.44-.64a13.945,13.945,0,0,1-2.96,5.3l2.06,1.12a17.723,17.723,0,0,0,1.96-2.88Zm-2,2.86V6.02h-9.72v1.8Zm3.92,8.28-1.56-1.14c-.02.32-.2,1.42-.54,1.42-.74,0-1.16-2.22-1.16-4.24A22.147,22.147,0,0,1,246,8.88H232.96v1.96h10.62a13.342,13.342,0,0,0,.96,6.34A3.429,3.429,0,0,0,247,19.32C248.12,19.32,248.68,17.58,249.02,16.1Zm-7.16,1.3a25.748,25.748,0,0,0-2.58-2.7,17.423,17.423,0,0,0,1.28-2.06.841.841,0,0,1,.3-.16c.06-.02.16-.06.16-.16,0-.16-.22-.28-.32-.32l-1.9-.84a13.759,13.759,0,0,1-1.18,2.16,15.228,15.228,0,0,0-2.72-1.66l-1.14,1.82A12.46,12.46,0,0,1,236.22,15a10.559,10.559,0,0,1-4.38,2.56l1.46,1.78a13.737,13.737,0,0,0,4.5-2.92,26.921,26.921,0,0,1,2.16,2.56Zm27-7.74a22.987,22.987,0,0,0-2.64-3.84l-1.62,1.2a5.482,5.482,0,0,1,.66.78c-.86.14-1.84.24-2.34.28,1.7-1.76,2.66-2.84,3.98-4.32.38-.08.62-.02.62-.28,0-.2-.26-.28-.4-.34l-2-.86A37.572,37.572,0,0,1,262.24,6a4.249,4.249,0,0,0-.86-.78,27.564,27.564,0,0,0,1.98-2.3c.32-.06.64-.06.64-.24,0-.14-.26-.2-.44-.28l-1.96-.78a8.864,8.864,0,0,1-1.72,2.4c-.36-.28-.72-.54-1.1-.8l-1.5,1.56a17.866,17.866,0,0,1,3.48,2.86,2.969,2.969,0,0,1-.68.64c-1.2.06-1.76.08-3,.08l.48,2.28c.02.12.08.2.16.2s.14-.1.32-.34a.289.289,0,0,1,.2-.14c.26-.04,1.46-.16,1.7-.18a11.477,11.477,0,0,1-4.16,4.42V10.14c0-.06.2-.28.24-.34a.221.221,0,0,0,.1-.2.251.251,0,0,0-.12-.22l-.28-.14c.66-.84,1.04-1.38,1.46-2.02.3-.12.56-.12.56-.3,0-.14-.2-.18-.36-.24l-1.92-.74a18.813,18.813,0,0,1-4.54,5.36l1.78,1.3c.36-.34.64-.64.8-.8v7.24h2.28V14.9l1.7,1.18a11.831,11.831,0,0,0,2.16-1.92,8.114,8.114,0,0,0,1.26,1.44,13.569,13.569,0,0,1-4.3,1.8l1.58,1.68a15.8,15.8,0,0,0,4.34-2.22,17.508,17.508,0,0,0,4.64,2l1.42-2.1a12.5,12.5,0,0,1-4.34-1.3,14.368,14.368,0,0,0,2.74-3.3l-.72-1.02h-4.42a1.407,1.407,0,0,1,.26-.38c.18-.04.28-.04.28-.12s-.12-.14-.2-.2l-.6-.46c2.8-.32,3.26-.38,4.74-.58a10.352,10.352,0,0,1,.76,1.36ZM257.02,3.22c0-.14-.14-.22-.26-.28l-1.94-1a13.547,13.547,0,0,1-3.8,4l1.94,1.3a20.646,20.646,0,0,0,3.48-3.74C256.72,3.4,257.02,3.4,257.02,3.22Zm6.78,9.7a7.1,7.1,0,0,1-1.26,1.44,5.5,5.5,0,0,1-1.22-1.44Zm24.22,2.86-.62-2.24c-.82,1.16-1.58,1.52-2.14,1.52-.54,0-.74-.22-.74-1.32a27.774,27.774,0,0,1,.2-2.82c.26-2.68.28-2.9.28-3.26a2.279,2.279,0,0,0-2.2-2.4c-1.34,0-3.24,1.78-4.02,2.5l.44-.88-1.28-1.22a14.01,14.01,0,0,1,.2-2.64c.06-.06.36-.32.36-.38,0-.18-.18-.2-.5-.24l-1.98-.22-.08,4.3a16.313,16.313,0,0,1-3.6.96l.98,2.16c1-.32,1.54-.52,2.6-.9l-.04,1.76a22.884,22.884,0,0,1-3.8,4.6l2.08,1.4c.7-1.1,1.04-1.58,1.66-2.44l-.06,4.62,2.24-.12c-.12-2.34-.12-4.42-.14-7.2,1.4-1.72,2.94-3.64,4.08-3.64.68,0,.78.82.78,1.34,0,.84-.36,4.56-.36,5.32,0,.5,0,3.28,2.32,3.28A4.8,4.8,0,0,0,288.02,15.78ZM308,8.36a9.227,9.227,0,0,0-1.66-1.52l-.84.96a9.259,9.259,0,0,1,1.66,1.52Zm-1.62,1.82a8.72,8.72,0,0,0-1.66-1.54l-.82.96a8.88,8.88,0,0,1,1.64,1.54Zm.66-5.22V2.64c-3.78,1.16-9.98,1.64-14.3,1.6l.34,2.24c2-.28,4.94-.52,7.62-.74a14.912,14.912,0,0,0-2.64,3.04,7.275,7.275,0,0,0-1.36,3.98,5.017,5.017,0,0,0,1.48,3.6,8.975,8.975,0,0,0,4.92,2.22l.78-2.44a6.3,6.3,0,0,1-3.52-1.02,3.174,3.174,0,0,1-1.44-2.6,7.424,7.424,0,0,1,2.44-4.8A8.15,8.15,0,0,1,307.04,4.96ZM328.26,18.7V2.26h-8.54V18.84h2.2v-1.2h4.1V18.7Zm-2.24-7.8h-4.1V8.52h4.1Zm0-4.32h-4.1V4.2h4.1Zm0,9.02h-4.1V12.84h4.1Zm-6.72-4.62a13.831,13.831,0,0,1-2.72-4.12V6.64h2.62V4.74h-2.62V2.58c0-.06.1-.14.2-.22s.12-.14.12-.18c0-.22-.42-.24-.54-.26l-1.82-.18v3H311.6v1.9h2.76a16.913,16.913,0,0,1-3.6,7.02l1.86,1.1a16.158,16.158,0,0,0,1.92-2.88v6.96h2.04V10.82a18.509,18.509,0,0,0,1.24,1.64ZM7,37.94V36.22H2.3v1.72Zm.58,2.5V38.76H1.52v1.68Zm11,10.72c-4-1.38-4.56-3.6-4.56-5.8a.458.458,0,0,1,.22-.48c.24-.22.34-.32.34-.48,0-.18-.16-.26-.78-.26l-2.14-.02c.02.32.06.8.06,1.3,0,4.8-3.06,5.54-4.3,5.8V46.6H1.78v6.28H3.76v-.8H5.42v.62h2V51.44l1.62,1.74a6.923,6.923,0,0,0,4-3.54,8.9,8.9,0,0,0,3.84,3.38ZM5.42,50.38H3.76V48.34H5.42ZM18.4,38.14c0-.14-.16-.26-.24-.3l-1.88-1.02a11.956,11.956,0,0,1-1.98,2.42l1.6,1.26a9.187,9.187,0,0,0,1.78-2c.1-.12.14-.12.44-.14C18.2,38.34,18.4,38.32,18.4,38.14Zm.42,5.04A10.383,10.383,0,0,1,15,41.14a3.23,3.23,0,0,1-1.08-2.68,8.454,8.454,0,0,1,.12-1.94,2.195,2.195,0,0,0,.22-.24.321.321,0,0,0,.1-.22c0-.18-.22-.22-.76-.24l-2-.04c.04.48.08,1.1.08,1.78,0,2.8-.52,4.5-4.24,5.62l1.54,1.78a8.222,8.222,0,0,0,3.94-3.24,9.17,9.17,0,0,0,4.18,3.32ZM10.8,38.04c0-.12-.16-.16-.44-.22l-1.84-.34a13.121,13.121,0,0,1-.44,3.18l1.96.36a17.262,17.262,0,0,0,.36-2.6C10.56,38.34,10.8,38.2,10.8,38.04Zm7.42,8.22c0-.14-.22-.3-.32-.34l-1.86-.78a11.026,11.026,0,0,1-1.44,2.22l1.72,1.12a9.209,9.209,0,0,0,1.24-1.92c.1-.02.22-.08.36-.1C18.12,46.42,18.22,46.38,18.22,46.26Zm-11.2-3.3v-1.7H2.22v1.7Zm4.12,3.3c0-.12-.14-.18-.44-.24l-2-.42a8.939,8.939,0,0,1-.82,3.02l2,.66a10.919,10.919,0,0,0,.84-2.66C10.88,46.54,11.14,46.42,11.14,46.26Zm-4.12-.62V43.96H2.22v1.68ZM37.2,47.12,35.24,45.5c-1.96,3.84-4.64,4.54-5.76,4.54a1.929,1.929,0,0,1-1.76-.84,10.531,10.531,0,0,1-.38-3.54,75.593,75.593,0,0,1,.56-8c.32-.26.56-.42.56-.58,0-.12-.18-.26-.66-.32l-2.66-.38c.06,1.34-.1,7.28-.1,8.5,0,4.8.32,5.82,1.26,6.64a4.449,4.449,0,0,0,2.92,1.02,7.229,7.229,0,0,0,3.98-1.28A14.922,14.922,0,0,0,37.2,47.12ZM58.32,36.66a8.388,8.388,0,0,0-1.54-1.62l-.96.82a8.48,8.48,0,0,1,1.54,1.62ZM55.66,37a8.456,8.456,0,0,0-1.52-1.62l-.98.82a8.119,8.119,0,0,1,1.54,1.6Zm2.1,7c0-4.16-3.12-5.66-5.76-5.66a19.972,19.972,0,0,0-4.68.9,29.613,29.613,0,0,1-5.6,1.32l1.12,2.52c3.72-1.42,7.34-2.7,9.1-2.7,1.68,0,3.6.9,3.6,3.36,0,4.18-6.18,4.7-7.56,4.7-.24,0-.42-.02-.9-.04l1.02,2.44C50.34,50.56,57.76,49.58,57.76,44Zm14.76-5.98a23.763,23.763,0,0,0-4.78-2.06l-.86,1.98a18.944,18.944,0,0,1,4.62,2.18Zm3.68,8.92a4.316,4.316,0,0,0-4.44-4.38,7.691,7.691,0,0,0-4.92,2.02,25.551,25.551,0,0,1,1.2-4.4l-2.3-.9a39.042,39.042,0,0,0-1.56,7.64l1.74.92c2.06-2.4,4.08-3.2,5.46-3.2,1.5,0,2.52.82,2.52,2.1,0,1.84-1.7,3.78-5.42,3.78a20.028,20.028,0,0,1-2.5-.22l1.06,2.46C69.52,52.7,76.2,52.58,76.2,46.94Zm22.16-.04a17,17,0,0,0-3.28-8.5l-2.06,1a18.6,18.6,0,0,1,2.94,8.12Zm-8.82-.3-1.66-1.48c-.38.96-1.2,3.08-1.92,3.08-.4,0-1.36-.72-1.36-4.62a20.732,20.732,0,0,1,.38-4.46c.34-.12.58-.2.58-.42,0-.24-.32-.34-.46-.38l-2.2-.6a19.478,19.478,0,0,0-.6,5.2c0,3.8.64,6.14,2.04,7.5a2.181,2.181,0,0,0,1.48.66C87.44,51.08,88.44,48.96,89.54,46.6Zm29.08-3.64V41.02h-3.9V38.34c1.24-.2,2.02-.38,2.22-.44a3.862,3.862,0,0,1,.82-.16,5.229,5.229,0,0,0,.56,0,.113.113,0,0,0,.1-.12.244.244,0,0,0-.06-.18l-1.48-1.76a21.62,21.62,0,0,1-8.06,1.36l.78,1.82a27.466,27.466,0,0,0,2.8-.18v2.34h-3.72v1.94h3.72v2.5h-2.96v7.26h2.1v-.64h4.18v.48h2.2v-7.1h-3.2v-2.5Zm-11.06-5V36.14h-5.02v1.82Zm8.16,12.16h-4.18v-2.7h4.18Zm-7.9-6.98V41.38H102.4v1.76Zm-.08,2.6V44H102.4v1.74Zm.4,6.8V46.6H101.8v6.26h1.98V52h2.32v.54Zm-2.04-2.4h-2.32V48.52h2.32Zm2.62-9.56V38.74H101.4v1.84Zm27.66,7.32a8.289,8.289,0,0,0-1.32-4.34l-1.86.98a6.141,6.141,0,0,1,.9,2.98c0,2.42-2.02,3.12-3.66,3.12a2.692,2.692,0,0,1-1.88-.6,2.386,2.386,0,0,1-.64-1.76,12.1,12.1,0,0,1,.24-1.84c.54.04,1.02.1,1.78.1.98,0,1.6-.06,1.9-.08l.52-2.2a13,13,0,0,1-2.36.16,7.7,7.7,0,0,1-1.32-.06c.36-1.28.6-2,.84-2.68a18.423,18.423,0,0,0,2.94.16l.46-2.16c-1.16.02-1.62.02-2.62-.02a20.792,20.792,0,0,1,1.06-2.34c.32-.1.6-.04.6-.28,0-.22-.3-.32-.46-.38l-2.3-.86c-.28,1.02-.58,1.86-1.18,3.6a15.258,15.258,0,0,1-3.4-1l-.18,2.32c1.14.3,1.66.4,2.9.64-.44,1.3-.62,1.96-.82,2.66a14.229,14.229,0,0,1-2.7-.76l-.34,2.2a15.789,15.789,0,0,0,2.52.66,13.743,13.743,0,0,0-.24,2.26c0,3.68,2.9,4.36,4.84,4.36C133.12,52.74,136.38,51.36,136.38,47.9Zm20.9-.74c0-2.36-1.36-3.84-3.6-4.6l.32-.92-2.3-.5c-.08.38-.14.64-.24,1.04a8.834,8.834,0,0,0-2.18.16c.1-.8.12-.9.24-1.64a27.745,27.745,0,0,0,5.28-1.06V37.5a19.523,19.523,0,0,1-4.9,1.34,14.5,14.5,0,0,1,.62-1.96c.22-.06.46-.12.46-.3,0-.06,0-.16-.5-.3l-2.08-.56a32.975,32.975,0,0,0-.74,3.38,28.263,28.263,0,0,1-3.8-.14l.66,1.98c1.08,0,1.6,0,2.86-.06-.1.94-.16,1.44-.2,2.22-3.62,2-4.36,4.8-4.36,6.16,0,1.62.94,2.6,2.2,2.6a5.62,5.62,0,0,0,2.86-1,4.428,4.428,0,0,0,.28.74l1.92-1.04c-.2-.64-.24-.72-.38-1.2a18.056,18.056,0,0,0,3.26-5.04,2.848,2.848,0,0,1,2,2.76,3.767,3.767,0,0,1-1.16,2.76,5.8,5.8,0,0,1-3.42,1.42l1.46,1.84C153.22,52.7,157.28,51.56,157.28,47.16Zm-6.42-3.26a16.109,16.109,0,0,1-1.64,3.1,20.3,20.3,0,0,1-.1-2.88A4.634,4.634,0,0,1,150.86,43.9Zm-3.42,5.02a3.175,3.175,0,0,1-1.86.86c-.34,0-.74-.12-.74-.94s.5-2.08,2.3-3.58A28.509,28.509,0,0,0,147.44,48.92Zm28.16-6.24c0-1.32-.12-2.8-.24-4.2-.02-.2-.12-1.04-.12-1.22s.36-.3.36-.48c0-.26-.36-.26-.42-.26h-2.42a52.182,52.182,0,0,1,.5,6.22,12.156,12.156,0,0,1-1.22,5.36,8.827,8.827,0,0,1-2.84,3.38l2.38,1.26a13.391,13.391,0,0,0,2.8-4.1A14.752,14.752,0,0,0,175.6,42.68Zm-6.42-.62-1.4-.92c-.5,1.12-.9,2.16-1.16,2.84a4.506,4.506,0,0,1-.14-1.24c0-1.2.32-5.02.74-5.36.08-.08.28-.16.28-.3,0-.2-.3-.24-.42-.24l-2.18-.12a37.856,37.856,0,0,0-.56,5.92,15.767,15.767,0,0,0,.9,5.44h1.7A46.317,46.317,0,0,1,169.18,42.06Zm12.06,6.66a16.444,16.444,0,0,1,3.86,4.44l2.08-1.66a11.764,11.764,0,0,0-4.44-4.34Zm26.8,4.08V45.46h-8.46V52.8h2.22v-.86h3.98v.86ZM205.78,50H201.8V47.42h3.98Zm2.88-9.76V38.28h-3.74V36.84c0-.02.02-.14.22-.36a.439.439,0,0,0,.16-.3c0-.14-.12-.22-.28-.22l-2.36-.1v2.42H199v1.96h3.66v1.98h-3.02v1.9h8.6v-1.9h-3.32V40.24Zm-9.78,4.48a21.243,21.243,0,0,0-1.28-3.14l-1.58.82c.16.3.32.74.38.88-.68.08-.86.08-1.64.14,1.04-1.16,2.04-2.38,2.98-3.64.24-.3.24-.32.52-.36a.2.2,0,0,0,.18-.22.27.27,0,0,0-.1-.2l-1.56-1.06c-.5.8-.84,1.3-1.8,2.6-.22-.2-.3-.26-.7-.6.78-1.06,1.16-1.62,1.7-2.46.2-.3.2-.32.56-.44a.276.276,0,0,0,.2-.26.243.243,0,0,0-.1-.2l-1.7-1A21.264,21.264,0,0,1,193.06,39c-.34-.24-.5-.36-.84-.58l-1.06,1.6a13.724,13.724,0,0,1,2.6,2.08c-.24.32-.62.78-1.24,1.48-.22,0-1.28.04-1.5.06l.28,1.68c.02.14.08.46.26.46.08,0,.3-.24.36-.26a6.347,6.347,0,0,1,.7-.12c.04,0,.6-.08,1.16-.16v7.78h1.94V44.94c.8-.12.94-.14,1.16-.18.02.06.24.78.24.84Zm-.22,5.66a23.405,23.405,0,0,1-.78-4.24l-1.68.56a24.767,24.767,0,0,0,.7,4.22ZM193.58,47c0-.04-.06-.16-.34-.2l-1.68-.22a17.139,17.139,0,0,1-.9,4.88l1.82.38a19.149,19.149,0,0,0,.78-4.44C193.44,47.24,193.58,47.14,193.58,47Zm34.76-4.52H215.62V41.32h11.4V36.2H213.24c.08,1.76.1,3.52.1,5.26a23.848,23.848,0,0,1-1.02,7.58,10.948,10.948,0,0,1-1.48,3.14l2.26.84a13.7,13.7,0,0,0,1.42-3.5,27.64,27.64,0,0,0,1-5.22H226c0,2.22,0,3.98-.1,4.74-.2,1.7-.8,1.78-1.22,1.78-.06,0-.82-.02-1.74-.06L224,52.92c2.42-.06,3.58-.52,3.96-2.8a25.541,25.541,0,0,0,.32-4.12C228.34,44.16,228.34,43.42,228.34,42.48Zm-3.92-2.94h-8.8V38.08h8.8Zm-.28,10.66V45.5h-8.1v5.64h2.2V50.2Zm-2.24-1.84h-3.66V47.22h3.66Zm26.52-2.58V43.02H231.58v2.76Zm20.26,5c-3.46-1.84-7.34-4.06-7.34-12.12,0-.26,0-1.6.04-1.68s.36-.34.4-.4a.478.478,0,0,0,.16-.32c0-.3-.68-.3-.9-.3l-2.24-.08c.02.84.08,3.42.08,3.96a11.151,11.151,0,0,1-3,8.22,12.957,12.957,0,0,1-4.28,2.88l1.94,1.94c3.9-2.54,5.18-3.92,6.64-7.36,1.64,3.56,2.98,4.98,6.72,7.26ZM288,42.36a9.227,9.227,0,0,0-1.66-1.52l-.84.96a9.259,9.259,0,0,1,1.66,1.52Zm-1.62,1.82a8.72,8.72,0,0,0-1.66-1.54l-.82.96a8.88,8.88,0,0,1,1.64,1.54Zm.66-5.22V36.64c-3.78,1.16-9.98,1.64-14.3,1.6l.34,2.24c2-.28,4.94-.52,7.62-.74a14.912,14.912,0,0,0-2.64,3.04,7.275,7.275,0,0,0-1.36,3.98,5.017,5.017,0,0,0,1.48,3.6,8.975,8.975,0,0,0,4.92,2.22l.78-2.44a6.3,6.3,0,0,1-3.52-1.02,3.174,3.174,0,0,1-1.44-2.6,7.424,7.424,0,0,1,2.44-4.8A8.15,8.15,0,0,1,287.04,38.96Zm21.74,10.88-2.16-1c-.02,1.6-.4,2-1.38,2h-3.58a.643.643,0,0,1-.74-.72V47.16h3.7l.84,1.42a1.982,1.982,0,0,0,2.16-1.26c.72-1.7.68-6,.66-9.46h-6.9c.24-.92.28-1.04.42-1.12.32-.2.32-.2.32-.32,0-.14-.14-.22-.48-.28l-2.32-.38a15.683,15.683,0,0,1-1.4,4.74V38.72h-1.88v-2c0-.14.04-.16.34-.4a.253.253,0,0,0,.14-.2c0-.16-.22-.22-.48-.24l-2.18-.14v2.98H291.7V40.7h2.16v3.74c-.4.12-2.2.6-2.56.72l.34,2.16c.04.2.02.46.24.46.1,0,.14-.06.32-.3a.514.514,0,0,1,.34-.22c.46-.14.54-.18,1.32-.46v3.28c0,.4-.18.58-.6.58a14.264,14.264,0,0,1-1.56-.14l1.32,2.52c2.22,0,3.02-.44,3.02-2.08V46c.6-.24,1.34-.52,1.88-.74V43.32l.68.36c.14-.2.16-.22.32-.46h3.5v1.92h-3.6v5.34c0,1.7.76,2.36,2.32,2.36h5.04C307.94,52.84,308.38,52.34,308.78,49.84Zm-2.62-8.06a13.722,13.722,0,0,1-.48,4.04c-.16.38-.44.44-.8.46V41.32h-4.84c.18-.38.42-.92.66-1.5h5.42C306.14,40.52,306.16,41.16,306.16,41.78Zm-8.34-1.08a7.2,7.2,0,0,1-1.36,1.82l1.24.66c-.74.28-.84.3-1.66.58V40.7Zm24.64-4.22a16.322,16.322,0,0,1-5.1-.74l-.12,2.3a15.315,15.315,0,0,0,5.12.54Zm4.48,13.68a10.172,10.172,0,0,1-2.9.42c-1.14,0-1.42-.3-1.42-1.1,0-.38.2-2.24.2-2.66a1.345,1.345,0,0,0-1.34-1.36,5.435,5.435,0,0,0-1,.16c2.02-2.14,2.24-2.38,4.02-4.28l-1.3-1.72a24.409,24.409,0,0,1-7.42,1.5,9.451,9.451,0,0,1-1.42-.08l.52,2.06a21.638,21.638,0,0,0,5.82-.9c-.9,1.2-1.64,2.18-3.26,4.04-1.88,2.14-2.96,3.22-4.44,4.64l1.84,1.4c.88-1.04,2.26-2.66,3.32-3.84.52-.56.92-.98,1.5-.98a.871.871,0,0,1,.9.94c0,.3-.08,1.72-.08,2.04,0,1.7.88,2.26,2.92,2.26a20.057,20.057,0,0,0,3.4-.3ZM113.7,81.58c-3.68-2.5-4.36-5-4.4-11.48h-5.44v2.34h2.98c.02.36.04.68.1,1.24l-1.24-.34a12.1,12.1,0,0,1-4.28,8.24l1.98,1.4a13.011,13.011,0,0,0,2.5-3.08,13.842,13.842,0,0,0,1.5-3.48c1.2,4.32,2.42,5.6,4.38,6.98Zm-12.16-9.24a12.342,12.342,0,0,0-3.18-2.48l-1.62,1.72a14.468,14.468,0,0,1,3.08,2.38Zm13.04,11.34a32.909,32.909,0,0,1-4.34.56c-1.5.12-2.98.2-4.48.2-3.78,0-4.62-.68-4.62-2.38V76.98H96.42v2.2h2.42V82.9a20.956,20.956,0,0,1-2.74,1.32l.86,2.3c.06.14.16.36.34.36.14,0,.16-.06.34-.46.06-.16.06-.16.24-.28,1.04-.72,2.04-1.5,2.24-1.66a3.462,3.462,0,0,0,.84,1.02,4.308,4.308,0,0,0,3.02.88h9.14Zm18.66-1.06-1.3-1.92c-.74,1.08-2.16,3.04-3.54,3.04-.5,0-.82-.24-.82-.94,0-.5.46-2.7.46-3.16a2.3,2.3,0,0,0-2.5-2.42,5.868,5.868,0,0,0-2,.42c1.24-2.86,2.64-5.26,2.94-5.36a3.6,3.6,0,0,1,.44-.12.213.213,0,0,0,.16-.18c0-.2-.36-.38-.48-.44l-2.26-1.2c-.26.64-.54,1.28-1.22,2.74-.9,1.92-1.4,2.9-6.22,12.22l2.46.7a16.5,16.5,0,0,1,2.52-5,3.928,3.928,0,0,1,2.66-1.5.962.962,0,0,1,1.04,1.06c0,.32-.4,2.64-.4,3.14a2.452,2.452,0,0,0,2.74,2.46C130.92,86.16,132.5,83.76,133.24,82.62ZM153,76.36a9.227,9.227,0,0,0-1.66-1.52l-.84.96a9.259,9.259,0,0,1,1.66,1.52Zm-1.62,1.82a8.72,8.72,0,0,0-1.66-1.54l-.82.96a8.879,8.879,0,0,1,1.64,1.54Zm.66-5.22V70.64c-3.78,1.16-9.98,1.64-14.3,1.6l.34,2.24c2-.28,4.94-.52,7.62-.74a14.913,14.913,0,0,0-2.64,3.04,7.275,7.275,0,0,0-1.36,3.98,5.017,5.017,0,0,0,1.48,3.6,8.975,8.975,0,0,0,4.92,2.22l.78-2.44a6.3,6.3,0,0,1-3.52-1.02,3.174,3.174,0,0,1-1.44-2.6,7.424,7.424,0,0,1,2.44-4.8A8.15,8.15,0,0,1,152.04,72.96Zm20.16,8.16-1.96-1.62c-1.96,3.84-4.64,4.54-5.76,4.54a1.928,1.928,0,0,1-1.76-.84,10.531,10.531,0,0,1-.38-3.54,75.6,75.6,0,0,1,.56-8c.32-.26.56-.42.56-.58,0-.12-.18-.26-.66-.32l-2.66-.38c.06,1.34-.1,7.28-.1,8.5,0,4.8.32,5.82,1.26,6.64a4.449,4.449,0,0,0,2.92,1.02,7.229,7.229,0,0,0,3.98-1.28A14.922,14.922,0,0,0,172.2,81.12Zm19.12,2.54a16.627,16.627,0,0,0-5.06-2.26c-.06-1.18-.06-1.38-.1-2.38a42.989,42.989,0,0,0,4.28-.5V76.34c-1.84.34-2.58.46-4.32.68V74.66c1-.02,2.86-.06,5.08-.06l.08-2.12c-1.88.14-2.56.18-5.12.3.02-1.04.04-1.42.04-1.44a.65.65,0,0,1,.26-.36c.22-.18.26-.2.26-.28,0-.14-.12-.2-.5-.24l-2.44-.24.06,2.66c-1.78.04-2.86.08-5.14.08l.04,2.16c1.72-.2,2.86-.28,5.16-.38l.04,2.5a13.725,13.725,0,0,1-1.38.04c-.34,0-.76,0-.76-.28,0-.26.3-.48.66-.74l-1.14-.98c-.78.56-2.14,1.5-2.14,2.48,0,.78.92,1.44,2.76,1.44.58,0,1.68-.04,2.04-.06l.04,1.92-.56-.02c-4.5-.16-4.7,2.16-4.7,2.74,0,1.62,1.72,2.6,4.48,2.6,2.56,0,3.04-.8,3.12-2.84a15.077,15.077,0,0,1,3.66,1.98Zm-7.28-.7c.02,1.12-.06,1.48-1.36,1.48-.24,0-1.52,0-1.52-.68,0-.52.64-.86,1.94-.86A5.177,5.177,0,0,1,184.04,82.96ZM207.9,70.24a23.75,23.75,0,0,1-6-.7l.18,2.46a54.5,54.5,0,0,0,5.54.5Zm2.58,7.96a4.313,4.313,0,0,0-.86-2.84,3.573,3.573,0,0,0-2.66-1.1c-2.56,0-6.38,1.52-7.86,2.1l.92,2.32c1.46-.72,4.68-2.32,6.34-2.32.62,0,1.8.36,1.8,2.12a6.138,6.138,0,0,1-1.46,3.82,9.475,9.475,0,0,1-5,3l1.54,1.92a11.219,11.219,0,0,0,5.2-3.32A8.962,8.962,0,0,0,210.48,78.2Zm22.94.2a1.75,1.75,0,1,0-1.76,1.74A1.746,1.746,0,0,0,233.42,78.4Zm-6.68,0A1.74,1.74,0,1,0,225,80.14,1.729,1.729,0,0,0,226.74,78.4Zm-6.66,0a1.75,1.75,0,1,0-1.74,1.74A1.741,1.741,0,0,0,220.08,78.4Z" transform="translate(332 3547)"/><path class="b" d="M238.338,227.817c-46.719-.329-61.649-15.123-104.938-24.2S57.971,211.08,22.316,183.9-3.044,84.3,30.47,50.454,111.324-10.383,168.889,3.915,288.3,23.182,316.792,24.8s89.714-4.682,113.073,25.655,39.5,46.5,24.669,96.386-23.484,45.987-86.268,60.753S285.056,228.146,238.338,227.817Z" transform="translate(726.875 3705.328) rotate(180)"/><g class="b" transform="translate(211 3586)"><circle class="c" cx="18.5" cy="18.5" r="18.5"/><circle class="d" cx="18.5" cy="18.5" r="17.5"/></g><g class="b" transform="translate(178 3561)"><ellipse class="c" cx="12" cy="12.5" rx="12" ry="12.5"/><ellipse class="d" cx="12" cy="12.5" rx="11" ry="11.5"/></g><path class="a" d="M12.54,3.58a16.517,16.517,0,0,0-4.3-2.2L7.26,3.32A19.153,19.153,0,0,1,11.4,5.44Zm4.92,10.7a12.8,12.8,0,0,0-4.08-2.92l-1.32,1.52a13.682,13.682,0,0,1,3.88,3.16Zm-1.4-6.84L14.4,5.66a1.277,1.277,0,0,1-.72.28H4.4V7.98h7.56A18.063,18.063,0,0,1,2.6,13.92L3.98,15.9a19.915,19.915,0,0,0,4.86-2.32v5.6h2.3V11.92a29.1,29.1,0,0,0,3.6-3.5A5.573,5.573,0,0,1,16.06,7.44Zm14.8,2.34A12.009,12.009,0,0,0,29.5,6.54l-1.78.68a12.75,12.75,0,0,1,1.42,3.24Zm5.26-2.14c0-.14-.14-.28-.4-.36l-1.96-.6C33,12.34,30.28,15.08,26.4,17L28,18.42a14.393,14.393,0,0,0,7.46-9.6c.2-.78.22-.86.4-.96C36.08,7.78,36.12,7.76,36.12,7.64Zm-8.8,3.1a12.825,12.825,0,0,0-1.54-3.22l-1.84.7a12.472,12.472,0,0,1,1.52,3.22Zm30.1.96A24.482,24.482,0,0,0,54.3,9.3a17.859,17.859,0,0,0-3.4-1.82l-.94,1.48V3.7c0-.1.52-.42.52-.54,0-.24-.42-.3-.48-.32l-2.4-.42V18.26h2.36V9.62a20.36,20.36,0,0,1,5.88,4ZM78.16,7.68c0-2.52-2.16-3.52-4.06-3.52a8.719,8.719,0,0,0-2.46.44,21.564,21.564,0,0,0-2-2.38l-2.06.96a11.608,11.608,0,0,1,2.02,2.2c-.84.36-1.44.64-2.52,1.2-.34-.62-.94-1.72-1.08-1.92a3.029,3.029,0,0,1-.26-.5c0-.1.16-.5.16-.6,0-.36-.56-.08-.8.02l-2.12.92a21.187,21.187,0,0,1,2.06,3.18c-2.78,1.6-3.1,1.78-3.38,1.94l1.8,1.98a19.28,19.28,0,0,1,2.6-1.96,45.9,45.9,0,0,1,3.4,9l2.24-1a60.228,60.228,0,0,0-3.68-9.16,28.743,28.743,0,0,1,2.76-1.36,15.3,15.3,0,0,1,1,1.82l2.16-.92c-.46-.76-.78-1.28-1.06-1.66a5.208,5.208,0,0,1,1.3-.24c.64,0,1.86.4,1.86,1.5,0,1.38-1.46,2.64-3.86,2.64a8.637,8.637,0,0,1-1.24-.1l.76,2.18C73.26,12.3,78.16,12.16,78.16,7.68ZM98.22,5.22,96.38,3.36a1.215,1.215,0,0,1-.7.44H82.22V5.96H94.74a18.529,18.529,0,0,1-3.64,4.32l1.86,1.58A46.751,46.751,0,0,0,98.22,5.22ZM91.3,6.8c0-.16-.06-.16-.48-.18L88.48,6.5c.16,4.16-.78,7.34-5,10.26l2.14,1.26a12.364,12.364,0,0,0,5.12-9c.04-.26.12-1.66.16-1.7.02-.08.26-.28.3-.34C91.26,6.9,91.3,6.86,91.3,6.8Zm28.24-4.4a1.87,1.87,0,1,0-3.74,0,1.871,1.871,0,1,0,3.74,0Zm-2.4,3.1-1.98-1.8a1.14,1.14,0,0,1-.66.32H103.18V6.34h10.66a16.892,16.892,0,0,1-2.5,4.9,16.1,16.1,0,0,1-6.64,5.24l2.18,1.76a17.851,17.851,0,0,0,5.92-4.88,23.925,23.925,0,0,0,3.52-6.76A2.652,2.652,0,0,1,117.14,5.5Zm1.62-3.1a1.106,1.106,0,0,1-1.1,1.14,1.132,1.132,0,0,1-1.1-1.14,1.114,1.114,0,0,1,1.1-1.12A1.1,1.1,0,0,1,118.76,2.4Zm17.08.36c0-.24-.4-.26-.5-.26l-2.56-.14c.1,1.6.14,4.38.14,4.86,0,6.04-1.72,7.94-5.82,9.56l1.74,1.94c2.08-1.06,4.68-2.54,5.86-6.08.64-1.94.68-3.52.68-7.42,0-.2-.04-1.1-.02-1.28,0-.56,0-.62.26-.88C135.82,2.9,135.84,2.82,135.84,2.76Zm-8.32.16c0-.18-.36-.2-.52-.22l-2.38-.2v9.44H127V3.5c0-.06.02-.08.32-.3C127.4,3.12,127.52,3.02,127.52,2.92ZM158,8.36a9.227,9.227,0,0,0-1.66-1.52l-.84.96a9.259,9.259,0,0,1,1.66,1.52Zm-1.62,1.82a8.72,8.72,0,0,0-1.66-1.54l-.82.96a8.879,8.879,0,0,1,1.64,1.54Zm.66-5.22V2.64c-3.78,1.16-9.98,1.64-14.3,1.6l.34,2.24c2-.28,4.94-.52,7.62-.74a14.912,14.912,0,0,0-2.64,3.04,7.275,7.275,0,0,0-1.36,3.98,5.017,5.017,0,0,0,1.48,3.6,8.975,8.975,0,0,0,4.92,2.22l.78-2.44a6.3,6.3,0,0,1-3.52-1.02,3.174,3.174,0,0,1-1.44-2.6,7.424,7.424,0,0,1,2.44-4.8A8.15,8.15,0,0,1,157.04,4.96ZM178.26,18.7V2.26h-8.54V18.84h2.2v-1.2h4.1V18.7Zm-2.24-7.8h-4.1V8.52h4.1Zm0-4.32h-4.1V4.2h4.1Zm0,9.02h-4.1V12.84h4.1Zm-6.72-4.62a13.83,13.83,0,0,1-2.72-4.12V6.64h2.62V4.74h-2.62V2.58c0-.06.1-.14.2-.22s.12-.14.12-.18c0-.22-.42-.24-.54-.26l-1.82-.18v3H161.6v1.9h2.76a16.913,16.913,0,0,1-3.6,7.02l1.86,1.1a16.159,16.159,0,0,0,1.92-2.88v6.96h2.04V10.82a18.5,18.5,0,0,0,1.24,1.64ZM187,3.94V2.22h-4.7V3.94Zm.58,2.5V4.76h-6.06V6.44Zm11,10.72c-4-1.38-4.56-3.6-4.56-5.8a.458.458,0,0,1,.22-.48c.24-.22.34-.32.34-.48,0-.18-.16-.26-.78-.26l-2.14-.02c.02.32.06.8.06,1.3,0,4.8-3.06,5.54-4.3,5.8V12.6h-5.64v6.28h1.98v-.8h1.66v.62h2V17.44l1.62,1.74a6.923,6.923,0,0,0,4-3.54,8.9,8.9,0,0,0,3.84,3.38Zm-13.16-.78h-1.66V14.34h1.66ZM198.4,4.14c0-.14-.16-.26-.24-.3l-1.88-1.02a11.956,11.956,0,0,1-1.98,2.42l1.6,1.26a9.186,9.186,0,0,0,1.78-2c.1-.12.14-.12.44-.14C198.2,4.34,198.4,4.32,198.4,4.14Zm.42,5.04A10.383,10.383,0,0,1,195,7.14a3.23,3.23,0,0,1-1.08-2.68,8.453,8.453,0,0,1,.12-1.94,2.2,2.2,0,0,0,.22-.24.321.321,0,0,0,.1-.22c0-.18-.22-.22-.76-.24l-2-.04c.04.48.08,1.1.08,1.78,0,2.8-.52,4.5-4.24,5.62l1.54,1.78a8.222,8.222,0,0,0,3.94-3.24,9.17,9.17,0,0,0,4.18,3.32ZM190.8,4.04c0-.12-.16-.16-.44-.22l-1.84-.34a13.121,13.121,0,0,1-.44,3.18l1.96.36a17.261,17.261,0,0,0,.36-2.6C190.56,4.34,190.8,4.2,190.8,4.04Zm7.42,8.22c0-.14-.22-.3-.32-.34l-1.86-.78a11.025,11.025,0,0,1-1.44,2.22l1.72,1.12a9.209,9.209,0,0,0,1.24-1.92c.1-.02.22-.08.36-.1C198.12,12.42,198.22,12.38,198.22,12.26Zm-11.2-3.3V7.26h-4.8v1.7Zm4.12,3.3c0-.12-.14-.18-.44-.24l-2-.42a8.939,8.939,0,0,1-.82,3.02l2,.66a10.919,10.919,0,0,0,.84-2.66C190.88,12.54,191.14,12.42,191.14,12.26Zm-4.12-.62V9.96h-4.8v1.68Zm30.18,1.48-1.96-1.62c-1.96,3.84-4.64,4.54-5.76,4.54a1.928,1.928,0,0,1-1.76-.84,10.531,10.531,0,0,1-.38-3.54,75.6,75.6,0,0,1,.56-8c.32-.26.56-.42.56-.58,0-.12-.18-.26-.66-.32l-2.66-.38c.06,1.34-.1,7.28-.1,8.5,0,4.8.32,5.82,1.26,6.64a4.449,4.449,0,0,0,2.92,1.02,7.229,7.229,0,0,0,3.98-1.28A14.922,14.922,0,0,0,217.2,13.12ZM237.14,4.9V2.5a60.55,60.55,0,0,1-14.58,1.86l.4,2.36a76.474,76.474,0,0,1,7.62-.86c-.94.88-3.88,3.64-3.88,7.06,0,4.46,5,5.5,6.62,5.84l.7-2.52a5.936,5.936,0,0,1-3.48-.96,3.427,3.427,0,0,1-1.48-2.8c0-2,1.66-4.22,3.42-5.64A7.741,7.741,0,0,1,237.14,4.9Zm19.24,9a8.289,8.289,0,0,0-1.32-4.34l-1.86.98a6.141,6.141,0,0,1,.9,2.98c0,2.42-2.02,3.12-3.66,3.12a2.692,2.692,0,0,1-1.88-.6,2.386,2.386,0,0,1-.64-1.76,12.1,12.1,0,0,1,.24-1.84c.54.04,1.02.1,1.78.1.98,0,1.6-.06,1.9-.08l.52-2.2a13,13,0,0,1-2.36.16,7.7,7.7,0,0,1-1.32-.06c.36-1.28.6-2,.84-2.68a18.423,18.423,0,0,0,2.94.16l.46-2.16c-1.16.02-1.62.02-2.62-.02a20.792,20.792,0,0,1,1.06-2.34c.32-.1.6-.04.6-.28,0-.22-.3-.32-.46-.38l-2.3-.86c-.28,1.02-.58,1.86-1.18,3.6a15.258,15.258,0,0,1-3.4-1l-.18,2.32c1.14.3,1.66.4,2.9.64-.44,1.3-.62,1.96-.82,2.66a14.229,14.229,0,0,1-2.7-.76l-.34,2.2a15.789,15.789,0,0,0,2.52.66,13.742,13.742,0,0,0-.24,2.26c0,3.68,2.9,4.36,4.84,4.36C253.12,18.74,256.38,17.36,256.38,13.9Zm4.86.82a16.444,16.444,0,0,1,3.86,4.44l2.08-1.66a11.764,11.764,0,0,0-4.44-4.34Zm27.08,4.04V2.24H271.6V18.76h2.42v-.52h11.96v.52Zm-2.34-2.6H274.02V4.32h11.96Zm-1.7-1.6V6.22h-8.74v8.34h2.28v-.62h4.2v.62Zm-2.26-2.64h-4.2V8.24h4.2Zm27.16-1.2A14.475,14.475,0,0,1,303.98,9a9.587,9.587,0,0,1-2.76-2.44.233.233,0,0,0-.1-.26c.32-.4.68-.88.96-1.3h.82a13.133,13.133,0,0,1,.94,2.32l2.26-.26A9.843,9.843,0,0,0,305.36,5h3.26V3.08h-5.38c.2-.36.22-.4.42-.52.16-.06.28-.16.28-.28,0-.16-.32-.22-.42-.24l-2.22-.4a9.6,9.6,0,0,1-1.32,2.54V3H295.7c.14-.36.14-.4.28-.46.26-.14.3-.16.3-.28,0-.14-.26-.2-.36-.22l-2.24-.46a12.75,12.75,0,0,1-2.66,4.94l2.26.92a15.337,15.337,0,0,0,1.48-2.4h.46a7.194,7.194,0,0,1,.68,2.14L297.86,7c-1.72,1.82-3.28,2.88-7,3.96l1.82,1.88a15.13,15.13,0,0,0,3.44-1.52v.84h8.02v-.7a13.613,13.613,0,0,0,3.48,1.28ZM300.6,6.24l-2.02-.18c-.24.34-.3.44-.46.64a7.546,7.546,0,0,0-.58-1.66h1.72a4.4,4.4,0,0,1-.54.52Zm1.72,4.14h-4.78a11.715,11.715,0,0,0,2.3-2.28A8.82,8.82,0,0,0,302.32,10.38Zm3.78,8.64V13H293.94v6.06h2.3v-.62h7.54v.58Zm-2.32-2.4h-7.54v-1.8h7.54Zm24.7-7.72V6.96H324.2c.64-.78,1.36-1.8,1.5-2.02.64-1.08.7-1.1.98-1.14.4-.04.56-.08.56-.24a.31.31,0,0,0-.16-.24L324.84,2A20.646,20.646,0,0,1,323,5V3.56h-2.28V2.62c0-.12.16-.2.28-.26.08-.06.2-.12.2-.26,0-.08-.1-.16-.28-.16l-2.56-.1V3.56h-5.22V5.44h5.22V6.96h-6.9V8.9h7.6a24.068,24.068,0,0,1-7.66,3.56l1.24,1.94c1.16-.44,1.68-.64,2.58-1.02v5.66h2.16v-.52h6.78v.42h2.2V10.58h-5.92a21.023,21.023,0,0,0,2-1.68Zm-4.32,4.7h-6.78V12.3h6.78Zm0,3.14h-6.78V15.32h6.78Zm-1.52-11.3a14.568,14.568,0,0,1-1.3,1.52h-.62V5.44Zm25.5,4.92a7.066,7.066,0,0,0-7.44-7.28,8.626,8.626,0,0,0-8.82,8.48,5.691,5.691,0,0,0,4,5.38c1.04,0,1.96-1.68,2.56-2.92a28.4,28.4,0,0,0,2.48-8.9,5.117,5.117,0,0,1,3.4,1.34,4.715,4.715,0,0,1,1.44,3.5,6.257,6.257,0,0,1-1.44,3.98,6.736,6.736,0,0,1-3.6,2.14l1.48,2.06a9.655,9.655,0,0,0,4.66-3.52A7.473,7.473,0,0,0,348.14,10.36Zm-9.6-4.88c-.4,3.12-2.12,8.34-3.16,8.34-.36,0-1.28-.84-1.28-2.46a6.55,6.55,0,0,1,2-4.44A5.9,5.9,0,0,1,338.54,5.48ZM23.7,48.9a17.776,17.776,0,0,0-3.98-3.86l-1.6,1.48a4.906,4.906,0,0,1,.72.56c-1.02.1-1.7.12-3.5.18.4-.26,1.92-1.32,3.08-2.28a.759.759,0,0,1,.56-.18c.16-.02.32-.02.32-.18q0-.18-.42-.48l-.76-.56H23.6V41.72H16.2V40.9h5.44V39.18H16.2v-.7h7.06V36.8H16.2c0-.26.02-.28.26-.42.08-.04.18-.12.18-.22,0-.3-.64-.36-.78-.36l-2.22-.1v1.1H6.92v1.68h6.72v.7H8.3V40.9h5.34v.82H6.44v1.86h6.02a5.391,5.391,0,0,1-.98,1.16,15.907,15.907,0,0,0-1.86-1.02L8.28,45.28a13.123,13.123,0,0,1,3.22,2.04c-1.32,0-3.46-.02-5.04-.18l.14,1.74c.02.24.08.76.32.76.14,0,.24-.04.48-.24a.906.906,0,0,1,.68-.2c.9-.02,1.42-.04,2.48-.08a7.593,7.593,0,0,1-3.92,2.34l1.9,1.76a20.071,20.071,0,0,0,3.68-2.62,1.741,1.741,0,0,0,.42.08c.22,0,.28-.1.28-.22a.567.567,0,0,0-.28-.42l-1.26-.94c.22-.02,1.62-.08,2.26-.1v4.04h2.4V48.86a40.3,40.3,0,0,0,4.34-.38,10.581,10.581,0,0,1,1.56,1.84Zm-.92,2.74a13.725,13.725,0,0,1-3.9-2.7l-1.7,1.42a13.883,13.883,0,0,0,3.8,2.9Zm-6.14-8.06a14.083,14.083,0,0,1-2.98,2.72c-.24-.2-.26-.22-.62-.5.62-.6,1.02-1.02,1.56-1.58.1-.12.12-.12.48-.18a.3.3,0,0,0,.26-.28.269.269,0,0,0-.1-.18Zm27.02,8.8V50.3h-4.8V46.66H42.4V44.6H38.86V41.58H43.4V39.44H38.86V36.82c0-.1.16-.24.3-.36a.568.568,0,0,0,.26-.42c0-.18-.16-.24-.72-.26l-2.18-.08v3.74H35.48c.06-.16.22-.94.32-1.12a1.707,1.707,0,0,1,.28-.22c.14-.08.22-.18.22-.28,0-.22-.16-.26-.54-.36l-2.1-.52a17.622,17.622,0,0,1-.72,3.2,9.5,9.5,0,0,0-1.14-1.38l-.72.44V36.88c0-.12.1-.2.28-.32.14-.08.28-.18.28-.36,0-.2-.28-.26-.74-.28l-2.14-.1v4.02c-.08-.06-.1-.08-.36-.12l-1.88-.28a17.879,17.879,0,0,1-.56,4.86l2.1.32a21.368,21.368,0,0,0,.52-4.34.528.528,0,0,0,.18-.12V52.92h2.32V41.08a3.957,3.957,0,0,1,.94,1.14,5.836,5.836,0,0,1-.8,1.3l2.28.76a11.672,11.672,0,0,0,1.3-2.7h1.72V44.6H33.34v2.06h3.18V50.3H32.14v2.08Zm21.3-14.22a9.11,9.11,0,0,0-1.56-1.68l-1.04.76a7.941,7.941,0,0,1,1.42,1.72Zm-2.18,1.12a12.321,12.321,0,0,0-1.54-1.7l-1.08.8a8.935,8.935,0,0,1,1.58,1.76Zm-.32,5.4c0-2.12-2.72-5.34-3.64-6.44L57.2,39.36c2.12,2.46,2.88,4.1,2.88,4.6,0,.48-.42.58-1.14.68L60,46.54C60.74,46.44,62.46,46.2,62.46,44.68Zm-4.54.02c0-1.78-.24-4.16-2.94-4.16a8.356,8.356,0,0,0-1.46.14c.16-.9.2-1.26.3-2.06.04-.26.04-.26.28-.42.2-.12.22-.14.22-.22,0-.16-.22-.26-.48-.3l-2.4-.34a23.936,23.936,0,0,1-.2,3.8c-1.64.36-2.32.5-3.84.74l.74,2.4a17.913,17.913,0,0,1,2.72-1.08A21.228,21.228,0,0,1,47.24,51l2.08.94a26.847,26.847,0,0,0,3.8-9.26,6.618,6.618,0,0,1,1.08-.1c1.24,0,1.62.48,1.62,2.02,0,.96-.16,3.48-1.06,4.6a1.556,1.556,0,0,1-1.38.56,5.886,5.886,0,0,1-1.36-.16l.48,2.16a14.074,14.074,0,0,0,1.5.08,3,3,0,0,0,2.28-.78C57.22,50.16,57.92,47.58,57.92,44.7Zm23.96,4.9a18.554,18.554,0,0,0-5.56-2.66c-.16-2.54-.16-3.18-.14-4.88.4.04.94.06,1.34.06a15.527,15.527,0,0,0,3.64-.48V39.32A9.975,9.975,0,0,1,77.1,40a4.867,4.867,0,0,1-.84-.04c0-.7.06-2.16.1-2.42.02-.16.12-.22.24-.3.24-.16.26-.18.26-.26,0-.18-.38-.24-.48-.26l-2.4-.34V37.8c0,3.5-.02,4.02.12,8.66a10.982,10.982,0,0,0-1.46-.1c-2.92,0-4.66,1.38-4.66,3.12,0,1.36,1.1,2.82,4.74,2.82,3.26,0,3.88-1.16,3.76-3.12a16.39,16.39,0,0,1,4.14,2.44Zm-7.74-1.12c0,.88.02,1.88-1.58,1.88-.66,0-2.14-.18-2.14-1.02,0-.58.7-1.04,1.96-1.04A10.364,10.364,0,0,1,74.14,48.48Zm25.2-11.06c0-.2-.38-.5-.42-.54l-1.84-1.42a55.231,55.231,0,0,1-6.4,6.52,3.431,3.431,0,0,0-1.38,2.24,2.341,2.341,0,0,0,1,1.76,33.3,33.3,0,0,1,6.9,7.5l2.06-1.92a40.978,40.978,0,0,0-6.76-6.68.853.853,0,0,1-.34-.7c0-.38.1-.48,1.42-1.72,2.06-1.92,4-3.78,4.42-4.22.52-.52.58-.58.82-.6C99.28,37.58,99.34,37.58,99.34,37.42Zm24.92,5.14c-3.22-1.48-4.28-2.6-5.34-6.62h-3.96v2.22h2.2a12.263,12.263,0,0,0,2.24,3.94h-9.18a21.937,21.937,0,0,0,2.52-3.46c.04-.08.44-.2.52-.24.02-.02.12-.06.12-.16a.316.316,0,0,0-.16-.24l-2.18-1.22c-1.86,3.4-3.18,4.82-5.38,6.18l1.8,1.62a15.093,15.093,0,0,0,2.58-2.3v1.86h2.26a6.861,6.861,0,0,1-1.24,4.12,8.089,8.089,0,0,1-4.12,2.76l1.62,1.86c4.04-1.96,5.74-4.26,6.06-8.74h3.14a31.047,31.047,0,0,1-.34,4.96c-.12.6-.36,1.5-1.44,1.5-.26,0-.86-.04-1.7-.14l.94,2.3c4.18-.06,4.72-.92,4.8-10a7.616,7.616,0,0,0,2.66,1.78Zm18.88,2.04c0-.72-.5-3.08-3.12-5.88l-1.66,1.2a10.228,10.228,0,0,1,2.22,3.88c0,.48-.46.52-1.32.6l1.36,2.06C141.9,46.22,143.14,45.74,143.14,44.6Zm-4.74-.88c0-1.22-.22-3.44-2.94-3.44a9.375,9.375,0,0,0-1.58.16c.14-.76.28-1.46.38-2.18.02-.2.06-.22.42-.44.22-.14.26-.2.26-.28,0-.18-.4-.3-.56-.32l-2.44-.34a20.7,20.7,0,0,1-.44,4c-.88.14-2.72.48-4.18.6l.8,2.42a25.177,25.177,0,0,1,2.84-.86A20.993,20.993,0,0,1,127,50.86l2.28,1.02a33.151,33.151,0,0,0,4.14-9.32,7.533,7.533,0,0,1,1.14-.1c1.44,0,1.66.64,1.66,1.7A11.824,11.824,0,0,1,135,49.14a1.23,1.23,0,0,1-1.2.5,5.592,5.592,0,0,1-1.8-.32l.28,2.42a12.651,12.651,0,0,0,1.72.12,3.108,3.108,0,0,0,3-1.54A15.338,15.338,0,0,0,138.4,43.72Zm19.12-5.7a23.764,23.764,0,0,0-4.78-2.06l-.86,1.98a18.944,18.944,0,0,1,4.62,2.18Zm3.68,8.92a4.316,4.316,0,0,0-4.44-4.38,7.691,7.691,0,0,0-4.92,2.02,25.553,25.553,0,0,1,1.2-4.4l-2.3-.9a39.042,39.042,0,0,0-1.56,7.64l1.74.92c2.06-2.4,4.08-3.2,5.46-3.2,1.5,0,2.52.82,2.52,2.1,0,1.84-1.7,3.78-5.42,3.78a20.028,20.028,0,0,1-2.5-.22l1.06,2.46C154.52,52.7,161.2,52.58,161.2,46.94Zm20.66,2.7a18.369,18.369,0,0,0-3.44-1.82,19.817,19.817,0,0,1-.26-2.78,1.832,1.832,0,0,1,.76-1.6l-2.08-1.12a3.022,3.022,0,0,0-.86,2.04c0,.42.24,2.46.28,2.92a10.093,10.093,0,0,0-1.56-.12c-2.76,0-3.54,1.76-3.54,2.84a2.264,2.264,0,0,0,.74,1.7,4.753,4.753,0,0,0,3.26.94c2.62,0,3.22-.84,3.4-2.44a11.009,11.009,0,0,1,1.98,1.32Zm-5.5-.36c0,.72.02,1.56-1.6,1.56-1.1,0-1.66-.46-1.66-.9,0-.4.48-.96,1.52-.96A6.716,6.716,0,0,1,176.36,49.28Zm6.06-8a9.884,9.884,0,0,0-4.46-1.84l-.9,1.72a14.155,14.155,0,0,1,4.38,1.82Zm-5.96-1.04V38c-.52.18-1.12.38-2.3.68.08-.26.46-1.54.48-1.56.12-.12.46-.24.46-.44,0-.22-.38-.32-.48-.34l-2.18-.48a19.083,19.083,0,0,1-.72,3.3,26.624,26.624,0,0,1-3.4.26l.3,2.08c.94-.06,1.5-.12,2.42-.24a34.305,34.305,0,0,1-3.42,7.28l2.14.92a48.777,48.777,0,0,0,3.7-8.58C175.16,40.58,175.78,40.42,176.46,40.24Zm26.9,6.66a17,17,0,0,0-3.28-8.5l-2.06,1a18.6,18.6,0,0,1,2.94,8.12Zm-8.82-.3-1.66-1.48c-.38.96-1.2,3.08-1.92,3.08-.4,0-1.36-.72-1.36-4.62a20.732,20.732,0,0,1,.38-4.46c.34-.12.58-.2.58-.42,0-.24-.32-.34-.46-.38l-2.2-.6a19.479,19.479,0,0,0-.6,5.2c0,3.8.64,6.14,2.04,7.5a2.181,2.181,0,0,0,1.48.66C192.44,51.08,193.44,48.96,194.54,46.6Zm28.6-2.24a7.066,7.066,0,0,0-7.44-7.28,8.626,8.626,0,0,0-8.82,8.48,5.691,5.691,0,0,0,4,5.38c1.04,0,1.96-1.68,2.56-2.92a28.4,28.4,0,0,0,2.48-8.9,5.117,5.117,0,0,1,3.4,1.34,4.715,4.715,0,0,1,1.44,3.5,6.257,6.257,0,0,1-1.44,3.98,6.736,6.736,0,0,1-3.6,2.14l1.48,2.06a9.655,9.655,0,0,0,4.66-3.52A7.473,7.473,0,0,0,223.14,44.36Zm-9.6-4.88c-.4,3.12-2.12,8.34-3.16,8.34-.36,0-1.28-.84-1.28-2.46a6.55,6.55,0,0,1,2-4.44A5.9,5.9,0,0,1,213.54,39.48ZM243,42.36a9.227,9.227,0,0,0-1.66-1.52l-.84.96a9.259,9.259,0,0,1,1.66,1.52Zm-1.62,1.82a8.72,8.72,0,0,0-1.66-1.54l-.82.96a8.879,8.879,0,0,1,1.64,1.54Zm.66-5.22V36.64c-3.78,1.16-9.98,1.64-14.3,1.6l.34,2.24c2-.28,4.94-.52,7.62-.74a14.912,14.912,0,0,0-2.64,3.04,7.275,7.275,0,0,0-1.36,3.98,5.017,5.017,0,0,0,1.48,3.6,8.975,8.975,0,0,0,4.92,2.22l.78-2.44a6.3,6.3,0,0,1-3.52-1.02,3.174,3.174,0,0,1-1.44-2.6,7.424,7.424,0,0,1,2.44-4.8A8.15,8.15,0,0,1,242.04,38.96Zm19.22-.94c0-.16-.26-.42-.34-.48l-1.74-1.44a31.05,31.05,0,0,1-11.6,8.5l1.74,1.78a35.861,35.861,0,0,0,5.04-2.84v8.8h2.5V41.68a25.607,25.607,0,0,0,3.3-3.12c.28-.3.32-.34.62-.36C261.18,38.18,261.26,38.16,261.26,38.02Zm21.62,2.58-1.66-1.94a2.076,2.076,0,0,1-.94.44H267.32v2.26h11.26c-1.36,1.46-2.5,2.64-4.06,4.2a25.614,25.614,0,0,0-2.2-1.96l-1.56,1.56a20.179,20.179,0,0,1,5.04,6l2.02-1.62a18.028,18.028,0,0,0-1.68-2.22c2.48-2.64,5.32-5.5,5.82-5.98C282.18,41.14,282.48,40.9,282.88,40.6Zm18.38-2.58c0-.16-.26-.42-.34-.48l-1.74-1.44a31.05,31.05,0,0,1-11.6,8.5l1.74,1.78a35.86,35.86,0,0,0,5.04-2.84v8.8h2.5V41.68a25.607,25.607,0,0,0,3.3-3.12c.28-.3.32-.34.62-.36C301.18,38.18,301.26,38.16,301.26,38.02Zm21.32,6.8V42.6h-5.34c0-.34.02-.44.02-.96.02-.7-.04-1.82-.06-2.54a18.485,18.485,0,0,0,2.54-.98.672.672,0,0,1,.3-.08h.64a.133.133,0,0,0,.1-.14c0-.14-.18-.34-.24-.4l-1.64-1.52a24.974,24.974,0,0,1-9.96,2.54l1.08,2a30.769,30.769,0,0,0,4.68-.76,7.231,7.231,0,0,1,.12,1.6c0,.66-.02,1.04-.04,1.24h-7.36v2.22h7.12c-.66,2.98-2.08,4.5-5.32,6.34l1.94,1.7c3.38-2.2,5.02-4.08,5.82-8.04Zm17.84,5.58H334.8V48.62h5.62Zm2.28,2.46V46.78H332.52v6.08h2.28v-.62h5.62v.62ZM332.16,37.02c0-.22-.24-.3-.42-.38l-1.98-.68a20.74,20.74,0,0,1-4.26,7.18l1.68,1.28a9.711,9.711,0,0,0,1-1.24v9.68h2.18V41.18a1.077,1.077,0,0,1,.24-.36.365.365,0,0,0,.1-.22c0-.22-.24-.36-.44-.48.64-1.24.72-1.38,1.2-2.42.14-.32.14-.32.5-.46C332.08,37.2,332.16,37.14,332.16,37.02Zm10.02,1.22V36.4h-8.86v1.84Zm1.42,2.56V38.96H331.8V40.8Zm-1.42,2.56V41.52h-8.86v1.84Zm0,2.56V44.08h-8.86v1.84ZM27.2,85.06V70.18H12.98c.18,2.1.26,4.2.26,6.3,0,5-.28,7.3-1.6,9.56l2.08.74a15.243,15.243,0,0,0,1.64-6.62h3.7v5.7h2.26v-5.7h3.6v3.96c0,.56-.26.72-1.08.72a4.907,4.907,0,0,1-.92-.08l1.1,2.18C27.18,86.72,27.2,86.12,27.2,85.06Zm-2.28-11h-3.6V72.12h3.6Zm0,4.22h-3.6V75.94h3.6Zm-5.86-4.22h-3.6c0-.74,0-1.22-.02-1.94h3.62Zm0,4.22H15.44c0-.4.02-.6.04-2.34h3.58ZM48,76.36a9.227,9.227,0,0,0-1.66-1.52l-.84.96a9.259,9.259,0,0,1,1.66,1.52Zm-1.62,1.82a8.72,8.72,0,0,0-1.66-1.54l-.82.96a8.879,8.879,0,0,1,1.64,1.54Zm.66-5.22V70.64c-3.78,1.16-9.98,1.64-14.3,1.6l.34,2.24c2-.28,4.94-.52,7.62-.74a14.912,14.912,0,0,0-2.64,3.04,7.275,7.275,0,0,0-1.36,3.98,5.017,5.017,0,0,0,1.48,3.6,8.975,8.975,0,0,0,4.92,2.22l.78-2.44a6.3,6.3,0,0,1-3.52-1.02,3.174,3.174,0,0,1-1.44-2.6,7.424,7.424,0,0,1,2.44-4.8A8.15,8.15,0,0,1,47.04,72.96Zm19.12,2.76-.36-2a22.8,22.8,0,0,1-3.64,1.8c-.32-.7-.4-.9-.66-1.52a13.174,13.174,0,0,0,3.16-1.36l-.44-1.94a19.3,19.3,0,0,1-3.42,1.54,17.433,17.433,0,0,1-.6-1.84c0-.06.02-.12.18-.28.1-.1.16-.16.16-.26,0-.24-.5-.18-.66-.16l-2.28.26c.32.94.54,1.58,1,2.82a24.664,24.664,0,0,1-4.66.4l.62,1.92a22.961,22.961,0,0,0,4.76-.54c.2.46.42.96.72,1.64a26.512,26.512,0,0,1-6.3.6l.7,2.02a25.794,25.794,0,0,0,6.42-.88c.38.74.56,1.1,1.04,1.96a15.277,15.277,0,0,0-2.86-.32c-2.26,0-4.42.74-4.42,3.48,0,2.64,2.48,3.78,6.08,3.78a20.133,20.133,0,0,0,3.16-.24l.2-2.36a14.59,14.59,0,0,1-4,.54c-.68,0-3.28,0-3.28-1.7,0-1.08,1.1-1.64,2.42-1.64a11.261,11.261,0,0,1,5.24,1.52l1.22-1.52a21.711,21.711,0,0,1-2.64-4.16A14.833,14.833,0,0,0,66.16,75.72Zm20.7,7.92a18.369,18.369,0,0,0-3.44-1.82,19.817,19.817,0,0,1-.26-2.78,1.832,1.832,0,0,1,.76-1.6l-2.08-1.12a3.022,3.022,0,0,0-.86,2.04c0,.42.24,2.46.28,2.92a10.094,10.094,0,0,0-1.56-.12c-2.76,0-3.54,1.76-3.54,2.84a2.264,2.264,0,0,0,.74,1.7,4.753,4.753,0,0,0,3.26.94c2.62,0,3.22-.84,3.4-2.44a11.01,11.01,0,0,1,1.98,1.32Zm-5.5-.36c0,.72.02,1.56-1.6,1.56-1.1,0-1.66-.46-1.66-.9,0-.4.48-.96,1.52-.96A6.716,6.716,0,0,1,81.36,83.28Zm6.06-8a9.884,9.884,0,0,0-4.46-1.84l-.9,1.72a14.156,14.156,0,0,1,4.38,1.82Zm-5.96-1.04V72c-.52.18-1.12.38-2.3.68.08-.26.46-1.54.48-1.56.12-.12.46-.24.46-.44,0-.22-.38-.32-.48-.34l-2.18-.48a19.083,19.083,0,0,1-.72,3.3,26.625,26.625,0,0,1-3.4.26l.3,2.08c.94-.06,1.5-.12,2.42-.24a34.306,34.306,0,0,1-3.42,7.28l2.14.92a48.777,48.777,0,0,0,3.7-8.58C80.16,74.58,80.78,74.42,81.46,74.24Zm26.9,6.66a17,17,0,0,0-3.28-8.5l-2.06,1a18.6,18.6,0,0,1,2.94,8.12Zm-8.82-.3-1.66-1.48c-.38.96-1.2,3.08-1.92,3.08-.4,0-1.36-.72-1.36-4.62a20.732,20.732,0,0,1,.38-4.46c.34-.12.58-.2.58-.42,0-.24-.32-.34-.46-.38l-2.2-.6a19.478,19.478,0,0,0-.6,5.2c0,3.8.64,6.14,2.04,7.5a2.181,2.181,0,0,0,1.48.66C97.44,85.08,98.44,82.96,99.54,80.6Zm27.66.52-1.96-1.62c-1.96,3.84-4.64,4.54-5.76,4.54a1.928,1.928,0,0,1-1.76-.84,10.531,10.531,0,0,1-.38-3.54,75.591,75.591,0,0,1,.56-8c.32-.26.56-.42.56-.58,0-.12-.18-.26-.66-.32l-2.66-.38c.06,1.34-.1,7.28-.1,8.5,0,4.8.32,5.82,1.26,6.64a4.449,4.449,0,0,0,2.92,1.02,7.229,7.229,0,0,0,3.98-1.28A14.922,14.922,0,0,0,127.2,81.12Zm4.04,1.6a16.444,16.444,0,0,1,3.86,4.44l2.08-1.66a11.764,11.764,0,0,0-4.44-4.34Zm25.96-10.8c0-.12-.26-.26-.42-.34l-1.88-.88a11.722,11.722,0,0,1-2.32,3.5l1.88,1.04a22.435,22.435,0,0,0,2.1-2.82c.14-.2.14-.22.38-.28C157.02,72.14,157.2,72.1,157.2,71.92Zm-1.08,8.02c0-.2-.28-.3-.5-.4l-1.52-.64a12.4,12.4,0,0,1-1.7,2.76l1.76.88a6.69,6.69,0,0,0,.54-.72c.02-.02.88-1.4.98-1.56a2.388,2.388,0,0,0,.32-.16C156.08,80.06,156.12,80.02,156.12,79.94Zm2.42-2.48a11.757,11.757,0,0,1-6.06-2.68,4.833,4.833,0,0,1-1.52-3.12c0-.04.1-.98.1-1,.04-.08.3-.32.34-.38a.266.266,0,0,0,.06-.16c0-.18-.32-.26-.58-.28l-2.26-.14c.38,6.3-3.78,7.34-7.28,7.98L143,79.74a15.245,15.245,0,0,0,1.72-.58,7.764,7.764,0,0,1-2.3,3.06l1.96,1a21.837,21.837,0,0,0,2.42-3.4c.2-.06.42-.12.42-.24s-.16-.18-.24-.22l-1.36-.56a8.636,8.636,0,0,0,4.4-3.98c1.46,2.36,2.9,3.42,6.76,4.68ZM146.46,71.6c0-.16-.2-.24-.28-.26l-2.12-.7a8.037,8.037,0,0,1-1.76,4.02l1.92.92a14.288,14.288,0,0,0,1.88-3.66C146.34,71.78,146.46,71.72,146.46,71.6Zm12.16,13.42c-1.64-.14-4.2-.38-6.14-2.38A5.623,5.623,0,0,1,151,77.8c.02-.1.34-.46.34-.54,0-.24-.42-.28-.52-.28l-2.32-.06c.02.28.06.66.06,1.22a6.328,6.328,0,0,1-2.52,5.52,9.138,9.138,0,0,1-4.7,1.48L143,87.22a10.7,10.7,0,0,0,4.64-1.94,7.911,7.911,0,0,0,2.32-2.98,7.026,7.026,0,0,0,2.16,2.86,10.752,10.752,0,0,0,4.7,2.06ZM178.6,86.4V84.18h-7.78V78.04h6.48V75.72h-6.48v-4.9c0-.1.18-.18.3-.24.1-.06.22-.12.22-.28s-.18-.22-.3-.22l-2.7-.22V84.18h-6.96V86.4Zm19.56-10.72c0-2.52-2.16-3.52-4.06-3.52a8.719,8.719,0,0,0-2.46.44,21.564,21.564,0,0,0-2-2.38l-2.06.96a11.608,11.608,0,0,1,2.02,2.2c-.84.36-1.44.64-2.52,1.2-.34-.62-.94-1.72-1.08-1.92a3.03,3.03,0,0,1-.26-.5c0-.1.16-.5.16-.6,0-.36-.56-.08-.8.02l-2.12.92a21.186,21.186,0,0,1,2.06,3.18c-2.78,1.6-3.1,1.78-3.38,1.94l1.8,1.98a19.28,19.28,0,0,1,2.6-1.96,45.9,45.9,0,0,1,3.4,9l2.24-1a60.229,60.229,0,0,0-3.68-9.16,28.745,28.745,0,0,1,2.76-1.36,15.3,15.3,0,0,1,1,1.82l2.16-.92c-.46-.76-.78-1.28-1.06-1.66a5.208,5.208,0,0,1,1.3-.24c.64,0,1.86.4,1.86,1.5,0,1.38-1.46,2.64-3.86,2.64a8.637,8.637,0,0,1-1.24-.1l.76,2.18C193.26,80.3,198.16,80.16,198.16,75.68Zm20.34.66c0-.1-.12-.22-.46-.42l-1.84-1.06a14.51,14.51,0,0,1-1.12,1.9V71.42H209.9a5.294,5.294,0,0,0,.54-1.24c.04-.06.06-.06.24-.16.16-.08.22-.12.22-.22,0-.18-.14-.2-.5-.22l-2.32-.08a9.616,9.616,0,0,1-.72,1.92h-2.72v8.56c-1.12.08-2.06.12-2.5.12l.34,2.06c.04.28.12.38.24.38.1,0,.1-.02.24-.22a.69.69,0,0,1,.24-.18c.06-.02,6.68-.98,7.9-1.3a17.807,17.807,0,0,1-8.92,3.64l1.6,2.18a19.517,19.517,0,0,0,5.52-2.12,23.316,23.316,0,0,0,3.56-2.4V84.1a.638.638,0,0,1-.52.72s-1.54-.02-1.72-.02l.76,2.32h1.6c1.42,0,2.1-.62,2.1-2.06V80.12a19.566,19.566,0,0,0,2.76-3.46c.08-.14.12-.14.48-.16C218.36,76.5,218.5,76.48,218.5,76.34Zm-5.64.56h-5.94V75.7h5.94Zm0-2.6h-5.94V73.12h5.94Zm0,4.92c-3.04.4-4.84.52-5.94.58V78.34h5.94Zm26.66-8.4a12.213,12.213,0,0,0-1.76-1.88l-1.06.88a10.068,10.068,0,0,1,1.8,1.86Zm-1.96,1.48a8.489,8.489,0,0,0-1.66-1.82l-1.06.88a8.736,8.736,0,0,1,1.64,1.8Zm1.24,10.36a34.9,34.9,0,0,0-5.1-10.16l-2.1,1.18a26.92,26.92,0,0,1,4.72,10.12Zm-9.94-9.18c0-.18-.28-.28-.48-.32l-2.42-.54c-.58,3.38-2.24,7.9-5.06,10.8l2.58,1.08a27.806,27.806,0,0,0,4.36-8.92c.08-.26.36-1.5.44-1.6a3.289,3.289,0,0,1,.38-.26C228.76,73.64,228.86,73.58,228.86,73.48ZM258,78.16l-1.22-2.2A27.678,27.678,0,0,1,252,80.08a14.562,14.562,0,0,1-4.92,2.26V72.3c0-.08.02-.1.32-.34.18-.16.2-.2.2-.28,0-.2-.4-.26-.54-.28l-2.38-.3V84.32l1.36,1.38A29.012,29.012,0,0,0,258,78.16Zm18.38,3.74a8.289,8.289,0,0,0-1.32-4.34l-1.86.98a6.141,6.141,0,0,1,.9,2.98c0,2.42-2.02,3.12-3.66,3.12a2.692,2.692,0,0,1-1.88-.6,2.386,2.386,0,0,1-.64-1.76,12.093,12.093,0,0,1,.24-1.84c.54.04,1.02.1,1.78.1.98,0,1.6-.06,1.9-.08l.52-2.2a13,13,0,0,1-2.36.16,7.7,7.7,0,0,1-1.32-.06c.36-1.28.6-2,.84-2.68a18.423,18.423,0,0,0,2.94.16l.46-2.16c-1.16.02-1.62.02-2.62-.02a20.794,20.794,0,0,1,1.06-2.34c.32-.1.6-.04.6-.28,0-.22-.3-.32-.46-.38l-2.3-.86c-.28,1.02-.58,1.86-1.18,3.6a15.258,15.258,0,0,1-3.4-1l-.18,2.32c1.14.3,1.66.4,2.9.64-.44,1.3-.62,1.96-.82,2.66a14.229,14.229,0,0,1-2.7-.76l-.34,2.2a15.789,15.789,0,0,0,2.52.66,13.742,13.742,0,0,0-.24,2.26c0,3.68,2.9,4.36,4.84,4.36C273.12,86.74,276.38,85.36,276.38,81.9Zm22.26-7.6V72.36h-6.12l.4-1.64c.06-.08.44-.32.48-.38a.258.258,0,0,0,.1-.22c0-.2-.22-.22-.7-.26l-2.04-.18a16.359,16.359,0,0,1-.54,2.68h-2.48v1.88a11.054,11.054,0,0,0-.64-1.26l-1.12.42V70.76c0-.12.1-.2.26-.28.2-.1.28-.18.28-.28,0-.22-.2-.24-.68-.28l-2.16-.16V86.88h2.3V80.54l1.3.8c.16-.16.4-.36.94-.94v4.36h2.1V78.68h1.84V86.8h2.22V82.6l.86,1.98c1.92-.02,3.1-.36,3.1-1.76V76.66H294.4v-.5a.542.542,0,0,1,.26-.48c.1-.08.26-.16.26-.32,0-.24-.42-.28-.78-.32l-1.98-.2v1.82h-1.24a14.408,14.408,0,0,0,1-2.36Zm-2.44,7.32c0,.48-.28.66-.74.66a4.119,4.119,0,0,1-1.08-.16V78.68h1.82Zm-6.62-7.32a9.67,9.67,0,0,1-3.6,5.1V74.86a10.844,10.844,0,0,1,.86,2.36l1.68-.66a10.785,10.785,0,0,0-.74-2.26Zm-5.92-.94c0-.16-.1-.24-.44-.26l-1.68-.14a14.977,14.977,0,0,1-.9,5.24l2.14.32a21.022,21.022,0,0,0,.6-4.84C283.5,73.62,283.66,73.52,283.66,73.36Zm34.7,7.54a17,17,0,0,0-3.28-8.5l-2.06,1a18.6,18.6,0,0,1,2.94,8.12Zm-8.82-.3-1.66-1.48c-.38.96-1.2,3.08-1.92,3.08-.4,0-1.36-.72-1.36-4.62a20.732,20.732,0,0,1,.38-4.46c.34-.12.58-.2.58-.42,0-.24-.32-.34-.46-.38l-2.2-.6a19.478,19.478,0,0,0-.6,5.2c0,3.8.64,6.14,2.04,7.5a2.181,2.181,0,0,0,1.48.66C307.44,85.08,308.44,82.96,309.54,80.6Zm28.88-2.2a1.75,1.75,0,1,0-1.76,1.74A1.746,1.746,0,0,0,338.42,78.4Zm-6.68,0A1.74,1.74,0,1,0,330,80.14,1.729,1.729,0,0,0,331.74,78.4Zm-6.66,0a1.75,1.75,0,1,0-1.74,1.74A1.741,1.741,0,0,0,325.08,78.4Z" transform="translate(797 3547)"/><path class="b" d="M1140.45-708.623c-45.478-.326-57.585-16.624-99.724-25.635s-69.3,9.152-104.007-17.824-32.625-118.132,0-151.727,113.574-73.872,169.611-59.68,89.7,25.1,117.438,26.7,71.094-6.262,93.832,23.851,46.362,55.284,31.929,104.8-22.865,65.086-83.982,79.743S1185.927-708.3,1140.45-708.623Z" transform="translate(-160.463 4428.048)"/><g class="b" transform="translate(1200 3529)"><circle class="c" cx="18" cy="18" r="18"/><circle class="d" cx="18" cy="18" r="17"/></g><g class="b" transform="translate(1239 3505)"><circle class="c" cx="12" cy="12" r="12"/><circle class="d" cx="12" cy="12" r="11"/></g></g></svg>